<?xml version="1.0" encoding="UTF-8"?><svg id="_色修正" xmlns="http://www.w3.org/2000/svg" viewBox="0 0 900 600"><defs><style>.cls-1{fill:#231815;}.cls-1,.cls-2,.cls-3{stroke-width:0px;}.cls-2{fill:#fbc600;}.cls-3{fill:#004097;}</style></defs><rect class="cls-3" width="900" height="600"/><rect class="cls-2" x="300" width="300" height="600"/><path id="h" class="cls-1" d="M450,154.65c-9.75,26.59-19.69,54.26-40.95,75.45,6.6-2.18,18.15-4.12,25.58-3.94v111.82l-31.58,4.69c-1.12-.11-1.5-1.88-1.5-4.27-3.04-34.73-11.25-63.9-20.7-94.09-.68-4.12-12.64-19.88-3.41-17.1,1.12.15,13.46,5.18,11.51,2.77-16.8-17.4-41.36-29.92-65.21-33.64-2.1-.52-3.34.52-1.46,2.96,31.65,48.71,58.12,106.2,57.9,174.41,12.3,0,42.11-7.27,54.45-7.27v78.9h15.56l3.56-220.35-3.75-70.35Z"/><path id="h-2" class="cls-1" d="M450,154.65c9.75,26.59,19.69,54.26,40.95,75.45-6.6-2.18-18.15-4.12-25.58-3.94v111.82l31.58,4.69c1.12-.11,1.5-1.88,1.5-4.27,3.04-34.73,11.25-63.9,20.7-94.09.68-4.12,12.64-19.88,3.41-17.1-1.12.15-13.46,5.18-11.51,2.77,16.8-17.4,41.36-29.92,65.21-33.64,2.1-.52,3.34.52,1.46,2.96-31.65,48.71-58.12,106.2-57.9,174.41-12.3,0-42.11-7.27-54.45-7.27v78.9h-15.56l-3.56-220.35,3.75-70.35Z"/></svg>