<?xml version="1.0" encoding="UTF-8"?><svg id="_色修正" xmlns="http://www.w3.org/2000/svg" viewBox="0 0 900 600"><defs><style>.cls-1{fill:#ce0032;}.cls-1,.cls-2,.cls-3,.cls-4{stroke-width:0px;}.cls-2{fill:#fbc600;}.cls-3{fill:#005bab;}.cls-4{fill:#008c3c;}</style></defs><rect class="cls-1" width="900" height="600"/><path class="cls-3" d="M0,600h900v-300"/><path class="cls-4" d="M0,0h900v300"/><path class="cls-2" d="M259.21,447.53c-.43,0-.85-.18-1.15-.53-.07-.08-7.16-8.38-22.26-17.88-5.83-3.67-13.74-6.02-22.9-8.75-14.62-4.35-32.81-9.77-51.23-23.24-30.77-22.5-58.65-69.5-51.59-123.78,7.1-54.58,48.12-82.8,48.53-83.08.69-.46,1.62-.28,2.08.41.46.69.28,1.62-.4,2.08-.4.27-40.32,27.78-47.24,80.98-6.9,53.06,20.33,98.99,50.39,120.97,18,13.17,35.92,18.5,50.31,22.78,9.37,2.79,17.47,5.2,23.65,9.08,15.54,9.77,22.67,18.13,22.96,18.48.53.63.45,1.58-.18,2.11-.28.24-.62.35-.97.35Z"/><path class="cls-2" d="M210.11,418.54s-3.66,8.31-15.96,11.31-29.26.33-29.26.33c0,0,2-6.65,12.64-12.3,10.64-5.65,18.95-4.99,18.95-4.99,0,0-9.31-3.33-14.63-15.3s-4.99-16.29-4.99-16.29c0,0,17.39,3.08,26.27,14.3,6.32,7.98,8.98,15.96,6.98,22.95Z"/><path class="cls-2" d="M173.19,402.25c.33-1,5.32-9.64-2.99-24.61-8.31-14.96-17.62-17.29-17.62-17.29,0,0-1.66,9.64.33,18.29s6.98,15.96,6.98,15.96c0,0-12.64-3.99-21.62-1-8.98,2.99-13.63,6.65-13.63,6.65,0,0,11.64,9.98,25.61,9.31,13.97-.67,22.95-7.32,22.95-7.32Z"/><path class="cls-2" d="M141.93,376.97s7.32-15.63,4.66-27.6c-2.66-11.97-13.3-20.29-13.3-20.29,0,0-5.65,9.31-4.99,18.95.67,9.64,1,11.97,1,11.97,0,0-6.32-3.66-15.96-3.33-9.64.33-15.3,2.99-15.3,2.99,0,0,12.64,13.63,22.95,16.29,10.31,2.66,20.95,1,20.95,1Z"/><path class="cls-2" d="M118.99,339.06c1-1,12.97-11.64,13.63-21.28s-2.66-23.61-2.66-23.61c0,0-8.98,5.32-10.97,15.3-2,9.98-2.66,20.29-2.66,20.29,0,0-2.66-9.98-13.63-14.96-10.97-4.99-19.29-5.32-19.29-5.32,0,0,3.99,18.95,16.63,25.61,12.64,6.65,18.95,3.99,18.95,3.99Z"/><path class="cls-2" d="M111.34,301.15s3.99-2.99,11.31-9.31c7.32-6.32,11.97-22.28,11.64-27.93l-.33-5.65s-9.31,3.33-15.63,12.97c-6.32,9.64-7.65,12.64-7.65,12.64,0,0-2-7.32-12.3-16.29s-14.63-10.31-14.63-10.31c0,0,.67,15.63,7.98,28.6,7.32,12.97,19.62,15.3,19.62,15.3Z"/><path class="cls-2" d="M113.67,260.58s5.65,6.32-6.32-9.98c-11.97-16.29-2.99-38.24-2.99-38.24,0,0,9.98,6.32,12.3,18.95l2.33,12.64s5.65-8.31,13.63-10.97c7.98-2.66,16.96-3.33,16.96-3.33,0,0-2.99,20.29-14.96,24.61-11.97,4.32-20.95,6.32-20.95,6.32Z"/><path class="cls-2" d="M130.3,222.34s2.66,2.33,16.63,1.33,28.6-19.95,28.6-19.95c0,0-14.63-1-22.61,2-7.98,2.99-12.97,6.32-12.3,4.99s5.99-4.99.67-19.29l-5.32-14.3s-11.31,7.65-10.97,19.62c.33,11.97,5.32,25.61,5.32,25.61Z"/><path class="cls-2" d="M156.9,193.41s5.32-14.3,20.29-19.62,26.27-2.66,26.27-2.66c0,0-3.33,9.31-11.97,15.96s-27.22,8.18-34.58,6.32Z"/><path class="cls-2" d="M206.62,446.86c.43,0,.85-.18,1.15-.53.07-.08,7.16-8.38,22.26-17.88,5.83-3.67,13.74-6.02,22.9-8.75,14.62-4.35,32.81-9.77,51.23-23.24,30.77-22.5,58.65-69.5,51.59-123.78-7.1-54.58-48.12-82.8-48.53-83.08-.69-.46-1.62-.28-2.08.41-.46.69-.28,1.62.4,2.08.4.27,40.32,27.78,47.24,80.98,6.9,53.06-20.33,98.99-50.39,120.97-18,13.17-35.92,18.5-50.31,22.78-9.37,2.79-17.47,5.2-23.65,9.08-15.54,9.77-22.67,18.13-22.96,18.48-.53.63-.45,1.58.18,2.11.28.24.62.35.97.35Z"/><path class="cls-2" d="M255.72,417.87s3.66,8.31,15.96,11.31c12.3,2.99,29.26.33,29.26.33,0,0-2-6.65-12.64-12.3-10.64-5.65-18.95-4.99-18.95-4.99,0,0,9.31-3.33,14.63-15.3,5.32-11.97,4.99-16.29,4.99-16.29,0,0-17.39,3.08-26.27,14.3-6.32,7.98-8.98,15.96-6.98,22.95Z"/><path class="cls-2" d="M292.63,401.58c-.33-1-5.32-9.64,2.99-24.61,8.31-14.96,17.62-17.29,17.62-17.29,0,0,1.66,9.64-.33,18.29-2,8.65-6.98,15.96-6.98,15.96,0,0,12.64-3.99,21.62-1,8.98,2.99,13.63,6.65,13.63,6.65,0,0-11.64,9.98-25.61,9.31s-22.95-7.32-22.95-7.32Z"/><path class="cls-2" d="M323.89,376.3s-7.32-15.63-4.66-27.6,13.3-20.29,13.3-20.29c0,0,5.65,9.31,4.99,18.95s-1,11.97-1,11.97c0,0,6.32-3.66,15.96-3.33,9.64.33,15.3,2.99,15.3,2.99,0,0-12.64,13.63-22.95,16.29s-20.95,1-20.95,1Z"/><path class="cls-2" d="M346.84,338.4c-1-1-12.97-11.64-13.63-21.28-.67-9.64,2.66-23.61,2.66-23.61,0,0,8.98,5.32,10.97,15.3,2,9.98,2.66,20.29,2.66,20.29,0,0,2.66-9.98,13.63-14.96,10.97-4.99,19.29-5.32,19.29-5.32,0,0-3.99,18.95-16.63,25.61-12.64,6.65-18.95,3.99-18.95,3.99Z"/><path class="cls-2" d="M354.49,300.49s-3.99-2.99-11.31-9.31c-7.32-6.32-11.97-22.28-11.64-27.93l.33-5.65s9.31,3.33,15.63,12.97c6.32,9.64,7.65,12.64,7.65,12.64,0,0,2-7.32,12.3-16.29s14.63-10.31,14.63-10.31c0,0-.67,15.63-7.98,28.6-7.32,12.97-19.62,15.3-19.62,15.3Z"/><path class="cls-2" d="M352.16,259.92s-5.65,6.32,6.32-9.98c11.97-16.29,2.99-38.24,2.99-38.24,0,0-9.98,6.32-12.3,18.95l-2.33,12.64s-5.65-8.31-13.63-10.97-16.96-3.33-16.96-3.33c0,0,2.99,20.29,14.96,24.61s20.95,6.32,20.95,6.32Z"/><path class="cls-2" d="M335.53,221.67s-2.66,2.33-16.63,1.33c-13.97-1-28.6-19.95-28.6-19.95,0,0,14.63-1,22.61,2s12.97,6.32,12.3,4.99-5.99-4.99-.67-19.29l5.32-14.3s11.31,7.65,10.97,19.62-5.32,25.61-5.32,25.61Z"/><path class="cls-2" d="M308.93,192.74s-5.32-14.3-20.29-19.62c-14.96-5.32-26.27-2.66-26.27-2.66,0,0,3.33,9.31,11.97,15.96,8.65,6.65,27.22,8.18,34.58,6.32Z"/><path class="cls-2" d="M233.05,448.42s-.04,0-.06,0c-.83-.03-1.47-.73-1.44-1.56.89-22.18,1.75-56.64.51-60.69-.45-1.45-1.51-3.49-2.86-6.07-3.73-7.12-9.36-17.87-10.5-32.39-1.63-20.83,4.86-36.16,10.59-49.68,1.83-4.32,3.56-8.4,5.01-12.56,6.48-18.52,10.94-32.78,9.24-47.66l-1.77-15.52c-.09-.82.5-1.57,1.32-1.66.82-.1,1.57.5,1.66,1.32l1.77,15.52c1.77,15.52-2.77,30.1-9.39,49-1.49,4.25-3.23,8.38-5.08,12.74-5.87,13.86-11.93,28.18-10.36,48.28,1.09,13.9,6.55,24.33,10.17,31.23,1.42,2.72,2.55,4.86,3.07,6.58,1.8,5.84-.15,55.99-.38,61.69-.03.81-.7,1.44-1.5,1.44Z"/><path class="cls-2" d="M243.25,262.64c-.07,0-.14,0-.21-.02-.82-.12-1.39-.88-1.27-1.7.13-.89,1.32-4.28,11.35-10.38.71-.43,1.63-.21,2.06.5.43.71.21,1.63-.5,2.06-5.11,3.11-9.75,6.96-9.94,8.24-.11.75-.75,1.29-1.48,1.29Z"/><path class="cls-2" d="M232.72,296c-.63,0-1.21-.4-1.42-1.02h0s-1.29-3.76-4.34-7.12l-3.33-3.66c-.56-.61-.51-1.56.1-2.12s1.56-.51,2.12.1l3.33,3.66c3.5,3.85,4.91,8.01,4.97,8.18.26.79-.16,1.64-.95,1.9-.16.05-.32.08-.47.08Z"/><path class="cls-2" d="M221.74,358.52c-.38,0-.77-.15-1.06-.44-.04-.04-3.86-3.83-7.88-5.69l-4.32-2c-.75-.35-1.08-1.24-.73-1.99.35-.75,1.24-1.08,1.99-.73l4.32,2c4.51,2.08,8.58,6.12,8.75,6.29.59.59.59,1.53,0,2.12-.29.29-.68.44-1.06.44Z"/><path class="cls-2" d="M220.75,331.25c-.26,0-.53-.07-.77-.21-.71-.43-.94-1.35-.51-2.06.13-.21,3.2-5.29,6.74-7.77,3.52-2.46,6.03-2.88,6.3-2.92.82-.12,1.58.45,1.7,1.27.12.82-.45,1.58-1.27,1.7,0,0-2.07.35-5,2.4-3.02,2.11-5.86,6.81-5.89,6.86-.28.47-.78.73-1.29.73Z"/><path class="cls-2" d="M233.49,387.21c-.15,0-.3-.02-.44-.07-.78-.24-1.22-1.05-1-1.84.08-.26.87-2.69,5.26-7.07,2.91-2.91,4.89-5.21,4.91-5.24.54-.63,1.49-.7,2.11-.16.63.54.7,1.49.16,2.11-.08.1-2.07,2.41-5.07,5.4-3.79,3.8-4.5,5.8-4.51,5.82-.21.63-.8,1.03-1.43,1.03Z"/><path class="cls-2" d="M241.7,217.02s2.66-12.64-3.66-21.62-8.98-9.64-8.98-9.64c0,0-1.66,10.31-.33,17.62s9.64,15.96,9.64,15.96c0,0-7.32-4.66-12.3-4.99l-4.99-.33s11.57,13.01,18.95,18.29c4.66,3.33,5.32,5.32,5.32,5.32,0,0,2.99-5.99,6.32-14.3,3.33-8.31-2.33-22.61-2.33-22.61,0,0-8.31,8.98-7.65,16.29Z"/><path class="cls-2" d="M265.64,224.34s-9.64,7.32-10.64,15.3c-1,7.98.17,11.41.17,11.41,0,0,1.82,3.88,13.13,4.22,11.31.33,16.96-6.65,16.96-6.65,0,0-8.65-3.66-11.64-4.32l-2.99-.67s9.98-1,15.63-9.98c5.65-8.98,6.65-11.97,6.65-11.97,0,0-15.3,2.66-19.95,7.32s-6.32,9.98-6.32,9.98c0,0,1.33-10.97-1-14.63Z"/><path class="cls-2" d="M242.69,292.17s-9.64,7.32-10.64,15.3.17,11.41.17,11.41c0,0,1.82,3.88,13.13,4.22,11.31.33,16.96-6.65,16.96-6.65,0,0-8.65-3.66-11.64-4.32l-2.99-.67s9.98-1,15.63-9.98,6.65-11.97,6.65-11.97c0,0-15.3,2.66-19.95,7.32s-6.32,9.98-6.32,9.98c0,0,1.33-10.97-1-14.63Z"/><path class="cls-2" d="M250.34,347.04s-9.64,7.32-10.64,15.3.17,11.41.17,11.41c0,0,1.82,3.88,13.13,4.22,11.31.33,16.96-6.65,16.96-6.65,0,0-8.65-3.66-11.64-4.32l-2.99-.67s9.98-1,15.63-9.98,6.65-11.97,6.65-11.97c0,0-15.3,2.66-19.95,7.32s-6.32,9.98-6.32,9.98c0,0,1.33-10.97-1-14.63Z"/><path class="cls-2" d="M182.35,347.7s9.77,7.14,17.7,5.81c7.93-1.33,10.89-3.44,10.89-3.44,0,0,3.2-2.86.28-13.79-2.92-10.93-11.23-14.34-11.23-14.34,0,0-1.03,9.33-.81,12.39l.22,3.06s-3.81-9.27-14.04-12.12c-10.22-2.84-13.38-2.94-13.38-2.94,0,0,6.93,13.89,12.73,17.02s11.37,3.2,11.37,3.2c0,0-10.89,1.87-13.73,5.15Z"/><path class="cls-2" d="M197.31,276.84s8.27,8.84,16.31,9.02c8.04.17,11.34-1.34,11.34-1.34,0,0,3.68-2.21,2.85-13.49-.83-11.28-8.36-16.19-8.36-16.19,0,0-2.75,8.98-3.11,12.02l-.35,3.05s-2.02-9.82-11.53-14.52c-9.51-4.7-12.59-5.39-12.59-5.39,0,0,4.22,14.94,9.32,19.1s10.57,5.26,10.57,5.26c0,0-11.05-.2-14.45,2.49Z"/></svg>