<?xml version="1.0" encoding="UTF-8"?><svg id="_色修正" xmlns="http://www.w3.org/2000/svg" viewBox="0 0 900 600"><defs><style>.cls-1{stroke:#1079bd;stroke-width:2.83px;}.cls-1,.cls-2{fill:#fff000;}.cls-3{fill:#187fc3;}.cls-3,.cls-2,.cls-4{stroke-width:0px;}.cls-4{fill:#008e3e;}</style></defs><rect class="cls-4" width="900" height="600"/><rect class="cls-2" width="900" height="450"/><rect class="cls-3" width="900" height="300"/><g id="h"><path id="q" class="cls-2" d="M835.5,156.75l-67.01,3.92,63.71,21.12-65.74-13.56,56.07,36.89-59.99-30.11,44.61,50.15-50.15-44.61,30.11,59.99-36.89-56.07,13.56,65.74-21.12-63.71-3.92,67.01-.83-97.58,97.58.83Z"/><path id="q-2" class="cls-2" d="M835.5,156.75l-67.01-3.92,63.71-21.12-65.74,13.56,56.07-36.89-59.99,30.11,44.61-50.15-50.15,44.61,30.11-59.99-36.89,56.07,13.56-65.74-21.12,63.71-3.92-67.01-.83,97.58,97.58-.83Z"/></g><g id="h-2"><path id="q-3" class="cls-2" d="M642,156.75l67.01,3.92-63.71,21.12,65.74-13.56-56.07,36.89,59.99-30.11-44.61,50.15,50.15-44.61-30.11,59.99,36.89-56.07-13.56,65.74,21.12-63.71,3.92,67.01.83-97.58-97.58.83Z"/><path id="q-4" class="cls-2" d="M642,156.75l67.01-3.92-63.71-21.12,65.74,13.56-56.07-36.89,59.99,30.11-44.61-50.15,50.15,44.61-30.11-59.99,36.89,56.07-13.56-65.74,21.12,63.71,3.92-67.01.83,97.58-97.58-.83Z"/></g><circle class="cls-1" cx="738.75" cy="156.75" r="28.58"/></svg>