<?xml version="1.0" encoding="UTF-8"?><svg id="_色修正" xmlns="http://www.w3.org/2000/svg" viewBox="0 0 900 600"><defs><style>.cls-1{fill:#d47f32;stroke:#040000;stroke-linecap:round;stroke-linejoin:round;stroke-width:.96px;}.cls-2{fill:#231815;}.cls-2,.cls-3,.cls-4,.cls-5{stroke-width:0px;}.cls-3{fill:#e50012;}.cls-4{fill:#e9933b;}.cls-5{fill:#009344;}</style></defs><rect class="cls-5" width="900" height="600"/><rect class="cls-4" x="792.86" y="214.29" width="107.14" height="385.71"/><rect class="cls-2" x="685.71" y="214.29" width="107.14" height="385.71"/><rect class="cls-3" x="578.57" y="214.29" width="107.14" height="385.71"/><path class="cls-1" d="M821.32,72.14s36.86-14.45,40.43-17.42c1.62,1.79-14.78,19.96-46.6,26.66,28.9-6.25,53.58-25.91,58.61-25.32,1.46.3,1.14,19.21-65.11,35.59,45.79-11.02,72.42-31.27,72.09-29.04.32.45-4.55,15.93-44.65,28,11.2-2.38,41.57-19.36,41.24-16.08.97,1.34-29.39,37.08-84.27,25.47,43.84,10.42,72.25-14.74,76.31-14.3.81.15-8.12,22.04-63.32,23.38,26.47-2.53,18.83-.15,18.83-.15,0,0-15.59,11.17-34.42,3.57,14.78,3.72,16.4,3.87,16.72,5.06-.97,1.49-13.15,3.72-24.84-2.09,9.42,3.57,17.86,4.17,18.02,5.51-.16.45-6.17,3.57-11.53,1.34-5.36-2.23-54.72-30.08-54.72-30.08l84.11-21.15,3.08,1.04Z"/><path class="cls-1" d="M722.45,147.47c-7.4,0-7.6,6.04-7.6,6.04,0,0-.61.44-.2,3.36,1.22-1.99,1.83-2.61,1.83-2.61.81.12,4.21,1.06,9.57-2.8-4.89,4.67-1.97,6.41-1.97,6.41,0,0-1.15,3.67,2.58,4.42-1.15-1.49-.47-2.8-.47-2.8,0,0,5.22-.5,4.89-6.35.2,5.29,3.33,6.6,3.33,6.6,0,0,0,2.93,3.39,3.17-1.83-1.49-1.42-3.8-1.42-3.8,0,0,4.41-2.93.68-7.9,2.24-1.18,4.07-4.48,4.07-4.48,0,0-3.05-1.18-4.48-2.18-.68-1.31-.07-8.46-.07-8.46l-1.83-9.27-5.23,14.44c.2-2.05.34,6.22-7.06,6.22Z"/><path class="cls-1" d="M758.98,126.65c.16.15,5.52,5.66,10.72,5.36,1.95-1.49-4.06-4.77-4.06-5.51,2.11,1.79,11.04,8.79,16.72,6.25,2.27-2.98-4.06-2.53-11.04-10.57,4.87,2.98,17.05,9.53,22.73,7,2.44-2.38-12.66-9.83-17.7-15.64l-12.99-6.11-17.7,13.25,13.31,5.96Z"/><path class="cls-1" d="M739,81.38s6.01-3.28,30.04-1.64c2.6.3,16.4-4.32,20.78-5.66,6.98-1.19,29.23-5.66,35.23-9.83,4.22-.45-1.14,7.15-6.49,8.94-5.68,2.38-26.3,8.94-33.61,8.04,8.77.15,3.9,6.7-10.72,3.57,6.98,3.57,4.38,4.17,4.38,4.17,0,0-12.34.6-15.59-1.94,8.28,2.83,4.87,3.87,4.87,3.87,0,0-8.44.74-12.34-.89,6.01,1.64,2.92,2.68,2.92,2.68,0,0-4.87.74-8.93-.6-4.06-1.34-10.23-10.72-10.55-10.72Z"/><path class="cls-1" d="M748.64,129.74l.88,14.56s-.48.75-.88,1.18c-.41.44-11.26-1.56-9.77,6.04,0,3.11.07,3.92,2.38,5.66-.61-2.05-.41-3.48-.41-3.48,0,0,3.05,1.68,6.04-2.93-2.04,4.54-.61,6.16-.14,6.29.48.81-.81,4.48,3.26,4.42-1.56-1.37-.81-3.36-.81-3.36,0,0,4.27-.62,2.78-7.72,1.56-1.43,2.17-.06,2.17-.06,0,0,.47,4.23,4.21,3.36,1.7.87-.27,3.17-.27,3.17,0,0,2.71.06,3.53-2.05.81-2.12,1.76-5.91-2.71-7.47-.54-1.49,1.76-1.62,1.76-1.62,0,0,2.85.87,3.66,2.18.81,1.31.54-3.42-2.99-3.92-4.34-.12-4.61-.93-4.61-1.12s-.75-10.58-1.09-13.57l-6.99.44Z"/><path class="cls-1" d="M763.74,142.15c.05-.67-7.41-9.88-5.52-11.07,1.89.36,5,4.55,7.51,3.19-.76-1.63-3.01-.71-5.56-4.9-2.55-4.73-2.92-11.83-11.85-19.57,5.78,8.19,18.9,13,19.45,10.61.56-2.39-11.55-11.42-10.93-13.6,2.41,4.47,14.56,14.43,23.51,13.61.61-1.92-7.33-5.79-9.38-9.4-5.72-3.52-21.03-15.63-21.33-18.43-5.57-7.45-9.05-9.71-10.67-10.56-.63-.68-.78-1.32-.91-1.73-3.46-7.48,1.12-9.9,3.8-10.26,2.21-.22,2.85.08,4.43-.63-1.88-.67-3.76-1.31-5.64-1.98,2.45,1.65,8.71.2,7.35,4.95,2.74-.96,8.58-7.33-6.62-8.77-4.95-5.21-25.29-8.2-30.38,14.52.41.32.62.58,1.91,1.47-6.42-2.86-23.75-5.06-30-5.98-16.87-4.46-34.39-15.22-36.07-13.9-2.25.92,10.19,11.54,9.55,11.77-10.79-5.77-20.65-9.86-29.82-13.58-6.45-2.21-12.92-7.36-13.63-6.38-2.37,4.51,10.35,15.86,12.71,17.19,2.37,1.28,20.98,9.19,20.7,9.29-28.03-11.67-32.73-13.79-34.14-15.13-2.47-.51-8.49-7.96-10.17-7.48-.92.83.92,12.6,14.3,17.89,2.18,1.46,28.67,10.17,28.41,10.86-.06.17-30.34-11.46-31.52-11.88-5.84-2.1-13-9.46-14.34-8.63-1.28.75,3.3,8.72,9.2,11.21,3.09,1.25,14.95,6.64,25.64,10.07.68.23-19.21-6.92-28.77-10.58-4.34-2.21-6.38-4.96-7.04-4.37-.98.59,1.58,12.36,32.31,19,.81.32,10.82-2.17,10.32-1.84-.12.08-9.94,2.04-10.89,1.98-.85-.12-6.23.58-6.32.84-.32.8,1.95,5.01,17.81,4.13,2.03-.11,13.04-3.68,12.11-2.91-.46.38-14.99,4.71-16.09,4.8-.96.12-6.06.61-6.25,1.11-.23.68,3.78,3.68,12.3,4.16,7.54.37,21.88-4.23,21.59-3.93-.29.3-13.82,4.55-14.17,4.81-.49.25-5.44.5-5.62.85-.4.87,7.15,7.34,29.48.43-2.24,2.78-13.07,4.68-13.05,5.18-.05.36,2.38,2.52,6.17,3.29,1.89.39,4.48.31,6.85-.04,4.25-.78,8.73-2.32,14.42-7.15.68,1.51-14.22,8.43-13.52,9.09,3.23,2.75,13.96-.35,14.66-.71.7-.36,20.66-10.68,20.6-11.88.31,1.53-25.73,14.51-25.45,15.04,1.67,2.45,10.57-.13,10.99-.35.42-.22,11.35-5.64,11.65-5.8.3-.16-12.85,7.06-11.67,8.15-.57,4.69,20.53-3.23,22.18-4.22.83-.49-10.13,4.42-10.16,6.75,3.53,5.47,14.83,3.74,16.57,2.53.87-.6-1.03,4.07-.41,3.64.21-.09,2.46-2.52,3.32-4.28-.28,1.53-1.51,3.94-2.24,6.7-.72,2.76-.93,5.88-1.92,9.2-.23,1.46,6.96-2.85,5.92-13.13.62,5.35-2.27,15.35-1.52,15.87,1.51,1.04,5.69-4.98,6.11-9.05,1.24,2.06,3.84,6.35,6.08,7.34-.24-3.11.04-2.97-.97-6.03.58-4.06.66-9.68.8-16.02,6.09,10.69,8.51,15.21,6.81,23.39,1.81.69,4.7-5.71,4.47-9.01,2.32,9.16,12.35,10.54,12.51,10.27Z"/><path class="cls-1" d="M662.39,74.27s-4.14,2.87-9.3,2.7c1.29,4.73,11.97,1.1,11.97,1.1,0,0-5.15,5.23-8.84,6.08,2.21,1.69,11.5,1.1,13.07.25,1.56-.84,4.33-4.14,4.33-4.14,0,0-9.57,10.13-10.95,10.05-.18,1.18,10.03.76,12.15-1.01,2.12-1.77,7.46-4.39,7.46-4.39,0,0-13.99,8.95-14.63,8.95,5.25,1.27,15.74-1.52,22.46-5.32-9.94,6.08-10.86,7.18-15.92,9.2,4.51.93,6.81,3.71,22.09-2.36,8.74-3.8,13.71-10.72,13.71-10.72-5.43,6.67-13.99,12.33-23.47,17.9-.55,1.01,10.12,5.15,23.75-7.85"/><path class="cls-1" d="M736.39,102.46s.92,3.97,4.6,7.01c3.68,3.04,3.96,5.99,3.96,5.99"/><path class="cls-1" d="M734.55,76.63s1.29,3.55,5.06,5.82c3.87,2.28,9.67,9.45,10.13,10.72.45,1.53,2.67,12.58,2.48,13.76"/><path class="cls-1" d="M711.08,82.12c.28,1.35-5.43,8.19,2.39,16.21-7.09,7.93-7.09,8.95-7.09,8.95,0,0,3.96,2.03,11.04-3.55,11.69,13.17,7.79,19.2,7.79,19.2"/><path class="cls-1" d="M724.29,113.63s-1.08-1.41.84-6.7c1.73,1.91,3.65,2.32,4.49,3.09.84.77,9.67,1.94,10.23,7.35"/><path class="cls-1" d="M734.67,64.04c0-.4-1.78-3.89-8.41.48,3.55.2,7.06,2.07,8.41-.48Z"/><path class="cls-1" d="M797.94,80.04c.32.15,19.81,4.02,26.3,2.08-8.28,10.13-24.84,3.28-24.84,3.28,8.12,2.23,8.44,2.08,11.04,4.17.81,1.94-14.94,1.04-20.13-1.64,14.45,4.17,14.78,3.87,15.26,5.51.65,2.23-23.71-.6-25.82-3.57,6.49,4.62,10.07,5.51,13.64,7.6-4.38,1.79-12.5,3.57-27.44-6.11,19.65,16.38,37.34,15.34,40.11,18.32-6.82,9.23-33.29-5.51-45.46-12.96-12.18-7.45,26.63,18.02,30.2,17.57-1.79,2.53-14.61.3-15.43-.89"/><path class="cls-1" d="M802.98,97.16c-2.27.3-9.09.3-10.07.15"/><path class="cls-1" d="M656.68,71.56s14.82,7.18,21.08,6.67c-1.66,1.44-4.14,2.03-4.14,2.03,1.57.59,5.89,2.7,12.43,1.35-1.56,1.44-3.59,3.04-3.59,3.04,0,0,5.61,1.94,11.97-1.1-1.93,2.19-3.04,3.8-3.04,3.8l4.42.25"/></svg>