<?xml version="1.0" encoding="UTF-8"?><svg id="_色修正" xmlns="http://www.w3.org/2000/svg" viewBox="0 0 900 600"><defs><style>.cls-1{fill:#e50012;}.cls-1,.cls-2,.cls-3{stroke-width:0px;}.cls-2{fill:#fff;}.cls-3{fill:#003476;}</style></defs><rect class="cls-2" y="0" width="900" height="600"/><g id="star"><g id="c"><path id="t" class="cls-3" d="M225,75l-23.18,71.33,35.66,11.59-12.49-82.92Z"/><path id="t-2" class="cls-3" d="M225,75l23.18,71.33-35.66,11.59,12.49-82.92Z"/></g><g id="c-2"><path id="t-3" class="cls-3" d="M296.33,126.82h-75v37.5l75-37.5Z"/><path id="t-4" class="cls-3" d="M296.33,126.82l-60.68,44.08-22.04-30.34,82.72-13.75Z"/></g><g id="c-3"><path id="t-5" class="cls-3" d="M269.08,210.68l-23.18-71.33-35.66,11.59,58.84,59.74Z"/><path id="t-6" class="cls-3" d="M269.08,210.68l-60.68-44.08,22.04-30.34,38.63,74.42Z"/></g><g id="c-4"><path id="t-7" class="cls-3" d="M180.92,210.68l60.68-44.08-22.04-30.34-38.63,74.42Z"/><path id="t-8" class="cls-3" d="M180.92,210.68l23.18-71.33,35.66,11.59-58.84,59.74Z"/></g><g id="c-5"><path id="t-9" class="cls-3" d="M153.67,126.82l60.68,44.08,22.04-30.34-82.72-13.75Z"/><path id="t-10" class="cls-3" d="M153.67,126.82h75v37.5l-75-37.5Z"/></g></g><rect class="cls-3" y="300" width="450" height="300"/><rect class="cls-1" x="450" y="0" width="450" height="300"/><g id="star-2"><g id="c-6"><path id="t-11" class="cls-1" d="M675,375l-23.18,71.33,35.66,11.59-12.49-82.92Z"/><path id="t-12" class="cls-1" d="M675,375l23.18,71.33-35.66,11.59,12.49-82.92Z"/></g><g id="c-7"><path id="t-13" class="cls-1" d="M746.33,426.82h-75v37.5l75-37.5Z"/><path id="t-14" class="cls-1" d="M746.33,426.82l-60.68,44.08-22.04-30.34,82.72-13.75Z"/></g><g id="c-8"><path id="t-15" class="cls-1" d="M719.08,510.68l-23.18-71.33-35.66,11.59,58.84,59.74Z"/><path id="t-16" class="cls-1" d="M719.08,510.68l-60.68-44.08,22.04-30.34,38.63,74.42Z"/></g><g id="c-9"><path id="t-17" class="cls-1" d="M630.92,510.68l60.68-44.08-22.04-30.34-38.63,74.42Z"/><path id="t-18" class="cls-1" d="M630.92,510.68l23.18-71.33,35.66,11.59-58.84,59.74Z"/></g><g id="c-10"><path id="t-19" class="cls-1" d="M603.67,426.82l60.68,44.08,22.04-30.34-82.72-13.75Z"/><path id="t-20" class="cls-1" d="M603.67,426.82h75v37.5l-75-37.5Z"/></g></g></svg>