<?xml version="1.0" encoding="UTF-8"?><svg id="_色修正" xmlns="http://www.w3.org/2000/svg" viewBox="0 0 900 600"><defs><style>.cls-1{fill:#fff000;stroke-width:2px;}.cls-1,.cls-2,.cls-3,.cls-4{stroke:#040000;stroke-linecap:round;stroke-linejoin:round;}.cls-2,.cls-3,.cls-4{stroke-width:1.5px;}.cls-2,.cls-5{fill:#211815;}.cls-3,.cls-6{fill:#eed15e;}.cls-4{fill:none;}.cls-5,.cls-7,.cls-6,.cls-8{stroke-width:0px;}.cls-7{fill:#e50012;}.cls-8{fill:#003476;}</style></defs><rect class="cls-8" width="900" height="600"/><rect class="cls-7" y="300" width="900" height="300"/><g id="half"><path class="cls-6" d="M193.94,135.97l-1.84,62.5h-63.42c-7.8-15.17-14.25-28.05-14.25-45.5,0-14.6,11.48-26.19,28.03-26.19,17.52,0,36.77,5.9,51.47,9.19Z"/><path class="cls-3" d="M122.02,138.84v36.08"/><path class="cls-3" d="M127.11,135.16v48.03"/><path class="cls-3" d="M132.21,132.63v57.23"/><path class="cls-3" d="M137.3,131.45v44.88"/><path class="cls-3" d="M142.39,131.23v45.33"/><path class="cls-3" d="M147.49,129.65v46.89"/><path class="cls-3" d="M152.58,129.65v46.89"/><path class="cls-3" d="M157.67,130.11v46.89"/><path class="cls-3" d="M162.77,130.57v46.89"/><path class="cls-3" d="M167.86,133.55v46.89"/><path class="cls-3" d="M172.95,134.01v52.86"/><path class="cls-3" d="M178.05,134.01v46.89"/><path class="cls-3" d="M183.14,134.01v46.89"/><path class="cls-2" d="M153.96,131.6c10.76,1.78,34.41,12.84,31.71,27.8-3.82,21.21-16.21,12.7-32.63,9.65l-12.41,4.14c-4.44,4.53-10.98,8.68-15.4,3.22h-7.35v28.72h81.34v-69.39l-45.27-4.14Z"/><circle class="cls-1" cx="190.38" cy="126.66" r="4.94"/><circle class="cls-1" cx="179.28" cy="123.99" r="4.94"/><circle class="cls-1" cx="168.01" cy="121.16" r="4.94"/><circle class="cls-1" cx="156.71" cy="119.28" r="4.94"/><circle class="cls-1" cx="145.4" cy="118.16" r="4.94"/><circle class="cls-1" cx="134.31" cy="118.79" r="4.94"/><circle class="cls-1" cx="123.74" cy="122.41" r="4.94"/><circle class="cls-1" cx="114.84" cy="128.96" r="4.94"/><circle class="cls-1" cx="108.52" cy="138.1" r="4.94"/><circle class="cls-1" cx="105.48" cy="148.84" r="4.94"/><circle class="cls-1" cx="105.59" cy="159.98" r="4.94"/><circle class="cls-1" cx="107.72" cy="170.9" r="4.94"/><path class="cls-1" d="M192.56,133.21l-.46,6.43c-12.29-1.88-29.71-8.73-45.96-8.73-15.01,0-26.65,6-26.65,21.14s6.32,28.49,14.71,42.28l-8.73,4.14c-7.8-15.17-14.25-28.05-14.25-45.5,0-14.6,11.48-28.95,31.25-28.95,17.52,0,35.39,5.9,50.09,9.19Z"/></g><g id="half-2"><path class="cls-6" d="M205.12,135.97l1.84,62.5h63.42c7.8-15.17,14.25-28.05,14.25-45.5,0-14.6-11.48-26.19-28.03-26.19-17.52,0-36.77,5.9-51.47,9.19Z"/><path class="cls-3" d="M277.04,138.84v36.08"/><path class="cls-3" d="M271.95,135.16v48.03"/><path class="cls-3" d="M266.86,132.63v57.23"/><path class="cls-3" d="M261.76,131.45v44.88"/><path class="cls-3" d="M256.67,131.23v45.33"/><path class="cls-3" d="M251.58,129.65v46.89"/><path class="cls-3" d="M246.48,129.65v46.89"/><path class="cls-3" d="M241.39,130.11v46.89"/><path class="cls-3" d="M236.3,130.57v46.89"/><path class="cls-3" d="M231.2,133.55v46.89"/><path class="cls-3" d="M226.11,134.01v52.86"/><path class="cls-3" d="M221.02,134.01v46.89"/><path class="cls-3" d="M215.92,134.01v46.89"/><path class="cls-2" d="M245.11,131.6c-10.76,1.78-34.41,12.84-31.71,27.8,3.82,21.21,16.21,12.7,32.63,9.65l12.41,4.14c4.44,4.53,10.98,8.68,15.4,3.22h7.35v28.72h-81.34v-69.39l45.27-4.14Z"/><circle class="cls-1" cx="208.69" cy="126.66" r="4.94"/><circle class="cls-1" cx="219.79" cy="123.99" r="4.94"/><circle class="cls-1" cx="231.05" cy="121.16" r="4.94"/><circle class="cls-1" cx="242.36" cy="119.28" r="4.94"/><circle class="cls-1" cx="253.66" cy="118.16" r="4.94"/><circle class="cls-1" cx="264.75" cy="118.79" r="4.94"/><circle class="cls-1" cx="275.32" cy="122.41" r="4.94"/><circle class="cls-1" cx="284.23" cy="128.96" r="4.94"/><circle class="cls-1" cx="290.54" cy="138.1" r="4.94"/><circle class="cls-1" cx="293.59" cy="148.84" r="4.94"/><circle class="cls-1" cx="293.47" cy="159.98" r="4.94"/><circle class="cls-1" cx="291.35" cy="170.9" r="4.94"/><path class="cls-1" d="M206.5,133.21l.46,6.43c12.29-1.88,29.71-8.73,45.96-8.73,15.01,0,26.65,6,26.65,21.14s-6.32,28.49-14.71,42.28l8.73,4.14c7.8-15.17,14.25-28.05,14.25-45.5,0-14.6-11.48-28.95-31.25-28.95-17.52,0-35.39,5.9-50.09,9.19Z"/></g><path class="cls-1" d="M199.53,66.81l-5.16,9.66,5.16,9.62,5.16-9.62-5.16-9.66ZM199.53,91.18l-5.16,9.62,5.16,9.66,5.16-9.66-5.16-9.62Z"/><path class="cls-1" d="M181.15,88.63l8.13,5.16,8.11-5.16-8.11-5.16-8.13,5.16ZM201.68,88.63l8.11,5.16,8.13-5.16-8.13-5.16-8.11,5.16Z"/><circle class="cls-1" cx="199.53" cy="88.75" r="3.91"/><circle class="cls-1" cx="199.53" cy="113.68" r="10.45"/><path class="cls-4" d="M196.91,103.56c0,3.11-.02,4.92-.03,6.62-2.52.11-5.01.38-7.44.78M209.63,110.96c-2.43-.4-4.92-.67-7.44-.78v-6.62M189.41,116.24c3.29-.55,6.67-.84,10.12-.84s6.83.29,10.12.84"/><path class="cls-1" d="M189.31,131.37c-.99,17.08-3.01,34.48-9.66,47.12l10.81-4.38c3.78-14.33,4.57-32.84,5.72-41.59l-6.88-1.16ZM209.75,131.37l-6.88,1.16c1.15,8.75,1.94,27.26,5.72,41.59l10.81,4.38c-6.65-12.65-8.66-30.04-9.66-47.12Z"/><path class="cls-1" d="M199.52,168.37c-12.91,0-22.4,6.09-22.97,21.59-3.16-5.55-16.51-23.03-28.97-20.69-7.41,1.39-13.96,11.67-12.84,23.44-6.13-17.63-24.11-20.52-37.22-10.09,11.64,9.57,16.82,37.83,26.62,50.09h150.75c9.8-12.26,15.01-40.52,26.66-50.09-13.11-10.43-31.08-7.54-37.22,10.09,1.11-11.77-5.47-22.05-12.88-23.44-12.46-2.34-25.78,15.13-28.94,20.69-.57-15.51-10.09-21.59-23-21.59Z"/><path class="cls-2" d="M274.67,232.71c0,5.58-33.66,11.72-75.14,11.72s-75.14-6.14-75.14-11.72,33.66-8.5,75.14-8.5,75.14,2.92,75.14,8.5Z"/><circle class="cls-3" cx="199.53" cy="128.13" r="3.5"/><circle class="cls-3" cx="199.53" cy="135.71" r="3.73"/><circle class="cls-3" cx="199.53" cy="143.87" r="4.08"/><circle class="cls-3" cx="199.53" cy="152.94" r="4.65"/><circle class="cls-3" cx="199.53" cy="163.05" r="5.11"/><path class="cls-5" d="M197.5,172.89c-.55,0-1.08.46-.94,1.34.16,1.04.37,3,.56,4.31.22,1.49,1.09,1.13,1.31-.03.22-1.16.13-1.91.19-4.06.03-1.08-.57-1.56-1.12-1.56ZM201.56,172.89c-.55,0-1.15.48-1.12,1.56.06,2.16-.03,2.9.19,4.06.22,1.16,1.09,1.52,1.31.03.2-1.32.4-3.27.56-4.31.14-.88-.38-1.35-.94-1.34ZM193.88,173.45c-.51.07-1.03.58-1,1.12.06,1,.33,2.19.44,3.69.11,1.55,1.2.95,1.31.06.11-.88.24-2.19.12-3.91-.04-.64-.32-.93-.66-.97-.07,0-.15-.01-.22,0ZM204.97,173.45c-.33.04-.61.33-.66.97-.11,1.71.01,3.02.12,3.91.11.88,1.2,1.49,1.31-.06.11-1.5.38-2.69.44-3.69.03-.54-.49-1.05-1-1.12-.07-.01-.15,0-.22,0ZM189.53,175.2c-.46.12-.89.68-.75,1.31.28,1.27.53,2.68.53,3.97,0,1.11.94.71,1-.06.06-.77.16-2.41.16-3.91,0-1.11-.47-1.43-.94-1.31ZM209.22,175.2c-.33.09-.62.48-.62,1.31,0,1.49.1,3.13.16,3.91.06.77,1,1.17,1,.06,0-1.29.25-2.7.53-3.97.14-.64-.29-1.19-.75-1.31-.12-.03-.2-.03-.31,0ZM150.13,175.37c-.55-.02-.94.73-.56,1.56.61,1.33,1.25,2.16,1.88,3.59.55,1.27,1.4.48,1.12-.41-.28-.88-.58-1.87-1.41-3.75-.31-.71-.7-.99-1.03-1ZM248.94,175.37c-.33.01-.72.29-1.03,1-.83,1.88-1.13,2.87-1.41,3.75-.28.89.57,1.68,1.12.41.62-1.43,1.27-2.27,1.88-3.59.38-.83,0-1.58-.56-1.56ZM154.13,175.43c-.41.12-.66.64-.41,1.25.5,1.22,1.22,2.46,1.72,3.78.44,1.16,1.43.83,1.09-.22-.33-1.05-.43-1.67-1.09-3.66-.33-1-.9-1.28-1.31-1.16ZM244.63,175.43c-.35.07-.75.41-1,1.16-.66,1.99-.76,2.61-1.09,3.66-.33,1.05.65,1.38,1.09.22.5-1.32,1.22-2.56,1.72-3.78.25-.61,0-1.13-.41-1.25-.1-.03-.2-.02-.31,0ZM159.13,176.4c-.51.1-.91.88-.56,1.84.44,1.22,1.07,2.37,1.62,3.75.55,1.38,1.47,1.1,1.25.22-.22-.88-.49-2.35-1.16-4.56-.29-.97-.76-1.33-1.16-1.25ZM239.94,176.4c-.4-.08-.87.28-1.16,1.25-.66,2.21-.93,3.68-1.16,4.56-.22.88.7,1.16,1.25-.22s1.18-2.53,1.62-3.75c.35-.96-.05-1.75-.56-1.84ZM146.75,177.09c-.56.06-1.06.97-.72,1.66.55,1.11.9,1.48,1.44,2.66.55,1.22,1.16.27.94-.5-.22-.77-.5-1.68-.78-2.78-.2-.81-.54-1.07-.88-1.03ZM252.31,177.09c-.33-.03-.67.22-.88,1.03-.28,1.11-.56,2.01-.78,2.78s.38,1.72.94.5c.53-1.17.88-1.55,1.44-2.66.35-.69-.16-1.6-.72-1.66ZM185.28,179.89c-.58,0-1.21.77-1,1.5.33,1.16.84,2.19,1.22,3.69.33,1.33,1.27.67,1.22-.22-.06-.88-.21-2.09-.59-3.97-.15-.7-.49-1-.84-1ZM213.78,179.89c-.35,0-.7.3-.84,1-.39,1.88-.54,3.08-.59,3.97-.06.88.89,1.55,1.22.22.37-1.5.89-2.53,1.22-3.69.21-.73-.42-1.5-1-1.5ZM199.53,181.07c-.72,0-.82.97-.84,1.75-.08,2.57-1.15,5.07-2.06,6.31-.91,1.24-2.26.91-3.5.25s-1.99-1.16-3.31-2.16c-1.33-1-2.33-.41-.75,1.84,4.62,6.58,9.62,12.2,9.62,22.94,0,1.39.24,1.81.84,1.81s.87-.42.88-1.81c0-10.73,4.98-16.36,9.59-22.94,1.58-2.26.58-2.84-.75-1.84-1.33,1-2.07,1.49-3.31,2.16-1.24.66-2.59.99-3.5-.25-.91-1.24-1.98-3.74-2.06-6.31-.03-.78-.12-1.75-.84-1.75ZM164.25,179.46c-.06,0-.13.01-.19.03-.27.08-.45.41-.34.97.19,1,.88,2.97,1.16,3.91.28.94,1.43.74,1.16-.53-.28-1.27-.26-1.66-.59-3.09-.18-.79-.75-1.27-1.19-1.28ZM234.81,179.46c-.44.01-1.01.49-1.19,1.28-.33,1.44-.32,1.82-.59,3.09-.28,1.27.88,1.47,1.16.53.28-.94.97-2.9,1.16-3.91.1-.56-.08-.88-.34-.97-.06-.02-.12-.03-.19-.03ZM143.28,179.87c-.58.05-.99.77-.41,1.84.63,1.16,1.72,2.61,2.22,3.44s1.36.27.75-.78c-.61-1.05-.81-2.26-1.53-3.75-.27-.56-.68-.78-1.03-.75ZM255.78,179.87c-.35-.03-.76.19-1.03.75-.72,1.49-.92,2.7-1.53,3.75-.61,1.05.25,1.61.75.78s1.58-2.28,2.22-3.44c.59-1.07.17-1.8-.41-1.84ZM111.59,183.2c-.67-.04-.88,1.17-.25,1.97.91,1.16,1.55,1.78,2.59,2.72.83.75,1.07-.22.66-.97-.41-.75-1.01-1.51-1.84-2.75-.45-.68-.85-.95-1.16-.97ZM287.47,183.2c-.3.02-.7.29-1.16.97-.83,1.24-1.43,2-1.84,2.75-.41.75-.17,1.72.66.97,1.05-.94,1.68-1.56,2.59-2.72.63-.8.42-2-.25-1.97ZM116.63,184.2c-.53,0-.88.4-.47,1.31.59,1.31,1.38,2.79,1.88,3.78.5,1,2.01,1.33,1.41-.22-.61-1.55-.73-2.34-1.28-3.78-.28-.72-1-1.1-1.53-1.09ZM282.44,184.2c-.53,0-1.25.37-1.53,1.09-.55,1.44-.67,2.23-1.28,3.78-.61,1.55.91,1.21,1.41.22.5-1,1.28-2.48,1.88-3.78.41-.91.06-1.31-.47-1.31ZM106.88,184.54c-.77,0-.84.78-.16,1.28.91.66,2,1.4,3.06,2.25,1.24,1,1.73.08,1.06-.75-.66-.83-1.31-1.67-2.97-2.5-.41-.21-.74-.28-1-.28ZM292.19,184.54c-.26,0-.59.07-1,.28-1.66.83-2.31,1.67-2.97,2.5-.66.83-.18,1.75,1.06.75,1.06-.85,2.15-1.59,3.06-2.25.68-.5.62-1.27-.16-1.28ZM182.53,185.26c-.43.06-.81.55-.62,1.19.33,1.16.71,2.39.94,3.59.22,1.16,1.57,1.18,1.34.12-.22-1.05-.33-2.37-.72-3.97-.15-.6-.45-.89-.75-.94-.06,0-.13,0-.19,0ZM216.34,185.26c-.3.05-.6.34-.75.94-.39,1.6-.5,2.92-.72,3.97-.22,1.05,1.12,1.04,1.34-.12.23-1.2.61-2.43.94-3.59.18-.64-.19-1.13-.62-1.19-.06,0-.12,0-.19,0ZM152.44,183.28c-.34.09-.54.74-.28,1.66,1.41,5.06,1.84,7.72,1.59,8.97-.25,1.24-.93,1.41-1.84,1-.91-.41-1.98-1.01-2.81-1.59-.83-.58-1.69.11-.5,1.09,6.05,4.98,10.25,10.66,11.88,17.56.33,1.41,1.22,1.58.97,0-1.37-8.69-1.64-15.83.44-20.31.78-1.68,0-3.3-1.25-.56-.83,1.82-2.17,2.54-3.25.97-1.08-1.58-3.31-5.78-3.97-7.69-.25-.72-.56-1.05-.81-1.09-.05,0-.11-.01-.16,0ZM246.47,183.28c-.26.05-.56.38-.81,1.09-.66,1.91-2.89,6.11-3.97,7.69-1.08,1.58-2.42.86-3.25-.97-1.24-2.74-2.03-1.12-1.25.56,2.07,4.48,1.81,11.62.44,20.31-.25,1.58.64,1.41.97,0,1.62-6.9,5.82-12.59,11.88-17.56,1.19-.98.33-1.67-.5-1.09-.83.58-1.9,1.18-2.81,1.59-.91.41-1.59.24-1.84-1-.25-1.24.18-3.91,1.59-8.97.25-.91.06-1.56-.28-1.66-.05-.01-.1,0-.16,0ZM122,185.7c-.55,0-1,.39-.75,1.22.4,1.33,1.22,2.76,1.5,3.59.28.83,1.17.44,1-.72s-.25-1.85-.47-3.12c-.11-.64-.74-.98-1.28-.97ZM277.06,185.7c-.55,0-1.17.33-1.28.97-.22,1.27-.3,1.96-.47,3.12s.72,1.55,1,.72c.28-.83,1.1-2.27,1.5-3.59.25-.83-.2-1.21-.75-1.22ZM140.78,183.96c-.64-.11-.73,1.52-.19,2.19.72.89,1.72,1.95,2.72,3.16.83,1,1.34.11.84-.72-.5-.83-1.24-1.71-2.56-3.81-.33-.53-.6-.77-.81-.81ZM258.28,183.96c-.21.04-.48.29-.81.81-1.33,2.1-2.06,2.98-2.56,3.81-.5.83.01,1.71.84.72,1-1.2,2-2.27,2.72-3.16.54-.66.45-2.3-.19-2.19ZM126.28,187.92c-.39-.03-.73.29-.56,1.09.23,1.12.57,2.04.84,3.09.28,1.05,1,.87,1-.12s-.18-2.11-.34-3.16c-.08-.53-.54-.88-.94-.91ZM272.78,187.92c-.39.03-.85.38-.94.91-.17,1.05-.34,2.16-.34,3.16s.72,1.18,1,.12c.28-1.05.61-1.98.84-3.09.17-.8-.17-1.12-.56-1.09ZM139.38,189.34c-.62.09-1.16.69-.44,1.62,1.16,1.49,2.43,2.54,2.88,3.09.44.55,1.56.35.84-.81-.73-1.19-1.85-2.62-2.34-3.5-.19-.33-.57-.46-.94-.41ZM259.44,189.34c-.27.03-.55.16-.69.41-.5.88-1.61,2.31-2.34,3.5-.72,1.16.4,1.37.84.81.44-.55,1.71-1.6,2.88-3.09.73-.93.18-1.53-.44-1.62-.09-.01-.16,0-.25,0ZM118.72,193.51c-.49-.04-.66.35,0,1.25,1.49,2.05,3.14,5.14,3.25,6.47.11,1.33-.55,1.31-1.16,1.31-1.82,0-2.72-1.33-4.38-1.72-1.66-.39-1.9.49-.72,1.34,6.08,4.42,12.18,9.36,14.62,13.84,1,1.82,2.34,2.49,1.59.75-2.29-5.34-2.84-9.86-2.34-12.59.5-2.74,1.18-4.58,1.09-6.16-.08-1.58-.98-1.47-1.34,0-.25,1-.73,2.31-1.06,2.81-.33.5-1.67.78-2.94-.94-1.27-1.71-4.48-5.01-5.53-5.84-.39-.31-.8-.5-1.09-.53ZM280.34,193.51c-.29.03-.7.22-1.09.53-1.05.83-4.26,4.13-5.53,5.84-1.27,1.71-2.61,1.44-2.94.94-.33-.5-.81-1.82-1.06-2.81-.37-1.47-1.26-1.58-1.34,0-.08,1.58.6,3.42,1.09,6.16.5,2.74-.06,7.26-2.34,12.59-.75,1.74.6,1.07,1.59-.75,2.45-4.48,8.54-9.42,14.62-13.84,1.18-.86.94-1.73-.72-1.34-1.66.39-2.55,1.72-4.38,1.72-.61,0-1.27.01-1.16-1.31.11-1.33,1.76-4.42,3.25-6.47.66-.9.49-1.29,0-1.25Z"/><path class="cls-3" d="M127.69,226.33l1.95,6.17M131.7,225.16l1.73,6.24M136.03,224.45l1.19,6.37M140.05,223.65l1.27,6.35M145.21,223.14l1.03,6.39M150.69,223.14l1.11,6.38M156.05,221.33l.8,6.42M161.08,221.66l.8,6.42M165.96,221.01l.8,6.42M170.85,220.5l.44,6.46M176.08,220.5l.38,6.46M180.82,220.17l.33,6.47M186.05,219.85l.27,6.47M192.06,219.69l.27,6.47M271.37,226.33l-1.95,6.17M267.36,225.16l-1.73,6.24M263.03,224.45l-1.19,6.37M259.01,223.65l-1.27,6.35M253.86,223.14l-1.03,6.39M248.37,223.14l-1.11,6.38M243.02,221.33l-.8,6.42M237.98,221.66l-.8,6.42M233.11,221.01l-.8,6.42M228.21,220.5l-.44,6.46M222.98,220.5l-.38,6.46M218.24,220.17l-.33,6.47M213.02,219.85l-.27,6.47M207.01,219.69l-.27,6.47M199.53,219.27v7.12"/></svg>