<?xml version="1.0" encoding="UTF-8"?><svg id="_色修正" xmlns="http://www.w3.org/2000/svg" xmlns:xlink="http://www.w3.org/1999/xlink" viewBox="0 0 900 600"><defs><style>.cls-1{clip-path:url(#clippath);}.cls-2{fill:none;}.cls-2,.cls-3,.cls-4,.cls-5,.cls-6{stroke-width:0px;}.cls-3{fill:#6fb92c;}.cls-4{fill:#231815;}.cls-5{fill:#fff000;}.cls-6{fill:#0075c1;}</style><clipPath id="clippath"><path class="cls-2" d="M1000-700h900V-100h-900"/></clipPath></defs><rect class="cls-3" width="900" height="600"/><rect class="cls-5" width="675" height="600"/><rect class="cls-6" width="225" height="600"/><path class="cls-3" d="M400,425l50,100,50-100-50-100-50,100Z"/><path class="cls-3" d="M337.5,300l50,100,50-100-50-100-50,100Z"/><path class="cls-3" d="M462.5,300l50,100,50-100-50-100-50,100Z"/><g class="cls-1"><path class="cls-4" d="M550,200l1800-1200V200L550-1000"/><path class="cls-5" d="M2393.3,280.91l-943.3-628.87L574.02,236.03l-48.04-72.06,845.96-563.97-845.96-563.97,48.04-72.06,875.98,583.99,943.3-628.87V280.91ZM1528.06-400L2306.7,119.09V-919.09l-778.64,519.09Z"/></g></svg>