<?xml version="1.0" encoding="UTF-8"?><svg id="_色修正" xmlns="http://www.w3.org/2000/svg" viewBox="0 0 900 600"><defs><style>.cls-1{fill:#211815;fill-rule:evenodd;}.cls-1,.cls-2{stroke-width:0px;}.cls-2{fill:#e50012;}</style></defs><rect class="cls-2" width="900" height="600"/><path class="cls-1" d="M471.38,472.5c-5.6-4.86-12.39-14.69-12.3-24.18.5-7.07,5.35-11.18,8.48-2.55,4.43,9.53,13.93,25.28,27.02,16.04,5.72-4.2,5.63-10.38-2.21-9.67-9.68-.66-15.63-5.99-19.97-19.71-.79-7.54,2.35-7.36,6.73-2.5,5.63,6.46,16.83,16.22,29.19,10.99,6.87-2.88,8.81-8.82-1.57-10.28-9.82.14-17.84-6.23-25.83-15.94-4.38-5.37,2.08-10.8,5.96-6.23,3.46,2.97,8.3,8.44,12.45,9.2,4.8.94,10.75.47,17.34-3.02,7.1-5.95,4.8-10.24-3.83-11.22-6.68.33-10.33,2.87-18.95-2.88-15.5-10.48-27.82-24.47-29.75-41.31-1.26-11.07,4.69-14.43,9.64-13.15,13.46,3.46,22.27,28.63,31.59,42.45,3.05,3.98,5.85,4.05,7.83,2.82,3.74-3.2,6.72-5.84,10.46-9.42,0,0,27.41,4.92,42.33,9.79l-16.62,5.91c-6.29-3.47-13.89.27-13.89,6.3-5.95,4.12-5.48,8.95-2.91,13.6.78-3.24,1.45-7.46,6.16-8.02,6.71,2.78,14.54-1.19,14.54-6.43l19.6-7.71,19.81,11.21c0,7.58,7.18,9.98,14.65,7.93,3.52,2.19,5.78,5.98,6.98,10.04,2.2-5.85,1.74-9.98-1.71-12.85,1.98-7.56-8.62-14.84-16.82-9.99l-14.25-8.18,24.39-.68c2.83,5.01,13.06,5.29,16.05,0,2.55-.7,4.71-1.14,9.68,2.55-1.57-5.98-4.62-8.54-9.19-8.54-3.48-6.16-16.06-6.13-17.87.8l-25.4.71,15.07-10.73c5.63,3.32,13.52-.37,15.1-6.4,2.24-2.67,5.01-3.92,10.45-2.11-2.81-4.97-6.76-6.45-13.9-3.08-6.51-4.94-15.1,1.05-13.8,6.02l-20.05,13.64c-14.55-4.34-40.91-11.11-40.91-11.11,3.14-3.3,6.32-6.37,9.46-9.72,1.13-1.96-.6-4.24-3-4.72-23.52-4.85-36.98-14.33-45.14-38.43-3.41-10.09,3.97-13.11,6.5-6.93,3.51,8.59,7.38,17.97,17.94,25.23,3.64,2.55,14.48.47,8.07-5.62-6.64-5.47-9.5-7.82-12.77-21.13,0-6.74,6.87-9.76,10.7-3.3,4.1,13.25,4.52,18.96,11.94,27.49,5.62,6.46,12.96,10.8,16.6,10.7,6.55-.09,13.15-7.17,4.38-12.31-12.87-5.14-17.57-12.16-19.46-18.87-2.07-11.69.19-17.35,7.24-11.6,10,11.37,29.1,32.54,39.1,42.4,11.21,8.59,24.07,8.86,34.31.14,5.86-6.75,3.78-14-5.39-12.45-20.7,1.75-36.38-8.53-53.58-36.31-3.37-6.27-4.29-15.28,3.14-8.58,8.57,11.6,21.07,21.46,32.7,25.7,11.67,4.19,21.3,1.88,25.04-1.79,4.5-4.5,3.32-15.84-4.47-13.11-6.41,2.26-15.45,2.83-24.85-.8-9.41-3.68-19.19-11.6-29.56-25.04-3.55-7.59-2.4-14,4.8-10.09,17.02,14.43,38.97,26.13,50.17,19.1,8.26-5.14,8.39-18.35-2.07-17.49-21.08,2.87-29.05-1.79-49.3-19.66-4.61-3.44-4.29-12.17,3.04-6.6,17.02,10.99,40.26,15.28,49.39,9.53,8.21-5.14,7.01-20.85-6.82-15.28-11.07,6.75-23.29,6.56-47.77-10.94-6.18-5.14-1.57-11.84,3.5-8.96,19.69,11.22,48.38,16.03,55.84-6.79,2.9-8.72-2.35-13.82-10.05-7.78-16.92,15.66-36.11,7.97-46.85.09-3.08-1.81-8.72-10.99,1.19-9.29,25.64,5.85,51,.75,55.62-17.4,2.68-5.89-2.59-16.32-11.95-7.59-12.31,12.17-25.36,12.59-41.78,12.5-8.35-1.75-8.44-10.94-1.43-12.31,12.96.28,25.73-5.38,35.97-11.13,10.01-5.75,18.31-13.82,20.94-24.99,1.61-10-8.03-20.61-13.83-10-8.58,15.51-27.58,30.13-48.7,32.77-1.1-1.84-3.87-6.56-7.28-5.23-6.2,2.41-13.59,5.62-21.2,9.24-16.4,7.79-23.24,11.54-21.27,25,2.06,14.04-8.77,22.91-17.71,20.46-7.8-2.1-12.1-9.14-10.7-21.36,1.12-9.73,10.89-21.51,21.91-27.69,7.13-3.99,17.89-6.17,30.85-9.05,7.89-1.55,11.9-4.62,12.36-7.83,0,0-5.39,3.94-14.02,3.35-4.08-.29-6.81-2.09-7.84-3.92,3-.61,8.44.1,13.33.1,6.5-.05,21.59-1.51,25.6-10.66,1.25-6.04-2.72-7.12-6.41-3.26-3.97,4.18-5.6,7.93-13.56,9.34-4.84.85-9.68,1.84-15.91.33,3.51-4.17,9.08-8.43,13.83-7.64,1.56.26,3.64,1.7,5.31,4.3,1.02-6.6-.79-14.06-18.45-10.94.28-5-10.24-7.17-16.55-7.07-3.6.09-10.93,2.22-16.23,4.76-8.39,2.6-16.69,4.48-26.47,5.19,5.68,4.85,6.74,5.14,12.4,9.24-8.57,3.2-15.21,9.81-18.21,14.15,0,0,10.01-.28,12.54.85-10.47,3.06-15.18,4.9-20.71,10.56,1.94.33,4.84.9,6.09,1.37,1.3.47.96,1.32-.09,2.12-2.26,1.72-11.58,12.55-14.3,15.14-2.72-2.59-12.04-13.42-14.3-15.14-1.05-.8-1.39-1.65-.09-2.12,1.25-.47,4.15-1.04,6.09-1.37-5.53-5.66-10.24-7.5-20.71-10.56,2.54-1.13,12.54-.85,12.54-.85-3-4.34-9.64-10.94-18.21-14.15,5.67-4.1,6.73-4.39,12.4-9.24-9.78-.71-18.08-2.59-26.47-5.19-5.3-2.54-12.63-4.67-16.23-4.76-6.32-.1-16.83,2.07-16.55,7.07-17.66-3.11-19.46,4.34-18.45,10.94,1.66-2.59,3.74-4.04,5.31-4.3,4.75-.79,10.33,3.48,13.83,7.64-6.23,1.51-11.07.52-15.91-.33-7.96-1.4-9.59-5.16-13.56-9.34-3.69-3.87-7.66-2.78-6.41,3.26,4,9.15,19.09,10.61,25.6,10.66,4.89,0,10.33-.71,13.33-.1-1.03,1.83-3.76,3.63-7.84,3.92-8.63.59-14.02-3.35-14.02-3.35.46,3.21,4.47,6.28,12.36,7.83,12.96,2.88,23.72,5.06,30.85,9.05,11.01,6.17,20.79,17.95,21.91,27.68,1.4,12.22-2.9,19.26-10.7,21.36-8.94,2.45-19.77-6.42-17.71-20.46,1.97-13.46-4.87-17.21-21.27-25-7.61-3.61-15-6.83-21.2-9.24-3.41-1.32-6.18,3.39-7.28,5.23-21.12-2.64-40.12-17.26-48.7-32.77-5.81-10.61-15.45,0-13.83,10,2.63,11.18,10.93,19.24,20.94,24.99,10.24,5.75,23.01,11.41,35.97,11.13,7.01,1.36,6.92,10.56-1.43,12.31-16.41.09-29.47-.33-41.78-12.5-9.36-8.73-14.62,1.7-11.95,7.59,4.61,18.16,29.97,23.25,55.62,17.4,9.91-1.7,4.27,7.47,1.19,9.29-10.74,7.88-29.92,15.56-46.85-.09-7.7-6.04-12.96-.94-10.05,7.78,7.47,22.82,36.15,18.01,55.84,6.79,5.07-2.88,9.68,3.82,3.5,8.96-24.48,17.49-36.7,17.68-47.77,10.94-13.83-5.56-15.04,10.14-6.82,15.28,9.13,5.75,32.37,1.46,49.39-9.53,7.33-5.57,7.65,3.16,3.04,6.6-20.25,17.87-28.22,22.54-49.3,19.66-10.47-.85-10.33,12.35-2.07,17.49,11.2,7.02,33.15-4.67,50.17-19.1,7.19-3.91,8.35,2.5,4.8,10.09-10.38,13.44-20.15,21.36-29.56,25.04-9.4,3.63-18.44,3.07-24.85.81-7.79-2.74-8.98,8.61-4.47,13.11,3.74,3.67,13.37,5.99,25.04,1.79,11.62-4.24,24.12-14.1,32.69-25.7,7.43-6.7,6.51,2.31,3.14,8.58-17.2,27.78-32.88,38.06-53.58,36.31-9.18-1.55-11.25,5.71-5.39,12.45,10.24,8.72,23.1,8.44,34.31-.14,10-9.86,29.1-31.03,39.1-42.4,7.05-5.75,9.32-.09,7.25,11.6-1.89,6.7-6.6,13.73-19.46,18.87-8.76,5.14-2.17,12.22,4.38,12.31,3.64.1,10.97-4.24,16.6-10.7,7.42-8.54,7.84-14.24,11.94-27.49,3.83-6.46,10.7-3.44,10.7,3.3-3.27,13.3-6.13,15.66-12.77,21.13-6.41,6.08,4.43,8.16,8.07,5.62,10.56-7.27,14.43-16.65,17.94-25.23,2.54-6.17,9.91-3.16,6.5,6.93-8.16,24.1-21.62,33.58-45.14,38.43-2.4.47-4.13,2.76-3,4.72,3.13,3.35,6.32,6.41,9.46,9.72,0,0-26.36,6.76-40.91,11.11l-20.05-13.64c1.3-4.97-7.28-10.96-13.8-6.02-7.14-3.37-11.09-1.89-13.9,3.08,5.44-1.81,8.21-.56,10.45,2.11,1.58,6.03,9.47,9.73,15.1,6.4l15.07,10.73-25.4-.71c-1.82-6.93-14.4-6.96-17.88-.8-4.57,0-7.63,2.56-9.19,8.54,4.97-3.7,7.13-3.25,9.68-2.55,2.98,5.29,13.21,5.01,16.04,0l24.39.68-14.25,8.18c-8.21-4.84-18.8,2.43-16.82,9.99-3.45,2.87-3.91,7-1.71,12.85,1.19-4.06,3.46-7.85,6.98-10.04,7.47,2.05,14.65-.35,14.65-7.93l19.81-11.21,19.6,7.71c0,5.24,7.82,9.21,14.53,6.43,4.7.56,5.37,4.77,6.16,8.02,2.57-4.66,3.05-9.49-2.91-13.6,0-6.03-7.59-9.78-13.89-6.3l-16.62-5.91c14.92-4.86,42.33-9.79,42.33-9.79,3.74,3.58,6.72,6.21,10.46,9.42,1.98,1.23,4.78,1.16,7.83-2.82,9.32-13.82,18.12-38.98,31.59-42.45,4.95-1.28,10.9,2.08,9.64,13.15-1.93,16.84-14.25,30.84-29.75,41.31-8.62,5.75-12.26,3.21-18.95,2.88-8.62.99-10.93,5.28-3.83,11.22,6.59,3.49,12.54,3.96,17.34,3.02,4.15-.75,8.99-6.23,12.45-9.2,3.88-4.58,10.33.85,5.95,6.23-7.98,9.71-16,16.08-25.83,15.94-10.38,1.46-8.44,7.4-1.57,10.28,12.36,5.23,23.56-4.53,29.19-10.99,4.38-4.85,7.52-5.04,6.73,2.5-4.33,13.72-10.28,19.05-19.97,19.71-7.84-.71-7.93,5.47-2.21,9.67,13.09,9.24,22.59-6.51,27.02-16.04,3.13-8.63,7.98-4.52,8.48,2.55.1,9.48-6.7,19.32-12.3,24.18-5.6,4.86,24.15,35.74,24.15,35.74,0,0,29.75-30.89,24.15-35.74h0ZM511.25,122.73c-4.63,0-7.49,1.62-7.49,3.59s2.86,3.63,7.49,3.63,7.53-1.78,7.53-3.78-2.92-3.44-7.53-3.44h0ZM383.22,122.73c4.63,0,7.49,1.62,7.49,3.59s-2.86,3.63-7.49,3.63-7.53-1.78-7.53-3.78,2.92-3.44,7.53-3.44h0Z"/></svg>