<?xml version="1.0" encoding="UTF-8"?><svg id="_色修正" xmlns="http://www.w3.org/2000/svg" xmlns:xlink="http://www.w3.org/1999/xlink" viewBox="0 0 900 600"><defs><style>.cls-1{clip-path:url(#clippath);}.cls-2,.cls-3{fill:none;}.cls-2,.cls-4,.cls-5,.cls-6{stroke-width:0px;}.cls-7{stroke-miterlimit:45.85;}.cls-7,.cls-8,.cls-9,.cls-10,.cls-11,.cls-12,.cls-13,.cls-14,.cls-15,.cls-16,.cls-17,.cls-18,.cls-19,.cls-20,.cls-21,.cls-22,.cls-23,.cls-24,.cls-25,.cls-26{stroke:#201716;stroke-width:1.3px;}.cls-7,.cls-8,.cls-9,.cls-10,.cls-11,.cls-12,.cls-13,.cls-14,.cls-15,.cls-16,.cls-17,.cls-18,.cls-19,.cls-20,.cls-21,.cls-22,.cls-23,.cls-24,.cls-25,.cls-26,.cls-5{fill:#fff000;}.cls-8{stroke-miterlimit:45.85;}.cls-9{stroke-miterlimit:45.85;}.cls-10{stroke-miterlimit:45.85;}.cls-11{stroke-miterlimit:45.85;}.cls-12{stroke-miterlimit:45.85;}.cls-13{stroke-miterlimit:45.85;}.cls-14{stroke-miterlimit:45.85;}.cls-15{stroke-miterlimit:45.85;}.cls-16{stroke-miterlimit:45.85;}.cls-17{stroke-miterlimit:45.85;}.cls-18{stroke-miterlimit:45.85;}.cls-19{stroke-miterlimit:45.85;}.cls-20{stroke-miterlimit:45.85;}.cls-21{stroke-miterlimit:45.85;}.cls-22{stroke-miterlimit:45.85;}.cls-23{stroke-miterlimit:45.85;}.cls-24{stroke-miterlimit:45.85;}.cls-25{stroke-miterlimit:45.85;}.cls-26{stroke-miterlimit:45.85;}.cls-3{stroke:#fff;stroke-miterlimit:8;stroke-width:40.85px;}.cls-4{fill:#e50012;}.cls-6{fill:#005bab;}</style><clipPath id="clippath"><rect class="cls-2" width="900" height="600"/></clipPath></defs><rect class="cls-4" width="900" height="600"/><g id="g348"><g id="rays_6"><g id="rays_2"><path id="wavy" class="cls-23" d="M374.27,276.22c-21.22-2.89-40.2-14.71-52.15-32.48,18.61,10.59,40.87,12.72,61.15,5.85"/><path id="straight" class="cls-26" d="M373.83,294.06l-62.73-19.93,65.33-8.06"/></g><g id="use337"><g id="rays_2-2"><path id="wavy-2" class="cls-20" d="M383.28,249.58c-18.75-10.36-32.17-28.24-36.89-49.13,13.53,16.6,33.51,26.63,54.91,27.55"/><path id="straight-2" class="cls-15" d="M376.42,266.06l-51.3-41.25,63.83,16.09"/></g></g><g id="use339"><g id="rays_2-3"><path id="wavy-3" class="cls-12" d="M401.3,228.01c-13.74-16.43-19.8-37.95-16.66-59.13,6.62,20.37,21.63,36.94,41.25,45.52"/><path id="straight-3" class="cls-7" d="M388.95,240.91l-32.94-56.99,53.71,38.05"/></g></g></g><g id="use342"><g id="rays_6-2"><g id="rays_2-4"><path id="wavy-4" class="cls-11" d="M425.9,214.4c-6.88-20.28-4.75-42.54,5.83-61.16-1.19,21.38,6.83,42.26,22.02,57.35"/><path id="straight-4" class="cls-8" d="M409.73,221.96l-10.12-65.04,36.34,54.89"/></g><g id="use337-2"><g id="rays_2-5"><path id="wavy-5" class="cls-14" d="M453.76,210.6c.92-21.4,10.94-41.38,27.54-54.92-8.83,19.51-8.9,41.87-.19,61.43"/><path id="straight-5" class="cls-9" d="M435.95,211.81l14.06-64.3,14.05,64.31"/></g></g><g id="use339-2"><g id="rays_2-6"><path id="wavy-6" class="cls-16" d="M481.1,217.11c8.58-19.62,25.14-34.64,45.51-41.27-15.28,15-23.42,35.83-22.36,57.22"/><path id="straight-6" class="cls-17" d="M464.05,211.81l36.33-54.89-10.12,65.04"/></g></g></g></g><g id="use344"><g id="rays_6-3"><g id="rays_2-7"><path id="wavy-7" class="cls-25" d="M504.25,233.07c15.09-15.2,35.96-23.22,57.35-22.04-19.67,8.47-34.78,24.95-41.53,45.27"/><path id="straight-7" class="cls-24" d="M490.27,221.97l53.71-38.05-32.94,56.99"/></g><g id="use337-3"><g id="rays_2-8"><path id="wavy-8" class="cls-21" d="M520.07,256.31c19.56-8.72,41.92-8.66,61.43.17-21.4.79-41.45,10.69-55.08,27.21"/><path id="straight-8" class="cls-19" d="M511.05,240.91l63.83-16.08-51.3,41.24"/></g></g><g id="use339-3"><g id="rays_2-9"><path id="wavy-9" class="cls-10" d="M526.43,283.69c21.39-1.06,42.22,7.07,57.23,22.35-20.24-6.99-42.51-5-61.19,5.48"/><path id="straight-9" class="cls-13" d="M523.58,266.07l65.33,8.06-62.73,19.93"/></g></g></g></g><circle id="circle346" class="cls-22" cx="450" cy="287" r="76.5"/></g><g id="bird"><path id="bird_outline" class="cls-18" d="M453.98,76.93c-30.82-12.74-49.68-15.09-70.76-15.3-30.53.21-45.1,13.33-74.2,14.54,11.53,12.42,53.33,15.46,70.96-.86,26.2,2.73,32.14,9.8,39.17,18.61-10.93-1.73-23.53-4.88-33.98,6.69-8.82,1.78-12.91,0-27.99,0-7.04,0-9.48,3.46-9.38,9.69,4.55-6.3,36.04-2.58,43.76,0,5.93,1.99,12.23,10.21,19.74,11.55,19.69,3.5,47.94-6.78,73.99-13.79l56.34-7.45h-38.65l48.34-9.69h-52.56c-1.11-1.28-3.78-2.92-5.91-4.33,13.52-8.71,25.47-24.53,28.52-32.17,24.37-.24,40.11-2.5,59.02-6.93-124.66-13.79-96.28,1.08-126.39,29.45Z"/><path id="eye" class="cls-5" d="M396.33,97.2c1.34,0,2.42,1.08,2.42,2.42s-1.08,2.42-2.42,2.42-2.42-1.08-2.42-2.42,1.1-2.42,2.42-2.42Z"/><path id="eye_outline" class="cls-18" d="M396.33,97.2c1.34,0,2.42,1.08,2.42,2.42s-1.08,2.42-2.42,2.42-2.42-1.08-2.42-2.42,1.1-2.42,2.42-2.42Z"/><path id="path319" class="cls-18" d="M428.75,94.62s-10.13,5.99-16.85,5.99M485.26,108.06s9.26-7.45,17.69-7.45M337.79,72.51s7.53-3.94,11.08-4.99M368.98,66.89s11.94-5.15,25.23-4.89M401.26,68.15s15.65-2.63,30.11.58M419.25,71.93s12.99-2.18,25.44,1.34M432.61,75.88s13.23.18,19.8,2.73M309.01,76.17s18.56,5.07,33.64-2.18"/><path id="path321" class="cls-18" d="M311.37,78.37s24.1,5.94,35.11-5.09"/><path id="path323" class="cls-18" d="M319.45,82.54s18.15,5.85,32.43-9.24M336.31,86.21s14.67-4.2,20.22-12.84M347.78,86.45s9.84-6.82,13.37-12.89M474.51,78.76s3.84,4.83,18.32,7.83M477.06,76.48s6.22,6.22,19.17,7.74M480.19,73.56s6.32,5.43,20.06,7.45M483.31,70.44s9.66,6.44,20.66,7.19M487.12,66.37s6.77,6.32,20.19,7.88M489.96,63.12s7.93,6.82,20.4,7.75M492.76,59.73s4.86,5.62,20.9,7.09M495.6,56.07s5.41,5.94,20.64,7.24M497.81,53.05s9.53,7.19,20.56,7.04M499.7,50.3s12.6,7.56,20.11,7.32M502,46.81s10.01,6.23,19.35,7.61M458.97,81.84s4.04,3.05,7.82,2.92M461.29,79.58s3.51,2.99,8.32,2.97M464.12,76.8s3.97,3.71,8.74,3.04M466.8,74.12s4.75,3.23,9,3.13M469.77,71.07s3.52,3.05,9.09,3.34M472.42,67.71s4.13,3.67,9.4,3.8M475.22,65.29s4.01,2.57,9.68,3.05M477.75,62.46s5.41,1.91,10.37,2.37M480.68,59.01s3.73,2.62,10.35,2.46M483.31,55.55s4.43,2.94,10.11,3M485.25,52.27s5.94,3.33,11.06,2.58M487.41,48.34s3.76,4.12,10.77,3.97M488.93,46.57s6.75,3.8,11.32,2.83M491.79,44.42s5.12,3.12,9.8,2.99M496.99,42.85s9.13,4.65,21.47-.39M504.76,46.16s18.45,4.23,26.44-3.17"/><path id="path325" class="cls-18" d="M519.23,47.26s12.68,1.32,26.86-3.17"/><path id="path327" class="cls-18" d="M527.66,47.34s19.25,3.88,52.7.15M353.01,86.01s8.61-5.67,12.18-12.19M359.45,84.96s6.93-6.72,8.95-10.89M365.85,83.23s5.7-5.12,6.96-8.71"/><path id="path329" class="cls-18" d="M338,74.22s12.37-2.7,41.96,1.1M349.44,69.28s10.37-5.02,19.61-6.56M359.75,67.19s7.58-3.57,18.75-5.35M376.96,66.52s10.48-4.47,23.31-4.05M390.22,66.6s14.38-3.21,27.62-1.41M428.71,73.62s10.97-.5,23.58,2.63M409.96,69.21s15.72-.84,26.49,1.15M507.15,46.62s5.43,4.7,20.55,7.69M515.68,47.38s8.5,4.83,21.9,6.51M524.59,47.44s11.92,5.18,24.52,5.51M537.79,48.57s12.15,2.92,27.2,2.13M383.97,66.34s8.24-3.39,22.84-3.12M438.29,78.68s4.94-.6,11.08,2.33"/><path id="path331" class="cls-18" d="M419.14,93.93c3.41.53,6.65.94,9.61.69,11.56-6.32,19.46-12.24,25.23-17.69"/></g><g class="cls-1"><g id="g536"><path id="path350" class="cls-6" d="M0,303.53h900v296.47H0v-296.47Z"/><path id="wave" class="cls-3" d="M-54,310.32c30-15.45,60-15.45,90,0,30,15.45,60,15.45,90,0,30-15.45,60-15.45,90,0,30,15.45,60,15.45,90,0,30-15.45,61.5-15.45,94.5,0,33,15.45,66,15.45,99,0,33-15.45,64.5-15.45,94.5,0,30,15.45,60,15.45,90,0,30-15.45,60-15.45,90,0,30,15.45,60,15.45,90,0,30-15.45,60-15.45,90,0"/><g id="use353"><path id="wave-2" class="cls-3" d="M-54,403.01c30-15.45,60-15.45,90,0,30,15.45,60,15.45,90,0,30-15.45,60-15.45,90,0,30,15.45,60,15.45,90,0,30-15.45,61.5-15.45,94.5,0,33,15.45,66,15.45,99,0,33-15.45,64.5-15.45,94.5,0,30,15.45,60,15.45,90,0,30-15.45,60-15.45,90,0,30,15.45,60,15.45,90,0,30-15.45,60-15.45,90,0"/></g><g id="use355"><path id="wave-3" class="cls-3" d="M-54,495.7c30-15.45,60-15.45,90,0,30,15.45,60,15.45,90,0,30-15.45,60-15.45,90,0,30,15.45,60,15.45,90,0,30-15.45,61.5-15.45,94.5,0,33,15.45,66,15.45,99,0,33-15.45,64.5-15.45,94.5,0,30,15.45,60,15.45,90,0,30-15.45,60-15.45,90,0,30,15.45,60,15.45,90,0,30-15.45,60-15.45,90,0"/></g></g></g></svg>