<?xml version="1.0" encoding="UTF-8"?><svg id="_色修正" xmlns="http://www.w3.org/2000/svg" viewBox="0 0 900 600"><defs><style>.cls-1{fill:none;stroke:#f3d11f;stroke-linecap:square;stroke-miterlimit:10;stroke-width:12px;}.cls-2{fill:#e50012;}.cls-2,.cls-3,.cls-4,.cls-5{stroke-width:0px;}.cls-3{fill:#f3d11f;}.cls-4{fill:#fff;}.cls-5{fill:#008a3a;}</style></defs><rect class="cls-5" width="900" height="600"/><rect class="cls-4" width="900" height="428.57"/><rect class="cls-2" width="900" height="171.43"/><path class="cls-3" d="M426,292.03c2.97-5.12,9.53-6.85,14.65-3.88,3.2,1.86,5.21,5.24,5.32,8.93v42.86h8.06v-42.86c.18-5.91,5.12-10.56,11.04-10.38,3.7.11,7.07,2.13,8.93,5.32,4.4-13.25-2.78-27.56-16.04-31.96-13.25-4.4-27.56,2.78-31.96,16.04-1.71,5.17-1.71,10.75,0,15.92"/><path class="cls-4" d="M431.74,280.84c7.21-1.47,14.56,1.82,18.26,8.19,3.7-6.37,11.05-9.66,18.26-8.19-1.39-10.08-10.68-17.13-20.76-15.75-8.19,1.12-14.62,7.56-15.75,15.75"/><path id="w" class="cls-3" d="M445.97,322.82c-1.61,17.92-17.44,31.14-35.35,29.53-7.25-.65-14.06-3.71-19.37-8.68-6.92,17.37-26.61,25.84-43.98,18.92-2.56-1.02-4.98-2.35-7.22-3.95,3.13,31.22,49.93,24.85,53.42-5.51,14.7,25.81,47.03,18.42,56.49-13.2l-3.99-17.1Z"/><path id="w-2" class="cls-3" d="M454.03,322.82c1.61,17.92,17.44,31.14,35.35,29.53,7.25-.65,14.06-3.71,19.37-8.68,6.92,17.37,26.61,25.84,43.98,18.92,2.56-1.02,4.98-2.35,7.22-3.95-3.13,31.22-49.93,24.85-53.42-5.51-14.7,25.81-47.03,18.42-56.49-13.2l3.99-17.1Z"/><path id="r" class="cls-3" d="M414.72,378.27c-6.53,14.1-19.58,16.52-31,5.14,0,0,4.59-3.24,9.5-4.14-.92-3.92.97-9.34,3.63-12.28,2.79,1.91,6.69,5.73,7.68,10.18,6.88-.89,10.19,1.1,10.19,1.1h0Z"/><path id="r-2" class="cls-3" d="M465.8,376.67c-8.74,12.85-22.01,13.11-31.42.02,0,0,5.06-2.45,10.05-2.53-.27-4.02,2.48-9.06,5.58-11.52,2.44,2.34,5.67,6.75,5.92,11.29,6.94.24,9.87,2.74,9.87,2.74h0Z"/><path id="r-3" class="cls-3" d="M516.47,383.41c-10.71,11.25-23.85,9.35-31.01-5.09,0,0,5.39-1.6,10.33-.86.39-4.01,3.92-8.54,7.38-10.46,2.03,2.7,4.49,7.58,4,12.11,6.8,1.37,9.29,4.31,9.29,4.31h0Z"/><path class="cls-1" d="M366.86,409.71c54.25-16.15,112.03-16.15,166.29,0"/><polygon id="s" class="cls-3" points="450 184.29 462.6 223.05 429.62 199.09 470.38 199.09 437.4 223.05 450 184.29"/><g id="h"><polygon id="s-2" class="cls-3" points="390 200.36 402.6 239.13 369.62 215.17 410.38 215.17 377.4 239.13 390 200.36"/><polygon id="s-3" class="cls-3" points="346.08 244.29 358.67 283.05 325.7 259.09 366.46 259.09 333.48 283.05 346.08 244.29"/><polygon id="s-4" class="cls-3" points="330 304.29 342.6 343.05 309.62 319.09 350.38 319.09 317.4 343.05 330 304.29"/></g><g id="h-2"><polygon id="s-5" class="cls-3" points="510 200.36 497.4 239.13 530.38 215.17 489.62 215.17 522.6 239.13 510 200.36"/><polygon id="s-6" class="cls-3" points="553.92 244.29 541.33 283.05 574.3 259.09 533.54 259.09 566.52 283.05 553.92 244.29"/><polygon id="s-7" class="cls-3" points="570 304.29 557.4 343.05 590.38 319.09 549.62 319.09 582.6 343.05 570 304.29"/></g></svg>