<?xml version="1.0" encoding="UTF-8"?><svg id="_色修正" xmlns="http://www.w3.org/2000/svg" viewBox="0 0 900 600"><defs><style>.cls-1{fill:#f9bf3d;}.cls-1,.cls-2,.cls-3,.cls-4,.cls-5{stroke-width:0px;}.cls-2{fill:#c71432;}.cls-3{fill:#fff;}.cls-4{fill:#004097;}.cls-5{fill:#008c43;}</style></defs><rect class="cls-4" width="900" height="600"/><rect class="cls-2" width="900" height="450"/><rect class="cls-3" width="900" height="300"/><rect class="cls-1" width="900" height="150"/><path class="cls-5" d="M0,600l450-300L0,0v600Z"/><circle class="cls-3" cx="159.93" cy="300.28" r="124.93"/><circle class="cls-5" cx="215.45" cy="300.28" r="124.93"/><path id="star" class="cls-3" d="M187.71,187.75l13.62,41.81-35.64-25.82h44l-35.64,25.82,13.66-41.81Z"/><path id="star-2" class="cls-3" d="M187.71,247.36l13.62,41.81-35.64-25.82h44l-35.64,25.82,13.66-41.81Z"/><path id="star-3" class="cls-3" d="M187.71,306.97l13.62,41.81-35.64-25.82h44l-35.64,25.82,13.66-41.81Z"/><path id="star-4" class="cls-3" d="M187.71,366.58l13.62,41.81-35.64-25.82h44l-35.64,25.82,13.66-41.81Z"/></svg>