<?xml version="1.0" encoding="UTF-8"?><svg id="_色修正" xmlns="http://www.w3.org/2000/svg" xmlns:xlink="http://www.w3.org/1999/xlink" viewBox="0 0 900 600"><defs><style>.cls-1{clip-path:url(#clippath);}.cls-2,.cls-3{fill:none;}.cls-2,.cls-4,.cls-5,.cls-6,.cls-7{stroke-width:0px;}.cls-3{stroke:#fff;stroke-miterlimit:80;stroke-width:60px;}.cls-4{fill:#e50012;}.cls-5{fill:#fff;}.cls-6{fill:#e62a23;}.cls-7{fill:#002b69;}</style><clipPath id="clippath"><rect class="cls-2" y=".19" width="450" height="300"/></clipPath></defs><rect class="cls-7" width="900" height="600"/><g id="Comwlth"><g id="Cstar"><path id="Star7" class="cls-5" d="M227.24,379.66l13.94,43.36,42.59-16.13-25.2,37.93,39.17,23.24-45.37,3.95,6.25,45.11-31.37-33.01-31.37,33.01,6.25-45.11-45.37-3.95,39.17-23.24-25.2-37.93,42.59,16.13,13.94-43.36Z"/></g></g><g id="_αCrucis"><path id="Star7-2" class="cls-5" d="M671.3,456.9l7.5,23.32,22.91-8.68-13.56,20.41,21.07,12.5-24.41,2.12,3.36,24.27-16.88-17.76-16.88,17.76,3.36-24.27-24.41-2.12,21.07-12.5-13.56-20.41,22.91,8.68,7.5-23.32Z"/></g><g id="_βCrucis"><path id="Star7-3" class="cls-5" d="M567.37,218l7.5,23.32,22.91-8.68-13.56,20.41,21.07,12.5-24.41,2.12,3.36,24.27-16.88-17.76-16.88,17.76,3.36-24.27-24.41-2.12,21.07-12.5-13.56-20.41,22.91,8.68,7.5-23.32Z"/></g><g id="_γCrucis"><path id="Star7-4" class="cls-5" d="M680.56,56.76l7.5,23.32,22.91-8.68-13.56,20.41,21.07,12.5-24.41,2.12,3.36,24.27-16.88-17.76-16.88,17.76,3.36-24.27-24.41-2.12,21.07-12.5-13.56-20.41,22.91,8.68,7.5-23.32Z"/></g><g id="_δCrucis"><path id="Star7-5" class="cls-5" d="M787.55,169.05l7.5,23.32,22.91-8.68-13.56,20.41,21.07,12.5-24.41,2.12,3.36,24.27-16.88-17.76-16.88,17.76,3.36-24.27-24.41-2.12,21.07-12.5-13.56-20.41,22.91,8.68,7.5-23.32Z"/></g><g id="_εCrucis"><path id="Star5" class="cls-5" d="M740.97,320.94l5.93,14.53,15.65,1.15-11.99,10.13,3.75,15.24-13.34-8.27-13.34,8.27,3.75-15.24-11.99-10.13,15.65-1.15,5.93-14.53Z"/></g><rect class="cls-7" y=".19" width="450" height="300"/><g class="cls-1"><line class="cls-3" x1="-10.29" y1="-4.55" x2="456.86" y2="306.84"/><line class="cls-3" x1="-9.6" y1="306.84" x2="457.55" y2="-4.55"/><polyline class="cls-6" points="224.13 128.27 241.46 139.82 458.05 -4.55 448.83 -21.51"/><polyline class="cls-6" points="-9.25 307.48 -.38 323.8 223.63 174.48 206.3 162.93"/><polygon class="cls-4" points="-21.48 12.89 -11.08 -6.23 209.01 139.82 188.97 153.18 -21.48 12.89"/><polygon class="cls-4" points="238.26 162.93 258.29 149.57 468.06 289.4 457.4 309 238.26 162.93"/><polygon class="cls-4" points="221.43 128.27 449.36 -23.67 460.02 -4.06 241.46 141.62 221.43 128.27"/><polygon class="cls-4" points="-11.23 306.99 206.3 161.12 226.34 174.48 -.91 325.96 -11.23 306.99"/><polygon class="cls-6" points="223.63 151.37 240.96 162.93 258.29 151.37 240.96 139.82 223.63 151.37"/><polygon class="cls-6" points="223.63 151.37 206.3 139.82 188.97 151.37 206.3 162.93 223.63 151.37"/><polygon class="cls-6" points="223.63 151.37 240.96 139.82 223.63 128.27 206.3 139.82 223.63 151.37"/><polygon class="cls-6" points="223.63 151.37 206.3 162.93 223.63 174.48 240.96 162.93 223.63 151.37"/><rect class="cls-5" x="-4.71" y="110.19" width="457.98" height="80"/><rect class="cls-5" x="184.31" y=".76" width="80" height="299.24"/><rect class="cls-4" x="200.02" y=".76" width="48" height="299.24"/><rect class="cls-4" x="200.66" y="-79.77" width="48" height="460.29" transform="translate(74.28 375.04) rotate(-90)"/></g><rect class="cls-2" width="450" height="300"/><rect class="cls-2" width="450" height="300"/></svg>