<?xml version="1.0" encoding="UTF-8"?><svg id="_色修正" xmlns="http://www.w3.org/2000/svg" viewBox="0 0 900 600"><defs><style>.cls-1{stroke-miterlimit:4;stroke-width:.75px;}.cls-1,.cls-2,.cls-3,.cls-4,.cls-5{fill:#fff000;}.cls-1,.cls-2,.cls-6,.cls-4,.cls-5,.cls-7{stroke:#040000;}.cls-8{fill:#211815;}.cls-2{stroke-width:.75px;}.cls-6{stroke-width:.76px;}.cls-6,.cls-9{fill:#e50012;}.cls-4{stroke-width:.86px;}.cls-4,.cls-5{fill-rule:evenodd;stroke-linecap:round;stroke-linejoin:round;}.cls-5{stroke-width:.83px;}.cls-10,.cls-7{fill:#fff;}.cls-7{stroke-width:1.01px;}.cls-11{fill:#0e3484;}.cls-12{fill:#060;}</style></defs><rect class="cls-9" width="900" height="600"/><rect class="cls-12" width="360" height="600"/><path class="cls-4" d="M477.36,393.06c-45.31-1.37-253.11-131.07-254.54-151.72l11.47-19.14c20.61,29.95,233.04,156.09,253.91,151.62l-10.84,19.23"/><path class="cls-4" d="M231.88,219.6c-4.07,10.94,54.22,46.98,124.35,89.63,70.13,42.65,130.6,69.01,135.08,65.23.27-.49,2.21-3.81,2.03-3.78-.84,1.27-2.89,1.67-6.08.75-18.95-5.46-68.36-28.15-129.56-65.26-61.2-37.11-114.44-71.32-122.72-85.85-.58-1.01-.99-2.84-.9-4.27h-.2s-1.76,3.08-1.76,3.08l-.24.48h0,0ZM478.43,393.66c-.77,1.39-2.2,1.44-4.92,1.14-16.95-1.88-68.38-26.89-129.24-63.32-70.82-42.39-129.3-81.01-122.96-91.11l1.73-3.05.34.11c-5.71,17.11,115.42,86.37,122.55,90.78,70.09,43.42,129.17,68.78,134.4,62.19l-1.9,3.27h0s0,0,0,0Z"/><path class="cls-4" d="M360.25,253.84c45.36-.36,101.33-6.2,133.53-19.04l-6.94-11.28c-19.04,10.54-75.31,17.47-126.98,18.5-61.1-.56-104.23-6.25-125.85-20.75l-6.55,12.01c39.73,16.81,80.43,20.38,132.78,20.55"/><path class="cls-4" d="M495.66,235.07c-1.11,1.77-22.11,9.02-53.06,14.36-20.98,3.2-48.35,5.93-82.51,5.97-32.45.03-58.96-2.28-79.03-5-32.48-5.09-49.25-12.18-55.45-14.68.59-1.18.97-2.01,1.55-3.11,17.84,7.1,34.69,11.39,54.42,14.42,19.94,2.7,46.12,5.04,78.41,5.01,34-.03,61.06-2.98,81.92-6.08,31.73-5.12,49.07-11.71,51.5-14.76l2.24,3.87h0ZM489.57,223.63c-3.44,2.76-20.58,8.84-50.73,13.66-20.12,2.88-45.71,5.46-78.4,5.5-31.06.03-56.43-2.06-75.73-4.87-30.62-4-46.92-11.21-52.79-13.32.58-1.01,1.18-2.01,1.79-3.02,4.57,2.3,20.3,8.69,51.34,13.08,19.08,2.71,44.49,4.72,75.39,4.69,32.54-.03,57.83-2.66,77.82-5.53,30.31-4.17,46.62-11.92,49.09-13.86l2.21,3.68h0s0,0,0,0Z"/><path class="cls-4" d="M211.32,308.49c27.9,15,89.86,22.57,148.49,23.09,53.39.08,122.94-8.25,148.95-22.04l-.72-15.02c-8.14,12.72-82.67,24.91-148.81,24.41-66.14-.5-127.56-10.71-148.03-23.94l.12,13.49"/><path class="cls-4" d="M510.18,306.33v3.58c-3.91,4.67-28.42,11.74-59.15,16.71-23.39,3.59-53.89,6.29-91.89,6.29s-64.89-2.57-87.22-6c-35.29-5.14-57.87-14.14-62.4-16.83l.02-4.18c13.61,9.05,50.49,15.67,62.88,17.7,22.18,3.41,50.8,5.96,86.73,5.96,37.82,0,68.15-2.69,91.4-6.25,22.05-3.19,53.47-11.47,59.65-16.99h0ZM510.2,293.59v3.58c-3.91,4.67-28.42,11.74-59.15,16.71-23.39,3.59-53.89,6.29-91.89,6.29s-64.89-2.57-87.22-6c-35.29-5.14-57.87-14.14-62.4-16.82l.02-4.18c13.61,9.05,50.49,15.67,62.88,17.69,22.18,3.41,50.8,5.96,86.73,5.96,37.82,0,68.15-2.69,91.4-6.25,22.05-3.19,53.47-11.47,59.65-16.99h0s0,0,0,0Z"/><path class="cls-4" d="M359.68,390.48c-64.16-.38-119.13-17.49-130.74-20.32l8.46,13.25c20.5,8.63,74.14,21.48,122.89,20.06,48.76-1.42,91.37-5.2,121.39-19.82l8.68-13.73c-20.46,9.64-90.1,20.46-130.69,20.56"/><path class="cls-5" d="M484.95,380.58c-1.28,1.95-2.58,3.87-3.89,5.74-14.16,4.99-36.48,10.24-45.9,11.77-19.24,3.96-49,6.89-75.41,6.9-56.83-.83-103.36-11.96-125.24-21.45l-1.77-3.04.29-.46,2.99,1.16c38.92,13.93,82.64,19.48,124.05,20.48,26.31.09,52.64-3.02,73.94-6.82,32.66-6.54,45.86-11.47,49.91-13.71l1.03-.58h0,0ZM492.48,368.17s.07.08.1.12c-.95,1.61-1.94,3.25-2.94,4.89-7.55,2.7-28.05,8.7-57.99,12.88-19.72,2.69-31.98,5.29-71.22,6.05-73.52-1.87-121.12-16.25-132.43-19.79l-1.68-3.21c42.61,11.12,86.13,18.89,134.11,19.68,35.9-.76,51.17-3.41,70.73-6.07,34.91-5.43,52.49-11.17,57.77-12.83-.07-.1-.14-.2-.23-.3l3.78-1.41h0s0,0,0,0Z"/><path class="cls-4" d="M493.24,296.64c.21,42.21-21.39,80.08-38.79,96.79-24.61,23.64-57.24,38.84-95.35,39.54-42.55.78-82.68-26.96-93.44-39.15-21.04-23.83-38.17-54.09-38.72-94.86,2.61-46.06,20.69-78.15,46.9-100.15,26.21-22,61.11-32.72,90.18-31.95,33.54.89,72.71,17.34,99.78,50,17.73,21.4,25.41,44.62,29.44,79.79h0ZM359.47,152.13c81.73,0,148.94,66.51,148.94,148.05s-67.22,148.06-148.94,148.06-148.39-66.51-148.39-148.06,66.66-148.05,148.39-148.05"/><path class="cls-4" d="M359.87,151.62c81.8,0,148.52,66.72,148.52,148.53s-66.72,148.53-148.52,148.53-148.52-66.72-148.52-148.53,66.72-148.53,148.52-148.53h0ZM214.62,300.15c0,79.89,65.6,145.26,145.25,145.26s145.25-65.37,145.25-145.26-65.61-145.27-145.25-145.27-145.25,65.38-145.25,145.27h0Z"/><path class="cls-4" d="M359.99,163.96c74.6,0,136.04,61.23,136.04,136.06s-61.44,136.05-136.04,136.05-136.04-61.23-136.04-136.05,61.45-136.06,136.04-136.06h0ZM227.21,300.02c0,73.03,59.97,132.79,132.77,132.79s132.77-59.76,132.77-132.79-59.97-132.79-132.77-132.79-132.77,59.76-132.77,132.79h0Z"/><path class="cls-4" d="M365.97,151.02h-12.73v298.44h12.79l-.06-298.44Z"/><path class="cls-4" d="M364.7,149.32h3.24l.03,301.87h-3.24l-.02-301.88h0ZM352.06,149.32h3.26v301.87s-3.26,0-3.26,0V149.32h0Z"/><path class="cls-4" d="M508.48,305.9v-11.03l-8.98-8.37-51-13.5-73.5-7.5-88.5,4.5-63,15-12.72,9.42v11.04l32.22-14.46,76.5-12h73.5l54,6,37.5,9,23.98,11.9Z"/><path class="cls-4" d="M359.92,277.16c35.07-.06,69.1,3.32,96.1,8.58,27.85,5.57,47.46,12.53,54.16,20.36v3.87c-8.09-9.74-34.47-16.87-54.78-20.95-26.79-5.21-60.59-8.58-95.47-8.51-36.81.07-71.08,3.55-97.48,8.7-21.18,4.2-49.43,12.55-52.95,20.79v-4.03c1.94-5.7,22.97-14.22,52.48-20.13,26.59-5.19,60.93-8.61,97.95-8.68h0ZM359.94,264.42c35.07-.06,69.11,3.33,96.1,8.58,27.85,5.57,47.46,12.53,54.16,20.36v3.87c-8.09-9.73-34.47-16.87-54.78-20.95-26.79-5.21-60.59-8.58-95.47-8.51-36.81.07-70.91,3.55-97.31,8.7-20.44,3.87-49.84,12.55-53.12,20.79v-4.04c1.94-5.64,23.4-14.46,52.48-20.13,26.59-5.19,60.93-8.61,97.95-8.68h0Z"/><path class="cls-4" d="M359.22,199.44c55.27-.28,103.49,7.73,125.54,19.03l8.05,13.92c-19.17-10.33-71.18-21.08-133.51-19.47-50.78.31-105.04,5.59-132.26,20.12l9.61-16.06c22.34-11.59,75.03-17.46,122.58-17.53"/><path class="cls-4" d="M359.96,210.93c31.53-.08,61.99,1.69,86.21,6.07,22.56,4.2,44.08,10.5,47.15,13.89l2.39,4.21c-7.48-4.89-26.1-10.33-50.01-14.86-24.01-4.51-54.45-6.01-85.8-5.93-35.58-.12-63.23,1.76-86.95,5.89-25.09,4.7-42.5,11.4-46.8,14.59l2.34-4.46c8.34-4.26,21.58-9.39,43.83-13.39,24.54-4.48,52.47-5.83,87.63-6.02h0ZM359.94,198.2c30.17-.08,59.96,1.6,83.18,5.78,18.31,3.57,36.42,9.13,43.06,14.08l3.49,5.54c-5.93-6.59-28.25-12.84-47.96-16.34-23.04-3.97-51.59-5.55-81.76-5.8-31.66.09-60.92,2.03-83.63,6.16-21.66,4.12-35.64,9-41.55,12.81l3.07-4.63c8.16-4.3,21.35-8.24,37.95-11.47,22.87-4.16,52.31-6.05,84.16-6.14h0Z"/><path class="cls-4" d="M433.72,361.89c-27.33-5.1-54.7-5.84-73.83-5.62-92.11,1.08-121.87,18.91-125.5,24.31l-6.88-11.22c23.45-17,73.61-26.53,132.88-25.56,30.78.5,57.34,2.55,79.68,6.88l-6.35,11.21"/><path class="cls-5" d="M359.37,354.69c25.62.38,50.77,1.44,75.05,5.97l-1.76,3.1c-22.55-4.16-46.58-5.75-73.2-5.62-33.99-.27-68.38,2.91-98.31,11.5-9.45,2.63-25.08,8.7-26.68,13.72l-1.75-2.88c.5-2.97,9.95-9.12,27.62-14.09,34.29-9.82,66.36-11.47,99.03-11.7h0s0,0,0,0ZM360.53,341.8c26.55.5,53.96,1.72,80.61,7l-1.83,3.23c-24.06-4.78-47.05-6.37-78.62-6.86-34.1.06-70.28,2.49-103.17,12.06-10.62,3.09-28.95,9.78-29.56,15.08l-1.75-3.1c.4-4.81,16.26-11.08,30.54-15.23,33.14-9.64,69.41-12.11,103.78-12.18h0Z"/><path class="cls-4" d="M491.37,371.07l-11.07,17.17-31.8-28.24-82.5-55.5-93-51-48.29-16.51,10.29-19.08,3.5-1.91,30,7.5,99,51,57,36,48,34.5,19.5,22.5-.63,3.57Z"/><path class="cls-4" d="M222.97,237.43c8.47-5.74,70.71,21.98,135.83,61.25,64.95,39.38,127.02,83.88,121.41,92.21l-1.84,2.9-.85.67c.18-.13,1.12-1.27-.09-4.36-2.77-9.11-46.79-44.24-119.84-88.34-71.21-42.46-130.56-68.06-136.5-60.74l1.87-3.58h0,0ZM493.63,370.83c5.36-10.58-52.37-54.07-123.95-96.41-73.22-41.5-125.99-65.93-135.63-58.64l-2.14,3.9c-.02.21.08-.27.53-.62,1.75-1.53,4.66-1.43,5.97-1.45,16.6.25,64,22.06,130.51,60.19,29.14,16.97,123.11,77.24,122.75,94.18.03,1.46.12,1.76-.43,2.48l2.39-3.64h0s0,0,0,0Z"/><path class="cls-7" d="M270.9,316.51c0,24.41,9.99,46.48,26.19,62.61,16.22,16.17,38.27,26.37,62.71,26.37s46.87-9.98,63.02-26.08c16.15-16.1,26.16-38.33,26.17-62.82h0v-118.78l-178.11-.21.02,118.92h0,0Z"/><path class="cls-6" d="M274.23,316.68v.07c0,23.34,9.66,44.59,25.16,60.01,15.53,15.46,36.92,25.07,60.32,25.07s44.87-9.54,60.33-24.94c15.46-15.4,25.05-36.65,25.05-60.07h0v-115.24l-170.76-.03-.1,115.12M410.76,236.06v73.34s-.06,7.76-.06,7.76h0c0,2.04-.12,4.37-.36,6.35-1.39,11.59-6.72,21.7-14.62,29.56-9.25,9.2-22.01,14.91-36.07,14.91s-26.46-5.91-35.74-15.15c-9.52-9.48-15.04-22.48-15.04-35.92l-.02-81.03,101.91.18h0s0,0,0,0Z"/><g id="castle3"><g id="castle"><path class="cls-3" d="M285.29,231.64c.2-8.28,6.08-10.24,6.12-10.27.04-.03,6.35,2.11,6.33,10.35l-12.45-.08"/><path class="cls-2" d="M280.21,221.54l-1.02,9.52h6.21c.06-7.86,5.96-9.17,6.1-9.14.13,0,5.98,1.74,6.14,9.15h6.23l-1.12-9.59-22.53.06h0s0,0,0,0Z"/><path class="cls-2" d="M278.78,231.09h25.42c.54,0,.97.53.97,1.18s-.44,1.17-.97,1.17h-25.42c-.54,0-.97-.53-.97-1.17s.44-1.18.97-1.18Z"/><path class="cls-2" d="M288.01,231.04c.03-4.97,3.39-6.38,3.41-6.37,0,0,3.51,1.45,3.54,6.37h-6.95"/><path class="cls-2" d="M279.32,217.58h24.37c.51,0,.93.48.93,1.06s-.42,1.06-.93,1.06h-24.37c-.51,0-.93-.47-.93-1.06s.42-1.06.93-1.06Z"/><path class="cls-2" d="M279.83,219.71h23.31c.49,0,.89.47.89,1.06s-.4,1.06-.89,1.06h-23.31c-.49,0-.89-.47-.89-1.06s.4-1.06.89-1.06Z"/><path class="cls-2" d="M287.36,203.82h1.84v1.31h1.34v-1.34h1.89v1.34h1.35v-1.34h1.89v3.02c0,.47-.38.78-.83.78h-6.62c-.44,0-.85-.36-.86-.79v-2.98s0,0,0,0h0Z"/><path class="cls-2" d="M294.29,207.86l.42,9.68-6.45-.02.43-9.68,5.61.03"/><path id="cp1" class="cls-2" d="M286.41,212.34l.2,5.22h-6.19s.17-5.22.17-5.22h5.82,0,0Z"/><path id="cp1-2" class="cls-2" d="M302.32,212.34l.2,5.22h-6.19s.17-5.22.17-5.22h5.82,0,0Z"/><path id="cp2" class="cls-2" d="M279.45,208.56h1.8v1.31h1.32v-1.34h1.84v1.34h1.32v-1.34h1.85s0,3.02,0,3.02c0,.47-.37.78-.8.78h-6.48c-.43,0-.84-.35-.84-.79v-2.98s0,0,0,0h0Z"/><path id="cp2-2" class="cls-2" d="M295.36,208.56h1.8v1.31h1.32v-1.34h1.84v1.34h1.32v-1.34h1.85s0,3.02,0,3.02c0,.47-.37.78-.8.78h-6.48c-.43,0-.84-.35-.84-.79v-2.98s0,0,0,0h0Z"/><path class="cls-8" d="M290.85,210.92c-.04-.94,1.31-.95,1.3,0v2.3h-1.3v-2.3"/><path id="cp3" class="cls-8" d="M282.86,214.26c0-.91,1.26-.93,1.24,0v1.78h-1.24v-1.78"/><path id="cp3-2" class="cls-8" d="M298.82,214.26c0-.91,1.26-.93,1.24,0v1.78h-1.24v-1.78"/></g><g id="castle-2"><path class="cls-3" d="M285.29,301.12c.2-8.28,6.08-10.24,6.12-10.27.04-.03,6.35,2.11,6.33,10.35l-12.45-.08"/><path class="cls-2" d="M280.21,291.01l-1.02,9.52h6.21c.06-7.86,5.96-9.17,6.1-9.14.13,0,5.98,1.74,6.14,9.15h6.23l-1.12-9.59-22.53.06h0s0,0,0,0Z"/><path class="cls-2" d="M278.78,300.57h25.42c.54,0,.97.53.97,1.18s-.44,1.17-.97,1.17h-25.42c-.54,0-.97-.53-.97-1.17s.44-1.18.97-1.18Z"/><path class="cls-2" d="M288.01,300.52c.03-4.97,3.39-6.38,3.41-6.37,0,0,3.51,1.45,3.54,6.37h-6.95"/><path class="cls-2" d="M279.32,287.05h24.37c.51,0,.93.48.93,1.06s-.42,1.06-.93,1.06h-24.37c-.51,0-.93-.47-.93-1.06s.42-1.06.93-1.06Z"/><path class="cls-2" d="M279.83,289.18h23.31c.49,0,.89.47.89,1.06s-.4,1.06-.89,1.06h-23.31c-.49,0-.89-.47-.89-1.06s.4-1.06.89-1.06Z"/><path class="cls-2" d="M287.36,273.3h1.84v1.31h1.34v-1.34h1.89v1.34h1.35v-1.34h1.89v3.02c0,.47-.38.78-.83.78h-6.62c-.44,0-.85-.36-.86-.79v-2.98s0,0,0,0h0Z"/><path class="cls-2" d="M294.29,277.33l.42,9.68-6.45-.02.43-9.68,5.61.03"/><path id="cp1-3" class="cls-2" d="M286.41,281.82l.2,5.22h-6.19s.17-5.22.17-5.22h5.82,0,0Z"/><path id="cp1-4" class="cls-2" d="M302.32,281.82l.2,5.22h-6.19s.17-5.22.17-5.22h5.82,0,0Z"/><path id="cp2-3" class="cls-2" d="M279.45,278.04h1.8v1.31h1.32v-1.34h1.84v1.34h1.32v-1.34h1.85s0,3.02,0,3.02c0,.47-.37.78-.8.78h-6.48c-.43,0-.84-.35-.84-.79v-2.98s0,0,0,0h0Z"/><path id="cp2-4" class="cls-2" d="M295.36,278.04h1.8v1.31h1.32v-1.34h1.84v1.34h1.32v-1.34h1.85s0,3.02,0,3.02c0,.47-.37.78-.8.78h-6.48c-.43,0-.84-.35-.84-.79v-2.98s0,0,0,0h0Z"/><path class="cls-8" d="M290.85,280.39c-.04-.94,1.31-.95,1.3,0v2.3h-1.3v-2.3"/><path id="cp3-3" class="cls-8" d="M282.86,283.74c0-.91,1.26-.93,1.24,0v1.78h-1.24v-1.78"/><path id="cp3-4" class="cls-8" d="M298.82,283.74c0-.91,1.26-.93,1.24,0v1.78h-1.24v-1.78"/></g><g id="castle-3"><path class="cls-3" d="M312.38,373.45c-5.73-5.98-2.98-11.53-2.98-11.58.01-.05,5.97-3.02,11.8,2.8l-8.82,8.78"/><path class="cls-1" d="M301.63,369.92l6.03,7.43,4.39-4.4c-5.55-5.59-2.32-10.7-2.2-10.78.09-.1,5.45-3.02,10.82,2.09l4.39-4.42-7.6-5.96-15.84,16.03h0s0,0,0,0Z"/><path class="cls-1" d="M307.4,377.67l17.91-18.04c.38-.38,1.06-.32,1.52.14s.52,1.14.15,1.52l-17.91,18.04c-.38.38-1.06.32-1.52-.13s-.53-1.14-.15-1.52Z"/><path class="cls-1" d="M313.87,371.09c-3.51-3.52-2.13-6.9-2.12-6.91,0,0,3.5-1.47,7.02,1.98l-4.9,4.93"/><path class="cls-1" d="M298.19,367.77l17.17-17.29c.36-.36,1-.33,1.41.08s.45,1.04.09,1.41l-17.17,17.29c-.36.36-.99.33-1.41-.08s-.45-1.04-.09-1.41Z"/><path class="cls-1" d="M300.06,368.91l16.42-16.54c.35-.35.97-.3,1.38.11s.47,1.03.12,1.38l-16.42,16.54c-.35.35-.97.3-1.38-.11s-.47-1.03-.12-1.38Z"/><path class="cls-1" d="M294.09,352.37l1.3-1.3.93.92.95-.95-.95-.94,1.33-1.33.94.94.95-.96-.95-.94,1.33-1.34,2.14,2.13c.34.33.29.82-.03,1.13l-4.66,4.7c-.31.32-.85.36-1.16.05l-2.12-2.1h0s0,0,0,0Z"/><path class="cls-1" d="M301.84,350.3l7.16,6.52-4.56,4.56-6.57-7.12,3.97-3.96"/><path id="cp1-5" class="cls-1" d="M299.47,359.04l3.84,3.54-4.36,4.39-3.58-3.8,4.1-4.13h0s0,0,0,0Z"/><path id="cp1-6" class="cls-1" d="M310.68,347.75l3.84,3.54-4.36,4.39-3.58-3.8,4.1-4.13h0s0,0,0,0Z"/><path id="cp2-5" class="cls-1" d="M291.88,361.32l1.27-1.27.93.92.93-.93-.95-.94,1.3-1.3.95.94.93-.94-.95-.94,1.3-1.31,2.14,2.13c.33.33.29.81-.01,1.12l-4.56,4.59c-.31.31-.84.35-1.15.04l-2.12-2.1h0s0,0,0,0Z"/><path id="cp2-6" class="cls-1" d="M303.1,350.03l1.27-1.27.93.92.93-.93-.95-.94,1.3-1.3.95.94.93-.94-.95-.94,1.3-1.31,2.14,2.13c.33.33.29.81-.01,1.12l-4.56,4.59c-.31.31-.84.35-1.15.04l-2.12-2.1h0s0,0,0,0Z"/><path class="cls-8" d="M301.59,354.89c-.7-.63.25-1.6.92-.92l1.64,1.62-.92.92-1.63-1.62"/><path id="cp3-5" class="cls-8" d="M298.33,362.92c-.65-.64.23-1.54.87-.88l1.26,1.25-.87.88-1.26-1.25"/><path id="cp3-6" class="cls-8" d="M309.57,351.59c-.65-.64.23-1.54.87-.88l1.26,1.25-.87.88-1.26-1.25"/></g></g><g id="castle-4"><path class="cls-3" d="M353.86,231.64c.2-8.28,6.08-10.24,6.12-10.27.04-.03,6.35,2.11,6.33,10.35l-12.45-.08"/><path class="cls-2" d="M348.79,221.54l-1.02,9.52h6.21c.06-7.86,5.96-9.17,6.1-9.14.13,0,5.98,1.74,6.14,9.15h6.23l-1.12-9.59-22.53.06h0s0,0,0,0Z"/><path class="cls-2" d="M347.35,231.09h25.42c.54,0,.97.53.97,1.18s-.44,1.17-.97,1.17h-25.42c-.54,0-.97-.53-.97-1.17s.44-1.18.97-1.18Z"/><path class="cls-2" d="M356.59,231.04c.03-4.97,3.39-6.38,3.41-6.37,0,0,3.51,1.45,3.54,6.37h-6.95"/><path class="cls-2" d="M347.89,217.58h24.37c.51,0,.93.48.93,1.06s-.42,1.06-.93,1.06h-24.37c-.51,0-.93-.47-.93-1.06s.42-1.06.93-1.06Z"/><path class="cls-2" d="M348.4,219.71h23.31c.49,0,.89.47.89,1.06s-.4,1.06-.89,1.06h-23.31c-.49,0-.89-.47-.89-1.06s.4-1.06.89-1.06Z"/><path class="cls-2" d="M355.93,203.82h1.84v1.31h1.34v-1.34h1.89v1.34h1.35v-1.34h1.89v3.02c0,.47-.38.78-.83.78h-6.62c-.44,0-.85-.36-.86-.79v-2.98s0,0,0,0h0Z"/><path class="cls-2" d="M362.86,207.86l.42,9.68-6.45-.02.43-9.68,5.61.03"/><path id="cp1-7" class="cls-2" d="M354.98,212.34l.2,5.22h-6.19s.17-5.22.17-5.22h5.82,0,0Z"/><path id="cp1-8" class="cls-2" d="M370.89,212.34l.2,5.22h-6.19s.17-5.22.17-5.22h5.82,0,0Z"/><path id="cp2-7" class="cls-2" d="M348.02,208.56h1.8v1.31h1.32v-1.34h1.84v1.34h1.32v-1.34h1.85s0,3.02,0,3.02c0,.47-.37.78-.8.78h-6.48c-.43,0-.84-.35-.84-.79v-2.98s0,0,0,0h0Z"/><path id="cp2-8" class="cls-2" d="M363.93,208.56h1.8v1.31h1.32v-1.34h1.84v1.34h1.32v-1.34h1.85s0,3.02,0,3.02c0,.47-.37.78-.8.78h-6.48c-.43,0-.84-.35-.84-.79v-2.98s0,0,0,0h0Z"/><path class="cls-8" d="M359.42,210.92c-.04-.94,1.31-.95,1.3,0v2.3h-1.3v-2.3"/><path id="cp3-7" class="cls-8" d="M351.43,214.26c0-.91,1.26-.93,1.24,0v1.78h-1.24v-1.78"/><path id="cp3-8" class="cls-8" d="M367.39,214.26c0-.91,1.26-.93,1.24,0v1.78h-1.24v-1.78"/></g><g id="castle3-2"><g id="castle-5"><path class="cls-3" d="M434.4,231.64c-.2-8.28-6.08-10.24-6.12-10.27-.04-.03-6.35,2.11-6.33,10.35l12.45-.08"/><path class="cls-2" d="M439.47,221.54l1.02,9.52h-6.21c-.06-7.86-5.96-9.17-6.1-9.14-.13,0-5.98,1.74-6.14,9.15h-6.23l1.12-9.59,22.53.06h0s0,0,0,0Z"/><path class="cls-2" d="M440.91,231.09h-25.42c-.54,0-.97.53-.97,1.18s.44,1.17.97,1.17h25.42c.54,0,.97-.53.97-1.17s-.44-1.18-.97-1.18Z"/><path class="cls-2" d="M431.67,231.04c-.03-4.97-3.39-6.38-3.41-6.37,0,0-3.51,1.45-3.54,6.37h6.95"/><path class="cls-2" d="M440.37,217.58h-24.37c-.51,0-.93.48-.93,1.06s.42,1.06.93,1.06h24.37c.51,0,.93-.47.93-1.06s-.42-1.06-.93-1.06Z"/><path class="cls-2" d="M439.86,219.71h-23.31c-.49,0-.89.47-.89,1.06s.4,1.06.89,1.06h23.31c.49,0,.89-.47.89-1.06s-.4-1.06-.89-1.06Z"/><path class="cls-2" d="M432.33,203.82h-1.84v1.31h-1.34v-1.34h-1.89v1.34h-1.35v-1.34h-1.89v3.02c0,.47.38.78.83.78h6.62c.44,0,.85-.36.86-.79v-2.98s0,0,0,0h0Z"/><path class="cls-2" d="M425.4,207.86l-.42,9.68,6.45-.02-.43-9.68-5.61.03"/><path id="cp1-9" class="cls-2" d="M433.28,212.34l-.2,5.22h6.19s-.17-5.22-.17-5.22h-5.82,0,0Z"/><path id="cp1-10" class="cls-2" d="M417.36,212.34l-.2,5.22h6.19s-.17-5.22-.17-5.22h-5.82,0,0Z"/><path id="cp2-9" class="cls-2" d="M440.24,208.56h-1.8v1.31h-1.32v-1.34h-1.84v1.34h-1.32v-1.34h-1.85s0,3.02,0,3.02c0,.47.37.78.8.78h6.48c.43,0,.84-.35.84-.79v-2.98s0,0,0,0h0Z"/><path id="cp2-10" class="cls-2" d="M424.32,208.56h-1.8v1.31h-1.32v-1.34h-1.84v1.34h-1.32v-1.34h-1.85s0,3.02,0,3.02c0,.47.37.78.8.78h6.48c.43,0,.84-.35.84-.79v-2.98s0,0,0,0h0Z"/><path class="cls-8" d="M428.84,210.92c.04-.94-1.31-.95-1.3,0v2.3h1.3v-2.3"/><path id="cp3-9" class="cls-8" d="M436.83,214.26c0-.91-1.26-.93-1.24,0v1.78h1.24v-1.78"/><path id="cp3-10" class="cls-8" d="M420.87,214.26c0-.91-1.26-.93-1.24,0v1.78h1.24v-1.78"/></g><g id="castle-6"><path class="cls-3" d="M434.4,301.12c-.2-8.28-6.08-10.24-6.12-10.27-.04-.03-6.35,2.11-6.33,10.35l12.45-.08"/><path class="cls-2" d="M439.47,291.01l1.02,9.52h-6.21c-.06-7.86-5.96-9.17-6.1-9.14-.13,0-5.98,1.74-6.14,9.15h-6.23l1.12-9.59,22.53.06h0s0,0,0,0Z"/><path class="cls-2" d="M440.91,300.57h-25.42c-.54,0-.97.53-.97,1.18s.44,1.17.97,1.17h25.42c.54,0,.97-.53.97-1.17s-.44-1.18-.97-1.18Z"/><path class="cls-2" d="M431.67,300.52c-.03-4.97-3.39-6.38-3.41-6.37,0,0-3.51,1.45-3.54,6.37h6.95"/><path class="cls-2" d="M440.37,287.05h-24.37c-.51,0-.93.48-.93,1.06s.42,1.06.93,1.06h24.37c.51,0,.93-.47.93-1.06s-.42-1.06-.93-1.06Z"/><path class="cls-2" d="M439.86,289.18h-23.31c-.49,0-.89.47-.89,1.06s.4,1.06.89,1.06h23.31c.49,0,.89-.47.89-1.06s-.4-1.06-.89-1.06Z"/><path class="cls-2" d="M432.33,273.3h-1.84v1.31h-1.34v-1.34h-1.89v1.34h-1.35v-1.34h-1.89v3.02c0,.47.38.78.83.78h6.62c.44,0,.85-.36.86-.79v-2.98s0,0,0,0h0Z"/><path class="cls-2" d="M425.4,277.33l-.42,9.68,6.45-.02-.43-9.68-5.61.03"/><path id="cp1-11" class="cls-2" d="M433.28,281.82l-.2,5.22h6.19s-.17-5.22-.17-5.22h-5.82,0,0Z"/><path id="cp1-12" class="cls-2" d="M417.36,281.82l-.2,5.22h6.19s-.17-5.22-.17-5.22h-5.82,0,0Z"/><path id="cp2-11" class="cls-2" d="M440.24,278.04h-1.8v1.31h-1.32v-1.34h-1.84v1.34h-1.32v-1.34h-1.85s0,3.02,0,3.02c0,.47.37.78.8.78h6.48c.43,0,.84-.35.84-.79v-2.98s0,0,0,0h0Z"/><path id="cp2-12" class="cls-2" d="M424.32,278.04h-1.8v1.31h-1.32v-1.34h-1.84v1.34h-1.32v-1.34h-1.85s0,3.02,0,3.02c0,.47.37.78.8.78h6.48c.43,0,.84-.35.84-.79v-2.98s0,0,0,0h0Z"/><path class="cls-8" d="M428.84,280.39c.04-.94-1.31-.95-1.3,0v2.3h1.3v-2.3"/><path id="cp3-11" class="cls-8" d="M436.83,283.74c0-.91-1.26-.93-1.24,0v1.78h1.24v-1.78"/><path id="cp3-12" class="cls-8" d="M420.87,283.74c0-.91-1.26-.93-1.24,0v1.78h1.24v-1.78"/></g><g id="castle-7"><path class="cls-3" d="M407.31,373.45c5.73-5.98,2.98-11.53,2.98-11.58-.01-.05-5.97-3.02-11.8,2.8l8.82,8.78"/><path class="cls-1" d="M418.06,369.92l-6.03,7.43-4.39-4.4c5.55-5.59,2.32-10.7,2.2-10.78-.09-.1-5.45-3.02-10.82,2.09l-4.39-4.42,7.6-5.96,15.84,16.03h0s0,0,0,0Z"/><path class="cls-1" d="M412.29,377.67l-17.91-18.04c-.38-.38-1.06-.32-1.52.14s-.52,1.14-.15,1.52l17.91,18.04c.38.38,1.06.32,1.52-.13s.53-1.14.15-1.52Z"/><path class="cls-1" d="M405.81,371.09c3.51-3.52,2.13-6.9,2.12-6.91,0,0-3.5-1.47-7.02,1.98l4.9,4.93"/><path class="cls-1" d="M421.5,367.77l-17.17-17.29c-.36-.36-1-.33-1.41.08s-.45,1.04-.09,1.41l17.17,17.29c.36.36.99.33,1.41-.08s.45-1.04.09-1.41Z"/><path class="cls-1" d="M419.63,368.91l-16.42-16.54c-.35-.35-.97-.3-1.38.11s-.47,1.03-.12,1.38l16.42,16.54c.35.35.97.3,1.38-.11s.47-1.03.12-1.38Z"/><path class="cls-1" d="M425.6,352.37l-1.3-1.3-.93.92-.95-.95.95-.94-1.33-1.33-.94.94-.95-.96.95-.94-1.33-1.34-2.14,2.13c-.34.33-.29.82.03,1.13l4.66,4.7c.31.32.85.36,1.16.05l2.12-2.1h0s0,0,0,0Z"/><path class="cls-1" d="M417.85,350.3l-7.16,6.52,4.56,4.56,6.57-7.12-3.97-3.96"/><path id="cp1-13" class="cls-1" d="M420.22,359.04l-3.84,3.54,4.36,4.39,3.58-3.8-4.1-4.13h0s0,0,0,0Z"/><path id="cp1-14" class="cls-1" d="M409,347.75l-3.84,3.54,4.36,4.39,3.58-3.8-4.1-4.13h0s0,0,0,0Z"/><path id="cp2-13" class="cls-1" d="M427.8,361.32l-1.27-1.27-.93.92-.93-.93.95-.94-1.3-1.3-.95.94-.93-.94.95-.94-1.3-1.31-2.14,2.13c-.33.33-.29.81.01,1.12l4.56,4.59c.31.31.84.35,1.15.04l2.12-2.1h0s0,0,0,0Z"/><path id="cp2-14" class="cls-1" d="M416.59,350.03l-1.27-1.27-.93.92-.93-.93.95-.94-1.3-1.3-.95.94-.93-.94.95-.94-1.3-1.31-2.14,2.13c-.33.33-.29.81.01,1.12l4.56,4.59c.31.31.84.35,1.15.04l2.12-2.1h0s0,0,0,0Z"/><path class="cls-8" d="M418.1,354.89c.7-.63-.25-1.6-.92-.92l-1.64,1.62.92.92,1.63-1.62"/><path id="cp3-13" class="cls-8" d="M421.36,362.92c.65-.64-.23-1.54-.87-.88l-1.26,1.25.87.88,1.26-1.25"/><path id="cp3-14" class="cls-8" d="M410.11,351.59c.65-.64-.23-1.54-.87-.88l-1.26,1.25.87.88,1.26-1.25"/></g></g><g id="quina"><path class="cls-11" d="M348.95,303.61h0c0,3.33,1.27,6.35,3.32,8.54,2.05,2.2,4.87,3.57,7.95,3.57s5.92-1.36,7.95-3.55c2.04-2.19,3.3-5.21,3.3-8.54v-16.15l-22.49-.02-.04,16.15"/><circle class="cls-10" cx="354.11" cy="293.6" r="2.23"/><circle class="cls-10" cx="366.59" cy="293.61" r="2.23"/><circle class="cls-10" cx="360.34" cy="299.6" r="2.23"/><circle class="cls-10" cx="354.11" cy="305.87" r="2.23"/><circle class="cls-10" cx="366.57" cy="305.86" r="2.23"/></g><g id="quina-2"><path class="cls-11" d="M348.95,264.59h0c0,3.33,1.27,6.35,3.32,8.54,2.05,2.2,4.87,3.57,7.95,3.57s5.92-1.36,7.95-3.55c2.04-2.19,3.3-5.21,3.3-8.54v-16.15l-22.49-.02-.04,16.15"/><circle class="cls-10" cx="354.11" cy="254.58" r="2.23"/><circle class="cls-10" cx="366.59" cy="254.59" r="2.23"/><circle class="cls-10" cx="360.34" cy="260.58" r="2.23"/><circle class="cls-10" cx="354.11" cy="266.85" r="2.23"/><circle class="cls-10" cx="366.57" cy="266.83" r="2.23"/></g><g id="quina-3"><path class="cls-11" d="M317.76,303.61h0c0,3.33,1.27,6.35,3.32,8.54,2.05,2.2,4.87,3.57,7.95,3.57s5.92-1.36,7.95-3.55c2.04-2.19,3.3-5.21,3.3-8.54v-16.15l-22.49-.02-.04,16.15"/><circle class="cls-10" cx="322.91" cy="293.6" r="2.23"/><circle class="cls-10" cx="335.39" cy="293.61" r="2.23"/><circle class="cls-10" cx="329.14" cy="299.6" r="2.23"/><circle class="cls-10" cx="322.91" cy="305.87" r="2.23"/><circle class="cls-10" cx="335.38" cy="305.86" r="2.23"/></g><g id="quina-4"><path class="cls-11" d="M380.07,303.61h0c0,3.33,1.27,6.35,3.32,8.54,2.05,2.2,4.87,3.57,7.95,3.57s5.92-1.36,7.95-3.55c2.04-2.19,3.3-5.21,3.3-8.54v-16.15l-22.49-.02-.04,16.15"/><circle class="cls-10" cx="385.23" cy="293.6" r="2.23"/><circle class="cls-10" cx="397.71" cy="293.61" r="2.23"/><circle class="cls-10" cx="391.46" cy="299.6" r="2.23"/><circle class="cls-10" cx="385.23" cy="305.87" r="2.23"/><circle class="cls-10" cx="397.69" cy="305.86" r="2.23"/></g><g id="quina-5"><path class="cls-11" d="M348.95,342.29h0c0,3.33,1.27,6.35,3.32,8.54,2.05,2.2,4.87,3.57,7.95,3.57s5.92-1.36,7.95-3.55c2.04-2.19,3.3-5.21,3.3-8.54v-16.15l-22.49-.02-.04,16.15"/><circle class="cls-10" cx="354.11" cy="332.28" r="2.23"/><circle class="cls-10" cx="366.59" cy="332.29" r="2.23"/><circle class="cls-10" cx="360.34" cy="338.28" r="2.23"/><circle class="cls-10" cx="354.11" cy="344.55" r="2.23"/><circle class="cls-10" cx="366.57" cy="344.53" r="2.23"/></g></svg>