<?xml version="1.0" encoding="UTF-8"?><svg id="_色修正" xmlns="http://www.w3.org/2000/svg" xmlns:xlink="http://www.w3.org/1999/xlink" viewBox="0 0 900 600"><defs><style>.cls-1{fill:url(#_名称未設定グラデーション_23-3);}.cls-1,.cls-2,.cls-3,.cls-4,.cls-5,.cls-6,.cls-7,.cls-8,.cls-9,.cls-10,.cls-11,.cls-12,.cls-13,.cls-14,.cls-15,.cls-16,.cls-17,.cls-18,.cls-19,.cls-20,.cls-21,.cls-22,.cls-23,.cls-24,.cls-25,.cls-26,.cls-27,.cls-28,.cls-29,.cls-30,.cls-31,.cls-32,.cls-33,.cls-34,.cls-35,.cls-36,.cls-37,.cls-38,.cls-39,.cls-40,.cls-41,.cls-42,.cls-43,.cls-44,.cls-45,.cls-46,.cls-47,.cls-48{stroke-width:0px;}.cls-2{fill:url(#_名称未設定グラデーション_23-4);}.cls-3{fill:url(#_名称未設定グラデーション_23-5);}.cls-4{fill:url(#_名称未設定グラデーション_23-2);}.cls-5{fill:url(#_名称未設定グラデーション_22-9);}.cls-6{fill:url(#_名称未設定グラデーション_22-6);}.cls-7{fill:url(#_名称未設定グラデーション_22-3);}.cls-8{fill:url(#_名称未設定グラデーション_22-4);}.cls-9{fill:url(#_名称未設定グラデーション_22-8);}.cls-10{fill:url(#_名称未設定グラデーション_22-5);}.cls-11{fill:url(#_名称未設定グラデーション_22-7);}.cls-12{fill:url(#_名称未設定グラデーション_22-2);}.cls-49{clip-path:url(#clippath);}.cls-13{fill:none;}.cls-14{fill:url(#_名称未設定グラデーション_25);}.cls-15{fill:url(#_名称未設定グラデーション_22);}.cls-16{fill:url(#_名称未設定グラデーション_24);}.cls-17{fill:url(#_名称未設定グラデーション_23);}.cls-50{stroke-width:.14px;}.cls-50,.cls-51,.cls-52,.cls-53,.cls-54,.cls-55,.cls-56,.cls-57,.cls-58,.cls-59,.cls-60,.cls-61,.cls-62,.cls-63,.cls-64,.cls-65,.cls-66,.cls-67,.cls-68,.cls-69,.cls-70,.cls-71,.cls-72,.cls-73,.cls-74,.cls-75,.cls-76{fill:#29b3d9;isolation:isolate;opacity:.62;stroke:#29b3d9;}.cls-51{stroke-miterlimit:4;stroke-width:.14px;}.cls-52{stroke-miterlimit:4;stroke-width:.14px;}.cls-53{stroke-miterlimit:4;stroke-width:.14px;}.cls-54{stroke-miterlimit:4;stroke-width:.14px;}.cls-55{stroke-miterlimit:4;stroke-width:.14px;}.cls-56{stroke-miterlimit:4;stroke-width:.14px;}.cls-57{stroke-miterlimit:4;stroke-width:.14px;}.cls-58{stroke-miterlimit:4;stroke-width:.14px;}.cls-59{stroke-miterlimit:4;stroke-width:.14px;}.cls-60{stroke-miterlimit:4;stroke-width:.14px;}.cls-61{stroke-miterlimit:4;stroke-width:.14px;}.cls-62{stroke-miterlimit:4;stroke-width:.14px;}.cls-18{fill:url(#_名称未設定グラデーション_22-11);}.cls-19{fill:url(#_名称未設定グラデーション_22-20);}.cls-20{fill:url(#_名称未設定グラデーション_22-17);}.cls-21{fill:url(#_名称未設定グラデーション_22-16);}.cls-22{fill:url(#_名称未設定グラデーション_22-15);}.cls-23{fill:url(#_名称未設定グラデーション_22-14);}.cls-24{fill:url(#_名称未設定グラデーション_22-18);}.cls-25{fill:url(#_名称未設定グラデーション_22-19);}.cls-26{fill:url(#_名称未設定グラデーション_22-13);}.cls-27{fill:url(#_名称未設定グラデーション_22-12);}.cls-28{fill:url(#_名称未設定グラデーション_22-10);}.cls-29{fill:#761c77;}.cls-30{fill:#4e070c;}.cls-31{fill:#2cbbea;}.cls-32{fill:#1c50a1;}.cls-33{fill:#16499c;}.cls-34{fill:#e2db32;}.cls-35{fill:#bcc12f;}.cls-36{fill:#c09e0e;}.cls-37{fill:#c2c62b;}.cls-38{fill:#90be2d;}.cls-39{fill:#8db237;}.cls-40{fill:#96c03a;}.cls-41{fill:#861c21;}.cls-42{fill:#f0ea3b;}.cls-43{fill:#fff;}.cls-44{fill:#e61f17;}.cls-45{fill:#e7403c;}.cls-46{fill:#e73530;}.cls-47{fill:#eb6618;}.cls-48{fill:#69b72d;}.cls-63{stroke-miterlimit:4;stroke-width:.14px;}.cls-64{stroke-miterlimit:4;stroke-width:.14px;}.cls-65{stroke-miterlimit:4;stroke-width:.14px;}.cls-66{stroke-miterlimit:4;stroke-width:.14px;}.cls-67{stroke-miterlimit:4;stroke-width:.14px;}.cls-68{stroke-miterlimit:4;stroke-width:.14px;}.cls-69{stroke-miterlimit:4;stroke-width:.14px;}.cls-70{stroke-miterlimit:4;stroke-width:.14px;}.cls-71{stroke-miterlimit:4;stroke-width:.14px;}.cls-72{stroke-miterlimit:4;stroke-width:.14px;}.cls-73{stroke-miterlimit:4;stroke-width:.14px;}.cls-74{stroke-miterlimit:4;stroke-width:.14px;}.cls-75{stroke-miterlimit:4;stroke-width:.14px;}.cls-76{stroke-miterlimit:4;stroke-width:.14px;}</style><clipPath id="clippath"><polygon class="cls-13" points="449.21 223.46 381.94 339.97 516.48 339.97 449.21 223.46"/></clipPath><linearGradient id="_名称未設定グラデーション_25" x1="448.64" y1="-1089.8" x2="450.64" y2="-1083.85" gradientTransform="translate(0 -799.89) scale(1 -1)" gradientUnits="userSpaceOnUse"><stop offset="0" stop-color="#4e070c"/><stop offset=".3" stop-color="#821a1f"/><stop offset="1" stop-color="#9e1f24"/></linearGradient><linearGradient id="_名称未設定グラデーション_24" x1="448.54" y1="-1091.16" x2="450.11" y2="-1087.02" gradientTransform="translate(0 -799.89) scale(1 -1)" gradientUnits="userSpaceOnUse"><stop offset="0" stop-color="#e73530"/><stop offset="1" stop-color="#e61f17"/></linearGradient><linearGradient id="_名称未設定グラデーション_22" x1="390.61" y1="-1124.36" x2="591.15" y2="-1124.36" gradientTransform="translate(0 -799.89) scale(1 -1)" gradientUnits="userSpaceOnUse"><stop offset="0" stop-color="#17274b"/><stop offset=".5" stop-color="#004299"/><stop offset="1" stop-color="#17274b"/></linearGradient><linearGradient id="_名称未設定グラデーション_22-2" y1="-1124.29" y2="-1124.29" gradientTransform="translate(0 -801) scale(1 -1)" xlink:href="#_名称未設定グラデーション_22"/><linearGradient id="_名称未設定グラデーション_22-3" y1="-1124.23" y2="-1124.23" gradientTransform="translate(0 -802.12) scale(1 -1)" xlink:href="#_名称未設定グラデーション_22"/><linearGradient id="_名称未設定グラデーション_22-4" y1="-1124.17" y2="-1124.17" gradientTransform="translate(0 -803.23) scale(1 -1)" xlink:href="#_名称未設定グラデーション_22"/><linearGradient id="_名称未設定グラデーション_22-5" y1="-1124.11" y2="-1124.11" gradientTransform="translate(0 -804.35) scale(1 -1)" xlink:href="#_名称未設定グラデーション_22"/><linearGradient id="_名称未設定グラデーション_22-6" y1="-1124.04" y2="-1124.04" gradientTransform="translate(0 -805.46) scale(1 -1)" xlink:href="#_名称未設定グラデーション_22"/><linearGradient id="_名称未設定グラデーション_22-7" y1="-1123.98" y2="-1123.98" gradientTransform="translate(0 -806.58) scale(1 -1)" xlink:href="#_名称未設定グラデーション_22"/><linearGradient id="_名称未設定グラデーション_22-8" y1="-1123.92" y2="-1123.92" gradientTransform="translate(0 -807.69) scale(1 -1)" xlink:href="#_名称未設定グラデーション_22"/><linearGradient id="_名称未設定グラデーション_22-9" y1="-1123.86" y2="-1123.86" gradientTransform="translate(0 -808.81) scale(1 -1)" xlink:href="#_名称未設定グラデーション_22"/><linearGradient id="_名称未設定グラデーション_22-10" x1="390.61" y1="-1111.68" x2="591.15" y2="-1111.68" xlink:href="#_名称未設定グラデーション_22"/><linearGradient id="_名称未設定グラデーション_23" x1="479.28" y1="-1113.47" x2="479.28" y2="-1119.74" gradientTransform="translate(0 -799.89) scale(1 -1)" gradientUnits="userSpaceOnUse"><stop offset="0" stop-color="#e9e854"/><stop offset="1" stop-color="#90be2d"/></linearGradient><linearGradient id="_名称未設定グラデーション_23-2" x1="478.42" x2="478.42" gradientTransform="translate(-15.34 -799.89) scale(1 -1)" xlink:href="#_名称未設定グラデーション_23"/><linearGradient id="_名称未設定グラデーション_23-3" x1="449.19" y1="-1113.47" x2="449.19" y2="-1119.74" xlink:href="#_名称未設定グラデーション_23"/><linearGradient id="_名称未設定グラデーション_23-4" x1="428.85" x2="428.85" xlink:href="#_名称未設定グラデーション_23"/><linearGradient id="_名称未設定グラデーション_23-5" x1="427.99" x2="427.99" gradientTransform="translate(-15.43 -799.89) scale(1 -1)" xlink:href="#_名称未設定グラデーション_23"/><linearGradient id="_名称未設定グラデーション_22-11" x1="-78.79" y1="-1128.59" x2="977.21" y2="-1128.59" xlink:href="#_名称未設定グラデーション_22"/><linearGradient id="_名称未設定グラデーション_22-12" x1="-78.79" y1="-1138.59" x2="977.21" y2="-1138.59" xlink:href="#_名称未設定グラデーション_22"/><linearGradient id="_名称未設定グラデーション_22-13" x1="-78.79" y1="-1138.52" x2="977.21" y2="-1138.52" gradientTransform="translate(0 -801.18) scale(1 -1)" xlink:href="#_名称未設定グラデーション_22"/><linearGradient id="_名称未設定グラデーション_22-14" x1="-78.79" y1="-1138.45" x2="977.21" y2="-1138.45" gradientTransform="translate(0 -802.46) scale(1 -1)" xlink:href="#_名称未設定グラデーション_22"/><linearGradient id="_名称未設定グラデーション_22-15" x1="-78.79" y1="-1138.38" x2="977.21" y2="-1138.38" gradientTransform="translate(0 -803.76) scale(1 -1)" xlink:href="#_名称未設定グラデーション_22"/><linearGradient id="_名称未設定グラデーション_22-16" x1="-78.79" y1="-1138.3" x2="977.21" y2="-1138.3" gradientTransform="translate(0 -805.05) scale(1 -1)" xlink:href="#_名称未設定グラデーション_22"/><linearGradient id="_名称未設定グラデーション_22-17" x1="-78.79" y1="-1138.23" x2="977.21" y2="-1138.23" gradientTransform="translate(0 -806.33) scale(1 -1)" xlink:href="#_名称未設定グラデーション_22"/><linearGradient id="_名称未設定グラデーション_22-18" x1="-78.79" y1="-1138.16" x2="977.21" y2="-1138.16" gradientTransform="translate(0 -807.62) scale(1 -1)" xlink:href="#_名称未設定グラデーション_22"/><linearGradient id="_名称未設定グラデーション_22-19" x1="-78.79" y1="-1138.09" x2="977.21" y2="-1138.09" gradientTransform="translate(0 -808.91) scale(1 -1)" xlink:href="#_名称未設定グラデーション_22"/><linearGradient id="_名称未設定グラデーション_22-20" x1="-78.79" y1="-1138.01" x2="977.21" y2="-1138.01" gradientTransform="translate(0 -810.19) scale(1 -1)" xlink:href="#_名称未設定グラデーション_22"/></defs><rect class="cls-32" y="0" width="900" height="600"/><rect class="cls-43" y="200" width="900" height="200"/><path class="cls-36" d="M354.17,300.5l10.54.7.1-1.54-4.14-.28.32-5.08,4.39-3.19.13-1.95-4.63,3.36c-.16-1.1-.76-2.22-1.86-2.61-.96-.35-2.15-.41-2.98.28-1.06.78-1.25,2.17-1.39,3.39l-.48,6.9h0ZM355.78,299.06l.37-5.19c.13-.85.29-1.84,1.03-2.38.68-.45,1.67-.11,1.95.65.55,1.32.31,2.77.24,4.15l-.2,3-3.39-.23h0ZM355.54,284.32l10.28,2.4,2.34-10.01-1.46-.34-1.99,8.51-3.13-.73,1.79-7.67-1.45-.34-1.79,7.67-2.77-.65,1.91-8.19-1.47-.34-2.26,9.69h0ZM359.25,270.51l9.97,3.47.51-1.46-3.92-1.36,1.54-4.52c.34-1.24.6-2.69-.13-3.85-.59-.85-1.65-1.4-2.69-1.37-1.15.05-2.09.89-2.6,1.87-.75,1.42-1.18,2.98-1.73,4.48l-.95,2.74h0ZM361.18,269.55l1.59-4.49c.36-.79.8-1.73,1.71-1.98.75-.17,1.53.4,1.6,1.17.18,1.41-.43,2.74-.87,4.05l-.82,2.37-3.21-1.12ZM364.76,257.74l5.64,3.28c1.07.57,2.42.9,3.53.26,1.52-.84,2.47-2.4,3.22-3.92.59-1.28,1.02-2.86.27-4.17-.81-1.3-2.28-1.9-3.53-2.68l-3.65-2.14-.78,1.32,5.37,3.15c.85.52,1.56,1.46,1.41,2.5-.17,1.24-.88,2.33-1.59,3.34-.59.81-1.57,1.47-2.61,1.25-1.09-.21-1.97-.92-2.92-1.43l-3.59-2.1-.77,1.33h0ZM372.36,245.31l8.39,6.42,3.91-5.09c.75-1.08,1.44-2.48.94-3.81-.46-1.05-1.55-1.87-2.71-1.92-.52-.07-1.21.32-1.49.5.3-1.13-.62-2.18-1.66-2.48-1.25-.44-2.51.36-3.34,1.24-.97,1.06-1.78,2.25-2.67,3.37l-1.35,1.77h0ZM374.49,244.99l2.94-3.78c.48-.53,1.25-1.14,1.99-.74.68.29.84,1.15.52,1.76-.51,1.1-1.36,1.99-2.06,2.96l-1.15,1.51-2.23-1.71h0ZM377.91,247.61l3.05-3.91c.55-.57,1.24-1.3,2.11-1.13.74.17,1.29.98,1.03,1.73-.42,1.38-1.45,2.44-2.29,3.59l-1.31,1.71-2.59-1.98h0ZM381.87,234.11l7.25,7.68,6.21-5.87-1.03-1.09-4.97,4.69-.13.12-.09-.1-6.13-6.49-1.12,1.05ZM391.17,225.97l6.44,8.37,1.26-.97-6.44-8.37-1.26.97ZM400.63,219.55c-1.04.65-1.88,1.41-2.53,2.3-.65.89-.99,1.81-1.04,2.77s.21,1.89.77,2.81c.51.82,1.23,1.5,2.09,1.95.87.46,1.8.63,2.83.52s2.17-.56,3.45-1.36c1.23-.77,2.1-1.65,2.64-2.67.51-.95.67-2.06.44-3.11l-1.46.57c.38,2.11-.98,3.12-2.5,4.09-2.39,1.45-4.71,1.35-6.13-.83-1.48-2.46.14-4.49,2.17-5.81,1.44-.9,2.86-1.51,4.21-.65l1.14-1.02c-.79-.54-1.68-.79-2.7-.74-1.07.06-2.18.45-3.37,1.19h0ZM413.11,213.32l-1.11,11.83,1.64-.66.33-3.67h0s5.34-2.16,5.34-2.16l2.78,2.41,1.64-.66-9-7.76-1.65.66h0ZM414.55,214.54l3.51,3.04-3.93,1.59.42-4.63h0ZM436.25,206.8l.66,10.54,5.72-.37c1.5-.17,3.1-.56,4.13-1.75,1.32-1.46,1.51-3.65.93-5.48-.49-1.61-1.93-2.82-3.56-3.13-1.61-.31-3.25-.06-4.87,0l-3,.19h0ZM437.88,208.2l4.55-.24c.87-.03,1.72.23,2.42.74,1.06.72,1.68,2.02,1.54,3.3-.08,1.47-1.16,2.82-2.58,3.19-.82.21-1.66.27-2.5.36l-2.95.18-.47-7.54h0ZM450.97,206.17l-.6,10.54,10.26.59.08-1.5-8.73-.5.18-3.21,7.87.45.08-1.49-7.87-.45.16-2.84,8.4.48.09-1.5-9.93-.57h0ZM478.54,210.57l-3.82,9.85,1.36.53,3.03-7.81.16-.41.17.45,3.64,10.47,1.78.69,3.82-9.85-1.36-.53-3.03,7.8-.15.4-.17-.45-3.65-10.47-1.78-.69ZM492.73,216.66l-4.8,9.41-1.41-.72,4.8-9.41,1.41.72ZM500.69,221.33c-1.03-.68-2.07-1.12-3.14-1.34s-2.06-.15-2.95.21-1.64.98-2.23,1.87c-.54.81-.85,1.74-.9,2.71-.06.98.17,1.9.71,2.78.53.88,1.42,1.74,2.68,2.57,1.21.8,2.38,1.22,3.52,1.29,1.1.06,2.1-.24,3.01-.9l-1.13-1.09c-1.76,1.23-3.25.41-4.76-.57-2.31-1.56-3.19-3.72-1.8-5.92,1.62-2.37,4.14-1.75,6.18-.45,1.42.93,2.57,1.97,2.35,3.55l1.4.61c.16-.94.02-1.86-.46-2.76-.5-.95-1.32-1.8-2.49-2.56h0ZM510.75,228.92l-11.04,4.4,1.34,1.16,3.42-1.37h0s4.35,3.78,4.35,3.78l-.88,3.58,1.34,1.16,2.81-11.55-1.34-1.16h0ZM510.33,230.75l-1.11,4.51-3.2-2.78,4.31-1.73h0ZM518.72,236.25l-8.15,6.72.98,1.19,3.2-2.64,3.25,3.91-1.01,5.33,1.24,1.51,1.06-5.63c.91.75,2.25,1.12,3.34.53.94-.44,1.76-1.3,1.81-2.38.11-1.46-.92-2.64-1.76-3.72l-3.98-4.83ZM518.54,238.4l3.43,4.22c.5.75,1.13,1.8.55,2.67-.48.75-1.52.68-2.15.2-1.29-.87-2.15-2.2-3.16-3.36l-1.29-1.57,2.62-2.16h0ZM531.08,253.06l-11.87.54.88,1.54,3.68-.18h0s2.87,5,2.87,5l-2,3.09.88,1.54,6.44-9.99-.88-1.54h0ZM530.08,254.66l-2.52,3.9-2.11-3.67,4.64-.22h0ZM537.85,267.04c-.66-1.79-1.7-3.63-3.46-4.52-1.96-.99-4.57-.51-5.96,1.22-1.21,1.44-1.27,3.46-.95,5.23.38,2.03,1.31,3.95,2.71,5.48l-.79.28.51,1.41,4.95-1.78-1.92-5.34-1.14.41,1.42,3.94-1.68.6c-1.48-1.27-2.3-3.15-2.73-5.01-.32-1.4-.33-3.08.73-4.18,1.22-1.27,3.38-1.66,4.84-.58,1.44,1.06,2.26,2.77,2.67,4.47.28,1.12.24,2.45-.61,3.32-.24.18.14.43.2.64l.4.67c.9-.71,1.43-1.8,1.42-2.95.03-1.12-.22-2.24-.6-3.29h0ZM540.89,275.28l-5.91,1.15c-1.1.21-1.92.56-2.46,1.02s-.9,1.11-1.07,1.98c-.17.86-.14,1.9.1,3.18,0,.01,0,.02,0,.03.25,1.27.62,2.25,1.1,2.99.48.74,1.05,1.21,1.73,1.43.68.22,1.57.24,2.67.02l5.91-1.15-.29-1.51-5.76,1.12c-2.59.5-3.46-.86-3.9-3.19v-.03c-.47-2.33-.17-3.91,2.42-4.42l5.76-1.12-.29-1.51h0ZM544.12,293.26l-10.93-4.67.13,1.77,3.39,1.44h0s.42,5.75.42,5.75l-3.15,1.91.13,1.77,10.14-6.2-.13-1.77h0ZM542.53,294.26l-3.97,2.41-.31-4.23,4.27,1.82h0ZM362.36,320.57l-1.53.4,1.69,6.43,1.53-.4-1.69-6.43ZM536.1,320.57l1.53.4-1.69,6.43-1.53-.4,1.69-6.43ZM378.69,347.66l-11.81,1.36.99,1.47,3.66-.43h0s3.21,4.79,3.21,4.79l-1.79,3.22.99,1.47,5.73-10.41-.99-1.47ZM377.8,349.33l-2.25,4.06-2.36-3.52,4.61-.54ZM383.21,354.12l-7.53,7.04,1.01,1.08,6.34-5.93-3.33,9.16,1.15,1.23,9.09-2.76-6.23,5.82,1,1.07,7.53-7.04-1.53-1.63-9.24,2.76,3.46-8.94-1.73-1.86ZM394.17,365.3l-6.35,8.44,8.21,6.18.9-1.2-6.98-5.26,1.93-2.57,6.29,4.74.9-1.19-6.29-4.74,1.71-2.27,6.72,5.06.91-1.2-7.95-5.99h0ZM404.5,372.86l-4.97,9.32,1.36.73,1.96-3.66,4.5,2.38,1.1,5.32,1.73.92-1.16-5.61c1.13.34,2.5.18,3.29-.78.67-.74,1.12-1.79.8-2.79-.37-1.38-1.73-2.1-2.87-2.76l-5.72-3.06h0ZM405.15,374.92l4.78,2.6c.72.49,1.64,1.16,1.55,2.14-.08.86-1.01,1.32-1.8,1.14-1.54-.25-2.84-1.17-4.21-1.86l-1.92-1.02,1.6-3h0ZM416.43,379.1l-3.99,9.78,1.47.6,3.99-9.78-1.47-.6ZM425.95,382.39c-1.17-.39-2.29-.55-3.39-.48-1.09.07-2.02.39-2.8.97-.77.58-1.33,1.37-1.66,2.39-.31.92-.36,1.9-.16,2.85.2.96.66,1.79,1.4,2.51.74.71,1.82,1.31,3.25,1.78,1.38.46,2.61.56,3.74.33,1.08-.23,1.97-.78,2.68-1.65l-1.37-.76c-1.38,1.64-3.03,1.24-4.75.69-2.64-.91-4.04-2.76-3.28-5.25.95-2.71,3.54-2.76,5.85-2.04,1.61.53,2.99,1.23,3.19,2.82l1.51.23c-.08-.95-.46-1.8-1.16-2.55-.73-.78-1.74-1.39-3.07-1.83h0ZM436.57,384.76l-6.91,9.67,1.76.25,2.13-3h0l5.7.83,1.19,3.48,1.76.25-3.88-11.23-1.76-.25ZM437.21,386.54l1.51,4.39-4.2-.61,2.69-3.78h0ZM461.32,384.84c-1.21.23-2.26.64-3.19,1.24-.92.6-1.58,1.33-1.97,2.21-.39.88-.49,1.84-.28,2.9.18.95.61,1.84,1.25,2.57.64.74,1.5,1.27,2.45,1.5.99.26,2.23.25,3.71-.04,1.42-.27,2.55-.79,3.42-1.54.83-.73,1.34-1.64,1.53-2.75h-1.57c-.4,2.12-2.03,2.58-3.8,2.94-2.75.5-4.88-.43-5.43-2.98-.5-2.82,1.74-4.14,4.1-4.65,1.67-.32,3.21-.39,4.16.9l1.43-.54c-.54-.79-1.34-1.38-2.25-1.66-1.02-.33-2.2-.36-3.57-.1h0ZM468.38,383.59l3,10.12,9.85-2.92-.43-1.44-8.38,2.49-.91-3.08,7.55-2.24-.42-1.43-7.55,2.24-.81-2.73,8.07-2.39-.43-1.45-9.54,2.83ZM479.8,380l4.43,9.58,1.32-.61-3.7-7.99,10.23,4.71c.23.2.45.07.68-.06l1.33-.61-4.43-9.58-1.33.61,3.69,7.98-10.5-4.83-1.73.8h0ZM491.4,374.55l.83,1.26,3.77-2.48.14-.1.07.11,4.91,7.46,1.28-.84-4.91-7.46-.07-.11.15-.1,3.79-2.5-.83-1.26-9.13,6.01ZM502.02,367.28l7.16,7.77,1.14-1.05-2.82-3.05,3.73-3.46,5.38.72,1.44-1.33-5.68-.75c.7-.95,1-2.31.35-3.36-.49-.91-1.39-1.69-2.48-1.68-1.46-.03-2.58,1.07-3.61,1.96l-4.6,4.24h0ZM504.18,367.34l4.03-3.65c.72-.54,1.73-1.22,2.64-.7.77.43.76,1.48.31,2.14-.8,1.34-2.09,2.27-3.19,3.34l-1.49,1.37-2.3-2.5ZM514.31,354.98l4.72,10.91,1.12-1.37-1.47-3.38h0s3.65-4.46,3.65-4.46l3.6.78,1.12-1.37-11.63-2.47-1.12,1.37h0ZM516.16,355.35l4.54.97-2.69,3.28-1.86-4.26h0ZM518.91,349l8.86,5.74,4.65-7.17-1.26-.82-3.72,5.74-.1.15-.11-.07-7.49-4.86-.84,1.29Z"/><g class="cls-49"><path class="cls-43" d="M449.21,223.5l-33.24,57.59-16.28,28.2h99.05l-15.54-26.91-33.99-58.88h0Z"/><g id="d"><g id="c"><path class="cls-50" d="M449.21,223.5l-2.49,4.31,2.49,58.06,2.49-58.06-2.49-4.31Z"/><path class="cls-43" d="M449.21,277.43h-.14s.14,3.29.14,3.29l.14-3.29h-.14Z"/></g><g id="c-2"><path class="cls-69" d="M508.53,266.59l-4.87-1.04-54.45,20.31,55.98-15.57,3.33-3.7Z"/><path class="cls-43" d="M457.24,283.26l-.05-.13-3.08,1.15,3.17-.88-.04-.14Z"/></g><g id="c-3"><path class="cls-76" d="M485.87,336.32l-.52-4.95-36.14-45.51,32.11,48.43,4.55,2.02Z"/><path class="cls-43" d="M454.17,292.69l.11-.09-2.05-2.57,1.82,2.74.12-.08Z"/></g><g id="c-4"><path class="cls-76" d="M412.56,336.32l4.55-2.02,32.11-48.43-36.14,45.51-.52,4.95Z"/><path class="cls-43" d="M444.25,292.69l.12.08,1.82-2.74-2.05,2.57.11.09Z"/></g><g id="c-5"><path class="cls-69" d="M389.9,266.59l3.33,3.7,55.98,15.57-54.45-20.31-4.87,1.04Z"/><path class="cls-43" d="M441.19,283.26l-.04.14,3.17.88-3.08-1.15-.05.13Z"/></g></g><g id="d-2"><g id="c-6"><path class="cls-57" d="M457.89,224.11l-3.06,3.92-5.62,57.84,10.54-57.14-1.86-4.62Z"/><path class="cls-43" d="M450.39,277.51l-.14-.02-.32,3.27.6-3.23-.14-.02Z"/></g><g id="c-7"><path class="cls-66" d="M510.63,275.03l-4.68-1.7-56.74,12.53,57.61-7.63,3.81-3.2Z"/><path class="cls-43" d="M457.52,284.4l-.03-.14-3.21.71,3.26-.43-.02-.14Z"/></g><g id="c-8"><path class="cls-51" d="M478.49,340.93l.17-4.97-29.45-50.09,25.06,52.43,4.22,2.64Z"/><path class="cls-43" d="M453.18,293.32l.12-.07-1.67-2.83,1.42,2.97.13-.06Z"/></g><g id="c-9"><path class="cls-51" d="M405.89,330.73l4.78-1.37,38.54-43.49-42.12,40.03-1.2,4.83Z"/><path class="cls-43" d="M443.35,291.94l.1.1,2.18-2.46-2.38,2.26.1.1Z"/></g><g id="c-10"><path class="cls-66" d="M393.16,258.53l2.78,4.13,53.27,23.21-51.09-27.69-4.97.35Z"/><path class="cls-43" d="M441.63,282.17l-.06.13,3.01,1.31-2.89-1.57-.06.13Z"/></g></g><g id="d-3"><g id="c-11"><path class="cls-61" d="M466.4,225.91l-3.58,3.46-13.61,56.49,18.39-55.12-1.2-4.83Z"/><path class="cls-43" d="M451.54,277.75l-.14-.04-.77,3.2,1.04-3.12-.14-.04Z"/></g><g id="c-12"><path class="cls-71" d="M511.54,283.69l-4.39-2.34-57.93,4.51,58.11.46,4.22-2.64Z"/><path class="cls-43" d="M457.65,285.57v-.14s-3.29.26-3.29.26l3.29.03v-.14Z"/></g><g id="c-13"><path class="cls-59" d="M470.54,344.47l.86-4.9-22.2-53.7,17.52,55.41,3.81,3.2Z"/><path class="cls-43" d="M452.1,293.8l.13-.05-1.26-3.04.99,3.14.13-.05Z"/></g><g id="c-14"><path class="cls-59" d="M400.07,324.26l4.93-.69,44.22-37.7-47.28,33.78-1.86,4.62Z"/><path class="cls-43" d="M442.56,291.06l.09.11,2.5-2.13-2.68,1.91.08.11Z"/></g><g id="c-15"><path class="cls-71" d="M397.51,250.99l2.18,4.47,49.52,30.4-46.74-34.53-4.97-.35Z"/><path class="cls-43" d="M442.22,281.15l-.08.12,2.8,1.72-2.64-1.95-.08.12Z"/></g></g><g id="d-4"><g id="c-16"><path class="cls-53" d="M474.58,228.89l-4.03,2.93-21.34,54.05,25.89-52.02-.52-4.95Z"/><path class="cls-43" d="M452.65,278.15l-.13-.05-1.21,3.06,1.47-2.94-.13-.06Z"/></g><g id="c-17"><path class="cls-62" d="M511.24,292.38l-4.03-2.93-58-3.59,57.48,8.54,4.55-2.02Z"/><path class="cls-43" d="M457.61,286.75v-.14s-3.27-.2-3.27-.2l3.25.48.02-.14Z"/></g><g id="c-18"><path class="cls-52" d="M462.18,346.87l1.54-4.73-14.51-56.27,9.64,57.3,3.33,3.7Z"/><path class="cls-43" d="M450.97,294.12l.14-.03-.82-3.18.54,3.24.14-.03Z"/></g><g id="c-19"><path class="cls-52" d="M395.2,317.05h4.98s49.03-31.18,49.03-31.18l-51.52,26.87-2.49,4.31Z"/><path class="cls-43" d="M441.9,290.08l.07.12,2.77-1.77-2.92,1.52.07.12Z"/></g><g id="c-20"><path class="cls-62" d="M402.87,244.13l1.54,4.73,44.81,37-41.48-40.7-4.87-1.03Z"/><path class="cls-43" d="M442.94,280.22l-.09.11,2.54,2.09-2.35-2.3-.1.1Z"/></g></g><g id="d-5"><g id="c-21"><path class="cls-60" d="M482.26,232.97l-4.4,2.34-28.65,50.55,32.88-47.92.17-4.97Z"/><path class="cls-43" d="M453.69,278.71l-.12-.07-1.62,2.86,1.86-2.71-.12-.08Z"/></g><g id="c-22"><path class="cls-72" d="M509.73,300.95l-3.58-3.46-56.93-11.63,55.73,16.46,4.78-1.37Z"/><path class="cls-43" d="M457.4,287.91l.03-.14-3.22-.66,3.15.93.04-.14Z"/></g><g id="c-23"><path class="cls-56" d="M453.56,348.08l2.18-4.47-6.53-57.74,1.57,58.09,2.78,4.13Z"/><path class="cls-43" d="M449.8,294.28h.14s-.37-3.28-.37-3.28l.09,3.29h.14Z"/></g><g id="c-24"><path class="cls-56" d="M391.39,309.23l4.93.69,52.9-24.06-54.76,19.44-3.06,3.92Z"/><path class="cls-43" d="M441.39,289.03l.06.13,2.99-1.36-3.1,1.1.05.13Z"/></g><g id="c-25"><path class="cls-72" d="M409.12,238.09l.86,4.9,39.22,42.87-35.41-46.07-4.68-1.7Z"/><path class="cls-43" d="M443.79,279.4l-.11.09,2.22,2.43-2-2.61-.11.09Z"/></g></g><g id="d-6"><g id="c-26"><path class="cls-64" d="M489.3,238.09l-4.68,1.7-35.41,46.07,39.22-42.87.86-4.9Z"/><path class="cls-43" d="M454.64,279.4l-.11-.09-2,2.61,2.22-2.43-.11-.09Z"/></g><g id="c-27"><path class="cls-74" d="M507.04,309.23l-3.06-3.92-54.76-19.44,52.9,24.06,4.93-.69Z"/><path class="cls-43" d="M457.04,289.03l.05-.13-3.1-1.1,2.99,1.36.06-.13Z"/></g><g id="c-28"><path class="cls-73" d="M444.86,348.08l2.78-4.13,1.57-58.09-6.53,57.74,2.18,4.47Z"/><path class="cls-43" d="M448.62,294.28h.14s.09-3.28.09-3.28l-.37,3.27h.14Z"/></g><g id="c-29"><path class="cls-73" d="M388.7,300.95l4.78,1.37,55.73-16.46-56.93,11.63-3.58,3.46Z"/><path class="cls-43" d="M441.02,287.91l.04.14,3.15-.93-3.22.66.03.14Z"/></g><g id="c-30"><path class="cls-74" d="M416.16,232.97l.17,4.97,32.88,47.92-28.65-50.55-4.4-2.34Z"/><path class="cls-43" d="M444.74,278.71l-.12.08,1.86,2.71-1.62-2.86-.12.07Z"/></g></g><g id="d-7"><g id="c-31"><path class="cls-70" d="M495.56,244.13l-4.87,1.03-41.48,40.7,44.81-37,1.54-4.73Z"/><path class="cls-43" d="M455.49,280.22l-.1-.1-2.35,2.3,2.54-2.09-.09-.11Z"/></g><g id="c-32"><path class="cls-68" d="M503.22,317.05l-2.49-4.31-51.52-26.87,49.03,31.18h4.98Z"/><path class="cls-43" d="M456.52,290.08l.07-.12-2.92-1.52,2.77,1.77.07-.12Z"/></g><g id="c-33"><path class="cls-75" d="M436.25,346.87l3.33-3.7,9.64-57.3-14.51,56.27,1.54,4.73Z"/><path class="cls-43" d="M447.46,294.12l.14.03.54-3.24-.82,3.18.14.03Z"/></g><g id="c-34"><path class="cls-75" d="M387.19,292.38l4.55,2.02,57.48-8.54-58,3.59-4.03,2.93Z"/><path class="cls-43" d="M440.82,286.75l.02.14,3.25-.48-3.28.2v.14Z"/></g><g id="c-35"><path class="cls-68" d="M423.85,228.89l-.52,4.95,25.89,52.02-21.34-54.05-4.03-2.93Z"/><path class="cls-43" d="M445.78,278.15l-.13.06,1.47,2.94-1.21-3.06-.13.05Z"/></g></g><g id="d-8"><g id="c-36"><path class="cls-54" d="M500.92,250.99l-4.97.35-46.74,34.53,49.52-30.4,2.18-4.47Z"/><path class="cls-43" d="M456.21,281.15l-.08-.12-2.64,1.95,2.8-1.72-.08-.12Z"/></g><g id="c-37"><path class="cls-55" d="M498.36,324.26l-1.86-4.62-47.28-33.78,44.22,37.7,4.93.69Z"/><path class="cls-43" d="M455.86,291.06l.08-.11-2.68-1.91,2.5,2.13.09-.11Z"/></g><g id="c-38"><path class="cls-58" d="M427.88,344.47l3.81-3.2,17.52-55.41-22.2,53.7.86,4.9Z"/><path class="cls-43" d="M446.33,293.8l.13.05.99-3.14-1.26,3.04.13.05Z"/></g><g id="c-39"><path class="cls-58" d="M386.88,283.69l4.22,2.64,58.11-.46-57.93-4.51-4.39,2.34Z"/><path class="cls-43" d="M440.78,285.57v.14s3.29-.03,3.29-.03l-3.28-.26v.14Z"/></g><g id="c-40"><path class="cls-55" d="M432.02,225.91l-1.2,4.83,18.39,55.12-13.61-56.49-3.58-3.46Z"/><path class="cls-43" d="M446.89,277.75l-.14.04,1.04,3.12-.77-3.2-.14.04Z"/></g></g><g id="d-9"><g id="c-41"><path class="cls-67" d="M505.27,258.53l-4.97-.35-51.09,27.69,53.27-23.21,2.78-4.13Z"/><path class="cls-43" d="M456.8,282.17l-.06-.13-2.89,1.57,3.01-1.31-.06-.13Z"/></g><g id="c-42"><path class="cls-65" d="M492.54,330.73l-1.2-4.83-42.12-40.03,38.54,43.49,4.78,1.37Z"/><path class="cls-43" d="M455.08,291.94l.1-.1-2.38-2.26,2.18,2.46.1-.1Z"/></g><g id="c-43"><path class="cls-63" d="M419.93,340.93l4.22-2.64,25.06-52.43-29.45,50.09.17,4.97Z"/><path class="cls-43" d="M445.25,293.32l.13.06,1.42-2.97-1.67,2.83.12.07Z"/></g><g id="c-44"><path class="cls-63" d="M387.79,275.03l3.81,3.2,57.61,7.63-56.74-12.53-4.68,1.7Z"/><path class="cls-43" d="M440.9,284.4l-.02.14,3.26.43-3.21-.71-.03.14Z"/></g><g id="c-45"><path class="cls-65" d="M440.53,224.11l-1.86,4.62,10.54,57.14-5.62-57.84-3.06-3.92Z"/><path class="cls-43" d="M448.04,277.51l-.14.02.6,3.23-.32-3.27-.14.02Z"/></g></g><path class="cls-44" d="M449.21,265.14c-11.23-.02-22.09,4.01-30.59,11.35l-15.48,26.83c-.53,2.87-.8,5.79-.79,8.71h5.31c0-22.94,18.6-41.55,41.55-41.55s41.55,18.6,41.55,41.55h5.31c0-2.92-.26-5.84-.79-8.71l-15.48-26.83c-8.5-7.34-19.36-11.37-30.59-11.35Z"/><path class="cls-47" d="M449.21,266c-12.42,0-23.7,4.94-31.98,12.94l-12.7,22.01c-.9,3.63-1.35,7.35-1.35,11.09h4.49c0-22.94,18.6-41.55,41.55-41.55s41.55,18.6,41.55,41.55h4.49c0-3.83-.47-7.57-1.35-11.12l-12.7-21.98c-8.28-8-19.56-12.94-31.98-12.94h0Z"/><path class="cls-42" d="M449.21,266.86c-13.41,0-25.45,5.83-33.73,15.11l-9.21,15.94c-1.49,4.56-2.25,9.33-2.24,14.12h3.63c0-22.94,18.6-41.55,41.55-41.55s41.55,18.6,41.55,41.55h3.63c0-4.93-.78-9.68-2.24-14.12l-9.21-15.94c-8.27-9.28-20.31-15.11-33.73-15.11h0Z"/><path class="cls-48" d="M449.21,267.68c-15.36,0-28.9,7.83-36.86,19.7l-2.97,5.15c-2.98,6.07-4.53,12.74-4.52,19.5h2.81c0-22.94,18.6-41.55,41.55-41.55s41.55,18.6,41.55,41.55h2.81c0-6.75-1.55-13.41-4.52-19.47l-3-5.21c-7.96-11.86-21.48-19.67-36.83-19.67h0Z"/><path class="cls-31" d="M449.21,268.54c-24.02,0-43.49,19.47-43.49,43.49h1.95c0-22.94,18.6-41.55,41.55-41.55s41.55,18.6,41.55,41.55h1.95c0-24.02-19.47-43.49-43.49-43.49Z"/><path class="cls-33" d="M449.21,269.37c-23.56,0-42.64,19.11-42.64,42.67h1.42c0-22.77,18.45-41.22,41.22-41.22s41.22,18.45,41.22,41.22h1.45c0-23.56-19.11-42.67-42.67-42.67Z"/><path class="cls-29" d="M449.21,270.23c-23.09,0-41.81,18.72-41.81,41.81v.77h.85c0-.26,0-.52,0-.77,0-22.62,18.34-40.96,40.96-40.96s40.96,18.34,40.96,40.96v.77s.83,0,.83,0v-.77c0-23.09-18.71-41.81-41.79-41.81Z"/><path class="cls-30" d="M449.63,288.68c-.68-.13-1.29-.51-1.87-.64-.8.77-.88,1.54-.77,2.2.28.15.33.37.93.91.6.54.52.82.49,2.08-.02.53.07,1.67.61,1.78.58.12.98-.37,1.15-1.22.16-.83.44-1.28.74-1.8.32-1.96-.2-2.65-1.27-3.29h0Z"/><path class="cls-44" d="M446.22,283.81c-.63.02-1.61,1.07-2.05.5-.25-.33-.29-.95-.04-1.48.59-1.22,1.19-1.81,2.29-2.46,2.51-1.48,4.11-1,5.36,1.12,1.16,1.87,2.27,3.94,2.37,5.67.03.53.3,1.49-.16,1.96-1.42,1.47-4.85-1.52-6.86-1.04-.68.16-1.45.65-2.09.23-.5-.33-.08-1.05.29-1.37.65-.55,1.59-2.5,1.46-3.34-.07-.47-.08.19-.56.2h0Z"/><path class="cls-14" d="M445.97,282.78c-1.14.47-1.02,1.14-1.59,1.68.16.06.81.33,1.44-.32.27-.23.58-.31.71-.38-.32.23-.55.59-.72.72-.43.35-1.09,1.14-1.42,1.95-.32.81-.45,1.77-.4,1.88s.45.82,1.65,1.3c2.14.85,2.55,2.58,4.73,2.58,1.7,0,1.43-1.12,2.79-.88,1.18.2,1.81-.73.67-1.3-1.45-.49-4.32-.2-5.67.03-.44-4.31-.06-2.8-.16-4.65-.1-1.85-.66-1.96.08-3.46-.61.92-1.35.78-2.12.85h0Z"/><path class="cls-46" d="M450.2,279.88c-.04.24-.08.54-.06.63l.29,1.05c.12.35.17.61.25.98.09.38.42.53.73.76.39.3.09,1.1.33,1.13.19.03.52-1.13.52-1.32,0-.23,0-.46-.04-.68-.14-.31-.29-.62-.45-.92-.07-.12-.14-.24-.21-.36-.23-.34-.51-.65-.83-.91l-.06-.05-.27-.2-.2-.12h0Z"/><path class="cls-16" d="M450.53,287.9c-.76-.2-1.51-.57-2.15-.77-1.27-.38-2.62-1.2-3.55-.86-.33.15-.31.48-.41.96-.04.56-.63,1.39-.14,1.12.72-.4,2.63.77,3.27,1.17.3.19.94.55,1.14,1.08s.1,1.85.04,2.42c-.06.6.13,1.94.72,2.1.65.17,1.14-.34,1.39-1.3.24-.93.43-1.46.8-2.02s.8-.8,1.39-.91c.6-.11,1.46.49,1.46-.21,0-.46-.41-.9-.23-1.54.14-.5-.42-.4-.89-.6-1.09-.34-2.08-.44-2.84-.64h0Z"/><path class="cls-41" d="M447.48,289.49c-.35-.19-2.44-1.56-3.21-1.13-.24.14-.33-.02-.34-.27s.12-.63.19-.91.21-.84.54-1.12c.73-.61,2.4.61,3.28.94l-.47,2.5h0Z"/><path class="cls-45" d="M451.07,292.09c.97-1.69,1.59-1.48,2.76-1.45.39,0,.5-.35.42-.7-.29.66-1.76-.07-2.55.28-1.66.73-1.35,3.98-2.14,4.3.82.69,1.19-1.84,1.52-2.42h0Z"/><path class="cls-43" d="M399.69,309.28l-10.51,18.2h120.08l-10.51-18.2h-99.05Z"/><g id="i"><path id="h" class="cls-15" d="M396.1,323.77c-1.75,0-3.38.18-4.97.37l-.51.89,7.54-.75c3.48.08,6.63.88,10.33.88h4.78c3.7,0,6.85-.79,10.33-.88,3.48.08,6.66.88,10.35.88h4.78c3.7,0,6.84-.79,10.31-.88,3.48.08,6.62.88,10.32.88h4.8c3.7,0,6.85-.79,10.34-.88,3.48.08,6.63.88,10.33.88h4.78c3.69,0,6.84-.79,10.31-.88,2.69.07,5.2.55,7.91.76l-.54-.94-4.61-.34c-1.61-.02-3.21.03-4.8,0-3.7,0-6.84.79-10.31.88-3.48-.08-6.63-.88-10.33-.88-1.6-.02-3.2.03-4.78,0-3.7,0-6.86.79-10.33.88-3.48-.08-6.64-.88-10.33-.88-1.61-.02-3.21.03-4.8,0-3.7,0-6.84.79-10.31.88-3.48-.08-6.62-.88-10.32-.88-1.61-.02-3.2.03-4.78,0-3.7,0-6.85.79-10.33.88-3.48-.08-6.63-.88-10.33-.88-1.61-.02-3.21.03-4.8,0h0Z"/><path id="h-2" class="cls-12" d="M396.1,322.6c-1.75,0-3.38.18-4.97.37l-.51.89,7.54-.75c3.48.08,6.63.88,10.33.88h4.78c3.7,0,6.85-.79,10.33-.88,3.48.08,6.66.88,10.35.88h4.78c3.7,0,6.84-.79,10.31-.88,3.48.08,6.62.88,10.32.88h4.8c3.7,0,6.85-.79,10.34-.88,3.48.08,6.63.88,10.33.88h4.78c3.69,0,6.84-.79,10.31-.88,2.69.07,5.2.55,7.91.76l-.54-.94-4.61-.34c-1.61-.02-3.21.03-4.8,0-3.7,0-6.84.79-10.31.88-3.48-.08-6.63-.88-10.33-.88-1.6-.02-3.2.03-4.78,0-3.7,0-6.86.79-10.33.88-3.48-.08-6.64-.88-10.33-.88-1.61-.02-3.21.03-4.8,0-3.7,0-6.84.79-10.31.88-3.48-.08-6.62-.88-10.32-.88-1.61-.02-3.2.03-4.78,0-3.7,0-6.85.79-10.33.88-3.48-.08-6.63-.88-10.33-.88-1.61-.02-3.21.03-4.8,0h0Z"/><path id="h-3" class="cls-7" d="M396.1,321.42c-1.75,0-3.38.18-4.97.37l-.51.89,7.54-.75c3.48.08,6.63.88,10.33.88h4.78c3.7,0,6.85-.79,10.33-.88,3.48.08,6.66.88,10.35.88h4.78c3.7,0,6.84-.79,10.31-.88,3.48.08,6.62.88,10.32.88h4.8c3.7,0,6.85-.79,10.34-.88,3.48.08,6.63.88,10.33.88h4.78c3.69,0,6.84-.79,10.31-.88,2.69.07,5.2.55,7.91.76l-.54-.94-4.61-.34c-1.61-.02-3.21.03-4.8,0-3.7,0-6.84.79-10.31.88-3.48-.08-6.63-.88-10.33-.88-1.6-.02-3.2.03-4.78,0-3.7,0-6.86.79-10.33.88-3.48-.08-6.64-.88-10.33-.88-1.61-.02-3.21.03-4.8,0-3.7,0-6.84.79-10.31.88-3.48-.08-6.62-.88-10.32-.88-1.61-.02-3.2.03-4.78,0-3.7,0-6.85.79-10.33.88-3.48-.08-6.63-.88-10.33-.88-1.61-.02-3.21.03-4.8,0h0Z"/></g><g id="i-2"><path id="h-4" class="cls-8" d="M396.1,320.24c-1.75,0-3.38.18-4.97.37l-.51.89,7.54-.75c3.48.08,6.63.88,10.33.88h4.78c3.7,0,6.85-.79,10.33-.88,3.48.08,6.66.88,10.35.88h4.78c3.7,0,6.84-.79,10.31-.88,3.48.08,6.62.88,10.32.88h4.8c3.7,0,6.85-.79,10.34-.88,3.48.08,6.63.88,10.33.88h4.78c3.69,0,6.84-.79,10.31-.88,2.69.07,5.2.55,7.91.76l-.54-.94-4.61-.34c-1.61-.02-3.21.03-4.8,0-3.7,0-6.84.79-10.31.88-3.48-.08-6.63-.88-10.33-.88-1.6-.02-3.2.03-4.78,0-3.7,0-6.86.79-10.33.88-3.48-.08-6.64-.88-10.33-.88-1.61-.02-3.21.03-4.8,0-3.7,0-6.84.79-10.31.88-3.48-.08-6.62-.88-10.32-.88-1.61-.02-3.2.03-4.78,0-3.7,0-6.85.79-10.33.88-3.48-.08-6.63-.88-10.33-.88-1.61-.02-3.21.03-4.8,0h0Z"/><path id="h-5" class="cls-10" d="M396.1,319.07c-1.75,0-3.38.18-4.97.37l-.51.89,7.54-.75c3.48.08,6.63.88,10.33.88h4.78c3.7,0,6.85-.79,10.33-.88,3.48.08,6.66.88,10.35.88h4.78c3.7,0,6.84-.79,10.31-.88,3.48.08,6.62.88,10.32.88h4.8c3.7,0,6.85-.79,10.34-.88,3.48.08,6.63.88,10.33.88h4.78c3.69,0,6.84-.79,10.31-.88,2.69.07,5.2.55,7.91.76l-.54-.94-4.61-.34c-1.61-.02-3.21.03-4.8,0-3.7,0-6.84.79-10.31.88-3.48-.08-6.63-.88-10.33-.88-1.6-.02-3.2.03-4.78,0-3.7,0-6.86.79-10.33.88-3.48-.08-6.64-.88-10.33-.88-1.61-.02-3.21.03-4.8,0-3.7,0-6.84.79-10.31.88-3.48-.08-6.62-.88-10.32-.88-1.61-.02-3.2.03-4.78,0-3.7,0-6.85.79-10.33.88-3.48-.08-6.63-.88-10.33-.88-1.61-.02-3.21.03-4.8,0h0Z"/><path id="h-6" class="cls-6" d="M396.1,317.89c-1.75,0-3.38.18-4.97.37l-.51.89,7.54-.75c3.48.08,6.63.88,10.33.88h4.78c3.7,0,6.85-.79,10.33-.88,3.48.08,6.66.88,10.35.88h4.78c3.7,0,6.84-.79,10.31-.88,3.48.08,6.62.88,10.32.88h4.8c3.7,0,6.85-.79,10.34-.88,3.48.08,6.63.88,10.33.88h4.78c3.69,0,6.84-.79,10.31-.88,2.69.07,5.2.55,7.91.76l-.54-.94-4.61-.34c-1.61-.02-3.21.03-4.8,0-3.7,0-6.84.79-10.31.88-3.48-.08-6.63-.88-10.33-.88-1.6-.02-3.2.03-4.78,0-3.7,0-6.86.79-10.33.88-3.48-.08-6.64-.88-10.33-.88-1.61-.02-3.21.03-4.8,0-3.7,0-6.84.79-10.31.88-3.48-.08-6.62-.88-10.32-.88-1.61-.02-3.2.03-4.78,0-3.7,0-6.85.79-10.33.88-3.48-.08-6.63-.88-10.33-.88-1.61-.02-3.21.03-4.8,0h0Z"/></g><g id="i-3"><path id="h-7" class="cls-11" d="M396.1,316.71c-1.75,0-3.38.18-4.97.37l-.51.89,7.54-.75c3.48.08,6.63.88,10.33.88h4.78c3.7,0,6.85-.79,10.33-.88,3.48.08,6.66.88,10.35.88h4.78c3.7,0,6.84-.79,10.31-.88,3.48.08,6.62.88,10.32.88h4.8c3.7,0,6.85-.79,10.34-.88,3.48.08,6.63.88,10.33.88h4.78c3.69,0,6.84-.79,10.31-.88,2.69.07,5.2.55,7.91.76l-.54-.94-4.61-.34c-1.61-.02-3.21.03-4.8,0-3.7,0-6.84.79-10.31.88-3.48-.08-6.63-.88-10.33-.88-1.6-.02-3.2.03-4.78,0-3.7,0-6.86.79-10.33.88-3.48-.08-6.64-.88-10.33-.88-1.61-.02-3.21.03-4.8,0-3.7,0-6.84.79-10.31.88-3.48-.08-6.62-.88-10.32-.88-1.61-.02-3.2.03-4.78,0-3.7,0-6.85.79-10.33.88-3.48-.08-6.63-.88-10.33-.88-1.61-.02-3.21.03-4.8,0h0Z"/><path id="h-8" class="cls-9" d="M396.1,315.53c-1.75,0-3.38.18-4.97.37l-.51.89,7.54-.75c3.48.08,6.63.88,10.33.88h4.78c3.7,0,6.85-.79,10.33-.88,3.48.08,6.66.88,10.35.88h4.78c3.7,0,6.84-.79,10.31-.88,3.48.08,6.62.88,10.32.88h4.8c3.7,0,6.85-.79,10.34-.88,3.48.08,6.63.88,10.33.88h4.78c3.69,0,6.84-.79,10.31-.88,2.69.07,5.2.55,7.91.76l-.54-.94-4.61-.34c-1.61-.02-3.21.03-4.8,0-3.7,0-6.84.79-10.31.88-3.48-.08-6.63-.88-10.33-.88-1.6-.02-3.2.03-4.78,0-3.7,0-6.86.79-10.33.88-3.48-.08-6.64-.88-10.33-.88-1.61-.02-3.21.03-4.8,0-3.7,0-6.84.79-10.31.88-3.48-.08-6.62-.88-10.32-.88-1.61-.02-3.2.03-4.78,0-3.7,0-6.85.79-10.33.88-3.48-.08-6.63-.88-10.33-.88-1.61-.02-3.21.03-4.8,0h0Z"/><path id="h-9" class="cls-5" d="M396.1,314.35c-1.75,0-3.38.18-4.97.37l-.51.89,7.54-.75c3.48.08,6.63.88,10.33.88h4.78c3.7,0,6.85-.79,10.33-.88,3.48.08,6.66.88,10.35.88h4.78c3.7,0,6.84-.79,10.31-.88,3.48.08,6.62.88,10.32.88h4.8c3.7,0,6.85-.79,10.34-.88,3.48.08,6.63.88,10.33.88h4.78c3.69,0,6.84-.79,10.31-.88,2.69.07,5.2.55,7.91.76l-.54-.94-4.61-.34c-1.61-.02-3.21.03-4.8,0-3.7,0-6.84.79-10.31.88-3.48-.08-6.63-.88-10.33-.88-1.6-.02-3.2.03-4.78,0-3.7,0-6.86.79-10.33.88-3.48-.08-6.64-.88-10.33-.88-1.61-.02-3.21.03-4.8,0-3.7,0-6.84.79-10.31.88-3.48-.08-6.62-.88-10.32-.88-1.61-.02-3.2.03-4.78,0-3.7,0-6.85.79-10.33.88-3.48-.08-6.63-.88-10.33-.88-1.61-.02-3.21.03-4.8,0h0Z"/></g><path class="cls-28" d="M399.82,309.09l-.13.23h99.04l-.13-.23h-98.78ZM399.59,309.49l-.13.23h99.51l-.13-.23h-99.24ZM399.38,309.85l-.22.38h100.1l-.22-.38h-99.67,0ZM399.04,310.43l-.26.46h100.87l-.26-.46h-100.34,0ZM398.62,311.16l-.26.46h101.71l-.26-.46h-101.18ZM398.2,311.89l-.26.45h102.55l-.26-.45h-102.02ZM397.78,312.62l-.26.45h103.39l-.26-.45h-102.87ZM397.33,313.41l-.32.56h104.41l-.32-.56h-103.77ZM404.18,314.19c3.64.7,3.99,0,3.99,0h-3.99ZM490.25,314.19s.35.7,3.99,0h-3.99Z"/><g id="k"><path class="cls-17" d="M481.56,298.09c-1.8,0-2.36.91-2.36.91-2.89,11.17-12.47,22.53-23.87,22.53h-8.53v11.37h64.96l-6.53-11.57c-10.25-1.53-18.63-12.01-21.3-22.33,0,0-.57-.91-2.38-.91h0Z"/><path class="cls-38" d="M481.56,298.53c-.83,0-1.33.19-1.62.37-.28.17-.33.29-.34.3,0,0-.02.01-.02.02-1.48,5.62-4.6,11.27-8.8,15.53-4.24,4.3-9.58,7.21-15.42,7.21h-8.1v10.48h64.26l-6-10.62c-4.95-.65-9.48-3.34-13.16-7.07-4.21-4.26-7.32-9.91-8.8-15.53l-.02-.02s-.07-.11-.36-.29c-.3-.19-.8-.39-1.62-.39h0Z"/><path class="cls-34" d="M481.56,298.53c.16,0,.3.02.43.04v11.41c-.03,2.47-.88,4.46-2.12,6.8-.58,1.64-1.04,1.02-2.48,3.02-1.93.69-3.36.96-5.43,1.28-2.66.42-8.58.79-11.5.14,3.84-1.13,7.35-3.45,10.32-6.46.79-.8,1.54-1.65,2.25-2.53,1.18-1.49,2.25-3.07,3.18-4.73.37-.66.72-1.32,1.05-2,.49-1.02.93-2.06,1.32-3.1.13-.35.26-.7.38-1.05.23-.7.44-1.4.63-2.11,0,0,.02-.01.02-.02s.06-.13.34-.3c.19-.11.39-.2.61-.25h.02c.27-.07.59-.12,1-.12h0Z"/><path class="cls-35" d="M480.83,300.05c-.44,6.37-2.4,13.93-7.02,18.81-1.7,1.41-3.86,2.69-5.96,2.38,7.15-5.82,11.49-14.73,12.98-21.19Z"/><path class="cls-40" d="M475.08,311.01c-1.06,2.87-5.06,7.12-9.34,10.61-1.21.04-1.86.11-2.96.04,2.61-.24,8.68-5.37,12.3-10.65h0Z"/></g><g id="k-2"><path class="cls-4" d="M465.36,298.09c-1.8,0-2.36.91-2.36.91-2.89,11.17-12.47,22.53-23.87,22.53h-8.53v11.37h64.96l-6.53-11.57c-10.25-1.53-18.63-12.01-21.3-22.33,0,0-.57-.91-2.38-.91h0Z"/><path class="cls-38" d="M465.36,298.53c-.83,0-1.33.19-1.62.37-.28.17-.33.29-.34.3,0,0-.02.01-.02.02-1.48,5.62-4.6,11.27-8.8,15.53-4.24,4.3-9.58,7.21-15.42,7.21h-8.1v10.48h64.26l-6-10.62c-4.95-.65-9.48-3.34-13.16-7.07-4.21-4.26-7.32-9.91-8.8-15.53l-.02-.02s-.07-.11-.36-.29c-.3-.19-.8-.39-1.62-.39h0Z"/><path class="cls-34" d="M465.36,298.53c.16,0,.3.02.43.04v11.41c-.03,2.47-.88,4.46-2.12,6.8-.58,1.64-1.04,1.02-2.48,3.02-1.93.69-3.36.96-5.43,1.28-2.66.42-8.58.79-11.5.14,3.84-1.13,7.35-3.45,10.32-6.46.79-.8,1.54-1.65,2.25-2.53,1.18-1.49,2.25-3.07,3.18-4.73.37-.66.72-1.32,1.05-2,.49-1.02.93-2.06,1.32-3.1.13-.35.26-.7.38-1.05.23-.7.44-1.4.63-2.11,0,0,.02-.01.02-.02s.06-.13.34-.3c.19-.11.39-.2.61-.25h.02c.27-.07.59-.12,1-.12h0Z"/><path class="cls-35" d="M464.63,300.05c-.44,6.37-2.4,13.93-7.02,18.81-1.7,1.41-3.86,2.69-5.96,2.38,7.15-5.82,11.49-14.73,12.98-21.19Z"/><path class="cls-40" d="M458.88,311.01c-1.06,2.87-5.06,7.12-9.34,10.61-1.21.04-1.86.11-2.96.04,2.61-.24,8.68-5.37,12.3-10.65h0Z"/></g><path class="cls-1" d="M451.55,299.01c2.89,11.17,12.45,22.53,23.85,22.53h8.54v11.37h-69.5l-.02-11.37h8.52c11.4,0,20.98-11.36,23.87-22.53,0,0,.56-.91,2.37-.91s2.37.91,2.37.91h0Z"/><path class="cls-38" d="M449.19,298.53c.83,0,1.33.21,1.62.39.28.18.35.27.36.29l.02.02c1.48,5.62,4.59,11.27,8.8,15.53,4.24,4.3,9.6,7.21,15.44,7.21h8.07v10.48h-68.62v-10.48h8.1c5.84,0,11.19-2.91,15.42-7.21,4.21-4.26,7.32-9.91,8.8-15.53,0,0,.02-.01.02-.02,0-.01.06-.13.34-.3.3-.18.8-.37,1.63-.37Z"/><path class="cls-34" d="M448.43,298.6c-.09.02-.17.04-.26.06h-.02c-.21.05-.42.14-.6.25-.28.17-.33.29-.34.3,0,0-.02.01-.02.02l-.63,2.11-.38,1.05-1.32,3.11c-.33.68-.68,1.34-1.05,2-.93,1.66-1.99,3.24-3.18,4.73-.71.88-1.46,1.73-2.25,2.54-2.97,3.01-6.47,5.33-10.32,6.46,2.92.65,4.26-.06,6.92-.48,2.06-.33,4.45-.59,6.38-1.29,1.44-2,.95-1.37,1.53-3.01,1.25-2.34,3.07-4.46,3.52-7.06,1.71-3.19,2.01-9.1,2.01-10.78h0Z"/><path class="cls-35" d="M448.45,300.05c-.44,6.37-2.4,13.93-7.02,18.81-1.7,1.41-3.86,2.69-5.96,2.38,7.15-5.82,11.49-14.73,12.98-21.19Z"/><path class="cls-40" d="M442.7,311.01c-1.06,2.87-5.06,7.12-9.34,10.61-1.21.04-1.86.11-2.96.04,2.61-.24,8.68-5.37,12.3-10.65h0Z"/><path class="cls-34" d="M450.22,298.66h.02c.21.05.41.14.6.25.28.17.33.29.34.3,0,0,.02.01.02.02l.63,2.11.38,1.05,1.32,3.11,1.05,2c.93,1.66,1.99,3.24,3.18,4.73.71.88,1.46,1.73,2.25,2.54,2.97,3.01,6.47,5.75,10.32,6.88-7.65.03-10.97-.67-13.75-4.24-2.78-3.58-3.81-5.14-4.37-7.33-.56-2.18-2.14-6.94-1.97-11.41h0Z"/><path class="cls-35" d="M450.77,300.05c.44,6.37,2.34,12.68,6.96,17.56,1.7,1.41,3.86,2.69,5.96,2.38-7.75-5.28-11.44-13.48-12.92-19.94h0Z"/><g id="l"><path class="cls-2" d="M433.11,298.09c-1.81,0-2.37.91-2.37.91-2.66,10.29-12.49,23.57-22.7,25.14l-5.06,8.75h51.76v-11.98c-9.32-2.5-16.78-12.28-19.27-21.92,0,0-.55-.91-2.36-.91h0Z"/><path class="cls-38" d="M433.11,298.53c-.83,0-1.33.21-1.62.39-.28.18-.35.27-.36.29l-.02.02c-1.48,5.62-4.94,11.3-8.53,15.83-3.59,4.52-10.26,9.1-14.83,9.58l-4.52,7.81h50.75v-11.29c-3.75-1.15-7.18-3.45-10.09-6.4-4.21-4.26-7.32-9.91-8.8-15.53,0,0-.02-.01-.02-.02,0-.01-.06-.13-.34-.3-.3-.18-.8-.37-1.63-.37h0Z"/><path class="cls-39" d="M431.73,300.05c-.65,9.55-5.97,21.6-11.98,23.68-1.96.68-5.38.91-6.58,1.06,10.51-5,16.71-16.74,18.55-24.74Z"/><path class="cls-34" d="M433.1,298.53c-.16,0-.3.02-.43.04v11.41c.03,2.47.88,4.46,2.12,6.8.07.2.14.37.21.52.43,1.15.75,1.54,2.41,2.8,5.27,4,11.8,4.6,15.64,4.27-1.2-.95-2.49-1.81-3.62-2.61,1.81-.06,3.54-.26,4.77-.54-3.84-1.13-7.35-3.45-10.32-6.46-.51-.53-1.01-1.08-1.48-1.64l-.63-.86c-1.18-1.48-2.39-3.11-3.32-4.77-.37-.66-.72-1.32-1.05-2-.65-1.35-1.22-2.74-1.7-4.16-.23-.7-.44-1.4-.63-2.11,0,0-.02-.01-.02-.02s-.06-.13-.34-.3c-.19-.11-.39-.2-.61-.25h-.02c-.33-.09-.66-.13-1-.12h0Z"/><path class="cls-37" d="M433.84,300.05c.44,6.37,2.4,13.93,7.02,18.81,1.7,1.41,3.86,2.69,5.96,2.38-7.15-5.82-11.5-14.73-12.98-21.19Z"/><path class="cls-40" d="M438.24,308.86c2.5,6.16,8.84,11.92,15.36,15.79,1.21.04,1.58,0,2.68-.06-4.67-2.5-12.19-6.08-18.04-15.73Z"/></g><g id="l-2"><path class="cls-3" d="M416.81,298.09c-1.81,0-2.37.91-2.37.91-2.66,10.29-12.49,23.57-22.7,25.14l-5.06,8.75h51.76v-11.98c-9.32-2.5-16.78-12.28-19.27-21.92,0,0-.55-.91-2.36-.91h0Z"/><path class="cls-38" d="M416.81,298.53c-.83,0-1.33.21-1.62.39-.28.18-.35.27-.36.29l-.02.02c-1.48,5.62-4.94,11.3-8.53,15.83-3.59,4.52-10.26,9.1-14.83,9.58l-4.52,7.81h50.75v-11.29c-3.75-1.15-7.18-3.45-10.09-6.4-4.21-4.26-7.32-9.91-8.8-15.53,0,0-.02-.01-.02-.02,0-.01-.06-.13-.34-.3-.3-.18-.8-.37-1.63-.37h0Z"/><path class="cls-39" d="M415.44,300.05c-.65,9.55-5.97,21.6-11.98,23.68-1.96.68-5.38.91-6.58,1.06,10.51-5,16.71-16.74,18.55-24.74Z"/><path class="cls-34" d="M416.81,298.53c-.16,0-.3.02-.43.04v11.41c.03,2.47.88,4.46,2.12,6.8.07.2.14.37.21.52.43,1.15.75,1.54,2.41,2.8,5.27,4,11.8,4.6,15.64,4.27-1.2-.95-2.49-1.81-3.62-2.61,1.81-.06,3.54-.26,4.77-.54-3.84-1.13-7.35-3.45-10.32-6.46-.51-.53-1.01-1.08-1.48-1.64l-.63-.86c-1.18-1.48-2.39-3.11-3.32-4.77-.37-.66-.72-1.32-1.05-2-.65-1.35-1.22-2.74-1.7-4.16-.23-.7-.44-1.4-.63-2.11,0,0-.02-.01-.02-.02s-.06-.13-.34-.3c-.19-.11-.39-.2-.61-.25h-.02c-.33-.09-.66-.13-1-.12h0Z"/><path class="cls-35" d="M417.55,300.05c.44,6.37,2.4,13.93,7.02,18.81,1.7,1.41,3.86,2.69,5.96,2.38-7.15-5.82-11.5-14.73-12.98-21.19Z"/><path class="cls-40" d="M421.95,308.86c2.5,6.16,8.84,11.92,15.36,15.79,1.21.04,1.58,0,2.68-.06-4.67-2.5-12.19-6.08-18.04-15.73Z"/></g><path class="cls-43" d="M508.88,327.29c-.61.21-4.67-.2-6.79-.05l-1.35.35c-1.19,0-2.36.03-3.52,0-3.8,0-7.02,1-10.64,1s-6.83-1-10.64-1c-1.18,0-2.36.03-3.52,0-3.8,0-7.02,1-10.64,1s-6.84-1-10.64-1c-1.19,0-2.37.02-3.54,0-3.8,0-7,1-10.62,1s-6.82-1-10.62-1c-.28,0-.54,0-.82.02l-.59-.02c-.13,0-.23,0-.36,0-.12,0-.25,0-.37,0-.19,0-.36.01-.55.02l-.82-.02c-3.81,0-7.01,1-10.64,1-3.63,0-6.84-1-10.64-1-.28,0-.55.01-.82.02-.19,0-.36-.02-.55-.02-.13,0-.27,0-.39,0-.12,0-.25,0-.38,0-.19,0-.38.01-.57.02l-.82-.02c-3.04,0-6.57.64-9.44.9l-6.62,11.47h66.5s67.98,0,67.98,0l-7.58-12.67Z"/><path class="cls-18" d="M499.89,325.62h-.63c-3.42.11-5.88,1.18-11.83,1.18s-6.57-1.08-13.29-.93c-6.28.14-8.92,1.33-12.32,1.29-3.41-.05-8.95-.74-13.21-.29s-9.32,1.36-12.64,1.36c-4.13-.02-8.26-.77-12.57-.34s-6.33,1.58-11.68,1.57c-4.6-.01-9.59-.74-13.46-.73-3.63,0-7.67,1.01-10.65,1.52l-.89,1.55c2.37-.27,9.03-1.29,11.41-1.35,2.48-.06,11.32.51,16.19.34,4.88-.17,5.45-1.24,11.21-1.24,4.01,0,7.04.42,11.16.42,2.57,0,4.9-1.31,8.81-1.31l2.95-.1c3.29-.54,8.85.05,12.72.24,3.5.18,5.76-.65,9.41-.77l4.72-.16c3.65-.12,6.78.68,10.22.66,3.43-.21,6.76-.97,10.41-1.1l4.74-.16c2.42-.08,6.16.08,8.74.53l-.89-1.53c-2.51-.08-5.61-.67-8.64-.67h0Z"/><g id="n"><path id="m" class="cls-27" d="M396.74,337.91c-3.65,0-6.76.9-10.19,1-1.28-.03-2.5-.19-3.73-.36l-.52.9,1.57.07h4.72c3.65,0,6.74-.9,10.17-1,3.44.1,6.55,1,10.21,1h4.72c3.65,0,6.77-.9,10.21-1,3.44.1,6.58,1,10.23,1h4.72c3.65,0,6.76-.9,10.19-1,3.44.1,6.54,1,10.19,1h4.74c3.65,0,6.77-.9,10.21-1,3.44.1,6.56,1,10.21,1h4.72c3.65,0,6.76-.9,10.19-1,3.44.1,6.56,1,10.21,1h4.72l1.88-.08-.49-.84-3.42.32c-3.44-.1-6.54-1-10.19-1-1.59-.02-3.16.03-4.74,0-3.65,0-6.76.9-10.19,1-3.44-.1-6.55-1-10.21-1-1.58-.02-3.16.03-4.72,0-3.65,0-6.77.9-10.21,1-3.44-.1-6.56-1-10.21-1-1.59-.02-3.17.03-4.74,0-3.65,0-6.76.9-10.19,1-3.44-.1-6.54-1-10.19-1-1.59-.02-3.16.03-4.72,0-3.65,0-6.77.9-10.21,1-3.44-.1-6.56-1-10.21-1-1.59-.02-3.17.03-4.74,0h0Z"/><path id="m-2" class="cls-26" d="M396.74,336.54c-3.65,0-6.76.9-10.19,1-1.28-.03-2.5-.19-3.73-.36l-.52.9,1.57.07h4.72c3.65,0,6.74-.9,10.17-1,3.44.1,6.55,1,10.21,1h4.72c3.65,0,6.77-.9,10.21-1,3.44.1,6.58,1,10.23,1h4.72c3.65,0,6.76-.9,10.19-1,3.44.1,6.54,1,10.19,1h4.74c3.65,0,6.77-.9,10.21-1,3.44.1,6.56,1,10.21,1h4.72c3.65,0,6.76-.9,10.19-1,3.44.1,6.56,1,10.21,1h4.72l1.88-.08-.49-.84-3.42.32c-3.44-.1-6.54-1-10.19-1-1.59-.02-3.16.03-4.74,0-3.65,0-6.76.9-10.19,1-3.44-.1-6.55-1-10.21-1-1.58-.02-3.16.03-4.72,0-3.65,0-6.77.9-10.21,1-3.44-.1-6.56-1-10.21-1-1.59-.02-3.17.03-4.74,0-3.65,0-6.76.9-10.19,1-3.44-.1-6.54-1-10.19-1-1.59-.02-3.16.03-4.72,0-3.65,0-6.77.9-10.21,1-3.44-.1-6.56-1-10.21-1-1.59-.02-3.17.03-4.74,0h0Z"/><path id="m-3" class="cls-23" d="M396.74,335.19c-3.65,0-6.76.9-10.19,1-1.28-.03-2.5-.19-3.73-.36l-.52.9,1.57.07h4.72c3.65,0,6.74-.9,10.17-1,3.44.1,6.55,1,10.21,1h4.72c3.65,0,6.77-.9,10.21-1,3.44.1,6.58,1,10.23,1h4.72c3.65,0,6.76-.9,10.19-1,3.44.1,6.54,1,10.19,1h4.74c3.65,0,6.77-.9,10.21-1,3.44.1,6.56,1,10.21,1h4.72c3.65,0,6.76-.9,10.19-1,3.44.1,6.56,1,10.21,1h4.72l1.88-.08-.49-.84-3.42.32c-3.44-.1-6.54-1-10.19-1-1.59-.02-3.16.03-4.74,0-3.65,0-6.76.9-10.19,1-3.44-.1-6.55-1-10.21-1-1.58-.02-3.16.03-4.72,0-3.65,0-6.77.9-10.21,1-3.44-.1-6.56-1-10.21-1-1.59-.02-3.17.03-4.74,0-3.65,0-6.76.9-10.19,1-3.44-.1-6.54-1-10.19-1-1.59-.02-3.16.03-4.72,0-3.65,0-6.77.9-10.21,1-3.44-.1-6.56-1-10.21-1-1.59-.02-3.17.03-4.74,0h0Z"/></g><g id="n-2"><path id="m-4" class="cls-22" d="M396.74,333.82c-3.65,0-6.76.9-10.19,1-1.28-.03-2.5-.19-3.73-.36l-.52.9,1.57.07h4.72c3.65,0,6.74-.9,10.17-1,3.44.1,6.55,1,10.21,1h4.72c3.65,0,6.77-.9,10.21-1,3.44.1,6.58,1,10.23,1h4.72c3.65,0,6.76-.9,10.19-1,3.44.1,6.54,1,10.19,1h4.74c3.65,0,6.77-.9,10.21-1,3.44.1,6.56,1,10.21,1h4.72c3.65,0,6.76-.9,10.19-1,3.44.1,6.56,1,10.21,1h4.72l1.88-.08-.49-.84-3.42.32c-3.44-.1-6.54-1-10.19-1-1.59-.02-3.16.03-4.74,0-3.65,0-6.76.9-10.19,1-3.44-.1-6.55-1-10.21-1-1.58-.02-3.16.03-4.72,0-3.65,0-6.77.9-10.21,1-3.44-.1-6.56-1-10.21-1-1.59-.02-3.17.03-4.74,0-3.65,0-6.76.9-10.19,1-3.44-.1-6.54-1-10.19-1-1.59-.02-3.16.03-4.72,0-3.65,0-6.77.9-10.21,1-3.44-.1-6.56-1-10.21-1-1.59-.02-3.17.03-4.74,0h0Z"/><path id="m-5" class="cls-21" d="M396.74,332.46c-3.65,0-6.76.9-10.19,1-1.28-.03-2.5-.19-3.73-.36l-.52.9,1.57.07h4.72c3.65,0,6.74-.9,10.17-1,3.44.1,6.55,1,10.21,1h4.72c3.65,0,6.77-.9,10.21-1,3.44.1,6.58,1,10.23,1h4.72c3.65,0,6.76-.9,10.19-1,3.44.1,6.54,1,10.19,1h4.74c3.65,0,6.77-.9,10.21-1,3.44.1,6.56,1,10.21,1h4.72c3.65,0,6.76-.9,10.19-1,3.44.1,6.56,1,10.21,1h4.72l1.88-.08-.49-.84-3.42.32c-3.44-.1-6.54-1-10.19-1-1.59-.02-3.16.03-4.74,0-3.65,0-6.76.9-10.19,1-3.44-.1-6.55-1-10.21-1-1.58-.02-3.16.03-4.72,0-3.65,0-6.77.9-10.21,1-3.44-.1-6.56-1-10.21-1-1.59-.02-3.17.03-4.74,0-3.65,0-6.76.9-10.19,1-3.44-.1-6.54-1-10.19-1-1.59-.02-3.16.03-4.72,0-3.65,0-6.77.9-10.21,1-3.44-.1-6.56-1-10.21-1-1.59-.02-3.17.03-4.74,0h0Z"/><path id="m-6" class="cls-20" d="M396.74,331.1c-3.65,0-6.76.9-10.19,1-1.28-.03-2.5-.19-3.73-.36l-.52.9,1.57.07h4.72c3.65,0,6.74-.9,10.17-1,3.44.1,6.55,1,10.21,1h4.72c3.65,0,6.77-.9,10.21-1,3.44.1,6.58,1,10.23,1h4.72c3.65,0,6.76-.9,10.19-1,3.44.1,6.54,1,10.19,1h4.74c3.65,0,6.77-.9,10.21-1,3.44.1,6.56,1,10.21,1h4.72c3.65,0,6.76-.9,10.19-1,3.44.1,6.56,1,10.21,1h4.72l1.88-.08-.49-.84-3.42.32c-3.44-.1-6.54-1-10.19-1-1.59-.02-3.16.03-4.74,0-3.65,0-6.76.9-10.19,1-3.44-.1-6.55-1-10.21-1-1.58-.02-3.16.03-4.72,0-3.65,0-6.77.9-10.21,1-3.44-.1-6.56-1-10.21-1-1.59-.02-3.17.03-4.74,0-3.65,0-6.76.9-10.19,1-3.44-.1-6.54-1-10.19-1-1.59-.02-3.16.03-4.72,0-3.65,0-6.77.9-10.21,1-3.44-.1-6.56-1-10.21-1-1.59-.02-3.17.03-4.74,0h0Z"/></g><g id="n-3"><path id="m-7" class="cls-24" d="M396.74,329.74c-3.65,0-6.76.9-10.19,1-1.28-.03-2.5-.19-3.73-.36l-.52.9,1.57.07h4.72c3.65,0,6.74-.9,10.17-1,3.44.1,6.55,1,10.21,1h4.72c3.65,0,6.77-.9,10.21-1,3.44.1,6.58,1,10.23,1h4.72c3.65,0,6.76-.9,10.19-1,3.44.1,6.54,1,10.19,1h4.74c3.65,0,6.77-.9,10.21-1,3.44.1,6.56,1,10.21,1h4.72c3.65,0,6.76-.9,10.19-1,3.44.1,6.56,1,10.21,1h4.72l1.88-.08-.49-.84-3.42.32c-3.44-.1-6.54-1-10.19-1-1.59-.02-3.16.03-4.74,0-3.65,0-6.76.9-10.19,1-3.44-.1-6.55-1-10.21-1-1.58-.02-3.16.03-4.72,0-3.65,0-6.77.9-10.21,1-3.44-.1-6.56-1-10.21-1-1.59-.02-3.17.03-4.74,0-3.65,0-6.76.9-10.19,1-3.44-.1-6.54-1-10.19-1-1.59-.02-3.16.03-4.72,0-3.65,0-6.77.9-10.21,1-3.44-.1-6.56-1-10.21-1-1.59-.02-3.17.03-4.74,0h0Z"/><path id="m-8" class="cls-25" d="M396.74,328.38c-3.65,0-6.76.9-10.19,1-1.28-.03-2.5-.19-3.73-.36l-.52.9,1.57.07h4.72c3.65,0,6.74-.9,10.17-1,3.44.1,6.55,1,10.21,1h4.72c3.65,0,6.77-.9,10.21-1,3.44.1,6.58,1,10.23,1h4.72c3.65,0,6.76-.9,10.19-1,3.44.1,6.54,1,10.19,1h4.74c3.65,0,6.77-.9,10.21-1,3.44.1,6.56,1,10.21,1h4.72c3.65,0,6.76-.9,10.19-1,3.44.1,6.56,1,10.21,1h4.72l1.88-.08-.49-.84-3.42.32c-3.44-.1-6.54-1-10.19-1-1.59-.02-3.16.03-4.74,0-3.65,0-6.76.9-10.19,1-3.44-.1-6.55-1-10.21-1-1.58-.02-3.16.03-4.72,0-3.65,0-6.77.9-10.21,1-3.44-.1-6.56-1-10.21-1-1.59-.02-3.17.03-4.74,0-3.65,0-6.76.9-10.19,1-3.44-.1-6.54-1-10.19-1-1.59-.02-3.16.03-4.72,0-3.65,0-6.77.9-10.21,1-3.44-.1-6.56-1-10.21-1-1.59-.02-3.17.03-4.74,0h0Z"/><path id="m-9" class="cls-19" d="M396.74,327.02c-3.65,0-6.76.9-10.19,1-1.28-.03-2.5-.19-3.73-.36l-.52.9,1.57.07h4.72c3.65,0,6.74-.9,10.17-1,3.44.1,6.55,1,10.21,1h4.72c3.65,0,6.77-.9,10.21-1,3.44.1,6.58,1,10.23,1h4.72c3.65,0,6.76-.9,10.19-1,3.44.1,6.54,1,10.19,1h4.74c3.65,0,6.77-.9,10.21-1,3.44.1,6.56,1,10.21,1h4.72c3.65,0,6.76-.9,10.19-1,3.44.1,6.56,1,10.21,1h4.72l1.88-.08-.49-.84-3.42.32c-3.44-.1-6.54-1-10.19-1-1.59-.02-3.16.03-4.74,0-3.65,0-6.76.9-10.19,1-3.44-.1-6.55-1-10.21-1-1.58-.02-3.16.03-4.72,0-3.65,0-6.77.9-10.21,1-3.44-.1-6.56-1-10.21-1-1.59-.02-3.17.03-4.74,0-3.65,0-6.76.9-10.19,1-3.44-.1-6.54-1-10.19-1-1.59-.02-3.16.03-4.72,0-3.65,0-6.77.9-10.21,1-3.44-.1-6.56-1-10.21-1-1.59-.02-3.17.03-4.74,0h0Z"/></g><path class="cls-38" d="M389.91,327.3l-2.56,4.43c3-.5,7.5-1.8,11.23-1.8,3.87,0,8.53.95,13.13.97,5.35.01,7.37-1.14,11.68-1.57s8.45.56,12.57.58c3.32,0,8.38-1.15,12.64-1.6,4.26-.45,8.17.31,13.31.39,5.14.08,5.95-1.25,12.22-1.38,6.72-.15,7.34.93,13.29.93,4.48.24,8.32-.9,12.32-1.18,3.99-.28,5.85.05,8.77.12l-1.94-3.44s-.06,0-.1,0l-106.92,2.35-9.66,1.21Z"/><path class="cls-43" d="M502.08,327.24l4.06.29c1.04.11,2.08.2,3.12.27l-.39-.51c-.61.21-4.67-.2-6.79-.05Z"/></g><path class="cls-36" d="M449.21,221.88l-33.94,58.8-34.7,60.09h67.9s69.38,0,69.38,0l-33.95-58.8-34.69-60.09ZM449.21,225.05l33.32,57.71,32.58,56.42h-66.64s-65.16,0-65.16,0l33.33-57.71,32.57-56.43Z"/></svg>