<?xml version="1.0" encoding="UTF-8"?><svg id="_色修正" xmlns="http://www.w3.org/2000/svg" viewBox="0 0 900 600"><defs><style>.cls-1{stroke:#9ba39a;}.cls-1,.cls-2{fill:#9ba39a;}.cls-2,.cls-3,.cls-4,.cls-5,.cls-6{stroke:#040000;}.cls-3,.cls-7,.cls-8{fill:#231815;}.cls-7,.cls-9{stroke:#fff;}.cls-4{fill:#ba2d21;}.cls-5{fill:#ead24f;}.cls-6,.cls-9,.cls-10{fill:#fff;}.cls-8,.cls-11,.cls-10,.cls-12{stroke-width:0px;}.cls-11{fill:#e50012;}.cls-12{fill:#fbc600;}</style></defs><rect class="cls-8" width="900" height="600"/><rect class="cls-12" y="100" width="900" height="100"/><rect class="cls-11" y="200" width="900" height="100"/><rect class="cls-12" y="400" width="900" height="100"/><rect class="cls-11" y="500" width="900" height="100"/><circle class="cls-10" cx="450" cy="300" r="93.5"/><path class="cls-4" d="M433.52,228.39l-6.06-11.17c2.34-2.34,6.28-4.15,12.55-4.15,0,.43-.64,12.23-.64,12.23l-5.85,3.08Z"/><path class="cls-5" d="M439.37,225.41l.85-12.34s12.55-.74,19.36,7.45c.11-.11-6.7,9.57-6.7,9.57l-13.51-4.68Z"/><path class="cls-4" d="M453.1,229.99l6.17-9.57c4.15,4.36,5.85,7.45,6.49,12.13.11.11-9.79,2.45-9.79,2.34s-2.77-4.79-2.87-4.89Z"/><path class="cls-3" d="M436.61,388.07s11.6-13.3,34.15-10.43c-3.4-5.53-14.36-4.89-14.36-4.89,0,0-3.4-25.85-.74-27.13,2.66-1.28,13.94.11,13.94.11,1.49,0,4.04-4.04,2.02-6.6-2.02-2.55-7.98-12.34-5.53-14.26,2.45-1.91,15.74,1.06,15.74,1.06l-37.55-48.09s-3.83-18.09,3.83-26.81c9.26-7.66,8.3-15.96,7.98-15.85-1.28-8.4-14.04-14.47-22.66-6.7-5.11,6.17-1.7,10.85-1.7,10.85,0,0-13.4,3.62-13.94,5.96-.53,2.34,15.11-.42,15.11-.42l-1.49,10.74s-30.43,27.66-7.13,51.6c.21-.11.74-1.06.74-1.06,0,0,8.19,10.11,16.81,12.34,8.09,8.3,7.34,7.02,7.34,7.02,0,0,1.6,13.09.11,15.64-2.02-.64-22.66-1.38-25.75-.21-2.77.85-13.4.32-10.74,17.66,2.02-4.68,3.83-8.83,3.83-8.83,0,0-.32,6.28,2.23,8.51-.43-6.6,2.45-11.06,2.45-11.06,0,0,.53,7.23,2.13,8.3,1.6,1.06,1.6-11.7,10.43-10.64,8.83,1.06,15.21.74,15.21.74,0,0,2.98,25,2.02,27.34-6.38-1.49-21.6.64-22.55,4.47,8.94-.53,13.09.53,13.09.53,0,0-7.23,6.38-5,10.11Z"/><path class="cls-1" d="M440.19,251.66s-22.14,24.4-12.59,43.08c.51-2.6.29-4.24.61-4.13-.53-.32,2.75,2.25,2.5,1.75.07-1.35-1-4.24-1-4.24,1,.25,2,.5,3,.75-.58-1.08-1.17-2.16-1.75-3.24,1.41.17,2.83.33,4.24.5,0,0-1.5-3.99-1-3.99s3.49.25,3.49.25c-6.3-11.3-.36-20.68,2.5-30.7Z"/><path class="cls-1" d="M447.88,230.73s1.17,8.4-3.4,10.85c-.74.53-3.62,1.49-3.19,3.19.53,2.34,1.81,1.91,3.62,1.49,4.79-.85,10.32-11.06,2.98-15.53Z"/><circle class="cls-10" cx="438" cy="238" r="1.8"/><path class="cls-4" d="M432.56,244.99c-1.17.96-7.34,7.34-1.28,9.68,6.28-1.7,4.57-2.87,5.96-4.26.04-2.87-3.12-3.62-4.68-5.43Z"/><path class="cls-1" d="M445.97,305.31c-.32,1.38-1.7,6.49.21,10.43,5.32-2.23,7.77-1.6,9.57-.43-4.36-3.51-6.06-5-9.79-10Z"/><path class="cls-9" d="M455.12,329.46l.32,11.92s4.15.74,6.06,0c1.92-.74-.11-8.3-6.38-11.92Z"/><path class="cls-2" d="M485.22,330.94s-7.66-18.51-27.23-23.19c-19.57-4.68-17.02-25.53-15.43-26.81.85-1.81,1.49-4.57,7.13-1.91,5.64,2.66,31.6,15.74,35.32,16.38,3.72.64.53,35.96.21,35.53Z"/><path class="cls-4" d="M466.61,307.65c-.32.21,26.17,15.64,18.19,28.94,7.55-5,5.11-13.72,5.11-13.72,0,0,6.17,16.06-8.83,23.94,1.6,1.38,2.66,1.06,2.66,1.06l-2.55,2.55s-1.17,1.91,8.94-2.98c-2.77,2.23-2.98,3.83-2.98,3.83,0,0,.74,2.13,7.34-3.62-5.32,5.75-6.49,8.72-6.49,8.62,14.36-1.28,45.64-47.98-9.89-61.81,2.98,3.09,2.55,2.66,2.55,2.66l-14.04,10.53Z"/><path class="cls-6" d="M467.78,303.07c3.62,2.55,4.89,3.4,5.32,4.68-3.3-.74-6.28-.53-6.28-.53,0,0-7.13-6.81-8.4-7.34-.96,0-6.49-3.51-6.49-3.51-2.77-1.38-5.32-10.96,4.89-8.19,10.53,5,12.02,5.43,12.02,5.43,4.18,1.31,8.37,2.62,12.55,3.94,2.41,2.7,4.82,5.39,7.23,8.09,0,0-12.87-6.38-14.47-6.49,3.51,2.87,5.53,6.81,5.53,6.81-4.08-1.17-7.62-2.23-11.92-2.87Z"/><path class="cls-7" d="M417.67,245.94s12.34-2.98,13.83-2.55"/></svg>