<?xml version="1.0" encoding="UTF-8"?><svg id="_色修正" xmlns="http://www.w3.org/2000/svg" xmlns:xlink="http://www.w3.org/1999/xlink" viewBox="0 0 900 600"><defs><style>.cls-1{clip-path:url(#clippath);}.cls-2,.cls-3{fill:none;}.cls-2,.cls-4,.cls-5,.cls-6,.cls-7,.cls-8,.cls-9{stroke-width:0px;}.cls-3{stroke:#fff;stroke-miterlimit:80;stroke-width:60px;}.cls-4{fill:#e50012;}.cls-5{fill:#fff;}.cls-6{fill:#fff000;}.cls-7{fill:#e62a23;}.cls-8{fill:#002b69;}.cls-9{fill:#00b8ee;}</style><clipPath id="clippath"><rect class="cls-2" y=".19" width="450" height="300"/></clipPath></defs><rect class="cls-9" width="900" height="600"/><path id="star" class="cls-6" d="M499.75,498.25l24.5,75.41-64.15-46.61h79.29l-64.15,46.61,24.5-75.41Z"/><g id="rats"><path id="star-2" class="cls-6" d="M614.05,468.89l-24.5,75.41-24.5-75.41,64.15,46.61h-79.29s64.15-46.61,64.15-46.61Z"/></g><g id="rats-2"><path id="star-3" class="cls-6" d="M614.06,336.4l-24.5,75.41-24.5-75.41,64.15,46.61h-79.29s64.15-46.61,64.15-46.61Z"/></g><g id="rats-3"><path id="star-4" class="cls-6" d="M700.98,423.26l-24.5,75.41-24.5-75.41,64.15,46.61h-79.29s64.15-46.61,64.15-46.61Z"/></g><g id="rats-4"><path id="star-5" class="cls-6" d="M677.01,155.42l-24.5,75.41-24.5-75.41,64.15,46.61h-79.29s64.15-46.61,64.15-46.61Z"/></g><path id="star-6" class="cls-6" d="M737.1,314.74l24.5,75.41-64.15-46.61h79.29l-64.15,46.61,24.5-75.41Z"/><g id="rats-5"><path id="star-7" class="cls-6" d="M757.18,117.33l-24.5,75.41-24.5-75.41,64.15,46.61h-79.29s64.15-46.61,64.15-46.61Z"/></g><path id="star-8" class="cls-6" d="M835.63,243.76l24.5,75.41-64.15-46.61h79.29l-64.15,46.61,24.5-75.41Z"/><path id="star-9" class="cls-6" d="M803.71,19l24.5,75.41-64.15-46.61h79.29l-64.15,46.61,24.5-75.41Z"/><rect class="cls-8" y=".19" width="450" height="300"/><g class="cls-1"><line class="cls-3" x1="-10.29" y1="-4.55" x2="456.86" y2="306.84"/><line class="cls-3" x1="-9.6" y1="306.84" x2="457.55" y2="-4.55"/><polyline class="cls-7" points="224.13 128.27 241.46 139.82 458.05 -4.55 448.83 -21.51"/><polyline class="cls-7" points="-9.25 307.48 -.38 323.8 223.63 174.48 206.3 162.93"/><polygon class="cls-4" points="-21.48 12.89 -11.08 -6.23 209.01 139.82 188.97 153.18 -21.48 12.89"/><polygon class="cls-4" points="238.26 162.93 258.29 149.57 468.06 289.4 457.4 309 238.26 162.93"/><polygon class="cls-4" points="221.43 128.27 449.36 -23.67 460.02 -4.06 241.46 141.62 221.43 128.27"/><polygon class="cls-4" points="-11.23 306.99 206.3 161.12 226.34 174.48 -.91 325.96 -11.23 306.99"/><polygon class="cls-7" points="223.63 151.37 240.96 162.93 258.29 151.37 240.96 139.82 223.63 151.37"/><polygon class="cls-7" points="223.63 151.37 206.3 139.82 188.97 151.37 206.3 162.93 223.63 151.37"/><polygon class="cls-7" points="223.63 151.37 240.96 139.82 223.63 128.27 206.3 139.82 223.63 151.37"/><polygon class="cls-7" points="223.63 151.37 206.3 162.93 223.63 174.48 240.96 162.93 223.63 151.37"/><rect class="cls-5" x="-4.71" y="110.19" width="457.98" height="80"/><rect class="cls-5" x="184.31" y=".76" width="80" height="299.24"/><rect class="cls-4" x="200.02" y=".76" width="48" height="299.24"/><rect class="cls-4" x="200.66" y="-79.77" width="48" height="460.29" transform="translate(74.28 375.04) rotate(-90)"/></g><rect class="cls-2" width="450" height="300"/><rect class="cls-2" width="450" height="300"/></svg>