<?xml version="1.0" encoding="UTF-8"?><svg id="_色修正" xmlns="http://www.w3.org/2000/svg" viewBox="0 0 900 600"><defs><style>.cls-1{fill:#231815;}.cls-1,.cls-2,.cls-3,.cls-4{stroke-width:0px;}.cls-2{fill:#e50012;}.cls-3{fill:#fff000;}.cls-4{fill:#008c3c;}</style></defs><rect class="cls-2" width="300" height="600"/><rect class="cls-3" x="300" width="600" height="300"/><rect class="cls-4" x="300" y="300" width="600" height="300"/><g id="c"><path id="t" class="cls-1" d="M148.12,207l-30.9,95.11,47.55,15.45"/><path id="t-2" class="cls-1" d="M148.12,207l30.9,95.11-47.55,15.45"/></g><g id="c-2"><path id="t-3" class="cls-1" d="M243.23,276.1h-100v50"/><path id="t-4" class="cls-1" d="M243.23,276.1l-80.9,58.78-29.39-40.45"/></g><g id="c-3"><path id="t-5" class="cls-1" d="M206.9,387.9l-30.9-95.11-47.55,15.45"/><path id="t-6" class="cls-1" d="M206.9,387.9l-80.9-58.78,29.39-40.45"/></g><g id="c-4"><path id="t-7" class="cls-1" d="M89.35,387.9l80.9-58.78-29.39-40.45"/><path id="t-8" class="cls-1" d="M89.35,387.9l30.9-95.11,47.55,15.45"/></g><g id="c-5"><path id="t-9" class="cls-1" d="M53.02,276.1l80.9,58.78,29.39-40.45"/><path id="t-10" class="cls-1" d="M53.02,276.1h100v50"/></g></svg>