<?xml version="1.0" encoding="UTF-8"?><svg id="_色修正" xmlns="http://www.w3.org/2000/svg" xmlns:xlink="http://www.w3.org/1999/xlink" viewBox="0 0 900 600"><defs><style>.cls-1{clip-path:url(#clippath);}.cls-2{fill:none;}.cls-2,.cls-3,.cls-4,.cls-5,.cls-6,.cls-7{stroke-width:0px;}.cls-3{fill:#201716;}.cls-4{fill:#231815;}.cls-5{fill:#e50012;}.cls-6{fill:#fff000;}.cls-7{fill:#009844;}</style><clipPath id="clippath"><path class="cls-2" d="M0,0h900v601H0V0Z"/></clipPath></defs><g class="cls-1"><path class="cls-5" d="M0,0h900v300H0V0Z"/><path class="cls-7" d="M0,600v-300h900v300"/><polygon class="cls-6" points="-14.18 8.2 455.36 263.82 937.34 263.82 937.34 334.18 455.39 334.18 -14.18 591.89 -14.18 8.2"/><path class="cls-3" d="M0,32.06l451.75,245.94h471.41v42h-471.41L0,567.94V32.06M-28.36-15.67v631.52l42-23.05,445.38-244.44h492.5v-98.72h-492.55L13.56,7.15-28.36-15.67h0Z"/><path class="cls-4" d="M0,73.16l417.38,225.84L0,523.84V73.16Z"/><path class="cls-6" d="M116.83,351.59v32.75c28.49,0,84.41-21.83,84.41-92.13s-59.65-83.35-77.49-83.35c-17.84,0-72.96,12.78-72.96,70.3s54.06,62.84,64.71,62.84,50.59-9.59,46.07-52.72c0,12.25-13.85,38.08-42.87,38.08s-47.13-21.57-47.13-42.87,17.57-49.8,48.2-49.8,52.99,27.16,52.99,54.59-21.57,62.31-55.92,62.31h0Z"/><g id="a"><path class="cls-6" d="M91.86,308.96l1.7,1.1s13.48-30.75,49.73-52.62c-4.59,2.5-28.86,14.58-51.42,51.52Z"/><path class="cls-6" d="M95.36,303.66s-4.19-8.59-.5-12.38c3.7-3.79,2,10.08,2,10.08l1.6-2.3s-2.5-10.49.3-12.68c2.8-2.2,1.4,10.08,1.4,10.08l1.7-2.2s-1.8-10.18.9-12.08c2.7-1.9,1,9.59,1,9.59l2-2.3s-1.5-9.69,1.8-11.98c3.3-2.3.4,9.19.4,9.19l2.2-2.4s-1-8.89,1.8-10.88c2.8-2,.4,8.39.4,8.39l2-2.1s-.6-8.29,2.1-10.18c2.7-1.9.2,7.89.2,7.89l2.1-2s-.5-8.29,2.9-9.89c3.39-1.6-.6,7.79-.6,7.79l2.3-2s.7-9.69,3.6-10.59c2.9-.9-1.3,8.59-1.3,8.59l2.1-1.7s1.1-8.29,4.29-9.29c3.2-1-2,7.59-2,7.59l2.1-1.6s2.3-8.29,5.29-9.19c3-.9-3.1,7.79-3.1,7.79l2-1.4s3.29-7.49,5.99-7.99c2.7-.5-3,6.19-3,6.19l2.5-1.5s4.29-7.79,5.79-5.39c1.5,2.4-5.99,5.89-5.99,5.89l-2.5,1.4s9.09-4.29,10.19-2.1c1.1,2.2-12.48,3.6-12.48,3.6l-2.2,1.5s9.09-2.5,7.99-.2c-1.1,2.3-10.08,1.8-10.08,1.8l-2.1,1.5s9.09-2.2,7.89-.1c-1.2,2.1-10.08,1.9-10.08,1.9l-2.2,1.8s8.89-2.3,7.59.4c-1.3,2.7-11.38,2.6-11.38,2.6l-2.5,2.3s9.39-3.19,8.59-.7c-.8,2.5-11.48,3.79-11.48,3.79l-2.4,2.4s10.08-3.39,7.09-.3c-3,3.1-10.28,3.89-10.28,3.89l-2.9,3.49s9.99-5.99,8.59-2.6c-1.4,3.39-11.18,5.69-11.18,5.69l-2,2.4s8.99-5.19,8.09-2.3c-.9,2.9-10.49,5.99-10.49,5.99l-1.6,2.2s10.58-6.29,9.69-3.1c-.9,3.2-10.98,5.49-10.98,5.49l-1.3,2s9.79-5.59,9.89-2.9-11.48,5.39-11.48,5.39l-.2-2.3h0Z"/></g><g id="a-2"><path class="cls-6" d="M149.39,308.96l-1.7,1.1s-13.48-30.75-49.73-52.62c4.59,2.5,28.86,14.58,51.42,51.52Z"/><path class="cls-6" d="M145.9,303.66s4.19-8.59.5-12.38c-3.7-3.79-2,10.08-2,10.08l-1.6-2.3s2.5-10.49-.3-12.68c-2.8-2.2-1.4,10.08-1.4,10.08l-1.7-2.2s1.8-10.18-.9-12.08c-2.7-1.9-1,9.59-1,9.59l-2-2.3s1.5-9.69-1.8-11.98c-3.3-2.3-.4,9.19-.4,9.19l-2.2-2.4s1-8.89-1.8-10.88c-2.8-2-.4,8.39-.4,8.39l-2-2.1s.6-8.29-2.1-10.18c-2.7-1.9-.2,7.89-.2,7.89l-2.1-2s.5-8.29-2.9-9.89c-3.39-1.6.6,7.79.6,7.79l-2.3-2s-.7-9.69-3.6-10.59c-2.9-.9,1.3,8.59,1.3,8.59l-2.1-1.7s-1.1-8.29-4.29-9.29c-3.2-1,2,7.59,2,7.59l-2.1-1.6s-2.3-8.29-5.29-9.19c-3-.9,3.1,7.79,3.1,7.79l-2-1.4s-3.29-7.49-5.99-7.99c-2.7-.5,3,6.19,3,6.19l-2.5-1.5s-4.29-7.79-5.79-5.39c-1.5,2.4,5.99,5.89,5.99,5.89l2.5,1.4s-9.09-4.29-10.19-2.1c-1.1,2.2,12.48,3.6,12.48,3.6l2.2,1.5s-9.09-2.5-7.99-.2c1.1,2.3,10.08,1.8,10.08,1.8l2.1,1.5s-9.09-2.2-7.89-.1c1.2,2.1,10.08,1.9,10.08,1.9l2.2,1.8s-8.89-2.3-7.59.4c1.3,2.7,11.38,2.6,11.38,2.6l2.5,2.3s-9.39-3.19-8.59-.7c.8,2.5,11.48,3.79,11.48,3.79l2.4,2.4s-10.08-3.39-7.09-.3c3,3.1,10.28,3.89,10.28,3.89l2.9,3.49s-9.99-5.99-8.59-2.6c1.4,3.39,11.18,5.69,11.18,5.69l2,2.4s-8.99-5.19-8.09-2.3c.9,2.9,10.49,5.99,10.49,5.99l1.6,2.2s-10.58-6.29-9.69-3.1c.9,3.2,10.98,5.49,10.98,5.49l1.3,2s-9.79-5.59-9.89-2.9,11.48,5.39,11.48,5.39l.2-2.3h0Z"/></g></g></svg>