<?xml version="1.0" encoding="UTF-8"?><svg id="_色修正" xmlns="http://www.w3.org/2000/svg" xmlns:xlink="http://www.w3.org/1999/xlink" viewBox="0 0 900 600"><defs><style>.cls-1{fill:#040000;stroke:#fff;stroke-width:75.89px;}.cls-2{fill:#b02e2e;stroke:#159143;stroke-miterlimit:40;stroke-width:5px;}.cls-3{clip-path:url(#clippath);}.cls-4{fill:none;}.cls-4,.cls-5,.cls-6,.cls-7{stroke-width:0px;}.cls-5{fill:#d61518;}.cls-6{fill:#fff;}.cls-7{fill:#008c3c;}</style><clipPath id="clippath"><rect class="cls-4" y=".43" width="900" height="600"/></clipPath></defs><path class="cls-7" d="M0,0v600L900,0v600L0,0Z"/><path class="cls-5" d="M0,0h900L0,600h900L0,0Z"/><g class="cls-3"><path class="cls-1" d="M-2.81,0l900,600M897.19,0L-2.81,600"/></g><circle class="cls-6" cx="450" cy="300" r="163.11"/><polygon class="cls-2" points="547.15 342.34 558.41 322.85 535.9 322.85 524.65 303.36 513.4 322.85 490.89 322.85 502.14 342.34 490.89 361.83 513.4 361.83 524.65 381.32 535.9 361.83 558.41 361.83 547.15 342.34"/><polygon class="cls-2" points="472.66 222.32 483.92 202.83 461.41 202.83 450.16 183.34 438.91 202.83 416.4 202.83 427.66 222.32 416.4 241.81 438.91 241.81 450.16 261.3 461.41 241.81 483.92 241.81 472.66 222.32"/><polygon class="cls-2" points="401.18 342.34 412.43 322.85 389.92 322.85 378.67 303.36 367.42 322.85 344.91 322.85 356.17 342.34 344.91 361.83 367.42 361.83 378.67 381.32 389.92 361.83 412.43 361.83 401.18 342.34"/></svg>