<?xml version="1.0" encoding="UTF-8"?><svg id="_色修正" xmlns="http://www.w3.org/2000/svg" viewBox="0 0 900 600"><defs><style>.cls-1{fill:#c82e20;}.cls-1,.cls-2,.cls-3{stroke-width:0px;}.cls-2{fill:#fff;}.cls-3{fill:#003476;}</style></defs><path class="cls-1" d="M0,0h900v600H0V0Z"/><path class="cls-2" d="M900,553.85H0v-46.15h900v46.15ZM900,461.54H0v-46.15h900v46.15ZM900,369.23H0v-46.15h900v46.15ZM900,276.92H0v-46.15h900v46.15ZM900,184.62H0v-46.15h900v46.15ZM900,92.31H0v-46.15h900v46.15Z"/><rect class="cls-3" width="402.01" height="323.08"/><g id="c"><g id="e"><path id="a" class="cls-2" d="M30.83,277.91l9.62,29.6-25.18-18.3h31.13l-25.18,18.3,9.62-29.6Z"/></g></g><g id="c-2"><g id="e-2"><path id="a-2" class="cls-2" d="M98.2,277.91l9.62,29.6-25.18-18.3h31.13l-25.18,18.3,9.62-29.6Z"/></g></g><g id="d"><g id="c-3"><g id="e-3"><path id="a-3" class="cls-2" d="M165.57,277.91l9.62,29.6-25.18-18.3h31.13l-25.18,18.3,9.62-29.6Z"/></g></g><g id="c-4"><g id="e-4"><path id="a-4" class="cls-2" d="M232.94,277.91l9.62,29.6-25.18-18.3h31.13l-25.18,18.3,9.62-29.6Z"/></g></g></g><g id="c-5"><g id="e-5"><path id="a-5" class="cls-2" d="M300.31,277.91l9.62,29.6-25.18-18.3h31.13l-25.18,18.3,9.62-29.6Z"/></g></g><g id="e-6"><path id="a-6" class="cls-2" d="M367.68,277.91l9.62,29.6-25.18-18.3h31.13l-25.18,18.3,9.62-29.6Z"/></g><g id="c-6"><g id="e-7"><path id="a-7" class="cls-2" d="M30.83,16.09l9.62,29.6L15.27,27.4h31.13l-25.18,18.3,9.62-29.6Z"/></g></g><g id="c-7"><g id="e-8"><path id="a-8" class="cls-2" d="M98.2,16.09l9.62,29.6-25.18-18.3h31.13l-25.18,18.3,9.62-29.6Z"/></g></g><g id="d-2"><g id="c-8"><g id="e-9"><path id="a-9" class="cls-2" d="M165.57,16.09l9.62,29.6-25.18-18.3h31.13l-25.18,18.3,9.62-29.6Z"/></g></g><g id="c-9"><g id="e-10"><path id="a-10" class="cls-2" d="M232.94,16.09l9.62,29.6-25.18-18.3h31.13l-25.18,18.3,9.62-29.6Z"/></g></g></g><g id="c-10"><g id="e-11"><path id="a-11" class="cls-2" d="M300.31,16.09l9.62,29.6-25.18-18.3h31.13l-25.18,18.3,9.62-29.6Z"/></g></g><g id="e-12"><path id="a-12" class="cls-2" d="M367.68,16.09l9.62,29.6-25.18-18.3h31.13l-25.18,18.3,9.62-29.6Z"/></g><g id="b"><path id="a-13" class="cls-2" d="M64.52,245.18l9.62,29.6-25.18-18.3h31.13l-25.18,18.3,9.62-29.6Z"/></g><g id="b-2"><path id="a-14" class="cls-2" d="M131.89,245.18l9.62,29.6-25.18-18.3h31.13l-25.18,18.3,9.62-29.6Z"/></g><g id="b-3"><path id="a-15" class="cls-2" d="M199.26,245.18l9.62,29.6-25.18-18.3h31.13l-25.18,18.3,9.62-29.6Z"/></g><g id="b-4"><path id="a-16" class="cls-2" d="M266.62,245.18l9.62,29.6-25.18-18.3h31.13l-25.18,18.3,9.62-29.6Z"/></g><g id="b-5"><path id="a-17" class="cls-2" d="M333.99,245.18l9.62,29.6-25.18-18.3h31.13l-25.18,18.3,9.62-29.6Z"/></g><g id="c-11"><g id="e-13"><path id="a-18" class="cls-2" d="M30.83,212.46l9.62,29.6-25.18-18.3h31.13l-25.18,18.3,9.62-29.6Z"/></g></g><g id="c-12"><g id="e-14"><path id="a-19" class="cls-2" d="M98.2,212.46l9.62,29.6-25.18-18.3h31.13l-25.18,18.3,9.62-29.6Z"/></g></g><g id="d-3"><g id="c-13"><g id="e-15"><path id="a-20" class="cls-2" d="M165.57,212.46l9.62,29.6-25.18-18.3h31.13l-25.18,18.3,9.62-29.6Z"/></g></g><g id="c-14"><g id="e-16"><path id="a-21" class="cls-2" d="M232.94,212.46l9.62,29.6-25.18-18.3h31.13l-25.18,18.3,9.62-29.6Z"/></g></g></g><g id="c-15"><g id="e-17"><path id="a-22" class="cls-2" d="M300.31,212.46l9.62,29.6-25.18-18.3h31.13l-25.18,18.3,9.62-29.6Z"/></g></g><g id="e-18"><path id="a-23" class="cls-2" d="M367.68,212.46l9.62,29.6-25.18-18.3h31.13l-25.18,18.3,9.62-29.6Z"/></g><g id="b-6"><path id="a-24" class="cls-2" d="M64.52,179.73l9.62,29.6-25.18-18.3h31.13l-25.18,18.3,9.62-29.6Z"/></g><g id="b-7"><path id="a-25" class="cls-2" d="M131.89,179.73l9.62,29.6-25.18-18.3h31.13l-25.18,18.3,9.62-29.6Z"/></g><g id="b-8"><path id="a-26" class="cls-2" d="M199.26,179.73l9.62,29.6-25.18-18.3h31.13l-25.18,18.3,9.62-29.6Z"/></g><g id="b-9"><path id="a-27" class="cls-2" d="M266.62,179.73l9.62,29.6-25.18-18.3h31.13l-25.18,18.3,9.62-29.6Z"/></g><g id="b-10"><path id="a-28" class="cls-2" d="M333.99,179.73l9.62,29.6-25.18-18.3h31.13l-25.18,18.3,9.62-29.6Z"/></g><g id="c-16"><g id="e-19"><path id="a-29" class="cls-2" d="M30.83,147l9.62,29.6-25.18-18.3h31.13l-25.18,18.3,9.62-29.6Z"/></g></g><g id="c-17"><g id="e-20"><path id="a-30" class="cls-2" d="M98.2,147l9.62,29.6-25.18-18.3h31.13l-25.18,18.3,9.62-29.6Z"/></g></g><g id="d-4"><g id="c-18"><g id="e-21"><path id="a-31" class="cls-2" d="M165.57,147l9.62,29.6-25.18-18.3h31.13l-25.18,18.3,9.62-29.6Z"/></g></g><g id="c-19"><g id="e-22"><path id="a-32" class="cls-2" d="M232.94,147l9.62,29.6-25.18-18.3h31.13l-25.18,18.3,9.62-29.6Z"/></g></g></g><g id="c-20"><g id="e-23"><path id="a-33" class="cls-2" d="M300.31,147l9.62,29.6-25.18-18.3h31.13l-25.18,18.3,9.62-29.6Z"/></g></g><g id="e-24"><path id="a-34" class="cls-2" d="M367.68,147l9.62,29.6-25.18-18.3h31.13l-25.18,18.3,9.62-29.6Z"/></g><g id="b-11"><path id="a-35" class="cls-2" d="M64.52,114.27l9.62,29.6-25.18-18.3h31.13l-25.18,18.3,9.62-29.6Z"/></g><g id="b-12"><path id="a-36" class="cls-2" d="M131.89,114.27l9.62,29.6-25.18-18.3h31.13l-25.18,18.3,9.62-29.6Z"/></g><g id="b-13"><path id="a-37" class="cls-2" d="M199.26,114.27l9.62,29.6-25.18-18.3h31.13l-25.18,18.3,9.62-29.6Z"/></g><g id="b-14"><path id="a-38" class="cls-2" d="M266.62,114.27l9.62,29.6-25.18-18.3h31.13l-25.18,18.3,9.62-29.6Z"/></g><g id="b-15"><path id="a-39" class="cls-2" d="M333.99,114.27l9.62,29.6-25.18-18.3h31.13l-25.18,18.3,9.62-29.6Z"/></g><g id="c-21"><g id="e-25"><path id="a-40" class="cls-2" d="M30.83,81.55l9.62,29.6-25.18-18.3h31.13l-25.18,18.3,9.62-29.6Z"/></g></g><g id="c-22"><g id="e-26"><path id="a-41" class="cls-2" d="M98.2,81.55l9.62,29.6-25.18-18.3h31.13l-25.18,18.3,9.62-29.6Z"/></g></g><g id="d-5"><g id="c-23"><g id="e-27"><path id="a-42" class="cls-2" d="M165.57,81.55l9.62,29.6-25.18-18.3h31.13l-25.18,18.3,9.62-29.6Z"/></g></g><g id="c-24"><g id="e-28"><path id="a-43" class="cls-2" d="M232.94,81.55l9.62,29.6-25.18-18.3h31.13l-25.18,18.3,9.62-29.6Z"/></g></g></g><g id="c-25"><g id="e-29"><path id="a-44" class="cls-2" d="M300.31,81.55l9.62,29.6-25.18-18.3h31.13l-25.18,18.3,9.62-29.6Z"/></g></g><g id="e-30"><path id="a-45" class="cls-2" d="M367.68,81.55l9.62,29.6-25.18-18.3h31.13l-25.18,18.3,9.62-29.6Z"/></g><g id="b-16"><path id="a-46" class="cls-2" d="M64.52,48.82l9.62,29.6-25.18-18.3h31.13l-25.18,18.3,9.62-29.6Z"/></g><g id="b-17"><path id="a-47" class="cls-2" d="M131.89,48.82l9.62,29.6-25.18-18.3h31.13l-25.18,18.3,9.62-29.6Z"/></g><g id="b-18"><path id="a-48" class="cls-2" d="M199.26,48.82l9.62,29.6-25.18-18.3h31.13l-25.18,18.3,9.62-29.6Z"/></g><g id="b-19"><path id="a-49" class="cls-2" d="M266.62,48.82l9.62,29.6-25.18-18.3h31.13l-25.18,18.3,9.62-29.6Z"/></g><g id="b-20"><path id="a-50" class="cls-2" d="M333.99,48.82l9.62,29.6-25.18-18.3h31.13l-25.18,18.3,9.62-29.6Z"/></g></svg>