<?xml version="1.0" encoding="UTF-8"?><svg id="_色修正" xmlns="http://www.w3.org/2000/svg" viewBox="0 0 900 600"><defs><style>.cls-1{fill:#fff;}.cls-1,.cls-2{stroke-width:0px;}.cls-2{fill:#00bbe6;}</style></defs><rect class="cls-2" y="0" width="900" height="600"/><rect class="cls-1" y="200" width="900" height="200"/><g id="cone"><polygon id="triangle" class="cls-2" points="450 272.25 440.52 301.43 455.11 306.17 450 272.25"/><g id="use12"><polygon id="triangle-2" class="cls-2" points="450 272.25 459.48 301.43 444.89 306.17 450 272.25"/></g></g><g id="use14"><g id="cone-2"><polygon id="triangle-3" class="cls-2" points="479.17 293.45 448.5 293.45 448.5 308.79 479.17 293.45"/><g id="use12-2"><polygon id="triangle-4" class="cls-2" points="479.17 293.45 454.36 311.48 445.34 299.07 479.17 293.45"/></g></g></g><g id="use16"><g id="cone-3"><polygon id="triangle-5" class="cls-2" points="420.83 293.45 445.64 311.48 454.66 299.07 420.83 293.45"/><g id="use12-3"><polygon id="triangle-6" class="cls-2" points="420.83 293.45 451.5 293.45 451.5 308.79 420.83 293.45"/></g></g></g><g id="use18"><g id="cone-4"><polygon id="triangle-7" class="cls-2" points="468.03 327.75 458.55 298.57 443.96 303.31 468.03 327.75"/><g id="use12-4"><polygon id="triangle-8" class="cls-2" points="468.03 327.75 443.21 309.72 452.23 297.31 468.03 327.75"/></g></g></g><g id="use20"><g id="cone-5"><polygon id="triangle-9" class="cls-2" points="431.97 327.75 456.79 309.72 447.77 297.31 431.97 327.75"/><g id="use12-5"><polygon id="triangle-10" class="cls-2" points="431.97 327.75 441.45 298.57 456.04 303.31 431.97 327.75"/></g></g></g><g id="star"><g id="cone-6"><polygon id="triangle-11" class="cls-2" points="530.81 212.87 521.33 242.04 535.92 246.78 530.81 212.87"/><g id="use12-6"><polygon id="triangle-12" class="cls-2" points="530.81 212.87 540.29 242.04 525.7 246.78 530.81 212.87"/></g></g><g id="use14-2"><g id="cone-7"><polygon id="triangle-13" class="cls-2" points="559.98 234.06 529.31 234.06 529.31 249.4 559.98 234.06"/><g id="use12-7"><polygon id="triangle-14" class="cls-2" points="559.98 234.06 535.16 252.09 526.15 239.68 559.98 234.06"/></g></g></g><g id="use16-2"><g id="cone-8"><polygon id="triangle-15" class="cls-2" points="501.63 234.06 526.45 252.09 535.47 239.68 501.63 234.06"/><g id="use12-8"><polygon id="triangle-16" class="cls-2" points="501.63 234.06 532.31 234.06 532.31 249.4 501.63 234.06"/></g></g></g><g id="use18-2"><g id="cone-9"><polygon id="triangle-17" class="cls-2" points="548.84 268.36 539.36 239.18 524.77 243.92 548.84 268.36"/><g id="use12-9"><polygon id="triangle-18" class="cls-2" points="548.84 268.36 524.02 250.33 533.04 237.92 548.84 268.36"/></g></g></g><g id="use20-2"><g id="cone-10"><polygon id="triangle-19" class="cls-2" points="512.78 268.36 537.59 250.33 528.58 237.92 512.78 268.36"/><g id="use12-10"><polygon id="triangle-20" class="cls-2" points="512.78 268.36 522.26 239.18 536.84 243.92 512.78 268.36"/></g></g></g></g><g id="star-2"><g id="cone-11"><polygon id="triangle-21" class="cls-2" points="369.19 212.87 359.71 242.04 374.3 246.78 369.19 212.87"/><g id="use12-11"><polygon id="triangle-22" class="cls-2" points="369.19 212.87 378.67 242.04 364.08 246.78 369.19 212.87"/></g></g><g id="use14-3"><g id="cone-12"><polygon id="triangle-23" class="cls-2" points="398.37 234.06 367.69 234.06 367.69 249.4 398.37 234.06"/><g id="use12-12"><polygon id="triangle-24" class="cls-2" points="398.37 234.06 373.55 252.09 364.53 239.68 398.37 234.06"/></g></g></g><g id="use16-3"><g id="cone-13"><polygon id="triangle-25" class="cls-2" points="340.02 234.06 364.84 252.09 373.85 239.68 340.02 234.06"/><g id="use12-13"><polygon id="triangle-26" class="cls-2" points="340.02 234.06 370.69 234.06 370.69 249.4 340.02 234.06"/></g></g></g><g id="use18-3"><g id="cone-14"><polygon id="triangle-27" class="cls-2" points="387.22 268.36 377.74 239.18 363.16 243.92 387.22 268.36"/><g id="use12-14"><polygon id="triangle-28" class="cls-2" points="387.22 268.36 362.41 250.33 371.42 237.92 387.22 268.36"/></g></g></g><g id="use20-3"><g id="cone-15"><polygon id="triangle-29" class="cls-2" points="351.16 268.36 375.98 250.33 366.96 237.92 351.16 268.36"/><g id="use12-15"><polygon id="triangle-30" class="cls-2" points="351.16 268.36 360.64 239.18 375.23 243.92 351.16 268.36"/></g></g></g></g><g id="star-3"><g id="cone-16"><polygon id="triangle-31" class="cls-2" points="530.81 331.64 521.33 360.82 535.92 365.56 530.81 331.64"/><g id="use12-16"><polygon id="triangle-32" class="cls-2" points="530.81 331.64 540.29 360.82 525.7 365.56 530.81 331.64"/></g></g><g id="use14-4"><g id="cone-17"><polygon id="triangle-33" class="cls-2" points="559.98 352.84 529.31 352.84 529.31 368.18 559.98 352.84"/><g id="use12-17"><polygon id="triangle-34" class="cls-2" points="559.98 352.84 535.16 370.87 526.15 358.46 559.98 352.84"/></g></g></g><g id="use16-4"><g id="cone-18"><polygon id="triangle-35" class="cls-2" points="501.63 352.84 526.45 370.87 535.47 358.46 501.63 352.84"/><g id="use12-18"><polygon id="triangle-36" class="cls-2" points="501.63 352.84 532.31 352.84 532.31 368.18 501.63 352.84"/></g></g></g><g id="use18-4"><g id="cone-19"><polygon id="triangle-37" class="cls-2" points="548.84 387.13 539.36 357.96 524.77 362.7 548.84 387.13"/><g id="use12-19"><polygon id="triangle-38" class="cls-2" points="548.84 387.13 524.02 369.1 533.04 356.7 548.84 387.13"/></g></g></g><g id="use20-4"><g id="cone-20"><polygon id="triangle-39" class="cls-2" points="512.78 387.13 537.59 369.1 528.58 356.7 512.78 387.13"/><g id="use12-20"><polygon id="triangle-40" class="cls-2" points="512.78 387.13 522.26 357.96 536.84 362.7 512.78 387.13"/></g></g></g></g><g id="star-4"><g id="cone-21"><polygon id="triangle-41" class="cls-2" points="369.19 331.64 359.71 360.82 374.3 365.56 369.19 331.64"/><g id="use12-21"><polygon id="triangle-42" class="cls-2" points="369.19 331.64 378.67 360.82 364.08 365.56 369.19 331.64"/></g></g><g id="use14-5"><g id="cone-22"><polygon id="triangle-43" class="cls-2" points="398.37 352.84 367.69 352.84 367.69 368.18 398.37 352.84"/><g id="use12-22"><polygon id="triangle-44" class="cls-2" points="398.37 352.84 373.55 370.87 364.53 358.46 398.37 352.84"/></g></g></g><g id="use16-5"><g id="cone-23"><polygon id="triangle-45" class="cls-2" points="340.02 352.84 364.84 370.87 373.85 358.46 340.02 352.84"/><g id="use12-23"><polygon id="triangle-46" class="cls-2" points="340.02 352.84 370.69 352.84 370.69 368.18 340.02 352.84"/></g></g></g><g id="use18-5"><g id="cone-24"><polygon id="triangle-47" class="cls-2" points="387.22 387.13 377.74 357.96 363.16 362.7 387.22 387.13"/><g id="use12-24"><polygon id="triangle-48" class="cls-2" points="387.22 387.13 362.41 369.1 371.42 356.7 387.22 387.13"/></g></g></g><g id="use20-5"><g id="cone-25"><polygon id="triangle-49" class="cls-2" points="351.16 387.13 375.98 369.1 366.96 356.7 351.16 387.13"/><g id="use12-25"><polygon id="triangle-50" class="cls-2" points="351.16 387.13 360.64 357.96 375.23 362.7 351.16 387.13"/></g></g></g></g></svg>