<?xml version="1.0" encoding="UTF-8"?><svg id="_色修正" xmlns="http://www.w3.org/2000/svg" xmlns:xlink="http://www.w3.org/1999/xlink" viewBox="0 0 900 600"><defs><style>.cls-1{clip-path:url(#clippath);}.cls-2{fill:none;}.cls-2,.cls-3,.cls-4,.cls-5,.cls-6,.cls-7,.cls-8{stroke-width:0px;}.cls-9{clip-path:url(#clippath-1);}.cls-3{fill-rule:evenodd;}.cls-3,.cls-4{fill:#1a923b;}.cls-5{fill:#fff;}.cls-6{fill:#f1d522;}.cls-7{fill:#004385;}.cls-8{fill:#008c3c;}</style><clipPath id="clippath"><circle class="cls-2" cx="450" cy="300" r="157.5"/></clipPath><clipPath id="clippath-1"><path class="cls-2" d="M498.85,278.73l5.98-13.76,12.38,5.38-5.98,13.76-12.38-5.38ZM509.06,272.18l-1.03,2.36,6.19,2.69,1.03-2.36-6.19-2.69Z"/></clipPath></defs><rect class="cls-8" width="900" height="600"/><path class="cls-6" d="M76.5,300l373.5,227.14,373.5-227.14L450,72.86,76.5,300Z"/><circle class="cls-7" cx="450" cy="300" r="157.5"/><g class="cls-1"><path class="cls-5" d="M-22.5,615c0-211.25,171.25-382.5,382.5-382.5s382.5,171.25,382.5,382.5h-22.5c0-198.82-161.18-360-360-360S0,416.18,0,615h-22.5Z"/></g><path id="O" class="cls-3" d="M315.67,253.96c3.7-.45,6.29-4.16,5.79-8.27-.5-4.11-3.91-7.08-7.61-6.62-3.7.45-6.29,4.16-5.79,8.27.5,4.11,3.91,7.08,7.61,6.62M315.33,251.2c2.17-.27,3.68-2.58,3.36-5.16-.32-2.58-2.34-4.46-4.51-4.2s-3.68,2.58-3.36,5.16c.32,2.58,2.34,4.46,4.51,4.2"/><g id="R"><path id="P" class="cls-3" d="M327.89,252.61l2.78-.19-.39-5.56,5.99-.42c2.6-.18,4.56-2.43,4.37-5.03s-2.43-4.56-5.03-4.37l-8.55.6.83,14.98ZM330.09,244.08l5.77-.4c1.06-.07,1.86-1,1.79-2.06s-1-1.86-2.06-1.79l-5.77.4.27,3.85Z"/><path class="cls-4" d="M340.61,251.72c-.15-2.14-.48-6.84-3.68-6.62l-4.06.28c4.7-.33,5.03,4.37,5.18,6.51"/></g><path id="D" class="cls-3" d="M346.9,251.42l7.07-.12c3.55-.06,6.38-2.99,6.32-6.54l-.04-2.14c-.06-3.55-2.99-6.38-6.54-6.32l-7.07.12.26,15ZM349.64,248.59l4.07-.07c2.25-.04,4.04-1.89,4-4.14l-.02-1.29c-.04-2.25-1.89-4.04-4.14-4l-4.07.07.16,9.43Z"/><path id="E" class="cls-4" d="M365.95,251.24l13.49.47.1-2.78-10.92-.38.13-3.85,8.57.3.09-2.57-8.57-.3.1-3,10.28.36.1-2.78-12.85-.45-.52,14.99Z"/><path id="M" class="cls-4" d="M384.98,252.05l2.56.22.9-10.25,2.09,10.51,2.35.21,3.89-9.99-.9,10.25,2.56.22,1.31-14.94-3.74-.33-3.89,9.99-2.09-10.51-3.74-.33-1.31,14.94Z"/><path id="e" class="cls-4" d="M416.06,255.55l11.09,1.91.44-2.53-8.55-1.47.58-3.38,6.97,1.2.44-2.53-6.97-1.2.4-2.32,8.29,1.42.44-2.53-10.82-1.86-2.29,13.31Z"/><path id="P-2" class="cls-3" d="M444.54,261.15l2.7.7,1.39-5.39,5.81,1.5c2.52.65,5.09-.86,5.74-3.38s-.86-5.09-3.38-5.74l-8.3-2.15-3.96,14.47ZM449.33,253.75l5.6,1.45c1.03.27,2.08-.35,2.35-1.38s-.35-2.08-1.38-2.35l-5.6-1.45-.97,3.73Z"/><g id="R-2"><path id="P-3" class="cls-3" d="M462.94,266.06l2.66.84,1.68-5.31,5.72,1.8c2.48.78,5.13-.6,5.91-3.08s-.6-5.13-3.08-5.91l-8.17-2.58-4.71,14.24ZM468.11,258.92l5.52,1.74c1.02.32,2.1-.24,2.42-1.26s-.24-2.1-1.26-2.42l-5.52-1.74-1.16,3.68Z"/><path class="cls-4" d="M475.1,269.89c.64-2.04,2.06-6.54-1-7.51l-3.88-1.22c4.5,1.42,3.08,5.91,2.43,7.96"/></g><path id="O-2" class="cls-3" d="M487.39,274.29c3.49,1.31,7.5-.78,8.95-4.66s-.2-8.08-3.7-9.39-7.5.78-8.95,4.66c-1.45,3.88.2,8.08,3.7,9.39M488.36,271.68c2.05.77,4.45-.59,5.36-3.03s-.01-5.04-2.06-5.8-4.45.59-5.36,3.03.01,5.04,2.06,5.8"/><g id="G"><g class="cls-9"><path id="O-3" class="cls-3" d="M505.04,281.42c3.42,1.49,7.53-.39,9.18-4.19,1.65-3.8.22-8.08-3.2-9.57s-7.53.39-9.18,4.19c-1.65,3.8-.22,8.08,3.2,9.57M506.16,278.86c2.01.87,4.48-.35,5.52-2.74,1.04-2.39.25-5.03-1.76-5.9-2.01-.87-4.48.35-5.52,2.74s-.25,5.03,1.76,5.9"/></g><rect class="cls-4" x="510.12" y="274.24" width="2.14" height="5.68" transform="translate(53.25 635.39) rotate(-66.5)"/><rect class="cls-4" x="508" y="279.17" width="7.5" height="2.14" transform="translate(50.69 637.8) rotate(-66.5)"/></g><g id="R-3"><path id="P-4" class="cls-3" d="M516.26,286.46l2.49,1.24,2.49-4.99,5.37,2.68c2.33,1.16,5.16.21,6.32-2.12,1.16-2.33.21-5.16-2.12-6.32l-7.67-3.82-6.88,13.33ZM522.49,280.22l5.18,2.58c.95.48,2.11.09,2.59-.87s.09-2.11-.87-2.59l-5.18-2.58-1.72,3.45Z"/><path class="cls-4" d="M527.67,292.14c.96-1.92,3.06-6.14.18-7.57l-3.64-1.82c4.22,2.1,2.12,6.32,1.16,8.24"/></g><path id="E-2" class="cls-4" d="M533.24,295.08l11.75,6.65,1.37-2.42-9.51-5.38,1.9-3.36,7.46,4.22,1.27-2.24-7.46-4.22,1.48-2.61,8.95,5.06,1.37-2.42-11.19-6.33-7.39,13.06Z"/><path id="S" class="cls-4" d="M555.13,302.43c-.81,1.27.01,2.67,1.82,3.83s3.04,1.11,3.56.3c1.64-2.58-7.84-6.33-4.92-10.82,2.52-3.86,6.83-.86,8.46.18,1.63,1.04,4.24,3.72,2.21,6.81l-2.76-1.76c.86-1.36-.08-2.66-1.53-3.58s-2.54-1.3-3.37.01c-1.4,2.09,7.9,6.05,5.05,10.52-2.1,3.3-5.76,1.86-8.2.3-2.08-1.32-5.18-4.45-3.16-7.6l2.85,1.81Z"/><path id="S-2" class="cls-4" d="M571.22,313.07c-.87,1.22-.13,2.67,1.62,3.92,1.74,1.24,2.98,1.27,3.54.48,1.77-2.49-7.5-6.73-4.35-11.06,2.72-3.72,6.87-.5,8.44.62,1.57,1.12,4.04,3.93,1.85,6.91l-2.66-1.9c.93-1.31.05-2.66-1.34-3.65-1.35-.96-2.47-1.43-3.37-.17-1.51,2.02,7.57,6.45,4.49,10.77-2.27,3.18-5.85,1.55-8.2-.13-2.01-1.43-4.94-4.71-2.76-7.76l2.75,1.96Z"/><path id="O-4" class="cls-3" d="M586.44,330.33c2.92,2.32,7.37,1.57,9.95-1.67s2.3-7.75-.61-10.07c-2.92-2.32-7.37-1.57-9.95,1.67-2.58,3.24-2.3,7.75.61,10.07M588.17,328.15c1.71,1.36,4.42.82,6.04-1.22,1.62-2.04,1.55-4.79-.17-6.16-1.71-1.36-4.42-.82-6.04,1.22-1.62,2.04-1.55,4.79.17,6.16"/><g id="_αCMi"><g id="star1"><g id="star"><g id="c"><path id="t" class="cls-5" d="M321.43,264.96l-2.09,6.42,3.21,1.04"/><path id="t-2" class="cls-5" d="M321.43,264.96l2.09,6.42-3.21,1.04"/></g><g id="c-2"><path id="t-3" class="cls-5" d="M327.85,269.63h-6.75v3.38"/><path id="t-4" class="cls-5" d="M327.85,269.63l-5.46,3.97-1.98-2.73"/></g><g id="c-3"><path id="t-5" class="cls-5" d="M315.01,269.63l5.46,3.97,1.98-2.73"/><path id="t-6" class="cls-5" d="M315.01,269.63h6.75v3.38"/></g><g id="c-4"><path id="t-7" class="cls-5" d="M325.4,277.18l-2.09-6.42-3.21,1.04"/><path id="t-8" class="cls-5" d="M325.4,277.18l-5.46-3.97,1.98-2.73"/></g><g id="c-5"><path id="t-9" class="cls-5" d="M317.46,277.18l5.46-3.97-1.98-2.73"/><path id="t-10" class="cls-5" d="M317.46,277.18l2.09-6.42,3.21,1.04"/></g></g></g></g><g id="_αCMa"><g id="star1-2"><g id="star-2"><g id="c-6"><path id="t-11" class="cls-5" d="M335.36,331.18l-2.09,6.42,3.21,1.04"/><path id="t-12" class="cls-5" d="M335.36,331.18l2.09,6.42-3.21,1.04"/></g><g id="c-7"><path id="t-13" class="cls-5" d="M341.78,335.84h-6.75v3.38"/><path id="t-14" class="cls-5" d="M341.78,335.84l-5.46,3.97-1.98-2.73"/></g><g id="c-8"><path id="t-15" class="cls-5" d="M328.94,335.84l5.46,3.97,1.98-2.73"/><path id="t-16" class="cls-5" d="M328.94,335.84h6.75v3.38"/></g><g id="c-9"><path id="t-17" class="cls-5" d="M339.32,343.39l-2.09-6.42-3.21,1.04"/><path id="t-18" class="cls-5" d="M339.32,343.39l-5.46-3.97,1.98-2.73"/></g><g id="c-10"><path id="t-19" class="cls-5" d="M331.39,343.39l5.46-3.97-1.98-2.73"/><path id="t-20" class="cls-5" d="M331.39,343.39l2.09-6.42,3.21,1.04"/></g></g></g></g><g id="_βCMa"><g id="star2"><g id="star-3"><g id="c-11"><path id="t-21" class="cls-5" d="M316.07,346.45l-1.74,5.35,2.67.87"/><path id="t-22" class="cls-5" d="M316.07,346.45l1.74,5.35-2.67.87"/></g><g id="c-12"><path id="t-23" class="cls-5" d="M321.42,350.33h-5.63v2.81"/><path id="t-24" class="cls-5" d="M321.42,350.33l-4.55,3.31-1.65-2.28"/></g><g id="c-13"><path id="t-25" class="cls-5" d="M310.72,350.33l4.55,3.31,1.65-2.28"/><path id="t-26" class="cls-5" d="M310.72,350.33h5.63v2.81"/></g><g id="c-14"><path id="t-27" class="cls-5" d="M319.38,356.62l-1.74-5.35-2.67.87"/><path id="t-28" class="cls-5" d="M319.38,356.62l-4.55-3.31,1.65-2.28"/></g><g id="c-15"><path id="t-29" class="cls-5" d="M312.77,356.62l4.55-3.31-1.65-2.28"/><path id="t-30" class="cls-5" d="M312.77,356.62l1.74-5.35,2.67.87"/></g></g></g></g><g id="_γCMa"><g id="star4"><g id="star-4"><g id="c-16"><path id="t-31" class="cls-5" d="M350.79,325.07l-.99,3.06,1.53.5"/><path id="t-32" class="cls-5" d="M350.79,325.07l.99,3.06-1.53.5"/></g><g id="c-17"><path id="t-33" class="cls-5" d="M353.84,327.29h-3.21v1.61"/><path id="t-34" class="cls-5" d="M353.84,327.29l-2.6,1.89-.94-1.3"/></g><g id="c-18"><path id="t-35" class="cls-5" d="M347.73,327.29l2.6,1.89.94-1.3"/><path id="t-36" class="cls-5" d="M347.73,327.29h3.21v1.61"/></g><g id="c-19"><path id="t-37" class="cls-5" d="M352.68,330.89l-.99-3.06-1.53.5"/><path id="t-38" class="cls-5" d="M352.68,330.89l-2.6-1.89.94-1.3"/></g><g id="c-20"><path id="t-39" class="cls-5" d="M348.9,330.89l2.6-1.89-.94-1.3"/><path id="t-40" class="cls-5" d="M348.9,330.89l.99-3.06,1.53.5"/></g></g></g></g><g id="_δCMa"><g id="star2-2"><g id="star-5"><g id="c-21"><path id="t-41" class="cls-5" d="M368.14,347.95l-1.74,5.35,2.67.87"/><path id="t-42" class="cls-5" d="M368.14,347.95l1.74,5.35-2.67.87"/></g><g id="c-22"><path id="t-43" class="cls-5" d="M373.49,351.83h-5.63v2.81"/><path id="t-44" class="cls-5" d="M373.49,351.83l-4.55,3.31-1.65-2.28"/></g><g id="c-23"><path id="t-45" class="cls-5" d="M362.79,351.83l4.55,3.31,1.65-2.28"/><path id="t-46" class="cls-5" d="M362.79,351.83h5.63v2.81"/></g><g id="c-24"><path id="t-47" class="cls-5" d="M371.45,358.12l-1.74-5.35-2.67.87"/><path id="t-48" class="cls-5" d="M371.45,358.12l-4.55-3.31,1.65-2.28"/></g><g id="c-25"><path id="t-49" class="cls-5" d="M364.84,358.12l4.55-3.31-1.65-2.28"/><path id="t-50" class="cls-5" d="M364.84,358.12l1.74-5.35,2.67.87"/></g></g></g></g><g id="_εCMa"><g id="star3"><g id="star-6"><g id="c-26"><path id="t-51" class="cls-5" d="M363.43,364.71l-1.39,4.28,2.14.7"/><path id="t-52" class="cls-5" d="M363.43,364.71l1.39,4.28-2.14.7"/></g><g id="c-27"><path id="t-53" class="cls-5" d="M367.71,367.82h-4.5v2.25"/><path id="t-54" class="cls-5" d="M367.71,367.82l-3.64,2.65-1.32-1.82"/></g><g id="c-28"><path id="t-55" class="cls-5" d="M359.15,367.82l3.64,2.65,1.32-1.82"/><path id="t-56" class="cls-5" d="M359.15,367.82h4.5v2.25"/></g><g id="c-29"><path id="t-57" class="cls-5" d="M366.07,372.85l-1.39-4.28-2.14.7"/><path id="t-58" class="cls-5" d="M366.07,372.85l-3.64-2.65,1.32-1.82"/></g><g id="c-30"><path id="t-59" class="cls-5" d="M360.78,372.85l3.64-2.65-1.32-1.82"/><path id="t-60" class="cls-5" d="M360.78,372.85l1.39-4.28,2.14.7"/></g></g></g></g><g id="_αVir"><g id="star1-3"><g id="star-7"><g id="c-31"><path id="t-61" class="cls-5" d="M498.86,244.39l-2.09,6.42,3.21,1.04"/><path id="t-62" class="cls-5" d="M498.86,244.39l2.09,6.42-3.21,1.04"/></g><g id="c-32"><path id="t-63" class="cls-5" d="M505.28,249.06h-6.75v3.38"/><path id="t-64" class="cls-5" d="M505.28,249.06l-5.46,3.97-1.98-2.73"/></g><g id="c-33"><path id="t-65" class="cls-5" d="M492.44,249.06l5.46,3.97,1.98-2.73"/><path id="t-66" class="cls-5" d="M492.44,249.06h6.75v3.38"/></g><g id="c-34"><path id="t-67" class="cls-5" d="M502.82,256.6l-2.09-6.42-3.21,1.04"/><path id="t-68" class="cls-5" d="M502.82,256.6l-5.46-3.97,1.98-2.73"/></g><g id="c-35"><path id="t-69" class="cls-5" d="M494.89,256.6l5.46-3.97-1.98-2.73"/><path id="t-70" class="cls-5" d="M494.89,256.6l2.09-6.42,3.21,1.04"/></g></g></g></g><g id="_αSco"><g id="star1-4"><g id="star-8"><g id="c-36"><path id="t-71" class="cls-5" d="M560.36,348.54l-2.09,6.42,3.21,1.04"/><path id="t-72" class="cls-5" d="M560.36,348.54l2.09,6.42-3.21,1.04"/></g><g id="c-37"><path id="t-73" class="cls-5" d="M566.78,353.2h-6.75v3.38"/><path id="t-74" class="cls-5" d="M566.78,353.2l-5.46,3.97-1.98-2.73"/></g><g id="c-38"><path id="t-75" class="cls-5" d="M553.94,353.2l5.46,3.97,1.98-2.73"/><path id="t-76" class="cls-5" d="M553.94,353.2h6.75v3.38"/></g><g id="c-39"><path id="t-77" class="cls-5" d="M564.32,360.75l-2.09-6.42-3.21,1.04"/><path id="t-78" class="cls-5" d="M564.32,360.75l-5.46-3.97,1.98-2.73"/></g><g id="c-40"><path id="t-79" class="cls-5" d="M556.39,360.75l5.46-3.97-1.98-2.73"/><path id="t-80" class="cls-5" d="M556.39,360.75l2.09-6.42,3.21,1.04"/></g></g></g></g><g id="_βSco"><g id="star3-2"><g id="star-9"><g id="c-41"><path id="t-81" class="cls-5" d="M582.21,352.29l-1.39,4.28,2.14.7"/><path id="t-82" class="cls-5" d="M582.21,352.29l1.39,4.28-2.14.7"/></g><g id="c-42"><path id="t-83" class="cls-5" d="M586.49,355.4h-4.5v2.25"/><path id="t-84" class="cls-5" d="M586.49,355.4l-3.64,2.65-1.32-1.82"/></g><g id="c-43"><path id="t-85" class="cls-5" d="M577.93,355.4l3.64,2.65,1.32-1.82"/><path id="t-86" class="cls-5" d="M577.93,355.4h4.5v2.25"/></g><g id="c-44"><path id="t-87" class="cls-5" d="M584.86,360.43l-1.39-4.28-2.14.7"/><path id="t-88" class="cls-5" d="M584.86,360.43l-3.64-2.65,1.32-1.82"/></g><g id="c-45"><path id="t-89" class="cls-5" d="M579.57,360.43l3.64-2.65-1.32-1.82"/><path id="t-90" class="cls-5" d="M579.57,360.43l1.39-4.28,2.14.7"/></g></g></g></g><g id="_εSco"><g id="star2-3"><g id="star-10"><g id="c-46"><path id="t-91" class="cls-5" d="M566.79,363.59l-1.74,5.35,2.67.87"/><path id="t-92" class="cls-5" d="M566.79,363.59l1.74,5.35-2.67.87"/></g><g id="c-47"><path id="t-93" class="cls-5" d="M572.14,367.48h-5.63v2.81"/><path id="t-94" class="cls-5" d="M572.14,367.48l-4.55,3.31-1.65-2.28"/></g><g id="c-48"><path id="t-95" class="cls-5" d="M561.44,367.48l4.55,3.31,1.65-2.28"/><path id="t-96" class="cls-5" d="M561.44,367.48h5.63v2.81"/></g><g id="c-49"><path id="t-97" class="cls-5" d="M570.09,373.77l-1.74-5.35-2.67.87"/><path id="t-98" class="cls-5" d="M570.09,373.77l-4.55-3.31,1.65-2.28"/></g><g id="c-50"><path id="t-99" class="cls-5" d="M563.48,373.77l4.55-3.31-1.65-2.28"/><path id="t-100" class="cls-5" d="M563.48,373.77l1.74-5.35,2.67.87"/></g></g></g></g><g id="_θSco"><g id="star2-4"><g id="star-11"><g id="c-51"><path id="t-101" class="cls-5" d="M528.86,396.59l-1.74,5.35,2.67.87"/><path id="t-102" class="cls-5" d="M528.86,396.59l1.74,5.35-2.67.87"/></g><g id="c-52"><path id="t-103" class="cls-5" d="M534.21,400.48h-5.63v2.81"/><path id="t-104" class="cls-5" d="M534.21,400.48l-4.55,3.31-1.65-2.28"/></g><g id="c-53"><path id="t-105" class="cls-5" d="M523.51,400.48l4.55,3.31,1.65-2.28"/><path id="t-106" class="cls-5" d="M523.51,400.48h5.63v2.81"/></g><g id="c-54"><path id="t-107" class="cls-5" d="M532.16,406.77l-1.74-5.35-2.67.87"/><path id="t-108" class="cls-5" d="M532.16,406.77l-4.55-3.31,1.65-2.28"/></g><g id="c-55"><path id="t-109" class="cls-5" d="M525.55,406.77l4.55-3.31-1.65-2.28"/><path id="t-110" class="cls-5" d="M525.55,406.77l1.74-5.35,2.67.87"/></g></g></g></g><g id="_ιSco"><g id="star3-3"><g id="star-12"><g id="c-56"><path id="t-111" class="cls-5" d="M528.64,413.57l-1.39,4.28,2.14.7"/><path id="t-112" class="cls-5" d="M528.64,413.57l1.39,4.28-2.14.7"/></g><g id="c-57"><path id="t-113" class="cls-5" d="M532.92,416.68h-4.5v2.25"/><path id="t-114" class="cls-5" d="M532.92,416.68l-3.64,2.65-1.32-1.82"/></g><g id="c-58"><path id="t-115" class="cls-5" d="M524.36,416.68l3.64,2.65,1.32-1.82"/><path id="t-116" class="cls-5" d="M524.36,416.68h4.5v2.25"/></g><g id="c-59"><path id="t-117" class="cls-5" d="M531.29,421.71l-1.39-4.28-2.14.7"/><path id="t-118" class="cls-5" d="M531.29,421.71l-3.64-2.65,1.32-1.82"/></g><g id="c-60"><path id="t-119" class="cls-5" d="M526,421.71l3.64-2.65-1.32-1.82"/><path id="t-120" class="cls-5" d="M526,421.71l1.39-4.28,2.14.7"/></g></g></g></g><g id="_κSco"><g id="star3-4"><g id="star-13"><g id="c-61"><path id="t-121" class="cls-5" d="M544.5,385.29l-1.39,4.28,2.14.7"/><path id="t-122" class="cls-5" d="M544.5,385.29l1.39,4.28-2.14.7"/></g><g id="c-62"><path id="t-123" class="cls-5" d="M548.78,388.4h-4.5v2.25"/><path id="t-124" class="cls-5" d="M548.78,388.4l-3.64,2.65-1.32-1.82"/></g><g id="c-63"><path id="t-125" class="cls-5" d="M540.22,388.4l3.64,2.65,1.32-1.82"/><path id="t-126" class="cls-5" d="M540.22,388.4h4.5v2.25"/></g><g id="c-64"><path id="t-127" class="cls-5" d="M547.15,393.43l-1.39-4.28-2.14.7"/><path id="t-128" class="cls-5" d="M547.15,393.43l-3.64-2.65,1.32-1.82"/></g><g id="c-65"><path id="t-129" class="cls-5" d="M541.85,393.43l3.64-2.65-1.32-1.82"/><path id="t-130" class="cls-5" d="M541.85,393.43l1.39-4.28,2.14.7"/></g></g></g></g><g id="_λSco"><g id="star2-5"><g id="star-14"><g id="c-66"><path id="t-131" class="cls-5" d="M557.14,376.23l-1.74,5.35,2.67.87"/><path id="t-132" class="cls-5" d="M557.14,376.23l1.74,5.35-2.67.87"/></g><g id="c-67"><path id="t-133" class="cls-5" d="M562.49,380.12h-5.63v2.81"/><path id="t-134" class="cls-5" d="M562.49,380.12l-4.55,3.31-1.65-2.28"/></g><g id="c-68"><path id="t-135" class="cls-5" d="M551.79,380.12l4.55,3.31,1.65-2.28"/><path id="t-136" class="cls-5" d="M551.79,380.12h5.63v2.81"/></g><g id="c-69"><path id="t-137" class="cls-5" d="M560.45,386.41l-1.74-5.35-2.67.87"/><path id="t-138" class="cls-5" d="M560.45,386.41l-4.55-3.31,1.65-2.28"/></g><g id="c-70"><path id="t-139" class="cls-5" d="M553.84,386.41l4.55-3.31-1.65-2.28"/><path id="t-140" class="cls-5" d="M553.84,386.41l1.74-5.35,2.67.87"/></g></g></g></g><g id="_μSco"><g id="star3-5"><g id="star-15"><g id="c-71"><path id="t-141" class="cls-5" d="M528.21,382.29l-1.39,4.28,2.14.7"/><path id="t-142" class="cls-5" d="M528.21,382.29l1.39,4.28-2.14.7"/></g><g id="c-72"><path id="t-143" class="cls-5" d="M532.49,385.4h-4.5v2.25"/><path id="t-144" class="cls-5" d="M532.49,385.4l-3.64,2.65-1.32-1.82"/></g><g id="c-73"><path id="t-145" class="cls-5" d="M523.93,385.4l3.64,2.65,1.32-1.82"/><path id="t-146" class="cls-5" d="M523.93,385.4h4.5v2.25"/></g><g id="c-74"><path id="t-147" class="cls-5" d="M530.86,390.43l-1.39-4.28-2.14.7"/><path id="t-148" class="cls-5" d="M530.86,390.43l-3.64-2.65,1.32-1.82"/></g><g id="c-75"><path id="t-149" class="cls-5" d="M525.57,390.43l3.64-2.65-1.32-1.82"/><path id="t-150" class="cls-5" d="M525.57,390.43l1.39-4.28,2.14.7"/></g></g></g></g><g id="_αHya"><g id="star2-6"><g id="star-16"><g id="c-76"><path id="t-151" class="cls-5" d="M390,300.8l-1.74,5.35,2.67.87"/><path id="t-152" class="cls-5" d="M390,300.8l1.74,5.35-2.67.87"/></g><g id="c-77"><path id="t-153" class="cls-5" d="M395.35,304.69h-5.63v2.81"/><path id="t-154" class="cls-5" d="M395.35,304.69l-4.55,3.31-1.65-2.28"/></g><g id="c-78"><path id="t-155" class="cls-5" d="M384.65,304.69l4.55,3.31,1.65-2.28"/><path id="t-156" class="cls-5" d="M384.65,304.69h5.63v2.81"/></g><g id="c-79"><path id="t-157" class="cls-5" d="M393.31,310.98l-1.74-5.35-2.67.87"/><path id="t-158" class="cls-5" d="M393.31,310.98l-4.55-3.31,1.65-2.28"/></g><g id="c-80"><path id="t-159" class="cls-5" d="M386.69,310.98l4.55-3.31-1.65-2.28"/><path id="t-160" class="cls-5" d="M386.69,310.98l1.74-5.35,2.67.87"/></g></g></g></g><g id="_γHya"><g id="star3-6"><g id="star-17"><g id="c-81"><path id="t-161" class="cls-5" d="M492.86,287.57l-1.39,4.28,2.14.7"/><path id="t-162" class="cls-5" d="M492.86,287.57l1.39,4.28-2.14.7"/></g><g id="c-82"><path id="t-163" class="cls-5" d="M497.14,290.68h-4.5v2.25"/><path id="t-164" class="cls-5" d="M497.14,290.68l-3.64,2.65-1.32-1.82"/></g><g id="c-83"><path id="t-165" class="cls-5" d="M488.58,290.68l3.64,2.65,1.32-1.82"/><path id="t-166" class="cls-5" d="M488.58,290.68h4.5v2.25"/></g><g id="c-84"><path id="t-167" class="cls-5" d="M495.5,295.71l-1.39-4.28-2.14.7"/><path id="t-168" class="cls-5" d="M495.5,295.71l-3.64-2.65,1.32-1.82"/></g><g id="c-85"><path id="t-169" class="cls-5" d="M490.21,295.71l3.64-2.65-1.32-1.82"/><path id="t-170" class="cls-5" d="M490.21,295.71l1.39-4.28,2.14.7"/></g></g></g></g><g id="_αCru"><g id="star1-5"><g id="star-18"><g id="c-86"><path id="t-171" class="cls-5" d="M450,363.96l-2.09,6.42,3.21,1.04"/><path id="t-172" class="cls-5" d="M450,363.96l2.09,6.42-3.21,1.04"/></g><g id="c-87"><path id="t-173" class="cls-5" d="M456.42,368.63h-6.75v3.38"/><path id="t-174" class="cls-5" d="M456.42,368.63l-5.46,3.97-1.98-2.73"/></g><g id="c-88"><path id="t-175" class="cls-5" d="M443.58,368.63l5.46,3.97,1.98-2.73"/><path id="t-176" class="cls-5" d="M443.58,368.63h6.75v3.38"/></g><g id="c-89"><path id="t-177" class="cls-5" d="M453.97,376.18l-2.09-6.42-3.21,1.04"/><path id="t-178" class="cls-5" d="M453.97,376.18l-5.46-3.97,1.98-2.73"/></g><g id="c-90"><path id="t-179" class="cls-5" d="M446.03,376.18l5.46-3.97-1.98-2.73"/><path id="t-180" class="cls-5" d="M446.03,376.18l2.09-6.42,3.21,1.04"/></g></g></g></g><g id="_βCru"><g id="star2-7"><g id="star-19"><g id="c-91"><path id="t-181" class="cls-5" d="M468.21,333.8l-1.74,5.35,2.67.87"/><path id="t-182" class="cls-5" d="M468.21,333.8l1.74,5.35-2.67.87"/></g><g id="c-92"><path id="t-183" class="cls-5" d="M473.56,337.69h-5.63v2.81"/><path id="t-184" class="cls-5" d="M473.56,337.69l-4.55,3.31-1.65-2.28"/></g><g id="c-93"><path id="t-185" class="cls-5" d="M462.86,337.69l4.55,3.31,1.65-2.28"/><path id="t-186" class="cls-5" d="M462.86,337.69h5.63v2.81"/></g><g id="c-94"><path id="t-187" class="cls-5" d="M471.52,343.98l-1.74-5.35-2.67.87"/><path id="t-188" class="cls-5" d="M471.52,343.98l-4.55-3.31,1.65-2.28"/></g><g id="c-95"><path id="t-189" class="cls-5" d="M464.91,343.98l4.55-3.31-1.65-2.28"/><path id="t-190" class="cls-5" d="M464.91,343.98l1.74-5.35,2.67.87"/></g></g></g></g><g id="_γCru"><g id="star2-8"><g id="star-20"><g id="c-96"><path id="t-191" class="cls-5" d="M450,319.66l-1.74,5.35,2.67.87"/><path id="t-192" class="cls-5" d="M450,319.66l1.74,5.35-2.67.87"/></g><g id="c-97"><path id="t-193" class="cls-5" d="M455.35,323.55h-5.63v2.81"/><path id="t-194" class="cls-5" d="M455.35,323.55l-4.55,3.31-1.65-2.28"/></g><g id="c-98"><path id="t-195" class="cls-5" d="M444.65,323.55l4.55,3.31,1.65-2.28"/><path id="t-196" class="cls-5" d="M444.65,323.55h5.63v2.81"/></g><g id="c-99"><path id="t-197" class="cls-5" d="M453.31,329.84l-1.74-5.35-2.67.87"/><path id="t-198" class="cls-5" d="M453.31,329.84l-4.55-3.31,1.65-2.28"/></g><g id="c-100"><path id="t-199" class="cls-5" d="M446.69,329.84l4.55-3.31-1.65-2.28"/><path id="t-200" class="cls-5" d="M446.69,329.84l1.74-5.35,2.67.87"/></g></g></g></g><g id="_δCru"><g id="star3-7"><g id="star-21"><g id="c-101"><path id="t-201" class="cls-5" d="M434.14,334.93l-1.39,4.28,2.14.7"/><path id="t-202" class="cls-5" d="M434.14,334.93l1.39,4.28-2.14.7"/></g><g id="c-102"><path id="t-203" class="cls-5" d="M438.42,338.04h-4.5v2.25"/><path id="t-204" class="cls-5" d="M438.42,338.04l-3.64,2.65-1.32-1.82"/></g><g id="c-103"><path id="t-205" class="cls-5" d="M429.86,338.04l3.64,2.65,1.32-1.82"/><path id="t-206" class="cls-5" d="M429.86,338.04h4.5v2.25"/></g><g id="c-104"><path id="t-207" class="cls-5" d="M436.79,343.07l-1.39-4.28-2.14.7"/><path id="t-208" class="cls-5" d="M436.79,343.07l-3.64-2.65,1.32-1.82"/></g><g id="c-105"><path id="t-209" class="cls-5" d="M431.5,343.07l3.64-2.65-1.32-1.82"/><path id="t-210" class="cls-5" d="M431.5,343.07l1.39-4.28,2.14.7"/></g></g></g></g><g id="_εCru"><g id="star4-2"><g id="star-22"><g id="c-106"><path id="t-211" class="cls-5" d="M442.07,347.14l-.99,3.06,1.53.5"/><path id="t-212" class="cls-5" d="M442.07,347.14l.99,3.06-1.53.5"/></g><g id="c-107"><path id="t-213" class="cls-5" d="M445.13,349.36h-3.21v1.61"/><path id="t-214" class="cls-5" d="M445.13,349.36l-2.6,1.89-.94-1.3"/></g><g id="c-108"><path id="t-215" class="cls-5" d="M439.01,349.36l2.6,1.89.94-1.3"/><path id="t-216" class="cls-5" d="M439.01,349.36h3.21v1.61"/></g><g id="c-109"><path id="t-217" class="cls-5" d="M443.96,352.96l-.99-3.06-1.53.5"/><path id="t-218" class="cls-5" d="M443.96,352.96l-2.6-1.89.94-1.3"/></g><g id="c-110"><path id="t-219" class="cls-5" d="M440.18,352.96l2.6-1.89-.94-1.3"/><path id="t-220" class="cls-5" d="M440.18,352.96l.99-3.06,1.53.5"/></g></g></g></g><g id="_αTrA"><g id="star2-9"><g id="star-23"><g id="c-111"><path id="t-221" class="cls-5" d="M497.14,400.45l-1.74,5.35,2.67.87"/><path id="t-222" class="cls-5" d="M497.14,400.45l1.74,5.35-2.67.87"/></g><g id="c-112"><path id="t-223" class="cls-5" d="M502.49,404.33h-5.63v2.81"/><path id="t-224" class="cls-5" d="M502.49,404.33l-4.55,3.31-1.65-2.28"/></g><g id="c-113"><path id="t-225" class="cls-5" d="M491.79,404.33l4.55,3.31,1.65-2.28"/><path id="t-226" class="cls-5" d="M491.79,404.33h5.63v2.81"/></g><g id="c-114"><path id="t-227" class="cls-5" d="M500.45,410.62l-1.74-5.35-2.67.87"/><path id="t-228" class="cls-5" d="M500.45,410.62l-4.55-3.31,1.65-2.28"/></g><g id="c-115"><path id="t-229" class="cls-5" d="M493.84,410.62l4.55-3.31-1.65-2.28"/><path id="t-230" class="cls-5" d="M493.84,410.62l1.74-5.35,2.67.87"/></g></g></g></g><g id="_βTrA"><g id="star3-8"><g id="star-24"><g id="c-116"><path id="t-231" class="cls-5" d="M510.64,387.64l-1.39,4.28,2.14.7"/><path id="t-232" class="cls-5" d="M510.64,387.64l1.39,4.28-2.14.7"/></g><g id="c-117"><path id="t-233" class="cls-5" d="M514.92,390.75h-4.5v2.25"/><path id="t-234" class="cls-5" d="M514.92,390.75l-3.64,2.65-1.32-1.82"/></g><g id="c-118"><path id="t-235" class="cls-5" d="M506.36,390.75l3.64,2.65,1.32-1.82"/><path id="t-236" class="cls-5" d="M506.36,390.75h4.5v2.25"/></g><g id="c-119"><path id="t-237" class="cls-5" d="M513.29,395.78l-1.39-4.28-2.14.7"/><path id="t-238" class="cls-5" d="M513.29,395.78l-3.64-2.65,1.32-1.82"/></g><g id="c-120"><path id="t-239" class="cls-5" d="M508,395.78l3.64-2.65-1.32-1.82"/><path id="t-240" class="cls-5" d="M508,395.78l1.39-4.28,2.14.7"/></g></g></g></g><g id="_γTrA"><g id="star3-9"><g id="star-25"><g id="c-121"><path id="t-241" class="cls-5" d="M484.71,383.79l-1.39,4.28,2.14.7"/><path id="t-242" class="cls-5" d="M484.71,383.79l1.39,4.28-2.14.7"/></g><g id="c-122"><path id="t-243" class="cls-5" d="M488.99,386.9h-4.5v2.25"/><path id="t-244" class="cls-5" d="M488.99,386.9l-3.64,2.65-1.32-1.82"/></g><g id="c-123"><path id="t-245" class="cls-5" d="M480.43,386.9l3.64,2.65,1.32-1.82"/><path id="t-246" class="cls-5" d="M480.43,386.9h4.5v2.25"/></g><g id="c-124"><path id="t-247" class="cls-5" d="M487.36,391.93l-1.39-4.28-2.14.7"/><path id="t-248" class="cls-5" d="M487.36,391.93l-3.64-2.65,1.32-1.82"/></g><g id="c-125"><path id="t-249" class="cls-5" d="M482.07,391.93l3.64-2.65-1.32-1.82"/><path id="t-250" class="cls-5" d="M482.07,391.93l1.39-4.28,2.14.7"/></g></g></g></g><g id="_αCar"><g id="star1-6"><g id="star-26"><g id="c-126"><path id="t-251" class="cls-5" d="M386.79,376.82l-2.09,6.42,3.21,1.04"/><path id="t-252" class="cls-5" d="M386.79,376.82l2.09,6.42-3.21,1.04"/></g><g id="c-127"><path id="t-253" class="cls-5" d="M393.21,381.49h-6.75v3.38"/><path id="t-254" class="cls-5" d="M393.21,381.49l-5.46,3.97-1.98-2.73"/></g><g id="c-128"><path id="t-255" class="cls-5" d="M380.37,381.49l5.46,3.97,1.98-2.73"/><path id="t-256" class="cls-5" d="M380.37,381.49h6.75v3.38"/></g><g id="c-129"><path id="t-257" class="cls-5" d="M390.75,389.03l-2.09-6.42-3.21,1.04"/><path id="t-258" class="cls-5" d="M390.75,389.03l-5.46-3.97,1.98-2.73"/></g><g id="c-130"><path id="t-259" class="cls-5" d="M382.82,389.03l5.46-3.97-1.98-2.73"/><path id="t-260" class="cls-5" d="M382.82,389.03l2.09-6.42,3.21,1.04"/></g></g></g></g><g id="_σOct"><g id="star5"><g id="star-27"><g id="c-131"><path id="t-261" class="cls-5" d="M450,420.96l-.7,2.14,1.07.35"/><path id="t-262" class="cls-5" d="M450,420.96l.7,2.14-1.07.35"/></g><g id="c-132"><path id="t-263" class="cls-5" d="M452.14,422.52h-2.25v1.13"/><path id="t-264" class="cls-5" d="M452.14,422.52l-1.82,1.32-.66-.91"/></g><g id="c-133"><path id="t-265" class="cls-5" d="M447.86,422.52l1.82,1.32.66-.91"/><path id="t-266" class="cls-5" d="M447.86,422.52h2.25v1.13"/></g><g id="c-134"><path id="t-267" class="cls-5" d="M451.32,425.03l-.7-2.14-1.07.35"/><path id="t-268" class="cls-5" d="M451.32,425.03l-1.82-1.32.66-.91"/></g><g id="c-135"><path id="t-269" class="cls-5" d="M448.68,425.03l1.82-1.32-.66-.91"/><path id="t-270" class="cls-5" d="M448.68,425.03l.7-2.14,1.07.35"/></g></g></g></g></svg>