<?xml version="1.0" encoding="UTF-8"?><svg id="_色修正" xmlns="http://www.w3.org/2000/svg" viewBox="0 0 900 600"><defs><style>.cls-1{stroke-width:.89px;}.cls-1,.cls-2,.cls-3,.cls-4,.cls-5,.cls-6,.cls-7,.cls-8,.cls-9,.cls-10,.cls-11,.cls-12,.cls-13,.cls-14,.cls-15{stroke:#231815;}.cls-1,.cls-2,.cls-3,.cls-4,.cls-6,.cls-7,.cls-9,.cls-11,.cls-12,.cls-13,.cls-14,.cls-15{fill:#1a923b;}.cls-2{stroke-width:.89px;}.cls-3{stroke-width:.69px;}.cls-4{stroke-width:.84px;}.cls-5{fill:#f1d522;}.cls-5,.cls-6{stroke-width:.64px;}.cls-7{stroke-width:1.05px;}.cls-8{stroke-width:3.92px;}.cls-8,.cls-10{stroke-miterlimit:10;}.cls-8,.cls-16{fill:#fff;}.cls-9{stroke-width:1.05px;}.cls-10{fill:none;stroke-width:1.57px;}.cls-11{stroke-width:.91px;}.cls-12{stroke-width:.89px;}.cls-13{stroke-width:.88px;}.cls-14{stroke-width:.8px;}.cls-17{fill:#231815;}.cls-17,.cls-18,.cls-16,.cls-19{stroke-width:0px;}.cls-18{fill:#e50012;}.cls-19{fill:#004097;}.cls-15{stroke-width:.82px;}</style></defs><rect class="cls-19" width="900" height="600"/><rect class="cls-16" width="900" height="400"/><rect class="cls-18" width="900" height="200"/><path class="cls-8" d="M539.44,300.11c0,49.17-39.83,89.02-89,89.02s-89-39.85-89-89.02,39.86-88.98,89-88.98,89,39.83,89,88.98Z"/><path class="cls-9" d="M493.47,286.33c-2.16-.09-2.17,2.3-2.17,2.3,0,0,.07-.7.01.1-.04.79.35,2.72,1.95,2.88,1.68.15,2.24-1.82,2.26-2.78,0-.38-.12-2.44-2.05-2.49"/><path class="cls-17" d="M394.6,335.74l-.76-1.26c-.08-.14-.28-.37-.59-.72-.15-.17-.36-.27-.59-.29-.24-.03-.49.01-.69.14-.3.18-.49.42-.52.72-.06.3.08.71.42,1.27l.77,1.31,1.97-1.17ZM402.13,335.31l-9.68,5.76-2.96-4.97c-.55-.93-.88-1.67-1.01-2.26-.15-.59-.08-1.15.17-1.71.24-.56.69-1.03,1.31-1.4.48-.29,1.02-.46,1.57-.49.54,0,1.04.13,1.52.39.3.17.64.43,1.02.82-.09-.41-.14-.74-.12-.99.06-.26.14-.52.24-.78.13-.36.26-.61.33-.78l1.96-3.12,1.99,3.38-1.99,3.36c-.25.42-.4.75-.42.98-.01.31.06.59.21.86l.17.27,3.92-2.33,1.79,2.99ZM385.09,327.43l-2.96-8.83,2.28-.77,1.85,5.54,1.71-.57-1.74-5.14,2.19-.71,1.72,5.11,2.1-.68-1.89-5.7,2.42-.82,3,9-10.68,3.58ZM385.41,309.45l-.12-.83c-.08-.69-.24-1.13-.5-1.37-.26-.23-.61-.34-.95-.3-.32.04-.62.2-.84.44-.22.27-.3.71-.2,1.36l.09.99,2.52-.31ZM381.03,313.48l-.67-5.74c-.14-1.23.04-2.22.56-2.91.53-.69,1.35-1.1,2.44-1.23,1.13-.14,2.06.1,2.77.7.7.61,1.15,1.61,1.31,3l.21,1.89,4.14-.48.41,3.47-11.17,1.29ZM380.64,291.52l.36-3.46,6.68.72c.63.07,1.24.24,1.82.51.57.25,1.07.65,1.45,1.14.39.5.66.97.78,1.49.17.68.22,1.51.11,2.46-.06.59-.17,1.18-.31,1.76-.14.64-.36,1.16-.63,1.56-.29.43-.66.8-1.08,1.1-.41.29-.88.49-1.37.59-.74.15-1.38.18-1.93.12l-6.65-.7.36-3.46,6.83.74c.61.06,1.1-.05,1.48-.36.38-.31.6-.75.67-1.33.06-.62-.06-1.09-.36-1.46-.3-.38-.76-.59-1.38-.66l-6.82-.74ZM391.83,282.06l.6-1.67c.18-.56.23-1,.11-1.31-.12-.3-.37-.53-.68-.61-.34-.11-.61-.09-.88.07-.28.17-.52.53-.71,1.1l-.59,1.68,2.16.75ZM387.66,280.6l.51-1.41c.17-.52.22-.91.09-1.17-.09-.25-.31-.46-.65-.55-.27-.11-.57-.1-.82.04-.24.14-.45.45-.61.95l-.53,1.45,2.02.7ZM382.34,282.46l2.14-6.16c.37-1.03.9-1.71,1.61-2.1.67-.36,1.46-.42,2.17-.16.61.24,1.08.62,1.41,1.16.19.36.31.84.31,1.39.44-.7.95-1.15,1.52-1.34.58-.21,1.21-.2,1.89.04.54.19.99.49,1.34.89.34.43.56.89.67,1.42.05.34.03.8-.09,1.36-.18.79-.28,1.29-.37,1.53l-1.98,5.67-10.61-3.71ZM388.08,268.04l1.82-2.97,7.25,4.39,2.82-4.63,2.36,1.44-4.6,7.6-9.65-5.83ZM395.51,256.97l2.24-2.67,8.59,7.26-2.24,2.67-8.58-7.26ZM411.1,250.92l2.93-1.25c.38.79.59,1.54.62,2.27.03.7-.11,1.41-.41,2.04-.34.65-.88,1.27-1.63,1.93-.96.78-1.83,1.28-2.66,1.51-.82.21-1.74.16-2.76-.16-.99-.33-1.92-1.03-2.83-2.1-1.18-1.44-1.72-2.86-1.6-4.24.11-1.41.88-2.68,2.26-3.85,1.1-.91,2.12-1.39,3.13-1.46.98-.09,2.02.2,3.07.86l-1.92,2.49c-.29-.19-.54-.32-.74-.36-.3-.09-.63-.1-.93-.01-.32.07-.61.22-.86.42-.61.51-.88,1.14-.79,1.9.05.56.41,1.22,1.04,2,.81.96,1.51,1.49,2.08,1.6.6.12,1.16-.05,1.68-.48.51-.43.78-.89.79-1.39.01-.53-.13-1.1-.46-1.73M422.49,244.16l-2.94-3.04.74,4.17,2.2-1.13ZM424.24,246.01l-3.52,1.79.36,1.91-3.17,1.61-1.34-11.95,3.38-1.73,8.88,8.11-3.24,1.66-1.36-1.4ZM437.93,234.28l.86,6.07.85-.12c.72-.09,1.23-.25,1.52-.45.28-.22.46-.51.58-.95.12-.41.12-1.06,0-1.96-.17-1.17-.48-1.96-.92-2.33-.45-.37-1.12-.51-2.02-.37l-.87.12ZM434.14,232.24l5.11-.74c1.01-.13,1.82-.12,2.48.06.64.17,1.24.5,1.73.96.49.47.87,1.03,1.13,1.66.29.68.49,1.39.58,2.13.18,1.18.18,2.13-.01,2.81-.16.67-.46,1.29-.89,1.83-.43.5-.9.88-1.43,1.09-.64.3-1.32.5-2.02.62l-5.12.72-1.56-11.13ZM449.45,230.06l9.28.69-.17,2.39-5.81-.43-.14,1.79,5.39.4-.19,2.28-5.36-.38-.16,2.19,5.98.44-.19,2.54-9.46-.7.83-11.21ZM463.76,231.38l3.34.93-2.31,8.18,5.22,1.47-.76,2.65-8.57-2.43,3.08-10.81ZM482.74,243.86l.72.47c.55.37,1.02.52,1.36.49.35-.02.66-.22.83-.52.18-.28.26-.62.21-.95-.07-.33-.38-.67-.92-1.02l-.83-.56-1.38,2.1ZM482.46,237.93l4.83,3.19c1.05.69,1.66,1.46,1.85,2.3.2.85,0,1.74-.62,2.66-.6.94-1.39,1.49-2.31,1.64-.94.15-1.97-.14-3.14-.91l-1.59-1.06-2.28,3.48-2.92-1.93,6.18-9.38ZM494.66,255.08l1.96-3.75-3.72,2.01,1.76,1.74ZM493.48,257.32l-2.82-2.77-1.7.93-2.53-2.48,5.2-2.4,5.72-2.65,2.69,2.66-4.89,11-2.59-2.57.91-1.72ZM503.93,262.2l.79,1.25c.09.13.27.37.62.7.16.16.38.25.61.26.23.03.47-.03.67-.17.3-.19.46-.43.52-.73.04-.29-.11-.73-.46-1.25l-.8-1.28-1.93,1.22ZM496.4,262.87l9.48-6.05,3.11,4.88c.58.9.94,1.64,1.12,2.22.13.57.08,1.17-.15,1.71-.23.57-.65,1.04-1.24,1.43-.54.34-1.05.53-1.59.53-.51.03-1.02-.1-1.53-.31-.37-.23-.72-.5-1.03-.8.1.41.16.75.15.98-.05.26-.12.52-.2.78-.08.28-.2.54-.34.8l-1.84,3.18-2.13-3.32,1.91-3.4c.26-.46.38-.78.38-1.01.01-.31-.04-.6-.24-.86l-.15-.26-3.86,2.46-1.88-2.94ZM509.7,278.02l3.37-2.55-4.22.23.84,2.31ZM507.65,279.52l-1.35-3.72-1.92.13-1.23-3.34,12.02.14,1.3,3.55-9.13,7.82-1.25-3.44,1.55-1.15ZM513.03,291.49l2.32-.31.67,5.36-4.76.57c-.8-.93-1.42-1.77-1.75-2.53-.37-.75-.6-1.67-.73-2.74-.17-1.32-.09-2.43.29-3.32.33-.89.93-1.63,1.76-2.22.84-.55,1.83-.92,2.98-1.06,1.21-.16,2.31-.04,3.27.36.96.38,1.73,1.03,2.33,1.94.46.72.77,1.71.92,2.99.17,1.23.17,2.16.01,2.8-.12.62-.42,1.2-.85,1.66-.46.5-1.02.89-1.65,1.13l-1.01-3.24c.4-.2.7-.46.88-.83.18-.35.23-.8.18-1.28-.13-.77-.44-1.33-1.01-1.72-.59-.38-1.46-.5-2.59-.36-1.21.15-2.03.5-2.5,1-.45.53-.61,1.2-.53,2.01.04.38.16.74.3,1.07.16.35.4.71.72,1.15l1.06-.15-.3-2.3ZM520.16,308.36l-.4,3.44-6.65-.75c-.64-.07-1.26-.25-1.84-.52-.56-.27-1.05-.66-1.44-1.14-.38-.49-.64-.98-.77-1.47-.16-.72-.2-1.53-.1-2.47.07-.54.18-1.13.31-1.77.15-.64.38-1.15.66-1.56.29-.42.66-.79,1.07-1.08.49-.31.94-.5,1.39-.57.73-.14,1.38-.19,1.93-.1l6.66.76-.4,3.44-6.81-.78c-.62-.07-1.11.04-1.5.35-.37.31-.6.74-.66,1.34-.07.61.05,1.09.35,1.46.29.37.75.6,1.36.69l6.82.76ZM509.8,321.16l4.24.15-3.42-2.49-.82,2.34ZM507.29,321.03l1.28-3.73-1.57-1.12,1.17-3.36,9.25,7.68-1.27,3.59-11.98.29,1.18-3.45,1.95.08ZM513.5,331.39l-1.96,3.33h-4.43s2.12,3.91,2.12,3.91l-1.94,3.29-3.42-7.09-4.06-2.39,1.78-3.01,4.05,2.41,7.85-.44Z"/><path class="cls-10" d="M524.92,300.14c0,41.16-33.36,74.52-74.5,74.52s-74.51-33.36-74.51-74.52,33.35-74.49,74.51-74.49,74.5,33.35,74.5,74.48h0Z"/><path class="cls-10" d="M505.86,299.88c0,30.64-24.81,55.45-55.44,55.45s-55.45-24.82-55.45-55.45,24.82-55.43,55.45-55.43,55.44,24.82,55.44,55.43h0Z"/><path class="cls-5" d="M450.43,279.94l4.66,13.33,14.09.31-11.23,8.54,4.08,13.51-11.6-8.03-11.6,8.03,4.06-13.51-11.25-8.54,14.12-.31,4.67-13.33Z"/><path class="cls-14" d="M476.03,338.15c-.47.39-2.36.61-2.86.69-.51.07-2.49.09-3.33.12-.46.03-1.35.16-1.82.16-4.07-.46,6.62-.4,8.01-.97M465.36,335c.27-.48,1.6-3.45,2.08-4.29.49-.83,1.59-3.04,2.26-3.96.34-.5,1.67-1.94,1.99-1.29-2.31,2-4.14,5.49-5.11,7.84-.13.25-.89,1.56-1.17,1.9-.27.34-.16.97-.59,1.02-.45.06-.14.14-.14.14,0,0,.39-.86.68-1.36h0ZM480.71,337.27s-1.84-.28-2.98-.68c-1.14-.38-3.04-.68-4.67-.64-1.61.02-3.09.51-4.4,1.01-1.31.49-3,.53-3,.53,0,0-.96.15-.51-.07.43-.21,1.91-1.37,1.91-1.37l.96-1.31c.28-.08,5.14-6.47,4.62-8.18.75-1.26,1.62-3.51,1.29-3.91-.16-.16-3.79,1.15-4.59,1.88-.92.8-1.57,2.46-1.85,3.42-.27.95-1.67,1.74-1.67,1.74-1.14.82-1.96,3.4-2.35,5.52-.39,2.09-5.54,3.25-5.54,3.25,0,0-1.43.53-.16.94.22.06.78,1.02,1.24,1.03.63.07,3.83-1.3,4.32-1.19,1.09.25,2.16.54,3.22.88,1.22.41,2.23.63,3.08.31.87-.31,2.1-.19,3.03-.01.91.2,1.93.11,2.52-.07.63-.19,2.29-1.11,2.29-1.11,0,0,1.79-.78,2.83-1.26,1.04-.49.41-.7.41-.7"/><path class="cls-6" d="M466.72,343.49s-7.09-3.71-7.47-3.8c-.22-.03-3.22-1.68-4.59-2.11-.99-.32-2.36-.4-2.85-.37-1.17.08-3.07.6-3.07.6l1.76.72s1.65.81,2.46,1.25c1.16.61,1.21,1.35,1.21,1.35l6.42,2.82,1.3.94s1.19-1.64,4.82-1.4"/><path class="cls-4" d="M473.85,328.76c2.23-1.99,3.32-4.82,5.16-6.38.3.21.3.57-.07,1.19-.35.62-.81.83-1.01,1.15-.37.5-1.49,1.43-1.79,1.99-.27.53-.61,1.27-1.59,1.83-.97.58-.66,1.5-.74,1.89-.08.43-1.57,1.49-2.29,2.81-.14,1.38-.2.8-1.03,1.29,1.52-2.29,2.32-3.77,3.37-5.77M468.83,335.05c-.14.3-4.54,2.8-3.17,2.43,1.37-.36,5.43-1.83,6.59-2.34,1.41-.62,2.26-1.91,3.32-2.96,1.08-1.07,4.43-4.27,5.01-5.51.57-1.27,1.08-3.04-1.19-7,0,0-.35.76-1.2,1.5-.84.76-2.08,1.6-2.08,1.6l-1.46,1.38s-5.14,9.44-5.82,10.91"/><path class="cls-14" d="M486.7,331.73s-2.82-.25-3.06-.25c-.27,0-1.81-.21-4.05-.21s-3.06.77-3.64,1.39c-.63.69-2.38,2.3-2.38,2.3l.94-.08c2.25-1.75,4-1.11,4.7-1.16.73-.03,1.61.05,3.86-.75,2.29-.8,2.15-.05,1.9.03-1.09.39-2.24.62-3.4.69-1.7.09-3.19.42-3.86.42s-5.63,1.36-5.63,1.36c0,0,5.36.31,5.94.51.57.23,1.48.12,2.22-.23,2.05-.95,2.98-1.13,3.83-1.32.85-.16,1.86-.74,1.86-.74,0,0,.54-.34,1.04-1.25.52-.93-.29-.68-.29-.68M489.33,317.04c.34-.84,1.18-2.81,2.08-3.59.55-.48,1.49-.7,1.99-.91.21-.07,1.75-.15-.17.38-.8.21-1.88.68-2.36,1.49-.67,1.87-1.26,3.49-2.51,4.69-.92.96-1.5,2.22-1.5,2.22l-.98.34c1.8-1.1,2.59-3.15,3.44-4.61h0ZM498.05,315.99c-1.03.34-1.39.63-1.39.63-2.3.69-3.24,2.13-4.24,3.31-.51.61-1.23,1.07-3.65,2.11-2.21.95-3.93,2.42-3.97,2.42,0,0-.7.14-.57.49.05.16.65.03.65.03,0,0,4.56-.65,6.47-1.81,1.21-.76,1.9-1.32,3.05-3.1.52-.79,1.09-2.27,1.12-1.31.09,2.52-3.83,4.97-5.54,5.73-.91.39-2.13.55-3.73.81-1.58.29-2.53.2-2.42-.14.16-.5.34-.61.76-1.1.75-.89,2.56-1.21,3.9-1.84,1.58-.71,3.08-1.75,3.83-2.64.77-.9,1.03-1.23,1.24-1.99.59-1.99.61-3.09,1.16-3.8,1.93-2.37,2.21-3.14,2.3-4.2.02-.24-1,.56-1.53.86-1.04.61-1.42.61-3.55,1.17-2.16.54-2.11,1.93-2.45,2.59-.1.26-.97,1.36-1.39,1.56-.42.21-1.44,1.7-1.82,2.57-.28.64-.78,1.09-1.18,1.04-.42-.08.81-4.68,1.08-5.44.29-.76.35-2.23.35-2.73s.02-1.73-.82-1.87c-.83-.14-.87-1.29-.87-1.29-2,1.73-.88,4.77-.67,6.58.21,1.79-.41,5.1-.41,5.1,1.93.82.41,3.17-.19,3.92-.63.77-1.83.91-2.36,1.59-.57.7-4.61,6.32-4.61,6.32l5.02-1.42s.47.08-.28-.49c-.76-.54.24-2.66.89-3.17,1.24-.97,2.9-.26,2.9-.26,0,0,2.33.36,5.19-.78,2.39-.94,3.41-2.47,4.54-3.62.62-.62,1.74-2.7,2.45-3.93.43-.71,1.19-2.06.72-1.9"/><path class="cls-12" d="M483.8,329.5c.38-.16.44-.22,1.14-.99.69-.77.08-2.06-.99-2.01-.52.04-1.08-.09-2.11,1.3-.99,1.39.48,1.89,1.03,1.95.24.01.55-.09.92-.25"/><path class="cls-11" d="M481.2,320.74c-.67,1.11-1.02,2.39-.5,2.79.12.06.58.47.97.47s1.48-.52,2.1-1.49c.62-.93,1.14-1.96-.14-2.59-1.16-.57-1.95-.04-2.43.82"/><path class="cls-14" d="M485.01,307.14s.11-.17-.33-.63c-.69-.71-1.56-1.98-1.56-1.98-1.38.76-1.84,2.28-1.84,2.89s.23,2,.02,3.4c-.07.48-.15,1.02-.83,2.75-.7,1.71.1,3.27.26,3.83.12.55.69,2.26.69,2.26,0,0,.54-.35.72-.39.21-.06.95-.03.95-.03,0,0,.83-1.5.86-2.34.02-.62-.08-1.66-.37-3.27-.41-2.33-.38-3-.1-4.31.28-1.32,1.55-2.19,1.55-2.19"/><path class="cls-13" d="M487.07,309.47s.78-.19,1.18-.9c.5-.86.37-1.77.37-1.77-1.21-2.35-2.85-.45-2.85-.45-1.46,2.99,1.3,3.12,1.3,3.12"/><path class="cls-7" d="M491.2,305.15c-1.81.09-2.7,3.35-2.7,3.35,0,0-.29.81-1.26,1.43-1.03.64-.42,1.55-.42,3.17s-1.13,4.49-1.13,4.49l-.42.97s.04.73.7-.6c1.12-2.23,2.36-1.69,2.82-4.09.29-1.79,3.25-2.35,3.25-2.35l-.83-.16c-3.07-1.44.18-5.03.7-5.67.56-.63,1.09-.63-.7-.55"/><path class="cls-2" d="M490.69,309.02c-.83,1.78,1.53,1.87,2.08,1.56.22-.13.72-.72.72-.72.96-1.38.08-2.31-.42-2.44-.48-.16-1.51-.28-2.38,1.61"/><path class="cls-14" d="M486.2,302.11c.62,1.15,2.35,4.37,2.76,4.17.26-.12.05-.78.05-.78,0,0-.05-.87-.33-1.92-.28-1.06-.21-2.42-.76-3.29-.54-.87-1.82-1.9-2.33-3.27-.5-1.38-.11-3.98-.07-4.3.05-.3.2-.1-.06-.41-.27-.34-2.46-1.5-2.46-1.5,0,0,.13.85.07,2.39-.02.37-.13.81-.18,1.45-.05.62.32,1.39,1.22,3.16,1.04,2.05,1.54,3.31,2.09,4.3M499.32,286.83s-.63,1.05-.86,1.28c-.23.23-3.8,3.3-4,3.43-.17.14-2.03.73-3.73,5.31-1.7,4.56-.96,8.83-.96,8.83l.82-.1.14-.45s.28-1.51.49-2.66c.24-1.13,1.51-2.72,2.35-3.89.8-1.14,1.45-2.79,1.45-2.79.96-1.93,1.41-3.65,2.36-4.99.04,1.6-6.04,11.43-6.69,14.77l1.8-.27c1.44-1.31,3.32-4.07,4.59-5.85,1.28-1.79,1.83-4.57,2.06-5.81.22-1.22.17-6.81.17-6.81"/><path class="cls-14" d="M487.21,287.84c-.92-.85-1.63-1.1-1.63-1.1,0,0,.22,1.67.22,2.68s.09,2.73.04,3.64c-.04.91-.49,2.42.16,3.89.66,1.45,1.41,2.19,1.93,3.11.48.9,1.36,5.55,1.36,5.55,0,0-.32-6.29-.04-8.07.26-1.75.34-4.48-.05-5.84-.41-1.37-1.08-2.98-1.98-3.85M491.4,281.7c.28-.54.92-1.65,1.19-3.34.1-.72.17-1.88.14-2.69-.02-.54-.23-1.47,0-1.54.21-.05.04.29.15,1.09.06.28-.14,1.07-.17,2.08-.05.81-.08,1.48-.44,2.57-.31.96-.03,2.03-.22,2.33-.21.3-.76,1.46-.76,1.46,0,0-.34.93-.28,1.78.03.87.08,1.81.08,1.81,0,0,.4-.74,1.3-.87,0,0,.2-1.46.2-1.91s.58-3.44.88-4.35c.41-1.33.69-3.66.05-6.35-.18-.73-.31-3.01-.31-3.01,0,0-.86.69-1.37,3.29-.16.79.18,2.91.05,5.17-.05,1.25-1.25,6.3-1.41,6.62"/><path class="cls-14" d="M491.4,281.7c-.04.08-.06.11-.06.11,0,0,.04-.03.06-.11"/><path class="cls-14" d="M488.01,268.58c.46,0,.46.5.36.89-.07.4-.06,1.15-.06,1.31,0,.18.19,1.25.34,1.81.17.57.45.76.33,1.91-.09.73-.83,1.58-.57,2.81.14.65.6,1.33.83,1.88.19.39.09,1.34.14,2.11.02.76.44,1.27.44,1.27,0,0-.52.96-.69-.24-.19-1.38-.25-2-.51-2.62-.43-1.03-.83-2.87-.16-4.29.11-.27.2-.79.2-1.39s-.38-1.67-.45-2.32c-.06-.52-.02-1.61-.02-2M485.79,275.48c.11.78.36,1.23,1.24,2.92.27.56.89,1.99.98,2.44.11.46.2,1,.2,1.14,0,.15.1,1.22.1,1.22v.44s-2.44-1.42-3.51-2.18c-1.06-.77-2.27-1.82-3.04-2.45-.88-.72-2.96-3.19-2.99-5.17l-.96-.87s-.73,4.4,2.72,7.25c1,.82,2.08,1.72,4.4,2.77,2.33,1.07,2.02,2.03,2.99,4.09.95,2.07,1.55,3.26,1.67,3.84.08.63-.26,9.42-.26,9.42l.08.8s2.13-8.15,3.15-9.06c0,0-2.03-.31-1.87-3.5l-.36-2.1s-.41-2.53.36-4.09c0,0,.9-2.87.59-5.36-.19-1.49-.26-1.93-.44-3.35-.28-2.22-1.16-5.38-1.26-5.76-.3-1.11-.41-1.28-.76-2.16-.11-.31-.3-1.34-.63-1.35-.19-.01-.48,1.32-.48,1.32,0,0-.43,1.45-.51,1.84-.28,1.17-.92,2.15-1.22,4.78-.05.48-.11,1.76-.16,1.93-.03.14-.09.9-.03,1.19"/><path class="cls-14" d="M487.6,286.6s-.35-.79-.71-1.19c-.72-.85-1.7-1.58-4.47-2.93-2.76-1.38-3.49-3.64-4.9-4.57-.65-.45-1.9-.66-1.9-.66,0,0,1.23,1.69,1.52,2.28.38.74.46,1.25,1.99,2.67,1.51,1.42,3.36,1.92,4.55,2.27,1.68.52,3.93,2.13,3.93,2.13M478.9,273.52c.07.22.79,2.66,2.28,4.54,2.29,2.89,6.69,4.96,6.69,4.96-.41-1.8-1.13-3.88-1.7-4.8-2-3.23-7.29-4.82-7.29-4.82,0,0-.09-.12.01.12M485.21,274.88c1.19-2.6-2.35-5.07-3.35-6.88.37-.29.81.48,1.21.99.58.77,2.21,3,2.21,3l.51-2.37-4.21-3.83c-.05.56-1.35,1.02-1.35,1.02-.63,3.55,4.99,8.09,4.99,8.09"/><path class="cls-14" d="M477.87,268.87c-1.02.46-1.38.46-1.38.46l.57,1.5.33.41s1.32,1.91,2.09,2.15c.32.12,1.53.33,2.74.85,1.52.65,4.01,2.82,4.01,2.82,0,0-4.13-4.66-5.72-8.15l-.53-2.01-1.5.1s.41,1.41-.61,1.88"/><path class="cls-14" d="M462.41,265.89c.69.63,1.45,1.18,2.25,1.67.91.55,3.54,2.09,5.51,2.47.46.07,2.93.38,2.93.38.1-1.08,1.27-1.18,1.27-1.18l-3.5-.38c-2.82-.21-4.97-1.39-6.64-3.27,2.24,1.36,5.46,3.5,8.07,3.38,10.72-1.05-3.23-1.32-4.44-2.09-1.28-.79-2.38-2.11-2.38-2.11l-3.14-.14s-1.54-.1.07,1.27"/><path class="cls-14" d="M475.03,271.99c.69-.05,1.18-.18,1.34-.94.14-.85-.18-1.46-1.2-1.69-.57-.14-1.56-.17-1.97.84-.44,1.03,1.17,1.7,1.17,1.7,0,0,.31.13.67.09M476.23,265.85c-.91,0-1.21.74-1.02,2.18.24,1.46,2.47.82,2.47.82l.41-.21s.3-.23.14-1.39c-.16-1.19-1.08-1.4-1.99-1.4M479.87,266.87h-.04s.04,0,.04,0"/><path class="cls-14" d="M479.84,266.87s.09-.04.32-.11c.46-.18.93-1.29.93-1.29.23-1.5-.84-1.88-.84-1.88-1.82-.36-1.86,1.23-1.86,1.23-.5,2.07,1.18,2.05,1.45,2.04M471.76,259.74c.1.69,1.08,1.69,1.23,1.86.18.15,1.43,1.46,1.85,2.04.42.59,1.83,3.24,1.83,3.24,0,0,.24-.04.35-.24.24-.41-.94-3.63-1.06-3.85-.43-.98-1.14-1.7-1.86-2.46-.17-.11-.75-.86-1.39-1.66,1.27,1.62,4.52,6.24,5.48,8.29,0,0-.12-2.19-.24-3.36-.41-3.43-1.3-4.49-1.58-4.98-.51-.93-1.79-1.83-2.71-2.14-.92-.33-2-.79-3.16-1.16-1.2-.37-.28.71.17,1.65.55,1.1,1,2.09,1.1,2.79"/><path class="cls-14" d="M467.29,265.38c1.18,1,1.71,1.7,4.17,2.06,2.48.39,2.68.22,2.68.22,0,0,1.28-.62.63-1.16-3.64-1.6-7.08-3.5-8.83-5.65,0,0,.3-.29,1.56.97.73.74,1.22,1.11,1.67,1.46,1.32.93,1.9,1.19,3.22,1.91.7.38,2.46.8,2.46.8,0,0,.25-.53.47-.59.21-.05-.14-.89-1.66-2.12-.85-.7-1.6-1.52-2.23-2.42,0,0-1.81-.4-3.77-.72-1.46-.23-4.21-2.36-4.16-1.79.05.6.41,2.44,1.15,3.62.74,1.18,1.45,2.39,2.63,3.42"/><path class="cls-6" d="M446.83,339.41c-1.07.32-9.12,3.34-9.12,3.34l-2.25.9c3.1-.7,5.48.86,5.48.86l8.96-4.15s-.03-.14-.25-.3c-.24-.16-1.74-.98-2.83-.66"/><path class="cls-3" d="M435.13,343.92c-.06.05-.12.26.04.33.45.25.33.35,2.36.59,2.05.22,3.38-.17,3.73-.55.41-.45-5.07-1.29-6.13-.37"/><path class="cls-1" d="M422.25,314.97l-.37-2.52s-.47-6.8-1.24-8.16c-.15-.3-.08-1.01-.57-1.02-.94-.07-.94,2.14-1.05,4.15-1.53,10.11,6.54,17.82,6.54,17.82l-3.3-10.27Z"/><path class="cls-15" d="M462.14,344.92s-.85-.19-.31-.85c.51-.63,2.04-.96,2.34-.96.3-.01,1.16.06,1.79.24.64.16,1.53.72,1.27,1.14-.27.39-1.14.88-2.33.88-1.02,0-1.54-.03-1.99-.15-.43-.16-.78-.29-.78-.29"/><path class="cls-6" d="M453.4,340.11s-2.77-1.27-5.39-2.56c-3.46-1.69-7.61-4.03-10.5-8.33-3.62-5.32-6.77-8.17-7.53-8.75-.78-.57-.9-.79-1.18-.38-.26.35-.08.66.14,1.03.74,1.21,2.58,3.49,3.23,4.71,1.13,2.18,3.47,4.57,3.45,5.98,0,.2-.68-.14-.68-.14,0,0-5.48-1.88-7.7-8.52-1.62-4.81-.93-6.23-1.31-8.63-.64-4.27-.77-4.62-2.89-9.41-.06-.12-1.29-2.12-1.46-1.68-.23.57.21,2.72.21,2.72l.22,2.47s-.18,5.48-.18,5.81-1.38,3.75,4.48,9.5c0,0,.09.98-.7.12-.56-.61-4.75-3.84-6.03-9.14-1.31-5.3-1.51-10.61-.51-12.82.9-1.99,2.71-6.86,1.94-11.12-.09-.44-.21-1.75-.5-1.41-.12.17-.65,2.32-.96,3.06-.44,1.02-1.13,2.02-1.34,2.73-.41,1.19-2.44,3.04-2.04,6.44.45,3.91.7,4.52,1.17,5.91.16.51.55,1.8.3,1.93-.24.12-1.06-1.55-1.06-1.55,0,0-3.71-7.3-1.42-13.22,2.32-5.89,8.12-11.48,8.12-11.48,0,0,4.72-3.91,5.68-4.82.38-.35.29-.61.16-.57-1.17.3-10.25,2.17-13.44,12.99,0,0-.17.46-.4.34-.29-.13,0-.64,0-.64,0,0,2-7.67,7.6-11.14,6.12-3.81,5.4-3.26,7.42-4.46,1.27-.79,2.42-1.85,3.85-4.21.15-.26.72-1.63.65-1.87-.06-.23-.34.09-.47.48,0,0-1.73,2.67-4.32,3.57-2.6.9-4.71-.38-7.32,2.5-2.62,2.9-4.7,6.92-4.7,6.92,0,0-.68,1.04-.83,1.01-.29-.09.14-1.11.14-1.11,0,0,3.49-7.41,6.3-8.92,2.81-1.52,5.31-2.97,6.91-4.2,1.94-1.52,5.28-5.25,6.49-6.53.26-.27,2.05-2.09,2.44-2.68.24-.32.81-.79.71-.87-.26-.19-1.96.63-1.96.63,0,0-9.25,2.55-15.01,11.24-.27.4-.9,1.22-1.24,1.57-.61.64-.92,1.7-.92,1.7-.38-.31,3.25-4.85,3.25-4.85l.64-2.93s1.07-4.41,3.33-7.52c.22-.28,1.56-1.63,1.78-1.91.45-.49-.85.43-.62.22,0,0-8.63,6.19-8.63,14,0,1.4-.87,2.68-2.07,4.42-1.41,2.02-1.88,3.27-2.49,6.28-.25,1.27-.52,2.53-.79,3.79,0,0,.08,1.11-.28,1.03-.38-.08-.24-1-.24-1,0,0,.88-5.82,1.51-7.61.61-1.74,1.01-2.92,1.01-2.92,0,0-.36-4.37.61-6.77.82-2.09,2.91-4.84,3.23-5.53.14-.3,1.11-2.26,1.38-4.5.04-.3-.2-.05-.59.82-.95,2.14-1.74,2.7-3.3,4.71,0,0-4,2.9-5.45,11.52,0,0-.05,3.21-.54,8.25-.36,3.69-.05,7.15.36,9.23.27,1.27.77,1.28.46,1.44-.19.1.12.02-.33-.94-.55-1.15-.98-2.93-.98-5.38,0-4.5.39-8.11.39-8.11,0,0,.29-7.27-2.72-10.54-.15-.17.53,1.47.83,3.11.37,2.03-.3,4.84-.5,5.94-.19,1.1-2.2,5.9-1.49,10.41,0,0,1.7,7.64,3.89,11.35,0,0,1.36,1.6.16.1-1.19-1.5-3.64-7.44-3.86-7.95-.19-.49-1.94-4.19-3.6-5.69-.86-.8-3.21-2.21-3.21-2.21,0,0-1.28-.97-.31.32.77,1.02,1.79,2.85,2.28,3.65,1.02,1.65,1.92,3.36,2.71,5.13.79,1.73,2.62,6.82,2.62,6.82l1.17,3.23s1.96,1.09,3.03,2.28c.87.96,2.69,3.17,4.2,7.1.68,1.74,2.03,3.33,2.03,3.33,0,0-.29.55-1.49-1.53-1.19-2.11-2.35-6.07-5.21-9.16-2.17-2.37-8.02-4.75-8.02-4.75,0,0,3.76,6.55,4.69,7.72,1.58,1.87,3.86,4.5,4.45,5.2.61.71,4.14,5.07,4.67,5.77.82,1.09,1.37,1.57,1.8,2.02.93.99,3.69,2.8,3.91,3.09.04.29.1.05-.14-.12-1.23-.73-2.69-1.88-4.2-2.87-1.51-1-7.32-3.48-11.24-8.88-.93-1.6-1.37-2.23-1.68-2.07-.48.25,2.64,10.57,9.05,13.85,0,0,7.07,3.15,8.64,4.09.86.52,2.6,1.28,3.4,1.93.46.38-.42.36-.47.35-3.76-.29-9.15-.79-12.47-2.71,0,0-1.42-1-.26.41.93,1.09,2.69,3.76,6.09,5.27,3.4,1.49,8.35,2.37,10.16,2.46,1.78.1,8.12.13,9.33.52,1.19.4,3.21,1.7,4.37,2.07,1.05.34,4.23,1.56,4.23,1.56,0,0,.96.52,1.47.71.57.23,2.95.21,3.12-.24.16-.4-.68-1.01-.68-1.01"/><path class="cls-14" d="M494.51,286.39c.72.26,1.04,2.39,1.04,2.39,0,0-.06-1.22-.06-1.82s-.3-2.88-.3-2.88l-.64.46c-.76.61-1.18,1.68-1.18,1.68,0,0,.44-.07,1.14.17"/></svg>