<?xml version="1.0" encoding="UTF-8"?><svg id="_色修正" xmlns="http://www.w3.org/2000/svg" viewBox="0 0 900 600"><defs><style>.cls-1,.cls-2,.cls-3,.cls-4,.cls-5,.cls-6,.cls-7,.cls-8,.cls-9,.cls-10,.cls-11,.cls-12,.cls-13,.cls-14,.cls-15,.cls-16,.cls-17,.cls-18,.cls-19,.cls-20,.cls-21,.cls-22,.cls-23,.cls-24,.cls-25,.cls-26,.cls-27,.cls-28,.cls-29,.cls-30,.cls-31,.cls-32,.cls-33,.cls-34,.cls-35,.cls-36,.cls-37,.cls-38,.cls-39,.cls-40,.cls-41,.cls-42,.cls-43{stroke-linejoin:round;}.cls-1,.cls-2,.cls-3,.cls-4,.cls-5,.cls-6,.cls-8,.cls-9,.cls-10,.cls-11,.cls-12,.cls-13,.cls-14,.cls-44,.cls-15,.cls-16,.cls-17,.cls-45,.cls-18,.cls-19,.cls-20,.cls-46,.cls-21,.cls-22,.cls-23,.cls-24,.cls-25,.cls-26,.cls-27,.cls-47,.cls-28,.cls-29,.cls-30,.cls-48,.cls-49,.cls-50,.cls-51,.cls-52,.cls-31,.cls-32,.cls-33,.cls-34,.cls-53,.cls-36,.cls-37,.cls-38,.cls-39,.cls-40,.cls-54,.cls-41,.cls-42,.cls-43{stroke:#040000;}.cls-1,.cls-2,.cls-3,.cls-4,.cls-5,.cls-6,.cls-12,.cls-14,.cls-16,.cls-47,.cls-49,.cls-50,.cls-51,.cls-52,.cls-42{stroke-width:.93px;}.cls-1,.cls-4,.cls-5,.cls-6,.cls-7,.cls-8,.cls-9,.cls-10,.cls-11,.cls-12,.cls-13,.cls-14,.cls-15,.cls-16,.cls-17,.cls-18,.cls-19,.cls-20,.cls-21,.cls-22,.cls-23,.cls-24,.cls-25,.cls-26,.cls-27,.cls-29,.cls-30,.cls-31,.cls-32,.cls-33,.cls-34,.cls-35,.cls-36,.cls-37,.cls-38,.cls-39,.cls-40,.cls-41,.cls-42,.cls-43{stroke-linecap:round;}.cls-1,.cls-9,.cls-24,.cls-52,.cls-32,.cls-37,.cls-40,.cls-55{fill:#c79b48;}.cls-2,.cls-6,.cls-8,.cls-10,.cls-15,.cls-21,.cls-22,.cls-26,.cls-27,.cls-28,.cls-29,.cls-51,.cls-33,.cls-39,.cls-56{fill:#211815;}.cls-3,.cls-12,.cls-50,.cls-54,.cls-57{fill:#deb951;}.cls-4,.cls-19,.cls-23,.cls-25,.cls-30,.cls-58{fill:#6c8760;}.cls-5,.cls-34,.cls-59{fill:#9a8059;}.cls-7{stroke:#577d91;}.cls-7,.cls-11,.cls-13,.cls-44,.cls-16,.cls-17,.cls-45,.cls-18,.cls-20,.cls-46,.cls-47,.cls-35,.cls-53,.cls-36,.cls-38,.cls-41,.cls-43{fill:none;}.cls-7,.cls-32,.cls-33,.cls-34,.cls-41{stroke-width:.78px;}.cls-9,.cls-17{stroke-width:1.24px;}.cls-10{stroke-width:.63px;}.cls-11{stroke-width:1.4px;}.cls-13{stroke-width:1.4px;}.cls-14,.cls-48,.cls-49,.cls-60{fill:#fff;}.cls-44,.cls-35,.cls-54{stroke-width:.9px;}.cls-15,.cls-18{stroke-width:.62px;}.cls-45{stroke-width:1.03px;}.cls-19,.cls-21{stroke-width:.95px;}.cls-20{stroke-width:.6px;}.cls-46{stroke-width:1.01px;}.cls-22,.cls-23{stroke-width:.98px;}.cls-24{stroke-width:.95px;}.cls-25,.cls-26{stroke-width:.86px;}.cls-27,.cls-28{stroke-width:.45px;}.cls-29,.cls-30{stroke-width:.85px;}.cls-48{stroke-width:.92px;}.cls-31{fill:#efeff0;stroke-width:1.7px;}.cls-35{stroke:#deb951;}.cls-53,.cls-37,.cls-39,.cls-43{stroke-width:1.09px;}.cls-36{stroke-width:1.32px;}.cls-38{stroke-width:.83px;}.cls-40{stroke-width:.72px;}.cls-42{fill:#4c6146;}.cls-58,.cls-59,.cls-61,.cls-56,.cls-55,.cls-57,.cls-62,.cls-63,.cls-64,.cls-60{stroke-width:0px;}.cls-61{fill:#1695d4;}.cls-62{fill:#bbbcbe;}.cls-63{fill:#a6c7df;}.cls-64{fill:#96b37e;}</style></defs><rect class="cls-61" width="900" height="600"/><rect class="cls-60" width="900" height="300"/><g id="coa"><g id="crown"><circle class="cls-49" cx="507.69" cy="200.98" r="4.04"/><circle class="cls-49" cx="509.94" cy="186.77" r="5.08"/><circle class="cls-49" cx="424.64" cy="171.47" r="3.91"/><circle class="cls-49" cx="386.72" cy="186.77" r="5.08"/><circle class="cls-49" cx="409.92" cy="173.11" r="4.22"/><circle class="cls-49" cx="388.97" cy="200.98" r="4.04"/><circle class="cls-49" cx="395.12" cy="176.87" r="4.89"/><circle class="cls-49" cx="472.02" cy="171.47" r="3.91"/><circle class="cls-49" cx="486.75" cy="173.11" r="4.22"/><circle class="cls-49" cx="501.54" cy="176.87" r="4.89"/><circle class="cls-53" cx="507.69" cy="200.98" r="4.46"/><circle class="cls-53" cx="509.94" cy="186.77" r="5.6"/><circle class="cls-53" cx="424.64" cy="171.47" r="4.31"/><circle class="cls-53" cx="386.72" cy="186.77" r="5.6"/><circle class="cls-53" cx="409.92" cy="173.12" r="4.65"/><circle class="cls-53" cx="388.97" cy="200.98" r="4.46"/><circle class="cls-53" cx="395.12" cy="176.87" r="5.39"/><circle class="cls-53" cx="472.02" cy="171.47" r="4.31"/><circle class="cls-53" cx="486.75" cy="173.11" r="4.65"/><circle class="cls-53" cx="501.54" cy="176.87" r="5.39"/><path class="cls-6" d="M440.74,161.76c-13.48,15.54-37.15,7.95-47.95,14-18.78,10.52,1.65,35.49,5.5,40.26l20.47-5.34c-7.52-6.01-22.59-16.23-18.05-24.52,4.65-8.51,29.37.12,40.18-18.04,2.27-3.82.53-7.13-.15-6.35h0Z"/><path class="cls-12" d="M440.74,162.23c-13.48,15.54-36.39,8.09-47.19,14.14-18.78,10.52,2.43,34.88,6.28,39.65l17.68-5.34c-7.52-6.01-21.8-16.54-17.26-24.84,4.65-8.51,29.82-.03,40.63-18.19,2.27-3.82.53-6.2-.15-5.42h0Z"/><path class="cls-10" d="M441.96,163.43c-14.6,19.72-36.52,9.76-45.94,17.46-10.64,8.69,4.86,25.8,12.34,32.56l1.17-.43c-6.07-5.75-24.06-22.84-12.63-32.07,8.22-6.64,31.33,2.02,45.11-17.05l-.05-.47Z"/><path class="cls-55" d="M406.08,201.05c-.36.68-.89,1.85-1.26,3.33-6.24-7.44-10.92-15.14-6-21.5,4.48-5.8,15.45-3.17,26.88-7.19,5.23-1.55,10.37-4.32,14.74-9.49-.42,1.13-.86,2.51-1.34,3.88-11.6,14.76-34.75,7.69-39.17,15.76-2.6,4.76,1.09,10.26,6.14,15.21h0Z"/><path class="cls-56" d="M400.36,199.73c1.3-.38,1.97-1.1,2.69-1.94.3.36.6.71.92,1.07-.5.66-1.07,1.31-1.93,1.76-1.03.54-2.17.68-3.23.68-.36-.48-.7-.96-1.04-1.45.86.09,1.83.1,2.58-.12ZM397.55,193.96c1.14-.18,1.59-.29,2.49-.8.16.34.33.69.52,1.03-.76.44-1.38.7-2.43.92-1.06.22-2.15.15-3.12,0-.21-.45-.4-.89-.58-1.34.95.18,2.17.34,3.12.19h0ZM399.09,189.14c-2.07-.2-4.09-1.28-5.5-2.83.1-.41.23-.82.39-1.22.81,1.01,2.57,2.77,5.19,3-.05.35-.08.7-.08,1.05ZM400.9,184.59c-1.48-.86-2.7-2.23-3.46-3.77.28-.2.56-.38.87-.55.55,1.17,1.58,2.74,3.39,3.64-.29.21-.56.43-.8.67ZM404.88,178.44c.25,1.41.99,2.6,2.15,3.45-.38.08-.75.17-1.12.26-1.02-.95-1.69-2.18-1.93-3.58.3-.05.6-.09.9-.13h0ZM411.98,177.82c.37,1.05,1.11,1.97,2.09,2.71.11.08.16.18.18.29l-1.11.14c-1-.85-1.75-1.89-2.1-3.06l.94-.07h0ZM418.9,177.13c.67,1.03,1.59,1.9,2.68,2.55-.43.09-.85.17-1.28.24-.98-.73-1.79-1.63-2.4-2.66.33-.04.66-.08.99-.13h0ZM425.09,175.87c.9.87,2.03,1.51,3.24,1.92-.43.16-.86.32-1.3.46-1.12-.51-2.14-1.22-2.95-2.12.34-.08.67-.17,1.01-.27h0ZM431.32,173.48c.83.6,1.92,1,2.9,1.24-.33.23-.67.45-1.01.66-1-.32-2.02-.79-2.8-1.46.3-.14.6-.29.9-.44h0ZM435.91,170.57c.66.33,1.43.56,2.18.73-.24.26-.48.52-.73.76-.79-.21-1.58-.49-2.25-.89.27-.19.53-.39.8-.6h0Z"/><path class="cls-20" d="M442.01,164.2c.04.95-.23,1.78-1.12,3.29-10.81,18.16-36.29,9.84-40.94,18.35-4.47,8.18,9.64,18.52,17.24,24.57-1.33.48-2.74.9-4.22,1.26l-1.33.72-1.97.62c-6.07-5.76-24.04-22.69-12.61-31.91,8.22-6.64,31.18,2.17,44.95-16.9h0Z"/><path class="cls-6" d="M455.78,161.76c13.49,15.54,37.16,7.95,47.95,14,18.78,10.52-1.65,35.49-5.49,40.26l-20.47-5.34c7.52-6.01,22.59-16.23,18.05-24.52-4.65-8.51-29.37.12-40.18-18.04-2.27-3.82-.53-7.13.15-6.35h0Z"/><path class="cls-12" d="M455.92,162.23c13.48,15.54,36.39,8.09,47.19,14.14,18.78,10.52-2.43,34.88-6.28,39.65l-17.68-5.34c7.52-6.01,21.8-16.54,17.26-24.84-4.65-8.51-29.82-.03-40.63-18.19-2.27-3.82-.53-6.2.15-5.42h0Z"/><path class="cls-10" d="M487.13,213.01c6.07-5.75,24.06-22.84,12.63-32.07-8.22-6.64-31.33,2.02-45.11-17.05l.05-.47c14.6,19.72,36.52,9.76,45.94,17.46,10.63,8.68-4.95,25.74-12.46,32.53l-1.05-.4Z"/><path class="cls-55" d="M490.58,201.05c.36.68.89,1.85,1.26,3.33,6.24-7.44,10.92-15.14,6-21.5-4.48-5.8-15.45-3.17-26.88-7.19-5.23-1.55-10.37-4.32-14.74-9.49.42,1.13.85,2.5,1.34,3.88,11.59,14.77,34.76,7.69,39.17,15.76,2.6,4.76-1.1,10.26-6.14,15.21h0Z"/><path class="cls-56" d="M496.3,200.35c-1.5-.37-2.25-1.03-3.23-1.93-.3.34-.6.68-.92,1.02.69.66,1.4,1.32,2.46,1.79.92.41,1.89.56,2.81.61.35-.45.68-.91,1.01-1.37-.74.05-1.51.03-2.14-.13h0ZM499.11,193.96c-1.14-.18-1.59-.29-2.49-.8-.16.34-.33.69-.52,1.03.76.44,1.38.7,2.43.92,1.06.22,2.15.15,3.12,0,.21-.45.4-.89.58-1.34-.95.18-2.17.34-3.12.19h0ZM497.58,189.14c2.07-.2,4.08-1.28,5.49-2.83-.1-.41-.23-.82-.39-1.22-.81,1.01-2.57,2.77-5.18,3,.05.35.08.7.08,1.05h0ZM495.77,184.59c1.48-.86,2.7-2.23,3.45-3.77-.27-.2-.56-.38-.87-.55-.55,1.17-1.58,2.74-3.39,3.64.29.21.56.43.8.68h0ZM491.79,178.44c-.25,1.41-.99,2.6-2.14,3.45.38.08.75.17,1.12.26,1.02-.95,1.69-2.18,1.93-3.58-.3-.05-.6-.09-.9-.13h0ZM484.69,177.82c-.37,1.05-1.11,1.97-2.09,2.71-.11.08-.16.18-.18.29l1.11.14c1-.85,1.75-1.89,2.1-3.06l-.94-.07h0ZM477.77,177.13c-.67,1.03-1.59,1.9-2.69,2.55.43.09.85.17,1.28.24.98-.73,1.79-1.63,2.4-2.66-.33-.04-.66-.08-.99-.13h0ZM471.58,175.87c-.9.87-2.03,1.51-3.24,1.92.43.16.86.32,1.3.46,1.12-.51,2.14-1.22,2.95-2.12-.34-.08-.67-.17-1.01-.27h0ZM465.35,173.48c-.83.6-1.92,1-2.9,1.24.33.23.67.45,1.01.66,1-.32,2.02-.79,2.8-1.46-.3-.14-.6-.29-.9-.44ZM460.76,170.57c-.66.33-1.43.56-2.18.73.24.26.48.52.73.76.79-.21,1.58-.49,2.25-.89-.27-.19-.53-.39-.8-.6h0Z"/><path class="cls-20" d="M454.65,164.2c-.04.95.23,1.78,1.13,3.29,10.81,18.16,36.29,9.84,40.94,18.35,4.47,8.18-9.64,18.52-17.24,24.57,1.33.48,2.74.9,4.22,1.26l1.33.72,1.97.62c6.07-5.76,24.04-22.69,12.61-31.91-8.22-6.64-31.18,2.17-44.95-16.9h0Z"/><path class="cls-51" d="M448.33,196.45h-6.84s.81-6.52-.11-10.94c-.74-3.57-3.59-7.67-3.59-10.68s3.26-11.45,3.26-11.45h14.57s3.1,8.45,3.1,11.45-2.7,7.11-3.44,10.68c-.92,4.42-.11,10.94-.11,10.94h-6.84,0Z"/><path class="cls-57" d="M448.33,196.45h-6.84s1.05-6.51.2-10.94c-.69-3.6-3.13-6.4-3.45-10.06-.46-5.16,4.04-12.08,4.04-12.08h12.08s4.34,6.92,3.89,12.08c-.32,3.66-2.6,6.45-3.29,10.06-.85,4.43.2,10.94.2,10.94h-6.84,0Z"/><path class="cls-55" d="M438.23,174.15c.43-.15.89-.25,1.32-.25,1.5,0,2.1.98,2.1.98,0,0,3.93-.91,6.69-.91s6.69.91,6.69.91c0,0,.59-.98,2.09-.98.38,0,.78.08,1.16.2.03.46.02.91-.02,1.35-.32,3.66-2.6,6.45-3.29,10.06-.42,2.19-.38,4.89-.22,7.06l-6.42,3.05-6.42-3.05c.15-2.17.2-4.87-.22-7.05-.69-3.6-3.12-6.4-3.45-10.06-.04-.42-.04-.86-.02-1.3h0Z"/><path class="cls-56" d="M455.35,176.56c-.3.94-.78,2.45-1.19,3.98-.42,1.52-.77,3.05-.82,4.04-.19,3.87.47,8.07,1.24,11.86h-.28c-1.09-3.32-2.35-8.43-2.3-11.87.03-2.09,1.35-6.15,2.03-8.09.98-2.8.78-4.7.09-6.57-.69-1.89-1.87-3.75-2.84-6.49,0-.02,0-.03,0-.04h1.3c.99,2.7,2.1,4.58,2.77,6.49.67,1.94.88,3.9,0,6.7h0ZM442.1,196.45c.77-3.83,1.42-7.97,1.24-11.86-.04-.99-.4-2.52-.82-4.04-.42-1.52-.9-3.03-1.19-3.97-.89-2.81-.18-6.13.75-8.75.8-2.27,1.77-4.01,2.02-4.44h1.35c-.41.68-4.64,7.83-2.8,13.11.68,1.94,2,6,2.03,8.09.05,3.44-1.22,8.56-2.3,11.87h-.28Z"/><path class="cls-47" d="M448.33,196.45h-6.84s1.05-6.51.2-10.94c-.69-3.6-3.13-6.4-3.45-10.06-.46-5.16,4.04-12.08,4.04-12.08h12.08s4.34,6.92,3.89,12.08c-.32,3.66-2.6,6.45-3.29,10.06-.85,4.43.2,10.94.2,10.94h-6.84,0Z"/><ellipse class="cls-48" cx="448.25" cy="170.39" rx="3.41" ry="2.51"/><ellipse class="cls-45" cx="448.25" cy="170.24" rx="3.83" ry="2.74"/><circle class="cls-48" cx="448.25" cy="177.98" r="3.68"/><circle class="cls-45" cx="448.25" cy="177.98" r="4.14"/><path class="cls-44" d="M408.67,234.03s-1.06-1.07-1.38-1.94c-.26-.69-.28-1.85-.28-1.85l-3.79-6.07,8.51-8.09,16.18-4.64,20.4-1.46h.03l20.4,1.46,16.17,4.64,8.51,8.09-3.79,6.07s-.02,1.17-.28,1.85c-.32.87-1.38,1.94-1.38,1.94l-18.97-6.41-20.66-.93-20.69.93-18.97,6.41Z"/><path class="cls-50" d="M409.13,233.35s-.76-.95-1.05-1.66c-.42-1.02-.36-2.81-.36-2.81l-4.49-4.7,8.51-8.09,16.17-4.64,20.43-1.46,20.43,1.46,16.18,4.64,8.5,8.09-4.49,4.7s.05,1.79-.37,2.81c-.29.71-1.05,1.66-1.05,1.66l-18.51-5.73-20.69-.93-20.69.93-18.52,5.73h0Z"/><path class="cls-51" d="M407.09,237.04c0-7.06,18.43-12.78,41.16-12.78,22.74,0,41.17,5.72,41.17,12.78h0c0,5.98-18.43,10.83-41.16,10.83-22.74,0-41.17-4.84-41.17-10.82h0Z"/><path class="cls-50" d="M408.46,237.04c-.01-6.8,17.79-12.32,39.77-12.32,21.98,0,39.8,5.5,39.82,12.3h0c.01,5.83-17.79,10.54-39.77,10.54-21.98,0-39.8-4.71-39.82-10.52h0Z"/><ellipse class="cls-52" cx="448.25" cy="238.16" rx="36.79" ry="9.4"/><path class="cls-53" d="M484.77,239.42c-6.89,2.95-20.43,4.53-36.47,4.53-16.04,0-29.58-1.58-36.47-4.53"/><path class="cls-46" d="M484.16,236.01c-7.06,2.69-20.28,4.03-35.86,4.03-15.58,0-28.8-1.34-35.86-4.03"/><path class="cls-47" d="M480.71,233.63c-7.49,2.17-19.09,3.4-32.41,3.4-13.32,0-24.91-1.23-32.41-3.4"/><path class="cls-47" d="M475.73,231.82c-7.23,1.43-16.78,2.21-27.43,2.21s-20.2-.79-27.43-2.21"/><path class="cls-47" d="M467.35,230.07c-5.66.62-12.12.96-19.04.96s-13.38-.33-19.04-.96"/><ellipse class="cls-47" cx="448.25" cy="238.16" rx="36.48" ry="9.09"/><path class="cls-2" d="M403.01,222.51c-3.61-4.8-6.83-8.07-14.65-10.83,1.07-.86,2.97-1.65,4.79-2.1,2.98-.73,6.02-.33,7.97.69-1.55-5.55,1.43-11.09,1.43-11.09,0,0,4.82-.28,9.7,3.65.16-6.73,2.13-9.92,2.13-9.92,0,0,5.07.24,10.26,5.4.99-6.96,4.74-10.73,4.74-10.73,0,0,6.23,1.95,9.79,8.52,2.37-9.52,9.16-13.25,9.16-13.25,0,0,6.79,3.73,9.16,13.25,3.56-6.57,9.79-8.52,9.79-8.52,0,0,3.73,3.64,4.74,10.73,5.19-5.15,10.26-5.4,10.26-5.4,0,0,1.97,3.19,2.13,9.92,4.88-3.92,10.18-2.46,10.18-2.46,0,0,2.5,4.36.95,9.91,1.95-1.02,5-1.42,7.97-.69,1.82.45,3.72,1.23,4.79,2.1-7,2.54-11.19,6.03-14.8,10.83-3.38-6.9-21.45-14.49-45.17-14.49s-41.94,7.59-45.32,14.49h0Z"/><path class="cls-3" d="M403.01,221.73c-3.09-4.84-7.55-8.38-12.17-10.17,1.07-.86,2.96-1.19,4.96-1.33,2.34-.16,4.29.17,5.95.95-1.55-5.55.97-11.23.97-11.23,0,0,4.97.02,9.85,3.94.16-6.73,2.29-10.06,2.29-10.06,0,0,4.76.53,9.94,5.68,1.11-6.95,4.75-10.87,4.75-10.87,0,0,6.23,1.93,9.79,8.5,2.37-9.52,9-12.92,9-12.92,0,0,6.63,3.4,9,12.92,3.56-6.57,9.79-8.5,9.79-8.5,0,0,3.75,3.51,4.75,10.87,5.19-5.16,9.94-5.68,9.94-5.68,0,0,2.13,3.34,2.29,10.06,4.88-3.92,10.47-2.86,10.47-2.86,0,0,1.9,4.6.35,10.15,1.65-.78,3.6-1.11,5.94-.95,2,.14,3.88.47,4.96,1.33-4.62,1.79-9.08,5.33-12.17,10.17-3.38-6.9-21.61-13.86-45.32-13.86s-41.94,6.96-45.32,13.86h0Z"/><path class="cls-51" d="M401.25,223.91c0-8.75,20.9-16.19,47.05-16.19s46.28,7.73,46.28,15.41c0,1.84-1.63,3.42-3.77,4.77.21-.58.31-1.17.31-1.76,0-7.68-16.67-13.91-42.82-13.91s-42.82,6.23-42.82,13.91c0,.6.11,1.19.31,1.76-2.15-1.35-4.55-2.16-4.55-3.99h0Z"/><path class="cls-54" d="M402.48,223.13c0-6.64,19.67-14.95,45.83-14.95s45.83,8.3,45.83,14.95c0,1.84-2.05,2.02-2.23,1.46-2.2-6.73-17.44-12.67-43.6-12.67s-41.4,5.93-43.6,12.67c-.18.57-2.23.38-2.23-1.46h0Z"/><path class="cls-28" d="M447.83,201.84c.15-2.35.46-7.57.46-7.57,0-.05.07-.83.08-.77,0,0,.29,5.99.43,8.34.14,2.34.29,6.01.29,6.01,0,.02-.02.04-.04.04h-1.5s-.04-.01-.04-.03c0,0,.17-3.68.32-6.02h0ZM486.29,215.39c.41-.81.92-1.84,1.29-2.65.75-1.66,2.11-4.3,2.11-4.3.02-.05-.04-.08-.07-.03,0,0-1.7,2.4-2.65,3.89-.5.79-1.19,1.79-1.72,2.57l1.05.53ZM473.48,210.75c.23-.51,1.3-2.89,2.12-4.42.99-1.81,2.77-4.51,2.77-4.51.03-.05.09,0,.07.04,0,0-1.28,2.73-2.01,4.51-.72,1.74-1.71,4.51-1.71,4.51h-.66s-.57-.13-.57-.13ZM461.88,208.66c.28-1.12.86-3.37,1.32-4.95.64-2.22,1.04-3.46,1.79-5.64.02-.05.09-.03.08.02-.42,2.25-.65,3.53-1.04,5.79-.27,1.61-.64,3.91-.8,4.95l-1.34-.17ZM422.57,210.9h-.57s-1.03-2.79-1.75-4.53c-.74-1.78-2.01-4.51-2.01-4.51-.02-.05.04-.08.07-.04,0,0,1.78,2.7,2.77,4.51.83,1.52,1.9,3.9,2.12,4.41l-.62.16ZM433.45,208.83c-.16-1.04-.53-3.34-.8-4.95-.38-2.26-.61-3.54-1.04-5.79,0-.05.06-.07.08-.02.75,2.18,1.15,3.42,1.79,5.64.46,1.58,1.03,3.83,1.32,4.95l-1.34.17ZM410.26,215.45c-.41-.82-.94-1.88-1.32-2.72-.76-1.66-2.11-4.3-2.11-4.3-.02-.05.04-.08.07-.03,0,0,1.7,2.4,2.65,3.89.52.81,1.22,1.84,1.76,2.62l-1.06.54Z"/><path class="cls-40" d="M409.86,227.17c-.34-1.91-1.98-3.44-3.26-3.22-1.27.22-3.07,2.12-2.74,4.03.33,1.91,2.72,3.29,3.99,3.07,1.27-.22,2.34-1.97,2-3.88h0Z"/><path class="cls-57" d="M407.74,224.83c.35.42.57.96.57,1.55,0,1.32-1.07,2.39-2.39,2.39-.44,0-.85-.12-1.2-.32-.07-.17-.12-.35-.15-.53-.29-1.65.97-3.14,2.07-3.34.08-.01.16-.02.24-.02.3,0,.59.09.86.27h0Z"/><path class="cls-41" d="M409.16,227.21c-.29-1.65-1.42-2.83-2.52-2.64-1.1.19-2.36,1.69-2.07,3.34.29,1.65,2.06,2.85,3.15,2.66,1.1-.19,1.73-1.71,1.43-3.36h0Z"/><path class="cls-32" d="M423.65,222.59l-.6-3.58-2.41-1.22s-2.59.7-4.21,1.28c-1.67.59-4.21,1.73-4.21,1.73l-.6,1.05.75,4.05,1.35,1.2,9.02-2.71.91-1.81h0Z"/><path class="cls-57" d="M413.72,225.19l7.23-2.29.45-.75-.62-3.75-.26-.26-8.02,2.94.61,3.4.62.7Z"/><path class="cls-43" d="M413.72,225.19l7.23-2.29.45-.75-.48-3M423.47,222.59l-2.08-.44"/><path class="cls-57" d="M433.98,218.75c-.07-.83.54-1.56,1.37-1.63.83-.07,1.56.54,1.63,1.37.07.83-.54,1.55-1.37,1.63-.83.07-1.56-.54-1.63-1.37ZM430.5,222.07c-.07-.83.54-1.56,1.37-1.63.83-.07,1.56.54,1.63,1.37.07.83-.54,1.56-1.37,1.63-.83.07-1.56-.54-1.63-1.37ZM426.94,219.41c-.07-.83.54-1.56,1.37-1.63.83-.07,1.41.54,1.48,1.37.07.83-.39,1.56-1.22,1.63-.83.07-1.56-.54-1.63-1.37h0ZM429.97,216.08c-.07-.83.54-1.55,1.37-1.63.83-.07,1.56.54,1.63,1.37.07.83-.54,1.56-1.37,1.63-.83.07-1.55-.54-1.63-1.37Z"/><path class="cls-55" d="M434.07,219.15c.2-.53.68-.92,1.28-.97.69-.06,1.31.35,1.54.97-.2.53-.68.92-1.28.97-.69.06-1.31-.35-1.54-.97ZM430.06,216.48c.23.62.85,1.03,1.54.97.6-.05,1.08-.45,1.28-.97-.23-.62-.85-1.03-1.54-.97-.6.05-1.08.45-1.28.97h0ZM427.03,219.8c.23.62.85,1.03,1.54.97.58-.05.99-.43,1.15-.94-.19-.63-.71-1.06-1.41-1-.6.05-1.08.45-1.28.97h0ZM430.59,222.47c.23.62.85,1.03,1.54.97.6-.05,1.08-.45,1.28-.97-.23-.62-.85-1.03-1.54-.97-.59.05-1.08.45-1.28.97Z"/><path class="cls-16" d="M433.98,218.75c-.07-.83.54-1.56,1.37-1.63.83-.07,1.56.54,1.63,1.37.07.83-.54,1.55-1.37,1.63-.83.07-1.56-.54-1.63-1.37ZM430.5,222.07c-.07-.83.54-1.56,1.37-1.63.83-.07,1.56.54,1.63,1.37.07.83-.54,1.56-1.37,1.63-.83.07-1.56-.54-1.63-1.37ZM426.94,219.41c-.07-.83.54-1.56,1.37-1.63.83-.07,1.41.54,1.48,1.37.07.83-.39,1.56-1.22,1.63-.83.07-1.56-.54-1.63-1.37h0ZM429.97,216.08c-.07-.83.54-1.55,1.37-1.63.83-.07,1.56.54,1.63,1.37.07.83-.54,1.56-1.37,1.63-.83.07-1.55-.54-1.63-1.37Z"/><path class="cls-55" d="M441.11,220.14v-3.89l2.27-2.11h9.92l2.27,2.11v3.89s-2.27,1.96-2.27,1.96h-9.92l-2.27-1.96Z"/><path class="cls-57" d="M453.49,214.59l-.8.81v3.72l-.63.62-7.51-.05-.62-.62v-3.57l-.67-.91h10.24Z"/><path class="cls-41" d="M441.11,220.14v-3.89l2.27-2.11h9.92l2.27,2.11v3.89s-2.27,1.96-2.27,1.96h-9.92l-2.27-1.96Z"/><path class="cls-43" d="M441.72,219.98l2.21-.85M454.92,220.04l-2.23-.91M443.64,221.85l.9-2.1M452.96,221.85l-.9-2.1M452.69,215.41v3.72l-.63.62-7.51-.05-.62-.62v-3.72"/><path class="cls-57" d="M462.63,218.75c.07-.83-.54-1.56-1.37-1.63-.83-.07-1.56.54-1.63,1.37-.07.83.54,1.55,1.37,1.63.83.07,1.55-.54,1.63-1.37h0ZM466.11,222.07c.07-.83-.54-1.56-1.37-1.63-.83-.07-1.56.54-1.63,1.37-.07.83.54,1.56,1.37,1.63.83.07,1.55-.54,1.63-1.37ZM469.66,219.41c.07-.83-.54-1.56-1.37-1.63-.83-.07-1.41.54-1.48,1.37-.07.83.39,1.56,1.22,1.63.83.07,1.56-.54,1.63-1.37h0ZM466.64,216.08c.07-.83-.54-1.55-1.37-1.63-.83-.07-1.55.54-1.63,1.37-.07.83.54,1.56,1.37,1.63.83.07,1.55-.54,1.63-1.37h0Z"/><path class="cls-55" d="M462.54,219.15c-.2-.53-.68-.92-1.28-.97-.69-.06-1.31.35-1.54.97.2.53.68.92,1.28.97.69.06,1.31-.35,1.54-.97ZM463.73,216.48c.2.53.68.92,1.28.97.69.06,1.31-.35,1.54-.97-.2-.52-.68-.92-1.28-.97-.69-.06-1.31.35-1.54.97h0ZM466.89,219.83c.16.51.56.89,1.15.95.69.06,1.31-.35,1.54-.97-.2-.52-.68-.92-1.28-.97-.7-.06-1.22.37-1.41,1ZM463.2,222.47c.2.53.68.92,1.28.97.69.06,1.31-.35,1.54-.97-.2-.53-.68-.92-1.28-.97-.69-.06-1.31.35-1.54.97Z"/><path class="cls-16" d="M462.63,218.75c.07-.83-.54-1.56-1.37-1.63-.83-.07-1.56.54-1.63,1.37-.07.83.54,1.55,1.37,1.63.83.07,1.55-.54,1.63-1.37h0ZM466.11,222.07c.07-.83-.54-1.56-1.37-1.63-.83-.07-1.56.54-1.63,1.37-.07.83.54,1.56,1.37,1.63.83.07,1.55-.54,1.63-1.37ZM469.66,219.41c.07-.83-.54-1.56-1.37-1.63-.83-.07-1.41.54-1.48,1.37-.07.83.39,1.56,1.22,1.63.83.07,1.56-.54,1.63-1.37h0ZM466.64,216.08c.07-.83-.54-1.55-1.37-1.63-.83-.07-1.55.54-1.63,1.37-.07.83.54,1.56,1.37,1.63.83.07,1.55-.54,1.63-1.37h0Z"/><path class="cls-32" d="M472.95,222.59l.6-3.58,2.41-1.22s2.59.7,4.21,1.28c1.67.59,4.21,1.73,4.21,1.73l.6,1.05-.75,4.05-1.35,1.2-9.02-2.71-.91-1.81h0Z"/><path class="cls-57" d="M482.89,225.19l-7.22-2.29-.45-.75.63-3.75.26-.26,8.03,2.94-.61,3.4-.62.7Z"/><path class="cls-43" d="M482.89,225.19l-7.22-2.29-.45-.75.48-3M473.8,224.11l1.86-1.2"/><path class="cls-40" d="M486.66,227.17c.34-1.91,1.99-3.44,3.25-3.22,1.27.22,3.08,2.12,2.74,4.03-.34,1.91-2.72,3.29-3.99,3.07-1.27-.22-2.34-1.97-2-3.88h0Z"/><path class="cls-57" d="M488.21,226.37c0-.59.21-1.13.57-1.55.27-.17.57-.27.86-.27.08,0,.16,0,.24.02,1.1.19,2.36,1.69,2.07,3.34-.03.18-.08.36-.15.53-.35.2-.76.32-1.2.32-1.32,0-2.39-1.07-2.39-2.39h0Z"/><path class="cls-41" d="M487.36,227.21c.29-1.65,1.42-2.83,2.52-2.64,1.1.19,2.36,1.69,2.07,3.34-.29,1.65-2.05,2.85-3.15,2.66-1.1-.19-1.73-1.71-1.44-3.36Z"/><path class="cls-38" d="M472.53,222.63l.65-3.89,2.56-1.27s2.78.76,4.51,1.37c1.79.63,4.51,1.84,4.51,1.84l.65,1.13-.81,4.35-1.45,1.29-9.66-2.9-.96-1.92h0ZM440.62,216.09l2.4-2.24h10.62l2.4,2.24v4.21s-2.4,2.08-2.4,2.08h-10.62l-2.4-2.08v-4.21h0ZM424.07,222.63l-.65-3.89-2.56-1.27s-2.78.76-4.51,1.37c-1.79.63-4.51,1.84-4.51,1.84l-.64,1.13.8,4.35,1.45,1.29,9.66-2.9.96-1.92h0Z"/><path class="cls-24" d="M456.38,125.6c1.78,0,3.07,1.58,3.07,3.36s-1.3,3.52-3.07,3.52c-2.32,0-5.69-2.74-5.57-.56l.06,1.1,1.23,10.15c3.02.68-10.55.68-7.53,0l1.24-10.19.05-1.06c.11-2.18-3.34.56-5.57.56-1.78,0-3.07-1.74-3.07-3.52s1.29-3.36,3.07-3.36,3.68,1.63,4.92.86c1.95-1.2-.4-3.91-.4-5.73s1.74-3.22,3.52-3.22,3.52,1.45,3.52,3.22-2.36,4.45-.4,5.73c1.17.77,3.11-.86,4.92-.86h0Z"/><path class="cls-57" d="M445.74,121.26c-.21-.25-.36-.52-.46-.81.38-1.32,1.66-2.37,3.05-2.37.61,0,1.2.2,1.7.54-.11.36-.92.43-1.68,1.08-1.1.92-1.69,2.66-2.61,1.56ZM446.25,126.35c.14.2.22.41.22.63,0,1.1-1.9,1.99-4.24,1.99-1.96,0-3.62-.63-4.1-1.48.57-.88,1.6-1.47,2.69-1.47,1.64,0,3.87,1.39,5.03.68.17-.1.3-.22.4-.35h0ZM449.52,126.52c0-.51.24-.99.67-1.4-.11.63.02,1.18.64,1.59,1.1.71,3.34-.68,5.03-.68,1.08,0,2.09.57,2.67,1.43-.65,1.04-2.36,1.78-4.36,1.78-2.56,0-4.64-1.22-4.64-2.72h0Z"/><path class="cls-16" d="M455.85,126.02c1.66,0,3.16,1.36,3.16,3.02s-1.5,3.02-3.16,3.02-5.74-2.9-5.64-.69l.05,1.18.7,9.78c2.82.64-8.08.64-5.26,0l.7-9.83.05-1.14c.1-2.21-4.1.69-5.64.69-1.66,0-3.16-1.36-3.16-3.02s1.5-3.02,3.16-3.02,3.87,1.39,5.03.68c1.82-1.12-.68-3.77-.68-5.47s1.51-3.16,3.17-3.16,3.17,1.5,3.17,3.16-2.52,4.27-.68,5.47c1.09.71,3.34-.68,5.03-.68h0Z"/><circle class="cls-31" cx="448.25" cy="146.04" r="7.9"/><path class="cls-56" d="M449.71,151.03c.53-.66,1.11-1.5,1.36-2.29.18-.57.77-.3.65.18-.23.85-.75,1.75-1.25,2.45l-.75-.35ZM441.02,146.38c.14-.12.29-.26.48-.41.18-.15.4-.31.65-.45.33-.22.1-.74-.31-.55-.43.21-.78.43-1.01.58l.19.82ZM440.97,147.55l.41.73c.58-.61,1.54-1.5,1.7-1.64.36-.34-.11-.73-.41-.51-.35.25-.86.64-1.22.97-.2.18-.37.34-.48.45ZM441.57,149.31l.51.6c1.21-.94,2.29-2.09,2.46-2.27.34-.37-.05-.88-.46-.51-.19.2-1.77,1.6-2.51,2.17h-.01s0,0,0,0ZM452.35,150.64c.38-.43.8-1.04.93-1.74.05-.25.23-.37.4-.33.17.04.29.21.26.45-.14.84-.58,1.56-.99,2.04l-.6-.43ZM446.29,151.42c1.11-1.27,1.91-2.35,2.64-3.56.11-.18.31-.23.46-.16.16.07.23.26.12.48-.46.93-1.07,1.9-1.62,2.59-.55.69-.95,1.17-.95,1.17l-.65-.52ZM444.05,150.04c.74-.69,1.59-1.55,2.06-2.13.28-.34.88-.08.54.43-.44.65-1.13,1.46-1.76,2.04l-.84-.35Z"/><path class="cls-1" d="M454.39,163.37h-12.09c-1.02,1.73-4.26,2.9-6.9,1.52-1.88-.98-2.26-3.21-2.26-3.21,0,0,5.06.18,5.09-4.29,0-4.54,2.61-7.5,6.36-7.06,1.64.19,2.74,1.02,3.75,1.94,1.01-.92,2.12-1.75,3.76-1.94,3.75-.44,6.35,2.52,6.35,7.02s5.09,4.33,5.09,4.33c0,0-.38,2.23-2.26,3.21-2.66,1.38-5.91.2-6.88-1.52h0Z"/><path class="cls-55" d="M454.39,163.37h-.42c-1.12,1.04-2.88,2.09-5.64,2.71-2.76-.61-4.52-1.67-5.64-2.71h-.39s-4.24,3.01-7.21.75c-1.1-.83-1.33-1.98-1.33-1.98,0,0,5.09-.28,5.09-4.79s2.44-6.4,5.73-6.4c1.44,0,2.74.71,3.76,1.63,1.01-.92,2.32-1.63,3.76-1.63,3.29,0,5.73,1.9,5.73,6.4s5.09,4.79,5.09,4.79c0,0-.23,1.15-1.33,1.98-2.98,2.25-7.19-.75-7.19-.75h0Z"/><path class="cls-35" d="M439.42,154.78c-.27.64.16,2.86.16,2.86,0,0,.14,2.02-1.45,3.56-1.11,1.07-3.65,1.54-3.65,1.54M457.26,154.78c.27.64-.16,2.86-.16,2.86,0,0-.14,2.02,1.45,3.56,1.11,1.07,3.65,1.54,3.65,1.54"/><path class="cls-57" d="M448.24,165.62c-6.3-1.43-7.11-5.33-6.94-5.29.41.1,1.87,2.95,7.03,4.38,5.17-1.44,6.62-4.28,7.04-4.38.17-.04-.64,3.86-6.94,5.29h-.19ZM440.5,154.5c0-1.52,2.53-2.8,5.93-3.15.7.3,1.35.74,1.9,1.24.55-.5,1.19-.94,1.89-1.24,3.4.35,5.92,1.63,5.92,3.15,0,3.61-4.13,5.36-7.82,5.36-3.7,0-7.82-1.74-7.82-5.36h0Z"/><path class="cls-16" d="M454.39,163.37h-.42c-1.12,1.04-2.88,2.09-5.64,2.71-2.76-.61-4.52-1.67-5.64-2.71h-.39s-4.24,3.01-7.21.75c-1.1-.83-1.33-1.98-1.33-1.98,0,0,5.09-.28,5.09-4.79s2.44-6.4,5.73-6.4c1.44,0,2.74.71,3.76,1.63,1.01-.92,2.32-1.63,3.76-1.63,3.29,0,5.73,1.9,5.73,6.4s5.09,4.79,5.09,4.79c0,0-.23,1.15-1.33,1.98-2.98,2.25-7.19-.75-7.19-.75h0Z"/><path class="cls-6" d="M455.88,160.37s-.75,5.05-7.55,6.56c-6.8-1.5-7.55-6.56-7.55-6.56,0,0,.75,4.21,7.55,5.71,6.79-1.5,7.55-5.71,7.55-5.71Z"/></g><g id="shield"><path class="cls-63" d="M447.05,257.24c13.54-.24,71.82-10.01,71.82,70.93s-70.56,108.05-70.56,108.05c0,0-70.56-29.78-70.56-113.91,0-75.07,69.31-65.06,69.31-65.06h0Z"/><path class="cls-64" d="M469.93,378.13c4.13-2.3,8.89-3.62,13.95-3.62,8.24,0,15.66,3.47,20.89,9.04-20.59,37.02-56.47,52.66-56.47,52.66,0,0-34.96-14.76-55.66-52.83,5.22-5.46,12.58-8.86,20.73-8.86,5.68,0,10.97,1.65,15.43,4.5,5.23-5.63,12.7-9.15,21-9.15,7.85,0,14.96,3.16,20.14,8.27h0Z"/><path class="cls-58" d="M482.22,374.91c3.55.41,9.77,3.76,12.78,8.27-2.34,3.86-6.82,9.99-9.3,13.37-5.5-8.07-16.88-18.87-16.09-18.09.11.11.59-.28.73-.35,1.1-.61,2.12-1.17,3.12-1.64,2.02-.79,4.15-1.35,6.36-1.67.76-.02,1.55,0,2.4.11h0ZM458.04,425.68c-4.5,2.37-7.99,3.9-9.74,4.63-1.75-.73-5.25-2.26-9.74-4.63-8.71-7.05-26.64-23.51-39.27-47.43,4.07-2.28,8.76-3.58,13.76-3.58.41,0,2.11.49,3.35,1.08,7.94,3.73,17.76,14.43,14.14,16.48-2.66,1.5-10.26-.96-10.65,1.98-.15,1.11,14.1,8.94,22.19,15.83,6.64,5.65,17,14.8,15.96,15.64h0ZM475.34,418.65c-9.06-8.9-29.45-27-46.5-39.68,4.73-5.06,11.27-8.41,18.58-9.01l.38.05c9.84,1.41,18.76,11.96,15.14,14.01-2.66,1.5-10.26-.96-10.65,1.98-.13.98,10.19,7.22,16.24,12.42,5.93,5.1,9.81,8.77,14.22,13.58-2.49,2.41-4.97,4.62-7.4,6.65h0Z"/><path class="cls-56" d="M470.32,377.69c1.89,1.78,2.71,3.26,2.71,3.27.18.3-.02.99-.56.49,0,0-.75-.71-2.95-2.86-2.96-2.89-8.09-6.55-12.34-7.26-.41-.07-.58-.27-.53-.57.05-.3.31-.58.71-.51.08.01,6.34,1.19,12.96,7.44h0ZM435.45,383.25c.19.17.25.42.14.59-.11.19-.35.23-.56.08-3.59-2.55-5.34-3.61-7.41-4.92-.16-.1-.27-.28-.15-.46.08-.12.25-.2.41-.25.33-.09.82-.11,1.13.09,2.11,1.32,3.52,2.46,6.44,4.86h0Z"/><path class="cls-17" d="M469.93,378.13c4.13-2.3,8.89-4.08,13.95-4.08,8.28,0,15.73,3.64,20.97,9.37M392.54,383.19c5.23-5.68,12.62-9.29,20.83-9.29,5.68,0,10.97,2.27,15.43,5.12,5.23-5.63,12.7-9.77,21-9.77,7.85,0,14.96,3.77,20.14,8.89"/><path class="cls-7" d="M416.16,260.27h66.97M407.22,263.98h84.12M401.09,267.69h95.79M396.44,271.41h104.63M392.74,275.12h111.65M389.73,278.83h117.37M387.24,282.54h122.1M385.18,286.26h126.05M383.47,289.97h129.33M382.05,293.68h132.08M380.88,297.39h134.36M379.94,301.11h136.22M465.91,304.82h51.01M379.19,304.82h51.35M482.53,308.53h35M378.61,308.53h35.44M489,312.25h29.02M378.19,312.25h29.23M495.3,315.96h23.08M377.92,315.96h22.99M501.52,319.67h17.12M377.78,319.67h17.09M505.99,323.38h12.8M377.75,323.38h13.03M510.08,327.09h8.77M377.83,327.09h8.48"/><g id="tower1"><path class="cls-56" d="M404.91,330.15l-.02-7.23,7.75-3.02,7.75,2.09.02,8.16h-15.5Z"/><path class="cls-60" d="M421.49,362.97l3.39,13.95c-3.53-1.55-7.42-2.41-11.52-2.41l-.73-57.56,3.1.89v6.05l3.87,1v-5.99l5.27,1.39v9.84l-3.39,5.04v27.81h0Z"/><path class="cls-62" d="M412.64,361.9v-44.94h0s-3.1,1.36-3.1,1.36v5.97l-3.87,1.54v-5.99l-5.27,2.24v9.53l3.79,4.54.09,27.39-3.88,14.08c3.69-1.88,7.85-2.98,12.24-3.09v-12.63h0Z"/><path class="cls-43" d="M412.5,361.79l-8.23,1.74M402.53,372.2l10.05-2.12,10.86,1.17M412.22,366.02l-8.87,1.81M421.01,343.14l-8.36-1.74-8.48,2.59M421.01,347.1l-8.36-1.6-8.48,2.45M404.16,340.09l8.48-2.74,8.36,1.77M404.16,351.84l8.48-2.26,8.36,1.49M404.24,355.73l8.41-2.08,8.44,1.38M404.24,359.63l8.41-1.89,8.52,1.27M418.07,334.6v3.84M414.97,337.86v3.91M418.07,342.6v3.92M410.16,342.23v3.91M410.16,350.26v3.91M406.44,355.53v3.6M406.44,339.72v3.6M410.16,334.21v3.92M412.66,327.15l12.23,2.98M412.66,327.15l-12.26,4.45"/><path class="cls-17" d="M412.64,374.52v-57.57"/><path class="cls-56" d="M418.84,364.43l-3.72-.51v-11.78c0-1.45.88-2.34,1.68-2.34,1.41,0,2.05,1.58,2.05,2.96v11.67Z"/><path class="cls-16" d="M421.49,362.97l3.39,13.95c-3.53-1.55-7.42-2.41-11.52-2.41-4.67,0-9.08,1.12-12.97,3.1l3.87-14.08-.09-27.39-3.78-4.54v-9.53l5.27-2.24v5.99l3.87-1.54v-5.97l3.1-1.36,3.1.89v6.05l3.87,1v-5.99l5.27,1.39v9.84l-3.39,5.04v27.81h0ZM424.59,376.39c-3.41-1.41-7.3-2.19-11.22-2.19-4.47,0-8.86,1.01-12.65,2.82l3.85-13.41-.08-27.48s-.06-.18-.07-.2l-3.71-4.46v-9.21l4.65-1.97v5.52c0,.25.19.38.43.29l3.87-1.54c.08-.03.19-.2.19-.29v-5.76l2.81-1.23,2.77.8v5.82c0,.11.12.27.23.3l3.87,1c.22.06.39-.08.39-.3v-5.59l4.65,1.22v9.51l-3.34,4.96s-.05.16-.05.17v27.81l3.41,13.42h0ZM425.81,376.85c.08.31-.76.02-1.05-.11-3.49-1.53-7.34-2.38-11.39-2.38-4.62,0-8.98,1.1-12.83,3.06-.3.15-1.15.43-1.06.11l4.48-14.04-.09-27.24-3.71-4.46s-.07-.17-.07-.2v-9.53c0-.08.11-.25.19-.28l5.27-2.24c.24-.1.43.03.43.28v5.53l3.25-1.3v-5.76c0-.08.11-.25.19-.28l3.1-1.36s.19-.02.21-.01l3.1.89c.1.03.22.19.22.3v5.81l3.25.84v-5.59c0-.23.17-.36.39-.3l5.27,1.39c.11.03.23.19.23.3v9.84s-.04.16-.05.17l-3.34,4.96v27.68l4.01,13.91h0ZM412.66,333.27l8.36,1.89M412.66,333.27l-8.48,2.87"/></g><g id="tower2"><path class="cls-56" d="M439.78,324.72l-.02-7.38,7.75-2.79,7.75,2.4.02,7.77h-15.5Z"/><path class="cls-60" d="M456.36,357.86l3.4,13.79c-3.1-1.15-6.46-1.78-9.96-1.78-.81,0-1.62.03-2.41.1l.13-58.44,3.1,1.05v6.05l3.87,1.08v-5.92l5.27,1.69v9.81l-3.4,4.84v27.73h0Z"/><path class="cls-62" d="M447.51,369.94v-58.41h0l-3.1,1.2v6.04l-3.88,1.38v-5.99l-5.27,2.08v9.64l3.79,4.64.09,27.58-3.88,15.7c3.64-2.14,7.8-3.51,12.25-3.86v-.02h0Z"/><path class="cls-43" d="M447.06,360.58l-8.58,1.65M457.96,366.09l-10.5-1.32-10.36,1.97M441.33,345.73v3.76M445.05,352.89v3.92M445.05,328.64v3.91M441.33,333.98v3.76M445.05,336.73v3.91M452.95,337.33v3.91M449.85,332.59v3.91M452.95,329.41v3.84M439.12,354.13l8.4-1.81,8.52,1.58M439.05,346.26l8.48-2.11,8.36,1.8M439.05,342.37l8.48-2.29,8.36,1.91M439.05,338.42l8.48-2.43,8.36,2.05M439.05,334.45l8.48-2.54,8.36,2.15M455.97,349.92l-8.44-1.69-8.4,2M447.51,356.39l-8.37,1.71M459.76,325.29l-12.24-3.56-12.24,4.16M455.89,330.11l-8.36-2.26-8.48,2.68"/><path class="cls-17" d="M447.51,369.94v-58.41"/><path class="cls-56" d="M453.71,359.16l-3.72-.59v-11.78c0-1.45.88-2.26,1.68-2.26,1.4,0,2.04,1.58,2.04,2.27v12.36Z"/><path class="cls-16" d="M459.47,371.16c-2.98-1.04-6.34-1.6-9.68-1.6-5.1,0-10.04,1.32-14.2,3.63l3.86-15-.08-27.65s-.06-.18-.07-.2l-3.71-4.55v-9.32l4.65-1.84v5.53c0,.25.18.38.41.29l3.87-1.39c.09-.03.21-.2.21-.29v-5.83l2.8-1.09,2.78.94v5.83c0,.11.12.27.23.3l3.87,1.08c.22.06.39-.07.39-.3v-5.49l4.65,1.5v9.49l-3.34,4.76s-.06.16-.06.18v27.73l3.42,13.3h0ZM460.68,371.57c.07.3-.74,0-1.03-.1-3.07-1.14-6.39-1.76-9.86-1.76-5.24,0-10.15,1.42-14.37,3.9-.29.17-1.16.46-1.08.12l4.49-15.67-.09-27.43-3.71-4.55s-.07-.17-.07-.19v-9.64c0-.09.11-.26.2-.29l5.27-2.08c.24-.09.42.04.42.29v5.55l3.26-1.16v-5.83c0-.09.11-.26.2-.29l3.1-1.2s.19-.01.21,0l3.1,1.05c.09.03.21.2.21.29v5.82l3.26.9v-5.51c0-.24.18-.37.41-.29l5.27,1.7c.1.03.21.2.21.3v9.81s-.05.16-.06.18l-3.34,4.76v27.6l4.01,13.75h0ZM456.36,357.86l3.4,13.79c-3.1-1.15-6.46-1.78-9.96-1.78-5.3,0-10.27,1.44-14.52,3.95l3.87-15.7-.09-27.58-3.78-4.64v-9.64l5.27-2.08v5.99l3.87-1.39v-6.04l3.1-1.2,3.1,1.05v6.05l3.87,1.08v-5.92l5.27,1.69v9.81l-3.4,4.84v27.73h0Z"/></g><g id="tower3"><path class="cls-56" d="M474.65,330.3v-8.16s7.73-2.17,7.73-2.17l7.75,2.56.02,7.77h-15.5Z"/><path class="cls-60" d="M491.23,363.28l3.39,13.31c-3.32-1.34-6.94-2.08-10.74-2.08-.55,0-1.09.02-1.63.05l.13-57.61,3.1,1.04v6.05l3.87,1.31v-5.92l5.27,1.77v9.69l-3.39,4.8v27.58h0Z"/><path class="cls-62" d="M482.38,361.9v-44.94l-3.1.97v6.04l-3.88,1.15v-5.99l-5.27,1.7v9.76l3.79,4.85.09,27.55-3.88,15.03c3.67-2.01,7.82-3.24,12.24-3.47v-12.66h0Z"/><path class="cls-43" d="M471.83,371.75l10.51-1.63,10.7,1.41M481.94,365.97l-8.85,1.36M479.91,333.9v3.91M476.18,339.1v3.76M476.18,354.99v3.76M479.91,350.1v3.91M479.91,342v3.91M487.81,342.83v3.91M484.71,338.01v3.91M487.81,334.91v3.84M473.98,359.17l8.4-1.43,8.52,1.58M473.9,347.33l8.48-1.83,8.37,1.99M490.75,351.45l-8.37-1.88-8.48,1.72M490.75,343.53l-8.37-2.12-8.48,1.97M490.75,339.57l-8.37-2.23-8.48,2.08M490.76,335.7l-8.36-2.43-8.48,2.17M470.14,330.59l12.26-3.44,12.23,3.75M482.4,361.79l-8.39,1.36M473.98,355.27l8.4-1.61,8.44,1.77"/><path class="cls-17" d="M482.38,374.55v-57.6"/><path class="cls-56" d="M488.58,364.66l-3.72-.59v-11.78c0-1.45.88-2.26,1.68-2.26,1.41,0,2.05,1.58,2.05,2.27v12.36Z"/><path class="cls-16" d="M494.33,376.09c-3.2-1.21-6.82-1.88-10.44-1.88-4.78,0-9.45,1.16-13.43,3.21l3.85-14.35-.08-27.63s-.05-.17-.07-.19l-3.72-4.77v-9.43l4.65-1.5v5.56c0,.23.17.36.4.3l3.87-1.16c.1-.03.22-.19.22-.3v-5.82l2.79-.87,2.79.94v5.83c0,.1.12.26.21.29l3.88,1.31c.23.08.41-.05.41-.29v-5.49l4.65,1.56v9.37l-3.34,4.72s-.06.16-.06.18v27.58l3.41,12.8h0ZM491.23,363.28l3.39,13.31c-3.32-1.34-6.94-2.08-10.74-2.08-4.98,0-9.67,1.27-13.75,3.5l3.87-15.03-.09-27.55-3.79-4.85v-9.76l5.27-1.7v5.99l3.87-1.15v-6.04l3.1-.97,3.1,1.04v6.05l3.87,1.31v-5.92l5.27,1.77v9.69l-3.39,4.8v27.58h0ZM495.55,376.52c.08.3-.75.02-1.04-.1-3.28-1.32-6.87-2.06-10.62-2.06-4.93,0-9.56,1.26-13.6,3.47-.3.16-1-.18-.91-.5l4.33-14.37-.09-27.4-3.72-4.77s-.07-.17-.07-.19v-9.76c0-.1.12-.26.22-.29l5.27-1.69c.23-.07.41.06.41.3v5.57l3.25-.97v-5.81c0-.1.12-.27.22-.3l3.1-.97s.17,0,.19,0l3.1,1.04c.09.03.21.2.21.29v5.83l3.26,1.1v-5.48c0-.24.18-.37.41-.29l5.27,1.77c.09.03.21.2.21.29v9.69s-.05.16-.06.18l-3.34,4.72v27.44l4,13.27h0Z"/></g><g id="feather"><path class="cls-6" d="M417.67,298.45c-.28-2.57-1.28-6.73-4.72-6.2.17,4.47,5.86,21.29-.64,22.45l-.22-.23c.08-7.64-7.55-15.97-6.06-22.63.98-4.38,4.29-6.74,8.7-6.74,8.05,0,9.16,10,3.28,13.5l-.35-.15h0Z"/><path class="cls-14" d="M418.11,297.28c-.65-2.87-2.23-6.61-5.84-5.97l-.24.31c.17,4.8,6.19,19.42.46,22-.15-8.37-7.69-13.8-5.76-21.64.54-2.17,2.71-4.88,4.82-5.67.99-.37,2.12-.68,3.19-.66,7.26.15,9.14,7.67,3.38,11.63h0Z"/><path class="cls-56" d="M407.83,294.46c.62-1.7,2.65-3.42,4.47-3.64.38-.05.68.29.83.71h-.17c-.21,0-.41.02-.61.07.01.31.04.63.07.97-.85.05-2.33.4-3.83,2.24-.7.86-1.07.5-.75-.35h0Z"/><path class="cls-39" d="M408.25,294.98l4.25-1.74M408.57,296.51l4.2-1.81M408.91,298.13l4.2-1.98M409.72,299.67l3.79-1.96M410.99,301.11l2.95-1.68M413.11,302.13l1.29-.72"/><path class="cls-56" d="M417.39,289.34c-2.23-3.28-7.83-1.44-9.28.64-.1.15-.47-.08-.68-.16-.03-.01-.05-.02-.08-.04.39-.64.87-1.3,1.42-1.88,2.71-1.73,7.44-2.08,9.34.98.15.24.04.48-.14.59-.18.11-.44.1-.59-.13h0Z"/></g><g id="feather-2"><path class="cls-6" d="M453.01,293.03c-.28-2.57-1.28-6.73-4.72-6.2.17,4.47,5.86,21.29-.64,22.45l-.22-.23c.08-7.64-7.55-15.97-6.06-22.63.98-4.38,4.29-6.74,8.7-6.74,8.05,0,9.16,10,3.28,13.5l-.35-.15h0Z"/><path class="cls-14" d="M453.45,291.86c-.65-2.87-2.23-6.61-5.84-5.97l-.24.31c.17,4.8,6.19,19.42.46,22-.15-8.37-7.69-13.8-5.76-21.64.54-2.17,2.71-4.88,4.82-5.67.99-.37,2.12-.68,3.19-.66,7.26.15,9.14,7.67,3.38,11.63h0Z"/><path class="cls-56" d="M443.17,289.04c.62-1.7,2.65-3.42,4.47-3.64.38-.05.68.29.83.71h-.17c-.21,0-.41.02-.61.07.01.31.04.63.07.97-.85.05-2.33.4-3.83,2.24-.7.86-1.07.5-.75-.35h0Z"/><path class="cls-39" d="M443.59,289.56l4.25-1.74M443.91,291.09l4.2-1.81M444.25,292.71l4.2-1.98M445.06,294.25l3.79-1.96M446.33,295.68l2.95-1.68M448.45,296.71l1.29-.72"/><path class="cls-56" d="M452.73,283.92c-2.23-3.28-7.83-1.44-9.28.64-.1.15-.47-.08-.68-.16-.03-.01-.05-.02-.08-.04.39-.64.87-1.3,1.42-1.88,2.71-1.73,7.44-2.08,9.34.98.15.24.04.48-.14.59-.18.11-.44.1-.59-.13h0Z"/></g><g id="feather-3"><path class="cls-6" d="M488.34,298.45c-.28-2.57-1.28-6.73-4.72-6.2.17,4.47,5.86,21.29-.64,22.45l-.22-.23c.08-7.64-7.55-15.97-6.06-22.63.98-4.38,4.29-6.74,8.7-6.74,8.05,0,9.16,10,3.28,13.5l-.35-.15h0Z"/><path class="cls-14" d="M488.78,297.28c-.65-2.87-2.23-6.61-5.84-5.97l-.24.31c.17,4.8,6.19,19.42.46,22-.15-8.37-7.69-13.8-5.76-21.64.54-2.17,2.71-4.88,4.82-5.67.99-.37,2.12-.68,3.19-.66,7.26.15,9.14,7.67,3.38,11.63h0Z"/><path class="cls-56" d="M478.5,294.46c.62-1.7,2.65-3.42,4.47-3.64.38-.05.68.29.83.71h-.17c-.21,0-.41.02-.61.07.01.31.04.63.07.97-.85.05-2.33.4-3.83,2.24-.7.86-1.07.5-.75-.35h0Z"/><path class="cls-39" d="M478.92,294.98l4.25-1.74M479.25,296.51l4.2-1.81M479.58,298.13l4.2-1.98M480.39,299.67l3.79-1.96M481.66,301.11l2.95-1.68M483.79,302.13l1.29-.72"/><path class="cls-56" d="M488.06,289.34c-2.23-3.28-7.83-1.44-9.28.64-.1.15-.47-.08-.68-.16-.03-.01-.05-.02-.08-.04.39-.64.87-1.3,1.42-1.88,2.71-1.73,7.44-2.08,9.34.98.15.24.04.48-.14.59-.18.11-.44.1-.59-.13h0Z"/></g><path class="cls-6" d="M494.51,270.28c3.26,2.15,14.81,8.64,16.52,45.64,3.33,72.1-58.02,114.16-58.02,114.16,0,0,77.62-33.05,77.62-114.23h0c0-34.17-13.57-71.19-40.48-71.19l-14.79.05-21.48,10.05c-1.12-1.57-3.27-2.59-5.35-2.59s-4.23,1.02-5.35,2.59l-21.48-10.05-15.26-.05c-26.91,0-40.48,37.02-40.48,71.19h0c0,81.18,77.62,114.23,77.62,114.23,0,0-61.35-42.07-58.02-114.16,1.71-36.99,13.26-43.48,16.52-45.64l18.13,6.05,22.91-13.41c1.49,1.6,3.04,2.73,5.4,2.73,2.36,0,3.68-.93,5.4-2.73l22.76,13.57,17.82-6.2Z"/><path class="cls-1" d="M479.71,243.89l-31.17,13.54-31.17-13.54-10.92.77c-26.91,0-40.48,37.02-40.48,71.19h0c0,81.18,77.62,114.23,77.62,114.23,0,0-62.12-42.07-58.79-114.16,1.71-36.99,13.57-44.41,16.83-46.57l19.98,5.56,26.93-15.92,26.93,15.92,19.51-5.56c3.26,2.15,15.12,9.57,16.83,46.57,3.33,72.1-58.79,114.16-58.79,114.16,0,0,77.62-33.05,77.62-114.23h0c0-34.17-13.57-71.19-40.48-71.19l-10.45-.77Z"/><path class="cls-56" d="M485.59,258.66c-3.72.44-6.32,2.93-6.45,6.74-.07,2.04.9,5.07,2.3,6.35l-.84.92c-1.65-1.51-2.87-4.89-2.78-7.31.15-4.27,3.15-7.24,7.62-7.76l.15,1.08ZM411.08,257.58c4.47.52,7.47,3.5,7.62,7.76.08,2.42-1.13,5.8-2.78,7.31l-.84-.92c1.4-1.28,2.37-4.31,2.3-6.35-.13-3.81-2.73-6.3-6.45-6.74l.15-1.08ZM402.35,265.03c-5.4,3.49-10.29,10.1-13.03,16.93-.15.36-.38.46-.62.38-.21-.08-.3-.38-.2-.68,2.59-7.18,7.44-13.66,13.53-18.19l.33,1.57h0ZM409.54,252.18c-13.21,0-23.02,9.3-29.64,26.47-.15.32-.45.56-.78.45-.26-.09-.29-.47-.17-.8,6.62-17.49,16.73-27.2,30.59-27.2,6.04,0,11.23,1.49,15.67,4.75l.24,1.61c-4.46-3.63-9.74-5.28-15.91-5.28h0ZM409.54,255.74c-11.53,0-20.52,9.72-26.18,24.02-.16.34-.39.52-.71.39-.25-.1-.27-.47-.15-.77,5.38-14.46,14.81-24.73,27.04-24.73,6.13,0,11.39,1.94,15.81,6.2l-.21,1.38c-4.33-4.45-9.53-6.49-15.6-6.49h0ZM422.76,268.33c-2.3-6.87-6.06-9.51-13.38-9.51-9.65,0-17.6,8.77-22.86,22.04-.13.3-.35.48-.64.38-.25-.09-.29-.43-.18-.74,5.11-13.48,13.32-23.08,23.67-23.08,7.69,0,11.79,3.16,14.02,9.85l-.64,1.06h0ZM473.81,268.43l-.67-.96c2.2-6.8,6.29-10.02,14-10.05,12.43.06,21.97,14.06,26.93,32.33.1.36.03.75-.29.81-.32.06-.57-.18-.66-.52-4.97-18.03-14.44-31.17-25.9-31.23-7.38.02-11.12,2.69-13.41,9.61h0ZM517.2,290.19c.1.41.07.76-.3.85-.29.08-.56-.15-.66-.59-4.77-20.38-14.97-34.36-29.18-34.36-6.11,0-11.32,1.52-15.64,5.96l-.2-1.43c4.43-4.27,9.69-5.69,15.84-5.69,15.12,0,25.64,14.93,30.14,35.26h0ZM521.03,290.73c.08.39-.06.75-.39.8-.32.05-.57-.22-.65-.59-4.69-22.3-15.79-38.72-33.15-38.72-6.1,0-11.33,2.1-15.73,5.76l.17-1.61c4.42-3.4,9.58-5.31,15.56-5.31,18.29,0,29.69,17.31,34.18,39.67h0ZM489.38,262.5c9.51,1.16,18.06,12.3,21.67,26.99.09.37,0,.74-.32.83-.31.08-.58-.11-.72-.59-4.11-15.83-12.26-24.68-20.76-25.76l.12-1.46h0Z"/><path class="cls-16" d="M467.6,270.26c-.73-.87-2.93-3.99-2.93-10.27M464.38,268.35c-.68-.92-2.32-3.61-2.32-8.37M461.2,266.47c-.58-.89-1.76-3.11-1.76-6.48M458.09,264.63c-.4-.8-1.12-2.52-1.12-4.64M429.47,270.26c.73-.87,2.93-3.99,2.93-10.27M432.69,268.35c.68-.92,2.32-3.61,2.32-8.37M435.88,266.47c.58-.89,1.76-3.11,1.76-6.48M438.98,264.64c.4-.8,1.12-2.52,1.12-4.65"/><circle class="cls-55" cx="448.54" cy="258.99" r="6.2"/><path class="cls-16" d="M442.39,257.53c.66-2.8,3.14-4.89,6.15-4.89,2.63,0,4.88,1.59,5.85,3.87M454.71,260.57c-.7,2.74-3.21,4.77-6.18,4.77-2.7,0-5.01-1.69-5.93-4.07M450.17,262.89c-.5.21-1.05.33-1.63.33-2.28,0-4.14-1.81-4.23-4.07M452.18,261.14c-.46.78-1.17,1.4-2.01,1.75M448.98,260.99c-.14.03-.29.05-.44.05-1.06,0-1.94-.81-2.05-1.85M444.38,257.96c.12-.55.37-.89.47-1.04"/><path class="cls-16" d="M442.39,257.53c0-2.92,2.56-5.36,6.15-5.36,2.74,0,5.85,1.92,5.85,4.34M454.71,260.57c0,2.69-3.21,5.08-6.18,5.08-2.7,0-5.93-1.96-5.93-4.38"/><path class="cls-6" d="M471.6,271.97c3.27,4.33,8.31,7.07,13.97,7.07,7.4,0,13.03-4.6,13.03-11.95-.17-3.89-2.8-8.7-9.02-8.7-4.04,0-7.47,3.9-7.47,7.94,0,2.23.43,3.58,1.8,5.26-5.54-1.78-9.2-4.73-9.2-11.01s4.27-11.05,11.27-11.64c23.39-1.94,37.67,24.01,40.43,59.89,3.92,51.18-23.68,91.97-65.64,115.27-5.86,3.25-10.45,5.85-12.44,6.69l-.03,6.37c15.98-6.11,34.5-17.89,46.05-28.44,21.99-20.09,42.97-54.08,39.79-99.85-2.01-28.91-11.01-48.29-22.06-57.87-18.89-16.38-44.65-9.84-44.65,9.58,0,4.24,1.67,8.22,4.17,11.39h0ZM425.01,271.97c-3.27,4.33-8.31,7.07-13.97,7.07-7.4,0-13.03-4.6-13.03-11.95.17-3.89,2.8-8.7,9.02-8.7,4.04,0,7.47,3.9,7.47,7.94,0,2.23-.43,3.58-1.8,5.26,5.54-1.78,9.2-4.73,9.2-11.01s-4.27-11.05-11.27-11.64c-23.39-1.94-37.67,24.01-40.43,59.89-3.92,51.18,23.68,91.97,65.64,115.27,5.86,3.25,10.45,5.85,12.44,6.69l.03,6.37c-15.98-6.11-34.5-17.89-46.05-28.44-21.99-20.09-42.97-54.08-39.79-99.85,2.01-28.91,11.01-48.29,22.06-57.87,18.89-16.38,44.65-9.84,44.65,9.58,0,4.24-1.67,8.22-4.17,11.39h0Z"/><path class="cls-12" d="M448.3,436.7c-15.98-6.11-34.5-18.67-46.05-29.22-21.99-20.09-41.58-53.3-38.4-99.08,2.01-28.9,10.55-47.21,21.6-56.79,18.89-16.38,43.26-8.92,43.26,8.96,0,9.84-7.99,17.84-17.83,17.84-5.96,0-12.25-4.84-11.63-12.1.17-3.89,3.38-7,7.31-7s7.32,3.27,7.32,7.32c0,2.23-1.46,4.39-3.04,5.73,6.22-.22,11.68-5.51,11.68-11.79s-4.89-11.83-11.89-12.41c-23.39-1.94-38.5,24.63-41.05,60.67-3.62,51.2,24.3,92.6,66.26,115.89,5.88,3.27,10.49,5.25,12.47,6.08,1.97-.83,6.58-2.82,12.47-6.08,41.96-23.29,69.88-64.69,66.26-115.89-2.55-36.04-17.66-62.61-41.05-60.67-7,.58-11.89,5.97-11.89,12.41s5.45,11.57,11.68,11.79c-1.58-1.34-3.04-3.5-3.04-5.73,0-4.04,3.28-7.32,7.32-7.32s7.14,3.1,7.31,7c.62,7.26-5.67,12.1-11.63,12.1-9.85,0-17.83-8-17.83-17.84,0-17.88,24.36-25.34,43.26-8.96,11.05,9.58,19.59,27.88,21.6,56.78,3.18,45.77-16.4,78.99-38.4,99.08-11.55,10.55-30.07,23.11-46.05,29.22h0Z"/></g><g id="laurel"><path class="cls-6" d="M350.7,387.52s-3.28-1.33-4.74-2.05c-2.53-1.26-8.22-8.27-14.57-11.96-9.76-5.66-19.2-4.2-27.83-7.91,1.93,9.04,8.02,17.2,18.1,21.52,8.28,3.55,21.64.5,23.09.62,1.45.12,6.07,1.9,6.07,1.9l-.12-2.13h0Z"/><path class="cls-6" d="M315.48,398.79l.09-.26c5.34-.73,10.34-1.94,15.53-3.25,11.5-2.91,16.89-.55,26.22,5.83.58.4,1.27.96,1.94,1.21,1.51.57,2.48.17,3.94.17l.13.03,2.19,1.71c.17.13.07.24-.09.28-1.9.39-4.5.39-6.5.21-3.01-.27-9.19,6.85-18,6.85-11.16,0-18.49-4.94-25.45-12.77h0Z"/><path class="cls-4" d="M364.56,404.06c-1.74.06-3.6.06-5.32.35-5.13.86-10.21,6.46-18.02,6.68-10.39.3-16.94-4.59-24.04-11.57,10.33-1.55,18.31-7.52,28.97-4.16,5.46,1.72,11.88,8.6,17.01,7.61l1.4,1.09h0Z"/><path class="cls-27" d="M358.13,402.69s-9.11,1.5-14.79,1.51c-9.17.02-23.19-3.8-23.19-3.8,0,0,13.99,4.23,23.19,4.42,5.66.11,14.79-1.2,14.79-1.2v-.93h0Z"/><path class="cls-41" d="M332.79,292.42c.08-.29.02-.63-.16-1.06-.18-.44-.46-.92-.76-1.42-.31-.53-.64-1.08-.9-1.65-.26-.59-.47-1.21-.51-1.87l1.42-.41c.1.79.58,1.81,1.12,2.61.27.4.54.73.77.93.12.11.21.17.27.2.03.02.43.45.43.45l-1.17,2.62c-.09.2-.6.01-.5-.4h0Z"/><path class="cls-33" d="M386.32,418.69c-.05-1.9.33-1.19,2.38-.36.44.18.11.6-.26.84-1.22.76-2.3,2.38-2.82,2.02-1.41-.98-.52-1.02.7-2.5h0Z"/><path class="cls-6" d="M337.41,284.68c-6.03,15.32-8.06,42.44-5.98,54.76,6.41,37.87,37.6,73.37,66.15,79.11,24.83,4.99,39.97,16.12,49.85,27.98,6.46,7.76,9.91,11.28,19.19,26.72,3.39,5.64-2.41,6.79-4.8,2.11-6.53-12.77-10.05-18.44-19.04-28.47-9.66-10.78-23.87-20.45-47.06-25.08-27.65-5.52-60.05-41.08-66.46-78.95-2.09-12.32-.26-41.73,6.06-57.27l2.08-.9"/><path class="cls-6" d="M378.54,417.08c-4.3.47-7.21,6.72-11.53,10.65-7.95,7.23-20.68,7.96-28.81,3.13-.34-.2-.51-.66-.13-.75,10.1-2.29,11.41-16.07,32.46-14.71,2.47.16,3.51.66,5.99.66l2.01,1.02h0Z"/><path class="cls-6" d="M362.56,353.02l.14.07c.11,6.15,4.77,14.55,5.92,21.32.99,5.83-.44,10.7-2.67,16.13-.56,1.35-1.87,4.07-1.92,5.41-.05,1.24.73,2.39,1.39,3.42.23.36,1.62,2.19,1.48,2.55-5.58-4.83-2.3-1.68-4.62-6.13-1.2-2.3-2.62-4.38-3.81-6.69-6.26-12.21-6.38-26.06,4.09-36.06h0Z"/><path class="cls-6" d="M402.81,419.72c-2.74-.88-5.53-1.98-7.03-4.78-2.53-4.71-1.98-8.51-4.57-13.38-4.91-9.24-14.37-10.23-19.14-18.79-.97,7.88-2.02,19.65,10.24,28.07,4.32,2.96,10.91,3.64,12.49,4.83,1.59,1.19,2.54,2.89,2.54,2.89l5.47,1.16h0Z"/><path class="cls-4" d="M397.5,418.28c-.9-.96-1.91-1.92-2.98-2.7-2.5-1.81-7.92-1.98-12.02-4.98-5.72-4.19-8.68-8.09-10.27-15-.96-4.19-.22-7.54-.03-11.02,5.15,7.48,14.09,8.18,18.88,17.13,2.91,5.44,2.52,13.7,8.48,17.01l-2.07-.44h0Z"/><path class="cls-33" d="M348.61,377.15s-.34.41-.82,1.78c-.21.61,1.13,2.46,1.02,1.82-.27-1.57.5-2.67.5-2.67l-.7-.93h0Z"/><path class="cls-4" d="M350.7,387.52s-3.28-.71-4.74-1.43c-2.53-1.26-8.11-8.6-14.57-12.27-9.26-5.26-17.33-4.16-26.44-6.82,2.59,9.72,7.53,15.54,16.71,19.66,8.22,3.69,21.64.5,23.09.62,1.45.12,6.07,2.06,6.07,2.06l-.12-1.82h0Z"/><path class="cls-42" d="M363.73,398.66c-.41-2.89-3.69-7.06-5.07-9.75-2.02-3.95-3.53-8.26-3.98-12.68-.97-9.54,1.22-14.68,7.49-21.75.05,2.07.32,2.8.95,4.73,2.63,8.09,6.3,14.78,5.11,23.58-.59,4.33-4.12,10.5-4.29,13.14-.08,1.37.69,2.98,1.37,4.13l-1.59-1.4h0Z"/><path class="cls-6" d="M340.17,372.86c-6.74-11.2-22.53-6.18-32.89-15.58-5.02-4.56-7.27-11.43-8.27-17.96-.3-1.95-1.13-9.66-.68-11.15.08-.28.36-.34.58-.13,3.43,3.36,6.87,5.52,10.85,8.21,9.44,6.39,13.31,12.39,18.18,22.35,6.37,13.05,12.14,5.61,12.23,14.27h0Z"/><path class="cls-27" d="M361.18,357.85s-2.14,11.2-1.81,18.41c.33,7.36,3.6,18.55,3.6,18.55h-.62s-3.38-11.18-3.59-18.55c-.21-7.24,2.43-18.41,2.43-18.41h0Z"/><path class="cls-4" d="M330.22,365.76c-3.63-1.15-7.79-1.85-12.2-2.91-4.14-1-7.52-3.26-10.68-6.1-4.9-4.42-6.52-10.34-7.47-16.7-.54-3.56-.68-7.02-.44-10.62.39.7.89,1.38,1.55,1.85,3.21,2.3,6.56,3.91,9.78,6.24,2.81,2.03,4.81,3.37,7.12,5.97,2.92,3.29,5.35,6.85,7.4,10.73,1.62,3.07,3,6.66,5.1,9.44l-.15,2.1Z"/><path class="cls-5" d="M330.37,363.66c1.08,1.45,5.46,3.32,7.05,3.53l1.55,3.86h0c-2.27-2.66-5.27-4.18-8.75-5.28l.15-2.1Z"/><circle class="cls-1" cx="320.21" cy="334.54" r="4.42"/><path class="cls-57" d="M320.72,330.62c-.22.52-.36,1.13-.36,1.78,0,1.95,1.15,3.53,2.56,3.53.39,0,.76-.13,1.09-.34.09-.33.14-.68.14-1.05,0-2.01-1.49-3.67-3.44-3.92Z"/><circle class="cls-17" cx="320.21" cy="334.54" r="4.72"/><path class="cls-6" d="M333.27,332.58s2.06-7.68,4-12.43c4.59-11.25,12.55-11.67,16.61-20.57,2.32,6.01,4.18,13.74.12,22.41-4.68,10.02-16.67,15.89-16.67,15.89l-4.06-5.31h0Z"/><path class="cls-42" d="M353.84,301.6c5.98,16.33-1.92,28.09-16.42,36.2l-3.82-5.28c2.49-10.49,4.28-15.65,12.3-23.1,3.17-2.95,5.94-3.9,7.94-7.81h0Z"/><path class="cls-5" d="M336.97,285.41c-5.97,15.7-7.74,41.94-5.68,54.08,6.42,37.96,37.53,73.59,66.23,79.36,24.76,4.97,39.56,16.12,49.75,27.65,4.76,5.38,8.6,10.64,11.76,15.59,2.72,4.26,5.05,8.91,7.34,12.58.37.59-2.72,1.87-3.05,1.34-2.42-3.91-4.64-8.84-7.43-13.36-3.17-5.14-8.62-10.39-13.35-15.98-10.08-11.9-23.5-20.84-46.76-25.48-27.5-5.49-59.51-40.62-65.9-78.39-2.08-12.27-.55-40.75,4.92-55.78l2.16-1.6h0Z"/><path class="cls-6" d="M333.97,359.68c-1.23-1.18-3.01-2.31-4.19-3.54-11.03-11.44-8.13-31.44,3.96-41.2.41-.33.72-.17.78.31.49,4.03,1.11,7.82,2.73,12.26,3.69,10.13,4.29,15.95.94,24.58-2.05,5.26,0,9.9,0,9.9l-4.22-2.3h0Z"/><path class="cls-15" d="M372.86,408.96c-7.06-2.41-14.34-1.77-20.21-7.85-6.77-7.02-8.24-17.89-6.47-24.16.09-.3.32-.55.51-.32,1.5,1.84,2.3,3.17,4.28,4.62,7.07,5.21,15.74,7.83,18.74,15.79.6,1.58.8,3.25,1.35,4.84,1.91,5.47,5.04,7.12,9.57,10.11l-7.78-3.03Z"/><path class="cls-4" d="M378.37,411.86c-6.6-5.6-18.5-3.59-25.58-11.18-5.2-5.57-7.39-14.37-6.1-21.99,6.29,5.6,13.6,7.14,19.32,13.43,6.73,7.4,1,12.37,13.67,19.58l-1.3.16h0Z"/><path class="cls-6" d="M343.12,371.69l.02-.17c1.64-1.95.5-7.82-.04-10.18-.93-4.06-1.04-7.54-.37-11.67.78-4.77,3.39-9.08,6.07-13.02,1.19-1.76,5.07-7.26,5.47-9.25.03-.17.21-.16.29,0,1.48,3.22,2.25,7.15,2.85,10.63.83,4.88,1.09,9.31-.6,14.86-1.52,4.97-3.55,8.18-6.67,11.52-1.32,1.41-4.43,4.52-4.88,6.21-.08.31-.61,2.55-.49,4.18l-1.64-3.12h0Z"/><path class="cls-21" d="M332.19,307.5s.21.03,1.09-.56c.88-.59,1.96-1.61,2.41-2.88.45-1.27,3.64-11.86,7.9-18.42,4.97-7.66,10.14-11.09,16.4-16.71.98,6.07,1.13,15.96-4,23.9-4.7,7.27-16.61,12.44-17.99,12.98-1.38.54-3.75.94-5.11,2.74-.77,1.02-1.3,3.01-1.3,3.01l.6-4.06h0Z"/><path class="cls-6" d="M330.7,308.51s-.52-.02-1.19-.97c-.67-.95-1.34-2.4-1.34-3.9,0-3.17,3-12.64,1.51-19.82-2.84-13.69-7.14-19.18-7.81-24.26-.26-2.03-11.44,13.83-8.05,28.54,1.69,7.29,10.16,15.44,11.35,16.52,1.19,1.07,2.81,2.46,3.59,4.6.8,2.21.63,4.72.63,4.72l1.29-5.44h0Z"/><path class="cls-6" d="M337.26,284.96c.8-1.96,2.13-4.28,3.36-5.31,3.02-2.53,11.49-8.81,14.38-13.4,6.44-10.21,5.14-22.78,4.47-24.97-5.58,4.85-10.68,8.06-16.37,16.09-4.97,7.01-6.05,20.73-6.44,23.33-.42,2.84-1.68,5.9-1.68,5.9l2.28-1.65h0Z"/><path class="cls-19" d="M332.25,309.72l.22-1.97c1.53-.59,2.89-2.11,3.51-3.59,2.67-6.38,4.29-12.87,8.04-18.77,4.86-7.65,10.08-10.63,15.34-14.84.25,6.76,1.44,13.89-3.95,22.75-3.06,5.03-11.98,10.02-17.53,12.21-2.48.98-4.26,1.78-5.63,4.2h0Z"/><path class="cls-6" d="M309.37,296.23c8.51,7.09,10.94,10.4,13.44,21.37.29,1.28,1.92,6.83,2.27,7.52.82,1.63,2.52,2.4,3.56,3.74.11.15.4,3.04.44,3.42.03.23-.15.22-.28.11-1.32-1.21-2.02-3.11-3.57-4.24-1.33-.98-5.82-1.93-7.76-2.73-4.95-2.04-8.98-5.86-11.85-10.33-3.78-5.9-4.21-13.94-3.3-20.71.21-1.55.42-3.42.97-4.9.08-.2.2-.16.3,0,2.02,3.14,3.31,4.7,5.76,6.75h0Z"/><path class="cls-4" d="M328.25,329.14l.24,2.01c-4.04-5.47-5.39-3.85-10.98-6.16-4.86-2.01-8.81-5.76-11.64-10.16-4.22-6.56-4.14-16.27-2.36-23.67,2.27,4.47,11.13,8.95,14.53,14.52,2.19,3.59,3.55,7.85,4.63,11.88.54,2.02,1.15,6.09,1.99,7.76.62,1.25,2.51,2.92,3.59,3.82h0Z"/><path class="cls-4" d="M343.62,371.8c1.51-2.3.19-8.14-.29-10.78-.74-4.09-.8-7.62-.13-11.74,1.09-6.74,5.35-11.26,9.12-16.72.74-1.08,1.48-2.17,2.07-3.34,4.33,12.19,5.55,24.65-3.89,34.89-1.42,1.55-4.85,4.52-5.38,6.4-.28,1.01-.38,2.07-.46,3.11l-1.04-1.82h0Z"/><path class="cls-5" d="M379.57,415.21s-.53.85-3.04.85l1.24,1.22c.25-.08.51-.15.77-.2,2.4-.49,3.13-.42,4.69.18"/><path class="cls-42" d="M376.53,416.06c-2.51,0-10.34-1.3-16.61.34-9.46,2.47-13.36,11.32-20.47,14.46,10.8,4.65,18.7,3.5,27.68-3.68,3.62-2.89,5.92-8.42,10.64-9.9l-1.24-1.22Z"/><path class="cls-16" d="M453.66,460.75s.1-1.38,1.69-1.93c1.37-.48,2.08.61,2.08.61"/><path class="cls-34" d="M388.73,418.63s-.85.49-1.1.72c-.58.52-1.34.9-1.58,1.33l-.92-.09c.57-.48,1.18-1.29,1.51-1.69.19-.23,0-1.11,0-1.11l2.09.84h0Z"/><path class="cls-58" d="M335.81,285.32c1.7-4.8,1.66-10.15,2.61-15.14,2-10.52,4.99-13.94,12.59-20.97,2.42-2.24,4.9-3.87,7.53-5.86.43,3.03.62,5.56.32,8.6-1.49,14.86-7.82,18.37-18.44,27.46-2.06,1.76-2.59,4.23-4.61,5.91h0Z"/><path class="cls-59" d="M336.21,284.07c.28-.4.54-.64.69-.57.11.05.13.29.06.62-.33.43-.71.84-1.15,1.21.15-.42.28-.83.4-1.26h0Z"/><path class="cls-16" d="M335.81,285.32c1.7-4.8,1.66-10.15,2.61-15.14,2-10.52,4.99-13.94,12.59-20.97,2.42-2.24,4.9-3.87,7.53-5.86.43,3.03.62,5.56.32,8.6-1.49,14.86-7.82,18.37-18.44,27.46-2.06,1.76-2.59,4.23-4.61,5.91h0Z"/><path class="cls-56" d="M336.48,285.86s.38-1.16.96-2.65c.58-1.49.43.4.43.4l-.34,1.62-1.05.63h0Z"/><path class="cls-58" d="M330.31,308.71l-.78,2.49c-.44-3.24-1.8-4.69-4.14-6.81-10.18-9.21-14.53-20.05-10.26-32.72,1.5-4.43,2.93-6.87,6.08-10.33,1.99,3.41,2.95,5.45,4.33,9.14,3.49,9.38,4.89,14.69,3.5,25.44-.49,3.8-2.31,8.42.21,11.8.28.37.61.8,1.05.99h0Z"/><path class="cls-16" d="M330.31,308.71l-.78,2.49c-.44-3.24-1.8-4.69-4.14-6.81-10.18-9.21-14.53-20.05-10.26-32.72,1.5-4.43,2.93-6.87,6.08-10.33,1.99,3.41,2.95,5.45,4.33,9.14,3.49,9.38,4.89,14.69,3.5,25.44-.49,3.8-2.31,8.42.21,11.8.28.37.61.8,1.05.99h0Z"/><path class="cls-59" d="M330.02,314.22s.25-2.46-.14-3.96c-.19-.75-.68-1.85-.68-1.85,0,0,1.22.62,1.51.57.28-.05-.69,5.24-.69,5.24h0Z"/><path class="cls-59" d="M334.18,290.08c-.59.24-2.39-2.3-2.61-4.03-.21-1.64-.88-.95-.8.35.15,2.42,3.04,5.01,2.64,6.54.54-1.32.8-2.28.77-2.86h0Z"/><path class="cls-41" d="M334.18,290.08c-.59.24-2.39-2.3-2.61-4.03-.21-1.64-.88-.95-.8.35.15,2.42,2.73,4.57,2.33,6.1"/><circle class="cls-55" cx="329.7" cy="283.26" r="4.42"/><path class="cls-57" d="M329.96,282.84c-1.2-.84-1.72-2.15-1.17-2.94.55-.78,1.97-.74,3.16.1,1.2.84,1.72,2.15,1.17,2.94-.55.79-1.97.74-3.16-.09h0Z"/><circle class="cls-36" cx="329.66" cy="283.39" r="4.61"/><circle class="cls-55" cx="352.22" cy="374.17" r="4.57"/><path class="cls-57" d="M351.68,373.72c-.98-1.34-1.01-2.98-.07-3.66.93-.68,2.48-.14,3.46,1.2.97,1.34,1.01,2.98.07,3.66-.93.68-2.48.14-3.46-1.2Z"/><circle class="cls-11" cx="352.22" cy="374.17" r="4.8"/><path class="cls-16" d="M455.05,462.3s.05-1.39,1.69-1.78c1.5-.35,2.08.93,2.08.93M466.05,477.06c-2.99.62-4.82-3.13-3.79-4.06.67-.6,2.32-.47,3.54.12,2.17,1.06,1.59,3.66.25,3.94h0Z"/><path class="cls-59" d="M466.05,477.06c-2.48.63-4.43-2.7-3.79-3.44.59-.68,1.85-.71,3.06-.12,2.17,1.06,2.04,3.23.72,3.56Z"/><path class="cls-16" d="M466.05,477.06c-2.48.63-4.43-2.7-3.79-3.44.59-.68,1.85-.71,3.06-.12,2.17,1.06,2.04,3.23.72,3.56Z"/><path class="cls-27" d="M335.69,285.93c3.14-9.16,4.9-15.6,10.1-24.54,3.54-6.08,10.48-14.69,10.48-14.69,0,0-6.54,8.83-9.93,14.96-4.79,8.66-5.87,12.39-9.7,23.46l-.96.82h0Z"/><path class="cls-27" d="M320.8,265.57s-1.15,14.39.66,23.29c1.63,8,7.27,19.63,7.27,19.63,0,0,.32.23-1.32-4.08-1.68-4.43-3.82-9.32-5.18-15.58-1.93-8.88-1.43-23.27-1.43-23.27h0Z"/><path class="cls-27" d="M307.35,302.95s1.9,4.98,3.54,7.95c4.48,8.17,8.33,12.45,15.97,17.77l.22-.69c-7.37-5.23-10.84-9.41-15.58-17.09-1.84-2.98-4.15-7.95-4.15-7.95h0Z"/><path class="cls-27" d="M334.73,306.29s9.16-8.45,13.84-15.07c4.14-5.85,9.1-16.21,9.1-16.21,0,0-4.53,10.49-8.55,16.37-4.51,6.6-13.15,14.9-13.15,14.9h-1.24Z"/><path class="cls-27" d="M343.71,372.54c1.74-4.2,4.36-9.98,6.32-16.63,2.45-8.35,3.91-12.42,4.19-21.93-.14,9.49-1.15,12.77-3.16,20.68-1.71,6.73-4.05,12.64-5.8,16.83l-1.55,1.05h0Z"/><path class="cls-27" d="M338.49,330.42s6.9-6.03,9.98-11.43c4.06-7.12,4.74-12.83,4.74-12.83,0,0-.07,5.74-4.13,12.86-3.08,5.4-10.32,12.29-10.32,12.29l-.27-.89h0Z"/><path class="cls-27" d="M330.63,364.63s-5.95-3.77-9.21-6.52c-12.66-10.66-20.59-25.03-20.59-25.03,0,0,7.25,15.17,20.12,25.65,3.42,2.78,9.68,6.67,9.68,6.67v-.77h0Z"/><path class="cls-16" d="M331.45,366.16s-1.14-.49-.55-1.57"/><path class="cls-27" d="M376.89,409.74c-5.59-3.51-13.44-8.74-20.53-16.02-2.42-2.49-5.91-6.67-5.91-6.67,0,0,2.83,4.42,5.14,6.82,6.31,6.57,14.99,12.74,20.57,16.25l.73-.39h0Z"/><path class="cls-27" d="M396.22,416.45s-10.51-7.54-15.23-14.11c-2.57-3.58-3.82-5.79-5.56-9.83,2.09,4.06,3.5,6.25,6.33,9.83,4.73,5.99,14.46,13.18,14.46,13.18v.93h0Z"/><path class="cls-27" d="M344.2,429.96c15.45-2.15,21.46-11.17,34.61-13.22-1.39.07-1.13-.47-2.39-.21-11.6,2.45-18.7,11.22-32.22,13.43h0Z"/><circle class="cls-55" cx="363.05" cy="411.96" r="4.57"/><path class="cls-57" d="M367.54,411.09c-.04.15-.1.29-.18.43-.67,1.16-2.51,1.35-4.1.43-1.59-.92-2.34-2.61-1.67-3.77.19-.33.48-.58.83-.75.21-.03.42-.04.64-.04,2.23,0,4.08,1.59,4.49,3.7h0Z"/><circle class="cls-13" cx="363.05" cy="411.96" r="4.8"/><path class="cls-59" d="M379.05,414.08s.43.24.69.54c.27.3.36.66.18.88,0,0,.11.26.45.51.46.33,1.06.31,1.73.41.85.14,1.45.25,2.05.43.6.18,1.36.49,1.36.49l-3.43-1.71-3.04-1.56h0Z"/><path class="cls-27" d="M346.01,387.3s-8.53-2.24-19.42-6.3c-10.9-4.07-18.24-10.87-18.24-10.87,0,0,7.34,6.18,18.24,10.25,10.89,4.07,19.42,5.99,19.42,5.99v.93h0Z"/><circle class="cls-9" cx="382.94" cy="424.72" r="4.88"/><path class="cls-57" d="M386.41,427.7c-1.46.55-3.39-.4-4.48-2.28-1.17-2.03-.91-4.37.57-5.23l.06-.03c.12,0,.25-.02.37-.02,2.52,0,4.57,2.05,4.57,4.57,0,1.14-.42,2.18-1.1,2.98h0Z"/><circle class="cls-16" cx="382.94" cy="424.72" r="4.57"/><path class="cls-59" d="M337.85,362.3s.52,1.59.92,2.58c.3.73.84,1.85.84,1.85,0,0-1.12.24-1.12.11s-.87-4.52-.87-4.52l.23-.02h0Z"/><path class="cls-58" d="M337.26,363.22c-1.65-2.53-5.16-5.34-7.15-7.4-3.41-3.54-5.53-7.61-6.31-12.49-1.84-11.55,1.52-19.31,9.95-27.12.53,8.1,5.16,14.82,6.14,22.9,1.41,11.6-5.98,13.79-.85,25.14l-1.78-1.04h0Z"/><path class="cls-59" d="M336.14,360.92s.1.5.24,1.12c.33.4.63.79.88,1.18l1.46.85-.78-2.67-1.8-.49h0Z"/><path class="cls-16" d="M337.26,363.22c-1.65-2.53-5.16-5.34-7.15-7.4-3.41-3.54-5.53-7.61-6.31-12.49-1.84-11.55,1.52-19.31,9.95-27.12.53,8.1,5.16,14.82,6.14,22.9,1.41,11.6-5.98,13.79-.85,25.14"/><path class="cls-27" d="M337.25,360.82c-3.36-5.05-4.01-7.51-5.43-12.72-2.67-9.77-2.68-21.63-.17-25.97-2.51,4.33-3.03,16.14-.6,25.97,1.37,5.54,2.45,8.44,5.56,13.54l.64-.83h0Z"/><path class="cls-16" d="M336.84,362.63c-.82-.96.23-2.53,1.17-1.14"/></g><g id="oak"><path class="cls-33" d="M562.92,287.43s.01-.23.04-.27c0,0,.3-.43.6-1.15.31-.72.61-1.72.63-2.83l1.66.34c-1.38,4.94-1.44,6.69-1.44,6.69-.01.42-.48.48-.61.08l-.88-2.87h0Z"/><path class="cls-6" d="M567.38,305.06c1.32-.87,1.77-3.11,1.85-4.56.15-2.6-2.02-4.91-2.13-7.32-.07-1.55,1.27-1.71,1.52-2.91.22-1.08-3.96-4.86-2.83-7.83.81-2.13,2.5-1.08,3.15-3.31.68-2.36-1.43-5.72,1.29-7.31,1.32-.77,3.26.35,3.84-1.71.59-2.1.12-6.27,3.14-6.57,4.01-.39,4.63,7.82,5.37,8.4.77.6,1.79-.5,2.88-.07,2.95,1.17-.21,6.61-1.22,8.42,7.47.31.64,4.95-.51,7.02.32.75,2.23,1.03,2.54,2.18.21.76-.36,1.42-.88,1.88-1.67,1.48-4.17,2.03-5.99,3.23l-.25.18c-.06.68,1.83,2.68-.72,3.53-4.77,1.59-7.8,2.63-9.64,7.44-.49,1.29-.67,5.26-.76,4.85l-.66-5.54h0Z"/><path class="cls-4" d="M568.1,308.82l-.83-3.64c.22-.12.41-.3.6-.48.97-.93,1.43-3.51,1.51-4.8.16-2.81-1.88-4.42-1.98-6.76-.05-1.21,1.29-1.65,1.51-2.79.28-1.46-3.76-5-2.7-7.76.72-1.87,2.46-.91,3.16-3.34.61-2.13-1.22-5.92,1.07-7.19,1.39-.77,3.38.47,4.06-1.99.51-1.86.12-5.03,2.74-5.29,3.57-.36,4.11,6.81,5.04,7.53,1.03.79,1.85-.24,2.84.15,1.49.58,1.12,2.64.79,3.83-.39,1.38-1.06,2.52-1.63,3.8-.11.26-.11.5.19.61.94.35,1.74.2,2.07,1.44.44,1.67-2.13,3.5-2.69,4.82-.44,1.03,1.29,1.29,1.52,2.66.32,1.93-6.15,4.09-6.65,5-.06,1.26,1.62,2.57-.42,3.26-5.13,1.72-10.24,4.95-10.18,10.96h0Z"/><path class="cls-27" d="M567.65,305.61s6.53-11.62,8.42-19.87c1.3-5.71,1.88-14.96,1.88-14.96,0,0-.28,9.21-1.41,14.94-1.72,8.71-8.47,20.99-8.47,20.99l-.41-1.09h0Z"/><path class="cls-33" d="M567.86,316.65s.05-.23.08-.27c0,0,1.28-1.34,2.03-2.2.3-.33.48-.74.59-1.06.11-.32.14-.55.14-.55.03-.21.21-.32.41-.25l2.17.72c.3.1.34.37.08.55-.01,0-1.67,1.18-2.27,1.89-1.32,1.57-1.67,2.17-2.2,3.79-.12.38-.54.35-.6-.05l-.43-2.58h0Z"/><path class="cls-34" d="M568.6,319.17c.55-1.67.92-2.3,2.25-3.9.63-.75,2.33-1.95,2.33-1.95l-2.17-.72s-.14,1.03-.8,1.78c-.76.86-2.04,2.21-2.04,2.21l.43,2.58h0Z"/><path class="cls-6" d="M559.95,277.1s2.73,5.43,5.07,13.79c4.84,17.25,5.46,39.65,3.38,51.97-6.41,37.87-40.66,73.28-68.32,78.8-23.19,4.63-36.87,14.51-46.59,25.24-7.56,8.73-10.48,13.94-17.33,27.91-2.11,4.3-9.02,5.14-6.05-.91,5.37-9.49,10.48-18.26,18.35-27.59,10.23-11.57,24.94-22.91,49.77-27.9,28.55-5.74,61.44-41.08,67.85-78.95,2.08-12.32,1.44-39.17-5.52-56.44l-.61-5.9"/><path class="cls-29" d="M545.51,270.08s-8.05-.31-4.18-6.4c-3.68-1.81-8.12-5.09-3.37-7.8-.21-.92-3.02-1.81-2.81-3.99.12-1.25,1.71-1.82,1.84-2.36-.52-.99-4.2-5.7-2.92-7.11,1.95-2.16,6.17.44,8.1,1.6.48-.29,1.19-.89,1.66-1.2,2.81-1.86,2.99,2.64,3.76,4.07.35.66,2.57-1.12,4.06-.33,2.58,1.37,1.44,4.7,2.09,6.96.65-.07,1.58-.6,2.23-.64,4.19-.28,1.92,7.09,1.74,9.41,6.66-.96,1.54,5.87,1.91,11.74.1,1.62-.4,5.2-1.65,3.83-3.94-4.34-14.9-3.15-12.46-7.77h0Z"/><path class="cls-22" d="M544.58,294.28c-1.44-.12-4.57-.56-5.19-1.93-.97-2.17,1.56-2.91,1.43-3.08-.89-1.18-4.99-1.94-5.02-3.59-.02-1.16,1.92-1.99,1.58-3.05-.47-1.45-3.24-3.65-2.16-5.26,1.3-1.95,4.03.67,5.35.65.63,0,1.51-1.4,2.72-1.42,1.77-.03,2.85,3.41,3.52,3.32.74-.1,1.19-1.12,1.92-1.33,2.22-.67,2.85,1.73,3.37,3.29,1.03,3.09,2.14-.58,3.81.15,4.21,1.84,2.48,10.09,3.7,11.08.74.6,2.12.52,2.66,1.36,1.15,1.79-.43,5.42.46,8.66.36,1.31,4.46,5.12,4.46,5.12,0,0,.64,3.82.53,3.62-1.85-3.55-2.25-4.39-5.55-6.92-3.17-2.42-8-.5-9.11-1.77-1.24-1.42.19-2.71-.45-3.33-.25-.24-3.97.15-4.53.1-2.65-.27-5.08-2.68-3.5-5.69h0Z"/><path class="cls-23" d="M566.77,307.95l.43,2.38c-6.8-9.72-12.34-5.86-13.8-7.44-1.11-1.2.3-2.07-.6-3.01-.96-1-6.67,1.11-8.37-3.32-.35-.92.91-2.45.27-2.57-1.45-.28-3.39-.24-4.38-1.55-.41-.55-.77-1.29-.23-1.88.28-.3.61-.56.84-.91.88-1.31-4.49-2.33-4.5-4.28-.01-1.12,1.46-1.52.92-2.9-.47-1.21-2.1-3.2-1.27-4.52,1.01-1.59,3.27.41,4.53.56.62.07,1.67-1.39,2.69-1.42,1.63-.05,2.32,2.97,3.56,2.85,1.21-.12,2.59-2.01,3.92-.37.92,1.14.9,4.48,3.07,3.51.52-.23,1.29-.86,1.87-.61,3.47,1.5,2.58,7.07,3.44,10.03.46,1.59,2.12,1.24,2.71,2.22.29.48.53,1.03.57,1.59.04.48-.03.95-.1,1.43-.27,1.92-.09,3.65.4,5.53.39,1.5,2.49,4.28,4.02,4.68h0Z"/><path class="cls-6" d="M568.34,337.59l.34-.28c1.2-.02,2.03-2.5,2.39-3.45,1.5-3.93-1.2-10.46,3.35-10.44.23-1.63.57-5.62,2.05-6.69,1.07-.77,2.13.2,3.15-.11.76-1.53,1.12-4.44,3.3-4.85.69-.13,2.14.99,2.38.87.6-.3,1.3-3.42,3.05-3.89,1.08-.29,2.09.82,2.49.57.64-.41,1.26-1.08,1.79-1.64,2.28-2.43,5.12-2.48,5.04.77-.03,1.16-.77,2.79-1.18,3.84-.14.36,1.43,1.11,1.67,1.57.81,1.53-2.03,3.36-2.66,4.56.04.2,1.5.49,1.72.8,1.89,2.64-3.57,5.53-4.95,7.15-.54.64,1.32,2.06,1.07,3.16-1.04,4.43-7.86,2.8-9.38,3.49-.53.24-.69,2.61-1.13,3.21-1.92,2.6-9.53-.58-11.25,1.05-1.57,1.48-2.1,4.01-3.1,5.81-.22.39-.63.27-.6-.14l.47-5.38h0Z"/><path class="cls-4" d="M568.79,337.78c1.41-.07,2.29-2.63,2.71-3.75.55-1.45.8-2.9.86-4.45.09-2.25-1.52-6.2,1.97-5.67,0,0,.74-5.28,2.25-6.49.99-.79,2.74-.34,3.17-.66,1.01-.74.62-3.96,2.79-4.37.84-.16,2.35.67,2.99.35.8-.4,1.09-2.81,2.63-3.22.96-.26,2.24.78,2.86.39,1.32-.83,2.33-3.44,4.21-2.92,2.11.59,1.37,3.8.83,5.12-.38.94.69,1.28,1.06,1.97.71,1.3-1.65,3.36-1.95,4.5-.11.43.93.94,1.19,1.22,1.57,1.68-2.48,4.65-3.56,5.58-.32.28-1.03.83-1.07,1.27-.08.94.93,1.63.67,2.78-.89,3.9-6.32,2.75-8.45,3.46-.86.29-.98,2.03-1.52,2.76-1.71,2.34-9.19.08-11.19,1.91-1.2,1.1-2.17,2.98-2.83,4.46l.37-4.25h0Z"/><path class="cls-27" d="M569.91,336.78c.24-.07,9.07-7.09,14.03-12.48,4.06-4.41,9.46-12.12,9.46-12.12,0,0-5.33,7.86-9.3,12.43-5.02,5.78-13.94,13.5-14.18,13.57-.24.07-.24-1.33,0-1.4h0Z"/><path class="cls-6" d="M571.95,314.19c-2.08-1.21-1.77-7.67,1.27-10.61,2.56-2.47,9.71,4.8,7.49,7.81-1.23,1.66-6.57,4.07-8.76,2.8h0Z"/><path class="cls-6" d="M580.75,310.28c-1.29,1.06-4.27-.32-5.79-1.84-1.39-1.39-2.23-3.52-1.4-4.5,1.64-1.94,6.2-4.73,8.39-2.89,2.18,1.83-.04,8.28-1.21,9.24Z"/><path class="cls-5" d="M580.33,311.11c-1.17,1.58-6.26,3.62-8.15,2.52-1.64-.95-1.62-6.84,1.36-9.72,1.88-1.81,8.89,4.35,6.79,7.2h0Z"/><path class="cls-37" d="M581.5,301.55c1.82,1.53.06,7.45-1.05,8.36-.94.77-3.61-.26-5.16-1.81-1.41-1.41-2.08-3.38-1.53-4.03,1.68-2,5.92-4.05,7.74-2.53h0Z"/><path class="cls-57" d="M580.14,301.59c-.53.56-.88,1.51-.88,2.59,0,1.68.84,3.06,1.89,3.11.14-.46.28-.94.38-1.44.17-.86.25-1.73.19-2.44-.07-.71-.29-1.21-.58-1.45,0,0-.01-.01-.02-.02-.25-.2-.57-.32-.97-.36,0,0-.01,0-.02,0h0Z"/><path class="cls-26" d="M542.01,316.54c-.58-1.79-3.34-3.03-3.63-5.18-.13-.98.94-2.65.85-2.94-.48-1.56-3.07-3.57-1.74-5.5,1.72-2.5,4.16.08,6.2.67.33-.13.45-1.25,1.24-1.46,3.12-.83,5.83,4.23,6.65,4.54,2.42.92,4.31-3.36,5.63,5.98,1.03-.25,2.44-.5,3.06.56,2.57,4.4,1.07,13.89,6.21,16.44l.17.34c-.07.37-.24,3.18-.99,2.26-1.3-1.57-2.32-3.81-4.58-4.21-2.39-.42-12.8,3.35-13.08-1.38-.03-.56.72-1.33.47-1.87-.6-1.3-6.85-.85-7.51-4.35-.26-1.37.71-2.62,1.07-3.92h0Z"/><path class="cls-25" d="M565.83,331.68c-3.83-5.94-5.54-3.7-11.36-3.26-1.33.1-5.8.29-5.72-1.95.02-.64.51-.81.11-1.57-.85-1.64-6.09-1.34-6.88-4.39-.41-1.58.46-3.7.24-4.29-.73-1.98-3.99-3.83-3.02-6.42.13-.34.32-.66.38-1.03.19-1.14-2.14-3.76-1.1-5.45,1.21-1.96,3.32-.41,4.93.32,1.15.52.86-.5,1.62-.75,1.33-.44,2.98.83,3.87,1.68.5.48,2.07,2.36,2.48,2.55.94.44,2.53-.06,3.62.32.98.34,1.64,4.45,1.79,5.5l.19.13c.89-.19,2.2-.18,2.74.68,2.43,3.96,1.24,13.42,6.45,16.29l-.32,1.66h0Z"/><path class="cls-27" d="M565.53,331.41s-6.92-11.44-12.89-17.43c-3.81-3.82-10.64-8.83-10.64-8.83,0,0,6.9,5.23,10.64,9.26,5.45,5.86,11.5,17,11.5,17h1.39Z"/><path class="cls-6" d="M558.14,349.03c.31.15.97.03,1.38.14,3.05.83-1.31,9.67-1.56,11.61-.06.52.27,2.19.23,2.3l-.66,3.76c-.12.39.07-3.74-.53-4.77-1.06-1.83-4.41-.84-6.14-1.11-2.85-.44-.63-2.87-1.86-3.37-2.04-.82-6.3.35-6.81-2.69-.19-1.13.56-2.35.48-3.32-1.46-1.69-5.22-2.07-4.79-5.05.15-1.03,1.65-2.13,1.61-2.8-.05-.81-3.15-3.08-2.41-4.74.45-1.01,1.33-1.02,1.41-1.61.09-.61-2.51-4.51-.33-5.57,2.62-1.26,4.79,1.69,6.68,1.83.96.07,1.8-1.5,3.25-1.17,1.53.34,1.7,2.39,2.39,3.52.67.02,1.34-.7,2.09-.77,3.2-.33,2.7,4.79,3.53,6.55.1.21,1.06-.37,1.46-.21.67.26.92,1,1.01,1.66.28,1.92-.74,3.97-.44,5.78h0Z"/><path class="cls-6" d="M578.4,356.7c.6,6.04-7.59.09-12.09,2.49-1.34.71-4.48,3.12-4.26,2.54l1.13-2.85c.37-.32,1.58-.32,2-.51.98-.44,2.31-1.99,3.21-3.66,1.24-2.32.39-4.95,1.15-6.66,1.15-2.61,2.96-.21,3.74-.77,1.44-1.04,1.68-6.32,5.2-6.38.93-.01.91.16,1.55.47.73-1.07.97-2.38,2.39-2.82,1.03-.32,1.73.59,2.68.58.68-.53,3.32-4.96,5.48-4.44,2.43.58.97,4.91.78,6.49.27.29.6.29,1.03.86,1.67,2.24-.95,4.63-1.85,6.4.24.53.91.5,1.06,1.17.6,2.73-4.59,3.07-5.13,3.8,0,.25.4.55.35,1.12-.26,3.35-8.03,2.45-8.44,2.17h0Z"/><path class="cls-6" d="M525.84,376.62c.15-1.14-2.24-2.88-1.24-4.45.82-1.27,2.68-.62,3.43-1.27.65-2.03-.43-4.76,2.39-5.39,1.43-.32,2.21,1.13,2.68,2.23.17.41.81,2.94,1.05,3.02.53.19,1.92-.81,2.62-.71,1.91.27.4,3.84.98,4.85.41.71,1.42.15,2.07.37,1.92.66.43,3.86.43,5.23,0,.84,1.38,1.09,1.5,2.51.2,2.55-1.95,2.82-3.17,4.47-.17.23-.21.34-.02.58,2.11,2.57.91,3.82-1.42,5.52-2.75,1.99-6.98,3.27-5.42,7.53,0,0-1.39,2.85-1.54,1.9-.22-1.4.46-2.82.07-4.34-.41-1.62-5.36-3.75-5.56-5.49-.14-1.23,1.29-1.42,1.4-2.52.13-1.26-4.29-2.42-3.78-4.92.28-1.35,1.72-1.75,2.35-2.84-.1-1.06-5.04-4.83-.7-5.81.55-.12,1.41-.12,1.88-.46h0Z"/><path class="cls-4" d="M530,402.66c.17-1.23.32-2.89,0-4.1-.45-1.74-4.3-3.94-4.47-5.45-.11-.96.63-1.21.78-2.42.21-1.62-3.79-2.66-3.32-4.9.29-1.37,2-2.02,1.84-3.24-.09-.68-2.11-2.35-1.68-4.09.35-1.41,1.88-.85,2.76-1.55.97-.77-1.9-3.13-.99-4.55.73-1.13,2.71-.63,3.28-1.43.58-.82-.47-4.27,2.3-4.91,2.19-.51,2.64,4.19,3.56,4.88.88.65,1.28-.51,2.65-.33,1.35.18.31,3.49.85,4.49.58,1.08,1.5.22,2.44.56,1.51.54.02,3.75.02,4.86s1.23,1.16,1.34,2.54c.18,2.24-1.95,2.81-3.08,4.19-.31.38-.34.73,0,1.1,2.03,2.19.6,3.5-1.37,4.92-3.06,2.22-6.66,3.44-5.12,7.9l-1.79,1.51h0Z"/><path class="cls-6" d="M579.31,366.81c1.52-.39,3.62-1.88,5.09-.7,2.79,2.23-2.07,6.13-2.97,8.22-.02.76,1.55,1.02,1.45,2.56-.18,2.7-3.77,2.12-5.46,3.09-.13.49.62.91.62,1.39,0,3.82-5.77,2.38-7.96,3.09-.7.23.48,2.25-2.02,3.19-1.08.41-2.62-.02-3.72-.21-1.33-.23-2.68-.51-4.03-.43-.56.03-1.13.18-1.69.13-.24-.02-.41-.14-.32-.41l6.3-18.59c.13-.4,2.87.64,3.48.64.68,0,1.35-1.42,1.82-1.86,1.64-1.5,2.44.63,3.81.64,1,0,3.82-5.59,5.61-.74h0Z"/><path class="cls-33" d="M548.08,369.84c-.05-.79-1.63,1.6-1.63,1.6,0,0,1.12,1.11,1.89,1.76.94.81,2.52,1.95,2.52,1.95l.15-1.18s-2.79-1.95-2.93-4.14Z"/><path class="cls-6" d="M546.41,362.27c.43.61.16,1.42-.13,2.03-.32.67-.51,1.07-.95,1.66-1.44,1.9-4.63,3.6-6.07,2.62-1.31-.9-4-8.78-1.9-10.14,2-1.29,7.18,1.19,9.05,3.84Z"/><path class="cls-6" d="M538.82,365.78c.62-.94,1.53-1.66,2.42-2.34,1.26-.97,4.48-2.68,5.9-1.31,1.86,1.8,2.76,7.24.6,9.13-2.85,2.49-7.46-.38-9.26-2.84-.62-.85-.17-1.86.34-2.64Z"/><path class="cls-5" d="M541.55,363.93c1.95-1.45,4.16-2.25,5-1.37,2.25,2.37,2.36,6.9.8,8.23-1.57,1.33-5.22,1.23-8.38-2.75-.66-.84.61-2.64,2.58-4.1h0Z"/><path class="cls-37" d="M545.9,362c1.05,1.94-4.69,7.33-6.6,6.05-1.33-.88-3.14-7.68-1.84-8.85,1.84-1.66,7.52,1.12,8.44,2.8h0Z"/><path class="cls-57" d="M538.89,359.25c-.47.03-.84.16-1.06.36-.03.03-.07.12-.11.23.78.39,2.18.74,3.61,1.38,2.05.91,3.46,2.11,4.06,1.77.1-.33.1-.59.03-.72-.15-.27-.63-.74-1.28-1.19s-1.47-.89-2.31-1.22c-.84-.33-1.71-.56-2.44-.61-.18-.01-.34-.01-.5,0h0Z"/><path class="cls-42" d="M560.29,386.69c2.87-.14,5.62,1.14,7.35.51,2.58-.93,1.01-2.94,2.25-3.05,1.25-.11,7.53.35,7.53-2.78,0-.6-.51-.84-.28-1.52.23-.68,4.96-.45,5.13-2.98.11-1.61-1.36-1.63-1.13-2.61.23-.98,5.29-5.77,2.77-7.75-1.74-1.37-4.59,1.02-4.85.32-.35-.91-.43-1.67-1.58-1.78-1.67-.15-2.67,2.5-3.76,2.5s-1.59-1.09-2.7-.99c-1.46.13-1.68,2.36-2.93,2.36s-3.19-.69-3.19-.69l-6.3,18.58s1.04-.1,1.71-.13h0Z"/><path class="cls-18" d="M563.38,379.36s5.92-2.24,9.39-4.27c3.32-1.94,8-5.72,8-5.72M563.38,379.36s5.92-1.93,9.39-3.96c3.32-1.94,8-6.03,8-6.03"/><path class="cls-33" d="M525.55,408.78s2.34-.57,3.28-.57,1.49.45,1.49.45l1.07-1.96s-3.19.38-4.13.29l-1.71,1.78Z"/><path class="cls-16" d="M511.42,429.8c-1.86-2.27,4.31-8.15,6.61-6.49,1.64,1.19,3.71,6.31,2.07,7.84-1.83,1.7-7.2.45-8.68-1.35h0Z"/><path class="cls-33" d="M508.58,422.32l-.69-.05c-1.2-1.5-1.64-1.56-3.41-2.04-.56-.15-.64-.75-.03-.91l2.13-.56c.34-.09,1.24.72,1.5.91.41.3,2.48.75,1.72,1.48l-1.23,1.17h0Z"/><path class="cls-16" d="M508.11,420.98c.87-1.31,6.28-1.62,9.44,1.16,1.94,1.71.38,4.13-1.46,5.69-1.82,1.54-4.58,2.82-5.72,1.83-3.22-2.81-3.31-7.1-2.26-8.68Z"/><path class="cls-4" d="M561.36,362.88s2.62-2.72,4.73-3.78c4.09-2.06,10.74,1.26,11.73-.61.5-.95-.26-1.65.38-1.9.63-.25,7.89,1.19,8.18-2.1.05-.59-.76-.89-.13-1.52.63-.63,5.21-.94,4.75-3.1-.14-.69-1.14-.89-.89-1.58.25-.7,3.69-3.96,2.22-5.96-.43-.58-1.51-.47-1.43-1.18.26-2.22,1-5.65-.83-5.82-1.97-.19-4.27,3.81-5.04,3.97-.95.19-1.52-.75-2.47-.44-1.58.51-1.84,2.85-2.47,2.85s-.59-.65-1.6-.63c-3.11.07-3.37,5.05-4.92,6.28-.89.7-1.41-.24-2.28-.06-2.15.44-1.52,5.83-2.66,7.54-1.14,1.71-3.61,3.74-4.12,3.99-.51.25-1.51.25-1.51.25l-1.64,3.83h0Z"/><path class="cls-34" d="M503.41,419.74s1.97.66,3.28.73c.88.05,2.26-.13,2.26-.13,0,0-.54.11-1.12-.3-.19-.14-1.54-1.33-1.54-1.33l-2.87,1.03h0Z"/><path class="cls-5" d="M508.65,421.39c1.45-1.65,5.66-1.47,8.75,1.25,1.53,1.35.52,3.38-1.3,4.99-1.83,1.62-4.16,2.52-4.95,1.83-3.08-2.69-3.56-6.86-2.49-8.07h0Z"/><path class="cls-37" d="M511.77,429.64c-.69-.79.41-3.21,1.88-4.53,1.3-1.18,3.42-1.98,3.88-1.49,1.8,1.93,3.64,5.37,2.21,7.07-1.43,1.71-6.42.73-7.98-1.05h0Z"/><path class="cls-57" d="M517.32,424.23s-.09.02-.14.03c-1.49.32-2.34,2.28-1.89,4.39.2.94.63,1.76,1.17,2.34,0,0,.01,0,.02,0,1.3.1,2.44-.15,2.86-.66.52-.62.49-1.68.02-2.91-.44-1.13-1.24-2.31-2.03-3.2h0Z"/><path class="cls-34" d="M564.1,290.2s.05-1.77,1.45-6.76c.24-.87.9-1.35.9-1.35l-2.61-.36s.66.63.65,1.46c-.03,2.33-1.29,4.15-1.29,4.15l.89,2.87h0Z"/><path class="cls-30" d="M561.21,284.86s-1.69-4.95-3.14-6.76c-1.53-1.92-2.63-2.32-5.41-3.21-2.46-.79-6.3-1.42-6.47-3.35-.16-1.93.06-1.56-.64-1.75-2.26-.59-5.08-1.34-4.54-3.58.54-2.24,1.37-2.59.41-3.06-1.43-.69-5.19-2.88-4.74-4.79.45-1.92,2.12-1.94,1.41-3.12-.51-.84-2.32-1.76-2.17-3.29.1-1.04,1.42-1.38,1.38-2.31-.04-.93-3.59-5.06-1.5-6.79,1.9-1.57,5.27,1.24,6.13,1.59.86.35,1.85-1.47,3.11-1.17,1.62.39,1.7,2.81,2.18,3.67.87,1.57,2.66-.47,4.06.28,2.33,1.25,1.52,5.57,2.15,6.44.63.87,2.35-.52,3.57.15,1.9,1.05.27,7.35.4,8.38.12,1.04,1.51.15,2.3.76,2.1,1.64-.46,6.6-.05,10.79.14,1.45.49,3.7.49,3.7l1.08,7.41h0Z"/><path class="cls-6" d="M545.15,428.87c.66,1.14,1.86,1.92,2.42,3.09.79,1.64.05,3.31-1.93,3.19-.86-.05-1.65-.71-2.47-.78-.66-.05-2.57,2.49-4.41,2.41-2.51-.11-3.71-3.18-5.24-4.74-1.22-.26-2.12,1.54-3.47,1.3-2.79-.5-2.65-4.92-3.61-6.87-.77-.57-1.93.64-3.47-.46-2.39-1.69-1.14-6.98-3.7-8.47-2.25-1.31-7.02-.44-6.61-.66l2.66-1.38c.17-.09.67.16.84.19,4.36.87,10.19.15,14.65.15,2.14,0,1.8,1.73,2.14,2.08l.17.03c2.22.15,4.88,0,6.77,1.39,2.29,1.7.12,3.23.11,3.61l.1.05.49.16,1.5.44c1.16.37,2.46.89,3.24,1.88,1.13,1.44-.14,2.11-.17,3.4h0Z"/><path class="cls-42" d="M515.44,415.94c.96.61,13.79.2,15.51.2,1.86,0,1.25,1.47,1.89,2.03.77.35,9.58.06,7.57,3.39-.23.38-.53.73-.73,1.13l.04.37c.9.75,4.02.8,5.38,2.56.81,1.05-1.34,2.73-.42,3.39,1.77,1.27,5.71,6.91-1.45,5.22-1.72-.41-3.76,4.4-7.51.1-.45-.52-1.51-2.05-1.95-2.35-1.05-.72-2.38.96-3.66.75-2.36-.39-2.51-4.53-3.36-6.26-1.17-.82-2.15.16-3.55-.83-3.17-2.24.71-9.91-9.54-8.76l1.76-.92h0Z"/><path class="cls-27" d="M514.51,416.15s9.65,1.96,15.2,4.75c5.09,2.57,11.92,8.46,11.92,8.46,0,0-6.66-6.27-11.76-8.93-5.29-2.75-14.58-4.6-14.58-4.6l-.77.31h0Z"/><path class="cls-6" d="M539.37,405.96c2.5,2.32-1.28,10.04-4.13,9.56-4.53-.77-7.02-5.89-6.16-8.07.91-2.34,7.59-4,10.29-1.49h0Z"/><path class="cls-16" d="M534.85,414.74c-1.28-.92-.79-4.17.34-6.13,1.04-1.8,2.51-2.93,3.64-2.57,3.21,1,6.33,5.23,5.13,7.8-1.18,2.54-7.84,1.82-9.12.91Z"/><path class="cls-5" d="M539.16,406.19c2.3,2.13-1.35,9.15-3.86,8.72-4.32-.74-5.87-5.18-5.35-7.01.54-1.89,6.66-4.07,9.21-1.71h0Z"/><path class="cls-6" d="M554.18,411.5c-.41.54-1.27,1.55-2.18,1.55-3.84-.04-3.58-3.32-5.59-5.5-.68-.16-1.18.63-2.5.33-1.73-.4-1.84-4.81-4.44-5.72-1.31-.46-4.97-.47-7,1.43l3.63-2.83c3.51,1.38,6.68-6.1,10.7-5.1,1.14.28,1.18,1.03,2.5.91,2.94-.26,5.92-2.19,9.45-1.02,2.11.7-.63,3.53,2.04,3.21,1.72-.21,4.28-.2,4.79,1.94.28,1.17-.32,1.7-.2,2.55.35.27,6.8,2.51,3.38,4.24.54,1.52,3.13,2.53,1.76,4.39-1.29,1.75-4.03-.19-4.79.53-.31.3-.3,1.14-.58,1.48-1.14,1.41-4.13-1.46-5.41-1.73-1.27,4.31-3.57,2.28-5.58-.67h0Z"/><path class="cls-4" d="M539.71,402.17c2.67.75,2.74,4.86,4.28,5.25,1.54.38,1.5-.43,2.46-.2.89.2,1.79,5.39,6.08,4.85,1.09-.14,1.64-1.3,1.64-1.3,0,0,1.57,2.58,3.22,2.81,2.38.33,1.7-1.81,2.3-1.88.97-.11,2.74,1.94,4.52,1.94,1,0,.86-1.71,1.91-1.71s3.14,1.01,4-.23c1.12-1.62-1.49-3.51-1.68-4.09-.19-.58.74-.59.65-1.15-.36-2.05-3.7-2.38-3.99-3.11-.29-.72.47-1.47.18-2.59-.48-1.91-3.19-1.98-4.42-1.71-2.85.63-.27-2.4-2.29-3.26-3.49-1.47-8.57,1.32-9.87.77-.87-.37-1.2-.48-1.95-.61-3.15-.55-6.05,4.04-8.03,5l.99,1.21h0Z"/><path class="cls-27" d="M538.72,400.74s9.65-.59,15.31,1.38c4.9,1.7,11.36,6.91,11.36,6.91,0,0-6.97-5.12-12.15-6.63-5.57-1.62-14.87-.73-14.87-.73l.34-.93h0Z"/><path class="cls-27" d="M530.2,401.42s1.85-12.28,1.69-20.17c-.1-4.74-1-12.12-1-12.12,0,0,1.27,7.65,1.47,12.59.29,7.34-1.38,18.78-1.38,18.78l-.77.93h0Z"/><path class="cls-6" d="M520.87,400.97c.18.52,1.96,1.04,1.8,3.03-.19,2.44-3.87,1.69-5.58,2.83-.65.44.77,2.53.02,3.52-1.33,1.77-5.83.71-6.16,1.15-.6.81,1.47,3.04-.72,4.27-3.04,1.71-9.45-.99-12.91,2.07-.2.18-1.55,1.69-1.6,1.71-1.98.52-7.22,1.6-6.61,1.35,3.08-1.3,8.02-2.57,8.99-4.68.83-1.8.2-5.21.54-7.15.5-2.91,2.64-1.74,3.34-2.66.57-.75-.49-4.8,1.81-6.72,1.62-1.34,3.35-.42,4.83-1.48,1.54-1.11-.79-4.81,2.26-5.87,1.83-.63,3.74,1.41,4.15,1.32,1.14-.24,2.47-3.68,4.79-3.22,2.3.46,1.27,3.49,1.18,4.9,3.86.48,1.77,3.35-.13,5.62h0Z"/><path class="cls-4" d="M489.67,420.61s8.21-3.43,8.88-5.15c1.03-2.64-.09-6.64,1.34-7.59.94-.62,1.88-.31,2.49-1.2.62-.89-.18-5.2,2.03-6.93,1.39-1.09,2.64-.11,4.33-1.3,1.82-1.29-.48-4.46,2.31-5.5,1.64-.61,3.29,1.39,4.11,1.18,1.57-.41,2.4-3.54,4.71-3.2,1.85.27.95,2.16.83,3.94-.07,1.03,1.54.55,2.02,1.99.35,1.05-1.08,3.29-2.04,4.13-.55.48,1.66,1.32,1.53,2.8-.19,2.14-4.32,2.29-5.27,2.63-1.24.44-.12,2.29-.96,3.36-1.34,1.72-4.78.65-5.39,1.47-.56.75.69,2.68-.89,3.86-1.64,1.23-8.01.45-9.05.83-3.07,1.13-5.57,2.31-5.57,2.31l-5.4,2.37h0Z"/><path class="cls-27" d="M498.46,415.79s8.97-6.45,13.56-12.22c2.53-3.18,5.87-8.02,5.87-8.02,0,0-3.24,5.01-5.72,8.33-4.53,6.04-13.57,12.95-13.57,12.95l-.15-1.04h0Z"/><path class="cls-27" d="M565.52,358.38c3.45-1.86,9.71-5.09,14.83-9.76,3.44-3.14,7.93-8.93,7.93-8.93,0,0-4.45,6.09-7.93,9.4-5.22,4.97-11.84,8.51-15.29,10.38l.47-1.08h0Z"/><path class="cls-42" d="M558.19,363.01l-.79,2.63c0-3.64-.14-5.37-4.45-5.14-.67.03-1.35.11-2.02,0-2.19-.34-.5-1.66-1.2-2.66-.85-1.22-6.61-.12-7.08-3.01-.18-1.12,1.06-2.45.15-3.32-1.38-1.32-4.83-2.47-4.46-4.9.15-1,1.49-1.72,1.3-2.65-.26-1.24-2.73-3.4-2.13-4.76.48-1.09,1.36-.74,1.45-1.76.1-1.14-1.91-4-.12-4.87,2.35-1.14,3.95,1.09,5.97,1.25,1.17.1,1.97-1.3,3.19-1.03,1.58.35,1.59,2.9,2.61,3.42.37.19,1.49-.76,2.02-.82,2.83-.33,2.19,5.17,3.16,6.46.35.47,1.1,0,1.61.16,1.77.55-.13,6.56.6,7.37.25.27,1.15.12,1.54.23,1.48.42.45,4.24.2,5.18-.55,2.11-2.45,6.25-1.55,8.21h0Z"/><path class="cls-27" d="M558.08,362.59s-2.75-10.94-6.65-16.81c-3.23-4.87-10.3-10.87-10.3-10.87,0,0,6.77,6.05,9.84,10.87,3.76,5.91,6.33,16.81,6.33,16.81h.78Z"/><path class="cls-27" d="M564.05,305.44s-6.49-10.55-12.07-16.03c-4.56-4.48-12.98-9.99-12.98-9.99,0,0,8.03,5.67,12.36,10.17,5.29,5.49,11.45,15.86,11.45,15.86h1.24,0Z"/><path class="cls-5" d="M561.22,280.21c1.08,2.71,2.63,6.9,3.66,10.81,4.84,18.34,5.29,39.52,3.21,51.77-6.38,37.71-40.66,72.79-68.1,78.26-23.3,4.65-37.07,14.75-46.85,25.53-4.64,5.11-8.34,10.21-11.2,15.08-2.84,4.82-4.71,8.95-7.23,13.1-.03.01-.07.03-.14.06-.17.06-.4.11-.66.16-.55.1-1.26.18-1.92.21-.68.03-1.28,0-1.64-.09l-.09-.02c.35-.55.71-1.09,1.05-1.65,2.41-3.97,4.5-7.83,7.25-12.42,2.74-4.58,5.99-9.41,10.4-14.4,10.18-11.5,24.64-22.63,49.35-27.6,28.77-5.78,61.63-41.46,68.06-79.48,2.09-12.38,2.05-33.76-5.82-56.93l.66-2.39h0Z"/><path class="cls-27" d="M560.1,277.99c-2.39-6.08-4.07-9.42-7.52-14.97-4.46-7.16-13.53-16.88-13.53-16.88,0,0,8.58,9.76,12.8,16.85,4.46,7.5,6.51,12.12,9.07,20.47l-.82-5.47h0Z"/><path class="cls-59" d="M561.49,283.83s-.37-.91-.55-1.51c-.39-1.24-.71-3.26-.71-3.26,0,0,.59,1.42.98,2.35.34.82.89,2.45.89,2.45l-.61-.03Z"/><path class="cls-6" d="M562.63,346.75c-1.78-1.48-6.65-5.97-6.65-8.27,0-2.74,2.55-2.27,3.17-2.67-.11-1.11-3.86-3.85-2.35-6.31.99-1.63,3.24-1.17,4.08-1.83.64-1.74-1.84-6.27.15-8.72,1.18-1.45,2.09-.37,2.64-.5.11-.76.09-1.54.17-2.31.15-1.35.64-2.7,2.21-2.78,2.2-.11,3.7,2.71,4.75,4.27.23-.13,1.38-.3,1.63-.42,2.71-1.33,1.73,7.08,1.8,8.38.63-.02,1.91-.37,2.47-.05,2.9,1.71-2.87,10.72-3.48,12.84-.26.88,3.05.17.51,3.37-1.48,1.87-3.36,3.52-5,5.25l-6.1-.25h0Z"/><path class="cls-4" d="M563.55,353.72c1.1-2.9.71-5.74-1.48-7.32-2.35-1.7-5.48-5.73-5.47-8.07,0-2.76,2.75-1.08,2.88-2.39.1-.97-3.61-3.9-2.29-6.04.86-1.4,3.15-1.23,3.73-1.93.96-1.16-1.43-6.33.47-8.74,1.04-1.32,1.85.08,2.54-.41.67-.48-.41-4.42,2.14-4.54,2.45-.11,4.26,4,4.65,3.88.79-.26,1.74-1.08,2.63-.24.87.82.6,7.84.6,7.84,0,0,1.67-.16,2.2.17,2.22,1.36-1.77,9.33-2.89,11.52-.96,1.86,1.85,2.1.41,4.01-2.36,3.15-7.09,6.94-7.84,11.58"/><path class="cls-27" d="M566.28,351.67s1.78-11.42,2.27-17.45c.4-4.94-.7-13.07-.7-13.07,0,0,.63,7.82.23,12.77-.49,6.02-3.14,20.36-3.14,20.36l1.34-2.6h0Z"/><path class="cls-6" d="M540.31,394.11c.99-2.55-1.93-10.04.28-11.36,1.26-.75,2.06.66,3.29-.55,1.57-1.55-.89-7.4,1.99-9.25,1.67-1.07,2.99.47,4.6-.98,1.07-.97,1.11-4.89,3.83-5.56,1.8-.45,2.63.78,4.23,1,1.35.18,5.95-6.22,8.81-4.69,2.99,1.61.34,5-.26,7.28-.32,1.19,2.23,1.02,1.99,3.01-.22,1.82-2.3,3.65-2.3,4.41,0,.81,2.11,1.37,2.19,2.89.17,2.96-4.61,3.38-6.21,4.64-.84.66,1.08,2.79-.1,4.75-1.26,2.08-6.62.62-7.51,1.07-.72.37-.02,3.9-.92,5.15-1.47,2.04-8.46.13-11.06.55-3.47.57-4.99,1.28-7.17,3.87l4.34-6.22h0Z"/><path class="cls-4" d="M535.91,398.2s2.73-1.42,3.72-3c.97-1.56,1.09-2.12,1.06-4.58-.02-1.5-1.33-6.65.14-7.47,1.21-.67,1.88.65,3.38-.77,1.83-1.73-.86-7.72,1.75-9.34,1.57-.98,3,.75,4.81-.88,1.24-1.11,1.03-4.85,3.47-5.46,1.53-.38,2.75.81,4.2,1,1.77.24,5.81-5.65,8.34-4.27,1.11.6,1.44,1.45,1.23,2.67-.22,1.31-.96,2.47-1.25,3.75-.37,1.65,1.87,1.51,1.66,3.25-.19,1.65-2.15,3.24-2.15,4.31,0,1.18,1.77,1.94,1.88,3.38.22,2.74-5.52,2.79-5.98,4.3-.46,1.49.66,2.61-.43,4.36-1.17,1.89-5.2.22-6.78.86-1.32.53-.52,3.5-1.32,4.7-2.2,3.28-12.85-1.33-17.23,4.69l-.54-1.5h0Z"/><path class="cls-27" d="M536.23,398.58s11.32-9.64,17.53-16.77c4.78-5.49,11.25-14.92,11.25-14.92,0,0-6.03,9.54-10.63,15.07-5.61,6.76-15.99,15.87-15.99,15.87l-2.16.75h0Z"/><path class="cls-59" d="M535.22,398.84l1.86-.54s-.68.8-.95,1.05c-.23.21-.84.78-.84.78l-.06-1.29h0Z"/><path class="cls-37" d="M535.12,414.51c-.92-.66-.68-3.67.48-5.68,1.05-1.82,2.68-2.7,3.35-2.39,2.48,1.16,5.59,5.06,4.6,7.19-.98,2.11-7.21,1.75-8.43.88h0Z"/><path class="cls-57" d="M539.61,407.47c-.28.12-.53.27-.73.5-1.02,1.13-.54,3.23,1.06,4.67.82.73,1.77,1.16,2.64,1.25,0,0,.01,0,.02,0,.22-.15.37-.32.45-.48.35-.75-.03-2.1-.94-3.41-.68-.98-1.61-1.9-2.5-2.53h0Z"/><path class="cls-6" d="M564.9,284.33c-2.35-.81-3.96-5.17-2.98-9.03.97-3.82,10.73-2.27,9.68,2.29-.83,3.59-4.7,7.43-6.7,6.74h0Z"/><path class="cls-6" d="M571.33,276.21c-.35,2.29-3.37,2.55-4.77,2.26-1.49-.3-4.29-1.88-3.96-3.78.7-4.03,3.95-7.13,5.86-6.83,2.1.33,3.42,4.65,2.87,8.34h0Z"/><path class="cls-5" d="M565.1,283.59c-1.98-.31-3.53-4.4-2.58-8.13.89-3.5,9.23-1.29,8.47,1.99-.83,3.59-3.95,6.44-5.89,6.14h0Z"/><path class="cls-37" d="M568.39,268.48c1.63.26,3.36,3.93,2.79,7.66-.27,1.8-3.09,1.7-4.52,1.41-1.55-.31-4.15-1.35-3.91-2.78.69-3.98,4.14-6.53,5.64-6.3h0Z"/><path class="cls-57" d="M568.11,269.01c-.07,0-.16.02-.25.05.1.65.51,1.61.7,2.72.25,1.46.22,3.85,1.23,3.67.63-.11.9-.61.91-1.58,0,0,0-.01,0-.02-.08-.97-.31-1.88-.61-2.64-.53-1.32-1.35-2.13-1.8-2.2-.05,0-.11,0-.19,0h0Z"/><path class="cls-16" d="M430.52,476.45c-.77-1.13.99-4.62,4.68-4.2,1.62.18.84,2.53-1.17,3.93-1.41.98-2.74,1.4-3.51.27h0Z"/><path class="cls-5" d="M430.52,476.45c-.77-1.13.35-3.57,4.06-3.73,1.33-.06,1.45,2.06-.55,3.46-1.41.98-2.74,1.4-3.51.27h0Z"/><path class="cls-16" d="M443.17,460.75s-.1-1.38-1.69-1.93c-1.37-.48-2.24.61-2.24.61M441.62,462.61s-.05-1.39-1.69-1.78c-1.49-.35-2.08.93-2.08.93"/></g><g id="motto"><path class="cls-60" d="M449.96,456.91c7.69-.09,13.47-.82,20.05-2.12-1.55,5.27-4.65,15.3,7.74,15.3,9.02,0,18.6-5.43,27.9-.65,20.31,10.42,35.65,2.98,48.04-10.97,0,0-9.17,1.96-18.6,1.55,0,0,7.07-6.02,7.75-13.95-6.2,4.65-12.4,5.33-18.6,5.33s-10.16-3.74-18.28-5.02c.46-2.81.95-5.66,1.68-9.6.8-4.3-.39-7.79-6.64-8.53-13.61-1.6-26.8,6.26-50.89,6.63-24.26-.38-40.88-8.23-54.5-6.63-6.26.74-7.44,4.23-6.64,8.53.73,3.94,1.22,6.8,1.67,9.6-8.11,1.28-12.08,5.02-18.27,5.02s-12.4-.68-18.6-5.33c.68,7.93,7.75,13.95,7.75,13.95-9.43.41-18.6-1.55-18.6-1.55,12.4,13.95,27.73,21.39,48.04,10.97,9.3-4.77,18.88.65,27.9.65,12.4,0,9.3-10.03,7.75-15.3,7.04,1.39,14.82,2.15,23.35,2.15v-.03s0,0,0,0Z"/><path class="cls-56" d="M385.96,457.05c-.9.42-1.36-.16-.35-.68.72-.37,3.83-1.72,6.08-2.17.09-.02.17.04.18.13l.08.6c.01.08-.05.16-.13.17-2.12.38-5.11,1.59-5.87,1.94h0ZM386.48,460c-.9.42-1.37-.16-.35-.68.72-.37,3.99-1.97,6.24-2.42.06-.01.15.04.17.1l.23.6c.04.1-.02.19-.12.21-2.12.37-5.42,1.85-6.17,2.2h0ZM418.79,465.39c-3.86-.4-8.43-1.57-13.27-2.25-6.13-.86-11.47-.54-17.85,2.36-.35.16-.54.18-.67.18-.12,0-.3-.03-.34-.21-.03-.14.06-.27.15-.35.1-.1.24-.19.42-.28,5.94-3.04,12.16-3.58,18.4-2.73,4.84.66,9.44,1.67,13.3,2.07,2.17.22,4.65-.14,5.46-1.45.21-.34.83.4.63.72-1.23,1.98-4.12,2.16-6.22,1.94h0ZM385.18,454.34c-.16.06-.32.1-.43.1-.1,0-.25-.02-.3-.17-.05-.13.04-.25.11-.32.08-.08.2-.16.35-.23,2.34-1.08,2.94-1.26,6.37-2.18.29-.08.5.09.55.31.05.22-.07.47-.35.53-2.67.64-3.97,1.05-6.29,1.95h0ZM384.66,451.34c-.15.06-.3.1-.41.09-.11,0-.24-.05-.29-.17-.05-.12.01-.24.08-.32.07-.09.18-.17.32-.23,2.36-1.04,3.3-1.38,6.59-2,.28-.05.5.1.58.3.08.22-.02.47-.32.52-3.21.61-4.35.94-6.54,1.81h0ZM418.8,460.35c-2.64-.27-5.64-.86-8.82-1.38-.33-.05-.46-.34-.42-.58.04-.24.25-.47.58-.42,3.16.51,6.14,1.1,8.76,1.37,1.08.11,2.07-.04,2.93-.38.31-.12.56.06.65.28.09.23.03.53-.28.65-1.01.4-2.17.57-3.4.44ZM404.92,465.6c-5.26-.82-11.75.07-16.78,2.57-.22.11-.42.15-.57.16-.12.01-.31,0-.38-.14-.04-.08-.03-.16,0-.22.02-.06.07-.12.12-.17.1-.1.26-.22.48-.33,7.41-3.59,13.06-3.35,17.47-2.85,4.72.53,8.87,1.56,13.39,1.9.39.03.5.38.6.69.09.28.27.8-1.15.65-4.47-.47-8.57-1.55-13.16-2.27h0ZM418.76,462.62c-5-.52-11.64-2.23-18-2.51-.33-.01-.54-.24-.54-.49,0-.26.21-.47.55-.46,6.39.28,13.1,1.81,18.12,2.33,1.85.19,3.88-.17,4.85-1.05.29-.26,1.05.72.77.97-1.29,1.16-3.74,1.41-5.75,1.2h0ZM387.02,462.73c-.9.42-1.36-.16-.35-.68.82-.42,5.34-2.56,7.75-2.72.33-.02.57.18.65.42.08.26-.07.53-.43.56-2.17.14-6.76,2.03-7.62,2.43h0Z"/><path class="cls-56" d="M510.65,457.05c.9.42,1.37-.16.35-.68-.72-.37-3.83-1.72-6.08-2.17-.09-.02-.17.04-.18.13l-.08.6c-.01.08.05.16.13.17,2.12.38,5.11,1.59,5.87,1.94h0ZM510.13,460c.9.42,1.36-.16.35-.68-.72-.37-3.99-1.97-6.24-2.42-.06-.01-.15.04-.17.1l-.23.6c-.04.1.01.19.12.21,2.12.37,5.42,1.85,6.17,2.2h0ZM477.81,465.39c3.86-.4,8.43-1.57,13.27-2.25,6.13-.86,11.47-.54,17.85,2.36.35.16.54.18.67.18.12,0,.3-.03.34-.21.03-.14-.07-.27-.15-.35-.1-.1-.24-.19-.42-.28-5.94-3.04-12.16-3.58-18.4-2.73-4.84.66-9.44,1.67-13.3,2.07-2.17.22-4.65-.14-5.46-1.45-.21-.34-.83.4-.63.72,1.23,1.98,4.12,2.16,6.22,1.94h0ZM511.42,454.34c.16.06.32.1.43.1.1,0,.25-.02.3-.17.05-.13-.04-.25-.11-.32-.08-.08-.2-.16-.35-.23-2.34-1.08-2.94-1.26-6.37-2.18-.29-.08-.5.09-.55.31-.05.22.07.47.35.53,2.67.64,3.97,1.05,6.29,1.95h0ZM511.95,451.34c.15.06.3.1.41.09.11,0,.24-.05.29-.17.05-.12-.01-.24-.08-.32-.07-.09-.18-.17-.32-.23-2.36-1.04-3.3-1.38-6.59-2-.28-.05-.5.1-.58.3-.08.22.02.47.32.52,3.21.61,4.35.94,6.54,1.81h0ZM477.8,460.35c2.64-.27,5.64-.86,8.82-1.38.33-.05.46-.34.42-.58-.04-.24-.25-.47-.58-.42-3.16.51-6.14,1.1-8.76,1.37-1.08.11-2.07-.04-2.93-.38-.31-.12-.56.06-.65.28-.09.23-.03.53.28.65,1.01.4,2.17.57,3.4.44h0ZM491.68,465.6c5.26-.82,11.76.07,16.78,2.57.22.11.42.15.57.16.12.01.31,0,.38-.14.04-.08.03-.16,0-.22-.02-.06-.07-.12-.12-.17-.1-.1-.26-.22-.48-.33-7.41-3.59-13.06-3.35-17.47-2.85-4.72.53-8.87,1.56-13.39,1.9-.39.03-.5.38-.6.69-.09.28-.27.8,1.15.65,4.47-.47,8.57-1.55,13.16-2.27h0ZM477.85,462.62c5-.52,11.64-2.23,18-2.51.33-.01.54-.24.54-.49,0-.26-.21-.47-.55-.46-6.38.28-13.1,1.81-18.12,2.33-1.85.19-3.88-.17-4.85-1.05-.29-.26-1.04.72-.77.97,1.29,1.16,3.74,1.41,5.75,1.2h0ZM509.58,462.73c.9.42,1.37-.16.35-.68-.82-.42-5.34-2.56-7.76-2.72-.33-.02-.57.18-.64.42-.08.26.07.53.43.56,2.17.14,6.76,2.03,7.62,2.43Z"/><path class="cls-6" d="M448.29,457.08c-10.34,0-17.1-1.58-26.35-3.25-21.51-3.89-26.19-.93-26.19,2.79,0,1.19,1.1,1.55,1.9,1.19.41-.18.74-.87.74-.87-.76,0-1.25-.31-1.09-1.25.46-2.72,6.05-3.96,24.64-.93,9.27,1.51,16.01,2.79,26.35,2.79v-.47s0,0,0,0ZM448.31,457.08c10.34,0,17.11-1.58,26.35-3.25,21.52-3.89,26.19-.93,26.19,2.79,0,1.19-1.1,1.55-1.9,1.19-.41-.18-.74-.87-.74-.87.76,0,1.25-.31,1.09-1.25-.46-2.72-6.05-3.96-24.64-.93-9.27,1.51-16.01,2.79-26.36,2.79v-.47s0,0,0,0Z"/><path class="cls-8" d="M390.63,446.54c-3.41.55-6.54,1.71-9.73,2.97-8.71,3.42-18.7,2.9-26.44-2.61.54,3.91,2.25,7.32,4.76,10.3.61.73,2.49,2.59,2.49,2.59.31.33.26.53-.19.55-5.93.25-11.31.18-17.14-.91,13.76,15.13,27.59,18.9,46.43,9.74,9.9-4.81,18.15.62,28.04.62,10.49,0,9.5-6.87,7.19-14.62l1.26.14c1.69,4.77,4.34,16.52-8.45,15.57-9.86-.73-17.75-5.75-27.68-1.02-15.29,7.3-26.35,7.19-39.65-2.68-2.71-2.01-7.09-5.63-8.95-8.39-.45-.67,0-1.07.68-.86,5.05,1.57,12.7,1.57,16.59,1.47-3.15-3.17-6.7-9.05-6.55-13.28.02-.55.28-.65.74-.41,7.21,3.74,9.91,5.24,18.32,5.24,4.95,0,15.06-5.59,18.07-5.01l.19.61h0Z"/><path class="cls-6" d="M505.98,446.54c3.41.55,6.53,1.71,9.73,2.97,8.71,3.42,18.7,2.9,26.44-2.61-.54,3.91-2.26,7.32-4.77,10.3-.61.73-2.49,2.59-2.49,2.59-.31.33-.26.53.19.55,5.93.25,11.31.18,17.14-.91-13.76,15.13-27.59,18.9-46.43,9.74-9.9-4.81-18.15.62-28.04.62-10.49,0-9.5-6.87-7.19-14.62l-1.26.14c-1.69,4.77-4.34,16.52,8.45,15.57,9.86-.73,17.75-5.75,27.68-1.02,15.29,7.3,26.35,7.19,39.65-2.68,2.71-2.01,7.09-5.63,8.95-8.39.46-.67,0-1.07-.68-.86-5.05,1.57-12.7,1.57-16.59,1.47,3.15-3.17,6.7-9.05,6.54-13.28-.02-.55-.28-.65-.74-.41-7.21,3.74-9.91,5.24-18.32,5.24-4.95,0-15.06-5.59-18.07-5.01l-.19.61h0Z"/><path class="cls-8" d="M447.73,434.9c-11.83.09-21.8-2.07-30.12-3.94-6.9-1.56-14.93-3.34-22.01-2.4-5.15.69-7.26,2.97-6.38,8.16,1.1,6.46,2.06,12.97,3.23,19.4.68,3.71,2.66,4.21,6.15,3.6,5.03-.89,21.15-4.49,24.77.09,3.48,4.39.09,7.56-4.75,7.64-.68.01-.46-.46-.23-.46,4.63,0,7.89-2.68,4.9-6.78-3.15-4.33-18.23-1.16-24.37.28-3.91.91-6.5.41-7.22-4.39-.99-6.61-1.6-11.15-3.69-19.7-3.54-14.45,22.24-7.75,29.66-6.03,10.12,2.35,18.58,3.86,30.58,4.22,12.03-.36,20.48-1.87,30.61-4.22,7.42-1.73,33.21-8.42,29.67,6.03-2.1,8.55-2.71,13.09-3.7,19.7-.72,4.79-3.32,5.3-7.22,4.39-6.14-1.44-21.22-4.61-24.37-.28-2.99,4.11.27,6.78,4.9,6.78.23,0,.45.47-.23.46-4.84-.08-8.22-3.25-4.75-7.64,3.62-4.58,19.74-.97,24.77-.09,3.49.62,5.47.12,6.15-3.6,1.17-6.44,2.14-12.95,3.23-19.4.88-5.2-1.22-7.47-6.38-8.16-7.07-.94-15.11.84-22.01,2.4-8.32,1.88-18.3,4.03-30.13,3.94h-1.05Z"/><g id="text"><path class="cls-56" d="M409.78,446.97c-1.62-.14-4.23-.28-4.23-.28l-.94-12.88,3.13.37.65,10.05c.32.02,1.72.11,2.66.21,1.06.12,2.78.39,2.78.39l.2,2.59s-2.63-.31-4.25-.45h0Z"/><path class="cls-56" d="M416.54,447.7l-.71-12.42,3.15.48.71,12.42-3.15-.48Z"/><path class="cls-56" d="M426.06,441.93l1.07.18c1.6.27,1.72-.28,1.71-.95-.02-.81-.39-1.31-2.01-1.58l-.82-.14.05,2.49h0ZM426.18,446.86l1.49.26c1.74.3,2.16-.03,2.14-.9-.02-1-.62-1.6-2.5-1.92l-1.19-.2.05,2.77h0ZM428.01,449.63l-5-.85-.23-12.27,4.5.77c3.09.52,4.75,1.88,4.79,4.21.02.98-.53,1.62-1.14,1.97.87.48,2.1,1.59,2.13,3.22.04,2.28-1.34,3.59-5.06,2.96h0Z"/><path class="cls-56" d="M439.78,451.31c-1.67-.16-4.34-.53-4.34-.53l-.12-6.18-.12-6.21,7.12.74.02,1.22.02,1.24-3.98-.41.05,2.55,4.19.43.05,2.3-4.19-.43.05,2.62c.32.05,1.75.27,2.71.35,1.08.1,2.86.13,2.86.13l.05,2.46s-2.7-.13-4.37-.29h0Z"/><path class="cls-56" d="M450.17,444.98c1.66-.03,2.39-.74,2.37-1.87-.02-1.19-.54-1.69-2.04-1.66l-1.39.02.06,3.52,1.01-.02h0ZM457.13,451.39c-2.46-.08-3.78-1.31-5.07-2.77l-1.37-1.54c-.19.02-.41.02-.62.02h-.81s.07,4.34.07,4.34l-3.08.05-.21-12.39,4.78-.08c2.74-.05,4.77,1.18,4.82,3.94.02,1.34-.59,2.54-1.85,3.31l1.19,1.24c.67.69,1.42,1.15,2.73,1.47l-.57,2.39h0Z"/><path class="cls-56" d="M457.24,441.43l-.02-2.45,10.95-1.51v2.45s-3.89.54-3.89.54l.06,9.89-3.14.43-.06-9.89-3.9.54Z"/><path class="cls-56" d="M474.88,438.94c-.38,1.35-.77,2.68-1.18,4.02.86-.09,1.76-.24,2.59-.49-.37-1.2-.74-2.39-1.08-3.6l-.33.06ZM478.23,447.94l-1.22-3.32c-.65.24-1.34.38-2.04.48-.71.11-1.42.18-2.09.28l-1.33,3.81-3.18.6,3.85-10.62-1.35.25-.02-2.45c2.85-.47,5.61-.98,8.36-1.57l.11,2.43-1.36.26,3.55,9.24-3.28.61h0Z"/><path class="cls-56" d="M486.55,447.15c-2.02.04-3.09-.31-4.01-.81l.86-2.3c1.15.38,1.82.54,3.16.52,1.48-.03,2.2-.49,2.21-1.16,0-.45-.33-.76-.92-1.05-.58-.28-1.36-.52-2.14-.82-1.56-.61-3.17-1.5-3.13-3.64.04-2.43,2.75-3.66,4.93-3.7,1.95-.03,3.05.37,4,.77l-.79,2.23c-.96-.26-1.93-.49-3.16-.46-1.22.02-1.93.65-1.94,1.11,0,.35.34.63.94.92.59.28,1.38.54,2.18.87,1.59.66,3.22,1.63,3.18,3.63-.05,2.76-2.82,3.85-5.35,3.89h0Z"/></g></g></g></svg>