<?xml version="1.0" encoding="UTF-8"?><svg id="_色修正" xmlns="http://www.w3.org/2000/svg" viewBox="0 0 900 600"><defs><style>.cls-1,.cls-2,.cls-3,.cls-4,.cls-5,.cls-6,.cls-7,.cls-8,.cls-9,.cls-10,.cls-11,.cls-12,.cls-13,.cls-14,.cls-15{fill:none;}.cls-1,.cls-16,.cls-17,.cls-18,.cls-19,.cls-20,.cls-21,.cls-22,.cls-23,.cls-24,.cls-25,.cls-26,.cls-27{stroke-width:0px;}.cls-2{stroke-linecap:square;}.cls-2,.cls-8{stroke:#4d4d4d;stroke-width:.93px;}.cls-3{stroke:#4d4b4d;stroke-width:.83px;}.cls-28{stroke-width:.31px;}.cls-28,.cls-29,.cls-4,.cls-30,.cls-31,.cls-32,.cls-33,.cls-34,.cls-35,.cls-36,.cls-37,.cls-38,.cls-5,.cls-6,.cls-39,.cls-40,.cls-41,.cls-42,.cls-43,.cls-44,.cls-45,.cls-7,.cls-46,.cls-47,.cls-9,.cls-48,.cls-49,.cls-50,.cls-51,.cls-52,.cls-11,.cls-14,.cls-53,.cls-54,.cls-55{stroke:#231815;}.cls-28,.cls-29,.cls-33,.cls-50,.cls-52,.cls-11,.cls-53,.cls-54{stroke-linecap:round;}.cls-28,.cls-29,.cls-56,.cls-35,.cls-38,.cls-40,.cls-45,.cls-53,.cls-25{fill:#fff;}.cls-28,.cls-29,.cls-44,.cls-45,.cls-50,.cls-53,.cls-54{stroke-linejoin:round;}.cls-29,.cls-51{stroke-width:.31px;}.cls-4{stroke-width:.41px;}.cls-30,.cls-31,.cls-32,.cls-33,.cls-34,.cls-56,.cls-35,.cls-36,.cls-7,.cls-48,.cls-50,.cls-52,.cls-54{stroke-width:.52px;}.cls-30,.cls-31,.cls-32,.cls-33,.cls-34,.cls-56,.cls-35,.cls-36,.cls-7,.cls-48,.cls-51,.cls-52{stroke-miterlimit:3.73;}.cls-30,.cls-42,.cls-55{fill:#a77b59;}.cls-31,.cls-43,.cls-51{fill:#231815;}.cls-32,.cls-50,.cls-52,.cls-16{fill:#633023;}.cls-33,.cls-54{fill:#a77a58;}.cls-34,.cls-41,.cls-49{fill:#cc7957;}.cls-56,.cls-10{stroke:#fff;}.cls-36,.cls-39,.cls-47{fill:#e6e5e3;}.cls-37,.cls-38,.cls-9,.cls-10{stroke-width:.73px;}.cls-37,.cls-26{fill:#f5de80;}.cls-5{stroke-width:1.04px;}.cls-6{stroke-width:.51px;}.cls-39,.cls-40,.cls-41,.cls-42,.cls-57,.cls-58,.cls-44,.cls-45,.cls-11,.cls-12,.cls-13,.cls-14,.cls-53{stroke-width:.52px;}.cls-57{stroke:#0e3218;}.cls-57,.cls-59{fill:#378339;}.cls-58{fill:#398539;}.cls-58,.cls-12,.cls-15{stroke:#0c6334;}.cls-59{stroke:#0b522c;stroke-width:.54px;}.cls-43{stroke-width:.71px;}.cls-44{fill:#c9191d;}.cls-46{stroke-width:.62px;}.cls-46,.cls-21{fill:#1564af;}.cls-47{stroke-width:.58px;}.cls-48{fill:rgba(167,122,88,.99);}.cls-49{stroke-width:.52px;}.cls-13{stroke:#084927;}.cls-15,.cls-55{stroke-miterlimit:3.2;stroke-width:.5px;}.cls-17{fill:#60b530;}.cls-18{fill:#81c15f;}.cls-19{fill:#4d4d4d;}.cls-20{fill:#1d2878;}.cls-22{fill:#e50012;}.cls-23{fill:#c8b5c4;}.cls-24{fill:#98c2d9;}.cls-27{fill:#004097;}</style></defs><rect class="cls-22" width="900" height="600"/><rect class="cls-27" y="42.86" width="900" height="514.28"/><circle class="cls-25" cx="450" cy="302.97" r="203.02"/><path class="cls-55" d="M338.51,362.91c-.3,1.29-.8,3.09-1,5.38,0,.5-.5,3.19,1,3.29,1.1.1,1.4-2.79,1.4-2.79,0,0-1,3.19.3,3.59,1.8.39,1.99-3.49,1.99-3.49-.2,1.1-1.4,3.89.3,4.18,1.79.3,2.29-3.79,2.29-3.79,0,0-1.5,4.09.3,4.19,1.7.1,1.7-3.99,1.7-3.99,0,0-.9,4.89,1.49,4.49,1.29-.2,1.59-1.9,1.89-2.89.4-1.49,1.29-3.39.2-6.48-.8-2.29-.5-2.89-.5-2.89,0,0-2.79,2.09-4.98,3.49-1,.6-6.38-2.29-6.38-2.29h0ZM367.62,358.61c-.5-.3-.4,1.8-.6,2.79-.1,1,.2,3.19,3.59,2.99,3.29-.3,6.58-1,8.67-.5,2.1.6,5.18.7,6.88.7s2.79-.2,3.59-.5c.7-.3,2.19.4,2.89.4s1.8-1.1,1.7-1.8c-.1-1.3-1.29-1.3-2.99-1.4-1.59-.2-3.79-.5-4.88-.9-1.1-.4-3.09-1.5-5.58-1.99,0,0-4.79.2-5.78.2s-6.88.3-7.48,0h0Z"/><path class="cls-15" d="M351.57,365.7l-.2-4.59,1.89,1.6.5-3.49c.8-.2,2.09,1.4,2.09,1.4l-.2-3.49,2.89,3.19s-.2-2.69.8-4.29c0,0,2.19,1.89,2.19,4.09,0,1.9,1.89-2.69,1.89-2.69.5,1.6,1.6,5.09,1.6,5.09l1.29-1.9,1.1,3.99,2.39-3.49,1.89,4.09,4.29-.3.5,2.39,1.89-2.09,2.49,1.59s2.09-.6,3.19-.6,2.39,1.39,2.39,1.39c0,0,.8-1.39,1.6-1.89.8-.5,1.89.8,2.19,1.59l1.6-2.89s2.09,2.1,2.39,2.89c0,0,.3-2.39.8-3.19.5-.8,1.29.3,1.89,1.3l1.29-4.29s1.4.3,2.39,1.89c1.1,1.59,1.1-2.39,1.1-2.39,0,0,2.39,3.19,2.99,5.38M464.72,365.2s.8-2.19,1.89-3.29c0,0,2.09,2.49,2.09,3.29,0,0,.6-.3,1.7-1.09l1.59,1.59,1.89-1.29,1.79,1.59,3.29-1.4,1.29,1.39,5.08-.6,1.9.8,1.79-2.29,1.69,1.79,2.69-2.69s1.29,1.09,1.59,1.89c0,0,2.19-1.1,2.69-1.89,0,0,2.09-.8,2.39.49,0,0,1.29-1,1.2-2.09-.1-1.1,1.49-.3,1.99,1.1,0,0,.6-2.2,2.2-2.4,0,0,1.09,1.3.79,3.69,0,0,2.39-1.89,3.49-2.09,0,0,.5,2.69-.3,5.09,0,0,2.49-4.09,2.99-2.69.2.8.8,3.49.2,5.38l2.19-1.4.8,2.69,2.39-.5M406.03,378.41s1.8-2.99,2.89-3.79c0,0,2.39,1.9,3.19,4.29,0,0,.3-1.59,1.1-2.99,0,0,2.99,1.39,3.49,3.29,0,0,1.1-1.9,1.89-2.39.8-.6,1.6,2.09,1.6,3.69,0,0,1.89-2,2.99-2.09,0,0,2.09,1,2.69,4.49,0,0,1.99-1.89,2.69-1.6,0,0,2.39,1.6,1.79,3.79-.3,1.2,2.39-1.39,5.68-2.19l2.89,2.19s2.69-3.59,3.49-4.79c0,0,2.2.8,2.2,2.09,0,0,1-3.79,1.79-4.19.8-.5,1.89,1.2,1.89,2.29,0,0,.3-2.89,1.9-3.49,0,0,1.59,1.09,1.59,2.2,0,0,1.7-3.29,2.99-4.09"/><path class="cls-17" d="M351.57,365.7l-.2-4.59,1.89,1.6.5-3.49c.8-.2,2.09,1.4,2.09,1.4l-.2-3.49,2.89,3.19s-.2-2.69.8-4.29c0,0,2.19,1.9,2.19,4.09,0,1.9,1.89-2.69,1.89-2.69l1.6,5.09,1.29-1.89,1.1,3.99,2.39-3.49,1.89,4.09,4.29-.3.5,2.39,1.89-2.09,2.49,1.59s2.09-.6,3.19-.6,2.39,1.4,2.39,1.4c0,0,.8-1.4,1.59-1.9.8-.49,1.9.8,2.19,1.6l1.6-2.89s2.09,2.1,2.39,2.89c0,0,.3-2.39.8-3.19.5-.8,1.29.3,1.89,1.3l1.29-4.29s1.4.3,2.39,1.89c1.1,1.59,1.1-2.39,1.1-2.39,0,0,2.39,3.19,2.99,5.38,0,0-16.5,5.67-28.15,4.12-13.7-1.82-24.99-4.42-24.99-4.42M464.72,365.2s.8-2.19,1.9-3.29c0,0,2.09,2.5,2.09,3.29,0,0,.6-.3,1.69-1.1l1.59,1.59,1.9-1.29,1.8,1.59,3.29-1.4,1.29,1.4,5.08-.59,1.89.8,1.8-2.29,1.69,1.79,2.69-2.69s1.29,1.1,1.59,1.9c0,0,2.19-1.09,2.69-1.9,0,0,2.09-.8,2.39.5,0,0,1.3-1,1.2-2.09-.1-1.1,1.49-.3,1.99,1.09,0,0,.6-2.19,2.19-2.39,0,0,1.1,1.29.8,3.69,0,0,2.39-1.9,3.49-2.1,0,0,.5,2.69-.3,5.09,0,0,2.49-4.09,2.99-2.69.2.8.8,3.49.2,5.38l2.19-1.39.8,2.69,2.39-.5s-14.15,2.17-27.48.9c-13.33-1.27-25.85-5.98-25.84-5.98M454.86,375.1c.65-.4-4.45,10.49-16.82,11.07-17.21.8-31.92-7.78-31.92-7.78,0,0,1.8-2.99,2.89-3.79,0,0,2.39,1.9,3.19,4.29,0,0,.3-1.6,1.1-2.99,0,0,2.99,1.39,3.49,3.29,0,0,1.1-1.89,1.9-2.39.8-.6,1.59,2.09,1.59,3.69,0,0,1.89-2,2.99-2.1,0,0,2.09,1,2.69,4.49,0,0,1.99-1.89,2.69-1.6,0,0,2.39,1.6,1.79,3.79-.3,1.2,2.39-1.39,5.68-2.19l2.89,2.19s2.69-3.59,3.49-4.79c0,0,2.2.8,2.2,2.1,0,0,1-3.79,1.79-4.19.8-.5,1.89,1.2,1.89,2.29,0,0,.3-2.89,1.9-3.49,0,0,1.6,1.1,1.6,2.2,0,0,1.69-3.29,2.99-4.09h0Z"/><path class="cls-18" d="M483.8,175.97s-1.25-.1-2.39-.93l2.39.93"/><path class="cls-12" d="M483.8,175.97s-1.24-.1-2.39-.93"/><path class="cls-1" d="M456.91,196.53l1.35.83,1.45.21s1.56,1.45,3.32,2.81c1.35,1.14,1.35-.21,1.35-.21l.83,3.32h1.14s-.31,2.18-.31,3.32l1.97-1.66,2.28,1.97s1.66-1.45,2.49-1.45,1.14-.83,1.14-.83h.1c-5.5-2.59-7.89-5.3-6.23-8.1,2.7-4.67,7.17-1.66,8.62-1.04l20.14,10.8s1.35-.83.41-1.66c-1.04-.83-1.45-2.91-1.14-3.74.31-.83,2.59,2.6,3.74,2.91,1.14.31,3.74.73,3.74.73l-.1-1.04s3.32,2.29,3.32,3.43c0,0,2.39-1.25,1.56-1.98-.83-.73,3.63,1.77,3.94,3.12l.94-1.04c-.1,0,.31-3.32,1.46-4.88,1.04-1.56,2.18-1.97,2.18-1.97,0,0,1.04-1.77,2.08-1.77,0,0-1.04-.73-1.45-1.56-.52-.83-1.77-1.24-1.77-1.24,0,0,1.56-1.14,1.97-1.66.42-.62.83-.72.83-.72,0,0-2.39-1.97-4.05-2.29,0,0-.1-2.7-2.18-2.9h.93s-1.56-2.91-3.01-3.01c0,0,.93-1.04,1.77-1.14,0,0-1.77-2.29-4.15-1.45l1.56-.62s-1.14-1.25-4.68-.62c0,0,.31-1.45-1.25-2.6,0,0-1.35.1-1.35,1.14,0,0-1.25-1.14-2.8-1.14s.52,1.66.52,1.66c0,0-2.08-1.35-3.32-.93,0,0,.52-2.39-.83-3.63,0,0-1.56.83-1.97,1.87l-.42-1.04s-2.08,2.5-2.49,1.77c-.31-.41-.62-2.18-.62-2.18l-1.24,1.87.21-2.6s-1.45.83-2.6,3.53c0,0-1.45,1.35-1.45,2.6,0,0-1.14-1.35-2.18,0-.94,1.45,0,1.14,0,1.14,0,0-.42.52-1.45.73l.21.83s-1.35-.72-2.39-.41l.52,1.24s-2.7.21-2.8-1.97c0,0-2.28-1.14-2.6.1,0,0-1.87,0-1.66,1.04,0,0-.52-1.04-1.45-1.25-1.04-.31-.21,1.35-.21,1.35,0,0-.31-1.25-1.56-1.87-1.24-.52-.21,1.14-.21,1.14,0,0-1.66-1.35-.83-2.39,0,0-1.56,1.45-.83,2.81l-1.04.73s-.52-.52-.42-.94c.1-.42-1.77,1.25-1.77,1.25,0,0-1.14-2.7,0-2.7.1,0-1.97-.1-2.28,2.29-.31,2.28,0,0,0,0,0,0-1.35.1-2.6.52-1.35.42.93,1.35.93,1.35,0,0-1.97-.42-3.12.2l.73.93s-.73-.72-2.49-.1c-1.87.52.41.83.41.83,0,0-1.87-.41-2.8,0-.94.42.31,1.14.31,1.14,0,0-3.43-1.04-3.95-.73-.52.31,1.14,1.97,1.14,1.97,0,0-2.08.52-2.49,2.08l1.87.73s-.83.42-1.24,1.24c-.41.83,1.24.42,1.24.42,0,0-2.28,1.66-2.28,2.91,0,0,1.66.52,2.91-.73,1.25-1.24.42-.83.42-.83l.1.83s2.39-1.04,2.39-1.66c0-.52-.41.83-.41.83l2.39-1.25,1.56,1.04"/><path class="cls-1" d="M454.93,164.13l-.52-2.28s2.8,0,5.3.62l.93-2.18s2.49,1.14,3.32,1.97c0,0,4.88-1.24,6.33-.72l-.62,2.28s4.47.31,5.92.83c1.35.52-.62,1.66-.62,1.66,0,0,5.09.62,7.27,1.97,2.29,1.35,2.29,2.49,1.14,2.81l2.8,4.46s-4.47.52-5.3,1.66c-.83,1.14-1.66-1.14-1.66-1.14l-.83,3.12s-2.8-1.46-3.95-2.49c0,0-1.35,1.66-.52,2.49,0,0-3.63,0-5.09-3.32,0,0-2.18-.31-2.18,1.66,0,0-2.49-2.8-3.12-3.64l-2.81.83s-.83-1.14-1.87-1.46c-1.14-.21-.31,1.46-.31,1.46l-1.66-1.97-1.66-1.98s-1.46,1.97-2.6,1.97c-1.04,0-1.04-1.35-.83-2.29.31-.83-3.32-1.04-3.63,0,0,0-1.04-4.15,2.8-5.3l3.95-1.04"/><path class="cls-41" d="M480.79,177.32s.62-1.45,1.77-.62c1.04.83,1.35,4.47,1.35,4.47l-1.66.83s.94-1.35-1.45-4.67h0ZM471.35,209.93s.83-1.14-.31-3.64l1.66-.52s.62,1.97-.21,4.16h-1.14M500.11,204.21l-3.94,2.39,1.97.93,4.78-2.81-2.81-.52M447.25,219.69c-1.04.83-1.14,2.29-1.77,3.12-.52.83-2.08,1.97-2.18,3.22-.21,1.25-.31,2.08.21,3.74.62,1.66,3.22,9.03,2.18,14.64-1.14,5.61-.73,8-.31,8.83.41.83,1.66,3.11,2.39,3.11,1.66-.21.94-.72,1.56-1.77,1.56-2.7,0-23.58-.73-29.39-.52-4.47-2.6-8.52-2.8-8.93-.21-.52-.62-1.87-.94-2.7-1.56-3.74-3.43-6.96-3.43-14.75,0,0-5.09,1.14-9.45-8.73-2.28-4.98-5.61-4.47-9.55-6.12l1.77-1.15s3.32,1.66,4.98,1.66,1.14-3.32,1.14-3.32l1.66-1.66v7.27c0,3.32,4.57,7.89,7.27,9.24,1.66.83,3.84-2.6,3.33-5.92-.52-3.32,0-7.79,0-7.79l2.28,1.35s-.83,1.45-.62,2.29c.31.83,1.45-.83,2.28-1.66,0,0,.21.21,1.04.21,0,0-1.66,2.8-2.49,4.26-.83,1.35-.83,6.65-.83,8.62s.73,6.54.73,7.99c0,1.04,1.97,5.3,3.53,7.9.52,1.04,1.76,3.74,1.76,3.74,1.24,1.97,1.35,3.32,2.08,4.99.41.83,1.14,3.22,1.66,7.38.21,1.04.42,4.98.73,7.58.31,2.49,2.39.52,4.88-1.25,2.49-1.87,2.49-6.34,2.49-6.34,0,0,1.97-1.66,1.66-.73-.21,1.04,1.04,2.08,1.04,2.08-1.56,3.53-.62,3.11.93,3.01,1.56-.21,6.96-4.26,6.96-4.26.73-.21,3.95-.21,3.43,0-.62.31-1.45,1.87-1.45,1.87l3.53-.42c-1.25.93-5.92,3.63-6.96,4.26-1.14.73-6.75,3.43-9.14,4.36-2.39,1.04-7.06,3.32-7.27,5.71-.1,2.39.31,8.83,0,10.9-.21,2.08-1.04,11.32-1.04,11.32h-11.11s2.18-8.1-.11-10.28c-2.18-2.29-7.27-8.93-10.59-11.22-3.32-2.18,2.18-.52,2.18-.52v-2.29l5.09,6.13s8.83-7.79,0-18.38c-2.8-3.32-5.61-8.41-7.79-8.93-2.28-.62-3.43-1.14-7.27,0-3.95,1.14-13.4,1.14-17.34-5.09l3.32-.52,2.8-1.14s-1.14,3.95,6.75,3.95,8.93,0,8.31-7.27l2.28-1.14,1.66,1.66s-1.14,3.95-.52,5.61c.52,1.66,3.32,2.81,5.51,4.47.94.73,1.66.83,2.28.83.93-.1,1.14-.1,2.39-1.35,1.87-2.08,1.45-1.97,3.32-3.63,0,0,.93-1.45,1.14-1.66l1.14,3.01h0Z"/><path class="cls-41" d="M448.91,214.19c.41-.41,1.25-1.97,1.97-3.32,1.24-2.08,2.7-3.32,4.36-5.92,1.56-2.39,2.18-5.92,1.56-8.41l1.45.83.11,3.95s1.97-1.66,2.81-2.08l.83.41s-6.23,6.44-12.05,16.83l-1.04-2.28h0ZM394.3,192.59c.83,1.45,1.66,4.26,4.15,6.44l1.66-.52s-3.84-4.47-3.84-6.44l-1.97.52M404.05,190.09s.52,5.3-.83,7.27l1.66-.83s1.14-3.64.83-5.61l-1.66-.83h0ZM458.78,173.37s-.31,7.48,1.14,12.05l1.97-.62s-.31-1.35,1.35-1.98c1.66-.52,5.61-2.18,7.58-3.84l-.62-1.66s-3.01,2.39-4.47,3.01c-1.35.52-2.18,1.14-3.32.83-1.14-.31-2.49-2.18-1.66-6.44l-1.97-1.35ZM480.79,208.27s-.52,5.3-.21,7.58l1.77.42s-.41-6.34.72-6.85l-2.28-1.14M488.69,212.22s-1.97,3.43-4.26,3.74l3.63-.73s1.04-.52,2.6-2.18l-1.98-.83"/><path class="cls-57" d="M456.91,196.53l1.35.83,1.45.21s1.56,1.45,3.32,2.8c1.35,1.14,1.35-.21,1.35-.21l.83,3.32h1.14s-.31,2.18-.31,3.32l1.97-1.66,2.28,1.97s1.66-1.45,2.49-1.45,1.14-.83,1.14-.83h.1c-5.5-2.6-7.89-5.3-6.23-8.1,2.7-4.67,7.17-1.66,8.62-1.04l20.15,10.8s1.35-.83.42-1.66c-1.04-.83-1.46-2.91-1.14-3.74.31-.83,2.6,2.59,3.74,2.91,1.14.31,3.74.73,3.74.73l-.1-1.04s3.32,2.28,3.32,3.43c0,0,2.39-1.25,1.56-1.97-.83-.73,3.64,1.77,3.95,3.12l.93-1.04c-.1,0,.31-3.32,1.45-4.88,1.04-1.55,2.18-1.97,2.18-1.97,0,0,1.04-1.77,2.08-1.77,0,0-1.04-.73-1.45-1.56-.52-.83-1.77-1.25-1.77-1.25,0,0,1.56-1.14,1.98-1.66.41-.62.83-.73.83-.73,0,0-2.39-1.97-4.05-2.28,0,0-.1-2.7-2.18-2.91h.93s-1.56-2.91-3.01-3.01c0,0,.93-1.04,1.77-1.14,0,0-1.77-2.28-4.15-1.45l1.56-.62s-1.14-1.25-4.67-.62c0,0,.31-1.45-1.24-2.6,0,0-1.35.1-1.35,1.14,0,0-1.25-1.14-2.8-1.14s.52,1.66.52,1.66c0,0-2.08-1.35-3.32-.93,0,0,.52-2.39-.83-3.64,0,0-1.55.83-1.97,1.87l-.41-1.04s-2.08,2.49-2.49,1.77c-.31-.41-.62-2.18-.62-2.18l-1.24,1.87.21-2.6s-1.45.83-2.6,3.53c0,0-1.45,1.35-1.45,2.59,0,0-1.14-1.35-2.18,0-.94,1.45,0,1.15,0,1.15,0,0-.42.52-1.45.72l.21.83s-1.35-.73-2.39-.41l.52,1.24s-2.7.21-2.8-1.97c0,0-2.29-1.15-2.6.1l-1.66,1.04s-.52-1.04-1.45-1.24c-1.04-.31-.21,1.35-.21,1.35,0,0-.31-1.25-1.56-1.87-1.24-.51-.21,1.15-.21,1.15,0,0-1.66-1.35-.83-2.39,0,0-1.56,1.45-.83,2.81l-1.04.72s-.52-.52-.42-.93c.11-.42-1.77,1.25-1.77,1.25,0,0-1.14-2.7,0-2.7.1,0-1.97-.1-2.28,2.29,0,0-1.35.1-2.6.52-1.35.42.94,1.35.94,1.35,0,0-1.97-.42-3.12.21l.73.93s-.73-.73-2.49-.11c-1.87.52.42.83.42.83,0,0-1.87-.42-2.8,0-.94.42.31,1.14.31,1.14,0,0-3.43-1.04-3.95-.72-.52.31,1.14,1.97,1.14,1.97,0,0-2.08.52-2.49,2.08l1.87.72s-.83.42-1.25,1.25c-.41.83,1.25.41,1.25.41,0,0-2.28,1.66-2.28,2.91,0,0,1.66.52,2.91-.73,1.24-1.24.41-.83.41-.83l.11.83s2.39-1.04,2.39-1.66c0-.52-.41.83-.41.83l2.39-1.25,1.56,1.04h0s0,0,0,0Z"/><path class="cls-57" d="M454.93,164.13l-.52-2.28,5.3.62.93-2.18s2.49,1.14,3.32,1.97c0,0,4.88-1.24,6.34-.72l-.62,2.29s4.47.31,5.92.83c1.35.52-.62,1.66-.62,1.66,0,0,5.09.62,7.27,1.97,2.28,1.35,2.28,2.49,1.14,2.8l2.8,4.47s-4.46.52-5.29,1.66c-.83,1.14-1.66-1.14-1.66-1.14l-.83,3.11s-2.8-1.45-3.94-2.49c0,0-1.35,1.66-.52,2.49l-5.09-3.32s-2.18-.31-2.18,1.66c0,0-2.49-2.81-3.11-3.64l-2.81.83s-.83-1.14-1.87-1.45c-1.14-.2-.31,1.46-.31,1.46l-1.66-1.97-1.66-1.97s-1.45,1.97-2.6,1.97c-1.04,0-1.04-1.35-.83-2.28.31-.83-3.32-1.04-3.63,0,0,0-1.04-4.16,2.8-5.3l3.95-1.04h0ZM434.8,178.36l-1.77,1.66-1.04-.52-2.08,2.29-.42-1.25-1.14,1.87-1.76-.62-.83,1.35-1.56-.31s-1.35,1.25-2.18,1.56c-.83.21,0-1.87,0-1.87,0,0-1.25,2.08-2.18,2.08-.83,0-.52-.94-.52-.94,0,0-.52,1.35-1.56,1.56-.94.11-.52-1.04-.52-1.04l-1.66,1.25v-1.04l-.72-.31s.41-1.87,1.14-2.29c.73-.42-.73-1.66-.73-1.66l.73-.83s-2.08-.52-2.08-.1c0,0,1.04-2.8,2.49-3.33l.11-3.11s1.45-1.25,2.8-1.35c1.45-.21-.41-2.39-.41-2.39l3.32-1.97.42-2.39,5.09.41,1.04-2.18,4.05,1.04,3.42-1.77,2.49,2.91,3.74.31s-.1,2.6-.1,3.32c0,0,4.46,1.35,4.98,1.77,0,0-.83,2.7-.83,3.22,0,0,3.12-.83,4.05-.62,0,0,.31,2.91.41,3.63,0,0,5.3,1.66,5.61,2.6,0,0-1.14.72-1.77,1.66,0,0,.62,3.22.62,4.26l-.42.62s-1.56-1.45-2.8-1.66l-1.04,2.29-1.87-1.25-1.14.1s-.94-1.14-1.66-1.14l-.1-1.04-1.45.93s-2.28-1.14-2.28-1.87c0-.62.1-1.66.1-1.66l-2.39,1.66s-.52-1.25-.41-1.77c.1-.52-.94,1.25-.94,1.25,0,0-1.25-2.18-1.14-2.6l-.31,1.77s-2.49-.83-2.8-2.49h0s0,0,0,0Z"/><path class="cls-57" d="M401.56,188.54s4.36,2.18,4.36,3.22c0,0,1.14-2.29.52-3.12l1.66,1.14s.52-2.08-.11-2.7c-.52-.52,3.74-2.28,4.67.52,0,0,2.6-2.7-2.39-4.99,0,0-.41-1.66,2.6-1.24,0,0-.21-1.04-.94-1.45h2.91s-1.77-1.45-4.36-1.87c-2.49-.42-.94-.73-1.04-1.25-.21-.52,0-2.39,0-2.39,0,0-1.45-.52-2.6.1l.42-.52s-2.7-.73-3.74-.1c0,0-1.56-.62-1.35-2.29,0,0-1.56-.1-2.28,1.56,0,0-1.45,1.66-3.43,1.66-.41,0-1.87-.83-1.87-.83l-1.25,2.91-1.97-.1.62,1.14s-3.01-.83-3.95,0c0,0,1.14,1.77.83,3.01,0,0-2.39.42-2.91.83-.62.41.83.72.83.72,0,0-2.7.83-3.33,1.66l1.04.83-1.25,1.67,1.04.2s-1.77.52-2.7.83c-.93.31,1.66.52,1.66.52l-1.25,1.14,1.97.31s-1.56,4.16-1.66,6.13c0,0,2.39-2.91,3.01-3.12l-1.87,3.12s3.53-1.14,3.84-1.66c.31-.62.62-1.14.62-1.14l.1,1.77s1.35-1.87,1.56-2.6c.11-.73,2.18.73,2.18.73v-1.04s1.87.62,2.49.73c.73.1.83-.31.83-.31l1.77-.21-.31,1.45s1.24-.83,1.55-1.66c.21-.83.83,0,.83,0l.83-3.32h1.77ZM387.34,203.28l1.66,3.43c-1.35.1-3.32,1.66-3.32,1.66.31,5.71-1.14,5.4-1.14,5.4.41,1.04-.27,2.97-.27,2.97l8.26-4.94.1-.52,9.76-4.57.31.52,2.81-1.56,1.97,5.19-1.97,1.14c.11,1.77,2.18,4.88,2.18,4.88l2.6-.62,2.8-1.04s.1,1.56.1,1.04c0-.42,3.01-1.45,3.01-1.45l1.35,1.35c1.04-.1,2.91-2.6,2.91-2.6l2.18.83s.73-1.25.73-2.18c0-.83,2.7-.83,2.7-.83l1.87,1.35,2.39-1.97s.73,1.45,1.66,1.66c1.04.1,3.63,2.08,3.63,1.66s1.14-2.7,1.14-2.7l4.36,1.77c-.62-1.97-2.07-4.36-2.07-4.36,0,0,2.07-1.66,1.66-2.08-.42-.42-1.66,0-1.66,0l1.24-2.49h-1.66l.52-.62-2.7-1.14,1.45-2.91c-.62-.73-7.79-2.18-7.79-2.18l1.66-1.56s-.83-1.25-1.66-1.25-5.19.11-5.4-.31c-.11-.42-1.87-1.98-1.87-1.98l-2.7,1.98-1.35-.42-2.39.94s0,1.35-.31.41c-.31-.83-2.49-3.01-2.49-3.01-.41.73-3.22,4.05-3.22,4.05,0,0-.42,1.77-1.35.52-1.04-1.24-3.22-2.59-3.53-1.56-.31,1.14-2.28,2.18-2.7,1.87-.41-.31-2.7-.1-2.91.52-.1.73-2.6,2.59-2.6,2.59-1.56-.73-4.05-.31-4.05-.31,0,0-.72,1.14-.83,2.07l-5.09,1.35h0s0,0,0,0ZM434.28,245.35v-2.18l2.49,1.66,1.45-1.66,1.87,1.87,1.14-1.87v3.01l2.8-2.49,1.66.72v-2.39s1.97-3.32,1.14-3.94l1.66-.52s-2.8-2.81-3.63-3.33c-.83-.62-1.97-.62-1.97-.62,0,0-2.18-2.18-3.63-2.81-1.35-.52-2.18.62-2.18.62,0,0-.83-1.66-2.28-1.97-1.35-.31-1.35,1.14-1.35,1.14,0,0-1.04-1.04-2.39-1.56-1.35-.62-.42,1.25-.42,1.25l-4.78-1.45.62,1.45-4.46-1.14.52,1.66-3.11-.52-.21,1.36-4.47.83.83,1.45-2.8-1.14v1.97l-3.12,1.14,1.14,1.04s-4.15,1.97-4.99,2.6c-.83.52,1.66,1.66,1.66,1.66l-4.47-.62,1.66,1.46-3.95,3.64,2.8,1.97-1.66,2.49,4.16.83,1.66,2.8,3.43-.62v3.11l4.98-3.94s3.64,3.22,3.95,2.28c.21-.83.21-3.63.21-3.63h1.77v-2.8l1.35,1.14,2.29-3.33,3.01,4.16,2.28-5.3,3.32.52h0ZM454.63,232.78l-.52-4.78-1.45,1.45.62-4.47-2.28-.42.83-4.36-1.66-.83.41-2.08,1.66-1.25,3.01-2.91,6.95.11.83-2.29,4.99.83c.83.93,3.42-1.87,3.42-1.87h1.04l1.14,2.18s3.63-.52,5.29.62l-1.97,2.7,3.63.31,2.49.52,2.6-.83,3.32-.21.83,1.35h3.11l-1.04,1.25,4.05,1.87-.83.83s2.28.83,3.94.83h.83s.83,1.97-.31,2.8c0,0,1.14,2.81,3.63,3.33q2.49.52,2.8,1.14c.31.52,0,3.32-2.8,3.32v2.81s-2.18,1.97-2.49,2.8l-1.66-1.14s-1.45,1.66-1.45,2.81c0,0-3.64-4.78-4.99-4.99-1.45-.31-1.14,2.7-1.14,2.7l-3.94-3.32-.52,2.28-3.32-2.8-1.97,1.35-3.53-3.63-3.43.42,1.35-1.77h-4.15l-.83-3.63-.62,3.01-2.49-1.66-3.22,3.53s-.42-.42-.93-2.08c-.52-1.66-1.97,1.97-1.97,1.97l-1.14-2.6-1.35,2.6s-1.14-1.97-2.29-2.6c-1.04-.52-2.18,3.11-2.49,4.78h0ZM455.25,243.68l.21-1.66,5.92-2.29,4.99-1.87,2.49-1.14,1.14,1.97,1.45-2.8,2.28,2.91,1.25-1.56,1.97,1.45h1.66l.31,2.18s4.15.31,4.46-.52c.31-.83.83,2.8.83,2.8l3.94.52.83,4.47s1.97,4.16,1.35,5.82c-.52,1.77-2.18-2.18-2.18-2.18,0,0-.31,3.12-.62,3.95-.21.83-5.29-.83-5.29-.83l-2.18,4.16s-2.28-3.32-3.32-3.32c-1.14,0-1.14,3.32-1.14,3.32,0,0-3.32-3.95-4.78-5.61-1.35-1.66-1.66,1.66-1.66,1.66,0,0-2.18-3.64-2.18-4.67,0-1.14-1.97-2.29-1.97-2.29,0,0-3.43,3.95-5.92,4.99,0,0,.31-2.49-.52-3.32-.83-.83-3.32,1.66-3.32,1.66,0,0-1.77-3.84,0-7.79h0Z"/><path class="cls-13" d="M482.66,181.78l.52,2.08s1.87-.42,3.12-.31c0,0-.31,1.66-.73,2.39,0,0,2.49-.41,3.63.31l-.52,1.25,2.91,1.25-2.7,2.18s4.36,1.56,5.19,2.8c0,0-2.8,1.97-3.22,1.87-.42-.21-.1.83.62,1.76l-2.39-.1s.93,2.18.83,3.01c-.1.83-3.95.62-3.95.62M500.93,195.28s.73-4.15-.41-5.19c0,0,2.7,2.29,4.46,2.39,1.87.11-.11-3.43-.11-3.43,0,0,2.6,1.35,3.84,1.66,1.25.21-.93-2.6-.93-2.6,0,0,.73-1.35,2.8-.1M462.31,171.5s.1-.93-.31-1.45c-2.49-3.43,2.6,2.6,3.63,2.81M470.41,172.85s1.66,1.24,2.49,1.24-.52-3.32-.93-3.74c-.41-.42,3.01,1.35,4.26,1.56,1.24.31,1.45-2.08,1.45-2.08,0,0,3.84.62,4.68,1.14M455.66,170.26s-.31-2.18-.41-3.11M429.5,180.65c-.21-.42,1.04-2.29.52-3.12,0,0,.72.62,1.45.73.62.1.41-2.39.41-2.39l.83.31s2.18-1.04,1.77-1.87c-.42-.83,1.45,1.24,1.45,1.24,0,0,1.25-1.24,1.25-1.76s1.45,1.24,1.45,1.24c0,0,1.56-.31,1.56-1.24s1.97.31,1.97.31c0,0,.83-1.14.73-1.87M421.91,182.62s.93-2.18-.1-3.63M396.68,189.46c.1-1.04.62-3.84.1-4.26-.52-.41,1.04.42,2.29.73M408.93,185.53c-1.24-1.25-1.97-1.87-3.94-1.87M387.85,192.48c.31-.73.83-2.49.52-3.53M414.95,243.99l1.35-2.81,1.66,3.95,1.14-2.49.42.83,2.49-2.7,2.7,4.05M468.02,227.27l1.77-3.53,2.39,1.25,1.14-3.43,2.49,1.56,1.45-3.22,2.8.73.21-2.28s1.97,1.14,2.49,1.97c.62.83,0-2.8,0-2.8l2.28,1.04s1.66-1.66-.62-2.6"/><path class="cls-13" d="M474.98,222.81l2.49,3.64,2.08-2.39,1.87,4.05,2.39-1.45,3.43,1.97,1.56-1.24,3.74,2.7,1.56-3.22,3.32,1.04,2.18-3.74M409.87,214.4s1.45-2.5.93-3.64c-.62-1.14,3.01,1.97,3.01,1.97,0,0,.83-2.49.31-3.63-.62-1.14,4.15,3.32,4.15,3.32,0,0,.83-3.84,0-4.67-.83-.83,4.57,1.14,4.57,1.14,0,0,2.18-.62,1.35-1.77-.83-1.14,3.63,1.66,3.63,1.66,0,0,1.04-2.8,0-3.84-1.14-1.14,3.32,1.35,3.32,1.35l-1.66-3.01,3.63.21-.31-3.32M465.01,248.14l2.39-1.14,2.08,2.08,2.28-3.63,2.8,2.7.42-2.7,3.01,1.25.62-1.67,3.32,1.77.31-2.49,1.66.52.31-1.66"/><path class="cls-24" d="M410.7,366.34c-2.58-4.37-4.7-9-6.34-13.81l44.96-39.57,44.96,39.46c-1.56,4.57-3.64,9.45-6.54,14.13l-.36.57c-1.13-.43-2.26-.86-3.38-1.3,0,0-1.45,1.35-2.59,1.45-1.56.21-2.91-1.35-2.91-1.35,0,0-1.97,1.66-3.95,1.35-1.97-.2-2.81-1.45-2.81-1.45,0,0-2.07,1.66-3.53,1.35-1.35-.32-2.28-1.25-2.28-1.25,0,0-1.24,1.56-3.01,1.25-1.66-.32-3.22-1.25-3.22-1.25,0,0-2.59,1.14-4.26,1.35-1.66.31-3.12-1.45-3.12-1.45,0,0-2.18,1.45-3.01,1.45s-3.95-1.45-3.95-1.45c0,0-3.22,1.04-4.36,1.04-1.04,0-4.26-1.35-4.26-1.35,0,0-3.01.83-4.36.83-1.46,0-3.53-.83-3.53-.83,0,0-2.49,1.14-3.84.83-.89-.19-1.76-.47-2.6-.83,0,0-2.7,1.14-4.47.83-1.66-.31-3.63-1.45-3.63-1.45,0,0-.31.83-3.53,1.45h-.1"/><path class="cls-38" d="M449.33,267.47v45.49l-44.96,39.78c-4.36-12.67-4.67-23.99-4.67-28.87v-56.4h49.63"/><path class="cls-37" d="M449.33,267.47v45.49l44.86,39.78c4.36-12.67,4.67-23.99,4.67-28.87v-56.4h-49.53"/><path class="cls-41" d="M420.32,356.89c3.38,1.83,2.24,1.26,9.24,3.74,5.71,1.98,12.36,2.91,22.01,2.91,8.45,0,13.21-.67,15.88-1.41,2.78-.8,3.43-1.92,3.43-1.92l-6.96,7.06s-27.96,1.51-33.02-1.77c-1.97-1.04-6.23-4.47-10.59-8.62h0Z"/><path class="cls-11" d="M461.34,343.7s8.93,5.09,0,14.85M421.16,357.41l12.88-12.26-1.45,16.41M439.33,362.79v-27.2M461.34,363.01v-29.08M450.23,363.53v-31.26"/><path class="cls-44" d="M439.33,337.05l-5.82,1.87,5.82.62v-2.49M450.23,332.79l-6.12,2.29,6.12.21v-2.49ZM461.34,334.45l-6.13,2.29,6.13.31v-2.6h0ZM464.98,347.65c-.31-1.25,3.63-1.14,3.63-1.14,0,0,1.14,4.15,0,6.75l-3.32-.62s.31-2.8-.31-4.98h0Z"/><path class="cls-45" d="M423.13,355.74l10.9-10.59-.52,6.34s-5.61,3.63-5.61,6.23l-4.78-1.97M428.94,357.93s1.14-3.32,4.26-4.99l-.31,6.65-3.94-1.66h0ZM444.62,339.54s4.46-.62,7.79,0c0,0-.52,4.47,0,5.3,0,0-6.13-1.45-8.62.83,0,0-.83-4.15.83-6.12h0ZM435.17,340.69s4.47-.62,7.79,0c0,0-.83,4.99-.31,5.82,0,0-4.99-2.81-7.48-.52,0,0-1.66-3.42,0-5.3h0Z"/><path class="cls-53" d="M434.86,346.5s4.46-.52,7.79,0c0,0-.52,4.47,0,5.3,0,0-5.82-1.35-8.31.83,0,0-1.14-4.16.52-6.13h0ZM443.79,345.67s6.44-.83,9.76-.31c0,0-1.35,3.63.31,6.13,0,0-6.96-1.87-9.55.31,0,0-2.18-4.15-.52-6.13h0ZM434.35,352.63l8.62.62s-.83,6.34-.31,7.17c0,0-6.96-1.66-8.31.62,0,0-2.28-5.81,0-8.41h0ZM444.1,352.63s7.47-.52,10.9,0c0,0-1.98,4.78.21,8.93,0,0-9.76-2.8-11.12-.52,0,0-2.28-5.81,0-8.41h0ZM455.53,339.54s4.46-.62,7.79,0c0,0-.52,4.47,0,5.3,0,0-6.13-1.45-8.62.83,0,0-.83-4.15.83-6.12h0ZM455.53,345.67s4.46-.52,7.79,0c0,0-.52,4.47,0,5.3,0,0-6.13-1.35-8.62.83,0,0-.83-4.15.83-6.13h0ZM456.05,352.11s4.46-.62,7.89,0c0,0-1.14,6.96-.62,7.79,0,0-5.08-2.39-7.47-.31,0,0-1.45-5.5.21-7.48h0Z"/><path class="cls-40" d="M465.28,352.63s1.45,5.3,3.32,5.92l-2.49,3.01s-3.01-2.18-3.32-4.67c0,0,1.97-2.29,2.49-4.26h0Z"/><path class="cls-21" d="M487.54,366.96c-7.16,11.95-18.9,23.16-38.21,30.12-19.63-7.06-31.57-18.8-38.63-30.64l.1-.1c3.22-.63,3.53-1.45,3.53-1.45,0,0,1.97,1.14,3.63,1.45,1.77.31,4.47-.83,4.47-.83,0,0,1.14.52,2.6.83,1.35.31,3.84-.83,3.84-.83,0,0,2.08.83,3.53.83,1.35,0,4.36-.83,4.36-.83,0,0,3.22,1.35,4.26,1.35,1.14,0,4.36-1.04,4.36-1.04,0,0,3.12,1.45,3.95,1.45s3.01-1.46,3.01-1.46c0,0,1.45,1.77,3.11,1.46,1.66-.21,4.26-1.35,4.26-1.35,0,0,1.56.94,3.22,1.24,1.76.31,3.01-1.24,3.01-1.24,0,0,.93.94,2.28,1.24,1.45.31,3.53-1.35,3.53-1.35,0,0,.83,1.25,2.81,1.45,1.97.31,3.95-1.35,3.95-1.35,0,0,1.35,1.56,2.91,1.35,1.14-.1,2.59-1.45,2.59-1.45,0,0,2.6.83,3.53,1.14"/><path class="cls-14" d="M485.78,369.66c-1.56.11-1.77-.94-1.77-.94,0,0-2.07,1.77-4.05,1.45-2.08-.31-3.01-1.66-3.01-1.66,0,0-2.18,1.77-3.63,1.45-1.45-.21-2.49-1.25-2.49-1.25,0,0-1.35,1.56-3.11,1.25-1.77-.21-3.32-1.25-3.32-1.25,0,0-2.8,1.15-4.57,1.46-1.77.31-3.22-1.66-3.22-1.66,0,0-4.05,1.35-4.88,1.35-.94,0-3.84-1.35-3.84-1.35,0,0-1.97,1.25-3.11,1.25-1.25,0-4.57-1.45-4.57-1.45,0,0-3.12.83-4.57.83s-3.63-.83-3.63-.83c0,0-2.7,1.14-4.15.83-1.45-.31-2.6-.83-2.6-.83,0,0-2.91,1.14-4.67.83-1.77-.31-3.84-1.45-3.84-1.45,0,0-.31.73-3.74,1.45h-.11"/><path class="cls-46" d="M421.29,373.9s-.29.68-3,1.28c-.06,0-.73.16-.73.16.25-.04.45-.08.67-.13-.25.09-.51.18-.77.25,3.06,4.42,7.65,8.44,12.43,11.66,4.78,3.22,10.27,7.07,19.63,9.81,9.83-3.84,12.46-5.3,18.89-9.6,6.43-4.7,9.78-7.62,13.36-12.44-2.81,1.59-2.4,1.61-3.86,1.4-1.45-.31-2.52-1.37-2.52-1.37,0,0-1.33,1.58-3.09,1.37-1.77-.31-3.32-1.37-3.32-1.37,0,0-2.31,1.57-4.59,1.47-1.77-.1-3.22-1.66-3.22-1.66,0,0-4.05,1.34-4.88,1.34-.94,0-3.83-1.34-3.83-1.34,0,0-1.98,1.24-3.12,1.24-1.25,0-4.56-1.47-4.56-1.47,0,0-3.11.83-4.56.83s-3.64-.83-3.64-.83c0,0-2.59,1.14-4.15.83-1.45-.31-2.62-.83-2.62-.83,0,0-2.89,1.14-4.66.83-1.77-.31-3.86-1.43-3.86-1.43h0Z"/><path class="cls-46" d="M449.52,396.94c10.16-4.23,11.99-5.38,18.14-9.14-1.07.03-4.19-.98-3.06-1.3,0,0-1.25,1.13-2.49,1.13-1.14,0-4.47-1.45-4.47-1.45,0,0-3.11.83-4.57.83s-3.64-.83-3.64-.83c0,0-2.7,1.14-4.15.83-1.45-.31-2.6-.83-2.6-.83,0,0-3.01,1.14-4.67.83-1.77-.31-3.84-1.45-3.84-1.45,0,0-2.56,1.35-4.16,1.51,4.91,3.6,10.08,7.11,19.51,9.87h0Z"/><path class="cls-49" d="M407.41,271.33c-.72-.02-1.58.4-2.91,1.61-2.1,1.89-2.85,3.84-.1,6.2l13.63,12.4c1.99,1.93,4.77,2.29,5.94,3.29l13.86,14.17c1.75,1.51,2.58,2.58,1.59,3.87-1.09,2.12.08,2.41.33,2.47,1.9.43.86-.76,1.11-1.37.33-1.3,1.74-2.41,2.75-2.96.65-.25,1.01-.12,1.18.23.6.24,1.23-.65.35-1.6-.76-1.06-1.94.66-3.28.26,0,0-2.01-1.25-2.57-2.14-1.18-1.31-2.69-2.48-3.56-3.61-.92-1.04-4.4-5.64-9.69-10.92-1.52-.99-1.18-4.75-2.26-5.91-.09-.81-10.57-11.19-14.31-14.94-.75-.56-1.33-1.01-2.05-1.03h0Z"/><path class="cls-6" d="M408.07,276.92l14.25,14.08"/><path class="cls-47" d="M427.37,283.35c.22-.42.7-1.5,1.21-2.68.2-.47,4.03-6.58,5.94-6.76,0,0,11.92,8.67,11.93,8.79.04.47-5.17,8.26-5.62,7.67,0,0-13.96-5.86-13.46-7.02h0Z"/><path class="cls-23" d="M434.96,285.39c-1.63-1.27-4.33-2.5-6.51-3.96l-.98,2.04c.79.88,10.7,5.49,12.33,6.38,0,0-1.89-2.17-4.85-4.47h0Z"/><path class="cls-4" d="M428.45,281.17c1.28.89,3.7,2.42,5.23,3.32,2.93,2.04,4.79,4.29,6.89,5.49"/><path class="cls-41" d="M404.3,318.32l27.14-33.58c.51-.47,3.02-.49,3.37,2.11l-25.7,35.02s-2.93-.29-4.8-3.55h0ZM495.26,318.68c-.94.73-2.53.92-2.53.92-1.76-2.08-3.22-4.26-5.71-6.96l-27.1-33.34,2.8-2.7,24.4,28.56c.73.73,4.99,5.19,9.04,10.49,0,0,.36,2.07-.9,3.03h0Z"/><path class="cls-39" d="M469.16,283.56l-4.36-5.19s-3.32.41-3.94,2.18c0,0-2.39,3.95-8.72,4.36,0,0,1.76,7.37,9.14,11.32,0,0,2.7-7.58,5.3-8.93,0,0,2.7-1.97,2.6-3.74h0Z"/><path class="cls-41" d="M458.26,306.62c-.62-.21-1.24,0-2.18.52-.83.52-1.87.31-1.77-.73.1-.94,0-.83,1.14-1.56,1.66-.94,3.84-1.04,5.19-.52l-2.39,2.29M487.85,277.12c-.21-.73-.41-1.45.31-2.39.73-.83.73-2.29-1.04-1.56-1.77.73-2.39,2.7-.93,5.71l1.66-1.77h0Z"/><path class="cls-39" d="M457.64,307.24l30.74-30.53,7.58,8.1s-1.56-.63-2.18-.21c-.52.42.62,1.97.62,1.97,0,0-1.45-.52-2.08-.1-.73.41,0,2.18,0,2.18,0,0-1.25-.93-1.87-.52-.52.42,0,2.39,0,2.39,0,0-1.66-.52-2.07-.1-.42.42,0,2.18,0,2.18,0,0-1.66-.83-2.49,0-.83.83.42,1.97.42,1.97,0,0-2.08-.83-2.91.41-.83,1.25.1,2.39.1,2.39,0,0-1.66-.83-2.08-.42-.42.42,0,2.39,0,2.39,0,0-1.45-.83-2.39.21-.94,1.14.1,2.08.1,2.08,0,0-1.35-.83-2.08-.42-.73.42.21,2.39.21,2.39,0,0-1.35-.94-2.29,0-.93,1.04,0,2.08,0,2.08,0,0-1.14-1.04-2.28,0-1.04,1.14,0,2.29,0,2.29,0,0-1.66-.83-2.28,0-.73.83.21,1.97.21,1.97,0,0-1.25-.73-2.08-.32-.83.42,0,2.29,0,2.29,0,0-1.24-1.35-1.76-.62-.62.73.1,2.49.1,2.49,0,0-1.14-1.35-1.77-.62-.73.62.41,2.18.41,2.18,0,0-2.08-.94-1.56-.94l-6.34-7.16Z"/><path class="cls-19" d="M486.6,279.2l-2.39,2.39.52,8.21s.52-2.39,1.24-.73c0,0,.21-1.97.73-1.66-.42-.21-.1-8.21-.1-8.21M482.14,283.66l-1.77,1.66.62,8.21s.52-3.12,1.24-.62c0,0-.1-2.08-.1-2.81,0,.52,0-6.44,0-6.44M463.56,302.05l-1.66,1.76.42,4.99s.52-3.22,1.24-.73c0,0-.21-2.07-.21-2.8,0,.52.21-3.22.21-3.22"/><path class="cls-8" d="M461.48,281.49c1.14,1.14,4.36,5.29,4.36,5.29M462.94,283.78c-.21.62-.62,2.39-1.56,3.32M463.45,284.18c-.1.42-.1,1.77-1.56,3.12M463.97,284.82c-.21.72-.31,1.24-.83,1.77M464.28,285.44c0,.52-.31.62-.41.94M460.45,283.46c-.42.41-3.43,2.39-5.09,3.01M459.61,284.6c-.41.42-2.28,1.87-3.32,2.29M459.3,285.85c-.62.42-1.66,1.45-2.49,1.77M458.68,287.09c-.41.52-1.04.94-1.56,1.25"/><path class="cls-2" d="M440.65,288.24c.34-.63.93-1.85,1.7-2.98.98-1.43,1.4-1.67,1.91-2.17"/><path class="cls-58" d="M340.4,371.95c1.56.72,0-5.09.52-7.27.62-2.29,5.09,5.61,7.27,6.65,2.28,1.14,16.2-5.51,16.2-5.51l3.32-6.23,1.77,5.09s3.84-4.47,4.98-6.13c1.14-1.66,0,3.32-1.14,4.98-1.14,1.66,3.32,2.29,2.8,5.61-.52,3.32,4.47-2.29,4.47-2.29l12.88,1.14s2.18-7.79,5.61-12.26l1.04,4.99,5.3-5.4c5.92,15.58,18.38,32.51,43.92,41.75,23.99-8.72,36.34-24.2,42.78-38.95l7.17,7.38s5.61-1.67,6.65-2.29c1.14-.52,13.19,4.26,13.19,4.26,0,0,2.18.83,3.32,1.66,1.14.83.31-3.64.31-3.64,0,0,6.13,1.14,5.61,4.47,0,0,1.35-3.11,2.49-3.63,1.14-.52,3.84,2.8,4.47,3.94.52,1.04,13.71,2.7,15.58,3.84,0,0,1.45,1.66,1.45,2.81,0,0,2.8-.31,4.99-.31,0,0-1.66.83-1.66,2.6,0,1.66-.83,3.01-2.49,3.84-1.66.83,0,1.45,2.18,1.66,2.28.31,0,3.11-4.47,4.78,0,0-1.04,2.49.83,3.32,0,0-3.84.31-4.47-.83,0,0-1.35,2.6-1.35,3.95,0,0-4.16-1.35-5.3-1.97,0,0-1.66,1.66-.52,2.49,0,0-7.58-.83-9.03-3.63,0,0-2.7.83-2.18,1.77,0,0-5.3-3.63-6.96-3.63l-1.14,1.86s-3.63-2.18-4.78-2.18c-1.04,0-.21,1.66-.21,1.66l-5.09-3.12-1.97,3.12s-4.16-1.97-5.3-2.8c-1.04-.83-1.35,1.66-2.18,1.97,0,0-1.66-2.28-3.95-1.97,0,0-.83,2.8-.52,3.63,0,0-6.44-1.35-7.58-1.66-1.14-.31-.52,1.35,0,2.5,0,0-4.78-1.35-5.82-2.18l-.31,2.18s-3.94-.31-4.77-1.14l-2.49,3.43h-3.63l-.83,3.01s-6.28-2.31-6.86-.73c-.52,1.14-.41,2.7-.41,2.7l-5.16-.35-1.58,2.78s-6.97-2.67-8.63-1.63c0,0-3.29,2.09-4.75,2.61-1.84-1.86-3.23-2.52-5.01-3.11-1.83-.29-5.81,2.18-7.27,1.35,0,0,0-1.98-1.14-2.49-1.04-.52-3.01-.52-3.84.83,0,0-.83-1.14-2.28-3.32-1.35-2.29-3.32.21-3.32.21l-.31-2.7-3.84-.31c-2.29-.31-2.8-2.29-2.8-2.29,0,0-5.92.62-6.75.31l1.45-1.35s-8.1,1.66-9.76,1.04c-1.77-.52,1.87-2.81,1.87-2.81,0,0-7.48-1.87-8.93-2.18-1.35-.31-9.45,1.35-10.59,1.35s-1.66-1.87-1.66-1.87c0,0-1.97,1.66-3.64,2.18,0,0-1.35-3.32-.52-3.64,0,0-5.3,1.45-5.61,2.81,0,0-1.35-2.18-1.14-3.12,0,0-2.49,3.95-3.63,4.78-1.14.83-.21-1.97-.21-1.97,0,0-3.11,3.94-4.26,4.26v-2.81s-8.93,4.78-11.42,4.16c0,0,0-1.98.83-2.49l-5.61-.31c-1.35-.21-3.01-.83-4.46-1.14-1.35-.21,1.97-1.66,4.26-1.04,0,0-6.23-2.28-8.1-1.14,0,0-.83-2.28,2.49-3.12,0,0-4.26-4.15-6.75-3.84,0,0,2.81-1.66,5.09-.83,0,0-2.6-7.06-4.26-7.89,0,0,5.92-1.04,7.58-.2h0Z"/><path class="cls-41" d="M331.78,250.12l75.59-39.15c.36-2.02-.79-3.61-1.97-5.19-21.62,10.6-41.29,23.47-65.31,31.26-1.35.52-13.29,5.5-19.42,12.88-1.94,1.95-2.09,4.82-2.09,4.82,0,0,.15,3.3.84,4.19,0,0,.18.91,1.31,1.63-.01,0,.7.35,1.19.17.55.1,1.44.1,2.69-2.09,1.25-2.08,5.3-6.85,7.17-8.52h0Z"/><path class="cls-39" d="M392.63,211.39l9.76-4.67s3.32,2.49,3.01,5.3c0,0,.73,6.44,8.73,10.9,0,0-6.75,8.41-18.59,9.14,0,0,1.36-11.1-1.13-14.32,0,0-.42.4-.23-.15.35-1.08-.24-4.78-1.76-5.6-.19-.1.12-.4.21-.59h0Z"/><path class="cls-3" d="M404.05,212.74c-2.08.83-8.83,4.36-8.83,4.36M400.84,214.81c-.1,1.04-.73,3.53,0,5.3M399.9,215.13c0,.52-.83,2.39.1,4.88M398.87,215.65c-.21,1.04-.41,1.66,0,2.81M398.03,216.27c-.21.62,0,.94,0,1.35M404.16,215.95c.31.83,3.11,5.19,4.78,6.96M404.57,217.92c.31.83,1.87,3.84,3.01,4.99M404.37,219.69c.41,1.04,1.24,2.91,2.08,3.95M404.37,221.77c.21.83.62,1.87,1.24,2.6"/><path class="cls-49" d="M472.08,193.09c-1.38.17-2.63,1.11-4.03,3.5-2.45,4.68-1.85,7.24,5.55,10.45h0l27.77,13.6c5.57,2.7,7.57.2,10.71,1.57l54.8,27.92c4.7,2.06,7.33,2.71,6.66,5.14-.09,3.14,1.01,3.57,1.78,3.71,1.18.49,2.1.77,2.34-.59.18-.27-.15-.71-.5-1.28-.35-.58-.72-1.29-.63-2.1.09-.81.16-1.2.43-1.62.27-.43.75-.9,1.65-1.89.45-.5.88-.72,1.28-.75s.79.1,1.16.31c.51.3.95.64,1.4.96,1.83-.15.2-2.74-1.07-3.73-2.76-1.29-3.07,1.64-5.98,1.33,0,0-5.19-1.97-7.06-3.32-3.44-1.87-8.25-4.1-9.34-5.32-3.5-.66-29.84-15.47-44.76-22.91-1.6-1.34-2.47-6.29-5.62-7.95-.92-1.34-21.12-10.56-31.69-15.84-1.95-.73-3.47-1.34-4.85-1.17h0Z"/><path class="cls-48" d="M383.28,217.92c-.21.62-.73.21-.73.42-.41,2.18-.31,3.32-.83,4.57-.73,1.45-3.32,2.8-3.22,2.7-2.08.62-4.57,3.12-8.61.83-.21-.1-.42-.31-.62-.52,0,0,1.14,4.26-3.01,6.33-1.45.73-16.1,8.41-16.1,8.41,0,0-1.56,2.8-.52,6.65.11.62.31,1.14-.31,1.56-.93.72-2.7,2.8-3.74,6.13,0,0-3.12-1.35-3.12-3.32s1.25-3.01,1.56-4.47c.31-1.35,1.14-4.78.73-5.82-.41-1.14-2.28-1.56-3.01-1.97-.62-.42-1.45.41-1.35,1.35.11,1.04.83.83,1.66,1.04,0,0-.93,1.97-.83,3.42l-9.45,4.88s1.25,1.66,1.66,2.39c.41.73,1.35,10.39,4.15,14.96,2.8,4.57,3.74,3.32,4.36,3.95.52.52,1.35,1.35,2.08,1.97.73.52,3.94.83,4.57-.93.73-1.66,1.25-2.7,3.22-4.26,1.97-1.55,6.02-5.5,6.02-7.27,0,0,2.39,6.85,2.08,12.57,0,0,8.72,1.77,16.51,1.97,7.79.11,11.73-1.56,11.73-1.56,0,0,1.04-6.54.62-7.79,0,0,1.25,4.26,2.18,5.71,1.04,1.76,2.18,5.4,4.46,5.61,2.18.1,4.05-2.18,4.26-3.11v-6.86h8.83c0-.1,3.95,1.45,5.19,1.25,1.25-.1,1.97-1.25.83-1.66l-.41-.31c1.14,0,2.6.72,2.6.72h4.36c.11-.1,0-.42-.1-.52-.31-1.25-2.6-2.29-4.26-3.01-1.66-.62-3.53-1.35-4.78-1.45-1.97-.21-3.32-.1-6.34.42-.83.1-3.95.41-5.92,1.35-.52.31-1.04.42-.83-.93.31-1.46.21-8-1.35-10.8-1.14-1.97-1.04-3.64-.83-5.3.11-1.66.21-7.38,0-9.04-.31-1.66-2.6-3.95-6.75-4.47-3.95-.52-7.27-3.74-7.48-6.34-.31-2.59.42-7.37.83-9.45"/><path class="cls-30" d="M365.63,206.19c-.73,3.32-.73,6.23-.62,9.45.11,2.18,1.14,4.67,2.08,6.85.62,1.46,1.45,3.12,2.8,3.95,3.64,2.39,7.06-.21,9.04-1.04.93-.31,2.39-1.66,2.8-2.49.52-1.25.31-2.18.83-4.57-.11.1.83-.42.73-.42.93-1.56.73-2.08,1.25-3.12.52-1.04-.62-2.18-1.87-1.97.62-1.97,1.04-4.16.41-6.03-.21-.62.52-2.28-.62-1.87-4.67,1.87-10.18,1.46-15.16,1.46-.41,0-.73-.83-1.35-.72-.11,0-.21.31-.31.52"/><path class="cls-31" d="M365.22,207.95c-.52-.41-.62-1.35,0-3.32.73-1.97,0-2.08,1.14-3.22,1.14-1.14.83-1.66,1.56-1.97.72-.21,2.91-.21,3.63-.52.62-.31,1.56-.73,3.01-.93,1.56-.31,4.67-.21,6.13.62,1.56.83,2.6,2.91,3.53,3.63,1.04.72,1.66,3.74,1.46,8.1-.31,4.36-1.14,3.53-1.14,3.53,0,0-1.25-2.08-2.28-.31,0,0,0-1.66.21-2.91.1-1.24-.62-3.53.1-5.09,0,0-5.92,1.87-8.93,1.77-3.12-.21-7.47-.94-7.68-1.66l-.73,2.28"/><path class="cls-56" d="M368.23,204.33c-.31-.62-1.87-2.91-.62-3.63,1.14-.63.42,2.8,1.98,3.53,0,0-.52,1.56-1.35.1h0Z"/><path class="cls-7" d="M371.66,212.84c-.52,1.77-.73,2.18-.93,3.22M381.53,217.72c.21.62.41.31.93.41M382.87,214.08c.52-.62,1.25-.31.83,1.25"/><path class="cls-7" d="M365.63,210.35c.93.31,1.87.62,2.8,1.04,1.56.62.62,2.9.21,4.36-.21.73-1.04,1.97-.62,2.6.52.83,1.14.31,2.08.41,0-.31.62-.52.83-.52.73-.1,1.14.52,1.66.31.62-.31.52-1.25.31-1.77M372.8,212.22c.1-.41,1.04-.83,1.56-.93,2.18-.41,3.74-.73,5.5.52M374.04,223.12c-1.77.42-3.63.72-5.3-.21M368.75,222.09c.83-.42,1.14-.83,2.18-.31,0-.1,1.14-.41,1.14-.41.83,0,1.35.31,2.18.83M368.64,222.49c.93-.31,3.43-.31,5.51.1"/><path class="cls-28" d="M365.53,212.84c.73-.1,1.56-.93,3.22.31,1.14.73-1.87,1.46-1.35,1.35-1.35.21-1.77-.52-1.87-1.15,0-.21-.21-.52,0-.52h0ZM374.04,213.67c.73-1.46,1.87-1.14,2.91-.83,1.04.31.73.11,1.66.63-1.14.21-.83.31-1.66.72-.93.42-1.76.62-2.39.21-.21-.21-.73-.52-.73-.93,0,.1.1.21.21.21h0Z"/><path class="cls-51" d="M366.98,214.08c.41,0,.73-.41.73-.83,0-.52-.31-.93-.73-.93-.52,0-.83.42-.83.93,0,.42.31.83.83.83ZM375.81,214.29c.41,0,.73-.41.73-.93s-.42-.83-.83-.83-.73.31-.73.83.42.94.83.94h0Z"/><g id="a"><path class="cls-7" d="M420.15,267.46c-.62-.73-1.04-1.04-1.87-1.35-.62-.31-1.45-.72-2.08-1.04-.73-.42-1.77-.52-2.39-.93M414.23,266.84c-.31-.21-.52-.31-.83-.52-.31-.1-.73-.1-1.04-.21-.1,0-.1-.21-.21-.21-.93-.1-1.87-.52-2.49-1.35M345.59,255c.93.72,3.22,2.29,3.43,5.3.21,1.56,1.04,3.11,1.04,3.11M336.66,255.42c.52,1.76.62,7.58,6.13,13.71M337.7,247.32c-.42,1.14-.93,2.18.21,3.01M352.65,261.24c1.14-2.6,4.67-2.39,4.67-4.88"/><path class="cls-7" d="M357.85,260.92c-.31-2.91-.93-4.57-.41-8.83.21-1.25.41-6.02,0-8.31,0,0,1.66,7.99-3.74,9.56M388.79,266.12c0-4.05.93-6.34.93-6.34,1.25-5.71-1.14-7.89-.21-9.34.83-1.25,2.08-3.84.42-9.04,0,0,2.91,10.7-4.57,10.7s-7.27-2.8-7.27-2.8"/><path class="cls-7" d="M357.43,243.79c0,2.18,0,8.62,9.24,8.62,2.8,0,5.81-1.97,7.47-3.32M376.43,246.28c-.31-1.97-.31-4.47-.31-7.06M362.2,235.69c2.49-.31,4.47-.62,9.14-.62M371.66,228.62c.52,2.29-.31,5.92,3.95,6.44M380.07,227.79c-.62,1.66-.62,3.32-.83,4.47M379.44,235.07c1.77,0,5.09-1.14,9.24-.31M390.14,258.01c.83,1.66,1.04,3.84,3.63,6.34M361.38,252.72c.21,1.35-1.77,5.82-.31,9.45,1.35,3.63,1.14,7.79-1.14,11.32M366.68,254.07c-.83,1.66-2.28,3.32-2.6,4.78M370.82,257.19c0,1.04-2.8,8.93-4.78,11.11,0,0,3.63,1.45,3.11,6.75M376.64,253.55c0,1.35-.21,1.66.93,2.49M380.07,256.04c1.35,1.66,5.61,6.65,4.67,9.45M377.26,258.85c.31,1.04.31,6.44-.62,9.14M374.46,267.78c-1.14,0-2.8.83-3.12,2.8M380.27,267.46c1.14-.31,3.42,1.66,3.42,7.27M399.69,264.25c-2.18.62-3.12,1.77-2.49,1.14-1.14.93-2.18,1.56-2.18,1.56"/><path class="cls-51" d="M362.93,251.47c.62,0,1.14-.42,1.14-.93,0-.42-.52-.83-1.14-.83-.52,0-1.04.41-1.04.83,0,.52.52.94,1.04.94h0ZM386.51,251.79c.52,0,1.04-.41,1.04-.93s-.52-.83-1.04-.83c-.62,0-1.14.31-1.14.83s.52.94,1.14.94h0Z"/><path class="cls-36" d="M353.49,294.16c1.25-8.1,5.09-14.85,5.19-15.48,0,0,3.94.83,10.8,1.45,6.75.72,8.62.42,11.73.2,3.01-.31,6.96-.83,6.96-.83,0,0,1.25,2.49,1.35,4.98.31,5.3,2.28,28.25,2.49,34.38,0,0,.83,3.63.83,12.56,0,9.77,2.7,29.6,2.7,40.2l-2.7.52s-14.74,1.14-14.74-.83c0-2.18-.83-27.62,1.35-43,0,0-.52-3.01-1.35-5.61-.83-2.49-4.47-10.28-4.47-11.94,0,0-5.81,16.41-6.12,19.21-.31,2.6-1.14,39.15-1.66,42.17,0,0-8.41,6.44-9.55,7.06-1.14.52-9.24-3.43-9.45-4.47-.31-1.14.83-13.5,4.67-33.86,1.45-7.27.62-8.61.62-10.59s.11-28.04,1.35-36.14h0Z"/><path class="cls-7" d="M367.5,329.99c-.62,2.29-1.66,4.47-3.63,5.92M361.06,281.17c-.31,1.35-2.28,7.48-7.27,11.11M368.33,282.32c-1.14,3.64-5.61,23.16-6.44,46.32M361.58,335.91c-.21,2.18-1.35,18.38-1.66,21.19M359.09,360.21c-.52,1.14-2.8,10.59-2.8,19M389.2,342.56c-.21,1.97-1.04,15.99,3.63,28.56M373.94,283.36c-.31,2.28-.83,17.03-.83,18.17s1.66,2.8,2.49,3.12c0,0-1.66.52-1.97,6.13M369.47,297.58c-.31,1.76-1.97,8.72-3.12,11.53M379.75,283.15s4.98,1.04,5.3,0c0,0,1.66,30.12,3.95,46.84M377.58,286.99c0,1.97-.62,16.83-.62,16.83M379.44,306s1.97,2.8,1.45,4.15M362.73,281.49c1.66.52,3.12.83,3.12.83M371.14,283.98c-.31.83-.62,4.67-.62,4.67M379.44,328.33c.62.83,1.45,1.98.83,4.47"/><path class="cls-34" d="M357.95,278.48s0-3.32,1.25-4.99c0,0,3.53.73,8.51,1.25,5.09.52,9.14.93,12.88.52,3.74-.41,7.58-1.35,7.58-1.35,0,0,1.04,4.88.52,5.61,0,0-4.05.83-8.51,1.04-4.57.31-12.15-.42-14.74-.83-3.43-.42-6.44-1.04-7.48-1.25h0Z"/><path class="cls-35" d="M361.16,278.89l.62-4.98,1.04.1-.21,5.19-1.45-.31ZM383.7,274.73l.11,5.61,1.25-.21-.1-5.71-1.25.31ZM367.71,274.73l-.41,5.4h.73l.73-5.4h-1.04Z"/><path class="cls-32" d="M349.64,376.83c-.31,1.35-.83,3.22-1.04,5.61,0,.52-.52,3.32,1.04,3.43,1.14.1,1.45-2.91,1.45-2.91,0,0-1.04,3.32.31,3.74,1.87.41,2.08-3.64,2.08-3.64-.21,1.14-1.45,4.05.31,4.36,1.87.31,2.39-3.95,2.39-3.95,0,0-1.56,4.26.31,4.36,1.77.1,1.77-4.15,1.77-4.15,0,0-.94,5.09,1.56,4.67,1.35-.21,1.66-1.97,1.97-3.01.41-1.56,1.35-3.53.21-6.75-.83-2.39-.52-3.01-.52-3.01,0,0-2.91,2.18-5.19,3.63-1.04.62-6.65-2.39-6.65-2.39h0ZM379.96,372.36c-.52-.31-.41,1.87-.62,2.9-.1,1.04.21,3.32,3.74,3.12,3.42-.31,6.85-1.04,9.03-.52,2.18.62,5.4.73,7.17.73s2.91-.21,3.74-.52c.73-.31,2.29.42,3.01.42s1.87-1.14,1.77-1.87c-.1-1.35-1.35-1.35-3.12-1.45-1.66-.21-3.94-.52-5.09-.93-1.14-.42-3.22-1.56-5.82-2.08,0,0-4.98.21-6.02.21s-7.17.31-7.79,0h0Z"/></g><path class="cls-54" d="M328.14,243.16c-.52.31-1.14-2.08.41-3.01,0,0,.41-1.97,2.08-2.18,0,0,1.35-1.87,3.32-1.66,0,0,2.28-1.56,3.11-1.35.83.1,2.91,2.18,3.01,2.91.21.72,0,1.97-.52,2.49-.62.62-1.04-.1-1.14-.93,0,0,.42,1.56-.83,2.18-1.25.73-1.14.21-1.25-.62,0,0-.31,1.66-1.14,1.87-.83.31-1.35-.42-1.97-.42,0,0,1.04.83.31,1.46-.73.52-1.56.31-2.08-.1-.52-.52-1.14-1.87-3.32-.62h0Z"/><path class="cls-33" d="M338.32,239.33c-.52-1.66-2.18-3.12-4.15-2.91M336.45,240.88c-.31-.42-.42-.83-.73-1.25-.93-1.56-2.91-1.45-4.57-1.87M333.65,242.44c-.62-.41-.83-1.25-1.45-1.56-1.04-.42-2.08-.93-3.32-.73"/><path class="cls-32" d="M515.37,217.92c.73-.31.52.62.62.93.31,1.35.31,2.8.83,4.05.62,1.14.83,1.56,1.87,2.08,1.66.93,6.54,3.64,9.97,1.45.21-.1.52-.31.73-.52,0,0-1.25,4.26,3.01,6.34,1.35.72,15.99,8.41,15.99,8.41,0,0,1.56,2.8.62,6.65-.21.62-.41,1.14.21,1.56,1.04.72,2.7,2.8,3.84,6.13,0,0,3.01-1.35,3.01-3.32s-1.25-3.01-1.56-4.47c-.2-1.35-1.04-4.78-.62-5.82.41-1.14,2.18-1.56,2.91-1.98.73-.42,1.56.41,1.35,1.35-.1,1.04-.83.83-1.66,1.04,0,0,1.04,1.97.83,3.42l9.55,4.88s-1.25,1.66-1.66,2.39c-.52.73-1.45,10.39-4.26,14.96-2.81,4.57-3.74,3.32-4.26,3.95-.62.52-1.45,1.35-2.18,1.97-.62.52-3.84.83-4.57-.93-.73-1.66-1.25-2.7-3.22-4.26-1.97-1.55-6.02-5.5-6.02-7.27,0,0-2.39,6.86-2.08,12.57,0,0-8.62,1.77-16.51,1.98-7.79.1-11.74-1.56-11.74-1.56,0,0-1.04-6.54-.62-7.79,0,0-1.25,4.26-2.08,5.71-1.14,1.76-2.28,5.4-4.47,5.61-2.28.11-4.05-2.18-4.36-3.11v-6.86h-8.83c0-.1-3.84,1.45-5.19,1.25-1.25-.11-1.87-1.25-.83-1.66l.42-.31c-1.14,0-2.6.72-2.6.72h-4.36c0-.1.11-.42.11-.52.31-1.24,2.6-2.29,4.36-3.01,1.66-.62,3.43-1.35,4.67-1.45,1.97-.21,3.32-.1,6.34.42.83.1,4.05.42,5.92,1.35.52.31,1.14.41.83-.93-.31-1.46-1.25-5.71.31-8.52,1.04-1.97.93-3.63.83-5.3-.21-1.76-1.14-5.71-1.14-7.48,0-5.82,4.47-8.21,8.41-9.45,4.36-1.35,7.27-2.8,7.06-5.4-.11-2.7.62-7.17.21-9.25"/><path class="cls-32" d="M532.92,206.19c.93,3.43,1.14,4.26,1.14,5.4,0,1.25-.52,1.45-.11,2.81.73,2.49-.73,5.19-2.49,8.1-.83,1.35-1.45,3.12-2.8,3.95-3.43,2.18-7.58-.42-9.76-1.35-1.14-.52-1.77-1.35-2.08-2.18-.42-1.25-.52-2.39-.83-4.05,0-.31.11-1.25-.62-.93-1.25-1.45-1.04-2.08-1.55-3.11-.52-1.04.93-2.18,2.08-1.97-.62-1.97-.93-4.16-.31-6.03.21-.62-.52-2.28.52-1.87,4.67,1.87,10.18,1.46,15.16,1.46.41,0,.72-.83,1.35-.72.1,0,.2.31.31.52"/><path class="cls-31" d="M533.34,207.95c.52-.41.21-2.39-.31-4.47-.21-1.04-1.04-1.45-2.18-2.59-1.14-1.15-1.56-1.15-2.28-1.45-.62-.21-2.08-.21-2.8-.52-.62-.31-2.28-.11-3.84.1-2.08.31-3.22.21-4.78,1.04-1.56.83-2.8,1.77-3.32,3.32-.41,1.14-1.14,2.59-.83,6.96.21,4.36,1.04,3.53,1.04,3.53,0,0,1.14-1.66,1.87-.62,0,0-.11-2.29-.31-3.63-.11-1.25,0-2.8.52-4.67,0,0,4.77,1.77,9.24,1.77,3.12,0,7.17-.31,7.27-1.04l.72,2.28h0Z"/><path class="cls-7" d="M526.9,212.84c.62,1.77.11,1.25.42,2.39M516.83,217.3c0,.83-.62.62-1.04.62"/><path class="cls-7" d="M533.44,211.49c-.93-.73-2.7-.21-3.53.1-1.56.72-.73,2.29-.21,3.74.21.72,1.04,1.76.52,2.49-.41.83-.73.42-1.66.52.11-.31-.83,0-1.14,0-.62-.1-.93.41-1.45.21-.62-.31-.52-1.25-.31-1.77M525.76,212.22c0-.41-1.35-.83-2.8-.93-2.28-.1-2.49.11-4.26,1.35M530.43,221.77c-.41-.62-1.04-.93-2.18-.41,0-.21-1.56-.41-1.56-.41-.83,0-1.35.31-2.18.72M530.22,222.29c-.93-.62-3.32-.2-5.71-.2M524.72,222.91c1.77.52,3.53.83,5.3,0"/><path class="cls-29" d="M533.02,212.84c-.73-.1-1.04-.93-3.22.31-1.14.62,1.87,1.46,1.45,1.35,1.25.21,1.66-.52,1.77-1.15,0-.21.21-.52,0-.52h0ZM524.51,213.67c0-.83-1.87-1.14-2.91-.83-1.04.31-.62.11-1.56.63,1.04.21.73.31,1.56.72.93.42,1.14.83,2.39.21.31-.11.72-.52.83-.93-.1.1-.21.21-.31.21h0Z"/><path class="cls-51" d="M531.68,214.08c-.45,0-.82-.36-.83-.81,0,0,0-.02,0-.02,0-.52.31-.93.83-.93.41,0,.73.42.73.93,0,.42-.31.83-.73.83ZM522.75,214.29c-.41,0-.73-.41-.73-.93s.41-.83.83-.83.73.31.73.83-.31.93-.83.93Z"/><g id="a-2"><path class="cls-7" d="M478.44,267.46c.62-.73,1.04-1.04,1.87-1.35.62-.31,1.45-.72,2.08-1.04.73-.42,1.77-.52,2.39-.93M484.36,266.84c.31-.21.52-.31.83-.52.31-.1.73-.1,1.04-.21.1,0,.1-.21.21-.21.93-.1,1.87-.52,2.49-1.35M553,255c-.93.72-3.22,2.29-3.43,5.3-.21,1.56-1.04,3.11-1.04,3.11M561.93,255.42c-.52,1.76-.62,7.58-6.13,13.71M560.89,247.31c.42,1.14.93,2.18-.21,3.01M545.94,261.24c-1.14-2.6-4.67-2.39-4.67-4.88"/><path class="cls-7" d="M540.74,260.92c.31-2.91.93-4.57.41-8.83-.21-1.25-.41-6.02,0-8.31,0,0-1.66,7.99,3.74,9.56M509.8,266.11c0-4.05-.93-6.34-.93-6.34-1.25-5.71,1.14-7.89.21-9.34-.83-1.25-2.08-3.84-.42-9.04,0,0-2.91,10.7,4.57,10.7s7.27-2.8,7.27-2.8"/><path class="cls-7" d="M541.16,243.78c0,2.18,0,8.62-9.24,8.62-2.8,0-5.81-1.97-7.47-3.32M522.16,246.27c.31-1.97.31-4.47.31-7.06M536.38,235.69c-2.49-.31-4.47-.62-9.14-.62M526.93,228.61c-.52,2.29.31,5.92-3.95,6.44M518.52,227.79c.62,1.66.62,3.32.83,4.47M519.15,235.07c-1.77,0-5.09-1.14-9.24-.31M508.45,258.01c-.83,1.66-1.04,3.84-3.63,6.34M537.21,252.71c-.21,1.35,1.77,5.82.31,9.45-1.35,3.63-1.14,7.79,1.14,11.32M531.91,254.07c.83,1.66,2.28,3.32,2.6,4.78M527.77,257.18c0,1.04,2.8,8.93,4.78,11.11,0,0-3.63,1.45-3.11,6.75M521.95,253.55c0,1.35.21,1.66-.93,2.49M518.52,256.04c-1.35,1.66-5.61,6.65-4.67,9.45M521.33,258.85c-.31,1.04-.31,6.44.62,9.14M524.13,267.78c1.14,0,2.8.83,3.12,2.8M518.32,267.46c-1.14-.31-3.42,1.66-3.42,7.27M498.89,264.25c2.18.62,3.12,1.77,2.49,1.14,1.14.93,2.18,1.56,2.18,1.56"/><path class="cls-51" d="M535.66,251.47c-.62,0-1.14-.42-1.14-.93,0-.42.52-.83,1.14-.83.52,0,1.04.41,1.04.83,0,.52-.52.94-1.04.94h0ZM512.08,251.78c-.52,0-1.04-.41-1.04-.93s.52-.83,1.04-.83c.62,0,1.14.31,1.14.83s-.52.94-1.14.94h0Z"/><path class="cls-36" d="M545.1,294.15c-1.25-8.1-5.09-14.85-5.19-15.48,0,0-3.94.83-10.8,1.45-6.75.72-8.62.42-11.73.2-3.01-.31-6.96-.83-6.96-.83,0,0-1.25,2.49-1.35,4.98-.31,5.3-2.28,28.25-2.49,34.38,0,0-.83,3.63-.83,12.56,0,9.77-2.7,29.6-2.7,40.2l2.7.52s14.74,1.14,14.74-.83c0-2.18.83-27.62-1.35-43,0,0,.52-3.01,1.35-5.61.83-2.49,4.47-10.28,4.47-11.94,0,0,5.81,16.41,6.12,19.21.31,2.6,1.14,39.15,1.66,42.17,0,0,8.41,6.44,9.55,7.06,1.14.52,9.24-3.43,9.45-4.47.31-1.14-.83-13.5-4.67-33.86-1.45-7.27-.62-8.61-.62-10.59s-.11-28.04-1.35-36.14h0Z"/><path class="cls-7" d="M531.09,329.99c.62,2.29,1.66,4.47,3.63,5.92M537.53,281.17c.31,1.35,2.28,7.48,7.27,11.11M530.26,282.31c1.14,3.64,5.61,23.16,6.44,46.32M537.01,335.91c.21,2.18,1.35,18.38,1.66,21.19M539.5,360.21c.52,1.14,2.8,10.59,2.8,19M509.39,342.55c.21,1.97,1.04,15.99-3.63,28.56M524.65,283.35c.31,2.28.83,17.03.83,18.17s-1.66,2.8-2.49,3.12c0,0,1.66.52,1.97,6.13M529.12,297.58c.31,1.76,1.97,8.72,3.12,11.53M518.84,283.15s-4.98,1.04-5.3,0c0,0-1.66,30.12-3.95,46.84M521.01,286.99c0,1.97.62,16.83.62,16.83M519.15,305.99s-1.97,2.8-1.45,4.15M535.86,281.49c-1.66.52-3.12.83-3.12.83M527.45,283.98c.31.83.62,4.67.62,4.67M519.14,328.32c-.62.83-1.45,1.98-.83,4.47"/><path class="cls-34" d="M540.64,278.47s0-3.32-1.25-4.99c0,0-3.53.73-8.51,1.25-5.09.52-9.14.93-12.88.52-3.74-.41-7.58-1.35-7.58-1.35,0,0-1.04,4.88-.52,5.61,0,0,4.05.83,8.51,1.04,4.57.31,12.15-.42,14.74-.83,3.43-.42,6.44-1.04,7.48-1.25h0Z"/><path class="cls-35" d="M537.43,278.88l-.62-4.98-1.04.1.21,5.19,1.45-.31ZM514.89,274.73l-.11,5.61-1.25-.21.1-5.71,1.25.31ZM530.88,274.73l.41,5.4h-.73l-.73-5.4h1.04Z"/><path class="cls-32" d="M548.95,376.83c.31,1.35.83,3.22,1.04,5.61,0,.52.52,3.32-1.04,3.43-1.14.1-1.45-2.91-1.45-2.91,0,0,1.04,3.32-.31,3.74-1.87.41-2.08-3.64-2.08-3.64.21,1.14,1.45,4.05-.31,4.36-1.87.31-2.39-3.95-2.39-3.95,0,0,1.56,4.26-.31,4.36-1.77.1-1.77-4.15-1.77-4.15,0,0,.94,5.09-1.56,4.67-1.35-.21-1.66-1.97-1.97-3.01-.41-1.56-1.35-3.53-.21-6.75.83-2.39.52-3.01.52-3.01,0,0,2.91,2.18,5.19,3.63,1.04.62,6.65-2.39,6.65-2.39h0ZM518.62,372.36c.52-.31.41,1.87.62,2.9.1,1.04-.21,3.32-3.74,3.12-3.42-.31-6.85-1.04-9.03-.52-2.18.62-5.4.73-7.17.73s-2.91-.21-3.74-.52c-.73-.31-2.29.42-3.01.42s-1.87-1.14-1.77-1.87c.1-1.35,1.35-1.35,3.12-1.45,1.66-.21,3.94-.52,5.09-.93,1.14-.42,3.22-1.56,5.82-2.08,0,0,4.98.21,6.02.21s7.17.31,7.79,0h0Z"/></g><path class="cls-52" d="M568.95,246.9c.52.21,1.97-2.08.52-3.11,0,0-.52-1.97-2.18-2.08,0,0-1.35-1.97-3.32-1.66,0,0-2.18-1.56-3.01-1.45-.93.2-3.01,2.28-3.12,3.01-.1.62,0,1.87.52,2.49.62.52,1.04-.11,1.14-1.04,0,0-.41,1.56.83,2.29,1.25.72,1.14.1,1.25-.72,0,0,.31,1.66,1.14,1.97.83.31,1.35-.42,1.97-.42,0,0-1.04.83-.31,1.35.73.62,1.56.31,2.08-.11.62-.41.31-1.76,2.49-.52h0Z"/><path class="cls-50" d="M559.61,243.06c.52-1.77,2.28-3.22,4.15-2.91M561.58,244.62c.21-.42.31-.83.62-1.25.93-1.56,3.01-1.56,4.67-1.87M564.28,246.07c.62-.42.83-1.14,1.46-1.45,1.04-.52,2.18-.94,3.32-.73"/><path class="cls-16" d="M559.43,240.02c-.91.73-1.87,1.84-1.95,2.33-.11.62,0,1.87.51,2.49.56.47.97-.02,1.12-.8-.06.47-.07,1.5.86,2.04,1.25.72,1.14.1,1.25-.73,0,0,.32,1.67,1.15,1.98.83.31,1.35-.42,1.98-.42,0,0-1.05.82-.32,1.34.73.62,1.55.32,2.07-.1.62-.42.31-1.76,2.49-.51.27.11.82-.46,1.05-1.18l-7.85-5.64-2.36-.8Z"/><path class="cls-32" d="M557.77,241.47c-1.53,2.64.51,4.22,1.19,2.67-.2,2.43,1.64,2.34,2.33,1.57.67,2.56,1.87,1.42,2.97,1.19-1.25,2.34,1.51,1.64,2.16,1.1.94-1.39,1.38-.28,2.08-.42l1.19-1.27M561.54,240.49c-1.72.91-2.56,2.18-2.59,3.78M563.92,242.02c-1.72.91-2.56,2.18-2.59,3.78M566.85,244.01c-1.72.92-1.8,1.76-2.54,2.88"/><path class="cls-26" d="M449.33,434.16c23.36.21,37.18-8.31,44.76-13.4,17.76-11.94,21.5-12.36,24.4-12.15,3.32.32,8.2,1.46,8.41,4.37.31,4.47-6.96,6.44-11.11,6.44s-15.37-2.81-15.37-2.81l-2.91,1.98c1.97.94,24.72,8.51,29.08,1.35,4.46-7.27,8.93-19.01,8.93-19.01,0,0-4.98-8.93-16.1-8.93s-22.12,7.06-29.38,12.36c-7.27,5.3-16.41,12.57-40.71,12.57s-33.54-7.27-40.81-12.57c-7.27-5.3-18.17-12.36-29.28-12.36s-16.2,8.93-16.2,8.93c0,0,4.46,11.74,8.93,19.01,4.36,7.16,27.1-.42,29.07-1.35l-2.8-1.97s-11.21,2.8-15.37,2.8-11.53-1.97-11.21-6.44c.21-2.91,5.09-4.05,8.41-4.36,2.91-.2,6.65.21,24.4,12.15,7.58,5.09,21.4,13.29,44.86,13.4"/><path class="cls-26" d="M411.74,406.63s0-1.98-.31-4.88c-.41-3.74-2.59-4.67-4.36-4.15-1.14.41-3.43,3.22-3.43,3.22v.1c-1.03-.72-2.11-1.38-3.22-1.97.83-.94,5.61-3.84,6.75-3.84,1.04,0,15.37,5.81,19.94,9.76,1.14,1.04,1.97,7.48,1.35,9.55-7.68-1.97-12.67-4.88-16.72-7.68v-.1M404.88,421.18s-3.12,3.11-3.22,8.83c-.1,6.75,4.78,7.06,8,6.96,3.84-.11,6.96-2.28,6.85-9.45,0,0-6.34-2.7-11.63-6.34M486.82,406.63s.1-1.98.42-4.88c.41-3.74,2.49-4.67,4.26-4.15,1.14.41,3.43,3.22,3.43,3.22v.1c1.03-.72,2.11-1.38,3.22-1.97-.83-.94-5.6-3.84-6.64-3.84-1.14,0-15.47,5.81-20.04,9.76-1.04,1.04-1.87,7.48-1.35,9.55,7.79-1.97,12.67-4.88,16.72-7.68v-.1M493.67,421.18s3.12,3.11,3.22,8.83c.21,6.75-4.78,7.06-8,6.96-3.84-.11-6.85-2.28-6.85-9.45,0,0,6.34-2.7,11.63-6.34"/><path class="cls-20" d="M398.13,416.61s-11.11,2.8-15.26,2.8-11.53-1.97-11.21-6.44c.21-2.91,5.09-4.05,8.41-4.36,2.49-.21,5.71.1,18.07,7.99M500.43,416.61s11.11,2.8,15.37,2.8,11.42-1.97,11.11-6.44c-.21-2.91-5.09-4.05-8.41-4.36-2.49-.21-5.71.1-18.07,7.99M411.74,406.74c-1.13-.81-2.24-1.64-3.33-2.49-1.56-1.14-3.11-2.18-4.78-3.32,0,0,2.28-2.91,3.43-3.22,1.77-.62,3.95.31,4.36,4.05.31,2.91.31,4.99.31,4.99M404.16,436.03c1.98,1.14,4.15,1.04,5.51.94,3.84-.1,6.96-2.28,6.85-9.45,0,0,4.77,2.39,12.57,4.26,0,0,1.24,1.56,1.45,4.67.31,2.6-1.45,5.4-3.53,5.2,0,0-10.91-1.97-17.55-3.11-3.84-.73-5.3-2.49-5.3-2.49M486.82,406.74c1.14-.83,2.28-1.66,3.43-2.49,1.45-1.14,3.01-2.18,4.67-3.32,0,0-2.28-2.91-3.43-3.22-1.77-.62-3.84.31-4.26,4.05-.31,2.91-.42,4.99-.42,4.99M494.39,436.03c-1.97,1.14-4.16,1.04-5.51.94-3.84-.1-6.85-2.28-6.85-9.45,0,0-4.78,2.39-12.46,4.26,0,0-1.35,1.56-1.56,4.67-.21,2.6,1.56,5.4,3.53,5.2,0,0,11.01-1.97,17.55-3.11,3.84-.73,5.3-2.49,5.3-2.49"/><path class="cls-9" d="M449.33,434.16c23.37.21,37.18-8.31,44.76-13.4,17.76-11.94,21.5-12.36,24.4-12.15,3.32.31,8.21,1.45,8.41,4.36.31,4.47-6.96,6.44-11.11,6.44s-15.37-2.8-15.37-2.8l-2.91,1.97c1.97.94,24.71,8.52,29.07,1.35,4.47-7.27,8.93-19.01,8.93-19.01,0,0-4.98-8.93-16.1-8.93s-22.12,7.06-29.39,12.36c-7.27,5.3-16.4,12.57-40.71,12.57s-33.54-7.27-40.81-12.57c-7.27-5.3-18.18-12.36-29.28-12.36s-16.2,8.93-16.2,8.93c0,0,4.46,11.74,8.93,19.01,4.36,7.17,27.1-.41,29.07-1.35l-2.8-1.97s-11.22,2.8-15.37,2.8-11.53-1.97-11.22-6.44c.21-2.91,5.09-4.05,8.41-4.36,2.91-.21,6.64.21,24.4,12.15,7.58,5.09,21.39,13.3,44.86,13.4h0Z"/><path class="cls-9" d="M398.13,416.61s-11.11,2.8-15.26,2.8-11.53-1.97-11.22-6.44c.21-2.91,5.09-4.05,8.41-4.36,2.49-.21,5.71.1,18.07,7.99h0ZM500.41,416.61s11.11,2.8,15.37,2.8,11.42-1.97,11.11-6.44c-.21-2.91-5.09-4.05-8.41-4.36-2.49-.21-5.71.1-18.07,7.99h0ZM411.74,406.74c-1.13-.81-2.24-1.64-3.33-2.49-1.55-1.14-3.11-2.18-4.78-3.32,0,0,2.29-2.91,3.43-3.22,1.77-.62,3.94.31,4.36,4.05.32,2.9.32,4.98.32,4.98h0Z"/><path class="cls-9" d="M411.74,406.63s0-1.97-.31-4.88c-.41-3.74-2.59-4.67-4.36-4.15-1.14.41-3.43,3.22-3.43,3.22v.1c-1.03-.72-2.11-1.38-3.22-1.97.83-.94,5.61-3.84,6.75-3.84,1.04,0,15.37,5.81,19.94,9.76,1.14,1.04,1.97,7.48,1.35,9.56-7.69-1.98-12.67-4.88-16.72-7.69M404.88,421.18s-3.11,3.11-3.22,8.83c-.1,6.75,4.78,7.06,8,6.96,3.84-.11,6.96-2.28,6.86-9.45,0,0-6.34-2.7-11.63-6.34h0Z"/><path class="cls-9" d="M407.48,422.73s-2.49,2.6-2.91,6.85c-.21,3.32,1.97,5.19,4.78,4.98,3.94-.2,5.51-5.61,3.63-8.62l-5.51-3.22Z"/><path class="cls-9" d="M404.15,436.03c1.97,1.14,4.15,1.04,5.5.94,3.84-.11,6.96-2.29,6.86-9.45,0,0,4.78,2.39,12.57,4.26,0,0,1.25,1.56,1.45,4.67.31,2.6-1.45,5.4-3.53,5.19,0,0-10.91-1.97-17.55-3.11-3.84-.73-5.3-2.49-5.3-2.49h0ZM486.82,406.74c1.14-.83,2.28-1.66,3.43-2.49,1.45-1.14,3.01-2.18,4.68-3.32,0,0-2.28-2.91-3.43-3.22-1.77-.62-3.84.31-4.26,4.05-.18,1.66-.32,3.32-.42,4.98h0Z"/><path class="cls-9" d="M486.82,406.63s.1-1.97.42-4.88c.41-3.74,2.49-4.67,4.26-4.15,1.14.41,3.43,3.22,3.43,3.22v.1c1.04-.72,2.11-1.38,3.22-1.97-.83-.94-5.61-3.84-6.65-3.84-1.14,0-15.47,5.81-20.04,9.76-1.04,1.04-1.87,7.48-1.35,9.56,7.79-1.98,12.67-4.88,16.72-7.69M493.67,421.18s3.12,3.11,3.22,8.83c.21,6.75-4.78,7.06-8,6.96-3.84-.11-6.85-2.28-6.85-9.45,0,0,6.33-2.7,11.63-6.34h0Z"/><path class="cls-9" d="M491.08,422.73s2.49,2.6,2.91,6.85c.31,3.32-1.98,5.19-4.78,4.98-3.95-.2-5.4-5.61-3.63-8.62l5.5-3.22Z"/><path class="cls-9" d="M494.39,436.03c-1.97,1.14-4.16,1.04-5.51.94-3.84-.11-6.85-2.29-6.85-9.45,0,0-4.78,2.39-12.46,4.26,0,0-1.35,1.56-1.56,4.67-.21,2.6,1.56,5.4,3.53,5.19,0,0,11.01-1.97,17.54-3.11,3.84-.73,5.3-2.49,5.3-2.49h0Z"/><path class="cls-10" d="M428.25,433.64s3.43,2.5-.73,5.61M417.97,431.98l10.49,4.57M419.73,434.36l7.68,3.32M422.44,432.4l5.81,2.6M470.41,433.64s-3.53,2.5.62,5.61M480.58,431.98l-10.49,4.57M478.92,434.36l-7.68,3.32M476.12,432.4l-5.71,2.6"/><path class="cls-43" d="M387.19,401.69c.15.24.24.49.29.75.04.26.03.56-.03.88-.13.74-.58,1.38-1.23,1.75-.67.4-1.45.51-2.3.34-.4-.07-.8-.21-1.16-.41-.34-.17-.66-.38-.94-.63-.11.14-.24.26-.35.4l-.5-.09c.16-1.01.32-2.01.48-3.01.16.03.33.06.51.1.03.39.1.74.18,1.07.08.33.21.64.39.94.17.28.38.52.65.72.26.2.58.34.96.41.29.06.54.07.78.03.23-.03.42-.1.58-.21.16-.11.29-.25.39-.43.1-.17.17-.37.21-.61.06-.35.03-.71-.11-1.03-.14-.34-.4-.63-.77-.86-.29-.18-.57-.36-.86-.53-.29-.17-.56-.35-.84-.54-.46-.32-.79-.67-1-1.1-.21-.41-.26-.91-.15-1.49.06-.32.19-.62.38-.89.2-.27.45-.49.73-.66.29-.17.62-.29.95-.35.35-.05.71-.05,1.07.02.41.08.77.21,1.06.39.3.19.57.38.8.6l.34-.37c.17.03.33.06.5.1l-.5,2.91c-.17-.04-.34-.06-.51-.1-.03-.34-.07-.68-.12-1.01-.06-.31-.16-.62-.29-.91-.13-.27-.32-.51-.55-.7-.23-.19-.53-.32-.91-.39-.37-.08-.76-.01-1.08.19-.32.2-.52.47-.59.84-.07.38-.04.71.09.99.13.29.35.54.66.77.28.2.56.38.83.54.27.16.53.33.79.5.23.15.45.32.66.5.2.18.37.38.5.59M399.93,403.48c-.16-.07-.32-.14-.49-.19-.19-.07-.39-.1-.59-.09-.17.01-.35.14-.55.38-.23.29-.44.6-.61.93-.62,1.13-1.25,2.26-1.87,3.39-.24.43-.54.75-.9.97-.35.22-.74.35-1.15.39-.4.04-.79.01-1.16-.08-.35-.09-.69-.22-1-.39-.47-.26-.87-.55-1.17-.88-.3-.33-.53-.67-.66-1.02-.13-.33-.19-.68-.17-1.03.02-.33.11-.65.28-.94l2.55-4.61c.06-.11.1-.23.12-.36,0-.11-.05-.24-.13-.38-.08-.12-.18-.23-.29-.32-.13-.11-.23-.19-.33-.25l.21-.39c1.1.61,2.2,1.21,3.3,1.82l-.22.39c-.14-.06-.28-.12-.42-.16-.13-.05-.26-.09-.39-.11-.15-.02-.28,0-.37.09-.1.08-.19.18-.25.3-.79,1.44-1.59,2.88-2.38,4.31-.12.22-.22.45-.29.69-.08.26-.11.53-.08.79.03.28.14.55.32.82.18.27.49.52.92.75.4.23.79.35,1.13.38.34.02.66-.02.93-.14.25-.1.47-.26.66-.44.18-.18.33-.38.45-.6l1.77-3.2c.22-.41.38-.76.46-1.05.09-.29.09-.5.02-.65-.08-.17-.22-.34-.41-.51-.15-.14-.3-.26-.47-.37l.21-.39c1.08.59,2.16,1.19,3.24,1.78l-.21.39M404.51,411.41c.14.28.22.59.23.93,0,.33-.09.67-.3,1.03-.2.36-.46.62-.78.8-.31.17-.65.27-1,.3-.35.03-.71,0-1.05-.1-.36-.09-.71-.24-1.04-.42l-3.71-2.14.22-.39c.09.05.23.1.41.17.18.08.32.12.41.13.13.02.25,0,.36-.07.11-.07.2-.17.26-.29,1.07-1.85,2.13-3.7,3.2-5.55.07-.11.11-.23.13-.36,0-.13-.04-.27-.12-.37-.08-.13-.18-.24-.3-.34-.12-.1-.22-.19-.31-.25.07-.13.15-.26.22-.38,1.2.69,2.41,1.38,3.61,2.08.28.16.53.34.76.54.22.2.41.44.56.71.14.25.23.53.24.83.01.3-.07.61-.24.92-.14.25-.33.47-.57.63-.22.16-.47.26-.73.31-.26.05-.53.06-.79.03-.29-.02-.57-.08-.84-.18l-.03.05c.21.16.43.35.66.6.23.25.41.51.54.79h0ZM403.85,409.48c.22-.07.41-.19.58-.35.18-.18.33-.39.46-.61.24-.43.32-.83.22-1.2-.09-.38-.4-.72-.9-1.01-.11-.07-.26-.15-.44-.25-.18-.1-.34-.18-.45-.24l-1.71,2.97c.23.13.46.27.7.4.3.18.58.29.84.33.26.04.5.04.72-.05h0ZM403.2,412.38c.26-.42.32-.92.18-1.39-.14-.48-.5-.87-1.08-1.21-.2-.11-.4-.23-.6-.34-.16-.09-.29-.15-.37-.19l-1.57,2.72c-.13.2-.14.47-.02.68.12.23.35.43.69.62.54.32,1.06.4,1.53.25.47-.15.88-.53,1.24-1.15h0ZM423.3,416.97c-.17-.06-.34-.1-.51-.13-.2-.05-.4-.06-.6-.03-.17.03-.34.18-.51.43-.2.31-.37.64-.51.98l-1.53,3.56c-.19.45-.46.81-.79,1.06-.33.25-.71.42-1.11.5-.38.08-.78.09-1.17.03-.36-.05-.71-.15-1.04-.28-.45-.19-.88-.44-1.25-.76-.34-.3-.59-.61-.76-.95-.16-.31-.25-.66-.27-1.01-.01-.33.05-.66.18-.97l2.08-4.84c.05-.12.08-.24.08-.37-.02-.13-.08-.26-.17-.36-.09-.11-.2-.21-.32-.3-.14-.09-.25-.17-.35-.22.06-.14.12-.28.17-.41l3.46,1.48c-.06.14-.12.27-.18.41-.14-.05-.29-.09-.43-.12-.13-.04-.27-.06-.4-.07-.15,0-.27.03-.36.12-.09.09-.17.2-.22.32-.65,1.51-1.29,3.02-1.94,4.53-.1.23-.17.47-.22.71-.06.26-.06.54,0,.8.06.28.19.53.4.78.21.24.54.47.99.66.43.19.82.27,1.17.27.34-.01.65-.08.91-.24.25-.14.46-.31.62-.51.16-.2.29-.41.39-.64l1.44-3.36c.18-.43.3-.79.36-1.09.05-.3.04-.51-.05-.65-.09-.16-.25-.31-.46-.46-.16-.12-.33-.23-.5-.33l.17-.4,3.39,1.45c-.06.13-.12.27-.18.4M433.07,428.45l-3.83-1.11.12-.43c.14.04.32.07.55.11.22.04.38.05.48.03.13-.03.25-.1.36-.19.09-.1.16-.21.19-.34l1.8-6.23s-.06-.02-.09-.03c-1.68,2.16-3.39,4.28-5.07,6.44-.1-.03-.2-.06-.3-.09-.2-2.76-.46-5.51-.67-8.26-.03,0-.05-.02-.08-.02-.49,1.7-.99,3.41-1.48,5.11-.14.49-.22.87-.23,1.15-.02.28.03.49.13.64.06.11.23.24.49.4.26.16.43.25.51.28l-.12.43-3.5-1.01.13-.43c.19.04.39.06.61.08.21.02.38,0,.52-.06.17-.07.32-.21.45-.43.12-.22.26-.6.41-1.14l1.27-4.38c.07-.25.1-.47.09-.65-.01-.17-.06-.33-.15-.47-.1-.15-.24-.28-.4-.37-.16-.11-.34-.19-.52-.25l.12-.43,2.95.86c.19,2.38.44,4.77.63,7.15,1.21-1.6,2.46-3.17,3.67-4.76.14-.18.27-.36.38-.57.08-.13.15-.27.21-.41.94.27,1.89.54,2.83.82l-.12.43c-.15-.03-.3-.05-.45-.07-.14-.02-.28-.03-.42-.02-.14,0-.26.06-.35.16-.08.1-.14.22-.18.35l-1.79,6.17c-.04.12-.05.25-.03.38.03.13.11.25.21.33.06.06.18.14.36.22.18.09.32.15.43.19-.04.14-.08.28-.13.43M442.35,425.63c.24.21.43.46.56.77s.18.66.13,1.06c-.04.38-.18.73-.4,1.04-.22.27-.49.5-.8.66-.32.16-.66.27-1.01.32-.37.05-.75.06-1.13.01-1.41-.18-2.83-.36-4.24-.53l.05-.44c.1,0,.25,0,.45,0,.2,0,.34-.02.43-.04.12-.03.23-.1.31-.2.07-.11.12-.23.13-.36.26-2.12.53-4.24.8-6.36.02-.13,0-.26-.02-.38-.05-.13-.14-.23-.26-.3-.13-.08-.26-.15-.41-.2-.16-.05-.28-.09-.38-.11l.05-.44,4.14.52c.32.04.62.11.91.21.28.1.54.24.79.43.23.18.42.4.54.67.12.27.17.58.12.94-.05.56-.36,1.07-.83,1.38-.22.15-.46.25-.72.33-.27.09-.56.14-.85.17v.06c.24.06.52.16.83.3.3.14.57.31.79.51h0ZM440.99,424.1c.18-.16.32-.34.4-.54.09-.24.16-.49.18-.75.06-.48-.03-.88-.26-1.19-.23-.32-.64-.5-1.22-.58-.17-.02-.34-.04-.5-.06l-.52-.05c-.14,1.14-.28,2.27-.43,3.4l.8.1c.3.05.61.04.91-.02.25-.06.47-.16.64-.32h0ZM441.51,427.04c.06-.52-.06-.97-.37-1.35-.31-.38-.8-.61-1.47-.7-.23-.03-.45-.06-.68-.08-.19-.02-.32-.03-.42-.04-.13,1.04-.26,2.08-.39,3.12-.04.24.05.48.24.63.2.16.49.26.87.31.62.08,1.13-.03,1.5-.36.38-.33.61-.83.7-1.53h0ZM453.67,429.84h-2.44c-.53-.84-1.03-1.55-1.45-2.16-.44-.61-.91-1.22-1.42-1.87h-.92v2.83c0,.14.03.28.07.38.05.11.15.2.3.26.07.03.21.05.4.08.19.02.35.04.48.04v.45h-3.82v-.45c.1,0,.25-.02.45-.04.14-.01.27-.04.4-.08.12-.05.22-.13.28-.24.06-.12.09-.26.08-.4v-6.44c0-.14-.02-.28-.06-.39-.05-.11-.14-.2-.3-.25-.13-.05-.27-.08-.41-.1-.14-.03-.29-.05-.43-.06v-.45h4.17c.38,0,.74.03,1.08.11.34.08.64.2.91.38.26.17.48.38.63.65.16.27.24.59.24.98,0,.35-.05.65-.16.91-.11.26-.27.49-.47.68-.2.19-.43.35-.69.47-.28.14-.58.25-.88.34.44.59.82,1.07,1.11,1.47.29.4.66.88,1.08,1.45.25.36.57.65.96.85.11.06.25.1.41.12.17.03.31.05.41.05,0,.15,0,.3,0,.45h0ZM450.32,423.2c0-.54-.16-.96-.47-1.29-.31-.32-.76-.47-1.33-.47h-1.08v3.82h.83c.59,0,1.08-.18,1.46-.55.38-.38.59-.87.59-1.51h0ZM464.07,429.18l-3.75.29c0-.15-.02-.3-.03-.45.33-.04.6-.1.82-.19.21-.08.31-.16.31-.26,0-.04-.02-.08-.02-.14,0-.05-.02-.1-.05-.14-.3-.65-.6-1.29-.9-1.93l-3.16.24c-.1.3-.17.56-.23.79-.06.23-.11.43-.16.62-.04.15-.06.3-.08.45-.01.12-.02.21-.01.28.01.17.15.28.43.36.27.07.58.1.91.1l.03.45-3.39.26c-.01-.15-.02-.3-.03-.45.14-.02.27-.06.41-.1.14-.04.27-.11.39-.19.16-.13.28-.25.37-.39.1-.16.18-.34.23-.53.36-1.15.78-2.44,1.21-3.87.43-1.43.84-2.7,1.18-3.82l.51-.04c1.18,2.49,2.4,4.95,3.58,7.43.08.16.16.28.24.38.09.1.21.19.36.27.1.05.23.09.39.12.16.03.29.04.4.04.01.15.03.3.03.45h0ZM460.17,425.82c-.53-1.11-1.09-2.22-1.63-3.34-.35,1.18-.73,2.36-1.08,3.54l2.71-.21ZM476.88,418.79l-.45.12c-.17-.3-.45-.58-.82-.88-.37-.29-.69-.42-.95-.39-.15.02-.31.05-.46.09-.18.04-.38.09-.6.15l-1.46.4c.31,1.15.62,2.31.93,3.45.33-.09.67-.18,1-.27.3-.08.53-.17.68-.29.15-.11.26-.24.35-.4.06-.11.1-.28.11-.48.02-.21,0-.43-.03-.64l.46-.13c.31,1.13.61,2.26.92,3.38-.15.04-.31.08-.46.13-.08-.2-.17-.39-.29-.57-.14-.2-.26-.35-.37-.43-.16-.12-.35-.18-.54-.19-.24,0-.47.04-.7.1l-1,.27.8,2.96c.03.13.09.24.18.34.08.09.19.14.35.17.07.02.21.01.43,0,.21-.01.38-.04.48-.06l.12.43-3.78,1.03-.12-.43c.12-.04.28-.1.48-.17.19-.08.32-.13.38-.18.1-.08.17-.18.2-.31.03-.13.02-.27-.02-.4l-1.68-6.21c-.04-.12-.09-.24-.16-.34-.07-.09-.19-.14-.35-.17-.16-.02-.32-.03-.48-.02-.16,0-.32.02-.47.05l-.12-.43,6.83-1.85.58,2.16M486.94,418.02c.33.82.65,1.65.98,2.47l-6.36,3.07-.19-.4c.09-.05.21-.13.38-.24.16-.1.27-.18.32-.24.09-.09.14-.21.15-.34,0-.14-.04-.27-.1-.39-.92-1.91-1.85-3.83-2.77-5.75-.06-.12-.13-.22-.23-.31-.11-.08-.24-.12-.38-.11-.15,0-.29,0-.43.04-.15.02-.29.06-.43.11-.06-.13-.13-.27-.19-.4l3.43-1.66.19.4c-.13.07-.26.16-.38.25-.12.08-.23.17-.33.27-.1.09-.16.22-.15.36,0,.13.03.26.1.38l2.6,5.39c.12.24.22.43.32.56.08.12.19.2.33.24.11.03.27.01.45-.06.19-.06.43-.17.75-.32.14-.07.28-.14.44-.22.15-.08.28-.17.41-.25.12-.09.23-.18.32-.28.08-.07.14-.16.18-.27.07-.25.13-.6.17-1.06.03-.45.05-.8.02-1.06l.41-.19M491.7,409.19c.57.16,1.1.43,1.56.8.51.42.94.92,1.28,1.49.36.61.58,1.22.68,1.83.1.61.06,1.2-.07,1.76-.14.54-.38,1.05-.71,1.5-.34.46-.77.85-1.27,1.13-.54.32-1.1.52-1.68.58-.58.06-1.14.03-1.68-.14-.56-.17-1.08-.44-1.53-.82-.49-.4-.91-.89-1.23-1.43-.34-.57-.58-1.19-.69-1.85-.09-.58-.07-1.18.06-1.75.14-.55.38-1.06.72-1.51.34-.46.76-.83,1.26-1.13.52-.31,1.06-.5,1.63-.57.56-.08,1.12-.05,1.66.1h0ZM494.09,415.12c0-.47-.06-.94-.21-1.38-.17-.51-.4-1.01-.68-1.47-.29-.49-.62-.95-1.01-1.36-.32-.35-.71-.63-1.13-.85-.37-.18-.77-.28-1.18-.27-.4,0-.8.13-1.19.36-.44.26-.75.57-.94.96-.19.38-.29.81-.28,1.24,0,.43.09.87.25,1.35.16.48.38.95.66,1.42.28.47.6.92.97,1.32.34.36.71.64,1.1.85.39.2.78.29,1.19.3.4,0,.82-.11,1.24-.36.37-.22.68-.53.9-.9.21-.37.31-.79.32-1.21h0ZM505.29,409.04c-.66.47-1.33.94-1.99,1.41-.91-.38-1.73-.67-2.43-.92-.71-.25-1.46-.47-2.24-.71-.26.18-.5.36-.76.54l1.63,2.31c.08.11.18.2.28.27.11.07.24.07.4.04.13-.04.26-.1.38-.16.17-.09.31-.17.42-.25l.26.37c-1.04.74-2.07,1.47-3.11,2.21-.09-.12-.17-.24-.26-.36.08-.06.19-.16.34-.29.11-.09.2-.19.28-.3.07-.1.1-.23.09-.35-.02-.14-.08-.27-.16-.37-1.24-1.75-2.49-3.51-3.73-5.26-.07-.11-.17-.2-.28-.28-.1-.07-.23-.08-.39-.04-.28.08-.54.2-.79.36l-.26-.37c1.13-.8,2.27-1.6,3.4-2.41.29-.21.61-.39.94-.53.3-.13.63-.2.96-.22.31-.02.61.04.89.17.29.13.54.35.76.66.19.25.32.53.4.84.07.28.07.55.02.83-.06.27-.16.53-.29.78-.15.28-.33.54-.53.79.7.23,1.29.4,1.76.55.46.16,1.05.33,1.72.56.41.15.84.2,1.27.14.14-.02.28-.07.41-.14.15-.07.28-.14.37-.2.08.12.17.24.26.37h0ZM498.73,405.56c-.31-.44-.69-.69-1.13-.78-.44-.08-.89.05-1.36.38l-.88.63c.74,1.04,1.47,2.08,2.21,3.12l.68-.48c.48-.34.78-.77.87-1.3.1-.53-.02-1.05-.39-1.57h0ZM512.73,403.43c.25.84.5,1.68.75,2.52l-7.03,2.61c-.05-.14-.1-.28-.16-.42.12-.05.28-.12.46-.23.19-.1.31-.17.36-.22.09-.09.16-.2.18-.33.01-.13,0-.27-.06-.39-.74-2-1.48-4-2.23-6.01-.04-.12-.11-.23-.19-.32-.08-.08-.2-.12-.37-.14-.12-.01-.29,0-.48.03-.16.01-.31.04-.46.09-.05-.14-.11-.28-.15-.42l6.55-2.43.74,2.02c-.15.06-.3.11-.45.17-.19-.28-.49-.52-.87-.76-.4-.24-.71-.33-.96-.27-.13.03-.28.07-.45.13-.18.06-.37.13-.59.21l-1.33.49,1.23,3.32c.32-.12.63-.24.96-.36.3-.11.52-.22.64-.34.12-.11.21-.26.26-.42.05-.18.07-.36.06-.55,0-.2-.03-.39-.08-.58.15-.05.3-.11.45-.17.4,1.09.81,2.18,1.21,3.28-.15.06-.3.11-.45.17-.1-.2-.21-.38-.35-.56-.15-.18-.28-.31-.39-.37-.16-.1-.34-.15-.53-.14-.22.02-.44.07-.65.16l-.96.36c.31.84.62,1.67.93,2.51.09.25.19.44.28.57.07.12.19.21.33.25.13.04.29.03.48-.01.19-.05.45-.13.78-.25.13-.05.3-.11.52-.19.18-.06.36-.14.53-.23.14-.07.3-.16.44-.26.14-.11.24-.2.28-.3.12-.26.21-.62.26-1.07.05-.46.09-.78.07-.98.14-.06.28-.11.43-.16M520.29,397.24c.46.37.84.83,1.12,1.35.29.56.49,1.17.58,1.87.1.65.07,1.31-.09,1.95-.14.58-.4,1.12-.75,1.59-.33.45-.75.81-1.24,1.1-.49.29-1.04.47-1.61.54-.63.08-1.21.05-1.77-.12-.56-.17-1.06-.41-1.49-.78-.45-.37-.82-.83-1.08-1.35-.3-.56-.49-1.17-.57-1.8-.1-.66-.07-1.33.09-1.97.15-.57.4-1.11.75-1.58.69-.92,1.72-1.51,2.86-1.65.57-.08,1.16-.04,1.72.11.54.15,1.05.4,1.48.75h0ZM520.17,403.64c.19-.43.31-.89.35-1.36.04-.54.02-1.08-.06-1.62-.07-.56-.2-1.11-.4-1.65-.16-.44-.39-.86-.7-1.22-.27-.31-.6-.56-.98-.71-.39-.15-.82-.2-1.24-.14-.51.07-.92.23-1.24.52-.33.28-.58.63-.74,1.03-.15.39-.27.84-.3,1.34-.04.52-.03,1.05.04,1.57.08.59.21,1.13.38,1.59.16.47.41.87.68,1.21.27.34.6.57.97.74.37.16.8.21,1.28.15.43-.05.83-.21,1.17-.47.34-.26.6-.6.77-.99h0Z"/><path class="cls-5" d="M415.02,267.47h68.59M489.22,267.47h9.64v56.39c0,11.21-1.56,55.88-49.53,73.22-48.08-17.35-49.64-62-49.64-73.22v-56.39h9.71"/><path class="cls-59" d="M442.77,120.86c-3.72.03-7.84,1.82-12.06,6.35h0c10.17-2.98,14.66,3.76,18.9,8.07-12.32.02-24.6,1.38-36.62,4.07-3.93-8.7-17.84-19.28-28.64-3.26,9.84-4.65,15.37,1.8,20.34,5.34-10.08,2.81-19.88,6.56-29.26,11.21-.03-.07-.05-.16-.09-.22-4.06-7.75-25.17-17.21-30.14,4.19,10.41-10.8,20.76,1.14,26.93-2.29-9.43,4.93-18.38,10.74-26.71,17.36-.04-.05-.08-.13-.12-.18-5.64-6.7-28.32-11.44-28.53,10.53,7.67-12.51,20-3.71,25.47-7.75-8.89,7.42-17,15.72-24.2,24.79-.13-.14-.25-.32-.38-.45-6.29-6.11-29.33-8.56-27.32,13.31,6.54-13.57,20.28-5.21,24.98-10.61-.72.82-1.09,1.86-1.29,3.03-6.67,9.11-12.4,18.87-17.11,29.13-7.76-4.15-30.51-.3-22.62,20.18h0c2.59-14.82,18.1-10.46,21.15-16.92-.03.07-.04.14-.07.21-4.73,10.95-8.27,22.37-10.56,34.07-9.56.23-25.16,9.28-13.85,25.32-.81-10.81,7.3-13.59,12.42-16.91-1.15,7.99-1.73,16.06-1.73,24.13,0,2.43.06,4.85.16,7.25-8.63,3.75-19.97,19.44-2.07,29.22-5.06-8.56-.44-14.33,2.78-19.26,1.07,10.49,3.12,20.85,6.14,30.96-8.08,5.2-16.32,19.76.67,28.3-5.42-8.48-.83-14.45,2.21-19.52,3.66,10.16,8.28,19.94,13.82,29.21-6.48,7.01-10.77,24.2,8.56,27.45-7.88-6.65-5-13.87-3.64-19.68,6.37,9.44,13.68,18.21,21.81,26.19-6.11,7.29-9.48,25.06,10.22,27.02-9.49-6.96-5.02-15.65-4.66-21.8,9.58,8.59,20.1,16.05,31.37,22.25-1.72,9.4,3.38,25.43,21.32,18.88-9.7-1.79-11.15-8.89-12.76-14.5,11.21,5.35,22.98,9.43,35.09,12.17-.17,9.52,6.29,22.9,22.68,15.63-9.97-1.16-11.8-8.36-13.83-13.89,9.38,1.6,18.88,2.4,28.4,2.4,1.84,0,3.67-.04,5.5-.1,2.08,9.32,13.14,22.21,27.1,9.13-10.59,2.36-14.54-5.06-18.57-9.62,12.47-1.02,24.78-3.44,36.71-7.21,5.76,7.66,19.75,14.56,27.9-1.77-7.93,5.09-13.75,1.47-18.66-1.45,9.71-3.7,19.05-8.3,27.91-13.74,7.19,5.86,27.39,8.39,27.09-12.31-5.24,9.04-13.08,7.34-19.13,7.1,9.67-6.72,18.61-14.43,26.68-23,8.46,4.52,25.89,4.54,24.73-14.65-4.81,9.25-12.71,7.93-18.76,7.96,7.59-8.97,14.23-18.71,19.8-29.06,9.41,1.6,26.62-4.4,18.45-22.31h0c-1.14,10.09-8.64,11.82-14.23,13.91,5.23-11.19,9.2-22.92,11.85-34.98,9.4-2.04,22.42-12.95,9.34-26.84,1.93,8.78-3.01,12.92-7.38,16.37,1.3-8.5,1.95-17.09,1.95-25.69,0-1.2-.02-2.4-.05-3.59,9.16-2.93,21.1-15.11,6.65-27.66,3.15,9.6-2.86,14.25-7.08,18.44-.72-9.49-2.24-18.9-4.55-28.13,8.08-4.81,17.3-21.79-1.69-29.23,6.5,8.35,1.74,14.96-.76,20.45-3.04-9.81-6.97-19.32-11.75-28.41,6.83-6.62,12.02-24.03-7.43-27.93,7.74,6.96,4.49,14.16,2.96,19.95-5.14-8.61-11.03-16.74-17.61-24.3,3.62-8.86,1.95-25.52-16.93-22.81,7.98,3.28,8.89,9.24,9.27,14.58-6.69-6.73-13.94-12.89-21.66-18.4,2.61-9.02-2.12-27.45-21.09-20.34h0c10.06,1.78,11.33,9.28,13.06,14.96-9.5-6-19.59-11.02-30.1-15,1.6-9.28-4.99-26.92-23.06-18.01,11.25.84,12.54,9.77,15.25,15.27-13.92-4.49-28.38-7.15-42.99-7.89-1.45-6.34-7.69-14.7-15.85-14.63h0ZM449.91,139.46c.84,0,1.67.02,2.5.03-5.65,3.39-10.52,14.55-22.68,11.44,13.1,14.8,27.48-2.08,29.07-11.23,14.33.76,28.5,3.4,42.15,7.86-6.32,1.94-14.41,9.1-23.98,2.38,6.85,18.19,25.9,8.04,31,.09,11.46,4.33,22.39,9.94,32.59,16.72-6.6.37-16.08,8.46-25.66.19,4.95,18.66,24.71,10.68,30.73,3.32,8.89,6.39,17.11,13.66,24.56,21.68.37,1.03.9,1.92,1.75,2.58-5.69-4.37-19.07,5.33-27.81-6.37.83,20.42,24.37,15.2,30.46,8.72,6.79,7.92,12.8,16.48,17.97,25.54-5.73-3.26-18.25-1.29-21.97-13.43-5.94,18.87,16.24,22.23,24.87,18.76,4.99,9.56,9.01,19.58,12.02,29.93-5.38-3.81-17.21-4.48-18.66-16.63-8.93,17.03,10.85,24.31,20.36,22.96,2.57,10.4,4.11,21.02,4.61,31.71-2.11-6.31-16-10.48-12.94-23.75-15.08,13.89,4.16,28.23,13.09,28.64.02.98.03,1.96.03,2.95,0,10.51-1,20.79-2.89,30.75-.37.67-.62,1.38-.66,2.15.37-7.13-15.29-12.49-10.6-26.29-16.38,12.3,1.23,28.45,10.09,29.79-2.87,12.68-7.25,24.96-13.04,36.6-.39-6.55-9.77-15.62-1.87-25.88-18.92,6.25-8.67,26.11-.78,31.01-5.92,10.91-13.05,21.11-21.27,30.41,2.14-6.21-3.54-18.14,7.62-24.99-20.41-.88-17.36,22.42-11.46,29.2-8.53,9.02-18.05,17.04-28.38,23.92,1.41-6.41-2.33-17.4,8.36-23.31-18.86-1.67-18.53,18.33-13.94,26.87-9.66,5.89-19.91,10.75-30.58,14.52-.99-.23-1.96-.27-2.92.03,6.85-2.17,6.4-18.6,21.07-19.09-17.57-11.02-26.63,11.7-24.5,20.18.07.29.21.6.32.9-12.01,3.71-24.4,6.03-36.94,6.91,5.91-2.95,11.53-13.89,23.5-9.96-12.51-16.23-28.76,1.52-29.98,10.29-1.74.05-3.48.09-5.23.09-10.52,0-20.82-1-30.79-2.89-.55-.63-1.18-1.14-1.97-1.45,6.67,2.66,16.87-10.29,28.5-1.4-6.47-19.6-28.04-7.81-31.83.07-.23.47-.42,1-.58,1.56-13.79-3.15-27.12-8.08-39.63-14.67-.02-.01-.04-.03-.06-.04,6.48,3.1,17.53-9.13,28.52.52-5.09-19.87-27.16-9.8-31.67-2.21-10.31-5.72-19.98-12.53-28.83-20.32,6.46,1.26,16.17.26,20.4,10.37,4.03-19.4-18.47-20.53-26.68-16.18-8.95-8.73-16.88-18.45-23.63-28.97,5.64,3.43,18.59.67,22.79,12.98,5.4-19.28-17.48-21.77-25.76-17.82-6.3-10.61-11.37-21.9-15.12-33.65,2.31,6.67,18.62,6.48,18.99,20.94,11.24-17.32-11.5-26.51-20.08-24.49-3.26-11.08-5.34-22.48-6.2-34,4.52,4.78,16.99,6.64,16.87,19.29,11-15.74-7.58-25.43-17.2-25.33-.09-2.12-.13-4.24-.14-6.36,0-8.61.67-17.06,1.94-25.31,2.38,6.12,11.86,13.14,6.32,24.07,17.53-9.67,3.5-27.45-5.16-30.67,1.77-8.97,4.28-17.77,7.52-26.32,2.08,5.78,4.89,12.7-1.2,19.72,17.29-4.59,11.77-21.53,4.98-28.83,3.88-8.62,8.5-16.88,13.81-24.7.39,5.78.48,12.36-6.63,17.03,17.46.22,17.22-16.7,12.98-25.75,6.06-7.77,12.8-14.98,20.14-21.55-.28,6.32.32,14.42-8.45,19.01,17.67,1.99,18.88-15.53,15.33-24.84,6.67-5.34,13.74-10.15,21.15-14.4-1.63,6.1-2.83,14.08-12.35,16.67,16.81,5.71,21.79-11.1,20.36-20.95,9.9-4.95,20.28-8.89,30.98-11.73-4.96,4.33-8.07,15.86-20.45,14.68,15.65,12.9,27.39-7.27,26.93-16.27,11.78-2.62,23.81-3.95,35.88-3.94h0Z"/><path class="cls-42" d="M349.64,376.83c-.31,1.35-.83,3.22-1.04,5.61,0,.52-.52,3.32,1.04,3.43,1.14.1,1.45-2.91,1.45-2.91,0,0-1.04,3.32.31,3.74,1.87.41,2.08-3.64,2.08-3.64-.21,1.14-1.45,4.05.31,4.36,1.87.31,2.39-3.95,2.39-3.95,0,0-1.56,4.26.31,4.36,1.77.1,1.77-4.16,1.77-4.16,0,0-.94,5.09,1.56,4.68,1.35-.21,1.66-1.97,1.97-3.01.41-1.56,1.35-3.53.21-6.75-.83-2.39-.52-3.01-.52-3.01,0,0-2.91,2.18-5.19,3.63-1.04.62-6.65-2.39-6.65-2.39h0ZM379.97,372.36c-.52-.31-.42,1.87-.62,2.91-.1,1.04.21,3.32,3.74,3.12,3.42-.31,6.85-1.04,9.03-.52,2.18.62,5.4.73,7.17.73s2.91-.21,3.74-.52c.73-.31,2.29.42,3.01.42s1.87-1.14,1.77-1.87c-.1-1.35-1.35-1.35-3.12-1.45-1.66-.21-3.94-.52-5.09-.94-1.14-.42-3.22-1.56-5.82-2.08,0,0-4.98.21-6.02.21s-7.17.31-7.79,0h0Z"/><path class="cls-12" d="M363.25,379.74l-.21-4.78,1.97,1.66.52-3.64c.83-.21,2.18,1.46,2.18,1.46l-.21-3.63,3.01,3.32s-.21-2.81.83-4.47c0,0,2.28,1.97,2.28,4.26,0,1.98,1.97-2.81,1.97-2.81.52,1.66,1.66,5.3,1.66,5.3l1.35-1.97,1.14,4.15,2.49-3.63,1.97,4.26,4.47-.31.52,2.49,1.97-2.18,2.6,1.66s2.18-.62,3.32-.62,2.49,1.45,2.49,1.45c0,0,.83-1.45,1.66-1.97.83-.52,1.97.83,2.28,1.66l1.66-3.01s2.18,2.18,2.49,3.01c0,0,.31-2.49.83-3.32.52-.83,1.35.31,1.97,1.35l1.35-4.47s1.45.31,2.49,1.97c1.14,1.66,1.14-2.49,1.14-2.49,0,0,2.49,3.32,3.12,5.61M481.1,379.22s.83-2.28,1.97-3.43c0,0,2.18,2.6,2.18,3.43,0,0,.62-.31,1.77-1.14l1.66,1.66,1.97-1.35,1.87,1.66,3.43-1.45,1.35,1.45,5.29-.62,1.98.83,1.87-2.38,1.77,1.87,2.8-2.8s1.35,1.14,1.66,1.97c0,0,2.28-1.14,2.8-1.97,0,0,2.18-.83,2.49.52,0,0,1.35-1.04,1.25-2.18-.11-1.14,1.56-.31,2.08,1.14,0,0,.62-2.29,2.29-2.5,0,0,1.14,1.35.83,3.84,0,0,2.49-1.97,3.63-2.18,0,0,.52,2.8-.31,5.3,0,0,2.6-4.26,3.12-2.81.21.83.83,3.64.21,5.61l2.28-1.45.83,2.81,2.49-.52M419.98,392.98s1.87-3.11,3.01-3.95c0,0,2.49,1.97,3.32,4.47,0,0,.31-1.66,1.14-3.11,0,0,3.12,1.45,3.63,3.43,0,0,1.14-1.97,1.97-2.49.83-.63,1.66,2.18,1.66,3.84,0,0,1.97-2.08,3.12-2.18,0,0,2.18,1.04,2.8,4.67,0,0,2.08-1.97,2.8-1.66,0,0,2.49,1.66,1.87,3.95-.31,1.24,2.49-1.45,5.92-2.28l3.01,2.28s2.8-3.74,3.63-4.99c0,0,2.29.83,2.29,2.18,0,0,1.04-3.95,1.87-4.36.83-.52,1.97,1.25,1.97,2.39,0,0,.31-3.01,1.98-3.64,0,0,1.66,1.14,1.66,2.29,0,0,1.77-3.43,3.11-4.26"/><path class="cls-17" d="M363.25,379.74l-.21-4.78,1.97,1.66.52-3.64c.83-.21,2.18,1.46,2.18,1.46l-.21-3.64,3.01,3.32s-.21-2.81.83-4.47c0,0,2.28,1.97,2.28,4.26,0,1.98,1.97-2.81,1.97-2.81.52,1.66,1.66,5.3,1.66,5.3l1.35-1.97,1.14,4.15,2.49-3.64,1.97,4.26,4.47-.31.52,2.49,1.97-2.18,2.6,1.66s2.18-.62,3.32-.62,2.49,1.46,2.49,1.46c0,0,.83-1.46,1.66-1.98.83-.52,1.97.83,2.28,1.66l1.66-3.01s2.18,2.18,2.49,3.01c0,0,.31-2.49.83-3.32.52-.83,1.35.31,1.97,1.35l1.35-4.47s1.46.31,2.49,1.97c1.14,1.66,1.14-2.49,1.14-2.49,0,0,2.49,3.32,3.11,5.61,0,0-17.19,5.9-29.32,4.29-14.27-1.9-26.03-4.6-26.03-4.6M481.11,379.22s.83-2.29,1.98-3.43c0,0,2.18,2.6,2.18,3.43,0,0,.62-.31,1.77-1.14l1.66,1.66,1.98-1.35,1.87,1.66,3.43-1.45,1.35,1.45,5.3-.62,1.97.83,1.87-2.39,1.77,1.87,2.8-2.8s1.35,1.14,1.66,1.97c0,0,2.28-1.14,2.8-1.97,0,0,2.18-.83,2.49.52,0,0,1.35-1.04,1.25-2.18-.1-1.14,1.56-.31,2.08,1.14,0,0,.62-2.28,2.28-2.49,0,0,1.14,1.35.83,3.84,0,0,2.49-1.98,3.63-2.18,0,0,.52,2.8-.31,5.3,0,0,2.6-4.26,3.12-2.81.21.83.83,3.63.21,5.6l2.28-1.45.83,2.81,2.49-.52s-14.74,2.26-28.63.93c-13.89-1.32-26.92-6.23-26.92-6.23M470.84,389.53c.67-.42-4.64,10.93-17.52,11.53-17.93.84-33.25-8.1-33.25-8.1,0,0,1.87-3.11,3.01-3.95,0,0,2.49,1.97,3.32,4.47,0,0,.31-1.66,1.14-3.11,0,0,3.12,1.45,3.63,3.43,0,0,1.14-1.97,1.97-2.49.83-.63,1.66,2.18,1.66,3.84,0,0,1.97-2.08,3.11-2.18,0,0,2.18,1.04,2.81,4.67,0,0,2.08-1.97,2.8-1.66,0,0,2.49,1.66,1.87,3.95-.31,1.25,2.49-1.45,5.92-2.28l3.01,2.28s2.8-3.74,3.63-4.99c0,0,2.29.83,2.29,2.18,0,0,1.04-3.95,1.87-4.36.83-.52,1.97,1.25,1.97,2.39,0,0,.31-3.01,1.98-3.64,0,0,1.66,1.14,1.66,2.29,0,0,1.76-3.43,3.11-4.26h0Z"/></svg>