<?xml version="1.0" encoding="UTF-8"?><svg id="_色修正" xmlns="http://www.w3.org/2000/svg" viewBox="0 0 900 600"><defs><style>.cls-1{fill:#231815;}.cls-1,.cls-2,.cls-3,.cls-4,.cls-5{stroke-width:0px;}.cls-2{fill:#e50012;}.cls-3{fill:#fff;}.cls-4{fill:#ffe100;}.cls-5{fill:#e7d651;}</style></defs><rect class="cls-4" width="900" height="598.1"/><path class="cls-3" d="M0,29.98v253.11l900,171.3v-136.06L0,29.98Z"/><path class="cls-1" d="M0,156v131.09l900,287.35v-128.05L0,156Z"/><path class="cls-2" d="M426.67,496.96c-17.76-2.36-34.05-8.01-45.37-15.75-2.19-1.5-4.26-2.73-4.58-2.73s-.6,1.67-.6,3.73c0,5.85-2.35,8.79-8.26,10.32-5.65,1.47-14.28-1.5-21.27-7.29-7.24-6.01-15.6-10.6-22.67-12.43-5.83-1.52-13.56-1.28-19.15.6-2.6.87-5.55,2.1-6.58,2.73-1.02.63-2.17,1.15-2.53,1.15-.99,0-.85-6.29.18-8.29,1.37-2.63,4.73-5.23,8.66-6.66,1.98-.72,3.61-1.65,3.61-2.06s-.67-1.93-1.49-3.35c-2.66-4.66-1.57-9.18,3.07-12.73,4.75-3.63,12.8-4.26,19.91-1.55,1.79.68,3.46,1.24,3.71,1.24.94,0,.37-1.31-2.21-5.07-2.97-4.35-3.56-6.5-3.19-11.67.48-6.55,5.82-11.91,12.36-12.39,5.34-.39,8.66,1.41,16.54,8.92,23.54,22.44,49.13,34.81,78.98,38.16,7.53.84,22.69.39,31.58-.95,26.86-4.05,53.92-17.55,75.05-37.46,5.85-5.51,8.67-6.97,13.47-6.99,4.17-.02,7.1,1.33,10.09,4.63,2.73,3.03,3.65,5.9,3.36,10.5-.19,2.95-.67,4.4-2.42,7.25-2.59,4.21-2.15,4.6,2.97,2.62,6.92-2.7,15.44-1.45,20.04,2.92,4.05,3.84,4.43,7.69,1.28,12.9-1.15,1.91-2.08,3.7-2.08,3.98,0,.52.87.77,5.07,1.45,5.5.88,8.64,4.96,8.64,11.2,0,1.87-.23,3.4-.51,3.4s-2.36-.76-4.62-1.7c-6.4-2.64-10.05-3.32-17.54-3.28-5.7.04-7.66.3-11.63,1.6-6.08,1.99-12.59,5.83-17.89,10.55-5.85,5.21-9.52,6.85-15.21,6.81-5.29-.06-8.9-1.59-10.81-4.61-1.02-1.61-1.17-2.6-.92-6.25.17-2.38.13-4.32-.06-4.32s-2.26,1.3-4.58,2.91c-6.09,4.18-9.97,6.26-16.95,9.02-21.27,8.41-51.96,12.06-75.46,8.95h0Z"/><path class="cls-2" d="M436.39,456.09c-35.4-3.4-69.27-21.84-89.87-51.07-22.36-30.5-29.41-70.76-22.58-107.58,3.63-16.76,10.95-33.53,23.44-45.47-9.96,21.11-13.32,45.3-8.01,68.17,8.25,45.65,46.83,84.3,92.99,90.98,18.26,5.29,37.15-.3,54.59-5.96,38.48-13.56,67.79-50.08,71.37-90.91,3.06-22.09-.33-45.07-10.28-65.07,5.67,3,12.83,14.76,17.06,22.67,14.68,28.45,15.35,62.54,6.71,92.9-11.73,38.63-41.26,72.47-80.3,84.77-17.72,5.79-36.56,7.55-55.11,6.58h0Z"/><g id="a"><path class="cls-2" d="M258.09,405.37c-2.32-.36-4.88,1.92-4,4.31,1.67,2.42,4.55,3.6,7.16,4.75,6.23,2.5,13.01,3.47,19.7,3.31-2.31,0,.79.02,1.65,0,5.3.02,10.57-.94,15.55-2.73,2.77-.97,6.3-1.86,7.43-4.92,1.11-2-.9-3.99-2.92-3.59-2.82.61-5.45,1.89-8.25,2.62-6.03,1.7-12.38,2.36-18.63,1.85-4.57-.56-9-2.02-13.22-3.8-1.47-.65-2.84-1.59-4.46-1.79h0Z"/><path class="cls-2" d="M260.67,395.85c-2.35-.35-4.37,2.35-3.39,4.5,1.8,2.61,4.83,4.01,7.67,5.23,4.93,1.97,10.28,2.8,15.58,2.64-2.01,0,.69.02,1.44,0,4.51,0,8.97-.88,13.14-2.6,2.55-.99,5.66-1.95,6.72-4.75.82-1.54.19-3.78-1.74-3.9-1.77-.09-3.3,1.04-4.93,1.54-5.95,2.46-12.5,3.5-18.92,2.95-4-.51-7.82-1.99-11.44-3.7-1.36-.66-2.59-1.68-4.12-1.92h0Z"/><path class="cls-2" d="M263.83,386.72c-2.01-.24-3.39,2.03-3.05,3.84.3,1.59,1.73,2.66,2.91,3.63,4.89,3.58,11.09,5.1,17.09,4.9-2.33,0,3.13.04,1.46,0,3.8-.02,7.56-.95,10.98-2.59,2.28-.99,4.97-2.14,5.73-4.75.37-1.21.6-2.96-.77-3.64-1.44-.8-2.86.43-4.16.93-4.39,2.24-9.29,3.48-14.23,3.46-4.27.14-8.29-1.65-11.99-3.59-1.34-.68-2.45-1.87-3.96-2.18h0Z"/><path class="cls-2" d="M230.11,251.95c-2.99,2.99-.71,8.51-.87,12.43,1.55,12.07,3.47,24.3,7.98,35.67,5.52,11.1,17.24,17.04,24.35,26.86,2.54,4.73,1.64,10.42,2.17,15.59.42,14.1.29,28.21.04,42.31,6.37,3.2,13.28,6.41,20.61,5.18,4.34-1.04,12.4-1.68,13.3-6-.35-24.32-.58-48.64-.9-72.95-2.47-7.45-10.05-11.3-15.72-16.07-4.67-4.62-9.02-9.55-13.02-14.77-2.41-4.05-11.81-5.51-8.41,1.54,1.99,6.11,7.08,10.65,8.36,17.07.28,3.52,4.48,9.98.89,12.03-2.28-3.87-5.58-7.17-9.8-9.14-4.07-3.03-10.79-4.29-12.26-9.65-1.08-7.6-4.97-14.48-9.99-20.17,1.29-6.82,0-15.36-5.89-19.72l-.85-.19h0Z"/><path class="cls-2" d="M239.2,253.32c-2.72.44-2.63,3.9-1.37,5.72,1.34,3.93,1.7,8.21.98,12.3,4.83,5.66,8.58,12.43,9.7,19.86.03,2.79,2.97,3.72,4.87,5.1,4.47,2.85,9.5,4.91,13.48,8.47.84.9,1.47,1.86.88.03-.62-2.34-.94-4.92-2.77-6.68-2.51-2.7-5.64-5.1-9.3-5.93-.3-3.77-2.1-7.24-3.76-10.58-1.84-3.19-3.76-6.61-6.92-8.68.13-5.6.03-11.47-2.37-16.63-.71-1.33-1.75-2.9-3.41-2.98h0Z"/><path class="cls-2" d="M246.81,255.55c-1.89.56-1.53,2.9-.93,4.33.91,3.96,1.05,8.05.98,12.1,3.48,2.75,5.66,6.74,7.64,10.63,1.24,2.6,2.42,5.28,2.89,8.13,2.82.93,5.29,2.7,7.5,4.66-.87-2.64-2.82-4.69-4.13-7.11-1.42-2.51-2.78-5.13-3.39-7.98-2.71-2.9-4.21-7-3.62-10.97.12-4.38-1.29-8.91-4.23-12.21-.74-.73-1.62-1.53-2.71-1.59h0Z"/><path class="cls-2" d="M255.46,256.79c-1.03.18-1.66,1.16-2.21,1.96-.21.8.77,1.66.92,2.53,1.21,3.03,1.65,6.32,1.3,9.57-.08,2.3.74,4.54,1.91,6.48.34-1.43,1.67-2.47,3.11-2.61.52-.09,1.29.17.99-.63-.37-4.39-1.04-8.81-2.57-12.96-.6-1.48-1.27-3.04-2.55-4.06-.26-.18-.57-.34-.9-.3h0Z"/></g><g id="a-2"><path class="cls-2" d="M639.77,405.37c2.32-.36,4.88,1.92,4,4.31-1.67,2.42-4.55,3.6-7.16,4.75-6.23,2.5-13.01,3.47-19.7,3.31,2.31,0-.79.02-1.65,0-5.3.02-10.57-.94-15.55-2.73-2.77-.97-6.3-1.86-7.43-4.92-1.11-2,.9-3.99,2.92-3.59,2.82.61,5.45,1.89,8.25,2.62,6.03,1.7,12.38,2.36,18.63,1.85,4.57-.56,9-2.02,13.22-3.8,1.47-.65,2.84-1.59,4.46-1.79h0Z"/><path class="cls-2" d="M637.19,395.85c2.35-.35,4.37,2.35,3.39,4.5-1.8,2.61-4.83,4.01-7.67,5.23-4.93,1.97-10.28,2.8-15.58,2.64,2.01,0-.69.02-1.44,0-4.51,0-8.97-.88-13.14-2.6-2.55-.99-5.66-1.95-6.72-4.75-.82-1.54-.19-3.78,1.74-3.9,1.77-.09,3.3,1.04,4.93,1.54,5.95,2.46,12.5,3.5,18.92,2.95,4-.51,7.82-1.99,11.44-3.7,1.36-.66,2.59-1.68,4.12-1.92h0Z"/><path class="cls-2" d="M634.02,386.72c2.01-.24,3.39,2.03,3.05,3.84-.3,1.59-1.73,2.66-2.91,3.63-4.89,3.58-11.09,5.1-17.09,4.9,2.33,0-3.13.04-1.46,0-3.8-.02-7.56-.95-10.98-2.59-2.28-.99-4.97-2.14-5.73-4.75-.37-1.21-.6-2.96.77-3.64,1.44-.8,2.86.43,4.16.93,4.39,2.24,9.29,3.48,14.23,3.46,4.27.14,8.29-1.65,11.99-3.59,1.34-.68,2.45-1.87,3.96-2.18h0Z"/><path class="cls-2" d="M667.74,251.95c2.99,2.99.71,8.51.87,12.43-1.55,12.07-3.47,24.3-7.98,35.67-5.52,11.1-17.24,17.04-24.35,26.86-2.54,4.73-1.64,10.42-2.17,15.59-.42,14.1-.29,28.21-.04,42.31-6.37,3.2-13.28,6.41-20.61,5.18-4.34-1.04-12.4-1.68-13.3-6,.35-24.32.58-48.64.9-72.95,2.47-7.45,10.05-11.3,15.72-16.07,4.67-4.62,9.02-9.55,13.02-14.77,2.41-4.05,11.81-5.51,8.41,1.54-1.99,6.11-7.08,10.65-8.36,17.07-.28,3.52-4.48,9.98-.89,12.03,2.28-3.87,5.58-7.17,9.8-9.14,4.07-3.03,10.79-4.29,12.26-9.65,1.08-7.6,4.97-14.48,9.99-20.17-1.29-6.82,0-15.36,5.89-19.72l.85-.19h0Z"/><path class="cls-2" d="M658.65,253.32c2.72.44,2.63,3.9,1.37,5.72-1.34,3.93-1.7,8.21-.98,12.3-4.83,5.66-8.58,12.43-9.7,19.86-.03,2.79-2.97,3.72-4.87,5.1-4.47,2.85-9.5,4.91-13.48,8.47-.84.9-1.47,1.86-.88.03.62-2.34.94-4.92,2.77-6.68,2.51-2.7,5.64-5.1,9.3-5.93.3-3.77,2.1-7.24,3.76-10.58,1.84-3.19,3.76-6.61,6.92-8.68-.13-5.6-.03-11.47,2.37-16.63.71-1.33,1.75-2.9,3.41-2.98h0Z"/><path class="cls-2" d="M651.04,255.55c1.89.56,1.53,2.9.93,4.33-.91,3.96-1.05,8.05-.98,12.1-3.48,2.75-5.66,6.74-7.64,10.63-1.24,2.6-2.42,5.28-2.89,8.13-2.82.93-5.29,2.7-7.5,4.66.87-2.64,2.82-4.69,4.13-7.11,1.42-2.51,2.78-5.13,3.39-7.98,2.71-2.9,4.21-7,3.62-10.97-.12-4.38,1.29-8.91,4.23-12.21.74-.73,1.62-1.53,2.71-1.59h0Z"/><path class="cls-2" d="M642.39,256.79c1.03.18,1.66,1.16,2.21,1.96.21.8-.77,1.66-.92,2.53-1.21,3.03-1.65,6.32-1.3,9.57.08,2.3-.74,4.54-1.91,6.48-.34-1.43-1.67-2.47-3.11-2.61-.52-.09-1.29.17-.99-.63.37-4.39,1.04-8.81,2.57-12.96.6-1.48,1.27-3.04,2.55-4.06.26-.18.57-.34.9-.3h0Z"/></g><path class="cls-2" d="M444.95,410.95c-12.38-1.18-23.55-10.2-27.37-22.02.21-2.04,2.74,1.14,3.94,1.35,2.25,1.25,4.68,2.28,7.27,2.44,3.26,1.4,5.28,4.62,8.4,6.3,1.45,1.13,6.57,3.34,5.61-.24-1.2-1.87-2.02-4.24-.99-6.39,1.74-3.81,4.41-7.12,7.09-10.3,1.98-.66,3.3,3.24,4.71,4.55,1.96,3.01,4.31,6.68,3.16,10.42-1.12,1.38-1.85,5.55,1.14,4.15,3.69-1.62,6.71-4.35,9.77-6.9,2.68-1.87,6.11-2,8.91-3.64,1.3-.33,4.01-2.93,4.58-1.49-1.54,4.12-4.11,7.81-6.87,11.2-4.46,5.09-10.49,8.92-17.24,10-3.99.73-8.08.88-12.12.58h0Z"/><path class="cls-2" d="M459.51,396.49c.27-2.48-.29-5.02-1.56-7.28-1.95-3.97-4.7-7.49-7.38-10.97-2.53-1.48-3.93,3.36-5.62,4.74-2.62,3.92-5.91,7.94-6.07,12.88-1.47,2.3-4.22-1.87-5.41-3.24-2.26-3.2-3.98-6.99-3.7-11-.27-6.46.97-12.88,3.32-18.88,1.78-5.12,4.66-10.1,4.36-15.7.21-4.21-.65-8.86-4.06-11.69-3.25-2.55,2.1-3.09,3.8-1.77,2.91.19,4.48,5,7.14,3.81,1.06-2.51,1.27-5.5,3.45-7.46,2.14-2.93,4.38,1.24,5.11,3.2,1.51,1.72-.08,5.97,2.37,6.08,2.94-2.06,5.04-5.53,8.8-6.28,1.53-.87,4.13-.12,2.12,1.64-2.78,2.61-5.16,5.87-5.67,9.75-.85,4.87.37,9.81,2.49,14.2,4.08,8.62,7.24,18.35,5.17,27.94-.96,4.26-3.85,7.93-7.37,10.41-.44.27-1.15.25-1.3-.36h0Z"/><path class="cls-2" d="M455.1,331.72c-1.34-2.41-2.96-4.78-5.21-6.42-2.18,0-3.53,2.75-5.02,4.2-1.04,1.94-2.3,5.17-4.87,2.64-4.08-2.38-4.8-7.59-4.77-11.89-.26-6.96,2.55-13.46,5.04-19.81,1.59-3.97,1.19-8.44.23-12.51-1.22-4.67-4.97-7.91-7.85-11.56.2-1.41,3.89-.64,5.27-.37,3.08.78,4.92,3.51,7.22,5.44,1.64-.5.97-3.8,1.73-5.35.06-2.19,2.97-5.07,4.17-1.94,1.8,1.99-.06,5.93,2.27,7.17,2.21-.82,3.3-3.24,5.38-4.33,2.05-1.39,4.93-1.55,7.14-.46.78,2.03-2.42,3.72-3.35,5.48-3.72,4.59-5.02,10.93-3.43,16.62,1.26,4.46,3.5,8.63,4.27,13.24.93,5.19.9,10.63-.44,15.75-.8,3.1-3.49,5.18-6.26,6.46-.68-.64-1.05-1.57-1.51-2.37h0Z"/><path class="cls-2" d="M441.23,274.15c-3.08-2.26-4.1-4.41-4.1-8.68,0-2.18.4-3.37,1.84-5.35,2.12-2.94,1.73-3.86-1.27-3-4.83,1.39-7.13.12-7.29-3.99-.07-2.01.35-2.86,3.06-6.11,2.17-2.61,2.95-3.97,2.52-4.4-.42-.42-2.98,1.8-8.24,7.15-4.19,4.27-8.91,8.63-10.48,9.69-9.03,6.09-17.65,7.04-21.59,2.35-2.02-2.39-1.91-3.74.42-5.19,1.07-.66,2.88-2.18,4.03-3.39,2.71-2.82,10.77-8.63,14.77-10.65,3.25-1.64,4.02-2.75,1.91-2.75-2.73,0-11.51,5.71-18.16,11.82-1.95,1.81-4.77,3.82-6.25,4.47-3.32,1.47-9.85,2.01-12.75,1.06-2.05-.68-5.78-4.2-5.78-5.46,0-.33.85-1.06,1.89-1.62,1.04-.55,2.9-1.9,4.13-2.97,5.32-4.67,15.41-9.48,23.41-11.16,2.54-.53,1.61-1.82-1.23-1.69-5.5.24-16.41,5.35-22.92,10.73-7.63,6.29-19.15,5.7-22.86-1.18-.64-1.18-1.02-2.29-.83-2.47.17-.17,2.44-.85,5.04-1.51,2.81-.71,8.37-3.01,13.68-5.66,8.36-4.17,10.84-5.06,16.59-5.98,2.59-.41,2.73-1.68.21-1.97-3.24-.39-8.2,1.24-16.98,5.55-11.27,5.54-14.42,6.5-20.36,6.15-5.41-.33-8.47-1.72-12.86-5.87-2.87-2.73-6.95-9.64-6.15-10.44.19-.19,1.51,0,2.94.41,1.58.47,6.1.78,11.55.79,7.63.02,9.65-.18,13.72-1.36,6.8-1.96,15.84-6.56,22.02-11.18,11.83-8.85,21.47-12.4,33.77-12.45,11.35-.05,18.57,2.58,24.97,9.07,2.17,2.19,4.01,3.62,4.31,3.31.28-.28.6-4.12.69-8.52,0,0,3.34-.32,4.05.61,0,7.15.08,7.71,1.12,7.71.68,0,1.4-.7,1.85-1.78.97-2.34,4.57-5.54,8.41-7.49,8.3-4.21,22.67-4.34,34.22-.31,4.86,1.71,10.26,4.75,15.4,8.72,5.16,3.96,15.7,9.27,21.93,11.04,6.3,1.79,17.42,2.24,23.11.95,2.35-.53,4.55-.97,4.9-.97,2.1,0-1.48,7-5.68,11.1-7.68,7.51-17.67,7.47-31.73-.11-8.76-4.72-19.24-7.29-19.24-4.73,0,.53.55.89,1.37.89,3.05,0,8.93,2.05,17.13,5.94,8.87,4.22,13.86,6,16.81,6,2.15,0,2.21,1.33.21,4.27-2.12,3.13-5.72,4.68-10.8,4.67-4.85-.02-7.55-1.08-11.89-4.69-7.26-6.04-25.34-12.77-24.65-9.18.14.72,1.01,1.16,2.87,1.44,6.29.96,13.68,4.49,21.24,10.15,2.33,1.75,4.75,3.48,5.37,3.84,1.04.61,1.06.79.24,2.32-1.36,2.53-4.78,4.5-8.49,4.88-4.8.5-8.97-.94-13.3-4.55-9.12-7.63-17.72-13.16-20.47-13.16-2.25,0-1.24,1.24,2.73,3.34,5.21,2.76,10.57,6.5,14.52,10.12,1.86,1.73,3.96,3.43,4.66,3.81,1.65.88,1.59,2.17-.23,4.55-1.85,2.42-4.92,3.49-8.89,3.06-7.93-.84-14.11-4.66-23.83-14.75-3.8-3.94-7.18-7.16-7.53-7.16-1.29,0-.53,1.75,1.97,4.56,3.1,3.47,3.7,5.42,2.52,8.24-1.04,2.5-2.76,3.07-6.3,2.12-3.62-.98-4.19-.09-1.82,2.86,3.54,4.41,3.02,9.82-1.32,13.53-1.35,1.15-2.76,2.09-3.15,2.09s-1.33-.98-2.13-2.18c-2.79-4.24-5.24-4.21-7.96.07-.95,1.5-1.74,2.71-1.77,2.7-.04,0-1.31-.93-2.83-2.05h0Z"/><path class="cls-2" d="M455.05,188.02l-4.71,3.73-4.22-3.18v25.45l8.93.11v-26.11Z"/><path class="cls-2" d="M425.89,161.61c-.94,12.03-3.99,20.43-8.24,29.68l10.19-9.44,7.08,8.41,7.67-8.56,7.83,7.23,7.52-7.52,7.82,9.15,6.79-7.52,11.51,8.26c-4.17-9.26-9.83-17.1-9.12-30.13-11.15,8.29-37.64,9.78-49.04.45h0Z"/><path class="cls-2" d="M446.13,155.48c-4.09.07-8.41.13-12.29.89-2.69.53-5.13,1.4-7.17,2.84.33,7.83,37.62,11.09,47.62.15-2.1-1.53-4.67-2.44-7.5-2.99-3.73-.72-7.86-.8-11.78-.86,0,2.15.02,4.3.02,6.46l-8.91-.03v-6.46h0Z"/><path class="cls-2" d="M453.42,115.48l-5.79.05v45.31l5.91.03-.12-45.38Z"/><path class="cls-2" d="M453.41,116.64l-2.21,21.69,22.32,10.9-11.3-15.1,15.42-5-24.23-12.49ZM450.93,110.99c-3.39,0-5.89,1.27-5.89,2.77s2.5,2.78,5.89,2.78,5.87-1.28,5.87-2.78-2.49-2.77-5.87-2.77Z"/><path class="cls-5" d="M440.71,491.55c3.66-1.21,5.74-3.43,7.24-7.71.74-2.13,1.25-4.34,1.12-4.92-.31-1.37-1.89-1.29-3.63.16-1.19,1-1.34,1.5-1,3.54.87,5.14-.95,6.41-10.68,7.46-.96.1-3.75-.06-6.21-.37-4.62-.58-6.28-.12-4.6,1.28.5.42,1.79.99,2.85,1.26,2.6.67,12.13.22,14.91-.7h0ZM460.87,490.7c.55-.5,2.44-1.38,4.2-1.95,2.35-.75,3.56-1.56,4.55-3.04,2.85-4.25,2.32-7.91-1.87-12.85-2.28-2.68-3.28-2.61-5.1.37-1.57,2.57-1.53,2.73.72,3.32,1.18.3,2.32,1.17,2.95,2.25,2.46,4.26,1.73,6.89-1.91,6.92-3.3.03-4.21.5-5.1,2.63-.47,1.11-.84,2.29-.84,2.63,0,.9,1.25.74,2.4-.29h0ZM454.26,485.89c.62-1.69.84-4.73.77-10.92-.05-4.72-.23-8.72-.41-8.9-.55-.55-3.27,1.2-3.62,2.33-.18.59.12,1.95.67,3.01.84,1.64.95,3.17.7,9.61-.33,8.13.2,9.5,1.9,4.87h0Z"/><path class="cls-5" d="M438.73,482.02c.33-1.51.75-4.62.95-6.88s.66-5.13,1.03-6.37c.94-3.17,0-4.01-2.51-2.23l-1.86,1.33.39,4.56c.36,4.11-.29,11.77-1.24,14.75-.26.79.11.59,1.15-.62.83-.97,1.79-3.02,2.11-4.53ZM424.96,484.23c3.35-2.8,2.97-7.59,3.71-11.49-.08-2.59,1.66-5.7.54-7.97-3.13.57-5.06,3.54-3.46,6.49.13,3.43.01,7.16-1.75,10.2-1.44,1.98-6,1.49-5.79-1.32,1.15-4.23-3.92-2.17-5.9-1.06-1.53,1.06-4.75,1.14-3.63-1.52-.74-3.55-5.3-1.33-7.78-1.34-2.34-.04-.19-4.74-3.55-3.92-6.25-.49-13.14.06-18.54-3.72-3.16-1.52-2.69-5.33-1.05-7.79,1.97-3.36,2.53-7.57,5.65-10.18,3.09-2.96-2.92-1.71-4.27-.71-3.01,1.65-.21,5.89-2.68,8.25-1.44,2.44-3.34,5.81-6.67,5.35-4.81-.91-7.58-5.38-11.03-8.38-2.95-.59-1.29,4.79.23,5.92,3.02,2.26,6.54,3.91,10.18,4.88,3.62-.58,3.74,4.16,6.83,4.9,5.68,2.65,12,3.44,18.2,3.76,2.43.2,1.06,4.53,4.26,3.68,1.79.46,5.82-.67,6.03,1.41-2.71,3.22,2.6,3.15,4.56,2.57,2.52-.38,5.73-1.35,6.4,2.1,2.1,2.21,5.96,1.89,8.52.62.36-.21.7-.45,1-.73h0Z"/><path class="cls-5" d="M370.12,456.45c1.02-1.29,2.54-3.91,3.39-5.82.83-1.92,2.09-4.09,2.78-4.84,1.61-1.74.72-2.82-1.89-2.24-1.38.3-1.94.81-2.17,2-.78,3.89-2.19,7.87-3.45,9.73-2.28,3.36-2.33,3.5-1.39,3.5.49,0,1.72-1.05,2.73-2.33h0ZM335.75,434.91c-2.57,0-2.68,1.62-.17,2.5,1.21.42,2.24,1.44,3.06,3.1,2.44,4.85,3.87,5.72,10.35,6.28l4.16.38.2,2.52c.1,1.39.43,2.55.75,2.55s1.93-.7,3.55-1.52c3.05-1.54,5.94-5.14,5.94-7.37,0-1.46-2.43-3.04-4.64-3.04-.98,0-2.85.79-4.33,1.86-4.62,3.35-9.57,2.67-12.28-1.69-2.22-3.6-4.54-5.57-6.59-5.57h0ZM358.2,443.85c1.23,0,1.53.91.86,2.64-.46,1.19-1.95,1.23-2.4.06-.53-1.39.21-2.7,1.54-2.7h0ZM532.28,438.21c-1.68.06-2.17.43-3.24,2.01-1.74,2.59-1.92,8.19-.31,10.18,1,1.23,1.15,1.26,3.27.38,2.95-1.24,3.45-1.19,3.44.39-.02,4.06-5.84,11.87-11.93,16.03-1.64,1.12-3.11,2.37-3.27,2.78-.44,1.16,1.82.9,4.59-.51,3.78-1.93,8.74-6.99,10.78-10.98,1.61-3.18,1.84-4.27,2.04-9.84.17-5.13.04-6.63-.83-8.34-.97-1.92-1.28-2.09-3.73-2.09-.29,0-.56,0-.81,0h0ZM532.48,441.79c1.27,0,1.49.28,1.63,2.1.13,1.5-.14,2.42-.97,3.17-1.14,1.03-1.23,1.02-2.24-.51-1.41-2.17-.54-4.76,1.58-4.76h0ZM504.62,480.95c5.37-2.64,8.53-5.62,10.57-9.92.96-2.05,1.75-3.97,1.75-4.3,0-.74-2.64-1.97-4.23-1.97s-1.9-1.09-1.22-4.11c.66-2.95-.14-6.63-1.43-6.63-.47,0-1.29.69-1.84,1.52-.84,1.29-.89,1.84-.27,3.73.92,2.79.19,4.87-2.3,6.65-1.18.84-1.84,1.82-1.84,2.76,0,.8.1,1.45.22,1.45.13,0,1.43-.68,2.9-1.5l2.68-1.5,1.58,1.24c.86.68,1.58,1.79,1.58,2.47,0,3.27-9.31,8.75-15.71,9.27-3.4.28-3.98.16-5.17-1.02-.96-.96-1.24-1.77-1-2.91.18-.87.51-2.46.73-3.52.59-2.84-.63-2.46-2.74.86-1.73,2.74-2.25,5.67-1.28,7.21.8,1.26,6.1,2.46,9.85,2.23,2.36-.14,4.69-.8,7.16-2.01h0ZM540.45,460.97c3.38-3.37,4.81-7.47,4.83-13.81v-4.76s2.8-1.32,2.8-1.32c3.62-1.73,7.06-5.16,7.06-7.07s-.87-1.86-2.45.28c-1.15,1.55-2.68,2.49-8.29,5.07-1.41.65-1.5,1-1.83,6.93-.38,6.84-1.3,9.4-5.12,14.07-2.34,2.84-2.42,3.22-.8,3.22.67,0,2.38-1.17,3.8-2.6ZM503.67,457.15c.32-.98-1.54-1.68-2.35-.88-.34.34-.43.93-.2,1.3.53.85,2.22.57,2.55-.42h0ZM554.38,444.02c.33-.98-1.54-1.68-2.34-.88-.35.35-.44.94-.21,1.31.53.85,2.22.57,2.55-.43h0ZM493.35,408.47c-1.31.62-1.99,2.04-2.9,3.12-.66.45-.13.86.25,1.28,2.31,2.49,3.29,5.86,4.39,9,1.08,3.71,2.44,7.69,1.31,11.55-.44,1.48-1.61,3.01-3.35,2.52-2.78-.17-5.52-.91-8.31-.88-2.48.13-4.4,2.39-6.94,2.14-1.62.11-1.55-3.32-3.06-2.4-.75,1.79-.38,3.78-.47,5.67.28.27,1.07.03,1.54.11h5c.35,1.73.31,3.7,1.55,5.08,1.73.62,3.69.08,5.33-.59,1.77-.82,2-2.95,2.5-4.6.53-1.78,2.86-1.31,4.23-2.01,3.36-.98,5.57-4.48,5.37-7.92-.22-5.25-2.22-10.19-3.74-15.16-.76-2.19-1.29-4.47-2.18-6.61-.1-.18-.32-.34-.54-.3h0ZM485.02,438.5c1.87-.12,2.68,2.17,2.28,3.7-.7,2.07-3.24.74-3.76-.75-.95-1.33-.36-3.12,1.47-2.95Z"/><path class="cls-5" d="M415.84,421.26c-.83-.02-1.77.29-2.7.95-4.87,3.41-6.12,7.45-2.81,9.03,2.43,1.17,1.82,2.53-2.01,4.45-5.48,2.73-10.31,2.39-19.5-1.4-2.26-.94-2.84-.58-2.32,1.49.5,2.03,2.36,3.14,6.96,4.18,4.95,1.14,10.95.77,14.8-.89,1.88-.81,4.11-2.51,5.99-4.55l2.98-3.28,3.47.43c4.28.52,4.36.57,4.36,2.62,0,1.62.09,1.66,4.02,2.03,2.21.21,5.12.4,6.48.4,1.73,0,2.72.31,3.29,1.12.77,1.07,1.23,1.13,7.69.55,6.04-.55,7.22-.5,9.95.42,1.94.66,4.06.93,5.68.75,4.62-.52,11-4.3,11.93-7.08.11-.34,1.79-.94,3.73-1.32,4.67-.94,4.87-1.95.51-2.5-1.89-.24-4.73-.93-6.3-1.55-1.59-.62-3.75-1.15-4.82-1.15-2.35,0-4.56,1.47-4.56,2.98,0,.99.35,1.09,3.13.81,2.62-.27,3.38-.12,4.75.97.91.72,1.51,1.56,1.32,1.86-.61,1-6.07,3.49-8.49,3.87-1.61.26-2.92.08-4.18-.57-2.12-1.1-5.24-1.27-5.83-.32-.25.41-.92.15-1.84-.72l-1.43-1.35-3.24,1.35c-3.29,1.37-4.51,1.31-4.51-.26,0-.72-.96-.8-5.82-.49-5.35.35-5.91.26-6.91-.86-.93-1.03-.95-1.39-.28-2.44.61-.97.61-1.39.03-1.97s-1.33-.57-3.44,0c-5.32,1.42-6.83.62-6.83-3.53,0-2.5-1.43-4.01-3.27-4.04h0ZM414.52,425.08c.28,0,.52.17.89.54.47.47.72,1.28.51,1.81-.48,1.24-2.73,1.19-3.21-.06-.23-.61.06-1.28.74-1.78.48-.35.78-.52,1.06-.51h0Z"/><path class="cls-5" d="M404.97,428.95c3.24-2.06,3.17-1.9,3.63-7.61.32-4.03.27-4.33-.83-4.33-1.59,0-2.41,1.74-2.41,5.07,0,2.13-.33,3.08-1.47,4.21-2.7,2.7-9.4,1.47-10.24-1.88-.28-1.15.08-2.18,1.49-4.17,2.93-4.16,2.27-5.18-1.32-2.02-2.47,2.16-2.91,2.22-2.44.36.43-1.72-.47-2.39-2.48-1.89-1.03.26-1.59.9-1.84,2.15-.24,1.22-.8,1.9-1.77,2.14-1.62.41-4.4-1.13-4.4-2.44,0-.97,4.15-6.04,9.47-11.56,2.01-2.09,3.65-4.04,3.65-4.33s-1.07-.53-2.39-.53c-1.92,0-2.39.21-2.39,1.1,0,.61-2.68,4.12-5.96,7.82-6.85,7.71-7.41,9.31-4.03,11.37,2.73,1.67,6.22,1.54,8.96-.32l2.22-1.51v2.74c0,3.51.7,4.76,3.45,6.22,3.46,1.83,7.64,1.61,11.08-.57h0ZM548.63,381.32c-2.54,1.52-.55,4.7-.17,6.82-1.04,2.89-4.74,3.66-7.45,4.2-3.83.63-6.54,3.84-8,7.24-.79,2.21-2.69,5.64-4.77,2.27-1.8-1.83-5.12-3.28-7.26-1.14-1.62,1.54-2.03,3.81-2.64,5.87-.96-1.58-1.39-3.94-3.41-4.44-3.24.46-2.07,4.54-.55,6.22,1.38,1.96,2.71,4.55,1.36,6.88-1.2,2.8-5.33,4.69-7.76,2.29-2.27-1.2-.75-5.47-2.99-5.71-1.1.8-1.2,5.27-2.96,2.85-1.28-2.07-.6-4.91-2.16-6.78-1.84.23-3.33,3.41-2.71,5.11,2.46,3.32,3.47,7.48,4.43,11.44.6,1.58-.09,4.8,1.39,5.42,1.03-2.55.07-5.44.88-8.02,2.4-.3,5.08.79,7.59.21,3.6-.47,6.39-3.51,7.65-6.75.38-2.44-.07-4.91-.14-7.36,2.85.44,5.81.43,8.55,1.36,1.36,2.08-.43,5-.81,7.28-1.43,4.64-5.06,8-8.59,11.1-1.48.87-1.68,3.19.51,1.94,4.75-2.03,8.29-6.33,10.32-10.98,1.49-3.58.29-7.57,1.26-11.23,1.43-2.75,4.88-2.17,7.44-2.16,2.64-.1,4.9-3.18,4.01-5.74-.84-2.98,2.31-4.41,4.46-5.48,2.86-1.44,5.04-4.37,4.82-7.67-.12-1.69-.03-4.89-2.32-5.05h0ZM538.51,398.53c3.06.81-.55,6.65-2.18,2.95-.5-1.41.69-3,2.18-2.95ZM524.31,402.71c3.98-.23,2.55,5.58-.81,2.94-1.74-.88-1.17-3.05.81-2.94ZM380.2,425.17c.11-.58-.18-.99-.71-.99-1.11,0-1.78.97-1.26,1.82.54.87,1.73.38,1.96-.83h0ZM426.85,419.96c0-.85-.32-1.17-1.04-1.04-1.56.29-1.73,2.28-.2,2.28.85,0,1.24-.39,1.24-1.24ZM369.12,391.96c-1.86-.38-3.03,1.19-3.67,2.7-1.39,2.34-3.09,4.73-5.59,5.97-1.8.5-3.76-.18-5.31-1.11-1.85-.92-1.43-3.14-2.22-4.68-1.34-1.05-3.71.45-3.66,2.08-.15,2.19,1.9,3.45,3.6,4.3,1.44.89,3.54,1.38,4.12,3.17-.04,1.52.57,3.26,2.43,2.68,2.07-.03,2.61,2.49,1.77,4.01-.85,1.71-1.43,3.71-1.02,5.61.99.84,2-1.4,2.72-2.04l1.46-1.95c3.67.2,7.33.67,11.01.54,2.62-.05,4.84-1.66,6.51-3.56,2.35-2.46,4.29-5.35,6.97-7.47,1.91-.47.88-4.07-1.11-3.03-1.8.68-2.37,2.71-3.61,4-2.12,2.57-4.29,5.18-6.97,7.2-1.95.81-4.19.46-6.2,0-.83-.73,1.66-1.33,2.01-2.14,1.15-1.15,2.51-2.24,3.18-3.75-.64-1.39-2.58-1.5-3.96-1.53-3.38.41-5.97,3.24-9.38,3.51-2.59.09-1.24-2.72-.08-3.67,2.29-2.72,4.76-5.27,7.14-7.9.68-.81,3.13-1.59,1.56-2.73-.55-.2-1.14-.2-1.71-.21h0ZM370.79,405.69c1.7.96-1.09,2.53-2.27,2.32-1.54.46-1.57-1.11-.2-1.43.77-.4,1.58-.82,2.46-.89h0ZM365.54,409.28c.97-.02,3.01.91,1.1,1.51-1.33,1.03-2.83-1.05-1.09-1.51h0Z"/><path class="cls-5" d="M406.86,411.65c0-1.29-2.32-1.11-2.58.2-.17.84.1,1.05,1.18.89.77-.11,1.39-.6,1.39-1.09ZM509.67,402.54c.24-1.24-1.49-2.06-2.39-1.16-.91.91-.07,2.63,1.16,2.39.57-.11,1.13-.67,1.24-1.24h0ZM349.66,389.95c1.61-1.39,1.63-1.48.94-4.52-.99-4.27-.93-4.73.7-5.13,2.06-.52,7.28,2.28,8.43,4.51.9,1.73.87,1.85-.65,3.27-1.64,1.51-1.63,3.28,0,3.28,1.36,0,5.11-3.55,5.11-4.83,0-1.77-4.17-5.96-7.46-7.49-2.04-.95-4.07-1.39-6.43-1.4-4.22,0-4.79.91-3.65,5.82,1.34,5.75-.48,6.53-5.11,2.19-3.44-3.22-4.8-6.57-4.78-11.85,0-5.66,2.17-8.46,7.06-9.12,3.24-.43,3.16-1.19-.17-1.69-4.86-.73-8.97,2.51-10.53,8.31-1.73,6.43,2.24,14.27,9.27,18.31,3.68,2.11,5.15,2.17,7.29.33ZM541.29,382.89c.39-.39.72-1.28.72-1.97s.67-2.17,1.49-3.28c.83-1.11,1.5-2.25,1.5-2.52,0-1.13-1.86-1.09-3.33.07-1.5,1.17-2.63,1.2-2.63.06,0-.28.72-.87,1.6-1.3,2.18-1.06,2.37-2.12.52-2.96-2.37-1.07-4.74.89-4.99,4.13-.16,2.17.02,2.54,1.69,3.52,1.52.9,1.81,1.38,1.55,2.66-.44,2.23.49,3.01,1.9,1.6h0ZM559.3,380.85c1.32-1.18,2.39-2.53,2.39-2.98s1.14-1.64,2.53-2.64c3.95-2.84,4.83-5.72,3.06-10.13-.69-1.73-2.85-4.13-7.56-8.37-3.62-3.27-6.95-5.94-7.38-5.94-1.28,0-1.06,4.73.25,5.14,2.35.75,3.77,1.72,7.47,5.05,4.29,3.88,6.28,7.51,5.19,9.52-1.04,1.95-2.41,1.35-6.2-2.72-1.99-2.14-3.96-3.88-4.37-3.88-.44,0-.75.78-.75,1.86,0,1.36.72,2.65,2.69,4.84,3.2,3.56,3.51,5.7,1.11,7.59-.86.68-1.75,1.24-1.97,1.24s-.92-1.06-1.56-2.36c-1.34-2.72-9.53-11.37-10.76-11.37-.56,0-.83.7-.83,2.07,0,1.66.33,2.25,1.65,2.93,1.62.84,5.64,4.89,9.68,9.77,1.16,1.39,2.29,2.52,2.54,2.53.24,0,1.51-.97,2.83-2.16h0ZM567.34,357.85c-.53-1.72-11.52-13.03-12.65-13.03-.59,0-.77.7-.63,2.5.16,2.18.39,2.56,1.9,2.95.94.25,3.84,2.52,6.43,5.05,2.59,2.52,4.86,4.44,5.05,4.25.18-.18.15-.95-.09-1.72h0ZM501.69,485.19c0,.83-.73,1.5-1.63,1.5s-1.63-.67-1.63-1.5.73-1.5,1.63-1.5,1.63.67,1.63,1.5ZM507.46,483.26c0,.83-.73,1.5-1.63,1.5s-1.63-.67-1.63-1.5.73-1.5,1.63-1.5,1.63.67,1.63,1.5Z"/></svg>