<?xml version="1.0" encoding="UTF-8"?><svg id="_色修正" xmlns="http://www.w3.org/2000/svg" viewBox="0 0 900 600"><defs><style>.cls-1{fill:#231815;stroke-width:2px;}.cls-1,.cls-2{stroke:#040000;stroke-miterlimit:8;}.cls-2{fill:none;stroke-width:10px;}.cls-3{fill:#70af58;}.cls-3,.cls-4,.cls-5{stroke-width:0px;}.cls-4{fill:#fff;}.cls-5{fill:#005bab;}</style></defs><rect class="cls-3" width="900" height="600"/><rect class="cls-4" width="900" height="420"/><rect class="cls-5" width="900" height="180"/><path class="cls-1" d="M449.52,191.14c-3.42.07-6.76,3.86-6.76,3.86l.29,40.47-12.78,13.38h10.34l-.09,23.21-61.18,82.39-9.04-3.13-15.81,33.72s39.1,24.48,95.85,23.81c62.29-.74,96.13-24.94,96.13-24.94l-16.34-33.29-8,3.48-61.97-81.96-.09-23.9h10.34l-14.08-13.22.08-40.32s-3.5-3.64-6.92-3.57h0Z"/><path class="cls-2" d="M470.86,288.02h-42.31s-15.36-32.35-12.87-54.97c2.53-23.03,15.7-33.93,33.2-34.12,20.69-.23,31.53,10.14,34.81,33.2,3.25,22.85-12.83,55.89-12.83,55.89h0Z"/><path class="cls-4" d="M375.58,365.14c-.69.92-5.76,11.07-5.76,11.07l8.76-1.84-3-9.22h0Z"/><path class="cls-4" d="M380.64,378.28l-9.22,3,11.07,4.38-1.84-7.38h0Z"/><path class="cls-4" d="M384.8,365.36l4.61,13.6,11.3-3.23-3-6.45-12.91-3.92Z"/><path class="cls-4" d="M391.94,383.82l1.61,5.53,14.98,3.69-5.99-12.68-10.6,3.46h0Z"/><path class="cls-4" d="M408.54,372.28l5.3,12.68,11.3-4.38-3.69-5.53-12.91-2.77Z"/><path class="cls-4" d="M415.92,389.58l1.84,4.84,17.52,2.54-7.38-11.53-11.99,4.15h0Z"/><path class="cls-4" d="M432.74,375.98l6.45,11.3,16.37-5.99-1.84-4.38-20.98-.92h0Z"/><path class="cls-4" d="M442.2,391.42l3.46,5.99,20.29-.69-7.61-11.3-16.14,5.99h0Z"/><path class="cls-4" d="M463.64,376.44l5.53,9.45,12.91-6.22-3.46-5.07-14.98,1.84h0Z"/><path class="cls-4" d="M484.84,383.58l-12.91,6.45,3.46,5.53,17.29-2.77-7.84-9.22h0Z"/><path class="cls-4" d="M489,373.66l6.69,8.3,10.83-8.53-3.69-3.92-13.83,4.15h0Z"/><path class="cls-4" d="M508.82,378.04l-10.37,7.84,2.77,4.84,14.29-3.69-6.69-8.99h0Z"/><path class="cls-4" d="M523.12,361.68l2.54,3.69-7.15,10.6-7.38-9.45,11.99-4.84h0Z"/><path class="cls-4" d="M527.96,370.9l4.38,8.76-8.76,3-.69-4.15,5.07-7.61h0Z"/></svg>