<?xml version="1.0" encoding="UTF-8"?><svg id="_色修正" xmlns="http://www.w3.org/2000/svg" viewBox="0 0 900 600"><defs><style>.cls-1{fill:#fff;}.cls-1,.cls-2,.cls-3{stroke-width:0px;}.cls-2{fill:#ea6000;}.cls-3{fill:#003070;}</style></defs><rect class="cls-3" width="900" height="600"/><g id="r6"><path class="cls-1" d="M204.04,69.87l7.36,122.38h-14.71l7.36-122.38Z"/><path id="r1" class="cls-1" d="M226.72,107.61l-14,86.96-17.35-4.65,31.35-82.31Z"/><path id="r1-2" class="cls-1" d="M247.85,116.37l-36.03,80.37-15.55-8.98,51.59-71.39Z"/><path id="r1-3" class="cls-1" d="M266,130.29l-55.61,68.31-12.7-12.7,68.31-55.61Z"/><path id="r1-4" class="cls-1" d="M279.92,148.44l-71.39,51.59-8.98-15.55,80.37-36.03Z"/><path id="r1-5" class="cls-1" d="M288.68,169.57l-82.31,31.35-4.65-17.35,86.96-14Z"/></g><g id="r6-2"><path class="cls-1" d="M326.42,192.25l-122.38,7.36v-14.71l122.38,7.36Z"/><path id="r1-6" class="cls-1" d="M288.68,214.92l-86.96-14,4.65-17.35,82.31,31.35Z"/><path id="r1-7" class="cls-1" d="M279.92,236.06l-80.37-36.03,8.98-15.55,71.39,51.59Z"/><path id="r1-8" class="cls-1" d="M266,254.2l-68.31-55.61,12.7-12.7,55.61,68.31Z"/><path id="r1-9" class="cls-1" d="M247.85,268.13l-51.59-71.39,15.55-8.98,36.03,80.37Z"/><path id="r1-10" class="cls-1" d="M226.72,276.88l-31.35-82.31,17.35-4.65,14,86.96Z"/></g><g id="r6-3"><path class="cls-1" d="M204.04,314.62l-7.36-122.38h14.71l-7.36,122.38Z"/><path id="r1-11" class="cls-1" d="M181.37,276.88l14-86.96,17.35,4.65-31.35,82.31Z"/><path id="r1-12" class="cls-1" d="M160.23,268.13l36.03-80.37,15.55,8.98-51.59,71.39Z"/><path id="r1-13" class="cls-1" d="M142.09,254.2l55.61-68.31,12.7,12.7-68.31,55.61Z"/><path id="r1-14" class="cls-1" d="M128.16,236.06l71.39-51.59,8.98,15.55-80.37,36.03Z"/><path id="r1-15" class="cls-1" d="M119.41,214.92l82.31-31.35,4.65,17.35-86.96,14Z"/></g><g id="r6-4"><path class="cls-1" d="M81.67,192.25l122.38-7.36v14.71l-122.38-7.36Z"/><path id="r1-16" class="cls-1" d="M119.41,169.57l86.96,14-4.65,17.35-82.31-31.35Z"/><path id="r1-17" class="cls-1" d="M128.16,148.44l80.37,36.03-8.98,15.55-71.39-51.59Z"/><path id="r1-18" class="cls-1" d="M142.09,130.29l68.31,55.61-12.7,12.7-55.61-68.31Z"/><path id="r1-19" class="cls-1" d="M160.23,116.37l51.59,71.39-15.55,8.98-36.03-80.37Z"/><path id="r1-20" class="cls-1" d="M181.37,107.61l31.35,82.31-17.35,4.65-14-86.96Z"/></g><path class="cls-1" d="M0,561.4v-17.4L900,60v174.8L0,561.4Z"/><path class="cls-2" d="M0,550.8v-16.6L900,42.6v104.6L0,550.8Z"/></svg>