<?xml version="1.0" encoding="UTF-8"?><svg id="_色修正" xmlns="http://www.w3.org/2000/svg" viewBox="0 0 900 600"><defs><style>.cls-1{fill:#104097;}.cls-1,.cls-2,.cls-3{stroke-width:0px;}.cls-2{fill:#fff;}.cls-3{fill:#ffd800;}</style></defs><path id="path5" class="cls-1" d="M0,0h900v600H0V0Z"/><path id="path26" class="cls-3" d="M454.82,181.06c3.72,4.34,6.21,8.67,6.21,13.95-3.12,1.54-7.43,2.17-9.92,4.96,15.5-2.17,18.58,15.79,35.94,8.98.63,2.49,3.12,4.66,6.2,3.72l1.86-4.95c6.8-1.86,4.94,9.29,12.41,7.12,3.72,3.1,1.23,8.36,3.72,12.1,0,4.33,1.86,8.05,3.72,11.76,1.86-2.16,3.09-5.26,7.43-4.33,3.09,3.4,5.58,6.5,6.2,10.22-1.26,7.13-3.12,13.32,4.32,17.04v2.17c4.98,2.17,16.13-2.17,16.13,6.5-.63,3.1,3.09.32,4.35,2.17,3.09-1.24,7.43-.61,11.15-.61,3.09,6.5-3.72,11.15-5.57,17.04,3.09,3.09,1.86,8.68,1.23,12.38l-1.86.93c4.94.93,11.15-.6,15.5,2.19l8.06,3.09c3.72-2.16,8.03-2.49,13.01-2.16,3.72,2.79-1.26,7.43,1.86,9.59,4.35,0,8.06.63,8.66,4.35l.63,1.23c3.09-5.58,11.78-1.86,15.5-5.87,6.2,0,7.43,6.8,10.52,10.52,1.26,9.62-10.52,13.97-6.8,23.56-2.49,4.64-7.43,8.36-11.15,12.71,1.23.63.6,2.16.6,3.09-3.72,2.19-.6,8.69-5.57,9.29-.6,4.05-8.03,2.49-5.57,6.83,4.98,6.5-2.46,10.52-2.46,16.43-3.12,3.42-9.32-3.12-9.32,3.42-3.72.93-7.43-3.42-9.89.3-1.26,4.35,2.46,5.87,1.86,10.22,6.17-.63,8.03,5.57,10.52,9.29l6.2,6.2c-6.2,4.94-14.27-.63-21.7,2.16-1.86-.93,0-3.38-1.86-4.31-1.86-2.19-5.57-2.19-8.66-2.79.6,2.79-4.98,3.72-2.49,7.1,0,.93,1.23,3.72-1.23,3.72-4.98,1.56-4.35-4.31-8.69-2.16-5.57,2.16-1.23,10.52-9.29,9.59,1.23,7.47-12.38,12.41-3.09,18.92,1.23,1.23.6,3.72.6,5.57-5.58,4.98-15.47,3.12-21.67,1.26-4.98-1.26-1.86-7.47-3.72-10.85-1.86-3.12-7.43-5.28-7.43-9.62-3.72-1.53-6.84-2.49-9.32-5.58-8.66,8.36-19.21,16.43-31.59,16.72-5.57,2.79-8.69,13.97-17.35,9.32-3.4,5.58-13.64,0-14.25,8.03-4.03,1.56-2.17,6.83-4.64,9.29-.93,6.2,0,11.48,5.26,15.2,2.17,4.64-4.65,4.64-1.86,8.99.63,1.53,0,3.72-.93,4.35-1.86.93-2.47,1.86-1.86,3.72-1.54,0-2.17.93-3.4,2.16-1.56,3.09-6.5,4.65-9.92,6.8-3.4.93-5.89-1.53-8.05-3.72-.63,3.42-3.42,5.28-6.82,5.28-4.96,0-4.03-4.35-7.75-6.2,1.54-5.58-3.42-8.03-1.86-13.01,4.03-3.09,10.83-5.28,8.98-11.78-4.33-5.24-2.79-13.01-7.12-19.21-2.79-2.46-7.43-6.17-5.89-12.08,4.03-4.64,0-10.22-2.17-15.16-.93-4.05-3.4-7.76-3.4-12.41-6.82-4.01-7.13-14.57-16.74-15.5-6.82,0-8.05-8.66-14.87-8.06-.63-1.23-2.17-2.16-3.42-3.38-4.94,3.38-11.15-.93-17.34.6-4.03-6.8,3.4-16.09-7.45-20.14v-4.31c1.24.6,1.86-.63,2.17-1.26.61-4.65-7.75-5.24-4.33-10.52-1.86-1.56-4.03-2.19-2.79-5.28-4.66-9.59-18.6-8.66-21.7-18.28,2.49-2.16,2.49-4.35,3.42-6.2-2.17-3.72-2.79-7.73-2.17-11.75,2.17-.63,3.4-3.42,4.65-5.61-2.79-1.86-6.19-4.64-9.29-3.72-5.57-.93-9.61-5.24-14.57-7.73-1.24-1.23-.61-3.42-.61-4.94,6.82-2.19-.93-11.8,7.43-10.55,2.17-2.79,6.82-3.72,10.22-5.89,3.42-.61,6.2.63,9.61,1.56,2.79,3.7,7.75,2.16,10.53,5.26,2.79-.63,6.21-2.17,9.61-.63,0-5.26,2.47-8.36,6.2-12.08.61-2.16,4.02-3.72,6.8-4.94,5.28,1.23,11.47,1.23,15.2-2.49,2.47,1.56,4.65-1.54,7.43-1.54,3.4-.63,6.19.3,8.68,1.86.3-6.21,11.15-.93,13.32-8.36,2.47-4.96-6.82-6.82-6.21-11.17-1.54-4.96,2.17-7.43,4.03-10.83,2.17-.93,4.65-2.17,7.43-1.56,7.13-2.47,1.56-17.04,13.02-11.76,0,1.54-.63,3.4.3,3.72,4.03,0,4.65-4.65,7.45-6.2,1.23-4.33-1.56-9.61,2.16-13.01,1.86-.31,3.42-.93,4.65-2.49,0-3.4-1.86-5.26-4.65-7.43-.93,1.55-3.4.32-4.96.93,0-3.72-2.16-6.19-2.79-9.61-1.86-.93-2.79-2.47-2.16-4.65,2.79-2.79,0-9.61,6.5-8.06,2.47-2.16,6.82-.62,9.29-4.33,6.5-3.72,15.18-3.72,20.14-10.53,2.17.31,4.65-1.86,6.82,0,.62,4.03,6.51,2.47,6.51,6.2"/><path id="polygon37" class="cls-2" d="M502.8,97.05l-8.57-26.34-8.46,26.34h-27.71l22.42,16.29-8.57,26.34,22.32-16.29,22.42,16.29-8.57-26.34,22.42-16.29h-27.71Z"/><path id="polygon39" class="cls-2" d="M589.95,112.38l-8.57-26.23-8.46,26.23h-27.71l22.42,16.29-8.57,26.34,22.32-16.29,22.42,16.29-8.57-26.34,22.42-16.29h-27.71Z"/><path id="polygon41" class="cls-2" d="M673.08,142.63l-8.46-26.23-8.57,26.23h-27.71l22.42,16.29-8.57,26.34,22.42-16.29,22.32,16.29-8.57-26.34,22.42-16.29h-27.71Z"/><path id="polygon43" class="cls-2" d="M414.27,97.05l-8.46-26.34-8.57,26.34h-27.71l22.42,16.29-8.57,26.34,22.42-16.29,22.32,16.29-8.57-26.34,22.42-16.29h-27.71Z"/><path id="polygon45" class="cls-2" d="M327.12,112.38l-8.46-26.23-8.57,26.23h-27.71l22.42,16.29-8.57,26.34,22.42-16.29,22.32,16.29-8.57-26.34,22.42-16.29h-27.71Z"/><path id="polygon47" class="cls-2" d="M243.99,142.63l-8.57-26.23-8.46,26.23h-27.71l22.42,16.29-8.57,26.34,22.32-16.29,22.42,16.29-8.57-26.34,22.42-16.29h-27.71Z"/></svg>