<?xml version="1.0" encoding="UTF-8"?><svg id="_色修正" xmlns="http://www.w3.org/2000/svg" viewBox="0 0 900 600"><defs><style>.cls-1{fill:#231815;}.cls-1,.cls-2,.cls-3,.cls-4{stroke-width:0px;}.cls-2{fill:#e50012;}.cls-3{fill:#fff000;}.cls-4{fill:#008c3c;}</style></defs><rect class="cls-4" width="900" height="600"/><rect class="cls-3" y="171.43" width="900" height="257.14"/><path class="cls-2" d="M0,0v600l303.07-300"/><g id="star"><g id="c"><path id="t" class="cls-1" d="M456.57,232.25l-23.63,72.71,36.36,11.81"/><path id="t-2" class="cls-1" d="M456.57,232.25l23.63,72.71-36.36,11.81"/></g><g id="c-2"><path id="t-3" class="cls-1" d="M529.29,285.08h-76.46v38.23"/><path id="t-4" class="cls-1" d="M529.29,285.08l-61.85,44.94-22.47-30.93"/></g><g id="c-3"><path id="t-5" class="cls-1" d="M501.51,370.55l-23.63-72.71-36.36,11.81"/><path id="t-6" class="cls-1" d="M501.51,370.55l-61.85-44.94,22.47-30.93"/></g><g id="c-4"><path id="t-7" class="cls-1" d="M411.63,370.55l61.85-44.94-22.47-30.93"/><path id="t-8" class="cls-1" d="M411.63,370.55l23.63-72.71,36.36,11.81"/></g><g id="c-5"><path id="t-9" class="cls-1" d="M383.86,285.08l61.85,44.94,22.47-30.93"/><path id="t-10" class="cls-1" d="M383.86,285.08h76.46v38.23"/></g></g><g id="star-2"><g id="c-6"><path id="t-11" class="cls-1" d="M724.17,232.25l-23.63,72.71,36.36,11.81"/><path id="t-12" class="cls-1" d="M724.17,232.25l23.63,72.71-36.36,11.81"/></g><g id="c-7"><path id="t-13" class="cls-1" d="M796.88,285.08h-76.46v38.23"/><path id="t-14" class="cls-1" d="M796.88,285.08l-61.85,44.94-22.47-30.93"/></g><g id="c-8"><path id="t-15" class="cls-1" d="M769.11,370.55l-23.63-72.71-36.36,11.81"/><path id="t-16" class="cls-1" d="M769.11,370.55l-61.85-44.94,22.47-30.93"/></g><g id="c-9"><path id="t-17" class="cls-1" d="M679.23,370.55l61.85-44.94-22.47-30.93"/><path id="t-18" class="cls-1" d="M679.23,370.55l23.63-72.71,36.36,11.81"/></g><g id="c-10"><path id="t-19" class="cls-1" d="M651.45,285.08l61.85,44.94,22.47-30.93"/><path id="t-20" class="cls-1" d="M651.45,285.08h76.46v38.23"/></g></g></svg>