<?xml version="1.0" encoding="UTF-8"?><svg id="_色修正" xmlns="http://www.w3.org/2000/svg" viewBox="0 0 900 600"><defs><style>.cls-1{fill:#e50012;}.cls-1,.cls-2{stroke-width:0px;}.cls-2{fill:#fff;}</style></defs><rect class="cls-1" width="900" height="300"/><rect class="cls-2" y="300" width="900" height="300"/><path class="cls-2" d="M308.68,150c0,62.3-50.51,112.81-112.81,112.81s-112.81-50.51-112.81-112.81,50.51-112.81,112.81-112.81,112.81,50.51,112.81,112.81Z"/><path class="cls-1" d="M344.13,150c0,58.88-47.73,106.61-106.61,106.61s-106.61-47.73-106.61-106.61,47.73-106.61,106.61-106.61,106.61,47.73,106.61,106.61Z"/><path id="star" class="cls-2" d="M209.83,152.72l-15.33-11.76-15.32,11.76,5.9-18.96-15.37-11.69,18.97.04,5.82-18.98,5.83,18.98,18.97-.05-15.37,11.69,5.9,18.95Z"/><path id="star-2" class="cls-2" d="M330.08,152.72l-15.33-11.76-15.32,11.76,5.9-18.96-15.37-11.69,18.97.04,5.82-18.98,5.83,18.98,18.97-.05-15.37,11.69,5.9,18.95Z"/><path id="star-3" class="cls-2" d="M270.02,108.09l-15.33-11.76-15.32,11.76,5.9-18.96-15.37-11.69,18.97.04,5.82-18.98,5.83,18.98,18.97-.05-15.37,11.69,5.9,18.95Z"/><path id="star-4" class="cls-2" d="M232.33,224.13l-15.33-11.76-15.32,11.76,5.9-18.96-15.37-11.69,18.97.04,5.82-18.98,5.83,18.98,18.97-.05-15.37,11.69,5.9,18.95Z"/><path id="star-5" class="cls-2" d="M307.58,224.13l-15.33-11.76-15.32,11.76,5.9-18.96-15.37-11.69,18.97.04,5.82-18.98,5.83,18.98,18.97-.05-15.37,11.69,5.9,18.95Z"/></svg>