<?xml version="1.0" encoding="UTF-8"?><svg id="_色修正" xmlns="http://www.w3.org/2000/svg" viewBox="0 0 900 600"><defs><style>.cls-1,.cls-2{fill:none;}.cls-1,.cls-2,.cls-3,.cls-4,.cls-5,.cls-6,.cls-7,.cls-8{stroke:#76401f;stroke-miterlimit:75.59;}.cls-1,.cls-7,.cls-8{stroke-width:2.2px;}.cls-2,.cls-5,.cls-6{stroke-width:2.2px;}.cls-3{stroke-width:1px;}.cls-3,.cls-4,.cls-5,.cls-8{stroke-linecap:square;}.cls-3,.cls-4,.cls-9{fill:#76401f;}.cls-4{stroke-width:1px;}.cls-5,.cls-6,.cls-7,.cls-8{fill:#efc826;}.cls-9,.cls-10,.cls-11{stroke-width:0px;}.cls-10{fill:#fff;}.cls-11{fill:#0075c1;}</style></defs><rect class="cls-10" width="900" height="600"/><rect class="cls-11" x="333.33" y="66.67" width="566.67" height="66.67"/><rect class="cls-11" x="333.33" y="200" width="566.67" height="66.67"/><rect class="cls-11" y="333.33" width="900" height="66.67"/><rect class="cls-11" y="466.67" width="900" height="66.67"/><path class="cls-8" d="M159.12,199.26l11.04,16.48c-45.34,32.81-17.66,52.22-49.79,62.72,19.98-19.5-2.64-22.51,14.2-63.16"/><path class="cls-5" d="M138.28,184.38l-3.85,19.46c-55.26-8.86-49.41,24.43-79.55,9.14,27.92.34,14.68-18.03,55.33-34.87"/><path class="cls-3" d="M138.28,184.38l-8.71-1.57.09.36c-23.23,5.69-35.84,15.32-45.72,22.64-4.94,3.66-9.21,6.77-13.83,8.46-3.06,1.13-6.35,1.53-9.6,1.15,23.98,8.52,22.39-19.84,73.91-11.58l3.85-19.46Z"/><path class="cls-2" d="M129.4,182.1c-46.84,11.47-51.28,39.1-74.53,30.87"/><path class="cls-7" d="M166.67,166.67l-15.56-15.55-70,101.11,101.12-70-15.56-15.56-85.56,85.56"/><path class="cls-5" d="M134.07,159.12l-16.48,11.03c-32.81-45.34-52.22-17.66-62.72-49.79,19.5,19.98,22.7-2.6,63.35,14.24"/><path class="cls-3" d="M134.07,159.12l-5.05-7.27-.19.32c-20.45-12.4-36.18-14.51-48.34-16.32-6.08-.91-11.29-1.72-15.76-3.8-2.97-1.36-5.57-3.41-7.6-5.97,10.94,22.98,29.87,1.8,60.46,44.07l16.48-11.04Z"/><path class="cls-2" d="M129.4,151.23c-41.23-25.02-63.9-8.61-74.53-30.87"/><path class="cls-6" d="M166.67,166.67v-22l-121,22,121,22v-22H45.67"/><path class="cls-9" d="M166.67,166.67v22-22H45.67l121,22"/><path class="cls-5" d="M148.96,138.28l-19.45-3.85c8.85-55.26-24.44-49.41-9.14-79.56-.34,27.92,18.98,16.91,35.82,57.56"/><path class="cls-3" d="M148.95,138.29l1.57-8.71-.36.09c-5.69-23.23-15.32-35.84-22.64-45.72-3.66-4.94-6.77-9.2-8.46-13.83-1.13-3.06-1.53-6.35-1.15-9.59-8.52,23.98,19.84,22.39,11.58,73.91l19.46,3.85Z"/><path class="cls-2" d="M151.23,129.4c-11.46-46.84-39.1-51.27-30.87-74.53"/><path class="cls-6" d="M166.67,166.67l15.56-15.55-101.12-70,70,101.12,15.56-15.56-85.56-85.56"/><path class="cls-9" d="M166.67,166.67l-15.56,15.56,15.56-15.56-85.56-85.56,70,101.12"/><path class="cls-5" d="M174.21,134.08l-11.04-16.48c45.34-32.81,17.66-52.22,49.79-62.72-19.98,19.5,2.53,22.72-14.31,63.37"/><path class="cls-3" d="M174.21,134.07l7.26-5.05-.32-.19c12.4-20.45,14.51-36.18,16.32-48.34.91-6.08,1.72-11.3,3.8-15.76,1.36-2.97,3.41-5.57,5.96-7.6-22.98,10.93-1.8,29.86-44.07,60.45l11.04,16.48Z"/><path class="cls-2" d="M182.1,129.4c25.01-41.23,8.61-63.9,30.87-74.53"/><path class="cls-6" d="M166.67,166.67h22l-22-121-22,121h22V45.67"/><path class="cls-9" d="M166.67,166.67h-22,22V45.67l-22,121"/><path class="cls-5" d="M195.05,148.96l3.85-19.45c55.26,8.86,49.41-24.44,79.56-9.14-27.93-.34-15.49,18.13-56.14,34.97"/><path class="cls-3" d="M195.05,148.95l8.71,1.57-.09-.36c23.23-5.69,35.84-15.32,45.72-22.64,4.94-3.66,9.21-6.77,13.83-8.46,3.06-1.13,6.35-1.53,9.6-1.15-23.98-8.52-22.39,19.84-73.91,11.58l-3.85,19.46Z"/><path class="cls-2" d="M203.93,151.23c46.84-11.46,51.28-39.1,74.53-30.87"/><path class="cls-6" d="M166.67,166.67l15.56,15.56,70-101.12-101.12,70,15.56,15.55,85.56-85.56"/><path class="cls-9" d="M166.67,166.67l-15.56-15.55,15.56,15.55,85.56-85.56-101.12,70.01"/><path class="cls-5" d="M199.26,174.21l16.48-11.03c32.81,45.34,52.22,17.66,62.72,49.79-19.51-19.98-23.17,2.38-63.82-14.46"/><path class="cls-3" d="M199.26,174.21l5.05,7.26.19-.32c20.45,12.4,36.18,14.51,48.34,16.32,6.08.91,11.3,1.72,15.76,3.8,2.97,1.36,5.57,3.41,7.6,5.97-10.93-22.98-29.87-1.8-60.46-44.07l-16.48,11.04Z"/><path class="cls-2" d="M203.93,182.1c41.23,25.02,63.9,8.61,74.53,30.87"/><path class="cls-6" d="M166.67,166.67v22l121-22-121-22v22h121"/><path class="cls-9" d="M166.67,166.67v-22,22h121l-121-22"/><path class="cls-5" d="M184.38,195.05l19.46,3.85c-8.86,55.26,24.43,49.41,9.14,79.56.34-27.92-18.05-14.99-34.88-55.64"/><path class="cls-3" d="M184.38,195.05l-1.57,8.71.36-.09c5.69,23.23,15.32,35.84,22.64,45.72,3.66,4.94,6.77,9.2,8.46,13.83,1.13,3.06,1.53,6.35,1.16,9.59,8.52-23.98-19.84-22.39-11.59-73.91l-19.46-3.85Z"/><path class="cls-2" d="M182.1,203.93c11.46,46.84,39.09,51.27,30.86,74.53"/><path class="cls-6" d="M166.67,166.67l-15.56,15.56,101.12,70-70-101.12-15.56,15.55,85.56,85.56"/><path class="cls-9" d="M166.67,166.67l15.56-15.55-15.56,15.55,85.56,85.56-70-101.12"/><path class="cls-4" d="M159.12,199.26l-7.26,5.05.32.19c-12.4,20.45-14.51,36.18-16.32,48.34-.91,6.08-1.72,11.3-3.8,15.76-1.36,2.97-3.41,5.57-5.96,7.6,22.98-10.93,1.8-29.87,44.07-60.46l-11.04-16.48Z"/><path class="cls-1" d="M151.23,203.93c-25.02,41.23-8.61,63.9-30.87,74.53"/><path class="cls-7" d="M166.67,166.67h-22l22,121,22-121h-22v121"/><path class="cls-9" d="M166.67,166.67h22-22v121l22-121"/><path class="cls-9" d="M166.67,166.67l15.56,15.56-15.56-15.56-85.56,85.56,101.12-70"/><circle class="cls-7" cx="166.67" cy="166.67" r="40.33"/><path class="cls-9" d="M196.37,150.53c-2.57,2.93-4.03-2.2-13.2-2.2s-10.63,5.5-12.1,4.4c-1.47-1.1,7.7-7.7,10.64-8.06,2.93-.37,11.36,2.57,14.66,5.87M185.73,153.83c2.57,2.2.37,6.97-2.2,6.97s-7.33-4.4-5.13-7.34"/><path class="cls-9" d="M173.63,157.13c.37-4.4,4.04-5.13,9.9-5.13s8.44,4.4,10.64,5.5c-2.57,0-4.77-3.67-10.63-3.67s-5.87,0-9.9,3.67M174.73,158.23c1.47-2.2,3.3,2.2,7.33,2.2s6.23-1.1,8.8-2.93c2.57-1.84-3.67,4.4-7.7,4.4s-9.54-2.2-8.43-3.67M146.13,153.47c-1.84.73-4.77,4.4,0,6.97-3.67-2.57-.73-6.23,0-6.97Z"/><path class="cls-9" d="M187.2,153.47c.73.73,3.66,4.4,0,6.97,4.77-2.57,1.83-6.23,0-6.97ZM160.8,169.23c-3.3.73-2.2,5.5-5.13,5.87-2.93.37-4.4,3.67-4.03,3.3,1.83-1.47,5.87-2.57,8.8-2.57s3.67,1.84,6.23,1.84,3.3-1.84,6.23-1.84,6.97,1.1,8.8,2.57c.36.37-1.1-2.93-4.03-3.3-2.94-.37-1.84-5.13-5.14-5.87,0,1.47,1.1,1.1,1.47,3.3,0,1.84-3.3,1.84-4.03,0,.73,2.93-1.47,2.93-3.3,2.93s-4.03,0-3.3-2.93c-.73,1.84-4.03,1.84-4.03,0,.37-2.2,1.47-1.84,1.47-3.3ZM149.43,181.7c-2.93,2.2-3.66,3.3-4.03,5.87.88-1.54,1.31-2.17,1.98-3.08l-.51-.22c.21.03.4.06.61.09.44-.6.84-1.12,1.95-2.65h0Z"/><path class="cls-9" d="M147.48,184.35l-.05.06c.46.11.95.15,1.45.16-.47-.08-.93-.16-1.4-.22h0ZM148.88,184.58c2.29.4,4.08.93,5.73,1.46,2.05-.15,4.88-.67,12.06-.67s10,.52,12.05.67c1.64-.53,3.44-1.06,5.72-1.46-4.04.01-9.42-2.88-11.91-2.88-2.93,0-3.66.73-5.86.73s-2.93-.73-5.87-.73c-2.49,0-7.87,2.89-11.91,2.88h0ZM184.44,184.58c.51,0,1-.05,1.46-.16l-.05-.06c-.49.07-.96.14-1.41.22h0Z"/><path class="cls-9" d="M185.85,184.35c.21-.03.4-.06.61-.09-.18.08-.33.14-.51.22.67.9,1.1,1.54,1.98,3.08-.37-2.57-1.1-3.67-4.03-5.87,1.12,1.54,1.51,2.05,1.95,2.65h0Z"/><path class="cls-9" d="M185.96,184.49s-.01-.02-.02-.03c-3.83,1.48-5.17,1.73-7.21,1.57-3.48,1.13-6.34,2.26-12.05,2.26s-8.58-1.14-12.05-2.26c-2.04.15-3.39-.1-7.21-1.57,0,0-.01.02-.02.03,11.52,4.96,10.26,6.74,19.29,6.74s7.77-1.79,19.29-6.74h0ZM147.4,184.47s.02-.03.04-.05c-.19-.04-.39-.09-.57-.15.21.08.33.12.53.2h0ZM185.93,184.47c.19-.08.32-.12.53-.2-.18.06-.37.11-.57.15.01.02.02.03.04.05h0ZM136.97,150.53c2.57,2.93,4.03-2.2,13.2-2.2s10.63,5.5,12.1,4.4-7.7-7.7-10.63-8.06c-2.93-.36-11.37,2.57-14.67,5.87M147.6,153.83c-2.57,2.2-.37,6.97,2.2,6.97s7.34-4.4,5.13-7.34"/><path class="cls-9" d="M159.7,157.13c-.37-4.4-4.03-5.13-9.9-5.13s-8.44,4.4-10.64,5.5c2.57,0,4.77-3.67,10.63-3.67s5.87,0,9.9,3.67M158.6,158.23c-1.47-2.2-3.3,2.2-7.33,2.2s-6.23-1.1-8.8-2.93c-2.57-1.83,3.67,4.4,7.7,4.4s9.53-2.2,8.43-3.67M166.67,194.53c-1.84,0-6.6,1.1,0,1.1s1.84-1.1,0-1.1"/></svg>