<?xml version="1.0" encoding="UTF-8"?><svg id="_色修正" xmlns="http://www.w3.org/2000/svg" xmlns:xlink="http://www.w3.org/1999/xlink" viewBox="0 0 900 600"><defs><style>.cls-1{clip-path:url(#clippath);}.cls-2,.cls-3{fill:none;}.cls-2,.cls-4,.cls-5,.cls-6,.cls-7,.cls-8,.cls-9,.cls-10{stroke-width:0px;}.cls-3{stroke:#fff;stroke-miterlimit:80;stroke-width:60px;}.cls-4{fill:#1c2c56;}.cls-5{fill:#e50012;}.cls-6{fill:#fff;}.cls-7{fill:#ffd900;}.cls-8{fill:#e62a23;}.cls-9{fill:#f1d320;}.cls-10{fill:#002b69;}</style><clipPath id="clippath"><rect class="cls-2" y=".19" width="450" height="300"/></clipPath></defs><rect class="cls-7" width="900" height="600"/><rect class="cls-10" y=".19" width="450" height="300"/><g class="cls-1"><line class="cls-3" x1="-10.29" y1="-4.55" x2="456.86" y2="306.84"/><line class="cls-3" x1="-9.6" y1="306.84" x2="457.55" y2="-4.55"/><polyline class="cls-8" points="224.13 128.27 241.46 139.82 458.05 -4.55 448.83 -21.51"/><polyline class="cls-8" points="-9.25 307.48 -.38 323.8 223.63 174.48 206.3 162.93"/><polygon class="cls-5" points="-21.48 12.89 -11.08 -6.23 209.01 139.82 188.97 153.18 -21.48 12.89"/><polygon class="cls-5" points="238.26 162.93 258.29 149.57 468.06 289.4 457.4 309 238.26 162.93"/><polygon class="cls-5" points="221.43 128.27 449.36 -23.67 460.02 -4.06 241.46 141.62 221.43 128.27"/><polygon class="cls-5" points="-11.23 306.99 206.3 161.12 226.34 174.48 -.91 325.96 -11.23 306.99"/><polygon class="cls-8" points="223.63 151.37 240.96 162.93 258.29 151.37 240.96 139.82 223.63 151.37"/><polygon class="cls-8" points="223.63 151.37 206.3 139.82 188.97 151.37 206.3 162.93 223.63 151.37"/><polygon class="cls-8" points="223.63 151.37 240.96 139.82 223.63 128.27 206.3 139.82 223.63 151.37"/><polygon class="cls-8" points="223.63 151.37 206.3 162.93 223.63 174.48 240.96 162.93 223.63 151.37"/><rect class="cls-6" x="-4.71" y="110.19" width="457.98" height="80"/><rect class="cls-6" x="184.31" y=".76" width="80" height="299.24"/><rect class="cls-5" x="200.02" y=".76" width="48" height="299.24"/><rect class="cls-5" x="200.66" y="-79.77" width="48" height="460.29" transform="translate(74.28 375.04) rotate(-90)"/></g><rect class="cls-2" width="450" height="300"/><rect class="cls-2" width="450" height="300"/><circle class="cls-4" cx="223.8" cy="147.91" r="39.68"/><path id="s" class="cls-9" d="M223.8,108.23l23.32,71.78-61.06-44.36h75.47l-61.06,44.36"/><path id="s-2" class="cls-9" d="M89.75,126.85l13.71,42.19-35.89-26.08h44.36l-35.89,26.08"/><path id="s-3" class="cls-9" d="M354.84,126.85l13.71,42.19-35.89-26.08h44.36l-35.89,26.08"/><path id="s-4" class="cls-9" d="M223.8,214.59l13.71,42.19-35.89-26.08h44.36l-35.89,26.08"/><path id="s-5" class="cls-9" d="M223.8,39.1l13.71,42.19-35.89-26.08h44.36l-35.89,26.08"/></svg>