<?xml version="1.0" encoding="UTF-8"?><svg id="_色修正" xmlns="http://www.w3.org/2000/svg" viewBox="0 0 900 600"><defs><style>.cls-1{fill:#231815;}.cls-1,.cls-2,.cls-3,.cls-4,.cls-5{stroke-width:0px;}.cls-2{fill:#e50012;}.cls-3{fill:#fff;}.cls-4{fill:#fbc600;}.cls-5{fill:#004097;}</style></defs><rect class="cls-3" width="900" height="600"/><rect class="cls-1" width="900" height="234.78"/><g id="c3"><path id="c" class="cls-4" d="M254.35,234.78l195.65-37.45v74.9l-195.65-37.45Z"/><path id="c-2" class="cls-4" d="M269.24,159.91l195.09,40.27-28.66,69.2-166.43-109.47Z"/><path id="c-3" class="cls-4" d="M311.65,96.44l164.83,111.87-52.96,52.96-111.87-164.83Z"/></g><g id="c3-2"><path id="c-4" class="cls-4" d="M375.13,54.02l109.47,166.43-69.2,28.66-40.27-195.09Z"/><path id="c-5" class="cls-4" d="M450,39.13l37.45,195.65h-74.9l37.45-195.65Z"/><path id="c-6" class="cls-4" d="M524.87,54.02l-40.27,195.09-69.2-28.66,109.47-166.43Z"/></g><g id="c3-3"><path id="c-7" class="cls-4" d="M588.35,96.44l-111.87,164.83-52.96-52.96,164.83-111.87Z"/><path id="c-8" class="cls-4" d="M630.76,159.91l-166.43,109.47-28.66-69.2,195.09-40.27Z"/><path id="c-9" class="cls-4" d="M645.65,234.78l-195.65,37.45v-74.9l195.65,37.45Z"/></g><rect class="cls-5" y="234.78" width="900" height="130.43"/><path class="cls-2" d="M0,0v600h900V0l-450,600L0,0Z"/></svg>