<?xml version="1.0" encoding="UTF-8"?><svg id="_色修正" xmlns="http://www.w3.org/2000/svg" viewBox="0 0 900 600"><defs><style>.cls-1{fill:#e50012;}.cls-1,.cls-2,.cls-3{stroke-width:0px;}.cls-2{fill:#fff;}.cls-3{fill:#008c3c;}</style></defs><rect class="cls-2" width="900" height="600"/><rect class="cls-3" width="450" height="600"/><path class="cls-1" d="M580,225c-41.42-71.74-133.16-96.33-204.9-54.9-71.74,41.42-96.33,133.16-54.9,204.9,41.42,71.74,133.16,96.33,204.9,54.9,22.8-13.17,41.74-32.1,54.9-54.9-41.42,51.74-116.94,60.1-168.67,18.67-51.74-41.42-60.1-116.94-18.67-168.67s116.94-60.1,168.67-18.67c6.89,5.52,13.16,11.78,18.67,18.67M585,300l-135-44,84,115v-142l-84,115,135-44Z"/></svg>