<?xml version="1.0" encoding="UTF-8"?><svg id="_色修正" xmlns="http://www.w3.org/2000/svg" viewBox="0 0 900 600"><defs><style>.cls-1{fill:#231815;stroke:#fff;stroke-miterlimit:21.82;stroke-width:48.46px;}.cls-2{fill:#e50012;}.cls-2,.cls-3,.cls-4{stroke-width:0px;}.cls-3{fill:#fff;}.cls-4{fill:#003070;}</style></defs><rect class="cls-2" width="900" height="600"/><path class="cls-1" d="M0,81.82h900M0,190.91h900M0,300h900M0,409.09h900M0,518.18h900"/><rect class="cls-4" width="271.63" height="275.87"/><g id="B"><polygon id="A" class="cls-3" points="136.36 58.55 111.08 136.36 149.99 149 136.36 58.55"/><polygon id="A-2" class="cls-3" points="136.36 58.55 161.65 136.36 122.74 149 136.36 58.55"/></g><g id="B-2"><polygon id="A-3" class="cls-3" points="214.18 115.08 132.36 115.08 132.36 155.99 214.18 115.08"/><polygon id="A-4" class="cls-3" points="214.18 115.08 147.99 163.17 123.94 130.08 214.18 115.08"/></g><g id="B-3"><polygon id="A-5" class="cls-3" points="58.55 115.08 124.74 163.17 148.79 130.08 58.55 115.08"/><polygon id="A-6" class="cls-3" points="58.55 115.08 140.37 115.08 140.37 155.99 58.55 115.08"/></g><g id="B-4"><polygon id="A-7" class="cls-3" points="184.46 206.56 159.17 128.74 120.27 141.38 184.46 206.56"/><polygon id="A-8" class="cls-3" points="184.46 206.56 118.26 158.46 142.31 125.37 184.46 206.56"/></g><g id="B-5"><polygon id="A-9" class="cls-3" points="88.27 206.56 154.46 158.46 130.42 125.37 88.27 206.56"/><polygon id="A-10" class="cls-3" points="88.27 206.56 113.56 128.74 152.46 141.38 88.27 206.56"/></g></svg>