<?xml version="1.0" encoding="UTF-8"?><svg id="_色修正" xmlns="http://www.w3.org/2000/svg" xmlns:xlink="http://www.w3.org/1999/xlink" viewBox="0 0 900 600"><defs><style>.cls-1{clip-path:url(#clippath);}.cls-2{fill:none;}.cls-2,.cls-3,.cls-4,.cls-5,.cls-6,.cls-7{stroke-width:0px;}.cls-3{fill:#231815;}.cls-4{fill:#e50012;}.cls-5{fill:#fff;}.cls-6{fill:#fff000;}.cls-7{fill:#003070;}</style><clipPath id="clippath"><path class="cls-2" d="M-1000-700H-100V-100h-900"/></clipPath></defs><path class="cls-5" d="M0,0h900v600H0V0Z"/><path class="cls-7" d="M0,300V0h300v450L0,300Z"/><path class="cls-4" d="M0,300h900v300H0v-300Z"/><path class="cls-5" d="M150,75l44.1,135.6-115.5-83.7h142.8l-115.5,83.85,44.1-135.75Z"/><g class="cls-1"><path class="cls-3" d="M-1450,200L350-1000V200L-1450-1000"/><path class="cls-6" d="M393.3,280.91L-550-347.96-1425.98,236.03l-48.04-72.06L-628.06-400l-845.96-563.97,48.04-72.06L-550-452.04l943.3-628.87V280.91ZM-471.94-400L306.7,119.09V-919.09L-471.94-400Z"/></g></svg>