<?xml version="1.0" encoding="UTF-8"?><svg id="_色修正" xmlns="http://www.w3.org/2000/svg" viewBox="0 0 900 600"><defs><style>.cls-1{fill:#47803e;}.cls-1,.cls-2,.cls-3{stroke-width:0px;}.cls-2{fill:#f2c81f;}.cls-3{fill:#fff;}</style></defs><rect class="cls-3" width="900" height="600"/><path id="branch" class="cls-1" d="M434.8,498.25c-.18-.09-.22-.12-.35-.24l-.12-.12c-.32-.3-.86-.82-1.58-1.64-1.33-1.51-3.12-3.73-4.69-5.68-3.11-3.88-5.69-7.23-6.17-7.86l-.79-1.03-7.77-2.39-5.67-2.64,3.03-3.41,10.41,4.46,7.77,1.59,14.36,10.56h-.01s-2.09,1.75-4.14,3.61c-.91.83-2.06,1.9-2.88,2.78-.38.41-.7.81-.93,1.14-.14.2-.21.38-.25.47l.89-.55.97.75-1.97.18-.09.02h-.01ZM381.46,482.23c-6.78,0-13.47-1.87-19.89-5.57h0s0-.01,0-.01c0,0,.84-1.6,2.88-3.1,1.94-1.42,5.44-3.13,11.1-3.15h.12c6.7,0,14.9,2.28,24.37,6.77-.32.21-7.76,5.05-18.57,5.05h.01s-.01,0-.01,0ZM352.09,475.72c-1.25,0-2.38-.47-3.17-1.33-.65-.71-1.11-1.65-1.42-2.88-.5-2.02-.36-4.02-.35-4.22.53-.22,1.06-.34,1.56-.35h.11c2.51,0,4.49,2.18,5.34,4.33.48,1.23.57,2.26.27,3.07-.3.81-1.24,1.37-2.34,1.37h0ZM403.77,469.73c-17.36-2.48-24.72-8.76-27.83-13.58-3.32-5.15-2.64-9.91-2.63-9.96h0s.01-.02.01-.02c0,0,1.06-.29,2.66-.29,4.62,0,16.43,2.32,27.8,23.84h0s-.02,0-.02,0h0ZM368.19,466.29c-7.42,0-13.06-1.28-16.78-3.8-2.14-1.45-3.18-3.04-3.69-4.12-.47-1.01-.58-1.86-.59-2.02.2-.09,3.23-1.44,7.77-1.65.38-.02.77-.03,1.17-.03,5.73,0,14.45,1.87,23.65,10.78h0s-.01.01-.01.01c-4.2.55-8.08.84-11.53.84h0ZM332.28,464.91c-7.82,0-18.56-2.39-25.26-9.09h0s.02-.01.02-.01c.07-.02,7.34-1.86,15.52-2.06.49-.01.98-.02,1.48-.02,7.33,0,12.94,1.42,16.68,4.23,1.3.98,2.02,1.89,2.18,2.78.13.75-.26,1.55-1.06,2.15-1.68,1.27-4.69,1.95-8.95,2.02l-.6.02h0ZM306.94,451.91c-.96,0-1.87-.43-2.48-1.17-.51-.61-.86-1.42-1.11-2.52-.42-1.85-.29-3.66-.29-3.67v-.02c.37-.17.77-.26,1.22-.27h0c1.16,0,2.04.63,2.59,1.16.73.7,1.33,1.64,1.69,2.64.36,1.03.42,1.89.18,2.64-.2.59-.88,1.21-1.8,1.21h0ZM365.47,450.59c-1.25,0-2.38-.47-3.17-1.33-.65-.71-1.11-1.65-1.42-2.88-.5-2.02-.36-4.02-.35-4.22.53-.22,1.06-.34,1.56-.35h.11c2.51,0,4.49,2.18,5.34,4.33.48,1.23.57,2.26.27,3.07-.3.82-1.25,1.37-2.34,1.37h0ZM336.96,449.41c-15.74-.55-23.9-5.03-27.98-8.68-2.3-2.06-3.57-4.1-4.24-5.45-.63-1.27-.87-2.25-.91-2.44h.02s1.49-.54,3.89-.59h.37c5.31,0,16.11,2.23,28.85,17.15h0s0,0,0,0ZM354.05,447.82c-12.66-1.93-19.83-7.36-23.62-11.58-3.97-4.42-5.16-8.55-5.21-8.74.02,0,1.57-.41,3.9-.47.17,0,.35,0,.52,0s.36,0,.55,0c6.37.14,17.93,3.02,23.86,20.79h.01,0ZM289.05,441.74c-4.15,0-8.17-.48-11.96-1.43-6.63-1.66-9.47-4.19-10.69-6.02-.69-1.04-.94-1.95-1.03-2.53-.08-.56-.04-1-.03-1.07h.03s4.4-1.25,10.46-1.34c.24,0,.48,0,.73,0,2.93,0,5.81.28,8.56.83,10.54,2.11,16,10.06,16.05,10.14h0s-.01.01-.01.01c-.06.01-5.08,1.42-12.12,1.42h0ZM318.44,431.06c-1.27,0-2.39-.46-3.17-1.3-.64-.69-1.1-1.64-1.42-2.91-.51-2.02-.36-4-.35-4.18.53-.22,1.06-.34,1.56-.35h.11c2.51,0,4.49,2.18,5.34,4.34.47,1.19.55,2.21.24,3.03-.31.84-1.22,1.38-2.31,1.38h0ZM296.34,428.03c-.1-.02-5.98-1.54-11.97-5.23-5.54-3.41-12.33-9.45-13.15-18.83h0s.01,0,.01,0c0,0,.52-.12,1.28-.15.11,0,.22,0,.33,0,1.66,0,5.05.47,9.15,3.58,5.22,3.98,10.04,10.92,14.35,20.65h0ZM310.77,427.5s-4.23-1.69-9.47-6.08c-4.88-4.09-11.75-11.46-16.72-23.33,0,0,1.14-.61,2.89-.72.1,0,.2,0,.31,0,.15,0,.3,0,.46,0,2.41.07,6.08,1.07,10.15,5.46,4.68,5.05,8.85,13.34,12.4,24.65v.03s-.02-.01-.02-.01h0ZM273.38,426.41c-4.82,0-6.47-2.61-6.96-3.74-.8-1.85-.56-3.69-.55-3.71v-.02c.78-.2,1.61-.3,2.4-.31h.17c3.8,0,6.8,1.93,8.08,3.84.26.38,1.04,1.69.39,2.72-.52.81-1.7,1.22-3.53,1.22h0ZM262.7,412.94c-2.69,0-6.81-.17-11.14-.95-4.29-.78-6.73-4.43-8.01-7.36-1.4-3.18-1.79-6.22-1.8-6.25h.01c13.28.39,19.56,4.27,22.48,7.46,3.02,3.29,3.2,6.71,3.21,6.92h0s-1.89.18-4.74.18h0ZM276.53,399.12s-1.54-1.9-3.03-4.23c-1.57-2.45-3.03-5-3.03-7.08s-.47-6.27-.76-8.62c-.36-2.98-.72-5.54-.75-5.76h.01c.34.13,8.31,3.12,8.31,10.6s-.74,15.01-.74,15.09h0s-.01.01-.01.01h0ZM266.2,398.41c-.08,0-.17,0-.25-.02-2.36-.39-6.5-2.19-11.07-4.82-5.08-2.91-9.21-6.04-11.62-8.79-2.2-2.51-3.5-6.46-3.88-11.73-.27-3.74.05-6.85.09-7.16.41-.14.85-.2,1.32-.2,1.76.03,3.65.82,6.19,2.57,1.98,1.36,4.16,3.22,6.49,5.51,4.01,3.96,7.17,7.93,7.2,7.97l.03.04c.27.48,2.54,4.57,4.31,8.56,1.12,2.53,1.77,4.36,2.02,5.75.15.79.19,1.31,0,1.78-.08.2-.23.38-.39.45-.14.06-.28.09-.44.09h0Z"/><path id="branch-2" class="cls-1" d="M407.38,498.25c.18-.09.22-.12.35-.24l.12-.12c.32-.3.86-.82,1.58-1.64,1.33-1.51,3.12-3.73,4.69-5.68,3.11-3.88,5.69-7.23,6.17-7.86l.79-1.03,7.77-2.39,5.67-2.64-3.03-3.41-10.41,4.46-7.77,1.59-14.36,10.56h.01s2.09,1.75,4.14,3.61c.91.83,2.06,1.9,2.88,2.78.38.41.7.81.93,1.14.14.2.21.38.25.47l-.89-.55-.97.75,1.97.18.09.02h.01ZM460.72,482.23c6.78,0,13.47-1.87,19.89-5.57h0s0-.01,0-.01c0,0-.84-1.6-2.88-3.1-1.94-1.42-5.44-3.13-11.1-3.15h-.12c-6.7,0-14.9,2.28-24.37,6.77.32.21,7.76,5.05,18.57,5.05h-.01s.01,0,.01,0ZM490.09,475.72c1.25,0,2.38-.47,3.17-1.33.65-.71,1.11-1.65,1.42-2.88.5-2.02.36-4.02.35-4.22-.53-.22-1.06-.34-1.56-.35h-.11c-2.51,0-4.49,2.18-5.34,4.33-.48,1.23-.57,2.26-.27,3.07.3.81,1.24,1.37,2.34,1.37h0ZM438.41,469.73c17.36-2.48,24.72-8.76,27.83-13.58,3.32-5.15,2.64-9.91,2.63-9.96h0s-.01-.02-.01-.02c0,0-1.06-.29-2.66-.29-4.62,0-16.43,2.32-27.8,23.84h0s.02,0,.02,0h0ZM473.99,466.29c7.42,0,13.06-1.28,16.78-3.8,2.14-1.45,3.18-3.04,3.69-4.12.47-1.01.58-1.86.59-2.02-.2-.09-3.23-1.44-7.77-1.65-.38-.02-.77-.03-1.17-.03-5.73,0-14.45,1.87-23.65,10.78h0s.01.01.01.01c4.2.55,8.08.84,11.53.84h0ZM509.9,464.91c7.82,0,18.56-2.39,25.26-9.09h0s-.02-.01-.02-.01c-.07-.02-7.34-1.86-15.52-2.06-.49-.01-.98-.02-1.48-.02-7.33,0-12.94,1.42-16.68,4.23-1.3.98-2.02,1.89-2.18,2.78-.13.75.26,1.55,1.06,2.15,1.68,1.27,4.69,1.95,8.95,2.02l.6.02h0ZM535.24,451.91c.96,0,1.87-.43,2.48-1.17.51-.61.86-1.42,1.11-2.52.42-1.85.29-3.66.29-3.67v-.02c-.37-.17-.77-.26-1.22-.27h0c-1.16,0-2.04.63-2.59,1.16-.73.7-1.33,1.64-1.69,2.64-.36,1.03-.42,1.89-.18,2.64.2.59.88,1.21,1.8,1.21h0ZM476.71,450.59c1.25,0,2.38-.47,3.17-1.33.65-.71,1.11-1.65,1.42-2.88.5-2.02.36-4.02.35-4.22-.53-.22-1.06-.34-1.56-.35h-.11c-2.51,0-4.49,2.18-5.34,4.33-.48,1.23-.57,2.26-.27,3.07.3.82,1.25,1.37,2.34,1.37h0ZM505.22,449.41c15.74-.55,23.9-5.03,27.98-8.68,2.3-2.06,3.57-4.1,4.24-5.45.63-1.27.87-2.25.91-2.44h-.02s-1.49-.54-3.89-.59h-.37c-5.31,0-16.11,2.23-28.85,17.15h0s0,0,0,0ZM488.13,447.82c12.66-1.93,19.83-7.36,23.62-11.58,3.97-4.42,5.16-8.55,5.21-8.74-.02,0-1.57-.41-3.9-.47-.17,0-.35,0-.52,0s-.36,0-.55,0c-6.37.14-17.93,3.02-23.86,20.79h-.01,0ZM553.13,441.74c4.15,0,8.17-.48,11.96-1.43,6.63-1.66,9.47-4.19,10.69-6.02.69-1.04.94-1.95,1.03-2.53.08-.56.04-1,.03-1.07h-.03s-4.4-1.25-10.46-1.34c-.24,0-.48,0-.73,0-2.93,0-5.81.28-8.56.83-10.54,2.11-16,10.06-16.05,10.14h0s.01.01.01.01c.06.01,5.08,1.42,12.12,1.42h0ZM523.74,431.06c1.27,0,2.39-.46,3.17-1.3.64-.69,1.1-1.64,1.42-2.91.51-2.02.36-4,.35-4.18-.53-.22-1.06-.34-1.56-.35h-.11c-2.51,0-4.49,2.18-5.34,4.34-.47,1.19-.55,2.21-.24,3.03.31.84,1.22,1.38,2.31,1.38h0ZM545.84,428.03c.1-.02,5.98-1.54,11.97-5.23,5.54-3.41,12.33-9.45,13.15-18.83h0s-.01,0-.01,0c0,0-.52-.12-1.28-.15-.11,0-.22,0-.33,0-1.66,0-5.05.47-9.15,3.58-5.22,3.98-10.04,10.92-14.35,20.65h0ZM531.41,427.5s4.23-1.69,9.47-6.08c4.88-4.09,11.75-11.46,16.72-23.33,0,0-1.14-.61-2.89-.72-.1,0-.2,0-.31,0-.15,0-.3,0-.46,0-2.41.07-6.08,1.07-10.15,5.46-4.68,5.05-8.85,13.34-12.4,24.65v.03s.02-.01.02-.01h0ZM568.8,426.41c4.82,0,6.47-2.61,6.96-3.74.8-1.85.56-3.69.55-3.71v-.02c-.78-.2-1.61-.3-2.4-.31h-.17c-3.8,0-6.8,1.93-8.08,3.84-.26.38-1.04,1.69-.39,2.72.52.81,1.7,1.22,3.53,1.22h0ZM579.48,412.94c2.69,0,6.81-.17,11.14-.95,4.29-.78,6.73-4.43,8.01-7.36,1.4-3.18,1.79-6.22,1.8-6.25h-.01c-13.28.39-19.56,4.27-22.48,7.46-3.02,3.29-3.2,6.71-3.21,6.92h0s1.89.18,4.74.18h0ZM565.65,399.12s1.54-1.9,3.03-4.23c1.57-2.45,3.03-5,3.03-7.08s.47-6.27.76-8.62c.36-2.98.72-5.54.75-5.76h-.01c-.34.13-8.31,3.12-8.31,10.6s.74,15.01.74,15.09h0s.01.01.01.01h0ZM575.98,398.41c.08,0,.17,0,.25-.02,2.36-.39,6.5-2.19,11.07-4.82,5.08-2.91,9.21-6.04,11.62-8.79,2.2-2.51,3.5-6.46,3.88-11.73.27-3.74-.05-6.85-.09-7.16-.41-.14-.85-.2-1.32-.2-1.76.03-3.65.82-6.19,2.57-1.98,1.36-4.16,3.22-6.49,5.51-4.01,3.96-7.17,7.93-7.2,7.97l-.03.04c-.27.48-2.54,4.57-4.31,8.56-1.12,2.53-1.77,4.36-2.02,5.75-.15.79-.19,1.31,0,1.78.08.2.23.38.39.45.14.06.28.09.44.09h0Z"/><path class="cls-2" d="M698.83,95.48l-2.35.94-.92.37-2.85-.16-2.67,1.28-4.74,3.24-.21.15-1.77.46-1.64-.71-.93.42-.32,1.92-.89,1.38-1.09.77-3.78.39-3.19,1.64-4.15-1.11-1.93.75-4.1,3.69-2.09.99-.73-.04-2.78-.14-1.17.38-1.75,1.69-3.32.26-1.03.71-1.62,3.26-1.75,1.81-1,.21-1.09-.4-.82.14-.37,2.09-.79.87-2.22.76-1.77,1.48-1.56.8-2.08-.05h-.48l-2.08,1.15-3.91.34-1.62,1.55-.36.33-.76.46-1.24.74-.3.18-1.49-.27-1.75.69-.71-1.09-1.21.73-1.6.07-2-.89-1.52-.68-1.11.16-.39,1.94-.04.21-1.17,1.56-2.18,1.32-.3.39-2.48,3.21-4.72,4.97-3.99,2.03-4.14,1.26-2.9,2.38-7.6,3.77-11.99,5.97-2.45.79-3.52.56-6.28,2.31-5.54,1.67-.31.09-1.1.33-7.81,2.36-3.64-.38-2.15.78-5.6-.62-3.9.08-2.47.51-4.64,2.22-7.83,3.76-2.59,2.37-4.03,2.1-4.71,1.49v-1.98s-.02-.08-.02-.08l-1.64.52-1.18.37-3.83.59h-2.13l-1.32-.38-.2.07-7.82,2.58-8.72.84-4.36,1.4-3.26-.05-2.04.61-3.99.49-1.43-.38-.32-.09-11.75.51-5.37-.61-2.56.58-4.3-1.45-6.27-.73-1.46-.44-3.3-.98-1.49.86-1.12.12-2.67-.97-.96-.02-2.2.8-1.27-.32-1.18-.94-2.76-.41-1.68-1.41-9.4,1.25-2.55-.75-8.55-2.49-1.36.07-1.7,1.27-2.55.93-2.21.57-3.01.1-3.5-.92-3.61-1.75-1.33-.32-2.97.3-.91.08-5.47-2.93-7.04-4.4-4.78-2.3-1.79-.29-.24.85.89,2.8.3,2.77-.09,2.56-.05,1.59.45,1.43,1.73,1.91.72,1.92.53,5.28v5.36s-.85,8.55-.85,8.55l-.28,1.3-1,4.43-.91,4.07-3.55,10.83-.97,1.34-2.39,1.63-5.42,3.69-3.99,2.3-1.26.52-3.24.24-2.02-.1-2.51-1.36-2.47-.63-3.23-2.32-3.6-.74-3.94-2.28-1.03-1.23-2.15-.2-2.98-.89h0s-1.09-.33-1.09-.33l-.76-.22h0s-3.8-.11-3.8-.11l-3.54-1.63-1.86-.45-2.55-.13-2.67,1.24h0s-1.35.62-1.35.62l-1.71-.68-1.23.08-1.4,2.12-.21.33-.96.51-1.2-.02-.94-.02-1.02.44-1.37.59h0s-1.21.53-1.21.53l-.59.26h-.01s-.36.06-.36.06l-.64.11-.8.15-1.41-.82-.75-.44-1.26-.26-.68.49-.13,2.3-.62,1.38-1.96,1.73-1.99,1.76-1.39,2.05-3.68,8.39-2.3,3.38-.71.79-2.41,2.66-2.14,1.66-4.92,3.82-4.66,1.74-4.01.82h-1.95s-3.7-.48-3.7-.48l-3.32-1.02-3.65-2.28-4-3.22-5.79-5.72-.82-.49-.17-.11-1.82-1.17-1.35.04-.53.87-.29,1.26-.24,1.12-.66,6.37.05.37.35,2.62,4.4,6.15,1.36,3.27.22.37.91,1.52.69,1.16.07.12,1.5,4.49-1.06,2.53.53,1.7-1.34,1.04-.24,1.46,3.95,4.95.86,2.18-.96,3.03-1.54,1.67-.43.46.22,1.28,1.82,1.64,3.09,2.75,1.65,4.09,1.25,1.1,1.46-.31.81.62,1.23-.02,1.21,1.21.78.38,1.24.62.98,1.27.22,3.91,1.82,4.86.03,2.64v.37s1.14,1.95,1.14,1.95l.36,1.54-.6,4.07,1.45,1.31,1.57-.32,1.01.16,1.63,1.35,1.97,3,1.93-.28,1.22.59,5.9,5.33,1.34.68.07.04.96.48,1.2,1.21,1.86-1.23.21-.02,2.02-.18.89.6,1.7,1.15,2.23-.03,4.84,1.48,2.12.54,4.26,2.65,1.81,1.12,1.07.87,1.42,1.16,2.85,1.22,2.44.58,1.32.31.99.38.02-.06h.01s-.02.07-.02.07l5.28,2.02,2.86.67,2.65.98,1.93.7,1.41.02,2-1.68,1.94-.11,1.61.4,1.57-.26,2.48-1.53.48-.72,1.76-.84,5.94-.74,1.74.56,4.46-1.94,2.99.83,2.64-.94,5.78,1.28,1.54,1.08,1.72,1.96h.21s1.91.05,1.91.05l-.8,1.33,2.52,2.65,2.28,3.45.15.45,1.66,4.86,1.23,1.72.86,2.4.04,1.57-1.34,1.02-.22.58-.08.22.27.65.51-.28.96-.53,1.17-.18,2.07.22,1.36.14,2.15-1.07,1.43-.71,2.29.99,2.52-.03,1.06.47,2.99,1.36,1.53.14.57-.37.36-.86-.18-1-1.14-1.32-2.53-2.94-1.04-1.51-.79-2.19-.24-2.79-.17-1.89.31-2.48.68-.88.5-1.97h0l.13-.52,1.41-1.87,3.72-2.39,4-3.58,3.16-2.08,3.26-1.41.09-.4.36.15,8.29-2.82.14-.02,3.69-.64,24.92,1.76.92-.28h0s.83-2.34.83-2.34l.45-.43.3-.28,2.74-1.21,1.28-.18,3.56.88,1.46.36,2.33-1.31,1.65.03,3.42-1.87,2.11.05.8-.32,4.11-2.95,3.96-1.14,1.03-.55.36-.2,4.06-2.14,2.58-1.98,2.23-1.18,2.44-.63,6.38-.45,1.28-2.14,2.74-.37,1.66-1.87,1.9-.77,1.36-1.96,1.14-1.64,1.59-.92,5.1-.32,6.05.75.8-.48,1.37-4.88,1.43-.92,3.85-5.61v-2.05s.02-1.71.02-1.71l.63-2.43-.43-4.39.51-4.45,2.39-5.65,2.11-2.28,3.4-2.3,1.73-.75,2.45-.41h0s.36-.07.36-.07l.62-.11,8.43-.12c.12-.09,3.07-.04,3.07-.04l2.81-.04,7.11,1.27.51.09,2.41.78,2.77,2.16,2.94,2.87.55.54,1.9.8.58.25,1.57-.25,2.24-1.17,1.69-1.43,2.3-1.26.06-.08,1.29-1.95.04-.04h.03s0,0,0,0h-.02s.51-.78.51-.78l4.45-1.73,5.23-.3.59-.32.33-.17,1.38-1.62h1.29s3.14,1.12,3.14,1.12l2.2-.44,1.75.7,1.36-.16,2.57-.3,2.75,1.94,1.6.2,5.66,3.31.29.05.15.03.32.05.67-.2,1-.29.13-.04.13.17.64.91.88.13,1.04-1.39-.41-.63-.16-.23-2.02-.41-1.82-3.1,1.73-1.86-2.71-3.33-.45-.55-.15-.23-.94-1.42-4.75-7.23-6.18-4.93h0s-2.16-1.73-2.16-1.73h-.01s-.76-.61-.76-.61l-3.3-3.36-2.36-3.13-.31-.67-.49-1.06-1.41-3.08-2.46-1.9-2.01-2.19-.1-.13-4.14-5.63-.68-.94-.98-.57h-2.07s-.2-.21-.2-.21l-.12-.12.07-.07.99-.99,1.1-.28.48-1.09-2.11-6.1v-.21s-.17-1.95-.17-1.95l1.72-8.85.22-1.08,2.93-5.96,1.81-1.49,1.98-3.89,1.7-2.49,1.62-1.58.28-.17,2.93-1.78,2.47-.35,2.35-.33,4.1,1.26,3.9-.08.76-.08,1.77-.2,2.91-.92,1.37-.85.71-1.09,1.49-4.99.48-1.59.92-1.72,5.31-6.11,4.01-3.71,9.02-6.61,4.41-2.64,2.25-1.35,20.13-8.95,5.23-5.3,2.72-2.76,4.82-3.24,5.64-2.31,4.85-3.84,1.06-1.33,1.34-4.3,1.11-.27,1.01-2.17.29-.62,3.96-2.79.45-.22,15.39-7.71,2.24.31,1.2-1.79,4.48-.75.82-.14,1.1-.55.94-1.6v-.32l.13-4.27.96-1.15.52-2.82.49-.65.51-.68,1.27-.89-.22-.53.02.04Z"/></svg>