<?xml version="1.0" encoding="UTF-8"?><svg id="_色修正" xmlns="http://www.w3.org/2000/svg" viewBox="0 0 900 600"><defs><style>.cls-1{stroke-width:1.26px;}.cls-1,.cls-2,.cls-3,.cls-4,.cls-5,.cls-6,.cls-7,.cls-8,.cls-9,.cls-10,.cls-11{stroke:#231815;}.cls-1,.cls-2,.cls-4,.cls-5,.cls-6,.cls-7,.cls-9,.cls-10,.cls-11{fill:#fff;}.cls-1,.cls-4,.cls-10,.cls-11{stroke-linejoin:bevel;}.cls-2{stroke-width:1.37px;}.cls-2,.cls-3,.cls-5,.cls-6,.cls-7,.cls-8,.cls-9{stroke-miterlimit:6.4;}.cls-3{stroke-width:1.12px;}.cls-3,.cls-8{fill:none;}.cls-4{stroke-width:1.44px;}.cls-5{stroke-width:1.45px;}.cls-6{stroke-width:1.46px;}.cls-7{stroke-width:1.18px;}.cls-8,.cls-9,.cls-11{stroke-width:1.34px;}.cls-10{stroke-width:1.32px;}.cls-12{fill:#e50012;}.cls-12,.cls-13{stroke-width:0px;}.cls-13{fill:#00469b;}</style></defs><rect class="cls-13" width="900" height="603"/><rect class="cls-12" y="150.75" width="900" height="301.5"/><path class="cls-11" d="M366.04,281.18h169.27v65.13h-169.27v-65.13Z"/><path class="cls-11" d="M365.37,294.76h169.27v6.68h-169.27v-6.68ZM365.37,305.02h169.27v7.57h-169.27v-7.57ZM367.74,317.15v24.53h5.33v-24.53h-5.33ZM378.19,317.15v24.53h5.33v-24.53h-5.33ZM389.35,317.15v24.53h5.33v-24.53h-5.33ZM400.5,317.15v24.53h5.33v-24.53h-5.33ZM410.96,317.15v24.53h5.33v-24.53h-5.33ZM483.83,317.15v24.53h5.33v-24.53h-5.33ZM493.94,317.15v24.53h5.33v-24.53h-5.33ZM505.1,317.15v24.53h5.33v-24.53h-5.33ZM516.25,317.15v24.53h5.33v-24.53h-5.33ZM526.93,317.15v24.53h5.33v-24.53h-5.33Z"/><path class="cls-10" d="M365.37,284.51h169.27v6.48h-169.27v-6.48Z"/><path class="cls-7" d="M299.83,349.73c2.62-1.33,5.6-4.44,6.58-7.91h287.17c.98,3.47,3.96,6.58,6.58,7.91h-300.33Z"/><path class="cls-9" d="M446.49,182.03s-.21-6.12,3.35-6.18c3.56.07,3.35,6.18,3.35,6.18h-6.69ZM427.92,263.15v-8.23c-.12-4.12-4.11-4.41-4.22-7.42,0,0-.51-4.5.67-6.56,1.61,6.02,4.55,4.91,4.55,2.44,0-2.16-1.66-4.17-5.07-9.42-1.09-1.68-.42-6.93,1.11-8.81.59,4.57,1.27,6.75,3.23,6.75,1.2,0,2.17-.78,2.17-3.07,0-2.91-1.97-4.38-2.94-7.03-1.13-3.09-.35-6.24,1.53-8,.81,4.51.57,6.3,2.57,6.3,4.04-1.28,0-7.12-.86-8.59-.99-1.72,1.33-5.15,1.33-5.15,1.28,4,1.7,4.33,3.08,3.96,1.75-.47,1.52-3.06-.61-5.15-1.34-1.32-1.2-3.29.24-4.87,1.45,2.83,3.31,2.66,3.48.98l-1.17-6.53h25.66l-1.27,6.32c-.36,1.81,2.08,2.2,3.59-.77,1.45,1.58,1.59,3.55.24,4.87-2.13,2.09-2.36,4.68-.61,5.15,1.38.37,1.8.04,3.08-3.96,0,0,2.09,2.34,1.33,5.15-.86,1.47-4.9,7.32-.86,8.59,2,0,1.76-1.8,2.57-6.3,1.88,1.76,2.66,4.91,1.53,8-.97,2.65-2.94,4.12-2.94,7.03,0,2.29.98,3.07,2.17,3.07,1.96,0,2.64-2.19,3.23-6.75,1.52,1.88,2.2,7.13,1.11,8.81-3.41,5.24-5.07,7.25-5.07,9.42,0,2.48,2.93,3.58,4.55-2.44,1.19,2.05.67,6.56.67,6.56-.12,3-4.1,3.3-4.22,7.42v8.23h-43.86ZM438.65,194.7l-.59-4.65h23.56l-.59,4.65h-22.38ZM440.23,189.96l-.51-3.82h20.23l-.51,3.82h-19.22ZM443.44,186l-.34-3.82h13.47l-.34,3.82h-12.8ZM492.56,349.73c-3.01-1.16-7.4-4.34-7.4-7.54v-36.14l3.92-4.99h-78.5l3.76,5v36.14c0,3.2-3.01,6.38-6.03,7.54h84.24Z"/><path class="cls-1" d="M424.78,317.15h5.33v24.53h-5.33v-24.53ZM469.87,317.15h5.33v24.53h-5.33v-24.53Z"/><path class="cls-9" d="M409.76,259.93v41.14h80.35v-8.86l.12-32.28c-3.28,1.29-3.86,4.27-3.86,4.27v17.52h-72.51v-17.52s-.81-2.98-4.1-4.27h0Z"/><path class="cls-9" d="M422.37,296.76c2.54,1.34,5.37,2.46,6.37,5v40.44c0,3.17-4.43,6.31-7.07,7.5l-.08.04h0,0s56.81,0,56.81,0h0,0l-.08-.04c-2.64-1.19-7.07-4.33-7.07-7.5v-40.44c1.01-2.54,3.84-3.66,6.37-5h-55.26,0Z"/><path class="cls-9" d="M486.19,297.18v-29.13h-7.3v-2.84h-57.77v2.84h-7.3v29.13h72.38ZM467.52,349.73c-2.57-1.16-6.32-4.34-6.32-7.54v-34.53l2.12-3.14h-26.31l2.11,3.14v34.53c0,3.2-3.75,6.38-6.32,7.54h34.73Z"/><path class="cls-2" d="M443.34,304.53h13.34v45.18h-13.34v-45.18Z"/><path class="cls-1" d="M463.42,294.6c.03-2.97,8.68-3.11,13.14-5.64h-53.47c4.45,2.53,12.9,2.74,12.9,5.64l1.81,5.77,22.14.89,3.49-6.66Z"/><path class="cls-9" d="M474.11,263.15c0-7.29.3-10.09,2.54-10.09v23.17c-5.49,1.99-9.41,9-9.41,9h-34.52s-3.92-7.01-9.41-9v-23.17c2.76,0,2.78,2.93,2.78,10.09h48.02ZM476.66,260.16c0-8.36,7.21-9.3,7.21-9.3v7.44c-2.74-.12-4.07,2.35-4.07,6.02s2.21,3.73,2.21,3.73v21.11h-5.35v-28.99Z"/><path class="cls-9" d="M423.35,260.16c0-8.36-7.21-9.3-7.21-9.3v7.44c2.74-.12,4.07,2.35,4.07,6.02s-2.21,3.73-2.21,3.73v21.11h5.35v-28.99Z"/><path class="cls-3" d="M437.33,202.59h25.48M434.31,210.54h31.12M431.29,220.2h37.04M428.14,231.99h43.93M427.13,245.44h45.26"/><path class="cls-8" d="M413.4,289.3h72.38M436.36,289.32h26.83v9.86h-26.83v-9.86Z"/><path class="cls-9" d="M433,267.47c4.45,5.34,4.04,14.4,3.99,19.74h25.79c-.05-5.34-.46-14.4,3.98-19.74h-33.76ZM447.5,206.29l-3.53-1.82v-5.2c1.44.43,3.07.61,3.22,2.91.5-3.29,1.41-3.13,2.84-4.41,1.42,1.28,2.33,1.12,2.83,4.41.16-2.3,1.78-2.48,3.23-2.92v5.2l-3.54,1.82h-5.05Z"/><path class="cls-9" d="M447.27,214.83l-5.87-4.04v-4.79c2.06.48,4.37.67,4.59,3.2.72-3.61,2.01-5.47,4.04-6.87,2.03,1.4,3.32,3.27,4.04,6.87.23-2.53,2.54-2.72,4.6-3.2v4.79l-5.87,4.04h-5.52Z"/><path class="cls-9" d="M446.85,228.14l-6.75-5.93v-7.04c2.36.7,5.02.98,5.28,4.69.82-5.3,2.31-8.03,4.64-10.09,2.34,2.06,3.82,4.8,4.65,10.09.26-3.71,2.92-4,5.28-4.7v7.04l-6.75,5.93h-6.35ZM459.3,236.01l-6.1,8.44h-6.91l-6.1-8.44h19.12ZM436.66,250.18c3.05,1.67,4.18,4.99,4.51,11.23h17.18c.33-6.24,1.45-9.56,4.51-11.23h-26.19Z"/><path class="cls-1" d="M463.36,236.01v-8.48c-2.9.8-4.78,2.51-5.62,4.85,0-2.82-3.7-9.31-7.74-12.54-4.05,3.62-7.82,9.49-7.74,12.54-.69-2.22-2.71-4.05-5.61-4.85v8.48h26.72Z"/><path class="cls-1" d="M464.65,250.18v-8.48c-3.18.8-5.24,2.51-6.16,4.85,0-2.82-4.06-9.31-8.49-12.54-4.44,3.62-8.57,9.49-8.49,12.54-.76-2.22-2.98-4.05-6.16-4.85v8.48h29.29Z"/><path class="cls-1" d="M468.22,267.59v-9.78c-3.96,1.02-6.41,3.95-7.66,5.65,0-5.3-5.98-13.37-10.56-16.02-4.7,2.71-10.56,11.06-10.56,16.02-1.28-1.7-3.7-4.63-7.66-5.65v9.78h36.44Z"/><path class="cls-1" d="M466.08,289.3v-10.06c-3.49,1.37-4.53,4.73-5.63,7.02.43-10.2-5.74-21.17-10.45-23.95-4.7,2.78-11,13.98-10.45,23.95-1.13-2.27-2.14-5.65-5.63-7.02v10.06h32.16Z"/><path class="cls-9" d="M463.63,304.53v-10.06c-3.66.87-3.88,2.22-5.05,4.47.43-6.09-3.88-13.04-8.59-15.83-4.7,2.78-9.02,9.73-8.59,15.83-1.16-2.25-1.3-3.6-5.04-4.47v10.06h27.26Z"/><g id="a"><path class="cls-9" d="M306.58,341.82v-30.4c-1-3.87-4.28-7.3-6.75-7.98v-26.76l5.56,3.01,6.35,27.98v34.16h-5.16Z"/><path class="cls-9" d="M306.58,341.94v-30.52c-1-3.87-4.28-7.29-6.75-7.98v-28.62c3.73,0,5.56,4.87,5.56,4.87l6.35,27.98v34.04l-5.16.23Z"/><path class="cls-9" d="M302.62,349.73c2.57-1.16,6.32-4.34,6.32-7.54v-38l-1.77-3.14h64.74l-2.53,3.14v38c0,3.2,2.57,6.38,5.15,7.54h-71.91Z"/><path class="cls-9" d="M361.47,349.73c-2.57-1.16-6.32-4.34-6.32-7.54v-36.14l5.38-5h-44.01s5.38,5,5.38,5v36.14c0,3.2-3.75,6.38-6.32,7.54h45.88Z"/><path class="cls-9" d="M355.52,349.73c-2.57-1.16-6.32-4.34-6.32-7.54v-32.67l3.53-5h-27.96l3.53,5v32.67c0,3.2-3.75,6.38-6.32,7.54h33.55Z"/><path class="cls-9" d="M332.08,304.53h13.36v45.21h-13.36v-45.21Z"/><path class="cls-1" d="M313.67,317.15h5.33v24.53h-5.33v-24.53ZM358.06,317.15h5.33v24.53h-5.33v-24.53ZM309.12,275.77h6.43v25.15h-6.43v-25.15ZM309.12,271.04h6.39v4.67h-6.39v-4.67Z"/><path class="cls-4" d="M361.96,281.18h9.16v19.42h-9.16v-19.42Z"/><path class="cls-9" d="M315.44,300.72v-43.05c1.83,0,2.12,6.31,6.32,6.31,2.19,0,1.95-2.61.73-4.74-1.09-1.89-2.43-4.49-.61-9.34,1.26,3.71,4.63,4.89,4.01,2.56-1.07-4-4.16-4.66-1.84-10.86.81,5.18,4.13,4.95,3.32,1.94-.91-3.39-2.79-4.78-.47-9.56,1.3,5.43,3.05,5.11,3.05,1.74,0-4.98-.19-10.35,6.25-12.34,0,0,.37-4.56,2.7-4.56s2.7,4.56,2.7,4.56c6.44,1.99,6.25,7.36,6.25,12.34,0,3.37,1.76,3.69,3.05-1.74,2.32,4.78.44,6.17-.47,9.56-.81,3.01,2.51,3.24,3.32-1.94,2.31,6.21-.77,6.86-1.84,10.86-.62,2.33,2.75,1.15,4.01-2.56,1.83,4.85.48,7.45-.61,9.34-1.23,2.13-1.46,4.74.73,4.74,4.2,0,4.49-6.31,6.32-6.31v43.05h-46.9ZM305.38,268.21v32.84h3.73v-32.92c-1.34-.68-2.61-.78-3.73.08h0Z"/><path class="cls-9" d="M305.49,289.46c4.63,2.36,9.21,5.11,10.37,11.59h-10.37v-11.59ZM369.7,279.63v21.43h3.03v-21.48c-.94-.44-2.24-.51-3.03.05Z"/><path class="cls-9" d="M372.73,289.3c-4.63,2.36-9.21,5.11-10.37,11.59h10.37v-11.59ZM342.12,239.25l2.7-2.27v-2.9c-.99.1-1.53.44-2.25,1.39-.62-1.93-1.98-3.43-3.81-4.36-1.83.93-3.19,2.37-3.81,4.29-.73-.96-1.27-1.23-2.25-1.32v2.9l2.7,2.27h6.73Z"/><path class="cls-9" d="M343.57,246.52l1.25-2.71v-3.78c-.99.1-1.53.44-2.25,1.41-.62-1.95-1.98-3.48-3.81-4.42-1.83.95-3.19,2.4-3.81,4.36-.73-.97-1.27-1.24-2.25-1.34v3.78l1.26,2.71h9.62Z"/><path class="cls-9" d="M343.75,256.39l4.01-4.89v-4.82c-1.47.16-2.27.75-3.35,2.39-.92-3.3-2.95-4.03-5.66-5.63-2.71,1.6-4.74,2.21-5.66,5.51-1.08-1.64-1.88-2.11-3.35-2.27v4.82l4,4.89h10Z"/><path class="cls-9" d="M344.93,266.07s4.67-4.08,4.95-6.31v-5.16c-1.81.21-3.52.68-4.86,2.8-1.14-4.27-2.92-5.46-6.26-7.53-3.35,2.07-5.13,3.26-6.27,7.53-1.34-2.12-3.05-2.59-4.86-2.8v5.16c.59,2.24,4.95,6.31,4.95,6.31h12.35Z"/><path class="cls-9" d="M346.92,283.95s6.4-7.08,6.54-9.84v-8.04c-2.39.33-4.66,1.98-6.43,5.28-1.5-6.65-3.85-11.3-8.28-14.52-4.43,3.23-6.78,7.87-8.28,14.52-1.77-3.3-4.03-4.95-6.43-5.28v8.04c.46,2.76,6.54,9.84,6.54,9.84h16.33Z"/><path class="cls-9" d="M346.92,294.52s5.47-5.57,6.54-7.98v-8.04c-2.39.33-4.66,1.98-6.43,5.28-1.5-6.65-3.85-10.47-8.28-13.69-4.43,3.23-6.78,7.04-8.28,13.69-1.77-3.31-4.03-4.95-6.43-5.28v8.04c1.39,2.42,6.54,7.98,6.54,7.98h16.33Z"/><path class="cls-9" d="M349.41,300.66c-1.59-6.94-2.97-12.09-10.65-17.31-7.69,5.22-9.06,10.37-10.66,17.31h21.31Z"/><path class="cls-9" d="M353.28,304.53v-10.06c-3.49,1.37-6.64,3.39-7.81,5.64-1.3-5.58-3.8-8.04-6.92-11.42-3.12,3.38-5.21,5.84-6.51,11.42-1.16-2.25-4.32-4.28-7.81-5.64v10.06h29.04Z"/></g><g id="a-2"><path class="cls-9" d="M593.45,341.82v-30.4c1-3.87,4.28-7.3,6.75-7.98v-26.76l-5.56,3.01-6.35,27.98v34.16h5.16Z"/><path class="cls-9" d="M593.45,341.94v-30.52c1-3.87,4.28-7.29,6.75-7.98v-28.62c-3.73,0-5.56,4.87-5.56,4.87l-6.35,27.98v34.04l5.16.23Z"/><path class="cls-9" d="M597.41,349.73c-2.57-1.16-6.32-4.34-6.32-7.54v-38l1.77-3.14h-64.74l2.53,3.14v38c0,3.2-2.57,6.38-5.15,7.54h71.91Z"/><path class="cls-9" d="M538.56,349.73c2.57-1.16,6.32-4.34,6.32-7.54v-36.14l-5.38-5h44.01s-5.38,5-5.38,5v36.14c0,3.2,3.75,6.38,6.32,7.54h-45.88Z"/><path class="cls-9" d="M544.51,349.73c2.57-1.16,6.32-4.34,6.32-7.54v-32.67l-3.53-5h27.96l-3.53,5v32.67c0,3.2,3.75,6.38,6.32,7.54h-33.55Z"/><path class="cls-9" d="M567.95,304.53h-13.36v45.21h13.36v-45.21Z"/><path class="cls-1" d="M586.37,317.15h-5.33v24.53h5.33v-24.53ZM541.97,317.15h-5.33v24.53h5.33v-24.53ZM590.92,275.77h-6.43v25.15h6.43v-25.15ZM590.92,271.04h-6.39v4.67h6.39v-4.67Z"/><path class="cls-4" d="M538.07,281.18h-9.16v19.42h9.16v-19.42Z"/><path class="cls-9" d="M584.6,300.72v-43.05c-1.83,0-2.12,6.31-6.32,6.31-2.19,0-1.95-2.61-.73-4.74,1.09-1.89,2.43-4.49.61-9.34-1.26,3.71-4.63,4.89-4.01,2.56,1.07-4,4.16-4.66,1.84-10.86-.81,5.18-4.13,4.95-3.32,1.94.91-3.39,2.79-4.78.47-9.56-1.3,5.43-3.05,5.11-3.05,1.74,0-4.98.19-10.35-6.25-12.34,0,0-.37-4.56-2.7-4.56s-2.7,4.56-2.7,4.56c-6.44,1.99-6.25,7.36-6.25,12.34,0,3.37-1.76,3.69-3.05-1.74-2.32,4.78-.44,6.17.47,9.56.81,3.01-2.51,3.24-3.32-1.94-2.31,6.21.77,6.86,1.84,10.86.62,2.33-2.75,1.15-4.01-2.56-1.83,4.85-.48,7.45.61,9.34,1.23,2.13,1.46,4.74-.73,4.74-4.2,0-4.49-6.31-6.32-6.31v43.05h46.9ZM594.66,268.21v32.84h-3.73v-32.92c1.34-.68,2.61-.78,3.73.08h0Z"/><path class="cls-9" d="M594.54,289.46c-4.63,2.36-9.21,5.11-10.37,11.59h10.37v-11.59ZM530.34,279.63v21.43h-3.03v-21.48c.94-.44,2.24-.51,3.03.05Z"/><path class="cls-9" d="M527.3,289.3c4.63,2.36,9.21,5.11,10.37,11.59h-10.37v-11.59ZM557.91,239.25l-2.7-2.27v-2.9c.99.1,1.53.44,2.25,1.39.62-1.93,1.98-3.43,3.81-4.36,1.83.93,3.19,2.37,3.81,4.29.73-.96,1.27-1.23,2.25-1.32v2.9l-2.7,2.27h-6.73Z"/><path class="cls-9" d="M556.47,246.52l-1.25-2.71v-3.78c.99.1,1.53.44,2.25,1.41.62-1.95,1.98-3.48,3.81-4.42,1.83.95,3.19,2.4,3.81,4.36.73-.97,1.27-1.24,2.25-1.34v3.78l-1.26,2.71h-9.62Z"/><path class="cls-9" d="M556.28,256.39l-4.01-4.89v-4.82c1.47.16,2.27.75,3.35,2.39.92-3.3,2.95-4.03,5.66-5.63,2.71,1.6,4.74,2.21,5.66,5.51,1.08-1.64,1.88-2.11,3.35-2.27v4.82l-4,4.89h-10Z"/><path class="cls-9" d="M555.1,266.07s-4.67-4.08-4.95-6.31v-5.16c1.81.21,3.52.68,4.86,2.8,1.14-4.27,2.92-5.46,6.26-7.53,3.35,2.07,5.13,3.26,6.27,7.53,1.34-2.12,3.05-2.59,4.86-2.8v5.16c-.59,2.24-4.95,6.31-4.95,6.31h-12.35Z"/><path class="cls-9" d="M553.11,283.95s-6.4-7.08-6.54-9.84v-8.04c2.39.33,4.66,1.98,6.43,5.28,1.5-6.65,3.85-11.3,8.28-14.52,4.43,3.23,6.78,7.87,8.28,14.52,1.77-3.3,4.03-4.95,6.43-5.28v8.04c-.46,2.76-6.54,9.84-6.54,9.84h-16.33Z"/><path class="cls-9" d="M553.11,294.52s-5.47-5.57-6.54-7.98v-8.04c2.39.33,4.66,1.98,6.43,5.28,1.5-6.65,3.85-10.47,8.28-13.69,4.43,3.23,6.78,7.04,8.28,13.69,1.77-3.31,4.03-4.95,6.43-5.28v8.04c-1.39,2.42-6.54,7.98-6.54,7.98h-16.33Z"/><path class="cls-9" d="M550.62,300.66c1.59-6.94,2.97-12.09,10.65-17.31,7.69,5.22,9.06,10.37,10.66,17.31h-21.31Z"/><path class="cls-9" d="M546.76,304.53v-10.06c3.49,1.37,6.64,3.39,7.81,5.64,1.3-5.58,3.8-8.04,6.92-11.42,3.12,3.38,5.21,5.84,6.51,11.42,1.16-2.25,4.32-4.28,7.81-5.64v10.06h-29.04Z"/></g><path class="cls-9" d="M292.42,349.33v9.18h315.16v-9.18h-315.16ZM286.71,358.6v11.97h326.57v-11.97h-326.57ZM613.28,370.57l-326.57.09-9.55-.09v15.8h345.67v-15.8h-9.55ZM267.55,386.47v18.61h364.9v-18.61h-364.9ZM632.45,405.08v.03h-364.9v-.03h-9.62v18.61h384.13v-18.61h-9.61Z"/><path class="cls-6" d="M326.62,349.38h23.81v74.27h-23.81v-74.27Z"/><path class="cls-5" d="M331.89,349.38h13.26v74.27h-13.26v-74.27Z"/><path class="cls-6" d="M438.1,349.38h23.81v74.27h-23.81v-74.27Z"/><path class="cls-5" d="M443.37,349.38h13.26v74.27h-13.26v-74.27Z"/><path class="cls-6" d="M549.41,349.38h23.81v74.27h-23.81v-74.27Z"/><path class="cls-5" d="M554.67,349.38h13.26v74.27h-13.26v-74.27Z"/><path class="cls-8" d="M306.58,341.82h287.17M331.64,414.32h13.75M331.64,405.02h13.75M331.64,395.72h13.75M331.64,386.43h13.75M331.64,377.13h13.75M331.64,367.84h13.75M331.64,358.54h13.75M443.17,414.33h12.8M443.17,405.03h12.8M443.17,395.73h12.8M443.17,386.43h12.8M443.17,377.13h12.8M443.17,367.83h12.8M443.17,358.52h12.8M554.43,414.32h13.75M554.43,405.02h13.75M554.43,395.72h13.75M554.43,386.43h13.75M554.43,377.13h13.75M554.43,367.84h13.75M554.43,358.54h13.75"/></svg>