<?xml version="1.0" encoding="UTF-8"?><svg id="_色修正" xmlns="http://www.w3.org/2000/svg" viewBox="0 0 900 600"><defs><style>.cls-1,.cls-2,.cls-3,.cls-4,.cls-5,.cls-6,.cls-7,.cls-8{stroke:#231815;}.cls-1,.cls-2,.cls-3,.cls-4,.cls-8{stroke-width:2px;}.cls-1,.cls-2,.cls-4{stroke-linecap:round;}.cls-1,.cls-5,.cls-8{fill:#fff;}.cls-2,.cls-3,.cls-4,.cls-7{fill:none;}.cls-4{stroke-linejoin:round;}.cls-5,.cls-6,.cls-7{stroke-miterlimit:10;}.cls-6,.cls-9{fill:#231815;}.cls-10{fill:#f9bf11;}.cls-10,.cls-9,.cls-11{stroke-width:0px;}.cls-11{fill:#e95532;}</style></defs><rect class="cls-10" width="900" height="600"/><path class="cls-11" d="M0,600h900V0L0,600Z"/><path class="cls-5" d="M481.74,187.59c-4.99-1.77-8.21.8-8.05,7.24.16,6.44,3.54,10.14,8.53,7.73l-.48-14.97h0Z"/><path class="cls-5" d="M486.12,175.53c-4.15-3.28-8.03-1.87-9.95,4.28-1.92,6.15.1,10.74,5.6,10.06l4.35-14.33h0Z"/><path class="cls-5" d="M493.04,163.86c-3.58-3.9-7.63-3.14-10.51,2.62-2.88,5.76-1.62,10.62,3.92,10.82l6.59-13.45h0Z"/><path class="cls-5" d="M488.5,220.59c-6.12,2.25-6.76,10.62-2.9,15.78,3.86,5.15,10.95,6.12,14.81,0l-11.91-15.78h0Z"/><path class="cls-5" d="M481.42,202.88c-5.8-1.93-11.02,5.85-11.91,12.88-1.12,8.85-13.68,11.75-6.76,25.11,1.45-8.53,7.08-13.2,11.59-13.52,4.51-.32,11.27-1.29,14.17-6.76l-7.08-17.71h0Z"/><path class="cls-5" d="M499.77,237.33c-6.76,1.61-7.73,10.62-2.9,17.06,4.13,5.51,17.06,4.19,16.74-1.29l-13.84-15.78h0Z"/><path class="cls-5" d="M518.93,291.58c.32-5.8-9.01-8.05-13.52-6.92-4.51,1.13-13.12-.16-15.13-4.99-1.61,3.86.73,8.05,7.25,10.14,4.93,1.58,4.83,5.15,3.38,6.76,3.7.64,14.65.64,18.03-4.99h0Z"/><path class="cls-5" d="M513.62,254.56c-6.6-2.9-10.51,1.52-13.04,5.8-3.7,6.28-15.13-1.77-19,6.6,5.23-2.25,10.56,2.55,13.04,4.19,7.08,4.67,20.77,3.22,22.7-7.73l-3.7-8.85h0Z"/><path class="cls-5" d="M517.48,262.28c-6.6,4.99-9.17,10.95-9.01,14.97.16,4.02,5.8,12.88,11.91,13.36,3.54-7.24,5.31-22.54-2.9-28.33h0Z"/><path class="cls-5" d="M490.12,293.35c0-2.41,3.54-3.38,5.95-2.58,2.42.8,6.12,3.22,4.83,5.8l-10.78-3.22h0Z"/><path class="cls-5" d="M453.73,280.15c-.64-2.9,4.02-7.89,10.3-5.15,6.27,2.74,7.08,8.05,4.5,10.14l-14.81-4.99h0Z"/><path class="cls-5" d="M469.02,285.46c-.48-1.61,4.04-4.83,11.75-2.9,7.73,1.93,9.62,6.91,9.34,10.79l-21.09-7.89h0Z"/><path class="cls-5" d="M452.93,280.15c4.02-3.06,2.5-8.86-1.13-10.62-6.6-3.22-4.18-11.59-8.37-13.2-4.18-1.61-8.21-4.51-8.37-7.4-2.09,4.02-.8,7.73,2.1,10.3,2.9,2.58-2.25,13.04,1.45,15.78l14.33,5.15h0Z"/><path class="cls-5" d="M366.64,277.9c-3.38-5.31-11.43-4.35-14.81-.64-3.38,3.7-2.9,9.18.32,11.59l14.49-10.95h0Z"/><path class="cls-5" d="M385.96,270.01c-1.29-7.08-9.82-7.89-14.49-6.12-4.67,1.77-7.89,8.85-4.83,14.01l19.32-7.89h0Z"/><path class="cls-5" d="M398.84,269.04c3.06-5.96-2.9-14.81-9.66-16.1-5.64-1.07-12.32-1.05-14.49-6.6-1.37,4.83,2.25,7.89,6.44,10.62,4.18,2.74-.81,9.82,5.96,13.84l11.75-1.77h0Z"/><path class="cls-5" d="M398.2,269.25c-1.41-4.27,1.45-9.94,7.23-9.55,5.78.4,9.08,4.6,6.53,9.86l-13.76-.31h0Z"/><path class="cls-5" d="M411.07,269.57c-.8-4.42,2.83-9.64,8.5-8.43s8.34,5.83,5.08,10.67l-13.58-2.24h0Z"/><path class="cls-5" d="M423.86,271.6c-.58-4.46,3.31-9.49,8.91-8,5.6,1.49,8.04,6.24,4.54,10.92l-13.45-2.91h0Z"/><path class="cls-5" d="M326.72,345.35c-10.79,0-13.42,2.57-14.97,13.68-1.93,13.84,16.9,15.45,14.97-13.68Z"/><path class="cls-5" d="M331.55,330.86c-16.58-6.28-25.6,19.96-42.02,15.29,5.88,9.34,20.12.02,25.43.97,9.02,1.61,28.49-1.77,16.58-16.26h0Z"/><path class="cls-5" d="M320.76,366.76c-8.21-3.7-17.06,8.85-15.45,14.33,2.04,6.95,20.77,1.29,15.45-14.33Z"/><path class="cls-5" d="M282.45,420.85c4.51,1.28,9.98,3.86,9.01,12.55-.97,8.69-17.39,26.4-32.2,27.37-14.81.97-20.12,18.83-32.84,13.84,11.91-2.25,11.91-15.77,21.25-19.96-6.76-2.42-10.3,12.88-18.99,12.88s-12.88,13.84-23.5,12.88c-10.62-.96-11.74,16.85-33,17.07-16.26.16-36.38,19.15-43.62,10.95,15.78-2.25,22.14-11,31.55-20.61,15.13-15.45,32.2-8.53,37.99-22.21-6.92,4.67-14.97,6.92-22.86,6.76-9.9-.2-20.77,15.77-31.87,8.69,6.44-.8,10.62-3.54,17.39-10.62,6.92-7.25,17.08-2.57,25.11-9.98,12.56-11.59,23.34-1.93,35.41-16.42-3.38-1.61-10.62-.48-17.39,3.06-6.76,3.54-15.45-2.42-23.18,1.77.97-9.5,18.99-4.06,30.26-10.62,12.72-7.4,23.26-5.23,33.32-4.35-14.01-.08-19.48-13.36-38.79-9.5-8.43,1.69-15.13-11.59-23.5-4.83.24-4.99,9.01-9.01,18.03-4.18,9.01,4.83,12.65-4.23,30.59,7.08,7.4,4.67,20.12-2.9,28.17,2.09-1.05-3.06-5.63-4.99-11.03-4.59,3.38-6.92,25.19-6.04,34.69.89h0Z"/><path class="cls-5" d="M296.78,410.38c-7.08-5.47-16.9,1.13-23.66-1.45,0,4.51,2.25,11.27,9.66,13.84,2.25-1.61,12.39-10.46,14.01-12.39h0Z"/><path class="cls-5" d="M307.89,394.77c-11.11-5.63-13.04,8.37-21.73,5.47.32,4.02,3.54,9.02,10.62,10.14l11.11-15.61h0Z"/><path class="cls-5" d="M314.49,382.05c-16.42-6.44-18.51,9.34-28.17,6.28,2.25,5.47,16.1,8.37,23.18,6.44l4.99-12.72h0Z"/><path class="cls-5" d="M337.02,312.99c-4.35-6.12-13.52-1.13-14.97,6.12-1.45,7.24,2.09,17.39,8.21,15.13l6.76-21.25h0Z"/><path class="cls-5" d="M348.13,293.67c-7.57-1.77-16.26-.97-15.29,6.44-2.9,1.29-3.7,10.79,4.19,12.88l11.11-19.32h0Z"/><path class="cls-5" d="M353.12,288.68c-7.4-8.69-15.66-8.49-20.28-4.83-8.53,6.76-16.82,2.9-17.06,9.66,5.15-3.94,9.66.8,13.84-.64,4.19-1.45,7.24,6.6,18.83,3.22l4.67-7.4h0Z"/><path class="cls-5" d="M335.25,418.6c1.13,2.09,8.05,3.06,11.43-.48,4.48-4.7-.48-17.71-7.57-18.67-7.08-.97-7.73,14.65-3.86,19.16h0Z"/><path class="cls-5" d="M327.2,418.92c10.14,3.7,14.49-4.67,9.01-9.98-1.45,1.77-6.76,8.21-9.01,9.98Z"/><path class="cls-5" d="M289.21,432.76c-1.93,5.8-11.91,6.76-23.18,24.79-11.27,18.03-22.05,10.46-24.79,22.86,13.52-10.95,24.14-3.67,32.19-14.49,12.23-16.42,22.31-14.06,27.05-25.11,6.76-15.77,36.38-15.45,37.99-40.24-9.98-1.93-41.53,24.79-49.26,32.19h0Z"/><path class="cls-5" d="M543.24,189.36c12.88,4.19,13.2,20.93,28.01,26.4,14.81,5.47,16.26,18.67,28.33,15.45-11.27-3.06-10.46-16.1-22.21-19.32-13.78-3.78-19-24.79-29.95-28.01"/><path class="cls-5" d="M602.32,276.77c2.25,5.15,1.93,14.33-6.12,16.74,4.35,2.74,10.78.16,14.33-5.8-5.31,11.75-1.77,22.38,6.6,24.47-4.03-8.21,4.99-12.07,2.1-17.39,5.31,2.25,9.98,9.5,9.82,14.01,6.92-7.73-5.15-18.03-2.9-25.27l-23.83-6.76h0Z"/><path class="cls-5" d="M518.93,359.51c-7.89-6.92-11.25,1.81-15.13-1.21-3.62-2.82-8.45-3.22-10.3-.4,6.76.24,3.46,5.47,16.58,6.76-13.12.89-10.7,15.54-19.48,14.81,9.34,8.85,14.17-7.89,21.73-5.15-2.25.64,3.54,5.96-.48,13.04,6.52-.16,9.17-9.18,9.98-13.84l-2.9-14.01h0Z"/><path class="cls-5" d="M345.23,434.69c-2.9-2.41-11.27-3.54-14.49-1.61-3.22,1.93-2.09,2.41,1.77,2.74,3.86.32,8.85,6.57.48,6.92-3.86.16-2.58,9.5-10.62,10.14,3.3,4.02,12.72,1.37,16.1-3.06-.64,3.62,4.19,6.92,2.25,11.27,5.96.65,2.49-12.07,11.91-11.43-3.86.48-2.25,9.17,4.51,6.92-4.02,1.93-1.93,6.6,2.58,5.48-2.9.97-3.86,4.67.16,6.76,3.86-5.31-.48-24.31-14.65-34.13h0Z"/><path class="cls-5" d="M695.85,257.07c12.32,0,22.31-9.99,22.31-22.31s-9.99-22.31-22.31-22.31-22.31,9.99-22.31,22.31,9.99,22.31,22.31,22.31Z"/><path class="cls-5" d="M579.3,284.02c6.76-6.44,17.07-9.66,24.15-4.83,7.08,4.83,30.59,10.62,42.18,2.58,11.59-8.05,17.06-12.23,22.21-11.27,3.87,5.8,8.53,8.53,14.33,9.02,1.77,1.93,8.05,3.54,11.59,3.06,5.15,1.29,11.43-.32,16.42-5.8,7.73,1.13,14.97-4.67,17.71-13.36,8.21-.97,8.69-10.14,3.54-16.26-4.83-.97-1.12-17.23-18.67-14.01,7.41,4.51,1.77,13.52,7.89,17.71-4.19,0-9.58,1.77-10.87,8.05,1.61-4.35-.24-7.24-1.37-8.21.16-3.7-8.05-12.8-15.78-9.5,5.55,1.21,2.42,10.14,6.44,13.52-2.9.16-5.96,1.61-7.73,4.19-2.09-3.7-9.5-7.57-14-7.89,0-1.29-.24-3.86-.8-5.15-2.01-3.86-3.7-8.45-2.9-14.33-3.86,4.19-7.08,9.98-9.01,14.17-6.12-4.19-21.25,1.93-28.33,3.54-7.08,1.61-30.91-2.25-36.38-8.05-5.47-5.79-16.1-9.34-26.08-12.23-13.72-3.98-13.85-18.99-28.98-29.3-.32,18.67,28.01,77.91,34.45,84.35h0Z"/><path class="cls-5" d="M421.54,426.32c11.91,0,21.57-9.66,21.57-21.57s-9.66-21.57-21.57-21.57-21.57,9.66-21.57,21.57,9.66,21.57,21.57,21.57h0Z"/><path class="cls-5" d="M370.02,409.74c4.35,5.63,11.75,5.31,14.81,4.83,2.58,6.76,10.79,6.6,14.33,10.3,3.54,3.7,15.61,3.38,19.15,1.29-3.22-.32-7.4-2.25-11.43-5.63-4.86-4.08-2.58-12.23-6.44-15.13,2.9-3.22,3.38-8.53,2.74-10.62,3.06-1.77,5.31-4.67,5.63-6.12,5.31-.32,9.98-3.06,11.91-5.15,2.74,2.58,9.66-.8,13.36,3.54.8-10.62-9.34-16.26-16.1-12.72-2.74-1.45-9.98-.48-11.27,1.45-2.25-.97-8.53,2.25-11.43,4.35,3.22-1.77,3.7-7.08,2.41-9.01,2.74-1.13,5.8-4.83,6.12-7.57,3.86.64,9.66-1.93,12.23-1.29-4.18-5.47-11.11-7.4-18.19-6.92-7.33.4-10.46,5.55-11.43,11.11-4.35,2.58-5.8,11.27-4.19,14.33-2.5-.08-4.83,2.33-5.8,3.7-3.38-1.45-8.21-2.49-11.67-2.49"/><path class="cls-5" d="M366.32,373.2c-1.45-4.19.47-7.95,1.45-11.27,2.49-8.45.97-10.62-6.6-9.5-.64,4.02,3.22,17.23,5.15,20.77h0Z"/><path class="cls-5" d="M360.77,352.91c1.93,1.93,8.77,2.82,9.5-3.3.83-7.02-2.01-9.74-8.13-7-.48,1.61-1.05,8.21-1.37,10.3h0Z"/><path class="cls-5" d="M362.22,342.37c2.58,1.05,8.13,3.14,11.19-2.82,2.57-5-.8-8.85-6.12-8.53-1.29,1.45-3.86,6.6-5.07,11.35h0Z"/><path class="cls-5" d="M366.97,330.54c.64,1.93,7.24,8.37,12.07,3.7,4.83-4.67,4.83-11.59-2.41-14.17-1.93.32-7.73,7.08-9.66,10.46h0Z"/><path class="cls-5" d="M376.62,320.08c1.45,4.02,5.96,10.95,14.33,7.73,8.37-3.22,4.83-13.68.97-15.78-2.25.16-11.43,4.35-15.29,8.05h0Z"/><path class="cls-5" d="M391.92,312.03c-.64,3.54,0,13.2,11.43,13.04,11.43-.16,8.21-13.52,5.31-15.45-4.67,0-12.56.16-16.74,2.41h0Z"/><path class="cls-5" d="M409.14,310.09c-1.29,2.74-4.19,20.75,18.19,15.78,2.9-.64,10.46-17.23-18.19-15.78Z"/><path class="cls-5" d="M421.37,311.7c-2.25,2.25,3.54,20.44,18.67,17.39,15.13-3.06,2.42-20.28-18.67-17.39Z"/><path class="cls-5" d="M434.25,314.44c-2.41,4.99,1.21,19.8,19.88,19.8,16.92,0-.89-19.48-19.88-19.8Z"/><path class="cls-5" d="M448.9,318.79c-1.21,2.77-2.7,18.47,19.32,19.8,15.94.97,12.08-21.57-19.32-19.8Z"/><path class="cls-5" d="M472.57,325.39c-2.73,4.83-5.63,16.9,18.51,17.87,15.47.62,5.96-17.55-18.51-17.87Z"/><path class="cls-5" d="M492.69,329.09c-3.54,4.83-.93,14.3,8.05,16.1,11.27,2.25,12.88-8.37,5.15-13.52-7.73-5.15-13.2-2.58-13.2-2.58h0Z"/><path class="cls-5" d="M503.64,331.34c-2.58,4.51-.98,15.45,16.1,15.45,3.54,0,17.07-13.84-16.1-15.45Z"/><path class="cls-5" d="M371.48,541.27c13.83,0,25.04-11.21,25.04-25.04s-11.21-25.05-25.04-25.05-25.04,11.21-25.04,25.05,11.21,25.04,25.04,25.04Z"/><path class="cls-5" d="M555.15,177.13c-1.93,1.93-5.95,7.73-6.76,9.98-8.37,25.11,13.97,43.87,27.05,70.83,10.3,21.25,9.02,54.73-7.08,75.98-5.51,7.27-3.86,9.34-10.95,16.74-2.72,2.84-5.8,6.44-4.83,16.74,4.51-1.61,10.95,2.58,12.23,6.12,3.22-1.61,7.73-.97,9.34.97,5.47-2.58,9.98-1.29,14.81,3.86,4.19-.64,8.7,0,12.88,4.51,2.25-4.51,6.76-6.12,9.98-5.15-.32-5.8,5.47-9.98,10.62-7.73-1.61-7.73,5.47-13.52,12.24-11.27,5.79-4.51,17.38-4.83,23.18,1.93-10.3-2.9-9.98,8.05-18.67,7.08,2.25,6.44-3.54,10.14-9.33,12.23,3.7-1.77,7.72-3.86,9.01-1.61,3.22-2.82,9.66-1.77,11.27-.32,4.26-1.37,8.37-.32,10.3,4.83,5.8,3.54,9.66,12.56,5.47,19.32-1.29-7.08-6.12-6.76-8.05-9.66-4.51,1.61-9.02,1.61-10.3-1.29-2.58,2.58-11.27,4.83-15.13.97-1.45,5.8-6.44,10.62-12.24,10.62,1.61,4.51-2.9,12.24-6.44,16.1,5.47,2.9,3.86,9.34,2.58,13.2,8.37,1.29,1.29,8.69,15.78,13.52-7.08,2.25-20.92,0-22.86-8.69-7.08-.32-11.91-7.4-11.59-14.81-5.47-5.15-6.28-12.55,1.29-17.7-6.44,1.93-9.98-8.37-19.32-4.19-4.64,2.08-16.9-1.45-16.74-5.8-1.93,3.22-13.68,1.93-15.3-3.54-3.86,2.09-12.88-1.45-12.72-6.76-4.99,2.25-11.75-1.77-11.43-6.92-4.67-.64-5.15-4.83-4.83-8.37-4.19-1.93-3.06-5.96-1.45-10.79-2.9-3.22-1.61-7.73.65-11.91-3.22-3.22-2.58-7.08-1.61-11.59-15.45-1.29-34.81-5.02-79.2-18.67-66.97-20.61-85,27.69-70.19,57.95,17.09,34.92-1.93,42.5,3.86,68.58,6.12,1.29,9.34,6.44,9.02,11.91,3.62.16,6.2,3.54,4.91,9.98,3.06-.56,7,.32,9.58,2.9,2.25-4.18,9.66-5.15,13.52-.32,8.37-.65,12.56,6.12,12.23,14.49,4.5,8.05,2.9,17.87-1.93,24.15.48-3.38,0-8.21-.16-11.1-.3-5.33-7.73-6.44-6.92-10.79-3.86.32-7.57-1.77-8.85-4.67-2.25,1.93-5.47,2.58-8.21,1.61,4.35,1.93,7.73,9.66,6.44,14.81,2.25,3.87,1.77,10.95-.97,14.01-1.29,6.28-6.12,8.53-12.39,5.79,3.54-2.25,4.83-6.27,4.67-9.66-2.25-1.93-3.38-5.63-3.54-7.89-6.28.97-14.97-4.35-16.57-6.45-13.83,0-25.04,11.21-25.04,25.05-.64-5.15-7.16-10.23-6.35-14.58-3.86-11.91,1.61-23.02,17.39-25.27-1.93-4.51,4.83-9.18,2.25-14.33-3.29-6.58-9.34-15.13-18.35-25.11,5.47-9.34,3.86-21.89.64-29.62-4.62-11.1-9.02-8.37-25.43,9.66-26.76,29.38-62.46,21.25-94.01,40.57-8.38,5.13-16.74,7.08-7.73-1.93,9.01-9.02,32.84-18.03,48.29-25.76,28.94-14.47,53.45-38.64,63.1-85.64,22.7-110.46,106.24-74.05,159.04-53.45,49.57,19.35,40.57-24.47,15.45-50.87-30.18-31.73-24.15-56.66-9.98-76.63,25.43-3.54,74.21,5.31,64.39,13.85h0Z"/><path class="cls-5" d="M644.82,448.48c15.22,0,27.55-12.33,27.55-27.55s-12.34-27.55-27.55-27.55-27.55,12.34-27.55,27.55,12.34,27.55,27.55,27.55h0Z"/><path class="cls-7" d="M539.7,178.41c-6.12,27.04-.97,39.28,8.05,51.19,18.63,24.62,33.48,80.81,12.23,117.51"/><path class="cls-7" d="M571.89,315.41c2.58-.97,7.4-4.02,8.53-9.34"/><path class="cls-7" d="M573.82,303.66c.8-4.67,8.05-6.68,8.21-11.67"/><path class="cls-7" d="M573.98,285.46c-.48-4.83,7.25-9.18,6.12-14.01"/><path class="cls-7" d="M569.8,268.08c-.65-2.74,6.44-7.89,4.51-12.23"/><path class="cls-7" d="M564.49,251.18c-1.45-3.06,3.38-6.6,1.29-9.82"/><path class="cls-7" d="M556.76,237.65c-.48-2.09,2.5-6.68.89-9.42"/><path class="cls-7" d="M549.03,221.72c.64-.8,3.22-2.74,2.17-5.15"/><path class="cls-7" d="M543.72,210.05c1.05-.56,4.18-1.53,3.78-3.86"/><path class="cls-7" d="M382.58,513.57c-6.44-2.25-14.49.97-16.1,6.44"/><path class="cls-7" d="M371.31,525c.8-5.47,9.18-7.89,11.75-5.31-5.31-2.9-7.89,7.4-3.22,7.73"/><path class="cls-7" d="M423.15,397.67c-3.86,1.93-4.99,9.02,0,14.33"/><path class="cls-7" d="M428.94,399.28c-2.73,2.25-2.58,9.01,1.45,10.62-3.38-2.41,0-6.6,2.42-6.76,2.41-.16,4.02,2.74,1.12,5.63"/><path class="cls-7" d="M655.12,415.21c-9.01-2.41-16.26,8.05-8.05,17.39-.16-9.02,6.28-14.97,14.17-13.36"/><path class="cls-7" d="M657.61,425.47c-2.22,0-3.46,1.73-3.46,3.42,0,1.77,1.53,3.46,4.03,3.46,1.61,0,2.9-1.85,2.9-3.3"/><path class="cls-7" d="M689.4,227.83c1.45,5.47,9.02,7.73,14.97,6.44"/><path class="cls-7" d="M704.37,230.73c-4.67.16-8.53-4.19-8.21-7.89,0,2.74,6.28,4.02,8.21,2.25"/><path class="cls-7" d="M384.83,414.57c-1.29-3.22,3.86-6.44,4.02-9.5.16-3.06,5.8-5.47,11.59.32"/><path class="cls-7" d="M397.71,371.11c-1.13.48-2.09,1.13-3.06,1.45"/><path class="cls-7" d="M408.82,388.65c-1.37.08-4.19-.08-5.71-1.13"/><path class="cls-7" d="M403.19,394.77c-1.13.56-3.62,1.53-5.07,1.85"/><path class="cls-7" d="M347.97,492c-.16,2.9,2.74,7.08,4.35,8.37"/><path class="cls-7" d="M360.53,485.08c-1.61,2.41-2.58,6.6-1.61,9.5"/><path class="cls-7" d="M384.51,494.74c-2.9-1.93-.97-6.92-1.29-10.14-.32-3.22,3.38-8.37,10.62-4.02"/><path class="cls-7" d="M357.47,476.39c2.9-.48,5.96-.33,7.89.48"/><path class="cls-7" d="M394.17,467.21c-1.29,1.77-1.61,3.7-1.77,4.99"/><path class="cls-7" d="M407.69,466.89c-2.25,0-4.19,1.61-5.15,3.22"/><path class="cls-7" d="M376.46,384.47c2.58.89,9.26,4.99,9.5,9.26"/><path class="cls-7" d="M403.83,363.54c-7.89-.16-10.95-8.21-4.99-8.21"/><path class="cls-7" d="M418,374.32c-3.06,1.29-1.61,6.6,2.74,9.18"/><path class="cls-7" d="M399.16,424.87c-1.53-1.93.48-7.56,5.47-5.88"/><path class="cls-7" d="M410.91,483.63c.32-4.91,6.52-7.81,9.02-2.25"/><path class="cls-7" d="M388.05,497.63c-.4-5.39,2.33-7.16,4.75-7.48,2.41-.32,5.88,1.69,7.49,5.23"/><path class="cls-7" d="M340.08,501.66c.32-3.22,3.06-6.6,5.96-6.12"/><path class="cls-7" d="M634.67,358.71c-2.1,1.53-3.46,8.37,4.5,9.02"/><path class="cls-7" d="M622.44,369.98c0,.8,1.05,1.93,1.69,2.41"/><path class="cls-7" d="M660.43,382.86c-2.09-1.61-7.49,4.91-2.58,9.66"/><path class="cls-7" d="M609.24,436.95c-1.21-4.59,3.06-5.8,7.08-4.83"/><path class="cls-7" d="M598.94,404.43c2.41-1.61,4.83-3.38,7.89-4.19"/><path class="cls-7" d="M597.65,422.13c0-3.86,1.93-7.08,3.7-8.05"/><path class="cls-7" d="M611.81,377.71c-.32,4.67,1.61,9.18,3.06,11.59"/><path class="cls-7" d="M650.13,378.03c-2.34.73-4.43,1.61-5.31,3.54"/><path class="cls-7" d="M647.55,391.23c1.13-.97,2.42-2.09,2.98-2.9"/><path class="cls-7" d="M708.4,250.69c0,4.51-5.63,6.92-9.33,4.02"/><path class="cls-7" d="M720.64,250.85c2.49,1.93,11.1.08,9.09-4.91"/><path class="cls-7" d="M710.17,276.77c-1.77-.32-4.83-2.25-6.12-3.86"/><path class="cls-7" d="M727.88,263.41c-2.9.64-4.83,0-6.28-.64"/><path class="cls-7" d="M682.16,279.51c1.61,0,5.47-.64,8.13-2.01"/><path class="cls-7" d="M677.33,251.02c-2.09-.24-3.62.16-4.83.97"/><path class="cls-7" d="M709.77,258.9c-.56,2.01-2.01,5.15-3.78,6.52"/><path class="cls-7" d="M671.86,265.99c4.03-1.77,9.02,11.91,18.67,7.08"/><path class="cls-7" d="M691.34,258.9c-1.29,1.77-2.09,4.51-2.25,6.92"/><path class="cls-7" d="M498.81,237.98c1.29-.16,3.54-.64,4.02-2.25"/><path class="cls-7" d="M333.16,387.85c4.83,2.74,8.21,7.4,6.12,14.33"/><path class="cls-7" d="M554.5,223.17c1.45.97,6.92.97,9.98-.16"/><path class="cls-7" d="M568.35,226.39c-.16,2.25.48,10.79-3.86,12.56"/><path class="cls-7" d="M566.1,237.82c4.03,1.29,12.08.8,14.65-6.6"/><path class="cls-7" d="M575.11,237.49c2.09,3.22,2.73,9.5-3.54,12.88"/><path class="cls-7" d="M576.72,242.81c4.67,1.61,15.45,1.77,14.33-7.4"/><path class="cls-7" d="M587.35,242.81c3.22,4.51,17.39,9.82,15.13.48"/><path class="cls-7" d="M574.31,255.84c5.47,1.29,13.2-2.41,9.98-12.07"/><path class="cls-7" d="M599.74,248.6c.8,3.7,18.83,7.57,16.42-.8"/><path class="cls-7" d="M612.78,252.63c3.38,7.73,21.25,7.08,15.62-3.22"/><path class="cls-7" d="M625.5,257.45c3.54,4.35,19.32,1.77,13.04-8.69"/><path class="cls-7" d="M638.37,257.29c9.82,7.4,21.25-3.22,8.85-10.95"/><path class="cls-7" d="M652.86,254.88c8.7,6.92,19.32-5.63,11.75-9.18"/><path class="cls-7" d="M584.12,251.98c2.74.8,8.53.48,9.82-4.51"/><path class="cls-7" d="M591.77,250.85c-.32,7.33,12,10.14,15.13,1.69"/><path class="cls-7" d="M602.8,257.13c2.25,4.83,13.04,6.76,14.81-.16"/><path class="cls-7" d="M615.84,260.19c1.77,4.83,11.11,4.35,13.68-.64"/><path class="cls-7" d="M626.14,262.77c2.9,6.28,14.81,6.28,17.55-2.9"/><path class="cls-7" d="M641.6,263.89c4.67,2.9,14.65,1.77,13.84-7.24"/><path class="cls-7" d="M653.51,263.09c6.92,5.63,16.74.16,11.91-9.34"/><path class="cls-7" d="M664.94,270.49c3.7-.64,5.63-8.05,1.77-9.98"/><path class="cls-7" d="M579.14,271.78c7.72-4.19,9.17-11.27,3.86-18.19"/><path class="cls-7" d="M585.74,264.7c4.83,2.9,14-.16,15.61-7.24"/><path class="cls-7" d="M592.34,265.5c2.73,3.54,3.22,7.89-.33,11.91"/><path class="cls-7" d="M594.59,270.01c8.53-5.31,19.15,4.51,11.27,10.46"/><path class="cls-7" d="M604.41,269.53c1.93-.48,5.31-4.02,5.63-8.05"/><path class="cls-7" d="M608.27,273.23c3.54-3.7,27.69,3.86,12.4,11.59"/><path class="cls-7" d="M619.54,263.09c4.67,1.77,7.08,8.37,0,10.62"/><path class="cls-7" d="M625.66,279.19c5.15-5.31,21.25-1.93,15.45,4.83"/><path class="cls-7" d="M637.25,277.09c2.9-9.82,20.12-3.7,14.49.32"/><path class="cls-7" d="M633.71,267.27c.48,1.93.64,6.76-2.58,9.34"/><path class="cls-7" d="M648.2,265.34c.64,1.61.48,4.67-.97,6.6"/><path class="cls-7" d="M659.14,265.5c.97,1.77,2.58,5.15-.97,7.89"/><path class="cls-7" d="M521.35,191.45c.16,9.18,3.38,15.29,15.78,9.5"/><path class="cls-7" d="M525.21,202.4c-6.12,8.21.8,17.06,12.88,8.21"/><path class="cls-7" d="M506.37,206.42c8.37,9.01,23.34,2.41,13.68-11.27"/><path class="cls-7" d="M530.2,214.15c-1.61,8.85,5.63,10.62,11.59,6.6"/><path class="cls-7" d="M498.97,207.87c1.52,8.9,10.62,15.94,19.48,10.46"/><path class="cls-7" d="M509.92,220.11c0,12.72,17.55,14.17,21.57.97"/><path class="cls-7" d="M525.21,229.12c5.63,11.59,17.87,6.92,21.89-.16"/><path class="cls-7" d="M512.81,210.61c2.25,5.63,6.76,11.91,17.22,7.24"/><path class="cls-7" d="M480.62,207.87c1.45,4.67,9.82,10.3,19.48,3.86"/><path class="cls-7" d="M486.57,213.83c-5.15,7.57,5.15,14.65,17.55,3.38"/><path class="cls-7" d="M492.69,223.17c2.09,10.62,6.27,19.16,21.41,5.47"/><path class="cls-7" d="M506.53,234.11c5.48,6.76,13.85,10.95,21.73-.48"/><path class="cls-7" d="M534.06,236.04c-.48,8.05,1.12,12.07,7.4,11.75,4.95-.25,9.66-4.19,12.4-8.37"/><path class="cls-7" d="M540.34,247.8c-.16,9.18,7.08,16.42,20.6,7.08"/><path class="cls-7" d="M545.97,258.58c-2.58,6.92,5.15,18.19,20.28,12.39"/><path class="cls-7" d="M513.94,240.23c-.96,8.85,7.25,14.81,20.45,3.38"/><path class="cls-7" d="M520.38,250.05c.48,7.24,8.69,15.94,20.77,3.38"/><path class="cls-7" d="M526.17,259.23c-.97,12.39,10.46,15.94,20.12,6.44"/><path class="cls-7" d="M508.95,250.05c2.58.16,4.67-2.09,5.95-3.7"/><path class="cls-7" d="M514.42,259.06c2.25.48,6.12-1.61,7.41-4.19"/><path class="cls-7" d="M520.06,273.71c2.58,2.74,11.27.8,12.39-2.9"/><path class="cls-7" d="M529.72,273.55c4.83,11.27,17.7,10.79,23.02-1.93"/><path class="cls-7" d="M550.32,276.13c2.41,6.6,8.53,10.79,18.51,8.53"/><path class="cls-7" d="M555.15,282.89c-5.63,9.18,1.77,19.96,14.33,9.34"/><path class="cls-7" d="M558.21,296.57c-.64,5.8,4.67,12.39,11.91,13.2"/><path class="cls-7" d="M534.38,279.67c-1.93,13.04,7.4,19.32,19.16,12.39"/><path class="cls-7" d="M520.7,285.95c3.06,2.41,8.53,2.74,13.68.8"/><path class="cls-7" d="M540.66,294.32c-2.9,10.95,8.37,18.83,18.03,6.6"/><path class="cls-7" d="M525.05,287.72c.16,5.63,5.64,11.75,15.13,9.98"/><path class="cls-7" d="M566.74,308.97c-6.44,4.35-7.73,12.07,1.29,17.06"/><path class="cls-7" d="M550.96,306.71c.33,6.6,3.38,10.3,10.62,10.95"/><path class="cls-7" d="M541.47,303.33c-9.66,8.85-.16,19.16,11.27,10.46"/><path class="cls-7" d="M548.23,316.53c-3.22,10.14,8.85,16.26,15.29,5.96"/><path class="cls-7" d="M528.27,294.96c-3.54,9.98.97,16.58,9.17,15.94"/><path class="cls-7" d="M515.55,293.03c.48,5.96,5.63,8.05,11.43,6.76"/><path class="cls-7" d="M519.25,299.31c-4.35,8.37,2.25,12.88,10.95,9.66"/><path class="cls-7" d="M556.6,327.64c-1.45,5.31-.65,9.18,7.24,10.95"/><path class="cls-7" d="M557.08,335.21c-9.5,4.35-10.3,13.52-2.9,19.48"/><path class="cls-7" d="M549.43,324.99c-4.99,4.51-4.03,12.31,1.45,15.37"/><path class="cls-7" d="M507.18,295.61c-5.48,5.39-.24,20.28,11.83,12.15"/><path class="cls-7" d="M538.57,314.44c-7.41,6.12-4.03,17.23,8.21,14.17"/><path class="cls-7" d="M526.33,309.77c-3.86,10.95-.16,14.81,8.53,14.97"/><path class="cls-7" d="M499.13,295.12c-6.6,4.99-4.83,12.07-1.93,15.29,2.9,3.22,8.37,1.77,10.14-2.41"/><path class="cls-7" d="M485.28,290.78c-7.4,9.5,0,20.77,10.47,17.39"/><path class="cls-7" d="M524.89,318.95c-7.57,2.74-13.34,9.61-8.7,15.61,2.74,3.54,14.65,4.02,18.03-9.66"/><path class="cls-7" d="M511.2,310.09c-4.35,6.28-2.9,12.23,5.15,15.29"/><path class="cls-7" d="M510.72,321.85c-4.67,2.58-7.73,5.63-6.6,11.27"/><path class="cls-7" d="M500.26,312.03c-1.77,7.57.32,12.23,4.99,14.49"/><path class="cls-7" d="M500.1,321.04c-7.25-.48-10.95,2.58-8.53,9.66"/><path class="cls-7" d="M492.21,322.81c-7.08-2.58-8.21-8.69-5.15-15.13"/><path class="cls-7" d="M486.09,317.18c-7.73.32-11.11,4.19-11.11,9.5"/><path class="cls-7" d="M475.62,287.07c-5.63,2.41-7.4,9.98-5.31,14.17,2.1,4.19,8.7,4.51,12.72,1.77"/><path class="cls-7" d="M459.85,281.12c-5.15,5.8.8,17.06,9.98,14.33"/><path class="cls-7" d="M446.65,276.61c-4.83,6.76.48,18.03,12.88,14.81"/><path class="cls-7" d="M460.17,322.81c-1.29-8.05,7.08-13.36,17.39-2.9"/><path class="cls-7" d="M472.57,303.66c-3.06,2.74-4.5,7.08-4.02,10.62"/><path class="cls-7" d="M433.45,272.75c-5.31,9.02,1.13,17.23,12.56,14.01"/><path class="cls-7" d="M463.23,295.12c-7.57,7.57-4.99,15.13.64,19.48"/><path class="cls-7" d="M458.4,303.98c-11.43.16-12.07,13.36-2.73,17.55"/><path class="cls-7" d="M449.71,290.78c-4.67,3.22-6.12,12.07,1.93,15.61"/><path class="cls-7" d="M449.39,310.58c-4.83-2.25-10.62.48-10.14,6.12"/><path class="cls-7" d="M442.14,310.74c-4.35-10.3-17.06-8.53-15.93,2.09"/><path class="cls-7" d="M445.68,298.02c-2.73.48-8.21,2.09-10.3,6.28"/><path class="cls-7" d="M436.19,286.43c-5.15,5.8-1.13,12.72,3.06,14.17"/><path class="cls-7" d="M420.9,270.17c-.97,6.92,1.77,10.3,10.46,9.66"/><path class="cls-7" d="M423.95,279.03c-3.38,8.37,1.12,12.07,9.82,11.59"/><path class="cls-7" d="M425.88,289.33c-5.15,6.12-1.61,12.72,3.38,15.45"/><path class="cls-7" d="M423.47,297.06c-9.17-1.13-10.62,9.5-7.57,14.49"/><path class="cls-7" d="M416.06,269.37c-5.63,2.41-8.85,9.5-5.79,13.84,3.06,4.35,9.18,2.9,12.56.64"/><path class="cls-7" d="M412.2,285.14c-4.67,7.08-.48,12.39,4.51,14.49"/><path class="cls-7" d="M394.17,268.56c-3.7,3.86-1.45,11.75,7.57,11.91,7.26.13,10.95-6.76,8.69-11.59"/><path class="cls-7" d="M400.45,280.47c-2.9,6.44-1.13,13.36,9.82,12.23"/><path class="cls-7" d="M414.94,302.85c-6.76-3.06-15.78,0-11.91,8.05"/><path class="cls-7" d="M402.06,291.42c-2.74,3.86-1.77,9.34,1.29,12.72"/><path class="cls-7" d="M401.58,301.72c-4.51.8-8.85,3.22-6.12,10.3"/><path class="cls-7" d="M394.81,306.23c-5.8-1.77-13.2,2.41-8.69,8.37"/><path class="cls-7" d="M385.16,308.97c-4.99-.81-10.95,4.51-6.12,9.82"/><path class="cls-7" d="M377.11,314.44c-4.51,1.13-9.82,6.28-5.15,10.3"/><path class="cls-7" d="M399.81,289.17c-6.44,2.9-7.08,10.14-4.02,15.45"/><path class="cls-7" d="M393.04,275.81c-9.66,3.7-9.5,16.58,1.13,20.61"/><path class="cls-7" d="M389.66,293.51c-5.8,3.38-6.92,9.82-3.06,14.01"/><path class="cls-7" d="M379.52,270.98c-3.86,1.29-3.54,13.2,6.76,12.88"/><path class="cls-7" d="M368.9,275c-7.73,5.15,1.61,18.19,14.17,8.85"/><path class="cls-7" d="M376.14,287.07c-1.13,5.31.32,11.11,8.85,11.75"/><path class="cls-7" d="M376.62,294.16c-6.12,2.25-7.24,14.81,3.86,15.78"/><path class="cls-7" d="M357.15,282.73c-7.89,7.24,6.44,13.52,11.75,3.06"/><path class="cls-7" d="M346.2,294.8c-3.86,4.67,9.66,16.9,15.61-3.54"/><path class="cls-7" d="M363.26,290.94c.32,4.83,3.22,7.73,9.18,8.05"/><path class="cls-7" d="M372.28,303.66c-9.5,1.45-12.56,13.36-1.93,15.94"/><path class="cls-7" d="M354.73,302.05c-.32,4.51,4.35,8.21,9.66,7.4"/><path class="cls-7" d="M369.22,319.27c-8.69,1.93-9.82,13.2-2.09,12.56"/><path class="cls-7" d="M363.1,342.29c-7.24-2.17-7.41-10.79-.97-14.01"/><path class="cls-7" d="M357.15,334.72c-6.12,3.7-3.7,12.56-.48,13.84,3.22,1.29,5.8-.32,6.12-3.06"/><path class="cls-7" d="M362.3,357.9c.64,4.19-14.89,2.58-6.92-10.46"/><path class="cls-7" d="M355.29,358.63c-5.23,8.21,3.3,14.89,8.69,7.89"/><path class="cls-7" d="M356.02,368.53c-2.09,6.6,5.88,11.35,11.03,6.2"/><path class="cls-7" d="M338.63,306.71c-2.9,5.96,11.59,8.21,12.56-4.02"/><path class="cls-7" d="M334.61,315.57c-2.9,11.59,18.99,9.18,13.36-5.8"/><path class="cls-7" d="M348.45,317.5c3.06,1.77,12.23,1.93,14.49-7.89"/><path class="cls-7" d="M356.34,317.82c.64,3.06,3.38,6.76,5.96,7.89"/><path class="cls-7" d="M345.88,320.88c-.97,6.28,5.31,11.43,12.56,10.95"/><path class="cls-7" d="M347,327c-3.54,4.83-4.67,14.17,6.44,14.81"/><path class="cls-7" d="M330.1,328.61c-1.77,4.99,8.69,10.14,14.81,1.93"/><path class="cls-7" d="M326.88,341.32c-.89,3.78,8.53,8.85,13.84-7.24"/><path class="cls-7" d="M336.54,342.29c2.25,4.02,9.82,7.24,14.49-.64"/><path class="cls-7" d="M343.46,346.48c-1.93,5.63,3.38,10.95,9.82,9.34"/><path class="cls-7" d="M331.39,345.19c-1.29,8.05,8.05,12.72,13.84,8.53"/><path class="cls-7" d="M325.27,348.73c-2.74,10.3,10.46,14.17,15.45,6.44"/><path class="cls-7" d="M337.35,358.23c.48,5.8,9.5,10.79,16.58,5.96"/><path class="cls-7" d="M321.25,363.06c-.64,2.58,10.14,5.15,11.75-3.86"/><path class="cls-7" d="M327.53,365.31c2.58,6.6,11.27,8.21,16.26.16"/><path class="cls-7" d="M340.89,368.69c1.13,6.12,9.02,9.5,15.94,5.31"/><path class="cls-7" d="M359.72,376.42c-1.77,8.21,6.76,14.81,12.07,10.3"/><path class="cls-7" d="M346.04,374.97c-2.58,9.02,8.69,14.17,14.97,9.18"/><path class="cls-7" d="M332.52,370.46c-.64,8.37,5.96,13.36,13.52,9.66"/><path class="cls-7" d="M318.19,371.27c-2.25,5.47,9.66,9.98,15.29,5.31"/><path class="cls-7" d="M310.78,386.24c3.06,3.54,13.68,0,14.65-7.89"/><path class="cls-7" d="M322.54,384.14c3.86,4.51,13.04,6.92,16.74-2.74"/><path class="cls-7" d="M336.06,386.4c-.16,6.92,12.23,11.91,16.26-.8"/><path class="cls-7" d="M366.88,388.09c-1.13,3.38,1.53,8.77,7.08,9.42"/><path class="cls-7" d="M356.66,386c-.8,3.86,4.83,9.26,10.79,7.08"/><path class="cls-7" d="M368.58,394.69c-1.61,4.19-.24,10.22,5.39,10.14"/><path class="cls-7" d="M369.14,402.5c-4.19,3.54-2.42,9.82,3.62,10.06"/><path class="cls-7" d="M366.97,408.45c-5.96,4.02-3.86,12.88,4.02,12.4"/><path class="cls-7" d="M348.94,391.39c0,8.69,10.79,9.98,12.88,1.93"/><path class="cls-7" d="M357.63,398.47c-1.61,5.15,2.58,10.14,9.18,8.69"/><path class="cls-7" d="M358.92,460.61c1.45,2.1,7.4-1.45,5.8-4.99s-7.92-1.62-7.24,2.09"/><path class="cls-7" d="M363.26,454.17c.8-7.08-7.57-8.21-9.66-2.09"/><path class="cls-7" d="M356.66,448.54c2.09-3.54-4.99-8.37-7.89-3.22"/><path class="cls-7" d="M351.35,443.22c1.93-5.15-6.12-7.4-6.76-2.74"/><path class="cls-7" d="M342.82,433.72c.97-2.58,9.98-.97,6.12,4.35"/><path class="cls-7" d="M355.86,444.51c3.54-3.22-2.41-9.82-6.12-7.4"/><path class="cls-7" d="M379.68,454.33c-2.82.32-5.72,2.17-3.62,8.13,1.45,4.13,7.65,4.35,8.53,1.85"/><path class="cls-7" d="M375.58,457.31c-2.74-1.77-8.69,1.21-5.96,7,2.06,4.36,7.24,2.58,8.05.32"/><path class="cls-7" d="M360.2,465.6c1.37,2.41,8.21,1.37,9.42-1.29"/><path class="cls-7" d="M364.87,457.63c1.45-.97,4.1.24,4.67,1.45"/><path class="cls-7" d="M364.39,417.95c-4.67,3.06-1.77,12.4,5.47,9.98"/><path class="cls-7" d="M362.94,425.52c-3.7,2.9-.32,11.91,6.6,8.53"/><path class="cls-7" d="M364.07,434.05c-2.58,2.58-.08,9.74,6.6,8.37"/><path class="cls-7" d="M363.1,437.59c-1.45-.65-5.23-.16-6.84,2.25"/><path class="cls-7" d="M358.92,404.99c-3.54,3.38-1.85,10.3,4.75,10.87"/><path class="cls-7" d="M357.63,412.07c-5.07,2.5-5.07,12.55,5.07,12.96"/><path class="cls-7" d="M357.23,423.42c-2.82,2.25-1.45,10.95,5.8,9.82"/><path class="cls-7" d="M359.56,432.92c-1.05,1.05-1.21,3.7-.32,4.83"/><path class="cls-7" d="M356.34,429.62c-2.58.08-5.96,1.93-6.84,4.59"/><path class="cls-7" d="M344.83,424.87c.97-2.58,8.94-2.41,9.5,5.15"/><path class="cls-7" d="M355.13,421.01c-1.13.24-3.3,1.29-3.86,3.46"/><path class="cls-7" d="M351.67,397.43c-3.46,3.14-5.15,13.04,5.39,14.97"/><path class="cls-7" d="M344.67,417.87c0-2.66,7.16-4.91,9.66-.97"/><path class="cls-7" d="M340.08,403.46c1.05,2.01,6.04,4.75,9.1,2.5"/><path class="cls-7" d="M314.16,387.69c-.16,4.67,3.7,8.85,9.02,8.21,5.31-.64,6.44-5.31,4.83-8.37"/><path class="cls-7" d="M323.98,396.06c-3.54,4.35.8,10.46,4.83,8.69"/><path class="cls-7" d="M328.01,393c2.09-.8,9.02-1.77,11.11,1.45"/><path class="cls-7" d="M305.63,394.29c-1.61,2.41,8.37,4.83,11.75.16"/><path class="cls-7" d="M314,396.86c-.32,3.22,1.29,8.69,9.5,6.44"/><path class="cls-7" d="M324.79,408.29c1.29-2.74-4.83-7.24-9.5-2.25-4.67,4.99.64,10.62,3.54,8.69"/><path class="cls-7" d="M303.38,397.51c-2.41,4.19,6.92,11.83,12.23,4.75"/><path class="cls-7" d="M297.18,404.75c-3.38,3.46.8,9.82,5.88,7.89,5.07-1.93,4.59-7.24,3.38-8.61"/><path class="cls-7" d="M290.66,411.19c-2.74,2.49-.08,8.37,3.7,8.37s6.12-2.98,5.39-6.76"/><path class="cls-7" d="M306.03,410.71c-.48,3.7,4.99,6.28,8.53,2.82"/><path class="cls-7" d="M314.73,406.76c.48-.8.08-2.17-.72-2.82"/><path class="cls-7" d="M284.79,416.18c-3.14,2.5,3.62,9.42,7.89,3.06"/><path class="cls-7" d="M309.01,414.81c-2.01,1.93,1.21,7,4.43,5.47"/><path class="cls-7" d="M297.99,418.35c.48,3.46,7.24,6.03,11.51.73"/><path class="cls-7" d="M301.69,421.81c-1.05,2.17,1.05,5.64,3.62,5.15"/><path class="cls-7" d="M365.76,441.7c-2.49,4.91,5.47,10.62,11.27,4.67"/><path class="cls-7" d="M371.55,449.02c-1.21,2.65.24,6.36,2.41,7.73"/><path class="cls-7" d="M363.99,454.57c.56-2.42,4.02-4.67,7.16-3.54"/><path class="cls-7" d="M359.8,448.21c.48-2.17,3.38-4.35,5.55-3.78"/><path class="cls-7" d="M549.35,347.76c-11.43.16-6.6,18.51,3.22,14.81"/><path class="cls-7" d="M545.65,361.29c-2.25,3.7,2.09,9.58,6.92,6.12"/><path class="cls-7" d="M551.29,368.13c-3.38,5.63,8.69,14.25,13.52,5.39"/><path class="cls-7" d="M560.95,376.9c.16,5.31,15.61,8.69,13.36-1.93"/><path class="cls-7" d="M572.86,380.76c3.7,6.28,17.55,6.92,16.1-2.41"/><path class="cls-7" d="M585.9,384.79c2.9,4.19,16.42,6.76,15.94-1.93"/><path class="cls-7" d="M531,331.83c1.93,4.99,8.53,6.76,15.78,3.86"/><path class="cls-7" d="M526.82,335.37c4.51,2.9-2.09,16.1-9.01,10.79"/><path class="cls-7" d="M526.82,343.58c4.99,2.42,11.11.64,12.88-6.44"/><path class="cls-7" d="M536.64,342.61c.48,3.7,5.8,6.6,12.72,5.15"/><path class="cls-7" d="M524.24,346.48c6.44,5.47-2.9,16.74-7.08,11.59"/><path class="cls-7" d="M526.66,350.66c3.06,2.25,10.95.97,11.75-4.99"/><path class="cls-7" d="M534.87,350.66c.65,3.86,3.7,5.31,8.05,5.47"/><path class="cls-7" d="M524.89,355.97c3.22,4.51,11.27,5.8,14.81-.16"/><path class="cls-7" d="M536.15,359.19c-.32,4.35,4.51,7.89,9.5,6.92"/><path class="cls-7" d="M518.61,368.85c4.18,2.09,8.69-5.8,5.15-11.27"/><path class="cls-7" d="M523.44,377.22c4.99.32,5.63-7.24.97-11.43"/><path class="cls-7" d="M534.87,384.14c4.19-.97,2.9-10.14-7.25-10.95"/><path class="cls-7" d="M547.58,390.91c4.03-1.13.8-11.27-10.3-10.62"/><path class="cls-7" d="M562.88,394.45c2.73-4.19-6.28-11.27-13.68-7.57"/><path class="cls-7" d="M570.44,400.24c4.99,1.45,8.37-11.75-7.4-9.66"/><path class="cls-7" d="M579.62,400.24c4.35-1.13,7.41-9.02-5.31-6.44"/><path class="cls-7" d="M589.28,400.89c3.86,1.93,5.63-9.34-6.12-6.28"/><path class="cls-7" d="M524.4,365.79c4.83,2.74,12.4-.48,11.75-6.6"/><path class="cls-7" d="M534.22,364.51c1.61,2.9.97,8.53-2.09,9.98"/><path class="cls-7" d="M534.7,371.27c3.22,1.29,7.57.16,10.14-4.99"/><path class="cls-7" d="M540.34,371.27c.96,2.25,1.29,6.76-.81,9.02"/><path class="cls-7" d="M541.15,375.13c3.54,1.93,7.72-.64,9.5-4.35"/><path class="cls-7" d="M548.39,374c2.58,1.61,4.83,9.18.48,12.23"/><path class="cls-7" d="M551.29,382.7c3.06.16,7.57.16,10.46-3.7"/><path class="cls-7" d="M559.66,381.09c2.74.8,5.95,5.31,4.83,9.34"/><path class="cls-7" d="M564.65,388.97c3.06-.32,8.37-2.42,9.82-6.12"/><path class="cls-7" d="M573.02,385.27c2.58,1.45,4.35,4.51,4.03,8.05"/><path class="cls-7" d="M577.04,390.74c3.06-.16,5.8-1.77,6.6-5.15"/><path class="cls-7" d="M582.84,387.85c2.25.8,4.99,3.38,5.15,6.44"/><path class="cls-7" d="M587.67,392.35c2.25-.32,3.86-1.77,5.31-4.02"/><path class="cls-7" d="M599.1,388.01c2.9,2.9-.96,12.56-6.92,10.79"/><path class="cls-7" d="M537.28,192.9c-5.96,3.54-22.86,2.41-14.49-11.59"/><path class="cls-7" d="M538.89,183.4c-11.75,4.67-26.24-4.35-11.11-14.17"/><path class="cls-7" d="M523.76,166.02c-9.82,0-16.42,15.78-3.22,21.25"/><path class="cls-7" d="M485.61,172.62c-2.58,4.99,6.6,10.46,12.88,5.47,4.86-3.87,4.5-14.33,1.61-18.35"/><path class="cls-7" d="M480.62,184.53c-3.22,10.62,20.45,11.27,16.74-5.63"/><path class="cls-7" d="M479.33,200.31c.8,8.05,22.7,5.47,15.61-10.79"/><path class="cls-7" d="M497.52,185.01c1.77,2.41,6.6,6.6,14.81,5.79"/><path class="cls-7" d="M501.38,173.58c.73,2.9,5.63,5.15,11.91,2.98"/><path class="cls-7" d="M281.73,418.51c-5.55,3.95,2.98,10.14,6.12,3.3"/><path class="cls-7" d="M277.38,421.57c-5.55,3.94,2.98,10.14,6.12,3.3"/><path class="cls-7" d="M272.79,424.55c-5.55,3.95,2.98,10.14,6.12,3.3"/><path class="cls-7" d="M267.96,427.29c-5.31,2.82.88,9.74,6.28,3.62"/><path class="cls-7" d="M262.73,429.95c-5.31,2.81.89,9.74,6.28,3.62"/><path class="cls-7" d="M289.7,421.65c-.08,4.1,7.73,5.8,10.54-.33"/><path class="cls-7" d="M294.61,425.44c-2.41,3.06,2.01,6.84,4.43,5.47"/><path class="cls-7" d="M284.22,424.87c-.24,3.46,6.52,5.48,9.82,1.69"/><path class="cls-7" d="M287.93,428.5c-2.17,2.82,2.09,6.6,4.83,5.47"/><path class="cls-7" d="M279.72,428.01c.24,2.74,4.1,5.88,8.29,4.1"/><path class="cls-7" d="M282.21,431.71c-1.61,1.45-.8,4.83,1.45,5.88"/><path class="cls-7" d="M273.84,431.47c-.64,2.5,3.62,6.92,7.97,4.02"/><path class="cls-7" d="M274.72,434.37c-2.58,2.01-2.25,5.07,1.05,5.47"/><path class="cls-7" d="M268.53,434.05c-.32,1.69,1.85,4.42,4.59,4.1"/><path class="cls-7" d="M254.76,433.89c-2.58,1.37,4.02,8.37,8.13,1.85"/><path class="cls-7" d="M248.4,436.78c-3.22,1.53,4.75,9.26,8.29,1.37"/><path class="cls-7" d="M269.25,436.46c-2.5.56-4.11,4.19-2.01,5.63"/><path class="cls-7" d="M261.12,437.75c-.32,1.45,2.74,3.86,5.23,2.98"/><path class="cls-7" d="M259.03,438.4c-2.41,1.53-1.13,5.79,1.69,5.15"/><path class="cls-7" d="M250.42,441.21c-2.25,1.69-.73,5.07,2.41,4.27"/><path class="cls-7" d="M254.52,440.97c.08.88,2.09,2.25,3.78,1.69"/><path class="cls-7" d="M242.61,439.52c-2.82,1.21-2.66,8.29,6.84,4.43"/><path class="cls-7" d="M236.25,442.34c-3.94,1.93-2.66,7.25,5.96,2.17"/><path class="cls-7" d="M242.93,444.92c-1.05.8-2.17,4.35,1.77,2.98"/><path class="cls-7" d="M235.69,446.6c-1.61,1.45-.56,4.43,2.98,3.3"/><path class="cls-7" d="M227.4,447.09c-2.9,1.69,3.46,3.95,7.73-.56"/><path class="cls-7" d="M229.33,449.18c-1.29,1.29-1.29,5.07,2.09,3.7"/><path class="cls-7" d="M221.12,450.71c-1.93,1.45,1.37,3.38,7.4.73"/><path class="cls-7" d="M223.53,452.8c-2.25,1.85-2.01,4.18,1.29,3.46"/><path class="cls-7" d="M216.85,453.85c-2.49,2.25,1.13,3.78,5.47,1.93"/><path class="cls-7" d="M216.93,456.35c-4.27,1.93-2.41,5.47.24,4.1"/><path class="cls-7" d="M359.4,468.66c-.99,2.13,2.25,3.86,5.31,3.38,2.94-.46,5.75-2.88,3.54-6.27"/><path class="cls-7" d="M368.41,469.95c2.9,2.25,8.05-.32,8.05-3.7"/><path class="cls-5" d="M545.97,128.83c-12.88-6.44-39.6-18.35-47.17-8.69,6.92-2.9,27.2.16,43.95,15.62l3.22-6.92h0Z"/><path class="cls-5" d="M553.78,128.15c-14.89-17.35-23.66-13.46-34.37-19.44-10.06-5.61-26.08-6.76-29.18,2.17,14.7-7.16,28.19,3.85,36.48,5.18,11.38,1.83,17.81,10.63,21.14,14.67l5.94-2.58h0Z"/><path class="cls-5" d="M609.88,125.93c-7.73-17.71-24.25-13.08-31.55-20.61-10.62-10.95-37.5-21.09-48.61-13.52,24.47-1.29,34.89,16.86,47.97,23.18,9.34,4.51,19.32,14.17,32.2,10.95h0Z"/><path class="cls-5" d="M580.91,124c-13.2-16.42-33.49-30.91-42.82-25.43,12.23.64,16.1,9.18,24.79,14.65,8.69,5.47,4.83,13.36,18.03,10.79Z"/><path class="cls-5" d="M518.12,152.98c-13.85-5.15-40.89-7.73-53.45,8.05,20.93,3.54,52.48,1.61,53.45-8.05Z"/><path class="cls-5" d="M515.55,159.1c-13.85-6.44-24.66,2.55-37.67,1.29-24.79-2.41-42.5-.97-44.75,10.95,14.17-12.72,37.99-2.25,47.65-4.83,9.66-2.58,45.4-.32,56.66,4.51-5.8-7.08-14.81-9.01-21.89-11.91h0Z"/><path class="cls-5" d="M559.01,122.23c-3.22-10.62-3.06-21.89,12.88-21.09-4.03-4.99-18.83-7.57-21.25,11.11-17.55-12.88-36.7-15.13-40.24-4.02,9.01-7.73,23.02-2.09,39.76,16.9,1.45-.81,5.31-2.41,8.85-2.9h0Z"/><path class="cls-5" d="M534.87,136.88c-9.98-6.44-23.5-16.9.16-21.09-10.14-5.47-24.95-3.06-23.34,15.62-27.05-10.95-46.47-7.25-50.55,3.54-4.51,11.91,12.24,18.51,15.13,10.95-3.06,1.29-13.52-2.25-8.05-9.01,5.48-6.76,33.52-1.69,60.21,12.24,7.4,3.86,32.84,3.22,6.44-12.24h0Z"/><path class="cls-5" d="M527.78,154.59c-7.7-15.72-32.68-1.45-37.71-16.68-6.88,22.31,35.52,9.97,37.71,16.68Z"/><path class="cls-5" d="M686.67,171.65c5.24,2.6,9.77-1.49,1.75-4.7,5.24,2.6,9.81-1.39,1.8-4.6,5.24,2.6,9.81-1.39,1.8-4.6-2.14,2.15-5.2,10.04-5.35,13.9h0Z"/><path class="cls-5" d="M689.4,141.39c11.59-12.23-.96-16.42,13.2-28.98,11.59-10.27,2.21-17.12,13.2-25.11,3.54-2.58,11.27-7.73,11.91-12.88,4.67,11.59-14.49,13.2-13.2,31.87.82,11.89-7.22,10.85-10.3,30.91-.65,4.19-3.54,13.52-14.81,4.19h0Z"/><path class="cls-5" d="M694.56,146.86c6.44-13.84,13.83-13.58,17.38-19,6.76-10.3,21.09,1.77,33.16-7.4-2.09,13.04-18.35,8.37-25.43,16.74-7.08,8.37-12.88,12.24-25.11,9.66h0Z"/><path class="cls-5" d="M696.17,151.37c11.27-9.01,19.58-3,27.37-7.73,19.64-11.91,27.53,2.41,45.08-3.22-4.67,11.27-30.59,1.61-41.85,9.98-11.27,8.37-50.87,16.42-30.59.97h0Z"/><path class="cls-5" d="M663.33,215.6c-.16-5.15-4.99-11.75-11.75-12.56-6.76-.8-9.66-7.89-14.81-8.21-5.15-.32-8.53-10.62-15.62-10.46-7.08.16-9.98,9.34,6.6,17.71,16.58,8.37,34.93,18.03,35.58,13.52h0Z"/><path class="cls-5" d="M642.4,219.95c-7.08.32-8.05,10.62-14.81,10.95,9.33,4.99,16.1-2.25,20.92-8.69l-6.12-2.25h0Z"/><path class="cls-5" d="M648.2,221.23c-6.12,5.15-7.89,15.94.97,18.99-5.31-7.32,9.34-10.62,4.83-17.39l-5.8-1.61h0Z"/><path class="cls-5" d="M654.31,221.56c-4.83,9.34,7.57,10.46,4.35,17.55,7.08-1.61,8.21-14.97,1.77-18.51l-6.12.97h0Z"/><path class="cls-5" d="M606.98,201.59c11.59-.64,22.19,5.63,29.3,15.78,4.51,6.44,19.64,9.01,24.79,3.86,5.15-5.15,2.25-16.1-10.62-12.56-3.22-5.47-12.56-3.54-17.06-8.05-4.51-4.51-21.9-17.38-26.4.97h0Z"/><path class="cls-5" d="M650.45,208.68c-3.06.64-4.03,5.96-2.1,8.69"/><path class="cls-5" d="M657.05,211.9c.97,1.61.32,3.86-.16,4.99"/><path class="cls-5" d="M625.34,202.08c5.95.32,7.08,4.67,13.52,6.28"/><path class="cls-5" d="M621.4,187.43c20.57,5.15,36.89,9.66,47.01,15.45,10.12,5.8,25.79,7.4,39.5,3.54,13.71-3.86,40.15-7.4,38.85,9.66,7.19-8.53-1.96-17.71-20.24-19.32.33-8.37-8.63-15.94-15.07-10.95,5.96-.8,11.1,10.3-.65,14.81,2.28-8.37-6.04-15.94-14.69-12.23,5.55,1.61,11.16,10.92-1.25,14.49-7.84,2.25-19.26-.64-27.75-5.79-8.49-5.15-56.15-23.82-45.71-9.66h0Z"/><path class="cls-5" d="M673.31,179.06c-6.44,2.9-2.25,9.66-12.23,13.52-9.98,3.86-16.9,12.72-14.65,20.28,6.76-14.81,18.67-14.17,22.86-19.96,4.19-5.8,10.3-14.33,4.03-13.84h0Z"/><path class="cls-5" d="M675.08,180.02c-.32,11.75-9.57,7.47-5.96,23.99,1.13,5.15,3.22,13.52-.32,21.89,10.38-7.57,3.7-23.46,8.37-29.46,2.25-2.9,5.15-7.4,6.28-11.27-2.42,6.76-2.25,19.32,4.35,22.54-5.31-12.56,14.33-22.86.8-37.35-1.93,3.54-8.05,9.82-13.52,9.66h0Z"/><path class="cls-5" d="M642.24,168.27c1.61,2.41,3.22,8.53,1.77,11.91,3.22-1.93,7.89-6.92,9.34-10.3,6.6.97,9.17,9.18,2.9,12.72,3.86,0,10.46,0,14.16-4.35-4.5-4.99-18.51-12.72-28.17-9.98h0Z"/><path class="cls-5" d="M542.11,145.18c-1.04-.95-2.8-1.85-5.95-2.5-9.75-2-4.71-10.78,3.58-10.71,17.7-19.32,27.65-4.43,49.22-10.54,7.55-2.14,12.73-1.51,16.85.27,9.66-6.44,20.99-4.64,29.2,2.93.91-1.45,2.14-2.56,3.86-3.04,7.56-2.1,13.68,4.35,15.77,12.72,5.9-1.09,12.63,1.83,17.06,5.85,6.13-3.15,10.36-3.29,11.91-.05,5.47-2.58,12.57-4.19,16.11,4.5,3.54,8.69-8.37,6.12-10.3,24.47-1.19,11.32-13.84,15.78-23.83,9.01-15.97-10.82-31.55-12.56-39.28,3.86-7.72,16.42-13.78,25.96-32.52,20.6-6.76-1.93-15.45.64-20.92,8.05-5.47,7.4-13.85.48-23.83,1.29,12.55-1.93,7.75-5.09,18.67-5.8,9.98-.64,7.4-9.98,13.84-11.27-25.11,6.44-24.15-2.9-44.75,3.54,9.01-11.59,23.18-5.15,30.26-11.91-18.67-.32-27.03-12.52-35.42-7.4-13.2,8.05-7.41,30.96-41.85,28.98-16.74-.97-27.37,1.29-37.35,11.27,17.39-36.06,41.04-16.25,52.48-27.69,6.76-6.76,11.91-11.91,15.45-18.35,1.25-2.27,2.93-3.56,5.04-4.06-28.65-9.01-11.33-23.06,16.69-24.02h0Z"/><path class="cls-5" d="M683.59,140.11c.44.91.66,2.08.66,3.53,0,7.08-10.62,7.4-11.27,17.87-.34,5.47-.97,8.53-4.67,7.89-3.7-.64-6.92-6.44-3.38-13.2"/><path class="cls-5" d="M547.42,134.63c-2.67-1.87-5.33-2.63-7.72-2.66"/><path class="cls-5" d="M605.74,121.65c8.53,3.69,12.68,12.55,25.07,12.98,11.92.42,19.32,17.71,39.28,6.44.54-.3,1.07-.59,1.58-.85"/><path class="cls-5" d="M635,124.63c-1.78,2.83-2.18,6.78-1.7,10.24"/><path class="cls-5" d="M596.04,161.03c-15.13,0-19,7.73-19,15.13s7.08,17.06,19.64,17.06,19.32-7.73,19.32-16.1-7.73-16.1-19.96-16.1h0Z"/><path class="cls-5" d="M598.77,192.9c-.32-4.19-7.89-3.54-7.57-6.76.32-3.22,4.19-4.51,4.19-9.01s6.76-4.83,9.01-1.29c2.25,3.54,9.02,10.46,10.47,6.92"/><path class="cls-5" d="M604.41,175.84c-3.54,3.54-5.15,10.79-.48,16.42"/><path class="cls-5" d="M609.24,181.31c-1.12,2.41-1.45,6.12-.16,8.37"/><path class="cls-7" d="M669.36,169.48c11.83.97,13.85-12.07,4.99-12.88"/><path class="cls-7" d="M654.8,134.31c-4.1-5.23-13.52-7-13.68,4.11"/><path class="cls-5" d="M639.99,151.05c-4.03-9.98-14.33-11.43-19.8-6.44-4.55,4.15-4.67,14.97,5.15,17.23,3.38-4.02,9.98-9.34,14.65-10.79h0Z"/><path class="cls-5" d="M635.56,144.77c-5.8-5.15-14.33,4.59-6.6,13.52"/><path class="cls-5" d="M525.31,169.16c3.88-.92,9.55.98,18.25,5.07,5.47,2.58,21.9,8.05,32.2,2.58-10.62,3.86-18.67-12.24-26.72-10.3-8.05,1.93-22.78,4.91-28.97-.97,15.13.97,23.27-11.02,40.56-.64,4.83,2.9,10.95,4.83,16.42,4.51-14.16-17.06-32.84-6.12-34.77-19.96,8.53,9.18,29.38-2.09,40,15.13"/><path class="cls-5" d="M545.33,152.01c-1.99-2.48-1.09-4.95-3.23-6.91"/><path class="cls-6" d="M654.8,134.31c-3.54-3.78-11.27-.8-9.1,6.84,1.69-3.54,5.31-6.52,9.1-6.84Z"/><path class="cls-6" d="M632.91,154.93c2.44-1.77,4.95-3.22,7.08-3.88-1.16-2.86-2.83-5.03-4.76-6.53-1.84-1.27-7.13,5.84-2.32,10.42h0Z"/><path class="cls-7" d="M623.4,141.87c-5.8-3.86-11.11-3.54-12.88-.32-4.18-.16-7.65,2.9-7.81,9.01"/><path class="cls-7" d="M611.65,153.14c-6.92-4.75-16.42-2.98-15.78,7.65"/><path class="cls-7" d="M591.69,166.82c3.38-2.74,8.21-4.67,11.91.16"/><path class="cls-7" d="M643.37,156.36c-1.29,1.77-2.25,4.51-.16,8.69-2.58-3.38-9.01-3.38-15.94,5.63"/><path class="cls-7" d="M658.66,155.88c-8.37.97-8.21,6.44-1.45,8.85"/><path class="cls-7" d="M599.1,135.43c-7.08-1.45-12.23,2.74-2.41,6.28"/><path class="cls-7" d="M612.62,130.6c-9.98-2.41-14.01.16-9.5,2.41"/><path class="cls-7" d="M583.8,170.69c-.32,3.54,1.61,8.21,7.4,2.9"/><path class="cls-7" d="M585.74,181.31c0,.97-.16,2.09-.81,2.9"/><path class="cls-7" d="M562.55,134.14c-6.12-1.77-7.24-7.4-.16-6.92"/><path class="cls-7" d="M560.46,147.18c-6.76-2.25-6.76-8.85-1.13-8.21"/><path class="cls-7" d="M573.02,143.8c-7.89-1.93-8.21-7.41-2.25-6.6"/><path class="cls-7" d="M573.98,127.06c-4.18-.32-10.62,4.35.16,7.08"/><path class="cls-7" d="M585.74,136.4c-9.82-1.45-9.66,2.58-3.87,5.15"/><path class="cls-7" d="M593.14,127.06c-7.57-1.45-10.14,3.06-4.99,4.99"/><path class="cls-7" d="M569.32,154.91c-1.85-1.53-3.38-8.85,5.47-6.68"/><path class="cls-7" d="M587.67,152.66c-5.95-1.61-11.59,4.19-6.12,7.57"/><path class="cls-7" d="M595.55,145.74c-6.28-1.13-11.59.64-8.21,2.9"/><path class="cls-5" d="M654.46,134.31c-3.54.66-6.71,2.73-8.76,6.84"/><path class="cls-8" d="M481.74,187.59c-4.99-1.77-8.21.8-8.05,7.24s3.54,10.14,8.53,7.73l-.48-14.97h0Z"/><path class="cls-8" d="M486.12,175.53c-4.15-3.28-8.03-1.87-9.95,4.28s.1,10.74,5.6,10.06l4.35-14.33h0Z"/><path class="cls-8" d="M493.04,163.86c-3.58-3.9-7.63-3.14-10.51,2.62s-1.62,10.62,3.92,10.82l6.59-13.45ZM488.5,220.59c-6.12,2.25-6.76,10.62-2.9,15.78s10.95,6.12,14.81,0l-11.91-15.78h0Z"/><path class="cls-8" d="M481.42,202.88c-5.8-1.93-11.02,5.85-11.91,12.88-1.12,8.85-13.68,11.75-6.76,25.11,1.45-8.53,7.08-13.2,11.59-13.52s11.27-1.29,14.17-6.76l-7.08-17.71ZM499.77,237.33c-6.76,1.61-7.73,10.62-2.9,17.06,4.13,5.51,17.06,4.19,16.74-1.29l-13.84-15.78ZM518.93,291.58c.32-5.8-9.01-8.05-13.52-6.92s-13.12-.16-15.13-4.99c-1.61,3.86.73,8.05,7.25,10.14,4.93,1.58,4.83,5.15,3.38,6.76,3.7.64,14.65.64,18.03-4.99h0Z"/><path class="cls-8" d="M513.62,254.56c-6.6-2.9-10.51,1.52-13.04,5.8-3.7,6.28-15.13-1.77-19,6.6,5.23-2.25,10.56,2.55,13.04,4.19,7.08,4.67,20.77,3.22,22.7-7.73l-3.7-8.85Z"/><path class="cls-8" d="M517.48,262.28c-6.6,4.99-9.17,10.95-9.01,14.97s5.8,12.88,11.91,13.36c3.54-7.24,5.31-22.54-2.9-28.33h0ZM490.12,293.35c0-2.42,3.54-3.38,5.95-2.58s6.12,3.22,4.83,5.8l-10.78-3.22ZM453.73,280.15c-.64-2.9,4.02-7.89,10.3-5.15s7.08,8.05,4.5,10.14l-14.81-4.99h0Z"/><path class="cls-8" d="M469.02,285.46c-.48-1.61,4.04-4.83,11.75-2.9,7.73,1.93,9.62,6.91,9.34,10.79l-21.09-7.89h0ZM452.93,280.15c4.02-3.06,2.5-8.86-1.13-10.62-6.6-3.22-4.18-11.59-8.37-13.2s-8.21-4.51-8.37-7.4c-2.09,4.02-.8,7.73,2.1,10.3s-2.25,13.04,1.45,15.78l14.33,5.15ZM366.64,277.9c-3.38-5.31-11.43-4.35-14.81-.64s-2.9,9.18.32,11.59l14.49-10.95ZM385.96,270.01c-1.29-7.08-9.82-7.89-14.49-6.12s-7.89,8.85-4.83,14.01l19.32-7.89h0Z"/><path class="cls-8" d="M398.84,269.04c3.06-5.96-2.9-14.81-9.66-16.1-5.64-1.07-12.32-1.05-14.49-6.6-1.37,4.83,2.25,7.89,6.44,10.62s-.81,9.82,5.96,13.84l11.75-1.77h0Z"/><path class="cls-8" d="M398.2,269.25c-1.41-4.27,1.45-9.94,7.23-9.55s9.08,4.6,6.53,9.86l-13.76-.31h0Z"/><path class="cls-8" d="M411.07,269.57c-.8-4.42,2.83-9.64,8.5-8.43s8.34,5.83,5.08,10.67l-13.58-2.24Z"/><path class="cls-8" d="M423.86,271.6c-.58-4.46,3.31-9.49,8.91-8s8.04,6.24,4.54,10.92l-13.45-2.91ZM326.72,345.35c-10.79,0-13.42,2.57-14.97,13.68-1.93,13.84,16.9,15.45,14.97-13.68Z"/><path class="cls-8" d="M331.55,330.86c-16.58-6.28-25.6,19.96-42.02,15.29,5.88,9.34,20.12.02,25.43.97,9.02,1.61,28.49-1.77,16.58-16.26h0ZM320.76,366.76c-8.21-3.7-17.06,8.85-15.45,14.33,2.04,6.95,20.77,1.29,15.45-14.33ZM282.45,420.85c4.51,1.28,9.98,3.86,9.02,12.55s-17.39,26.4-32.2,27.37-20.12,18.83-32.84,13.84c11.91-2.25,11.91-15.77,21.25-19.96-6.76-2.42-10.3,12.88-18.99,12.88s-12.88,13.84-23.5,12.88-11.74,16.85-33,17.07c-16.26.16-36.38,19.15-43.62,10.95,15.78-2.25,22.14-11,31.55-20.61,15.13-15.45,32.2-8.53,37.99-22.21-6.92,4.67-14.97,6.92-22.86,6.76-9.9-.2-20.77,15.77-31.87,8.69,6.44-.8,10.62-3.54,17.39-10.62,6.92-7.25,17.08-2.57,25.11-9.98,12.56-11.59,23.34-1.93,35.41-16.42-3.38-1.61-10.62-.48-17.39,3.06s-15.45-2.42-23.18,1.77c.96-9.5,18.99-4.06,30.26-10.62,12.72-7.4,23.26-5.23,33.32-4.35-14.01-.08-19.48-13.36-38.79-9.5-8.43,1.69-15.13-11.59-23.5-4.83.24-4.99,9.01-9.01,18.03-4.18s12.65-4.23,30.59,7.08c7.4,4.67,20.12-2.9,28.17,2.09-1.05-3.06-5.63-4.99-11.03-4.59,3.38-6.92,25.19-6.04,34.69.89h0Z"/><path class="cls-8" d="M296.78,410.38c-7.08-5.47-16.9,1.13-23.66-1.45,0,4.51,2.25,11.27,9.66,13.84,2.25-1.61,12.39-10.46,14.01-12.39Z"/><path class="cls-8" d="M307.89,394.77c-11.11-5.63-13.04,8.37-21.73,5.47.32,4.02,3.54,9.02,10.62,10.14l11.11-15.61h0Z"/><path class="cls-8" d="M314.49,382.05c-16.42-6.44-18.51,9.34-28.17,6.28,2.25,5.47,16.1,8.37,23.18,6.44l4.99-12.72ZM337.02,312.99c-4.35-6.12-13.52-1.13-14.97,6.12s2.09,17.39,8.21,15.13l6.76-21.25h0Z"/><path class="cls-8" d="M348.13,293.67c-7.57-1.77-16.26-.97-15.29,6.44-2.9,1.29-3.7,10.79,4.18,12.88l11.11-19.32h0Z"/><path class="cls-8" d="M353.12,288.68c-7.4-8.69-15.66-8.49-20.28-4.83-8.53,6.76-16.82,2.9-17.06,9.66,5.15-3.95,9.66.8,13.84-.64s7.24,6.6,18.83,3.22l4.67-7.41ZM335.25,418.6c1.13,2.09,8.05,3.06,11.43-.48,4.48-4.7-.48-17.71-7.57-18.67s-7.73,14.65-3.86,19.16h0Z"/><path class="cls-8" d="M327.2,418.92c10.14,3.7,14.49-4.67,9.02-9.98-1.45,1.77-6.76,8.21-9.02,9.98Z"/><path class="cls-8" d="M289.21,432.76c-1.93,5.8-11.91,6.76-23.18,24.79s-22.05,10.46-24.79,22.86c13.52-10.95,24.14-3.67,32.19-14.49,12.23-16.42,22.31-14.06,27.05-25.11,6.76-15.77,36.38-15.45,37.99-40.24-9.98-1.93-41.53,24.79-49.26,32.19h0ZM543.24,189.36c12.88,4.18,13.2,20.93,28.01,26.4s16.26,18.67,28.33,15.45c-11.27-3.06-10.46-16.1-22.21-19.32-13.78-3.78-19-24.79-29.95-28.01M602.32,276.77c2.25,5.15,1.93,14.33-6.12,16.74,4.35,2.74,10.78.16,14.33-5.8-5.31,11.75-1.77,22.38,6.6,24.47-4.03-8.21,4.99-12.07,2.1-17.39,5.31,2.25,9.98,9.5,9.82,14.01,6.92-7.73-5.15-18.03-2.9-25.27l-23.83-6.76h0ZM518.93,359.51c-7.89-6.92-11.25,1.81-15.13-1.21-3.62-2.82-8.45-3.22-10.3-.4,6.76.24,3.46,5.47,16.58,6.76-13.12.89-10.7,15.54-19.48,14.81,9.34,8.85,14.17-7.89,21.73-5.15-2.25.64,3.54,5.95-.48,13.04,6.52-.16,9.18-9.18,9.98-13.84l-2.9-14ZM345.23,434.69c-2.9-2.41-11.27-3.54-14.49-1.61s-2.09,2.41,1.77,2.74,8.85,6.57.48,6.92c-3.86.16-2.58,9.5-10.62,10.14,3.3,4.02,12.72,1.37,16.1-3.06-.64,3.62,4.18,6.92,2.25,11.27,5.96.65,2.49-12.07,11.91-11.43-3.86.48-2.25,9.18,4.51,6.92-4.02,1.93-1.93,6.6,2.58,5.48-2.9.97-3.86,4.67.16,6.76,3.86-5.31-.48-24.31-14.65-34.13h0ZM695.85,257.07c12.32,0,22.31-9.99,22.31-22.31s-9.99-22.31-22.31-22.31-22.31,9.99-22.31,22.31,9.99,22.31,22.31,22.31Z"/><path class="cls-8" d="M579.3,284.02c6.76-6.44,17.07-9.66,24.15-4.83s30.59,10.62,42.18,2.58,17.06-12.23,22.21-11.27c3.87,5.8,8.53,8.53,14.33,9.02,1.77,1.93,8.05,3.54,11.59,3.06,5.15,1.29,11.43-.32,16.42-5.8,7.73,1.13,14.97-4.67,17.71-13.36,8.21-.97,8.69-10.14,3.54-16.26-4.83-.96-1.12-17.23-18.67-14.01,7.41,4.51,1.77,13.52,7.89,17.71-4.19,0-9.58,1.77-10.87,8.05,1.61-4.35-.24-7.24-1.37-8.21.16-3.7-8.05-12.8-15.78-9.5,5.55,1.21,2.42,10.14,6.44,13.52-2.9.16-5.96,1.61-7.73,4.18-2.09-3.7-9.5-7.57-14-7.89,0-1.29-.24-3.86-.8-5.15-2.01-3.86-3.7-8.45-2.9-14.33-3.86,4.18-7.08,9.98-9.01,14.17-6.12-4.18-21.25,1.93-28.33,3.54s-30.91-2.25-36.38-8.05c-5.47-5.8-16.1-9.34-26.08-12.23-13.72-3.98-13.85-18.99-28.98-29.3-.32,18.67,28.01,77.91,34.45,84.35h0ZM421.54,426.32c11.91,0,21.57-9.66,21.57-21.57s-9.66-21.57-21.57-21.57-21.57,9.66-21.57,21.57,9.66,21.57,21.57,21.57Z"/><path class="cls-8" d="M370.02,409.74c4.35,5.64,11.75,5.31,14.81,4.83,2.58,6.76,10.79,6.6,14.33,10.3s15.61,3.38,19.15,1.29c-3.22-.32-7.4-2.25-11.43-5.63-4.86-4.08-2.58-12.23-6.44-15.13,2.9-3.22,3.38-8.53,2.74-10.62,3.06-1.77,5.31-4.67,5.64-6.12,5.31-.32,9.98-3.06,11.91-5.15,2.74,2.58,9.66-.81,13.36,3.54.8-10.62-9.34-16.26-16.1-12.72-2.74-1.45-9.98-.48-11.27,1.45-2.25-.97-8.53,2.25-11.43,4.35,3.22-1.77,3.7-7.08,2.41-9.02,2.74-1.13,5.8-4.83,6.12-7.57,3.86.64,9.66-1.93,12.23-1.29-4.18-5.47-11.11-7.4-18.19-6.92-7.33.4-10.46,5.55-11.43,11.11-4.35,2.58-5.8,11.27-4.18,14.33-2.5-.08-4.83,2.33-5.8,3.7-3.38-1.45-8.21-2.49-11.67-2.49M366.32,373.2c-1.45-4.18.47-7.95,1.45-11.27,2.49-8.45.97-10.62-6.6-9.5-.64,4.02,3.22,17.23,5.15,20.77Z"/><path class="cls-8" d="M360.77,352.91c1.93,1.93,8.77,2.82,9.5-3.3.83-7.02-2.01-9.74-8.13-7-.48,1.61-1.05,8.21-1.37,10.3h0Z"/><path class="cls-8" d="M362.22,342.37c2.58,1.05,8.13,3.14,11.19-2.82,2.57-5-.8-8.85-6.12-8.53-1.29,1.45-3.86,6.6-5.07,11.35h0Z"/><path class="cls-8" d="M366.97,330.54c.64,1.93,7.24,8.37,12.07,3.7s4.83-11.59-2.42-14.17c-1.93.32-7.73,7.08-9.66,10.46h0Z"/><path class="cls-8" d="M376.62,320.08c1.45,4.02,5.96,10.95,14.33,7.73s4.83-13.68.97-15.78c-2.25.16-11.43,4.35-15.29,8.05Z"/><path class="cls-8" d="M391.92,312.03c-.64,3.54,0,13.2,11.43,13.04s8.21-13.52,5.31-15.45c-4.67,0-12.56.16-16.74,2.42h0Z"/><path class="cls-8" d="M409.14,310.09c-1.29,2.74-4.19,20.75,18.19,15.78,2.9-.64,10.46-17.23-18.19-15.78Z"/><path class="cls-8" d="M421.37,311.7c-2.25,2.25,3.54,20.44,18.67,17.39s2.42-20.28-18.67-17.39Z"/><path class="cls-8" d="M434.25,314.44c-2.41,4.99,1.21,19.8,19.88,19.8,16.92,0-.89-19.48-19.88-19.8Z"/><path class="cls-8" d="M448.9,318.79c-1.21,2.77-2.7,18.47,19.32,19.8,15.94.97,12.08-21.57-19.32-19.8Z"/><path class="cls-8" d="M472.57,325.39c-2.73,4.83-5.63,16.9,18.51,17.87,15.47.62,5.96-17.55-18.51-17.87Z"/><path class="cls-8" d="M492.69,329.09c-3.54,4.83-.93,14.3,8.05,16.1,11.27,2.25,12.88-8.37,5.15-13.52s-13.2-2.58-13.2-2.58h0Z"/><path class="cls-8" d="M503.64,331.34c-2.58,4.51-.98,15.45,16.1,15.45,3.54,0,17.07-13.84-16.1-15.45ZM371.48,541.27c13.83,0,25.04-11.21,25.04-25.04s-11.21-25.05-25.04-25.05-25.04,11.21-25.04,25.05,11.21,25.04,25.04,25.04Z"/><path class="cls-8" d="M555.15,177.13c-1.93,1.93-5.95,7.73-6.76,9.98-8.37,25.11,13.97,43.87,27.05,70.83,10.3,21.25,9.02,54.73-7.08,75.98-5.51,7.27-3.86,9.34-10.95,16.74-2.72,2.84-5.8,6.44-4.83,16.74,4.51-1.61,10.95,2.58,12.23,6.12,3.22-1.61,7.73-.97,9.34.96,5.47-2.58,9.98-1.29,14.81,3.86,4.19-.64,8.7,0,12.88,4.51,2.25-4.51,6.76-6.12,9.98-5.15-.32-5.8,5.47-9.98,10.62-7.73-1.61-7.73,5.47-13.52,12.24-11.27,5.79-4.51,17.38-4.83,23.18,1.93-10.3-2.9-9.98,8.05-18.67,7.08,2.25,6.44-3.54,10.14-9.33,12.23,3.7-1.77,7.72-3.86,9.01-1.61,3.22-2.82,9.66-1.77,11.27-.32,4.26-1.37,8.37-.32,10.3,4.83,5.8,3.54,9.66,12.56,5.48,19.32-1.29-7.08-6.12-6.76-8.05-9.66-4.51,1.61-9.02,1.61-10.3-1.29-2.58,2.58-11.27,4.83-15.13.97-1.45,5.8-6.44,10.62-12.24,10.62,1.61,4.51-2.9,12.24-6.44,16.1,5.47,2.9,3.86,9.34,2.58,13.2,8.37,1.29,1.29,8.69,15.78,13.52-7.08,2.25-20.92,0-22.86-8.69-7.08-.32-11.91-7.4-11.59-14.81-5.47-5.15-6.28-12.55,1.29-17.7-6.44,1.93-9.98-8.37-19.32-4.18-4.64,2.08-16.9-1.45-16.74-5.8-1.93,3.22-13.68,1.93-15.3-3.54-3.86,2.09-12.88-1.45-12.72-6.76-4.99,2.25-11.75-1.77-11.43-6.92-4.67-.64-5.15-4.83-4.83-8.37-4.19-1.93-3.06-5.96-1.45-10.79-2.9-3.22-1.61-7.73.65-11.91-3.22-3.22-2.58-7.08-1.61-11.59-15.45-1.29-34.81-5.02-79.2-18.67-66.97-20.61-85,27.69-70.19,57.95,17.09,34.92-1.93,42.5,3.86,68.58,6.12,1.29,9.34,6.44,9.02,11.91,3.62.16,6.2,3.54,4.91,9.98,3.06-.56,7,.32,9.58,2.89,2.25-4.18,9.66-5.15,13.52-.32,8.37-.65,12.56,6.12,12.23,14.49,4.51,8.05,2.9,17.87-1.93,24.15.48-3.38,0-8.21-.16-11.1-.3-5.33-7.73-6.44-6.92-10.79-3.86.32-7.57-1.77-8.85-4.67-2.25,1.93-5.47,2.58-8.21,1.61,4.35,1.93,7.73,9.66,6.44,14.81,2.25,3.87,1.77,10.95-.97,14.01-1.29,6.28-6.12,8.53-12.39,5.79,3.54-2.25,4.83-6.27,4.67-9.66-2.25-1.93-3.38-5.63-3.54-7.89-6.28.97-14.97-4.35-16.57-6.45-13.83,0-25.04,11.21-25.04,25.05-.64-5.15-7.16-10.23-6.36-14.58-3.86-11.91,1.61-23.02,17.39-25.27-1.93-4.51,4.83-9.18,2.25-14.33-3.29-6.58-9.34-15.13-18.35-25.11,5.47-9.34,3.86-21.89.64-29.62-4.62-11.1-9.02-8.37-25.43,9.66-26.76,29.38-62.46,21.25-94.01,40.57-8.38,5.13-16.74,7.08-7.73-1.93s32.84-18.03,48.29-25.76c28.94-14.47,53.45-38.64,63.1-85.64,22.7-110.46,106.24-74.05,159.04-53.45,49.57,19.35,40.57-24.47,15.45-50.87-30.18-31.73-24.15-56.66-9.98-76.62,25.43-3.54,74.21,5.31,64.39,13.85h0Z"/><path class="cls-8" d="M644.82,448.48c15.22,0,27.55-12.33,27.55-27.55s-12.34-27.55-27.55-27.55-27.55,12.34-27.55,27.55,12.34,27.55,27.55,27.55h0Z"/><path class="cls-3" d="M539.7,178.41c-6.12,27.04-.97,39.28,8.05,51.19,18.63,24.62,33.48,80.81,12.23,117.51"/><path class="cls-2" d="M571.89,315.41c2.58-.97,7.4-4.02,8.53-9.34M573.82,303.66c.8-4.67,8.05-6.68,8.21-11.67M573.98,285.46c-.48-4.83,7.25-9.18,6.12-14.01M569.8,268.08c-.65-2.74,6.44-7.89,4.51-12.23M564.49,251.18c-1.45-3.06,3.38-6.6,1.29-9.82M556.76,237.65c-.48-2.09,2.5-6.68.89-9.42M549.03,221.72c.64-.8,3.22-2.74,2.17-5.15M543.72,210.05c1.05-.56,4.18-1.53,3.78-3.86"/><path class="cls-4" d="M382.58,513.57c-6.44-2.25-14.49.97-16.1,6.44M371.31,525c.8-5.47,9.18-7.89,11.75-5.31-5.31-2.9-7.89,7.41-3.22,7.73M423.15,397.67c-3.86,1.93-4.99,9.02,0,14.33M428.94,399.28c-2.73,2.25-2.58,9.02,1.45,10.62-3.38-2.42,0-6.6,2.42-6.76s4.02,2.74,1.12,5.63M655.12,415.21c-9.01-2.41-16.26,8.05-8.05,17.39-.16-9.02,6.28-14.97,14.17-13.36M657.61,425.47c-2.22,0-3.46,1.73-3.46,3.42,0,1.77,1.53,3.46,4.03,3.46,1.61,0,2.9-1.85,2.9-3.3M689.4,227.83c1.45,5.47,9.02,7.73,14.97,6.44M704.37,230.73c-4.67.16-8.53-4.18-8.21-7.89,0,2.74,6.28,4.02,8.21,2.25"/><path class="cls-2" d="M384.83,414.57c-1.29-3.22,3.86-6.44,4.02-9.5s5.8-5.47,11.59.32M397.71,371.11c-1.13.48-2.09,1.13-3.06,1.45M408.82,388.65c-1.37.08-4.18-.08-5.71-1.13M403.19,394.77c-1.13.56-3.62,1.53-5.07,1.85M347.97,492c-.16,2.9,2.74,7.08,4.35,8.37M360.53,485.08c-1.61,2.41-2.58,6.6-1.61,9.5M384.51,494.74c-2.9-1.93-.97-6.92-1.29-10.14s3.38-8.37,10.62-4.02M357.47,476.39c2.9-.48,5.96-.33,7.89.48M394.17,467.21c-1.29,1.77-1.61,3.7-1.77,4.99M407.69,466.89c-2.25,0-4.18,1.61-5.15,3.22M376.46,384.47c2.58.89,9.26,4.99,9.5,9.26M403.83,363.54c-7.89-.16-10.95-8.21-4.99-8.21M418,374.32c-3.06,1.29-1.61,6.6,2.74,9.18M399.16,424.87c-1.53-1.93.48-7.56,5.47-5.88M410.91,483.63c.32-4.91,6.52-7.81,9.02-2.25M388.05,497.63c-.4-5.39,2.33-7.16,4.75-7.48s5.88,1.69,7.49,5.23M340.08,501.66c.32-3.22,3.06-6.6,5.96-6.12M634.67,358.71c-2.1,1.53-3.46,8.37,4.5,9.02M622.44,369.98c0,.8,1.05,1.93,1.69,2.42M660.43,382.86c-2.09-1.61-7.49,4.91-2.58,9.66M609.24,436.95c-1.21-4.59,3.06-5.8,7.08-4.83M598.94,404.43c2.41-1.61,4.83-3.38,7.89-4.18M597.65,422.13c0-3.86,1.93-7.08,3.7-8.05M611.81,377.71c-.32,4.67,1.61,9.18,3.06,11.59M650.13,378.03c-2.34.73-4.43,1.61-5.31,3.54M647.55,391.23c1.13-.97,2.42-2.09,2.98-2.9M708.4,250.69c0,4.51-5.63,6.92-9.33,4.02M720.64,250.85c2.49,1.93,11.1.08,9.09-4.91M710.17,276.77c-1.77-.32-4.83-2.25-6.12-3.86M727.88,263.41c-2.9.64-4.83,0-6.28-.64M682.16,279.51c1.61,0,5.47-.64,8.13-2.01M677.33,251.02c-2.09-.24-3.62.16-4.83.97M709.77,258.9c-.56,2.01-2.01,5.15-3.78,6.52"/><path class="cls-4" d="M671.86,265.99c4.03-1.77,9.02,11.91,18.67,7.08M691.34,258.9c-1.29,1.77-2.09,4.51-2.25,6.92"/><path class="cls-3" d="M498.81,237.98c1.29-.16,3.54-.64,4.02-2.25M333.16,387.85c4.83,2.74,8.21,7.4,6.12,14.33M554.5,223.17c1.45.97,6.92.97,9.98-.16M568.35,226.39c-.16,2.25.48,10.79-3.86,12.56M566.1,237.82c4.03,1.29,12.08.8,14.65-6.6M575.11,237.49c2.09,3.22,2.73,9.5-3.54,12.88M576.72,242.81c4.67,1.61,15.45,1.77,14.33-7.4M587.35,242.81c3.22,4.51,17.39,9.82,15.13.48M574.31,255.84c5.47,1.29,13.2-2.41,9.98-12.07M599.74,248.6c.8,3.7,18.83,7.57,16.42-.8M612.78,252.63c3.38,7.73,21.25,7.08,15.62-3.22M625.5,257.45c3.54,4.35,19.32,1.77,13.04-8.69M638.37,257.29c9.82,7.4,21.25-3.22,8.85-10.95M652.86,254.88c8.7,6.92,19.32-5.63,11.75-9.18M584.12,251.98c2.74.8,8.53.48,9.82-4.51M591.77,250.85c-.32,7.33,12,10.14,15.13,1.69M602.8,257.13c2.25,4.83,13.04,6.76,14.81-.16M615.84,260.19c1.77,4.83,11.11,4.35,13.68-.64M626.14,262.77c2.9,6.28,14.81,6.28,17.55-2.9M641.6,263.89c4.67,2.9,14.65,1.77,13.84-7.24M653.51,263.09c6.92,5.64,16.74.16,11.91-9.34M664.94,270.49c3.7-.64,5.63-8.05,1.77-9.98M579.14,271.78c7.72-4.18,9.17-11.27,3.86-18.19M585.74,264.7c4.83,2.9,14-.16,15.61-7.24M592.34,265.5c2.73,3.54,3.22,7.89-.33,11.91M594.59,270.01c8.53-5.31,19.15,4.51,11.27,10.46M604.41,269.53c1.93-.48,5.31-4.02,5.63-8.05M608.27,273.23c3.54-3.7,27.69,3.86,12.4,11.59M619.54,263.09c4.67,1.77,7.08,8.37,0,10.62M625.66,279.19c5.15-5.31,21.25-1.93,15.45,4.83M637.25,277.09c2.9-9.82,20.12-3.7,14.49.32M633.71,267.27c.48,1.93.64,6.76-2.58,9.34M648.2,265.34c.64,1.61.48,4.67-.97,6.6M659.14,265.5c.97,1.77,2.58,5.15-.97,7.89M521.35,191.45c.16,9.18,3.38,15.29,15.78,9.5M525.21,202.4c-6.12,8.21.8,17.06,12.88,8.21M506.37,206.42c8.37,9.01,23.34,2.41,13.68-11.27M530.2,214.15c-1.61,8.85,5.63,10.62,11.59,6.6M498.97,207.87c1.52,8.9,10.62,15.94,19.48,10.46M509.92,220.11c0,12.72,17.55,14.17,21.57.97M525.21,229.12c5.63,11.59,17.87,6.92,21.89-.16M512.81,210.61c2.25,5.63,6.76,11.91,17.22,7.24M480.62,207.87c1.45,4.67,9.82,10.3,19.48,3.86M486.57,213.83c-5.15,7.57,5.15,14.65,17.55,3.38M492.69,223.17c2.09,10.62,6.27,19.16,21.41,5.47M506.53,234.11c5.47,6.76,13.85,10.95,21.73-.48"/><path class="cls-3" d="M534.06,236.04c-.48,8.05,1.12,12.07,7.4,11.75,4.95-.25,9.66-4.18,12.4-8.37M540.34,247.8c-.16,9.18,7.08,16.42,20.6,7.08M545.97,258.58c-2.58,6.92,5.15,18.19,20.28,12.39M513.94,240.23c-.96,8.85,7.25,14.81,20.45,3.38M520.38,250.05c.48,7.24,8.69,15.94,20.77,3.38M526.17,259.23c-.97,12.39,10.46,15.94,20.12,6.44M508.95,250.05c2.58.16,4.67-2.09,5.95-3.7M514.42,259.06c2.25.48,6.12-1.61,7.41-4.18M520.06,273.71c2.58,2.74,11.27.8,12.39-2.9M529.72,273.55c4.83,11.27,17.7,10.79,23.02-1.93M550.32,276.13c2.41,6.6,8.53,10.79,18.51,8.53M555.15,282.89c-5.63,9.18,1.77,19.96,14.33,9.34M558.21,296.57c-.64,5.8,4.67,12.39,11.91,13.2M534.38,279.67c-1.93,13.04,7.4,19.32,19.16,12.39M520.7,285.95c3.06,2.42,8.53,2.74,13.68.8M540.66,294.32c-2.9,10.95,8.37,18.83,18.03,6.6M525.05,287.72c.16,5.63,5.64,11.75,15.13,9.98M566.74,308.97c-6.44,4.35-7.73,12.07,1.29,17.06M550.96,306.71c.33,6.6,3.38,10.3,10.62,10.95M541.47,303.33c-9.66,8.85-.16,19.16,11.27,10.46M548.23,316.53c-3.22,10.14,8.85,16.26,15.29,5.96M528.27,294.96c-3.54,9.98.97,16.58,9.17,15.94M515.55,293.03c.48,5.96,5.63,8.05,11.43,6.76M519.25,299.31c-4.35,8.37,2.25,12.88,10.95,9.66M556.6,327.64c-1.45,5.31-.65,9.18,7.24,10.95M557.08,335.21c-9.5,4.35-10.3,13.52-2.9,19.48M549.43,324.99c-4.99,4.51-4.03,12.31,1.45,15.37M507.18,295.61c-5.48,5.39-.24,20.28,11.83,12.15M538.57,314.44c-7.41,6.12-4.03,17.23,8.21,14.17M526.33,309.77c-3.86,10.95-.16,14.81,8.53,14.97M499.13,295.12c-6.6,4.99-4.83,12.07-1.93,15.29s8.37,1.77,10.14-2.42M485.28,290.78c-7.4,9.5,0,20.77,10.47,17.39M524.89,318.95c-7.57,2.74-13.34,9.61-8.7,15.61,2.74,3.54,14.65,4.02,18.03-9.66M511.2,310.09c-4.35,6.28-2.9,12.23,5.15,15.29M510.72,321.85c-4.67,2.58-7.73,5.64-6.6,11.27M500.26,312.03c-1.77,7.57.32,12.23,4.99,14.49M500.1,321.04c-7.25-.48-10.95,2.58-8.53,9.66M492.21,322.81c-7.08-2.58-8.21-8.69-5.15-15.13M486.09,317.18c-7.73.32-11.11,4.18-11.11,9.5M475.62,287.07c-5.63,2.42-7.4,9.98-5.31,14.17s8.7,4.51,12.72,1.77M459.85,281.12c-5.15,5.8.8,17.06,9.98,14.33M446.65,276.61c-4.83,6.76.48,18.03,12.88,14.81M460.17,322.81c-1.29-8.05,7.08-13.36,17.39-2.9M472.57,303.66c-3.06,2.74-4.5,7.08-4.02,10.62M433.45,272.75c-5.31,9.02,1.13,17.23,12.56,14.01M463.23,295.12c-7.57,7.57-4.99,15.13.64,19.48M458.4,303.98c-11.43.16-12.07,13.36-2.73,17.55M449.71,290.78c-4.67,3.22-6.12,12.07,1.93,15.61M449.39,310.58c-4.83-2.25-10.62.48-10.14,6.12M442.14,310.74c-4.35-10.3-17.06-8.53-15.93,2.09M445.68,298.02c-2.73.48-8.21,2.09-10.3,6.28M436.19,286.43c-5.15,5.8-1.13,12.72,3.06,14.17M420.9,270.17c-.97,6.92,1.77,10.3,10.46,9.66M423.95,279.03c-3.38,8.37,1.12,12.07,9.82,11.59M425.88,289.33c-5.15,6.12-1.61,12.72,3.38,15.45M423.47,297.06c-9.17-1.13-10.62,9.5-7.57,14.49"/><path class="cls-3" d="M416.06,269.37c-5.63,2.42-8.85,9.5-5.79,13.84s9.18,2.9,12.56.64M412.2,285.14c-4.67,7.08-.48,12.39,4.51,14.49"/><path class="cls-3" d="M394.17,268.56c-3.7,3.86-1.45,11.75,7.57,11.91,7.26.13,10.95-6.76,8.69-11.59M400.45,280.47c-2.9,6.44-1.13,13.36,9.82,12.23M414.94,302.85c-6.76-3.06-15.78,0-11.91,8.05M402.06,291.42c-2.74,3.86-1.77,9.34,1.29,12.72M401.58,301.72c-4.51.8-8.85,3.22-6.12,10.3M394.81,306.23c-5.8-1.77-13.2,2.42-8.69,8.37M385.16,308.97c-4.99-.8-10.95,4.51-6.12,9.82M377.11,314.44c-4.51,1.13-9.82,6.28-5.15,10.3M399.81,289.17c-6.44,2.9-7.08,10.14-4.02,15.45M393.04,275.81c-9.66,3.7-9.5,16.58,1.13,20.61M389.66,293.51c-5.8,3.38-6.92,9.82-3.06,14.01M379.52,270.98c-3.86,1.29-3.54,13.2,6.76,12.88M368.9,275c-7.73,5.15,1.61,18.19,14.17,8.85M376.14,287.07c-1.13,5.31.32,11.11,8.85,11.75M376.62,294.16c-6.12,2.25-7.24,14.81,3.86,15.78M357.15,282.73c-7.89,7.24,6.44,13.52,11.75,3.06M346.2,294.8c-3.86,4.67,9.66,16.9,15.61-3.54M363.26,290.94c.32,4.83,3.22,7.73,9.17,8.05M372.28,303.66c-9.5,1.45-12.56,13.36-1.93,15.94M354.73,302.05c-.32,4.51,4.35,8.21,9.66,7.4M369.22,319.27c-8.69,1.93-9.82,13.2-2.09,12.56M363.1,342.29c-7.24-2.17-7.4-10.79-.97-14.01"/><path class="cls-3" d="M357.15,334.72c-6.12,3.7-3.7,12.56-.48,13.84s5.8-.32,6.12-3.06M362.3,357.9c.64,4.18-14.89,2.58-6.92-10.46M355.29,358.63c-5.23,8.21,3.3,14.89,8.69,7.89M356.02,368.53c-2.09,6.6,5.88,11.35,11.03,6.2M338.63,306.71c-2.9,5.96,11.59,8.21,12.56-4.02M334.61,315.57c-2.9,11.59,18.99,9.18,13.36-5.8M348.45,317.5c3.06,1.77,12.23,1.93,14.49-7.89M356.34,317.82c.64,3.06,3.38,6.76,5.96,7.89M345.88,320.88c-.97,6.28,5.31,11.43,12.56,10.95M347,327c-3.54,4.83-4.67,14.17,6.44,14.81M330.1,328.61c-1.77,4.99,8.69,10.14,14.81,1.93M326.88,341.32c-.89,3.78,8.53,8.85,13.84-7.24M336.54,342.29c2.25,4.02,9.82,7.24,14.49-.64M343.46,346.48c-1.93,5.63,3.38,10.95,9.82,9.34M331.39,345.19c-1.29,8.05,8.05,12.72,13.84,8.53M325.27,348.73c-2.74,10.3,10.46,14.17,15.45,6.44M337.35,358.23c.48,5.8,9.5,10.79,16.58,5.96M321.25,363.06c-.64,2.58,10.14,5.15,11.75-3.86M327.53,365.31c2.58,6.6,11.27,8.21,16.26.16M340.89,368.69c1.13,6.12,9.02,9.5,15.94,5.31M359.72,376.42c-1.77,8.21,6.76,14.81,12.07,10.3M346.04,374.97c-2.58,9.02,8.69,14.17,14.97,9.18M332.52,370.46c-.64,8.37,5.96,13.36,13.52,9.66M318.19,371.27c-2.25,5.47,9.66,9.98,15.29,5.31M310.78,386.24c3.06,3.54,13.68,0,14.65-7.89M322.54,384.14c3.86,4.51,13.04,6.92,16.74-2.74M336.06,386.4c-.16,6.92,12.23,11.91,16.26-.8M366.88,388.09c-1.13,3.38,1.53,8.77,7.08,9.42M356.66,386c-.8,3.86,4.83,9.26,10.79,7.08M368.58,394.69c-1.61,4.18-.24,10.22,5.39,10.14M369.14,402.5c-4.18,3.54-2.42,9.82,3.62,10.06M366.97,408.45c-5.96,4.02-3.86,12.88,4.02,12.4M348.94,391.39c0,8.69,10.79,9.98,12.88,1.93M357.63,398.47c-1.61,5.15,2.58,10.14,9.17,8.69M358.92,460.61c1.45,2.1,7.4-1.45,5.8-4.99s-7.92-1.62-7.24,2.09M363.26,454.17c.8-7.08-7.57-8.21-9.66-2.09M356.66,448.54c2.09-3.54-4.99-8.37-7.89-3.22M351.35,443.22c1.93-5.15-6.12-7.4-6.76-2.74M342.82,433.72c.97-2.58,9.98-.97,6.12,4.35M355.86,444.51c3.54-3.22-2.41-9.82-6.12-7.4M379.68,454.33c-2.82.32-5.72,2.17-3.62,8.13,1.45,4.13,7.65,4.35,8.53,1.85"/><path class="cls-3" d="M375.58,457.31c-2.74-1.77-8.69,1.21-5.96,7,2.06,4.36,7.24,2.58,8.05.32M360.2,465.6c1.37,2.41,8.21,1.37,9.42-1.29M364.87,457.63c1.45-.97,4.1.24,4.67,1.45M364.39,417.95c-4.67,3.06-1.77,12.4,5.47,9.98M362.94,425.52c-3.7,2.9-.32,11.91,6.6,8.53M364.07,434.05c-2.58,2.58-.08,9.74,6.6,8.37M363.1,437.59c-1.45-.65-5.23-.16-6.84,2.25M358.92,404.99c-3.54,3.38-1.85,10.3,4.75,10.87M357.63,412.07c-5.07,2.5-5.07,12.55,5.07,12.96M357.23,423.42c-2.82,2.25-1.45,10.95,5.8,9.82M359.56,432.92c-1.05,1.05-1.21,3.7-.32,4.83M356.34,429.62c-2.58.08-5.96,1.93-6.84,4.59M344.83,424.87c.97-2.58,8.93-2.41,9.5,5.15M355.13,421.01c-1.13.24-3.3,1.29-3.86,3.46M351.67,397.43c-3.46,3.14-5.15,13.04,5.39,14.97M344.67,417.87c0-2.66,7.16-4.91,9.66-.97M340.08,403.46c1.05,2.01,6.04,4.75,9.1,2.5M314.16,387.69c-.16,4.67,3.7,8.85,9.02,8.21s6.44-5.31,4.83-8.37M323.98,396.06c-3.54,4.35.8,10.46,4.83,8.69M328.01,393c2.09-.8,9.02-1.77,11.11,1.45M305.63,394.29c-1.61,2.42,8.37,4.83,11.75.16M314,396.86c-.32,3.22,1.29,8.69,9.5,6.44"/><path class="cls-3" d="M324.79,408.29c1.29-2.74-4.83-7.24-9.5-2.25s.64,10.62,3.54,8.69M303.38,397.51c-2.42,4.18,6.92,11.83,12.23,4.75M297.18,404.75c-3.38,3.46.8,9.82,5.88,7.89s4.59-7.24,3.38-8.61"/><path class="cls-3" d="M290.66,411.19c-2.74,2.49-.08,8.37,3.7,8.37s6.12-2.98,5.39-6.76M306.03,410.71c-.48,3.7,4.99,6.28,8.53,2.82M314.73,406.76c.48-.8.08-2.17-.72-2.82M284.79,416.18c-3.14,2.5,3.62,9.42,7.89,3.06M309.01,414.81c-2.01,1.93,1.21,7,4.43,5.47M297.99,418.35c.48,3.46,7.24,6.03,11.51.73M301.69,421.81c-1.05,2.17,1.05,5.64,3.62,5.15M365.76,441.7c-2.49,4.91,5.47,10.62,11.27,4.67M371.55,449.02c-1.21,2.65.24,6.36,2.42,7.73M363.99,454.57c.56-2.42,4.02-4.67,7.16-3.54M359.8,448.21c.48-2.17,3.38-4.35,5.55-3.78M549.35,347.76c-11.43.16-6.6,18.51,3.22,14.81M545.65,361.29c-2.25,3.7,2.09,9.58,6.92,6.12M551.29,368.13c-3.38,5.63,8.69,14.25,13.52,5.39M560.95,376.9c.16,5.31,15.61,8.69,13.36-1.93M572.86,380.76c3.7,6.28,17.55,6.92,16.1-2.42M585.9,384.79c2.9,4.18,16.42,6.76,15.94-1.93M531,331.83c1.93,4.99,8.53,6.76,15.78,3.86M526.82,335.37c4.51,2.9-2.09,16.1-9.01,10.79M526.82,343.58c4.99,2.42,11.11.64,12.88-6.44M536.64,342.61c.48,3.7,5.8,6.6,12.72,5.15M524.24,346.48c6.44,5.47-2.9,16.74-7.08,11.59M526.66,350.66c3.06,2.25,10.95.97,11.75-4.99M534.87,350.66c.65,3.86,3.7,5.31,8.05,5.47M524.89,355.97c3.22,4.51,11.27,5.8,14.81-.16M536.15,359.19c-.32,4.35,4.51,7.89,9.5,6.92M518.61,368.85c4.18,2.09,8.69-5.8,5.15-11.27M523.44,377.22c4.99.32,5.63-7.24.97-11.43M534.87,384.14c4.19-.97,2.9-10.14-7.25-10.95M547.58,390.91c4.03-1.13.8-11.27-10.3-10.62M562.88,394.45c2.73-4.18-6.28-11.27-13.68-7.57M570.44,400.24c4.99,1.45,8.37-11.75-7.4-9.66M579.62,400.24c4.35-1.13,7.41-9.02-5.31-6.44M589.28,400.89c3.86,1.93,5.63-9.34-6.12-6.28M524.4,365.79c4.83,2.74,12.4-.48,11.75-6.6M534.22,364.51c1.61,2.9.97,8.53-2.09,9.98M534.7,371.27c3.22,1.29,7.57.16,10.14-4.99M540.34,371.27c.96,2.25,1.29,6.76-.81,9.02M541.15,375.13c3.54,1.93,7.72-.64,9.5-4.35M548.39,374c2.58,1.61,4.83,9.18.48,12.23M551.29,382.7c3.06.16,7.57.16,10.46-3.7M559.66,381.09c2.74.8,5.95,5.31,4.83,9.34M564.65,388.97c3.06-.32,8.37-2.42,9.82-6.12M573.02,385.27c2.58,1.45,4.35,4.51,4.03,8.05M577.04,390.74c3.06-.16,5.8-1.77,6.6-5.15M582.84,387.85c2.25.8,4.99,3.38,5.15,6.44M587.67,392.35c2.25-.32,3.86-1.77,5.31-4.02M599.1,388.01c2.9,2.9-.96,12.56-6.92,10.79M537.28,192.9c-5.96,3.54-22.86,2.41-14.49-11.59M538.89,183.4c-11.75,4.67-26.24-4.35-11.11-14.17M523.76,166.02c-9.82,0-16.42,15.78-3.22,21.25M485.61,172.62c-2.58,4.99,6.6,10.46,12.88,5.47,4.86-3.87,4.5-14.33,1.61-18.35M480.62,184.53c-3.22,10.62,20.45,11.27,16.74-5.63M479.33,200.31c.8,8.05,22.7,5.47,15.61-10.79M497.52,185.01c1.77,2.41,6.6,6.6,14.81,5.79M501.38,173.58c.73,2.9,5.63,5.15,11.91,2.98M281.73,418.51c-5.55,3.95,2.98,10.14,6.12,3.3M277.38,421.57c-5.55,3.94,2.98,10.14,6.12,3.3M272.79,424.55c-5.55,3.95,2.98,10.14,6.12,3.3M267.96,427.29c-5.31,2.82.89,9.74,6.28,3.62M262.73,429.95c-5.31,2.81.89,9.74,6.28,3.62M289.7,421.65c-.08,4.1,7.73,5.8,10.54-.33M294.61,425.44c-2.42,3.06,2.01,6.84,4.43,5.47M284.22,424.87c-.24,3.46,6.52,5.48,9.82,1.69M287.93,428.5c-2.17,2.82,2.09,6.6,4.83,5.47M279.72,428.01c.24,2.74,4.1,5.88,8.29,4.1M282.21,431.71c-1.61,1.45-.8,4.83,1.45,5.88M273.84,431.47c-.64,2.5,3.62,6.92,7.97,4.02M274.72,434.37c-2.58,2.01-2.25,5.07,1.05,5.47M268.53,434.05c-.32,1.69,1.85,4.42,4.59,4.1M254.76,433.89c-2.57,1.37,4.03,8.37,8.13,1.85M248.4,436.78c-3.22,1.53,4.75,9.26,8.29,1.37M269.25,436.46c-2.5.56-4.11,4.19-2.01,5.63M261.12,437.75c-.32,1.45,2.74,3.86,5.23,2.98M259.03,438.4c-2.42,1.53-1.13,5.79,1.69,5.15M250.42,441.21c-2.25,1.69-.73,5.07,2.41,4.27M254.52,440.97c.08.88,2.09,2.25,3.78,1.69M242.61,439.52c-2.82,1.21-2.65,8.29,6.84,4.43M236.25,442.34c-3.95,1.93-2.66,7.25,5.96,2.17M242.93,444.92c-1.05.8-2.17,4.35,1.77,2.98M235.69,446.6c-1.61,1.45-.56,4.43,2.98,3.3M227.4,447.09c-2.9,1.69,3.46,3.95,7.73-.56M229.33,449.18c-1.29,1.29-1.29,5.07,2.09,3.7M221.12,450.71c-1.93,1.45,1.37,3.38,7.4.73M223.53,452.8c-2.25,1.85-2.01,4.18,1.29,3.46M216.85,453.85c-2.49,2.25,1.13,3.78,5.47,1.93M216.93,456.35c-4.27,1.93-2.41,5.47.24,4.1M359.4,468.66c-.99,2.13,2.25,3.86,5.31,3.38,2.94-.46,5.75-2.88,3.54-6.28M368.41,469.95c2.9,2.25,8.05-.32,8.05-3.7"/><path class="cls-8" d="M545.97,128.83c-12.88-6.44-39.6-18.35-47.17-8.69,6.92-2.9,27.2.16,43.95,15.61l3.22-6.92h0Z"/><path class="cls-8" d="M553.78,128.15c-14.89-17.35-23.66-13.46-34.37-19.44-10.06-5.61-26.08-6.76-29.18,2.17,14.7-7.16,28.19,3.85,36.48,5.18,11.38,1.83,17.81,10.63,21.14,14.68l5.94-2.58h0ZM609.88,125.93c-7.73-17.71-24.25-13.08-31.55-20.6-10.62-10.95-37.5-21.09-48.61-13.52,24.47-1.29,34.89,16.86,47.97,23.18,9.34,4.51,19.32,14.17,32.2,10.95h0ZM580.91,124c-13.2-16.42-33.49-30.91-42.82-25.43,12.23.64,16.1,9.18,24.79,14.65s4.83,13.36,18.03,10.79ZM518.12,152.98c-13.85-5.15-40.89-7.73-53.45,8.05,20.93,3.54,52.48,1.61,53.45-8.05Z"/><path class="cls-8" d="M515.55,159.1c-13.85-6.44-24.66,2.55-37.67,1.29-24.79-2.41-42.5-.97-44.75,10.95,14.17-12.72,37.99-2.25,47.65-4.83s45.4-.32,56.66,4.51c-5.8-7.08-14.81-9.01-21.89-11.91ZM559.01,122.23c-3.22-10.62-3.06-21.89,12.88-21.09-4.03-4.99-18.83-7.57-21.25,11.11-17.55-12.88-36.7-15.13-40.24-4.02,9.01-7.73,23.02-2.09,39.76,16.9,1.45-.81,5.31-2.42,8.85-2.9h0ZM534.87,136.88c-9.98-6.44-23.5-16.9.16-21.09-10.14-5.47-24.95-3.06-23.34,15.62-27.05-10.95-46.47-7.25-50.55,3.54-4.51,11.91,12.24,18.51,15.13,10.95-3.06,1.29-13.52-2.25-8.05-9.01s33.52-1.68,60.21,12.24c7.4,3.86,32.84,3.22,6.44-12.24h0ZM527.78,154.59c-7.7-15.72-32.68-1.45-37.71-16.68-6.88,22.31,35.52,9.97,37.71,16.68ZM686.67,171.65c5.24,2.6,9.77-1.49,1.75-4.7,5.24,2.6,9.81-1.39,1.8-4.6,5.24,2.6,9.81-1.39,1.8-4.6-2.14,2.15-5.2,10.04-5.35,13.9ZM689.4,141.39c11.59-12.23-.96-16.42,13.2-28.98,11.59-10.27,2.21-17.12,13.2-25.11,3.54-2.57,11.27-7.73,11.91-12.88,4.67,11.59-14.49,13.2-13.2,31.87.82,11.89-7.22,10.85-10.3,30.91-.65,4.18-3.54,13.52-14.81,4.18h0Z"/><path class="cls-8" d="M694.56,146.86c6.44-13.84,13.83-13.58,17.38-19,6.76-10.3,21.09,1.77,33.16-7.4-2.09,13.04-18.35,8.37-25.43,16.74s-12.88,12.24-25.11,9.66h0Z"/><path class="cls-8" d="M696.17,151.37c11.27-9.01,19.58-3,27.37-7.73,19.64-11.91,27.53,2.41,45.08-3.22-4.67,11.27-30.59,1.61-41.85,9.98-11.27,8.37-50.87,16.42-30.59.97ZM663.33,215.6c-.16-5.15-4.99-11.75-11.75-12.56s-9.66-7.89-14.81-8.21-8.53-10.62-15.62-10.46-9.98,9.34,6.6,17.71c16.58,8.37,34.93,18.03,35.58,13.52h0ZM642.4,219.95c-7.08.32-8.05,10.62-14.81,10.95,9.33,4.99,16.1-2.25,20.92-8.69l-6.12-2.25Z"/><path class="cls-8" d="M648.2,221.23c-6.12,5.15-7.89,15.94.97,18.99-5.31-7.32,9.34-10.62,4.83-17.39l-5.8-1.61h0Z"/><path class="cls-8" d="M654.31,221.56c-4.83,9.34,7.57,10.46,4.35,17.55,7.08-1.61,8.21-14.97,1.77-18.51l-6.12.97Z"/><path class="cls-8" d="M606.98,201.59c11.59-.64,22.19,5.63,29.3,15.78,4.51,6.44,19.64,9.01,24.79,3.86s2.25-16.1-10.62-12.56c-3.22-5.47-12.56-3.54-17.06-8.05s-21.9-17.38-26.4.97h0Z"/><path class="cls-1" d="M650.45,208.68c-3.06.64-4.03,5.96-2.1,8.69M657.05,211.9c.97,1.61.32,3.86-.16,4.99M625.34,202.08c5.95.32,7.08,4.67,13.52,6.28"/><path class="cls-8" d="M621.4,187.43c20.57,5.15,36.89,9.66,47.01,15.45,10.12,5.79,25.79,7.4,39.5,3.54,13.71-3.86,40.15-7.4,38.85,9.66,7.19-8.53-1.96-17.71-20.24-19.32.33-8.37-8.63-15.94-15.07-10.95,5.96-.8,11.1,10.3-.65,14.81,2.28-8.37-6.04-15.94-14.69-12.23,5.55,1.61,11.16,10.92-1.25,14.49-7.84,2.25-19.26-.64-27.75-5.79s-56.15-23.82-45.71-9.66h0Z"/><path class="cls-8" d="M673.31,179.06c-6.44,2.9-2.25,9.66-12.23,13.52-9.98,3.86-16.9,12.72-14.65,20.28,6.76-14.81,18.67-14.17,22.86-19.96,4.18-5.79,10.3-14.33,4.03-13.84h0Z"/><path class="cls-8" d="M675.08,180.02c-.32,11.75-9.57,7.47-5.96,23.99,1.13,5.15,3.22,13.52-.32,21.89,10.38-7.57,3.7-23.46,8.37-29.46,2.26-2.9,5.15-7.4,6.28-11.27-2.42,6.76-2.25,19.32,4.35,22.54-5.31-12.56,14.33-22.86.8-37.35-1.93,3.54-8.05,9.82-13.52,9.66h0ZM642.24,168.27c1.61,2.41,3.22,8.53,1.77,11.91,3.22-1.93,7.89-6.92,9.34-10.3,6.6.97,9.17,9.18,2.9,12.72,3.86,0,10.46,0,14.16-4.35-4.5-4.99-18.51-12.72-28.17-9.98h0Z"/><path class="cls-8" d="M542.11,145.18c-1.04-.95-2.8-1.85-5.95-2.5-9.75-2-4.71-10.78,3.58-10.71,17.7-19.32,27.65-4.43,49.22-10.54,7.55-2.14,12.73-1.51,16.85.27,9.66-6.44,20.99-4.64,29.2,2.93.91-1.45,2.14-2.56,3.86-3.04,7.56-2.1,13.68,4.35,15.77,12.72,5.9-1.09,12.63,1.82,17.06,5.85,6.13-3.15,10.36-3.29,11.91-.05,5.47-2.57,12.57-4.19,16.11,4.5s-8.37,6.12-10.3,24.47c-1.19,11.32-13.84,15.77-23.83,9.01-15.97-10.82-31.55-12.56-39.28,3.86s-13.78,25.96-32.52,20.6c-6.76-1.93-15.45.64-20.92,8.05s-13.85.48-23.83,1.29c12.55-1.93,7.75-5.09,18.67-5.79,9.98-.64,7.41-9.98,13.84-11.27-25.11,6.44-24.15-2.9-44.75,3.54,9.01-11.59,23.18-5.15,30.26-11.91-18.67-.32-27.03-12.52-35.42-7.4-13.2,8.05-7.41,30.96-41.85,28.98-16.74-.97-27.37,1.29-37.35,11.27,17.39-36.06,41.04-16.25,52.48-27.69,6.76-6.76,11.91-11.91,15.45-18.35,1.25-2.27,2.93-3.56,5.04-4.06-28.65-9.01-11.33-23.06,16.69-24.02h0Z"/><path class="cls-1" d="M683.59,140.11c.44.9.66,2.08.66,3.53,0,7.08-10.62,7.4-11.27,17.87-.34,5.47-.97,8.53-4.67,7.89s-6.92-6.44-3.38-13.2"/><path class="cls-8" d="M547.42,134.63c-2.67-1.87-5.33-2.63-7.72-2.66M605.74,121.65c8.53,3.69,12.68,12.55,25.07,12.98,11.92.42,19.32,17.71,39.28,6.44.54-.3,1.07-.59,1.58-.85M635,124.63c-1.78,2.83-2.18,6.78-1.7,10.24M596.04,161.03c-15.13,0-19,7.73-19,15.13s7.08,17.06,19.64,17.06,19.32-7.73,19.32-16.1-7.73-16.1-19.96-16.1h0Z"/><path class="cls-8" d="M598.77,192.9c-.32-4.18-7.89-3.54-7.57-6.76s4.19-4.51,4.19-9.01,6.76-4.83,9.01-1.29c2.25,3.54,9.02,10.46,10.47,6.92M604.41,175.84c-3.54,3.54-5.15,10.79-.48,16.42M609.24,181.31c-1.12,2.41-1.45,6.12-.16,8.37"/><path class="cls-3" d="M669.36,169.48c11.83.97,13.85-12.07,4.99-12.88M654.8,134.31c-4.1-5.23-13.52-7-13.68,4.1"/><path class="cls-8" d="M639.99,151.05c-4.03-9.98-14.33-11.43-19.8-6.44-4.55,4.15-4.67,14.97,5.15,17.23,3.38-4.02,9.98-9.34,14.65-10.79h0ZM635.56,144.77c-5.8-5.15-14.33,4.59-6.6,13.52M525.31,169.16c3.88-.92,9.55.98,18.25,5.07,5.47,2.58,21.9,8.05,32.2,2.58-10.62,3.86-18.67-12.24-26.72-10.3s-22.78,4.91-28.97-.97c15.13.97,23.27-11.02,40.56-.64,4.83,2.9,10.95,4.83,16.42,4.51-14.16-17.06-32.84-6.12-34.77-19.96,8.53,9.18,29.38-2.09,40,15.13M545.33,152.01c-1.99-2.48-1.09-4.95-3.23-6.9"/><path class="cls-9" d="M654.8,134.31c-3.54-3.78-11.27-.8-9.1,6.84,1.69-3.54,5.31-6.52,9.1-6.84ZM632.91,154.93c2.44-1.77,4.95-3.22,7.08-3.88-1.16-2.86-2.83-5.03-4.76-6.53-1.84-1.27-7.13,5.84-2.32,10.42Z"/><path class="cls-2" d="M623.4,141.87c-5.8-3.86-11.11-3.54-12.88-.32-4.18-.16-7.65,2.9-7.81,9.01M611.65,153.14c-6.92-4.75-16.42-2.98-15.78,7.65M591.69,166.82c3.38-2.74,8.21-4.67,11.91.16M643.37,156.36c-1.29,1.77-2.25,4.51-.16,8.69-2.58-3.38-9.01-3.38-15.94,5.63M658.66,155.88c-8.37.97-8.21,6.44-1.45,8.85M599.1,135.43c-7.08-1.45-12.23,2.74-2.41,6.28M612.62,130.6c-9.98-2.41-14.01.16-9.5,2.41M583.8,170.69c-.32,3.54,1.61,8.21,7.4,2.9M585.74,181.31c0,.97-.16,2.09-.81,2.9M562.55,134.14c-6.12-1.77-7.24-7.4-.16-6.92M560.46,147.18c-6.76-2.25-6.76-8.85-1.13-8.21M573.02,143.8c-7.89-1.93-8.21-7.4-2.25-6.6M573.98,127.06c-4.18-.32-10.62,4.35.16,7.08M585.74,136.4c-9.82-1.45-9.66,2.58-3.87,5.15M593.14,127.06c-7.57-1.45-10.14,3.06-4.99,4.99M569.32,154.91c-1.85-1.53-3.38-8.85,5.47-6.68M587.67,152.66c-5.95-1.61-11.59,4.18-6.12,7.57M595.55,145.74c-6.28-1.13-11.59.64-8.21,2.9"/><path class="cls-8" d="M654.46,134.31c-3.54.65-6.71,2.73-8.76,6.84"/></svg>