<?xml version="1.0" encoding="UTF-8"?><svg id="_色修正" xmlns="http://www.w3.org/2000/svg" viewBox="0 0 900 600"><defs><style>.cls-1,.cls-2{stroke-width:.87px;}.cls-1,.cls-2,.cls-3,.cls-4,.cls-5,.cls-6,.cls-7,.cls-8{stroke:#040000;}.cls-1,.cls-2,.cls-4,.cls-5,.cls-6,.cls-7,.cls-8{stroke-miterlimit:1.33;}.cls-1,.cls-3,.cls-9{fill:#fff;}.cls-2{fill:#f1ec62;}.cls-3{stroke-linejoin:round;stroke-width:.88px;}.cls-4{fill:#468e37;}.cls-4,.cls-5,.cls-6,.cls-8{stroke-width:.25px;}.cls-5{fill:#946634;}.cls-6{fill:#6b462f;}.cls-7{fill:#dbdbdb;stroke-width:1.2px;}.cls-10{fill:#231815;}.cls-10,.cls-11,.cls-9,.cls-12,.cls-13{stroke-width:0px;}.cls-11{fill:#e50012;}.cls-12{fill:#004da0;}.cls-13{fill:#009844;}.cls-8{fill:none;}</style></defs><path class="cls-11" d="M0,0h900v600H0V0Z"/><path class="cls-9" d="M0,0h900v400H0V0Z"/><path class="cls-13" d="M0,0h900v200H0V0Z"/><path class="cls-12" d="M0,0v600l225-300L0,0Z"/><path class="cls-7" d="M402,239.7h95.75v100.3c0,33.75-41.68,7.4-47.88,25.75-5.68-18.33-47.62,8.25-47.62-27.75s-.25-98.3-.25-98.3Z"/><path class="cls-6" d="M456.75,349.75s-1.25,1.25-3.5.25c-2.25-1-2.5-64.25-2.5-64.25,5-5.5,9-7.25,9-7.25l3,2.5c-11.25,5.75-10.25,14-9.25,28.25.25,5.25.25,12,1.5,18.5,1.75,8.25,5.25,15.25,5.5,20.5.25,3.25-3.75,1.5-3.75,1.5Z"/><path class="cls-6" d="M449,277h4.5c-3.75,36.25-.5,57.75-.5,68.25,0,3.5,2,4.75,1.75,4.75-4.5,5-6.75-.25-6.75-.25l1-72.75Z"/><path class="cls-5" d="M442.11,349.7c-4.25,2-4.86-1.95-4.61-2.45,9.25-18.75,13.25-60,4.75-64.5l.5-4c3.25,1,6.25,5.25,6.25,5.25,1.25,46.25-.02,65.18-.77,65.93-4.5,4.75-6.2-.62-6.45-1.12"/><path class="cls-8" d="M441.8,348.88c-.75-4,6.45-14.13,5.95-24.88M454,332.75c2.25,6.25,3.25,11.75,2.75,17"/><path class="cls-4" d="M463.75,260q1.5-1.75,4.25-1.75c.5-3.75,6.75-3.75,7.25,1,5-1,6,2,4,5,4.75-1.25,9,0,7.75,5.5,8.5,2.25,5.25,8.25,1.5,9.5-.5,3.75-4,5-8.75,3.5-6,4.25-9.5,2.75-12.25-1.5-6.75,1-7.25-.5-10.25-4.25-5.25,2.25-6.25,2.25-10.75-.5-.25,3.5-1.5,2.5-3.75,2.25.25,4.5-1.5,6.5-5.5,5,3,6.25-4.75,9-8.5,3.75-3.5.25-3.75-.75-5.5-2-1.5,5-7,4.25-8,1.5-7-1-6.25-4.75-.5-5,.5-4,4-3.25,6.25-2.75.25-2.5,1.75-2,3-1.5-.75-1.75-.25-2.75,2-3.25-3.25-4.25-1.25-5.75,2-7.25-1.75-4,1.25-3.75,3.5-4-.25-4.25,1-5,5.5-5.5-.5-1.5.25-2.75,2.75-2.75-1.5-4.25.5-5.23,5-4.5.75-6.18,14-3.25,13,5.25,3.75.5,5,1.25,6,4.25Z"/><path class="cls-8" d="M437,257.75c1,.5,2.25,0,2.5,2.75,2-3.5,4.5-1.5,4.5,2.5M457.75,255.75c-1,1.5-4.75,1.5-4.25,5.5-1.25-1.75-3.75-2.25-4.75-.5M463.75,260c0,1-.25,4-1.25,5.5M479.25,264.25c.25.25-3.5,0-5.25,1.25M488.5,279.25c-1-.5-3-1.75-4.5.25,0-1,0-3.75-2.75-3.75M479.75,282.75c0-2.5-.5-3.25-1-4M471.5,279.25c-2-1.5-4,.75-4,2M457,277c0-1-.75-3,1-3.75M428.5,287.5c.5-2.5,2.25-2.5,2-3.75-.25-2-2.5-3.75-5.25-1"/><path class="cls-8" d="M430.5,283.75c1.5-.5,3-.25,3.5.5M426.25,274.5c1-1,3.5-.75,5,0M431.25,268.5c1.25,0,3.5-.5,4.25,1.75,2.75-4.25,4.75-3.75,5.25-2.75M445.75,267c2-.75,5.5,1.25,7.5,4.75,1-2.75,2.5-2.25,4-2.5M466.75,271.75c3.25-1.5,5.25,1.5,6.25,2.75,1.5-2,2.75-2,4.25-2M436.5,277.75c.75-1.25,2.5-1.5,3.75-.75-.25-2.25,1.25-3.25,2.25-2.75"/><path class="cls-2" d="M446.38,225.65l-5.5.25-2.75,4.93-3-4.7-5.5.23,2.5-4.95-3-4.7,5.75-.25,2.5-4.93,3,4.7,5.5-.23-2.5,4.95,3,4.7ZM422.88,227.47l-5.5,1.35-1.5,5.32-4-4-5.25,1.3,1.5-5.32-3.75-4.05,5.25-1.32,1.5-5.35,4,4,5.5-1.3-1.75,5.35,4,4.02ZM400.13,232.15l-5,2.48-.25,5.55-4.75-3.05-5,2.45.5-5.55-4.75-3.07,5-2.5.5-5.55,4.5,3.05,5-2.45-.25,5.55,4.5,3.1ZM453.63,225.65l5.5.25,2.5,4.93,3-4.7,5.5.23-2.5-4.95,3-4.7-5.5-.25-2.75-4.93-3,4.7-5.5-.23,2.5,4.95-2.75,4.7ZM477.13,227.47l5.25,1.35,1.5,5.32,4-4,5.25,1.3-1.5-5.32,4-4.05-5.5-1.32-1.5-5.35-4,4-5.25-1.3,1.5,5.35-3.75,4.02ZM499.63,232.15l5,2.48.25,5.55,4.75-3.05,5,2.45-.25-5.55,4.5-3.07-5-2.5-.25-5.55-4.75,3.05-5-2.45.5,5.55-4.75,3.1Z"/><path class="cls-1" d="M466.86,364.25l.5,9s2.5,0,4.75-.75c2-.75,3.75-2.25,3.75-2.25l-.25-4.75-8.75-1.25ZM433.36,364.25l-.5,8.75s-2.25,0-4.5-.5c-2-.5-3.75-1.75-3.75-1.75l-2.5-6,11.25-.5Z"/><path class="cls-3" d="M392.92,338l-6.32,9-7-11.5,5.25-5.5,8.07,8Z"/><path class="cls-1" d="M424.36,382.25c0,8.5,51.5,8.5,51.5,0v-12c0,6.25-51.5,5-51.5,0v12Z"/><path class="cls-1" d="M378.36,354.5c4.5,23,46,23.5,46,23.5v-7.75c-1-3,.75-4,7.5-5,2.75-.25,1.5-4.25,1.5-4.25,0,0-18,3.25-30.75-1.75-17.25-7-19.75-20.5-19.75-20.5,0,0-1.25,10.5-4.5,15.75ZM521.61,354.5c-4.25,23-45.75,23.5-45.75,23.5v-7.75c.75-3-1-4-7.75-5-2.75-.25-1.25-4.25-1.25-4.25,0,0,18,3.25,30.75-1.75,17-7,19-20.5,19-20.5,0,0,1.75,10.5,5,15.75Z"/><path class="cls-1" d="M381.48,345.75c-11.5-6.25-2.43-12.75-1.43-31.25,5.79,11.77,11.51,12.15,13.14,19.6.2.92.36,2.58-.15,3.65-5.25.25-7.75-7.75-10.25,1l-1.32,7Z"/><path class="cls-3" d="M506.81,338l6.32,9,7-11.5-5.25-5.5-8.07,8Z"/><path class="cls-1" d="M518.26,345.75c11.5-6.25,2.42-12.75,1.42-31.25-5.79,11.77-11.51,12.15-13.14,19.6-.2.92-.36,2.58.15,3.65,5.25.25,7.75-7.75,10.25,1l1.33,7Z"/><path class="cls-10" d="M388.61,354.25l1.25,1-2.75,3c-1.1,1.2-1.37,1.99-.6,2.73.95.91,1.62.59,2.6-.48l3-3.25,1,1-3,3.5c-1.63,1.9-3.14,1.46-4.4.28-1.1-1.03-1.74-2.53-.11-4.36l3.02-3.4h0ZM393.61,358.5l1.25.75-.25,6,2.75-4.25,1.25.75-4,6.5-1.5-.75.25-6-2.75,4.25-1.25-.75,4.25-6.5ZM395.86,369l3.5-7,1.25.75-3.25,6.75-1.5-.5ZM401.36,363l-2.76,7.24,2.76,1.01c2.57.94,3.78-.2,4.6-2.37.83-2.21.46-3.84-2.11-4.87l-2.49-1.01ZM402.35,364.76c2.59.9,2.74,1.88,2.04,3.66-.68,1.69-1.32,2.35-3.78,1.08l1.74-4.74ZM409.61,365.75l-4.5,6.75,1.74.51,1.01-1.76,3,.75.26,1.76,1.74.24-1.74-7.99-1.5-.26ZM410.1,367.51l.49,3-1.99-.26,1.5-2.74ZM413.88,366.4l-.27,7.75,2.94.06c2.73.05,3.51-1.4,3.58-3.73.07-2.36-.8-3.79-3.57-3.93l-2.68-.15h0ZM415.38,367.74c2.74.01,3.21.89,3.11,2.8-.09,1.82-.49,2.65-3.22,2.24l.11-5.04h0ZM440.11,377.25v7.99h1.76v-3s1.5.09,2.74-.24c.98-.26,1.67-.89,1.69-2.44.02-1.52-.86-2.32-2.39-2.32h-3.8,0ZM441.86,378.49l1.76.02c1.47,0,1.19,2.23.05,2.23h-1.81v-2.25ZM449.11,377.25l-3.26,7.99h1.76l.75-1.99h3.26l.75,1.99h1.74l-3.25-8h-1.75,0ZM449.86,379l1.24,3h-2.25l1.01-3ZM454.11,383.75l4.25-5.25h-3.75v-1.25h6v1.25l-4.5,5.25h4.5v1.5h-6.5v-1.5ZM479.36,368.25l1.5-.25.75,4.5c.27,1.6-.46,2.69-1.6,3.11-1.3.48-2.95.04-3.15-2.11l1.25-.25c.29,1.29.81,1.4,1.41,1.2.48-.16.72-.91.59-1.7l-.75-4.5ZM481.86,367.8l1.48-.28.68,3.74c.29,1.6.8,2.28,1.84,2.1,1.29-.23,1.44-.95,1.16-2.38l-.92-3.99,1.51-.23,1.01,4.16c.59,2.43-.68,3.39-2.39,3.71-1.48.28-3.06-.1-3.58-2.5l-.79-4.34ZM489.61,371.25l1.25-.5c.61,1.1,1.57,1.04,2.31.72,1.03-.46,1.15-1.36.64-1.67-.73-.44-2.47.18-3.4-.16-1.12-.41-1.6-1.04-1.54-2.01.07-1.17,1.1-1.81,2.21-2.15,1.25-.39,2.48-.25,3.28,1.27l-1.5.5c-.49-.82-1.12-.78-1.67-.52-.47.22-1.2.63-.81,1.3.32.55,2.16.19,3.12.23,1,.04,1.81.71,1.95,1.67.19,1.34-.31,2.07-1.86,2.67-1.92.75-3.65-.09-3.98-1.36h0ZM496.36,365l-2,1-.5-1.25,5.5-2.25.5,1-2,1,2.25,5.5-1.25.75-2.5-5.75ZM499.61,362.25l1.25-.75,3.5,6.5-1.25.75-3.5-6.5ZM508.11,362.75l1.5-.5c.71,1.48-.35,4.18-2.94,4.12-3.79-.08-4.2-4.26-3.61-5.63,1-2.31,3.81-2.27,5.05-.99l-1.25,1c-.79-1.02-2.55-.38-2.67.56-.19,1.53.48,2.95,1.84,3.62,1.16.57,2.94-.86,2.08-2.18h0ZM507.36,357.5l1.25-1,4.5,6-1.25,1-4.5-6ZM512.11,353.75l-1.24,1.01,2.74,7.5,1.24-1.24-.75-1.5,2.25-2.01,1.5.75,1.26-.99-7.01-3.51ZM512.6,355.5l2.51,1.24-1.5,1.5-1.01-2.74Z"/></svg>