<?xml version="1.0" encoding="UTF-8"?><svg id="_色修正" xmlns="http://www.w3.org/2000/svg" viewBox="0 0 900 600"><defs><style>.cls-1{fill:#e50012;}.cls-1,.cls-2,.cls-3,.cls-4{stroke-width:0px;}.cls-2{fill:#fff;}.cls-3{fill:#ffe45f;}.cls-4{fill:#003070;}</style></defs><rect class="cls-4" width="900" height="600"/><rect class="cls-1" y="300" width="900" height="300"/><path class="cls-2" d="M519.62,300L0,600V0"/><circle class="cls-3" cx="186.67" cy="300" r="60"/><g id="j"><g id="i"><g id="h"><path class="cls-3" d="M60,300l7.79,7.79,118.88-7.79-118.88-7.79-7.79,7.79Z"/><path id="g" class="cls-3" d="M73.33,314.92l6.36,6.36,106.98-21.28-113.33,14.92Z"/><path id="g-2" class="cls-3" d="M73.33,285.08l6.36-6.36,106.98,21.28-113.33-14.92Z"/></g><g id="h-2"><path class="cls-3" d="M97.1,210.43v11.02s89.57,78.55,89.57,78.55l-78.55-89.57h-11.02Z"/><path id="g-3" class="cls-3" d="M95.98,230.41v8.99s90.69,60.6,90.69,60.6l-90.69-69.59Z"/><path id="g-4" class="cls-3" d="M117.08,209.31h8.99s60.6,90.69,60.6,90.69l-69.59-90.69Z"/></g></g><g id="i-2"><g id="h-3"><path class="cls-3" d="M186.67,173.33l-7.79,7.79,7.79,118.88,7.79-118.88-7.79-7.79Z"/><path id="g-5" class="cls-3" d="M171.75,186.67l-6.36,6.36,21.28,106.98-14.92-113.33Z"/><path id="g-6" class="cls-3" d="M201.59,186.67l6.36,6.36-21.28,106.98,14.92-113.33Z"/></g><g id="h-4"><path class="cls-3" d="M276.23,210.43h-11.02s-78.55,89.57-78.55,89.57l89.57-78.55v-11.02Z"/><path id="g-7" class="cls-3" d="M256.25,209.31h-8.99s-60.6,90.69-60.6,90.69l69.59-90.69Z"/><path id="g-8" class="cls-3" d="M277.36,230.41v8.99s-90.69,60.6-90.69,60.6l90.69-69.59Z"/></g></g></g><g id="j-2"><g id="i-3"><g id="h-5"><path class="cls-3" d="M313.33,300l-7.79-7.79-118.88,7.79,118.88,7.79,7.79-7.79Z"/><path id="g-9" class="cls-3" d="M300,285.08l-6.36-6.36-106.98,21.28,113.33-14.92Z"/><path id="g-10" class="cls-3" d="M300,314.92l-6.36,6.36-106.98-21.28,113.33,14.92Z"/></g><g id="h-6"><path class="cls-3" d="M276.23,389.57v-11.02s-89.57-78.55-89.57-78.55l78.55,89.57h11.02Z"/><path id="g-11" class="cls-3" d="M277.36,369.59v-8.99s-90.69-60.6-90.69-60.6l90.69,69.59Z"/><path id="g-12" class="cls-3" d="M256.25,390.69h-8.99s-60.6-90.69-60.6-90.69l69.59,90.69Z"/></g></g><g id="i-4"><g id="h-7"><path class="cls-3" d="M186.67,426.67l7.79-7.79-7.79-118.88-7.79,118.88,7.79,7.79Z"/><path id="g-13" class="cls-3" d="M201.59,413.33l6.36-6.36-21.28-106.98,14.92,113.33Z"/><path id="g-14" class="cls-3" d="M171.75,413.33l-6.36-6.36,21.28-106.98-14.92,113.33Z"/></g><g id="h-8"><path class="cls-3" d="M97.1,389.57h11.02s78.55-89.57,78.55-89.57l-89.57,78.55v11.02Z"/><path id="g-15" class="cls-3" d="M117.08,390.69h8.99s60.6-90.69,60.6-90.69l-69.59,90.69Z"/><path id="g-16" class="cls-3" d="M95.98,369.59v-8.99s90.69-60.6,90.69-60.6l-90.69,69.59Z"/></g></g></g><g id="s"><path id="t" class="cls-3" d="M459.62,300l-22.55,7.84-.49,23.86-14.42-19.02-22.85,6.91,13.63-19.59h46.67Z"/><path id="t-2" class="cls-3" d="M459.62,300l-22.55-7.84-.49-23.86-14.42,19.02-22.85-6.91,13.63,19.59h46.67Z"/></g><g id="s-2"><path id="t-3" class="cls-3" d="M30,548.04l4.49-23.44-20.42-12.35,23.68-2.98,5.44-23.24,10.15,21.6-23.33,40.41Z"/><path id="t-4" class="cls-3" d="M30,548.04l18.06-15.61,20.91,11.51-9.26-22,17.41-16.33-23.78,2.01-23.33,40.41Z"/></g><g id="s-3"><path id="t-5" class="cls-3" d="M30,51.96l18.06,15.61,20.91-11.51-9.26,22,17.41,16.33-23.78-2.01-23.33-40.41Z"/><path id="t-6" class="cls-3" d="M30,51.96l4.49,23.44-20.42,12.35,23.68,2.98,5.44,23.24,10.15-21.6-23.33-40.41Z"/></g></svg>