<?xml version="1.0" encoding="UTF-8"?><svg id="_色修正" xmlns="http://www.w3.org/2000/svg" viewBox="0 0 900 600"><defs><style>.cls-1{fill:#f3e727;fill-rule:evenodd;}.cls-1,.cls-2,.cls-3{stroke-width:0px;}.cls-2{fill:#d61518;}.cls-3{fill:#040000;}</style></defs><path class="cls-3" d="M0,0h900v600H0V0Z"/><path class="cls-2" d="M0,0h900v300H0V0Z"/><path class="cls-1" d="M389.87,209.44h30.19l9.15-28.45,9.4,28.45h30.18l-24.25,18.06,9.4,28.94-24.74-17.57-24.49,17.57,9.4-28.94-24.25-18.06Z"/><path class="cls-1" d="M500.21,365.07l-23.75-18.56c24-19.54,39.59-49.48,39.59-82.88,0-50.97-36.37-93.77-84.37-103.91l3.71-17.32c6.68,1.49,14.52,4.3,20.95,6.52l6.19-10.39c6.67,3.21,14.1,6.43,20.28,10.39l-4.7,11.14c6.19,3.96,13.65,10.09,17.81,14.92l9.29-7.26c4.95,5.44,10.89,11.13,15.09,17.07l-8.41,8.66c5.43,7.97,7.53,11.64,11.54,20.83l11.8-2.77c2.23,6.93,5.61,15.41,6.85,22.58l-11.18,4.39c1.33,5.57,3.06,15.31,2.95,23.5,0,.49-.05,1.05-.05,1.55l11.67,1.66c-.49,7.18-.74,15.34-2.23,22.52h-12.12c-1.73,7.42-3.96,16.49-6.68,23.42l10.14,5.94c-3.21,6.43-6.43,14.1-10.63,20.29l-11.13-4.7c-4.21,6.18-8.91,12.12-14.1,17.56l7.17,9.4c-1.98,1.73-3.71,3.46-5.69,5.45M448.01,362.84l17.94,10.81c-1.67,1.53-6.68,4.12-8.01,4.65l2.93,11.26c-6.93,2.23-14.35,5.44-22.02,6.93l-4.45-11.13c-7.18,1.48-14.35,2.47-21.77,2.47l-1.49,11.63c-6.93-.49-15.34,0-23.01-1.73v-11.62c-6.93-1.24-13.61-2.97-20.04-5.2l-5.69,10.15c-5.94-2.48-13.85-5.45-20.29-9.4l4.21-11.13c-5.2-2.72-9.9-6.19-14.35-9.66l11.13-14.1c18.31,14.6,41.32,23.25,66.55,23.25,13.36,0,26.47-2.22,38.35-7.17"/><path class="cls-1" d="M522.78,391.51l-118.41-90.11-1.08,1.54,118.1,90.27-7.01,8.77-115.13-73.85c-31.17-19.55-29.94-34.88-23.5-51.46l5.44-13.36c2.97,17.32,20.78,30.44,39.34,45.03l104.55,80.32-2.31,2.85ZM552.5,418.37c-1.01,0-1.84-.82-1.84-1.84h0c0-1.02.82-1.84,1.84-1.85h0c1.02,0,1.85.82,1.85,1.84,0,1.02-.82,1.84-1.84,1.84h0M545.43,413.18c-1.02,0-1.84-.82-1.84-1.84,0-1.02.82-1.84,1.84-1.84,1.02,0,1.84.82,1.84,1.84,0,1.02-.82,1.84-1.84,1.84h0M538.19,407.4c-1.01,0-1.84-.82-1.84-1.84.03-1.02.88-1.82,1.9-1.79.97.03,1.76.81,1.79,1.79,0,1.01-.82,1.84-1.84,1.84M562.53,417.62l-35.48-27.49-10.31,13.29,30.82,21.61c2.48,1.73,2.72,9.65,11.87,10.89,3.72.49,6.19-2.23,6.19-2.23,3.99-4.85,2.9-11.54-3.09-16.07"/></svg>