<?xml version="1.0" encoding="UTF-8"?><svg id="_色修正" xmlns="http://www.w3.org/2000/svg" xmlns:xlink="http://www.w3.org/1999/xlink" viewBox="0 0 900 600"><defs><style>.cls-1,.cls-2,.cls-3,.cls-4,.cls-5,.cls-6,.cls-7,.cls-8,.cls-9,.cls-10,.cls-11,.cls-12{stroke:#b18e31;}.cls-1,.cls-2,.cls-3,.cls-4,.cls-7,.cls-8,.cls-13,.cls-14,.cls-12{fill:#fff;}.cls-1,.cls-2,.cls-4,.cls-7,.cls-9,.cls-12{stroke-linejoin:round;}.cls-1,.cls-9{stroke-width:1.27px;}.cls-2{stroke-width:1.27px;}.cls-3{stroke-width:1.15px;}.cls-3,.cls-6,.cls-10{stroke-miterlimit:10;}.cls-15{clip-path:url(#clippath);}.cls-16,.cls-6,.cls-9,.cls-11{fill:none;}.cls-16,.cls-17,.cls-13,.cls-18,.cls-19,.cls-20,.cls-14{stroke-width:0px;}.cls-4{stroke-width:1.19px;}.cls-5{stroke-width:.35px;}.cls-5,.cls-8,.cls-11{stroke-miterlimit:4;}.cls-5,.cls-17,.cls-10,.cls-20{fill:#b18e1b;}.cls-6{stroke-width:.92px;}.cls-7{stroke-width:.89px;}.cls-8{stroke-width:1.22px;}.cls-17,.cls-13{fill-rule:evenodd;}.cls-10{stroke-width:1.07px;}.cls-18{fill:#231815;}.cls-19{fill:#e50012;}.cls-11{stroke-width:1.27px;}.cls-12{stroke-width:2.38px;}</style><clipPath id="clippath"><path class="cls-16" d="M476.93,268.25l-.84.03c-6.14,0-20.4-3.15-25.9-7.87-5.76,4.36-20.25,7.87-26.3,7.87-.28,0-.56-.03-.84-.09l.14,4.1c.32,4.85,1.17,9.72,2.46,14.4,4.06,14.74,12.38,27.26,24.31,36.76,11.94-9.51,20.27-22.04,24.34-36.79,1.31-4.7,2.13-9.53,2.47-14.4.08-1.34.13-2.67.15-4.01h0Z"/></clipPath></defs><path class="cls-18" d="M0,0h900v600H0V0Z"/><path class="cls-14" d="M0,0h900v400H0V0Z"/><path class="cls-19" d="M0,0h900v200H0V0Z"/><path class="cls-2" d="M450.81,302.41l68.49,63.58-4.88-115.47c-.72-17.5-15.92-13.49-26.97-7.17-11.19,7.17-23.96,7.17-37.45,2.44-13.49,4.74-26.25,4.74-37.45-2.44-11.05-6.31-26.25-10.33-26.97,7.17l-4.88,115.47,70.1-63.58Z"/><path id="C" class="cls-20" d="M393.47,246.5l-4.73,112.32-8.04,7.17,4.88-115.47c2.29-1.58,6.31-4.02,7.89-4.02h0ZM403.09,254.54l-4.02,93.96-8.03,8.22,4.88-108.49c1.58,1.58,6.31,5.45,7.17,6.31h0ZM411.84,261.71l-3.16,78.36-6.46,6.31,4.02-89.41c1.57,1.58,4.73,3.87,5.59,4.73h0ZM421.31,265.73l-3.16,66.79-6.31,5.12,3.16-74.35c1.58.72,4.74,2.44,6.31,2.44h0ZM430.06,265.73l-2.3,55.66-6.46,6.31,2.44-61.25c1.58,0,5.59,0,6.31-.72h0Z"/><path id="C-2" class="cls-20" d="M506.53,246.5l4.73,112.32,8.04,7.17-4.88-115.47c-2.29-1.58-6.31-4.02-7.89-4.02h0ZM496.91,254.54l4.02,93.96,8.03,8.22-4.88-108.49c-1.58,1.58-6.31,5.45-7.17,6.31h0ZM488.16,261.71l3.16,78.36,6.46,6.31-4.02-89.41c-1.57,1.58-4.73,3.87-5.59,4.73h0ZM478.69,265.73l3.16,66.79,6.31,5.12-3.16-74.35c-1.58.72-4.74,2.44-6.31,2.44h0ZM469.94,265.73l2.3,55.66,6.46,6.31-2.44-61.25c-1.58,0-5.59,0-6.31-.72h0Z"/><path class="cls-10" d="M453.16,315.07l9.61,43.76-3.16,3.16-3.3-2.44-5.45-39.02,2.3,39.02-3.16,4.02-3.16-4.02,2.3-39.02-5.45,39.02-3.3,2.44-3.15-3.16,9.61-43.76h6.31,0Z"/><g id="D"><path class="cls-4" d="M428.48,295.85l-19.08,67.71,26.26,4.02,11.19-50.93-18.36-20.8h0Z"/><path class="cls-9" d="M422.17,318.95l2.3,5.59,12.41-11.85"/><path class="cls-9" d="M430.76,304.93l2.6,24.35,7.89-10.33M438.09,322.96l4.31,14.88M444.09,332.37l-8.72,13.24M438.09,358.83l-2.79-13.2-2.44-13.42-5.84,7.91-2.56-9.12-8.17,8.38,4.16,15.25,5.74-9.44,3.16,9.61,5.89-9.16M414.99,361.98l5.3-7.44,3.45,11.46,4.73-8.03,3.16,9.61"/></g><g id="D-2"><path class="cls-4" d="M471.52,295.85l19.08,67.71-26.26,4.02-11.19-50.93,18.36-20.8h0Z"/><path class="cls-9" d="M477.83,318.95l-2.3,5.59-12.41-11.85"/><path class="cls-9" d="M469.24,304.93l-2.6,24.35-7.89-10.33M461.91,322.96l-4.31,14.88M455.91,332.37l8.72,13.24M461.91,358.83l2.79-13.2,2.44-13.42,5.84,7.91,2.56-9.12,8.17,8.38-4.16,15.25-5.74-9.44-3.16,9.61-5.89-9.16M485.01,361.98l-5.3-7.44-3.45,11.46-4.73-8.03-3.16,9.61"/></g><path class="cls-12" d="M450,393.82c19.94,0,39.03-1.58,50.21-4.73,4.74-.86,4.74-3.3,4.74-6.46,4.74-1.58,2.29-7.17,5.59-7.17-3.3.86-4.02-5.59-8.03-4.73,0-5.6-5.6-6.31-10.33-4.74-9.47,3.16-26.26,3.88-42.18,3.88-15.92-.72-32.57-.72-42.18-3.88-4.73-1.58-10.33-.86-10.33,4.74-4.02-.86-4.74,5.59-8.03,4.73,3.3,0,.86,5.59,5.59,7.17,0,3.16,0,5.6,4.88,6.46,11.05,3.16,30.13,4.73,50.07,4.73h0Z"/><path class="cls-1" d="M422.89,363.55c6.45.86,13.63,1.58,19.23.86,3.15,0,5.45,5.45-.86,6.31-5.59.72-14.35,0-19.08-.86-4.02-.72-12.77-2.29-18.36-3.88-5.6-2.44-1.58-7.17,1.58-6.45,4.88,1.58,11.19,3.16,17.51,4.02h0ZM477.12,363.55c-6.46.86-13.63,1.58-19.08.86-3.3,0-5.6,5.45.72,6.31,5.6.72,14.35,0,19.08-.86,4.02-.72,12.77-2.29,18.36-3.88,5.6-2.44,1.58-7.17-1.58-6.45-4.88,1.58-11.19,3.16-17.5,4.02h0Z"/><path class="cls-1" d="M403.09,360.4c-4.88-.86-7.17,4.73-5.59,7.89.72-1.58,4.02-1.58,4.73-3.16.86-2.44-.72-2.44.86-4.73h0ZM422.17,375.07c0-3.15,3.15-2.77,3.15-5.92,0-1.58-.86-4.02-2.44-4.02s-3.16,1.58-3.16,3.16c-.72,3.16,2.44,3.63,2.44,6.78ZM444.88,365.99c4.73,0,4.26,6.31,1.97,9.47,0-2.3-4.02-3.16-4.02-4.73,0-2.44,3.63-2.44,2.05-4.74ZM496.91,360.4c4.88-.86,7.17,4.73,5.6,7.89-.72-1.58-4.02-1.58-4.73-3.16-.86-2.44.72-2.44-.86-4.73h0ZM477.83,375.07c0-3.15-3.15-2.77-3.15-5.92,0-1.58.86-4.02,2.44-4.02s3.16,1.58,3.16,3.16c.72,3.16-2.44,3.63-2.44,6.78h0ZM455.12,365.99c-4.73,0-4.26,6.31-1.97,9.47,0-2.3,4.02-3.16,4.02-4.73,0-2.44-3.63-2.44-2.05-4.74h0Z"/><path class="cls-7" d="M404.67,361.98c1.58,0,4.02.72,4.74,1.58l-4.74-1.58h0ZM412.55,364.42c.86,0,4.02.72,5.6,1.58l-5.6-1.58h0ZM441.25,367.57c-1.58,0-4.73,0-5.59.72l5.59-.72h0ZM432.5,367.57c-.86-.86-4.02-.86-5.59,0h5.59ZM495.34,361.98c-1.58,0-3.87.72-4.74,1.58l4.74-1.58ZM487.45,364.42c-.86,0-4.02.72-5.6,1.58l5.6-1.58h0ZM458.75,367.57c1.58,0,4.74,0,5.6.72l-5.6-.72h0ZM467.5,367.57c.86-.86,4.02-.86,5.6,0h-5.6,0Z"/><path class="cls-20" d="M403.34,374.59c-.53-.1-.81-.52-.68-1.02.16-.61.65-.96,1.11-.79.29.1.83.64.83.84,0,.22-.28.75-.4.75-.05,0-.13.05-.18.1-.1.12-.41.18-.68.12h0ZM458.27,378.51c-.2-.07-.52-.52-.51-.72,0-.39.57-1.02.93-1.02.18,0,.66.25.83.43.32.34.25.89-.15,1.21-.2.16-.8.21-1.09.1h0ZM458.63,380.99c-.42-.14-.57-.35-.61-.81-.04-.49.01-.56.52-.84l.37-.2.35.15c.48.21.69.44.71.77.02.35-.24.7-.64.88-.35.16-.37.16-.7.05h0ZM407.75,370.1c-.35-.01-.82.31-1.09.47-.65.15-1.4.55-2.03.13-.62-.19-1.44-.04-1.53.72.16.65,1.07,1.02,1.63.59.41-.54,1.53-.85,1.66.06-.46.69-.4,1.61-.78,2.34-.06.46-.25.89-.5,1.28-.46.05-.95,0-1.34.28-.63.03-1.26.35-1.63.88-.4.58-.79,1.17-.91,1.88.11.72.94.93,1.56.97.67.18,1.33.42,2,.63,1.09.24,2.1.64,3.19.87,1.58.48,3.25.7,4.84,1.13.17.06.32.1.5.12.66.14,1.01-.58,1.06-1.12.33-1.16.58-2.34.91-3.5.22-.47.5-1.52-.41-1.28-.52.31-.95.77-1.59.81-.87.05-.38.95-.03,1.31.08.59-.11,1.29-.5,1.75-.52.33-1.17-.06-1.72-.19-.57,0-1.72-.28-1.19-1.06.19-.58.21-1.21.44-1.78.29-.61.34-1.29.47-1.94-.36-.78-.98.26-1.47.34-.34.23-1.61.33-.94.94.58.44.13,1.2.03,1.75-.04.77-.84.95-1.47.78-.63-.03-1.5-.5-.97-1.19.12-.58.32-1.14.44-1.72l.69-2.06c.11-.62.33-1.21.62-1.75.02-.69.48-1.28.47-1.97-.05-.34-.2-.46-.41-.47h0ZM404.15,377.35c.08-.01.14,0,.22.03.25.11.26.31,0,.53-.11.1-.24.19-.28.19-.47-.04-.61-.11-.62-.28-.02-.15.03-.19.34-.34.16-.07.26-.11.34-.12ZM403.12,382.37c-.5-.47-.42-.81.32-1.35.31-.23.5-.21.86.12.55.5.57.82.09,1.25-.24.21-.35.26-.63.26-.29,0-.38-.03-.64-.28ZM406.17,383.29c-.46-.11-.75-.57-.64-1.04,0-.02,0-.03.01-.05.13-.43.2-.48.84-.48.71,0,.85.11.86.74,0,.35-.02.44-.2.6-.21.19-.61.3-.88.23h0ZM495.28,383.37c-.23-.19-.27-.27-.28-.51,0-.41.23-.71.75-.94.68-.31.96-.27,1.22.19.34.6.33.85-.08,1.25-.23.22-.27.24-.79.24-.51,0-.57-.01-.82-.22ZM410.22,384.52c-.36-.1-.55-.37-.56-.81,0-.33.02-.39.25-.57.15-.12.39-.22.58-.25.27-.04.36-.01.58.14.55.39.67.77.35,1.14-.34.4-.66.49-1.2.34ZM432.14,385.5c-.08-.1-.26-.16-.28-.29.03-.55.06-1.12.24-1.65.1-.52.01-1.07.19-1.58.19-.93.19-1.88.4-2.8.01-.47.06-.95.19-1.41.16-.72.01-1.48.23-2.19-.02-.27.29-.98.56-.56.39.58.91,1.04,1.42,1.52.44.25.04.62-.27.75-.42.16-.52.62-.49,1.02-.06.41-.22.81-.24,1.23-.09.62-.07,1.25-.15,1.88-.18.61-.11,1.26-.17,1.89,0,.4-.18.76-.16,1.16-.05.41-.07.89-.41,1.17-.33.17-.8.14-1.07-.14h0ZM461.84,375.7c-.48.36-.91.8-1.34,1.22-.59.45.49.71.62,1.09.16.59.15,1.21.19,1.81.18.55.26,1.14.22,1.72-.05.62-.86.49-1.22.84-.49.21-.69.69-1.06,1.03-.25.48-.31,1.08-.34,1.63.04.45-.3.95,0,1.34.04.06.09.13.12.19.1.15.34.03.5.06.5-.03,1.03.05,1.5-.16,1.21-.21,2.43-.23,3.66-.28.75.02,1.47-.24,2.22-.22.59.13.85-.51.84-.97-.33-.65-.05-1.43-.31-2.09-.23-.67-.14-1.43-.25-2.12-.01-.55-.71-.75-1.06-.34-.34.34-.89.41-1.16.84-.3.6.63.6.78,1.06.18.46.12.98.16,1.47.11.59-.53.63-.94.69-.54.2-1.29.34-1.59-.31-.19-.48-.16-.99-.22-1.5-.01-.89-.23-1.77-.28-2.66-.05-1.1-.24-2.19-.31-3.28-.01-.46-.07-1.2-.72-1.06h0ZM461.21,383.95l.31.03.03.38.03.37-.41.13c-.13.04-.27.07-.41.09-.06-.04-.13-.08-.19-.13-.22-.16-.16-.38.12-.69.16-.17.24-.2.5-.19h0ZM431.25,374.67c-.38.13-.86.69-1.25.69-.88.06-.76.92-.13,1.22.08.26,0,.59.03.88.12.79-.38,1.42-.28,2.22-.04.87-.31,1.72-.34,2.59-.25.9-.25,1.83-.41,2.75-.1.82-.7.53-1.22.31,0-.36-.03-.71-.03-1.06.22-.82-.44-1.06-1.09-1.16-.69.06-1.02-.52-.88-1.13.29-.35,1.04-.25,1.5-.31.98.2.94-1.11.44-1.56-.34-.64-1.2-.91-1.44-1.56.1-.87-.48-1.73-1.19-2.16-1.09-.08-1.91.86-2.31,1.78-.45.13-.9.27-1.34.44-.71.18-1.72,1.41-.75,1.88.54.15,2.2.53,1.47,1.28-.41.71-1.2.72-1.91.53-.72,0-1.53-.35-1.5-1.19-.15-.75-.12-1.56-.47-2.25-.15-.84-1.1-.64-1.16.12-.73.53-.64,1.4-.12,2.03.32.73,0,1.58-.31,2.25-.19.88-1.16.9-1.84,1.19-.34.13-1.63-.08-1.16.66.75.27,1.65.5,2.44.31.82-.1,1.54-.66,1.94-1.37.55-.56,1.5-.27,2.22-.28.77,0,1.56.54,2.31.19.22-.56,1.22-1.5,1.53-.53-.05.86.71,1.33,1.5,1.22.86-.05.54.61.53,1.12.06.93.66,1.42,1.44,1.81.27.07.54.05.81,0,.75-.24,1.55-.57,1.78-1.41.3-.68.31-1.45.53-2.16.18-1.13.41-2.26.44-3.41.28-1.04.2-2.14.41-3.19.13-.78.23-1.56.31-2.34-.09-.42-.27-.49-.5-.41h0ZM424.47,378.83c.15.02.24.2.25.53.02.36.21.66.44.72.18.05.17.24-.03.38-.12.08-.32.13-.69.12-.58,0-.94-.15-1.25-.47l-.19-.19.28-.19c.2-.16.38-.32.56-.5.28-.29.47-.42.62-.41ZM490.5,370.95c-.56.03-1.11.11-1.66.25-1.04-.06-1.56,1.03-.56,1.56.6,1.53,1.54-.32,2.5-.19,1.44.28,1.56,1.83,1.78,3,.08,1.16.41,2.28.75,3.38.96,1.07-.72,1.74-1.44.91-.61-.66-1.92-1.48-2.66-.56-.9.38-.94,1.59-1.69,1.94-1.21.37-1.36-1.12-2-1.75-.59-.82-1.71-.9-2.63-1.19-.43-.87-.21-2.35-1.09-2.94-.75.3-2.11,1.7-.97,2.34,1.12.96-.49,1.4-1,2.06-.73.81-.85,1.94-.97,2.97-1.26.7-1.5-.79-1.66-1.72-.1-1.11-1.04-.79-1.69-.38-.95.39-1.43,1.29-2.09,2-.08.65.04,1.36.03,2.03.22.81,1.2.43,1.81.37.98-.41,1.38.63.59,1.22-.53.68-2.22.32-2.06,1.41.54.06,1.11.04,1.66,0,1.09-.3,2.26-1.07,2.38-2.28.14-1.06,1.67-.87,2.5-1.09,1.04-.3,2.29-.38,2.53.94.71.74,2.25,1.58,3.03.56.79-.49,1.18-1.34,1.12-2.25-.16-.78,1.27-.81,1.62-.38.52.86,2.15.6,2.94.13.84-.62,1.02-1.71,2.22-1.72,1.78-.53,3.63-.84,5.38-1.5,1.41-.31-.21-1.2-.56-1.72-1.07-.53-2.01,1.64-3.22.56-.94-.72-.87-2.08-1.22-3.13-.24-1.36-.18-2.92-1.16-4-.67-.71-1.59-.89-2.53-.84h0ZM483.69,380.42c.13,0,.27.06.5.19.44.24.75.64.75.97,0,.21-.05.23-.37.38-.2.09-.42.19-.5.19-.18,0-.62-.36-.62-.5,0-.06-.06-.29-.13-.47-.12-.32-.1-.32.06-.53.1-.14.19-.22.31-.22h0ZM490.22,380.76c.37-.02.59.09.75.38.18.33.06.58-.41.78-.2.09-.41.16-.44.16s-.2-.1-.38-.22c-.27-.18-.31-.26-.31-.47,0-.32.35-.6.78-.63h0ZM481.28,380.86c.11-.02.21.04.34.16.18.15.24.28.28.59.03.22.03.5,0,.62-.05.23-.05.22-.56.22-.64,0-.7-.06-.69-.66,0-.38.01-.48.22-.69.16-.16.3-.23.41-.25h0ZM475.78,382.3c.2.05.39.2.44.44.07.32,0,.46-.25.59-.22.11-.73.15-.88.06-.05-.03-.14-.1-.19-.19-.07-.12-.06-.18.03-.25.06-.05.13-.12.12-.16s.07-.16.16-.28c.15-.19.36-.27.56-.22h0ZM485.03,383.48c.18,0,.33.06.44.16.19.16.18.4-.03.56-.14.1-.87.09-1.12,0-.11-.04-.16-.1-.16-.22,0-.14.04-.23.28-.34.2-.1.42-.16.59-.16h0ZM467.86,388.3c-.1-.06-.24-.12-.09-.22.17-.3.52-.41.82-.52.55-.24,1.02-.64,1.37-1.12.05-.33.42-.51.42-.86,0-.48.03-.96-.08-1.43-.13-.43-.45-.75-.83-.97-.26-.2-.67-.26-.77-.61-.05-.34.25-.6.36-.91.22-.42.41-.86.65-1.28.26-.29.66-.02.79.26.19.28.36.58.45.9.3.33.57.72.68,1.16.15.31.38.6.37.97,0,.42.23.79.22,1.21.01.56.01,1.14-.19,1.67-.14.29-.42.47-.61.73-.32.3-.67.58-1.08.74-.29.09-.46.43-.82.34-.51,0-1.04.08-1.55,0,.03.05-.16-.09-.12-.06h0ZM461.01,388.75c-.24-.25-.3-.36-.3-.6,0-.25.04-.35.28-.59.44-.44.65-.45,1.41-.07.72.37.97.4,1.03.14.06-.25.48-.48.87-.48.25,0,.39.05.59.2.25.2.26.23.27.68,0,.46,0,.48-.29.74-.28.24-.32.26-.67.22-.44-.04-.7-.24-.77-.59-.05-.25-.14-.31-.21-.14-.02.05-.13.12-.24.15-.2.05-.55.27-.79.5-.09.09-.26.13-.52.13-.36,0-.41-.02-.68-.3h0ZM441.19,379.85c-.66,0-1.38.57-1.47,1.22.15.75.78,1.49.38,2.28.28,1.01-.76,1.4-1.47.81-.43-.97-.64-2.04-1.28-2.91-.8-.23-1.15,1.06-1.72,1.5.28.76,1.1,1.43,1.19,2.38.2.91-.36,1.93-1.16,2.41-.69.65-1.63.42-2.47.56-1.02.6.75.82,1.22.84,1.05.11,2.14-.03,2.91-.81.77-.37.71-1.7,1.63-1.84,1.59-.07,3.16.24,4.75.28.85.2,2.16-.1,2.75.53,0,1.11.94,1.79,1.84,2.22.5.14,1.02-.48,1.53-.59.97-.31.67-1.5,1.25-1.97,1.65-.09,3.32-.07,4.97-.09.31,0,.41-.44.63-.62-.04-.64-.06-1.27-.16-1.91-.32-.81.05-1.84-.53-2.53-.83-.23-1.54.53-2.38.59-.93.41-1.71,1.27-1.75,2.31-.55.9-1.43-.16-1.13-.91-.03-.33.07-.7-.03-1-.51-.61-1.39-.41-2.09-.5-1.02.04-2.01-.18-3.03-.16-.89-.07-1.82.08-2.69-.16-1.03-.03-.89-1.04-1.06-1.75-.18-.14-.4-.19-.62-.19ZM443.19,383.54c.34,0,.67.05,1,.09.43.07.89-.15,1.31,0,.98.17,1.95.13,2.94.22.26,0,.45.18.62.34v2.06c-.03.26.08.6-.16.78-.07.05-.16.11-.25.12-.27-.07-.56-.25-.69-.5-.04-.36.02-.7.03-1.06,0-.09.04-.24,0-.31-.21-.15-.45-.25-.72-.25-.85-.03-1.68-.09-2.53-.12-.71-.04-1.43.06-2.12-.12-.27-.1-.62-.06-.78-.34-.23-.27.1-.6.34-.72.32-.14.66-.19,1-.19h0ZM454.47,383.79c.16,0,.21.05.28.34l.12.5c.04.12-.02.16-.19.22-.49.19-.99.17-1.16-.06-.08-.1.01-.43.16-.56.29-.26.61-.44.78-.44h0Z"/><path class="cls-8" d="M462.31,253.1c.67.04-.9-3.57-.9-3.57,1.77,1.8,8.43,2.24,8.43,2.24-4-1.77-8-15.1-7.53-25.72.43-10.66-1.53-14.86-3.1-16.43-2-2-8.43-3.76-12.66-4-2.39-.12-2,1.8-2,1.8-4.43-1.14-8.86-1.57-10.86-.24-1.88,1.26-2.28,7.53-.9,6.43,3.33-2.67,6.23-.24,8.23,2.67,1.76,2.55,1.65,9.76-.9,18.19-2.67,8.86-9.96,17.72-9.96,17.72,3.96,0,9.53-3.53,9.53-3.53l-1.33,5.53c4.2-2,7.53-5.1,7.53-5.1l4,4.2c1.33-1.76,4-4.2,4-4.2,0,0,3.33,3.53,8.43,4h0Z"/><path class="cls-11" d="M446.12,227.58s-2.24,16.43-6.43,21.09M449.65,227.15s-.86,16.62-3.76,21.96M452.78,227.82s0,18.19,1.1,21.29M456.74,228.72s.9,15.29,4.67,20.82"/><path class="cls-5" d="M442.08,219.62c-.2-1.45-.55-2.59-1.06-3.33-2-2.9-4.9-5.33-8.23-2.67,0,0,1.14-3.53,3.57-3.65,1.88-.12,6.16,1.41,9.92,7.84,0,0-2.78-.63-3.45-.04-1.26,1.1-.75,1.84-.75,1.84h0ZM432.44,209.27c.27-.9.71-1.73,1.26-2.08,2-1.33,6.43-.9,10.86.24,0,0-.39-1.92,2-1.8,4.23.24,10.66,2,12.66,4,.47.51,1.02,1.26,1.49,2.39h-.08c-.98-1.37-3.76-1.29-4.43-1.22-1.06.12-1.73.08-3.14.43-.67.16-1.69.35-2.24.78-.43.35-.78,1.65-1.45,1.65-1.06,0-.98-.27-1.26-.59-.35-.43-.55-1.06-.9-1.02-1.1.2-2.86-.67-5.1-2.43s-3.1-2.2-6-2c-2.86.24-3.76,1.84-3.76,1.84l.08-.2Z"/><circle class="cls-14" cx="448.82" cy="210.68" r="1.18"/><path class="cls-3" d="M449.98,327.24c32.64-25.11,29.84-61.89,29.84-61.89-.86.17-1.68.26-2.54.26-6.85,0-23.18-3.92-26.99-8.89-4.08,4.5-20.77,8.89-27.57,8.89-.86,0-1.72-.09-2.54-.26,0,0-2.84,36.78,29.8,61.89h0Z"/><path class="cls-6" d="M477.22,268.05l-.85.03c-6.21,0-20.62-3.18-26.18-7.96-5.82,4.41-20.47,7.96-26.58,7.96-.29,0-.57-.03-.85-.09-.01,1.39.06,2.83.14,4.14.32,4.9,1.18,9.82,2.49,14.55,4.11,14.9,12.52,27.55,24.57,37.16,12.07-9.61,20.48-22.28,24.6-37.19,1.31-4.73,2.17-9.65,2.5-14.55.08-1.37.15-3.05.15-4.05h0Z"/><g class="cls-15"><path id="B" class="cls-17" d="M422.61,259.77h18.26v64.31h-18.26v-64.31Z"/><path class="cls-13" d="M440.87,259.77h18.26v64.31h-18.26v-64.31Z"/><path class="cls-17" d="M459.13,259.77h18.26v64.31h-18.26v-64.31Z"/></g></svg>