<?xml version="1.0" encoding="UTF-8"?><svg id="_色修正" xmlns="http://www.w3.org/2000/svg" viewBox="0 0 900 600"><defs><style>.cls-1{fill:#e50012;}.cls-1,.cls-2,.cls-3{stroke-width:0px;}.cls-2{fill:#fff000;}.cls-3{fill:#008c3c;}</style></defs><rect class="cls-3" width="300" height="600"/><rect class="cls-2" x="300" width="300" height="600"/><rect class="cls-1" x="600" width="300" height="600"/><g id="c"><path id="t" class="cls-3" d="M450,200l-30.9,95.11,47.55,15.45-16.65-110.56Z"/><path id="t-2" class="cls-3" d="M450,200l30.9,95.11-47.55,15.45,16.65-110.56Z"/></g><g id="c-2"><path id="t-3" class="cls-3" d="M545.11,269.1h-100v50l100-50Z"/><path id="t-4" class="cls-3" d="M545.11,269.1l-80.9,58.78-29.39-40.45,110.29-18.33Z"/></g><g id="c-3"><path id="t-5" class="cls-3" d="M508.78,380.9l-30.9-95.11-47.55,15.45,78.45,79.65Z"/><path id="t-6" class="cls-3" d="M508.78,380.9l-80.9-58.78,29.39-40.45,51.51,99.23Z"/></g><g id="c-4"><path id="t-7" class="cls-3" d="M391.22,380.9l80.9-58.78-29.39-40.45-51.51,99.23Z"/><path id="t-8" class="cls-3" d="M391.22,380.9l30.9-95.11,47.55,15.45-78.45,79.65Z"/></g><g id="c-5"><path id="t-9" class="cls-3" d="M354.89,269.1l80.9,58.78,29.39-40.45-110.29-18.33Z"/><path id="t-10" class="cls-3" d="M354.89,269.1h100v50l-100-50Z"/></g></svg>