<?xml version="1.0" encoding="UTF-8"?><svg id="_色修正" xmlns="http://www.w3.org/2000/svg" viewBox="0 0 900 600"><defs><style>.cls-1{stroke-miterlimit:4;stroke-width:1.48px;}.cls-1,.cls-2,.cls-3,.cls-4{fill:#eaad20;stroke:#80351f;}.cls-2{stroke-miterlimit:4;stroke-width:1.48px;}.cls-3{stroke-width:1.48px;}.cls-4{stroke-width:1.99px;}.cls-5{fill:#4cabe1;}.cls-5,.cls-6,.cls-7,.cls-8{stroke-width:0px;}.cls-6{fill:#80361f;}.cls-7{fill:#80351f;}.cls-8{fill:#fff;}</style></defs><rect class="cls-5" width="900" height="600"/><rect class="cls-8" y="200" width="900" height="200"/><g id="rays"><path id="ray1" class="cls-3" d="M448.07,301.23l37.81,82.37s.65,1.57,1.7,1.14c1.05-.43.4-2.01.4-2.01l-31.51-84.98M455.56,329.8c-.46,12.53,7.24,19.42,6.24,30.6-1.01,11.19,5.14,17.51,6.56,21.86,1.43,4.35-1.54,6.95-.26,7.57,1.28.62,4.08-2.82,3.17-9-.91-6.19-5.61-8.02-4.5-21.68,1.1-13.66-5.59-16.85-3.96-29.31"/><path id="ray1-2" class="cls-2" d="M447.73,299.49l3.41,90.57s0,1.7,1.13,1.7c1.14,0,1.14-1.7,1.14-1.7l3.41-90.57M443.71,328.75c-5.22,11.4-.74,20.71-5.95,30.66-5.21,9.95-1.95,18.15-2.3,22.71-.35,4.57-4.08,5.83-3.14,6.89.95,1.06,4.85-1.04,6.37-7.11,1.52-6.06-2.11-9.56,4.14-21.76,6.25-12.2,1.28-17.7,7.56-28.59"/><path id="ray1-3" class="cls-1" d="M448.07,297.75l-31.51,84.98s-.65,1.57.4,2.01c1.05.44,1.7-1.14,1.7-1.14l37.81-82.37M433.17,323.25c-9.18,8.53-8.61,18.85-17.23,26.05-8.62,7.2-8.75,16.02-10.82,20.1-2.07,4.08-6.01,3.83-5.54,5.17.47,1.34,4.88.89,8.61-4.13,3.73-5.02,1.71-9.64,12.15-18.52,10.44-8.88,7.96-15.86,17.92-23.52"/><path id="ray1-4" class="cls-2" d="M449.06,296.28l-61.63,66.45s-1.21,1.2-.4,2.01c.8.8,2.01-.4,2.01-.4l66.45-61.63M425.53,314.13c-11.75,4.37-15.17,14.12-25.89,17.47-10.72,3.35-14.21,11.45-17.69,14.43-3.47,2.98-7.01,1.24-7.1,2.65-.08,1.42,4.16,2.69,9.53-.52,5.37-3.21,5.26-8.25,18.31-12.46,13.05-4.21,13.42-11.61,25.56-14.87"/><path id="ray2" class="cls-7" d="M458,331.92c.6,12.03,7.42,17.36,6.08,28.32,2.94-8.67-4.15-15.39-3.75-28.2M450.17,300.48l25.89,56.57-21.7-58.31"/><path id="ray2-2" class="cls-7" d="M445.15,331.65c-4.05,11.34.22,18.88-5.22,28.49,6.03-6.88,2.06-15.81,7.33-27.48M449.95,299.6l2.27,62.18,2.27-62.18"/><path id="ray2-3" class="cls-7" d="M433.39,326.47c-8.08,8.93-7.02,17.52-15.72,24.33,8.21-4.05,7.95-13.82,17.29-22.59M450.09,298.71l-21.69,58.31,25.89-56.58"/><path id="ray2-4" class="cls-7" d="M424.5,317.19c-10.88,5.16-13.2,13.5-23.84,16.46,9.14-.6,12.63-9.72,24.62-14.25M450.55,297.93l-42.36,45.57,45.57-42.36"/></g><g id="rays-2"><path id="ray1-5" class="cls-3" d="M450.53,295.29l-82.37,37.81s-1.57.65-1.14,1.7c.43,1.05,2.01.4,2.01.4l84.98-31.51M421.96,302.78c-12.53-.46-19.42,7.24-30.6,6.24-11.19-1.01-17.51,5.14-21.86,6.56-4.35,1.43-6.95-1.54-7.57-.26-.62,1.28,2.82,4.08,9,3.17,6.19-.91,8.02-5.61,21.68-4.5,13.66,1.1,16.85-5.59,29.31-3.96"/><path id="ray1-6" class="cls-2" d="M452.27,294.94l-90.57,3.41s-1.7,0-1.7,1.13c0,1.14,1.7,1.14,1.7,1.14l90.57,3.41M423.01,290.93c-11.4-5.22-20.71-.74-30.66-5.95-9.95-5.21-18.15-1.95-22.71-2.3-4.57-.35-5.83-4.08-6.89-3.14-1.06.95,1.04,4.85,7.11,6.37,6.06,1.52,9.56-2.11,21.76,4.14,12.2,6.25,17.7,1.28,28.59,7.56"/><path id="ray1-7" class="cls-1" d="M454.01,295.29l-84.98-31.51s-1.57-.65-2.01.4c-.44,1.05,1.14,1.7,1.14,1.7l82.37,37.81M428.51,280.38c-8.53-9.18-18.85-8.61-26.05-17.23-7.2-8.62-16.02-8.75-20.1-10.82-4.08-2.07-3.83-6.01-5.17-5.54-1.34.47-.89,4.88,4.13,8.61,5.02,3.73,9.64,1.71,18.52,12.15,8.88,10.44,15.86,7.96,23.52,17.92"/><path id="ray1-8" class="cls-2" d="M455.48,296.27l-66.45-61.63s-1.2-1.21-2.01-.4c-.8.8.4,2.01.4,2.01l61.63,66.45M437.63,272.74c-4.37-11.75-14.12-15.17-17.47-25.89-3.35-10.72-11.45-14.21-14.43-17.69-2.98-3.47-1.24-7.01-2.65-7.1-1.42-.08-2.69,4.16.52,9.53,3.21,5.37,8.25,5.26,12.46,18.31,4.21,13.05,11.61,13.42,14.87,25.56"/><path id="ray2-5" class="cls-7" d="M419.84,305.22c-12.03.6-17.36,7.42-28.32,6.08,8.67,2.94,15.39-4.15,28.2-3.75M451.28,297.39l-56.57,25.89,58.31-21.7"/><path id="ray2-6" class="cls-7" d="M420.11,292.37c-11.34-4.05-18.88.22-28.49-5.22,6.88,6.03,15.81,2.06,27.48,7.33M452.16,297.17l-62.18,2.27,62.18,2.27"/><path id="ray2-7" class="cls-7" d="M425.29,280.6c-8.93-8.08-17.52-7.02-24.33-15.72,4.05,8.21,13.82,7.95,22.59,17.29M453.05,297.3l-58.31-21.69,56.58,25.89"/><path id="ray2-8" class="cls-7" d="M434.57,271.72c-5.16-10.88-13.5-13.2-16.46-23.84.6,9.14,9.72,12.63,14.25,24.62M453.83,297.77l-45.57-42.36,42.36,45.57"/></g><g id="rays-3"><path id="ray1-9" class="cls-3" d="M456.47,297.75l-37.81-82.37s-.65-1.57-1.7-1.14c-1.05.43-.4,2.01-.4,2.01l31.51,84.98M448.98,269.18c.46-12.53-7.24-19.42-6.24-30.6,1.01-11.19-5.14-17.51-6.56-21.86-1.43-4.35,1.54-6.95.26-7.57-1.28-.62-4.08,2.82-3.17,9,.91,6.19,5.61,8.02,4.5,21.68-1.1,13.66,5.59,16.85,3.96,29.31"/><path id="ray1-10" class="cls-2" d="M456.82,299.49l-3.41-90.57s0-1.7-1.13-1.7c-1.14,0-1.14,1.7-1.14,1.7l-3.41,90.57M460.83,270.22c5.22-11.4.74-20.71,5.95-30.66,5.21-9.95,1.95-18.15,2.3-22.71.35-4.57,4.08-5.83,3.14-6.89-.95-1.06-4.85,1.04-6.37,7.11-1.52,6.06,2.11,9.56-4.14,21.76-6.25,12.2-1.28,17.7-7.56,28.59"/><path id="ray1-11" class="cls-1" d="M456.47,301.23l31.51-84.98s.65-1.57-.4-2.01c-1.05-.44-1.7,1.14-1.7,1.14l-37.81,82.37M471.38,275.73c9.18-8.53,8.61-18.85,17.23-26.05,8.62-7.2,8.75-16.02,10.82-20.1,2.07-4.08,6.01-3.83,5.54-5.17-.47-1.34-4.88-.89-8.61,4.13-3.73,5.02-1.71,9.64-12.15,18.52-10.44,8.88-7.96,15.86-17.92,23.52"/><path id="ray1-12" class="cls-2" d="M455.49,302.7l61.63-66.45s1.21-1.2.4-2.01c-.8-.8-2.01.4-2.01.4l-66.45,61.63M479.02,284.85c11.75-4.37,15.17-14.12,25.89-17.47,10.72-3.35,14.21-11.45,17.69-14.43,3.47-2.98,7.01-1.24,7.1-2.65.08-1.42-4.16-2.69-9.53.52-5.37,3.21-5.26,8.25-18.31,12.46-13.05,4.21-13.42,11.61-25.56,14.87"/><path id="ray2-9" class="cls-7" d="M446.54,267.05c-.6-12.03-7.42-17.36-6.08-28.32-2.94,8.67,4.15,15.39,3.75,28.2M454.37,298.5l-25.89-56.57,21.7,58.31"/><path id="ray2-10" class="cls-7" d="M459.39,267.33c4.05-11.34-.22-18.88,5.22-28.49-6.03,6.88-2.06,15.81-7.33,27.48M454.59,299.38l-2.27-62.18-2.27,62.18"/><path id="ray2-11" class="cls-7" d="M471.16,272.51c8.08-8.93,7.02-17.52,15.72-24.33-8.21,4.05-7.95,13.82-17.29,22.59M454.46,300.27l21.69-58.31-25.89,56.58"/><path id="ray2-12" class="cls-7" d="M480.05,281.79c10.88-5.16,13.2-13.5,23.84-16.46-9.14.6-12.63,9.72-24.62,14.25M453.99,301.05l42.36-45.57-45.57,42.36"/></g><g id="rays-4"><path id="ray1-13" class="cls-3" d="M454.01,303.69l82.37-37.81s1.57-.65,1.14-1.7c-.43-1.05-2.01-.4-2.01-.4l-84.98,31.51M482.58,296.2c12.53.46,19.42-7.24,30.6-6.24,11.19,1.01,17.51-5.14,21.86-6.56,4.35-1.43,6.95,1.54,7.57.26.62-1.28-2.82-4.08-9-3.17-6.19.91-8.02,5.61-21.68,4.5-13.66-1.1-16.85,5.59-29.31,3.96"/><path id="ray1-14" class="cls-2" d="M452.27,304.03l90.57-3.41s1.7,0,1.7-1.13c0-1.14-1.7-1.14-1.7-1.14l-90.57-3.41M481.54,308.05c11.4,5.22,20.71.74,30.66,5.95,9.95,5.21,18.15,1.95,22.71,2.3,4.57.35,5.83,4.08,6.89,3.14,1.06-.95-1.04-4.85-7.11-6.37-6.06-1.52-9.56,2.11-21.76-4.14-12.2-6.25-17.7-1.28-28.59-7.56"/><path id="ray1-15" class="cls-1" d="M450.53,303.69l84.98,31.51s1.57.65,2.01-.4c.44-1.05-1.14-1.7-1.14-1.7l-82.37-37.81M476.03,318.59c8.53,9.18,18.85,8.61,26.05,17.23,7.2,8.62,16.02,8.75,20.1,10.82,4.08,2.07,3.83,6.01,5.17,5.54,1.34-.47.89-4.88-4.13-8.61-5.02-3.73-9.64-1.71-18.52-12.15-8.88-10.44-15.86-7.96-23.52-17.92"/><path id="ray1-16" class="cls-2" d="M449.06,302.7l66.45,61.63s1.2,1.21,2.01.4c.8-.8-.4-2.01-.4-2.01l-61.63-66.45M466.91,326.23c4.37,11.75,14.12,15.17,17.47,25.89,3.35,10.72,11.45,14.21,14.43,17.69,2.98,3.47,1.24,7.01,2.65,7.1,1.42.08,2.69-4.16-.52-9.53-3.21-5.37-8.25-5.26-12.46-18.31-4.21-13.05-11.61-13.42-14.87-25.56"/><path id="ray2-13" class="cls-7" d="M484.71,293.76c12.03-.6,17.36-7.42,28.32-6.08-8.67-2.94-15.39,4.15-28.2,3.75M453.26,301.59l56.57-25.89-58.31,21.7"/><path id="ray2-14" class="cls-7" d="M484.43,306.61c11.34,4.05,18.88-.22,28.49,5.22-6.88-6.03-15.81-2.06-27.48-7.33M452.39,301.81l62.18-2.27-62.18-2.27"/><path id="ray2-15" class="cls-7" d="M479.26,318.37c8.93,8.08,17.52,7.02,24.33,15.72-4.05-8.21-13.82-7.95-22.59-17.29M451.49,301.68l58.31,21.69-56.58-25.89"/><path id="ray2-16" class="cls-7" d="M469.97,327.26c5.16,10.88,13.5,13.2,16.46,23.84-.6-9.14-9.72-12.63-14.25-24.62M450.71,301.21l45.57,42.36-42.36-45.57"/></g><circle class="cls-4" cx="452.27" cy="299.49" r="36.91"/><path id="loweyecontour" class="cls-6" d="M464.85,291.6c-2.52,0-4.93,1.09-6.35,3.36,2.84,2.55,9.11,2.83,13.37-.29-1.84-1.99-4.5-3.07-7.02-3.07h0ZM464.81,292.18c2.45-.04,4.75,1.08,5.07,2.2-2.84,3.12-7.38,2.85-10.21.58,1.24-1.99,3.24-2.75,5.15-2.78h0Z"/><path id="uppalpebra" class="cls-7" d="M465.33,289.84c-3.69,0-4.54.85-6.25,2.27-1.71,1.42-2.56,1.13-2.84,1.42-.28.28,0,1.13.57.85s1.71-.85,3.41-2.27c1.71-1.42,3.41-1.42,5.11-1.42,5.11,0,7.95,4.26,8.52,3.97.57-.28-2.84-4.83-8.52-4.83h0Z"/><path id="eyebrow_nose" class="cls-7" d="M475.55,291.54c-6.53-5.68-14.76-6.53-19.31-2.27-1.11,1.49-1.82,3.08-2.12,4.74-.57,3.23.44,6.73,2.97,10.31-.29,0-.86.28-1.14.57-2.25-4.31-3.05-8.74-2.31-12.95.19-1.1.5-2.18.89-3.24,6.25-5.11,14.76-5.68,21.01,2.84h0Z"/><circle id="pupil" class="cls-7" cx="464.76" cy="294.37" r="2.56"/><path id="lowpalpebra" class="cls-7" d="M472.15,296.09c-4.83,3.69-9.65,3.41-12.49,1.7-2.84-1.7-2.84-2.27-2.27-2.27s1.13.57,3.41,1.7c2.27,1.14,5.68,1.14,11.36-1.13h0Z"/><path class="cls-7" d="M446.62,304.59c-1.21.22-2.08,1.3-2.08,2.53,0,1.41,1.17,2.53,2.57,2.53.83,0,1.6-.39,2.08-1.08.98.74,2.34.82,3.07.83.11,0,.26,0,.33,0,.73-.01,2.09-.09,3.07-.83.48.69,1.24,1.08,2.08,1.08,1.41,0,2.57-1.12,2.57-2.53,0-1.23-.86-2.31-2.08-2.53.68.24,1.12.9,1.12,1.62,0,.94-.76,1.7-1.7,1.7s-1.65-.72-1.7-1.62c-.28.55-1.37,2.2-3.53,2.28-2.16-.08-3.25-1.73-3.53-2.28-.05.9-.8,1.62-1.7,1.62s-1.7-.76-1.7-1.7c0-.72.44-1.38,1.12-1.62h0Z"/><path class="cls-7" d="M449.4,312.15c-2.84,0-3.96,2.57-6.52,4.28,1.42-.57,2.54-1.69,4.53-2.82,1.99-1.14,3.68.25,4.82.25h.04c1.13,0,2.83-1.38,4.82-.25,1.99,1.14,3.15,2.26,4.57,2.82-2.56-1.7-3.72-4.28-6.56-4.28-.57,0-1.69.31-2.82.87h-.04c-1.13-.57-2.26-.87-2.82-.87Z"/><path class="cls-7" d="M448.44,315.51c-1.12.05-2.6.27-4.73.91,5.11-1.14,6.24.58,8.51.58h.04c2.27,0,3.4-1.72,8.51-.58-5.68-1.7-6.81-.58-8.51-.58h-.04c-1.06,0-1.91-.42-3.78-.33h0Z"/><path class="cls-7" d="M443.97,316.39c-.33,0-.69,0-1.08.04,5.96.57,3.1,3.99,9.34,3.99h.04c6.25,0,3.42-3.42,9.38-3.99-6.25-.57-4.27,3.11-9.38,3.11h-.04c-4.79,0-3.32-3.22-8.26-3.16h0Z"/><path class="cls-7" d="M457.39,325.61c0-2.82-2.29-5.11-5.11-5.11s-5.11,2.29-5.11,5.11c.56-2.37,2.68-4.04,5.11-4.04s4.55,1.67,5.11,4.04h0Z"/><path id="eyebrow_nose-2" class="cls-7" d="M429.32,291.54c6.53-5.68,14.76-6.53,19.31-2.27,1.11,1.49,1.82,3.08,2.12,4.74.57,3.23-.44,6.73-2.97,10.31.29,0,.86.28,1.14.57,2.25-4.31,3.05-8.74,2.31-12.95-.19-1.1-.5-2.18-.89-3.24-6.25-5.11-14.76-5.68-21.01,2.84h0Z"/><path id="uppalpebra-2" class="cls-7" d="M439.54,289.84c3.69,0,4.54.85,6.25,2.27,1.71,1.42,2.56,1.13,2.84,1.42.28.28,0,1.13-.57.85s-1.71-.85-3.41-2.27c-1.71-1.42-3.41-1.42-5.11-1.42-5.11,0-7.95,4.26-8.52,3.97-.57-.28,2.84-4.83,8.52-4.83h0Z"/><path id="loweyecontour-2" class="cls-6" d="M439.37,291.6c-2.52,0-4.93,1.09-6.35,3.36,2.84,2.55,9.11,2.83,13.37-.29-1.84-1.99-4.5-3.07-7.02-3.07h0ZM439.33,292.18c2.45-.04,4.75,1.08,5.07,2.2-2.84,3.12-7.38,2.85-10.21.58,1.24-1.99,3.24-2.75,5.15-2.78h0Z"/><circle id="pupil-2" class="cls-7" cx="439.7" cy="294.37" r="2.56"/><path id="lowpalpebra-2" class="cls-7" d="M432.73,296.09c4.83,3.69,9.65,3.41,12.49,1.7,2.84-1.7,2.84-2.27,2.27-2.27s-1.13.57-3.41,1.7c-2.27,1.14-5.68,1.14-11.36-1.13h0Z"/></svg>