<?xml version="1.0" encoding="UTF-8"?><svg id="_色修正" xmlns="http://www.w3.org/2000/svg" xmlns:xlink="http://www.w3.org/1999/xlink" viewBox="0 0 900 600"><defs><style>.cls-1{clip-path:url(#clippath);}.cls-2{fill:none;}.cls-2,.cls-3,.cls-4,.cls-5{stroke-width:0px;}.cls-6{stroke:#d61518;stroke-width:150px;}.cls-6,.cls-7{fill:#231815;stroke-miterlimit:40;}.cls-7{stroke:#fff;stroke-width:200px;}.cls-3{fill:#fcd005;}.cls-4{fill:#004da0;}.cls-5{fill:#009844;}</style><clipPath id="clippath"><rect class="cls-2" y="0" width="900" height="600"/></clipPath></defs><path class="cls-4" d="M900,0H0v600L900,0Z"/><path class="cls-5" d="M0,600h900V0L0,600Z"/><g class="cls-1"><path class="cls-7" d="M0,600L900,0"/><path class="cls-6" d="M0,600L900,0"/></g><path class="cls-3" d="M122.05,147.87v.02s0,.02,0,.02c0-.01,0-.02,0-.03Z"/><path class="cls-3" d="M137.51,205.74l.06.1.1.06c-.05-.05-.11-.11-.16-.16Z"/><path class="cls-3" d="M122.04,178.93v.03s0-.02,0-.03Z"/><path class="cls-3" d="M137.68,120.93l-.1.06-.06.1c.05-.05.11-.11.16-.16Z"/><path class="cls-3" d="M237.96,147.9v-.03s0,.02,0,.03Z"/><path class="cls-3" d="M164.49,105.46h-.04s.02,0,.04,0Z"/><path class="cls-3" d="M237.95,178.96v-.02s0-.02,0-.02c0,.01,0,.02,0,.03Z"/><path class="cls-3" d="M195.55,105.47h-.02s-.02-.01-.02-.01c.01,0,.02,0,.04.01Z"/><path class="cls-3" d="M164.46,221.36h.02s.02,0,.02,0c-.01,0-.02,0-.03,0Z"/><path class="cls-3" d="M195.51,221.37h.03s-.02,0-.03,0Z"/><path class="cls-3" d="M180,223.42c-5.36,0-10.56-.72-15.51-2.04h-.02l15.53,42.04,15.53-42.04h-.02c-4.95,1.33-10.15,2.04-15.51,2.04Z"/><path class="cls-3" d="M120,163.42c0-5.36.72-10.56,2.04-15.51v-.02l-42.04,15.53,42.04,15.53v-.02c-1.33-4.95-2.04-10.15-2.04-15.51Z"/><path class="cls-3" d="M180,103.42c5.36,0,10.56.72,15.51,2.04h.02l-15.53-42.04-15.53,42.04h.02c4.95-1.33,10.15-2.04,15.51-2.04Z"/><path class="cls-3" d="M240,163.42c0,5.36-.72,10.56-2.04,15.51v.02l42.04-15.53-42.04-15.53v.02c1.33,4.95,2.04,10.15,2.04,15.51Z"/><path class="cls-3" d="M137.68,205.9l-.1-.06-7.57,44.18,34.47-28.65h-.02c-10.27-2.77-19.46-8.18-26.78-15.47Z"/><path class="cls-3" d="M137.51,121.09l.06-.1-44.18-7.57,28.65,34.47v-.02c2.77-10.27,8.18-19.46,15.47-26.78Z"/><path class="cls-3" d="M222.32,120.93l.1.06,7.57-44.18-34.47,28.65h.02c10.27,2.77,19.46,8.18,26.78,15.47Z"/><path class="cls-3" d="M266.6,213.41l-28.65-34.47v.02c-2.77,10.27-8.18,19.46-15.47,26.78l-.06.1,44.18,7.57Z"/><path class="cls-3" d="M122.05,178.96v-.02s-28.66,34.47-28.66,34.47l44.18-7.57-.06-.1c-7.29-7.32-12.7-16.51-15.46-26.78Z"/><path class="cls-3" d="M164.45,105.47h.02s-34.47-28.66-34.47-28.66l7.57,44.18.1-.06c7.32-7.29,16.51-12.7,26.78-15.46Z"/><path class="cls-3" d="M237.96,147.89l28.65-34.47-44.18,7.57.06.1c7.29,7.32,12.7,16.51,15.46,26.78v.02Z"/><path class="cls-3" d="M195.53,221.37l34.47,28.65-7.57-44.18-.1.06c-7.32,7.29-16.51,12.7-26.78,15.46h-.02Z"/><circle class="cls-3" cx="180" cy="163.42" r="50"/></svg>