<?xml version="1.0" encoding="UTF-8"?><svg id="_色修正" xmlns="http://www.w3.org/2000/svg" viewBox="0 0 900 600"><defs><style>.cls-1{fill:#e50012;}.cls-1,.cls-2,.cls-3,.cls-4{stroke-width:0px;}.cls-2{fill:#fff;}.cls-3{fill:#005bab;}.cls-4{fill:#008c3e;}</style></defs><rect class="cls-4" width="900" height="600"/><rect class="cls-3" width="900" height="300"/><rect class="cls-1" y="192" width="900" height="216"/><rect class="cls-2" y="204" width="900" height="192"/><circle class="cls-2" cx="135.66" cy="96" r="72"/><circle class="cls-3" cx="159.66" cy="96" r="72"/><g id="s3"><g id="s"><g id="f"><g id="t"><path id="o" class="cls-2" d="M294.06,139.2l-4.45,13.7,6.85,2.22"/><path id="o-2" class="cls-2" d="M294.06,139.2l4.45,13.7-6.85,2.22"/></g><g id="t-2"><path id="o-3" class="cls-2" d="M307.75,149.15h-14.4v7.2"/><path id="o-4" class="cls-2" d="M307.75,149.15l-11.65,8.46-4.23-5.82"/></g></g><g id="t-3"><path id="o-5" class="cls-2" d="M280.36,149.15l11.65,8.46,4.23-5.82"/><path id="o-6" class="cls-2" d="M280.36,149.15h14.4v7.2"/></g><g id="f-2"><g id="t-4"><path id="o-7" class="cls-2" d="M302.52,165.25l-4.45-13.7-6.85,2.22"/><path id="o-8" class="cls-2" d="M302.52,165.25l-11.65-8.46,4.23-5.82"/></g><g id="t-5"><path id="o-9" class="cls-2" d="M285.59,165.25l11.65-8.46-4.23-5.82"/><path id="o-10" class="cls-2" d="M285.59,165.25l4.45-13.7,6.85,2.22"/></g></g></g><g id="s-2"><g id="f-3"><g id="t-6"><path id="o-11" class="cls-2" d="M294.06,81.6l-4.45,13.7,6.85,2.22"/><path id="o-12" class="cls-2" d="M294.06,81.6l4.45,13.7-6.85,2.22"/></g><g id="t-7"><path id="o-13" class="cls-2" d="M307.75,91.55h-14.4v7.2"/><path id="o-14" class="cls-2" d="M307.75,91.55l-11.65,8.46-4.23-5.82"/></g></g><g id="t-8"><path id="o-15" class="cls-2" d="M280.36,91.55l11.65,8.46,4.23-5.82"/><path id="o-16" class="cls-2" d="M280.36,91.55h14.4v7.2"/></g><g id="f-4"><g id="t-9"><path id="o-17" class="cls-2" d="M302.52,107.65l-4.45-13.7-6.85,2.22"/><path id="o-18" class="cls-2" d="M302.52,107.65l-11.65-8.46,4.23-5.82"/></g><g id="t-10"><path id="o-19" class="cls-2" d="M285.59,107.65l11.65-8.46-4.23-5.82"/><path id="o-20" class="cls-2" d="M285.59,107.65l4.45-13.7,6.85,2.22"/></g></g></g><g id="s-3"><g id="f-5"><g id="t-11"><path id="o-21" class="cls-2" d="M294.06,24l-4.45,13.7,6.85,2.22"/><path id="o-22" class="cls-2" d="M294.06,24l4.45,13.7-6.85,2.22"/></g><g id="t-12"><path id="o-23" class="cls-2" d="M307.75,33.95h-14.4v7.2"/><path id="o-24" class="cls-2" d="M307.75,33.95l-11.65,8.46-4.23-5.82"/></g></g><g id="t-13"><path id="o-25" class="cls-2" d="M280.36,33.95l11.65,8.46,4.23-5.82"/><path id="o-26" class="cls-2" d="M280.36,33.95h14.4v7.2"/></g><g id="f-6"><g id="t-14"><path id="o-27" class="cls-2" d="M302.52,50.05l-4.45-13.7-6.85,2.22"/><path id="o-28" class="cls-2" d="M302.52,50.05l-11.65-8.46,4.23-5.82"/></g><g id="t-15"><path id="o-29" class="cls-2" d="M285.59,50.05l11.65-8.46-4.23-5.82"/><path id="o-30" class="cls-2" d="M285.59,50.05l4.45-13.7,6.85,2.22"/></g></g></g></g><g id="s3-2"><g id="s-4"><g id="f-7"><g id="t-16"><path id="o-31" class="cls-2" d="M351.66,139.2l-4.45,13.7,6.85,2.22"/><path id="o-32" class="cls-2" d="M351.66,139.2l4.45,13.7-6.85,2.22"/></g><g id="t-17"><path id="o-33" class="cls-2" d="M365.35,149.15h-14.4v7.2"/><path id="o-34" class="cls-2" d="M365.35,149.15l-11.65,8.46-4.23-5.82"/></g></g><g id="t-18"><path id="o-35" class="cls-2" d="M337.96,149.15l11.65,8.46,4.23-5.82"/><path id="o-36" class="cls-2" d="M337.96,149.15h14.4v7.2"/></g><g id="f-8"><g id="t-19"><path id="o-37" class="cls-2" d="M360.12,165.25l-4.45-13.7-6.85,2.22"/><path id="o-38" class="cls-2" d="M360.12,165.25l-11.65-8.46,4.23-5.82"/></g><g id="t-20"><path id="o-39" class="cls-2" d="M343.19,165.25l11.65-8.46-4.23-5.82"/><path id="o-40" class="cls-2" d="M343.19,165.25l4.45-13.7,6.85,2.22"/></g></g></g><g id="s-5"><g id="f-9"><g id="t-21"><path id="o-41" class="cls-2" d="M351.66,81.6l-4.45,13.7,6.85,2.22"/><path id="o-42" class="cls-2" d="M351.66,81.6l4.45,13.7-6.85,2.22"/></g><g id="t-22"><path id="o-43" class="cls-2" d="M365.35,91.55h-14.4v7.2"/><path id="o-44" class="cls-2" d="M365.35,91.55l-11.65,8.46-4.23-5.82"/></g></g><g id="t-23"><path id="o-45" class="cls-2" d="M337.96,91.55l11.65,8.46,4.23-5.82"/><path id="o-46" class="cls-2" d="M337.96,91.55h14.4v7.2"/></g><g id="f-10"><g id="t-24"><path id="o-47" class="cls-2" d="M360.12,107.65l-4.45-13.7-6.85,2.22"/><path id="o-48" class="cls-2" d="M360.12,107.65l-11.65-8.46,4.23-5.82"/></g><g id="t-25"><path id="o-49" class="cls-2" d="M343.19,107.65l11.65-8.46-4.23-5.82"/><path id="o-50" class="cls-2" d="M343.19,107.65l4.45-13.7,6.85,2.22"/></g></g></g><g id="s-6"><g id="f-11"><g id="t-26"><path id="o-51" class="cls-2" d="M351.66,24l-4.45,13.7,6.85,2.22"/><path id="o-52" class="cls-2" d="M351.66,24l4.45,13.7-6.85,2.22"/></g><g id="t-27"><path id="o-53" class="cls-2" d="M365.35,33.95h-14.4v7.2"/><path id="o-54" class="cls-2" d="M365.35,33.95l-11.65,8.46-4.23-5.82"/></g></g><g id="t-28"><path id="o-55" class="cls-2" d="M337.96,33.95l11.65,8.46,4.23-5.82"/><path id="o-56" class="cls-2" d="M337.96,33.95h14.4v7.2"/></g><g id="f-12"><g id="t-29"><path id="o-57" class="cls-2" d="M360.12,50.05l-4.45-13.7-6.85,2.22"/><path id="o-58" class="cls-2" d="M360.12,50.05l-11.65-8.46,4.23-5.82"/></g><g id="t-30"><path id="o-59" class="cls-2" d="M343.19,50.05l11.65-8.46-4.23-5.82"/><path id="o-60" class="cls-2" d="M343.19,50.05l4.45-13.7,6.85,2.22"/></g></g></g></g><g id="s3-3"><g id="s-7"><g id="f-13"><g id="t-31"><path id="o-61" class="cls-2" d="M409.26,139.2l-4.45,13.7,6.85,2.22"/><path id="o-62" class="cls-2" d="M409.26,139.2l4.45,13.7-6.85,2.22"/></g><g id="t-32"><path id="o-63" class="cls-2" d="M422.95,149.15h-14.4v7.2"/><path id="o-64" class="cls-2" d="M422.95,149.15l-11.65,8.46-4.23-5.82"/></g></g><g id="t-33"><path id="o-65" class="cls-2" d="M395.56,149.15l11.65,8.46,4.23-5.82"/><path id="o-66" class="cls-2" d="M395.56,149.15h14.4v7.2"/></g><g id="f-14"><g id="t-34"><path id="o-67" class="cls-2" d="M417.72,165.25l-4.45-13.7-6.85,2.22"/><path id="o-68" class="cls-2" d="M417.72,165.25l-11.65-8.46,4.23-5.82"/></g><g id="t-35"><path id="o-69" class="cls-2" d="M400.79,165.25l11.65-8.46-4.23-5.82"/><path id="o-70" class="cls-2" d="M400.79,165.25l4.45-13.7,6.85,2.22"/></g></g></g><g id="s-8"><g id="f-15"><g id="t-36"><path id="o-71" class="cls-2" d="M409.26,81.6l-4.45,13.7,6.85,2.22"/><path id="o-72" class="cls-2" d="M409.26,81.6l4.45,13.7-6.85,2.22"/></g><g id="t-37"><path id="o-73" class="cls-2" d="M422.95,91.55h-14.4v7.2"/><path id="o-74" class="cls-2" d="M422.95,91.55l-11.65,8.46-4.23-5.82"/></g></g><g id="t-38"><path id="o-75" class="cls-2" d="M395.56,91.55l11.65,8.46,4.23-5.82"/><path id="o-76" class="cls-2" d="M395.56,91.55h14.4v7.2"/></g><g id="f-16"><g id="t-39"><path id="o-77" class="cls-2" d="M417.72,107.65l-4.45-13.7-6.85,2.22"/><path id="o-78" class="cls-2" d="M417.72,107.65l-11.65-8.46,4.23-5.82"/></g><g id="t-40"><path id="o-79" class="cls-2" d="M400.79,107.65l11.65-8.46-4.23-5.82"/><path id="o-80" class="cls-2" d="M400.79,107.65l4.45-13.7,6.85,2.22"/></g></g></g><g id="s-9"><g id="f-17"><g id="t-41"><path id="o-81" class="cls-2" d="M409.26,24l-4.45,13.7,6.85,2.22"/><path id="o-82" class="cls-2" d="M409.26,24l4.45,13.7-6.85,2.22"/></g><g id="t-42"><path id="o-83" class="cls-2" d="M422.95,33.95h-14.4v7.2"/><path id="o-84" class="cls-2" d="M422.95,33.95l-11.65,8.46-4.23-5.82"/></g></g><g id="t-43"><path id="o-85" class="cls-2" d="M395.56,33.95l11.65,8.46,4.23-5.82"/><path id="o-86" class="cls-2" d="M395.56,33.95h14.4v7.2"/></g><g id="f-18"><g id="t-44"><path id="o-87" class="cls-2" d="M417.72,50.05l-4.45-13.7-6.85,2.22"/><path id="o-88" class="cls-2" d="M417.72,50.05l-11.65-8.46,4.23-5.82"/></g><g id="t-45"><path id="o-89" class="cls-2" d="M400.79,50.05l11.65-8.46-4.23-5.82"/><path id="o-90" class="cls-2" d="M400.79,50.05l4.45-13.7,6.85,2.22"/></g></g></g></g><g id="s-10"><g id="f-19"><g id="t-46"><path id="o-91" class="cls-2" d="M178.86,139.2l-4.45,13.7,6.85,2.22"/><path id="o-92" class="cls-2" d="M178.86,139.2l4.45,13.7-6.85,2.22"/></g><g id="t-47"><path id="o-93" class="cls-2" d="M192.55,149.15h-14.4v7.2"/><path id="o-94" class="cls-2" d="M192.55,149.15l-11.65,8.46-4.23-5.82"/></g></g><g id="t-48"><path id="o-95" class="cls-2" d="M165.16,149.15l11.65,8.46,4.23-5.82"/><path id="o-96" class="cls-2" d="M165.16,149.15h14.4v7.2"/></g><g id="f-20"><g id="t-49"><path id="o-97" class="cls-2" d="M187.32,165.25l-4.45-13.7-6.85,2.22"/><path id="o-98" class="cls-2" d="M187.32,165.25l-11.65-8.46,4.23-5.82"/></g><g id="t-50"><path id="o-99" class="cls-2" d="M170.39,165.25l11.65-8.46-4.23-5.82"/><path id="o-100" class="cls-2" d="M170.39,165.25l4.45-13.7,6.85,2.22"/></g></g></g><g id="s-11"><g id="f-21"><g id="t-51"><path id="o-101" class="cls-2" d="M236.46,139.2l-4.45,13.7,6.85,2.22"/><path id="o-102" class="cls-2" d="M236.46,139.2l4.45,13.7-6.85,2.22"/></g><g id="t-52"><path id="o-103" class="cls-2" d="M250.15,149.15h-14.4v7.2"/><path id="o-104" class="cls-2" d="M250.15,149.15l-11.65,8.46-4.23-5.82"/></g></g><g id="t-53"><path id="o-105" class="cls-2" d="M222.76,149.15l11.65,8.46,4.23-5.82"/><path id="o-106" class="cls-2" d="M222.76,149.15h14.4v7.2"/></g><g id="f-22"><g id="t-54"><path id="o-107" class="cls-2" d="M244.92,165.25l-4.45-13.7-6.85,2.22"/><path id="o-108" class="cls-2" d="M244.92,165.25l-11.65-8.46,4.23-5.82"/></g><g id="t-55"><path id="o-109" class="cls-2" d="M227.99,165.25l11.65-8.46-4.23-5.82"/><path id="o-110" class="cls-2" d="M227.99,165.25l4.45-13.7,6.85,2.22"/></g></g></g><g id="s-12"><g id="f-23"><g id="t-56"><path id="o-111" class="cls-2" d="M236.46,81.6l-4.45,13.7,6.85,2.22"/><path id="o-112" class="cls-2" d="M236.46,81.6l4.45,13.7-6.85,2.22"/></g><g id="t-57"><path id="o-113" class="cls-2" d="M250.15,91.55h-14.4v7.2"/><path id="o-114" class="cls-2" d="M250.15,91.55l-11.65,8.46-4.23-5.82"/></g></g><g id="t-58"><path id="o-115" class="cls-2" d="M222.76,91.55l11.65,8.46,4.23-5.82"/><path id="o-116" class="cls-2" d="M222.76,91.55h14.4v7.2"/></g><g id="f-24"><g id="t-59"><path id="o-117" class="cls-2" d="M244.92,107.65l-4.45-13.7-6.85,2.22"/><path id="o-118" class="cls-2" d="M244.92,107.65l-11.65-8.46,4.23-5.82"/></g><g id="t-60"><path id="o-119" class="cls-2" d="M227.99,107.65l11.65-8.46-4.23-5.82"/><path id="o-120" class="cls-2" d="M227.99,107.65l4.45-13.7,6.85,2.22"/></g></g></g></svg>