<?xml version="1.0" encoding="UTF-8"?><svg id="_色修正" xmlns="http://www.w3.org/2000/svg" viewBox="0 0 900 600"><defs><style>.cls-1{fill:#e50012;}.cls-1,.cls-2{stroke-width:0px;}.cls-2{fill:#fff;}</style></defs><rect class="cls-1" width="900" height="600"/><rect class="cls-2" x="225" width="450" height="600"/><path class="cls-1" d="M458.53,491.39l-4.25-81.47c-.23-4.95,3.6-9.14,8.55-9.37.65-.03,1.29.01,1.93.12l81.09,14.26-10.95-30.21c-.91-2.46-.15-5.24,1.89-6.89l88.83-71.94-20.01-9.35c-2.8-1.32-4.17-4.52-3.21-7.46l17.56-54-51.17,10.86c-2.86.6-5.74-.9-6.89-3.59l-9.91-23.32-39.93,42.86c-2.33,2.46-6.22,2.56-8.67.23-1.52-1.44-2.2-3.56-1.8-5.61l19.26-99.31-30.87,17.84c-2.92,1.71-6.68.73-8.4-2.19-.07-.12-.13-.24-.19-.36l-31.34-61.55-31.34,61.55c-1.52,3.03-5.2,4.26-8.23,2.74-.12-.06-.24-.13-.36-.19l-30.87-17.84,19.26,99.31c.64,3.33-1.54,6.54-4.87,7.19-2.06.4-4.17-.28-5.61-1.8l-39.93-42.86-9.91,23.32c-1.15,2.68-4.03,4.18-6.89,3.59l-51.17-10.86,17.56,54c.96,2.94-.41,6.14-3.21,7.46l-20.01,9.35,88.83,71.94c2.04,1.66,2.8,4.43,1.89,6.89l-10.95,30.21,81.09-14.26c4.88-.84,9.52,2.44,10.36,7.32.11.64.15,1.29.12,1.93l-4.25,81.47h16.99Z"/></svg>