<?xml version="1.0" encoding="UTF-8"?><svg id="_色修正" xmlns="http://www.w3.org/2000/svg" viewBox="0 0 900 600"><defs><style>.cls-1{fill:#e50012;}.cls-1,.cls-2,.cls-3,.cls-4{stroke-width:0px;}.cls-2{fill:#fff;}.cls-3{fill:#fff000;}.cls-4{fill:#003070;}</style></defs><rect id="red" class="cls-1" width="900" height="600"/><rect id="white" class="cls-2" y="557.14" width="900" height="42.86"/><rect id="white-2" class="cls-2" y="471.43" width="900" height="42.86"/><rect id="white-3" class="cls-2" y="385.71" width="900" height="42.86"/><rect id="white-4" class="cls-2" y="300" width="900" height="42.86"/><rect id="white-5" class="cls-2" y="214.29" width="900" height="42.86"/><rect id="white-6" class="cls-2" y="128.57" width="900" height="42.86"/><rect id="white-7" class="cls-2" y="42.86" width="900" height="42.86"/><rect id="blue" class="cls-4" width="450" height="342.86"/><path id="path4945" class="cls-3" d="M184.4,45.59c-70.72,0-128.12,57.21-128.12,127.7s57.4,127.7,128.12,127.7c25.55,0,49.36-7.48,69.35-20.34-11.64,4.02-24.14,6.22-37.15,6.22-62.71,0-113.61-50.73-113.61-113.23s50.9-113.23,113.61-113.23c13.86,0,27.13,2.48,39.42,7.01-20.45-13.77-45.1-21.82-71.62-21.82Z"/><path id="path4959" class="cls-3" d="M396.87,239.76l-53.97-28.16,15.96,57.63-36.1-48.21-11.26,58.67-11.08-58.71-36.25,48.1,16.14-57.58-54.06,28,40.16-45.05-61.16,2.35,56.22-23.59-56.15-23.76,61.15,2.53-40.01-45.17,53.97,28.16-15.96-57.63,36.1,48.21,11.26-58.67,11.08,58.71,36.25-48.1-16.14,57.58,54.06-28-40.16,45.05,61.16-2.35-56.22,23.59,56.15,23.76-61.15-2.53,40.01,45.17Z"/></svg>