<?xml version="1.0" encoding="UTF-8"?><svg id="_色修正" xmlns="http://www.w3.org/2000/svg" viewBox="0 0 900 600"><defs><style>.cls-1{fill:#231815;}.cls-1,.cls-2,.cls-3,.cls-4{stroke-width:0px;}.cls-2{fill:#e50012;}.cls-3{fill:#fff;}.cls-4{fill:#008c3c;}</style></defs><rect id="rect7" class="cls-3" x="0" y="189.1" width="900" height="221.8"/><rect id="rect3" class="cls-2" width="900" height="199.9"/><rect id="rect7-2" class="cls-1" y="400.1" width="900" height="199.9"/><g id="g6"><g id="g8"><g id="g10"><path id="path12" class="cls-4" d="M538.74,263.16c-1.22-.64-2.6-1.68-3.05-2.31-.69-.96-.29-1,2.55-.23,5.08,1.38,8.35.84,11.6-1.91l2.86-2.42,3.37,1.72c1.86.94,3.83,1.59,4.4,1.44,1.46-.39,4.49-4.27,4.39-5.61-.12-1.66,1.29-1.25,1.96.58,1.35,3.57-.62,7.67-4.08,8.58-1.69.44-3.26.28-5.82-.61-3.15-1.1-3.69-1.08-5.27.12-3.54,2.72-8.47,2.97-12.9.65Z"/><path id="path14" class="cls-4" d="M551.3,251.68c-1.23-1.57-2.71-7.5-2.23-8.95.42-1.26.85-1.51,2-1.15,2.01.63,2.47,2.01,2.17,6.71-.23,3.83-.8,4.83-1.94,3.4Z"/></g><path id="path16" class="cls-4" d="M403.45,247.43c-.41,2.87,5.09,10,7.57,11.29-1.69.76-3.78.41-5.33,1.26-8.65,8.65-40.22,39.43-45.99,46.79,17.08.34,36.02-.23,52.03-.96-.02-11.6,10.99-12.2,18.35-16.43,3.79,5.97,13.3,5.51,14.49,14.49,0,10.75.02,26.95.02,38.64h-145.89c-2.57,11.33-12.8,19.98-27.05,16.42,4.41-4.61,11.84-6.19,14.49-12.56,2.24-13.94-4.48-22.55-8.83-30.45,7.19-2.62,8.28-3.27,15.59-8.18-5.13,15.59,13.34,13.88,27.05,13.52.46-5.29.19-11.54-3.87-12.32,5.25-1.91,6.12-2.56,14.49-9.66v21c32.6,0,67.76-.24,101.03-.24,0-6.57,1.74-17.13-3.46-17.13s-.23,13.52-4.09,13.52h-78.02c0-2.91-.07-8.99-.07-13.37,3.31-3.31,2.91-3.02,25.51-25.62,2.25-2.25,18.1-16.57,31.97-30.02Z"/><path id="path18" class="cls-4" d="M598.48,246.87c5.45,2.93,9.76,6.99,16.43,8.7-.77,2.76-3.23,3.85-3.87,6.76v58.93c7.45,1.64,9.02-2.58,12.56-4.83.97,9.43,6.97,18.68,6.76,26.08h-31.88c0-31.87,0-63.75,0-95.63Z"/><path id="path20" class="cls-4" d="M555.97,278.43s11.6-9.79,11.6-10.17v51.43h8.35c0-19.61-.26-39.48-.26-57.69,3.39-3.39,10.03-8.3,11.69-11.74v92.1c-23.53,0-67.43.03-73.23.03-1.08-19.12-1.26-38.91,21.02-34.66v-7.8c-.68-1.33-1.9.32-2.19-1.41,3.54-3.54,4.74-4.44,14.32-12.81,0,10.1.18,33.94.18,33.94,2.34,0,6.9,0,8.45,0,0,0,.08-39.92.08-41.23ZM528.48,319.16c1.57,2.35,6.91,2.31,6.66-1.65-.9-3.27-7.92-2.02-6.66,1.65Z"/><circle id="circle22" class="cls-4" cx="316.48" cy="353.36" r="4.47"/><path id="path28" class="cls-4" d="M454.49,246.96c5.45,2.93,9.76,6.99,16.43,8.7-.77,2.76-3.23,3.85-3.87,6.76v58.93c7.45,1.64,9.02-2.58,12.56-4.83.97,9.43,6.97,18.68,6.76,26.08h-31.88c0-31.87,0-63.75,0-95.63Z"/></g></g></svg>