<?xml version="1.0" encoding="UTF-8"?><svg id="_色修正" xmlns="http://www.w3.org/2000/svg" xmlns:xlink="http://www.w3.org/1999/xlink" viewBox="0 0 900 600"><defs><style>.cls-1{stroke-width:.68px;}.cls-1,.cls-2,.cls-3,.cls-4,.cls-5,.cls-6,.cls-7,.cls-8,.cls-9,.cls-10,.cls-11,.cls-12,.cls-13,.cls-14{stroke:#201716;}.cls-1,.cls-2,.cls-4,.cls-5,.cls-12,.cls-15{fill:#fff;}.cls-1,.cls-2,.cls-4,.cls-6,.cls-12{stroke-miterlimit:3;}.cls-16{clip-path:url(#clippath);}.cls-17,.cls-3,.cls-18{fill:none;}.cls-17,.cls-19,.cls-20,.cls-21,.cls-22,.cls-23,.cls-15,.cls-24{stroke-width:0px;}.cls-2{stroke-width:.3px;}.cls-3{stroke-width:3.55px;}.cls-3,.cls-5,.cls-7,.cls-8,.cls-9,.cls-10,.cls-11,.cls-13,.cls-14{stroke-miterlimit:4.8;}.cls-4{stroke-width:.3px;}.cls-5{stroke-width:.85px;}.cls-6{fill:#f2c821;stroke-width:1.01px;}.cls-7{stroke-width:.36px;}.cls-7,.cls-10,.cls-14{fill:#8f4a35;}.cls-8,.cls-9,.cls-10{stroke-width:.66px;}.cls-8,.cls-13{fill:#179c50;}.cls-9,.cls-20{fill:#231815;}.cls-11{fill:#f2e82a;}.cls-11,.cls-13,.cls-14{stroke-width:.41px;}.cls-12{stroke-width:.68px;}.cls-18{stroke:#fff;stroke-miterlimit:80;stroke-width:60px;}.cls-19{fill:#1c2c56;}.cls-21{fill:#e50012;}.cls-22{fill:#d70b24;}.cls-23{fill:#00a2de;}.cls-24{fill:#e62a23;}</style><clipPath id="clippath"><rect class="cls-17" y=".19" width="450" height="300"/></clipPath></defs><rect class="cls-23" width="900" height="600"/><g id="coa"><path class="cls-15" d="M561.25,167.9v173.38c0,56.71,102.46,90.38,102.46,90.38,0,0,102.46-33.67,102.46-90.38v-173.38h-204.93Z"/><path class="cls-22" d="M649.51,228.82v78.07h-88.26v28.41h88.26v90.97l14.2,5.41,14.2-5.41v-90.97h88.26v-28.41h-88.26v-78.07h-28.41Z"/><path class="cls-22" d="M561.25,167.9h204.93v66.96h-204.93v-66.96Z"/><g id="lion"><ellipse class="cls-1" cx="577.67" cy="208.7" rx="11.52" ry="9.27"/><ellipse class="cls-12" cx="577.67" cy="203.9" rx="10.24" ry="5.18"/><ellipse class="cls-12" cx="577.67" cy="214.25" rx="10.24" ry="5.18"/><ellipse class="cls-12" cx="577.67" cy="208.71" rx="10.24" ry="5.18"/><path class="cls-6" d="M761.1,221.57l-1.68-4.63s-4.59-1.87-4.94-4.31c-.82-6.5-3.14-8.94-6.62-9.87-3.49-.93-5.81.58-5.81.58-1.05,1.51-6.28,1.51-9.18,1.62-2.9.12-2.95-1.26-2.95-1.26-2.26.02-3.2-1.64-3.2-1.64-1.48-2.95-2.57-4.05-3.3-4.42,3.77.06,6.61-1.68,10.86-6.15,4.64-4.88,7.96-2.99,7.96-2.99-2.25,4.56.75,4.15.75,4.15,6.15-3.13.81-11.03-1.05-10.68-1.86.35-2.39-.9-2.39-.9.06,1.42-2.06,1.98-2.06,1.98,1.59-9.02-3.8-11.42-3.8-11.42-.81.81-1.28,2.44-1.28,2.44-1.51,5.46-6.5,4.65-12.08,1.97-5.57-2.67-20.44,2.79-25.08,4.65-4.65,1.86-13.13,4.76-20.79.46-7.66-4.3-9.53-3.49-12.54-2.67-3.02.81-8.36,2.09-10.33,1.04-1.98-1.04-4.23-1.11-4.23-1.11.54-.3-.3-1.56-.3-1.56-2.32-3.13.3-5.06.3-5.06,0,0-4.32,1.22-2.6,8.6l.79,1.11s.58,2.32,1.86,3.02l-.05.51s1.09-.51,1.44,1c.35,1.51,1.98.12,2.68-1.16,0,0-1.16,6.74,7.2,8.36,0,0-.94-1.05-.59-1.74.35-.7-1.04-1.28-.93-2.32.11-1.04-2.09-1.51-.35-2.32,1.74-.81,2.56-2.44,6.27-.23s6.62,1.74,6.62,1.74c0,0-2.27-4.65-1.02-4.65,1.25,0,6.87,6.96,9.63,6.61,2.77-.34,8.11-3.48,10.78-2.32,0,0,.23-1.39,10.45-3.14,10.22-1.74,22.83-6.84,27.56-2.37,0,0,.55,3.54,2.53,4.47,0,0-.35,7.32-13.01,3.25l-4.59-1.21s-.71-2.22-24.77,3.97c0,0-1.42.49-2.35,1.19-.93.69-2.21-.35-6.97,1.39-4.76,1.75-22.53,7.55-33.45,5.46v.03c-2.42-.72-4.67-.35-4.76-.73-.12-.46,1.28.12,1.28.12-.81-.93-1.16-1.01-1.16-1.01-9.18-1.01-7.55-5.15-7.55-5.15l.47,1.28c1.51-1.97-.59-6.62-.59-6.62l-.09.02c-.02-.14-.05-.29-.09-.42l.76-.52c4.42-3.72,9.53-4.42,9.53-4.42-3.02-3.72-9.41-1.74-9.41-1.74.12-4.53-1.74-9.76-1.74-9.76-6.28.7-9.87,5.92-9.87,5.92-.23-4.64-6.16-7.31-6.16-7.31,2.2,2.67.81,9.06.81,9.06l.23.12c-.37,0-.58,0-.58,0l-.13,1.37-.22-.09s-2.2.81-4.76,6.62c0,0-.26,1.37-1.25,2.61,0-.16,0-.31-.01-.47,0,0-2.85,3.74-9.45,0,0,0-8.96-5.32-12.11-5.12-3.15.2-5.22,1.67-5.02,2.56,0,0-7.19-.59-9.65,3.54,0,0-5.41,1.97-.79,6.4,0,0,.62,1.93,1.97,2.96,0,0-.19-4.04.79-2.86,0,0,.25.4.74.68.13.57.56,2.14,1.52,2.95l.69-.22c.11-1.01.32-2.28.55-2.82.11.01.19.03.23.03-.03.03-.06.05-.09.07l1.28,1.97,1.48-.79c.69-.1,1.58.59,1.58.59l1.67-1.38s-.02-.02-.03-.03c1.65.28,2.1-2.92,2.1-2.92,1.48.39,2.87-.05,4.04-.76.72,2.65,6.59,5.49,6.59,5.49,0,0,.1,0,.25-.02-.5.32-.79.56-.79.56,2.67,1.86,7.67,1.4,7.67,1.4-2.09.81-1.8,4.68-1.8,4.68-1.22.5-1.34,1.71-1.34,1.71,4.07,1.62,6.84.28,6.84.28.22,1.32-.11,1.46-.11,1.46-1.63,3.48-2.32,6.85-2.32,6.85.04.02.08.02.11.04-.05.09-.11.18-.15.27,0,0-7.09,2.46-10.24,5.91,0,0-.3-.99-1.18-.99s-3.64-2.26-4.92-2.66c-1.28-.39-3.15.4-3.64-.19-.45-.54-.25-4.57-1.1-5.22,0,0,.02,0,.02,0l-.89-2.46c-.59,1.28-3.05.98-3.05.98-.1.06-.48.33-1.01.73-.49.03-1.06-.14-1.06-.14-.25.05-.5.76-.69,1.45-.1.07-.2.15-.3.23v-.69c-.49.39-1.48-.2-1.87-.2-.19,0-.43.56-.62,1.14-1,.19-2.33.24-2.33.24-.39.2-.1,3.25-.1,3.25-2.85,1.58-1.48,3.94-1.48,3.94,1.58,7.68,14.67,4.23,15.65,5.22.98.99,3.25,1.18,4.43,1.18s2.65,2.86,4.33,3.15c1.67.3,0-2.26,7.76-4.12,7.76-1.85,10.35-5.04,10.35-5.04,2.43-.47,3.11-3.42,3.29-4.62.02.55.09,1.16.18,1.85.35,2.67-1.5,3.65-1.5,3.65l6.72-2.02c2.67-.7,2.32-3.02,2.32-3.02,2.55,7.32,7.2,7.78,7.2,7.78.93-2.79.81-3.6.81-3.6l2.09-.11c.09-1.58-1.31-2.73-2.11-3.26l3.27,1.98,1.28-.23c0,1.16,1.74,2.2,1.74,2.2l.24-1.51c1.51,1.97,4.3,1.28,4.3,1.28-.06-.35-.14-.71-.25-1.08,5.95,3.67,15.46-1.01,15.46-1.01,2.55.58,2.9-.93,2.9-.93,2.9.35,3.58-1.64,3.58-1.64,6.83-.59,11.64-5.45,11.64-5.45,3.37-.23,3.47-2.64,3.47-2.64,0,0,3.37.67,6.63-3.4,7.55-10.8,18.84-5.18,18.84-5.18l-6.53.41c-17.07-.11-9.99,11.5-9.99,11.5l1.05-.11c1.63.35,7.2,4.76,5.14,8.05-.03.06-.08.11-.11.16-3.48,4.77-9.93.22-11.76-3.8-1.86-4.06-5.58-3.13-5.58-3.13,0,0-9.64,1.63-5.69,9.29h.14c.07,1.87,1.25,4.01,4.68,6.12,1.93,2.73,8.28,3.02,12.94,2.01,2.17-.47,13.62-5.4,13.62-5.4.84-2.49,3.69-1.92,6.24-5.52s-3.6-4.88-4.99-6.85c-1.4-1.98.35-1.63.35-1.63,5.57,3.02,6.04-6.62,6.04-6.62.58,5.57,5.46,7.08,5.46,7.08,3.02-3.02.82-9.17.82-9.17,7.2,12.89,11.56,10.84,11.56,10.84-3.88-2.4-1.93-5.61-1.93-5.61,3.48,13.7,17.77,1.74,17.77,1.74-.7,1.97,0,3.13,1.28,4.41,1.28,1.28,2.79,1.86,2.09,4.18-.7,2.32-7.32,1.86-7.32,1.86,0,0-6.51-.35-5.92,5.11.34,1.28,4.64,1.74,6.27,1.39,0,0-.67.15,1.73.47.81.1,1.78.12,2.77.09,2.77-.09,5.72-.56,5.72-.56,3.71-.81,3.13-2.09,3.13-2.09,5.69-1.05,6.27-4.88,6.27-4.88h0Z"/><path class="cls-20" d="M572.37,197.78s.31-.72.88-.8c.44-.07.98.26,1.55.95l.31-.23s-1.53-2.24-.93-3.8c.27-.7.94-1.17,1.99-1.41l-.09-.38c-1.19.27-1.95.83-2.27,1.65-.12.31-.17.64-.17.96,0,.76.27,1.54.54,2.13-.34-.22-.68-.31-1-.26-.58.09-.87.51-1.02.78l.2.41Z"/><path class="cls-20" d="M751.63,228.21c-3.88.62-9.58.96-10.03-.22-.08-.21-.09-1.05,3.08-3.12l-.37-.57c-2.65,1.73-3.72,2.97-3.35,3.93.81,2.11,9.13.91,10.79.64l-.13-.67Z"/><path class="cls-20" d="M677.4,230.45c-.88-1.35-.49-3.21,1.18-5.51l-.55-.4c-1.85,2.55-2.26,4.67-1.2,6.28l.57-.37Z"/><path class="cls-20" d="M672.16,224.61c.09,2.34,1.74,4.51,4.9,6.45l.36-.58c-2.96-1.81-4.5-3.8-4.58-5.9-.12-3.22,3.29-5.71,3.32-5.73l-.4-.55c-.15.11-3.74,2.72-3.6,6.31h0Z"/><path class="cls-20" d="M738.35,225.48c-1.06,1.57-.71,3.47-.69,3.55l.67-.13s-.31-1.71.59-3.05c.55-.8,1.43-1.32,2.62-1.55l-.12-.67c-1.38.26-2.41.88-3.06,1.84Z"/><path class="cls-20" d="M586.71,195.75l-.21-.05-.03.22s-.3,2.08-1.24,2.64c-.26.16-.54.17-.87.05l-1.59-.97c-.32-.28-.59-.48-1.05-.35-.09-.12-.46-.61-.46-1.41,0-.09,0-.18.02-.28.11-.93.76-1.83,1.94-2.66l-.22-.32c-1.27.91-1.98,1.9-2.1,2.94-.14,1.21.56,2.03.59,2.07l.09.11.13-.06c.35-.16.46-.06.8.24l1.71,1.04c.44.16.84.13,1.2-.09.97-.58,1.31-2.27,1.39-2.74,4.12.89,7.44-4.12,7.59-4.34l-.33-.21c-.03.05-3.42,5.19-7.37,4.15h0Z"/><path class="cls-20" d="M576.83,194.98c-.21.83-.06,1.65.41,2.44.46.74.9,1.14,1.37,1.2.57.08,1.03-.34,1.43-.71.29-.27.57-.53.8-.51l.35.24.31-.24-.63-.39c-.4-.03-.73.28-1.09.61-.36.33-.72.67-1.11.62-.34-.05-.7-.39-1.09-1.02-.42-.69-.55-1.41-.37-2.14.44-1.84,2.64-3.19,2.67-3.2l-.2-.33c-.1.06-2.36,1.44-2.84,3.44Z"/><path class="cls-20" d="M571.15,221.24c.2-.71.74-1.32,1.62-1.8-.17.02.86.86,1.75.76,0,0,.36-.19.58-.31.24.2,1.77,1.6,1.77,3.37,0,.37-.07.76-.24,1.14l.36.15c1.12-2.66-1.7-5.02-1.73-5.05l-.1-.08-.17.11-.5.27c-.73.08-1.67-.69-1.68-.7-1.19.52-1.8,1.21-2.03,2.03l.38.1Z"/><path class="cls-20" d="M584.28,214.44c-.85.07-3.21.52-3.99,1.75-.28.45-.32.94-.12,1.46l.31.83c.74,1.98,1.5,4.03,2.34,4.49l.19-.34c-.71-.39-1.48-2.46-2.16-4.29l-.31-.83c-.16-.42-.13-.79.08-1.12.63-1.01,2.76-1.49,3.69-1.57.54-.04.72,1.96.83,3.15l.39-.04c-.16-1.76-.32-3.58-1.24-3.5h0Z"/><path class="cls-20" d="M577.8,216.39c-.5.44-.4,1.11-.39,1.14,0,.18.23,5.13,2.57,6.15l.15-.36c-2.13-.93-2.34-5.79-2.34-5.83,0-.03-.07-.52.27-.82.36-.32,1.06-.34,2.05-.07l.1-.37c-1.13-.31-1.94-.26-2.41.16h0Z"/><path class="cls-20" d="M575.94,216.79c-1.04.72-1,2.79-1,2.87h.39s-.04-1.95.83-2.56c.32-.22.75-.23,1.27-.02l.14-.36c-.65-.26-1.2-.24-1.64.06h0Z"/><path class="cls-20" d="M631.86,189.5s1.11,2.49,1.11,4.49c0,.35-.17.61-.25.91-.04-.11-.42-1.16-.42-1.16l-.33.83s-.44,1.17.32,2.44c1.01,1.67,3.54,2.74,7.51,3.18h0s.05.05.06.05c-.16.02-.29.07-.33.1l-.16.13.02.34c.1.41.57.43,1.51.47.16,0,.41.05.6.06.23.06.47.13.47.13,0,0-.06-.08-.08-.09.9.06,1.92.29,3.03.7-.24.06-.84.21-.84.21l.98.39c.07.03,7.31,2.94,10.31,5.33-.85.74-4.48,3.45-10.77,1.9l-1.05-.26.71.82s4.14,4.75,4.99,7.59c-1.43.01-6.92-.04-8.84-1.67l-.5.45s2.63,3.87,3.22,6.85c-.75.1-2.54.17-3.59-1.21l-.49-.64s-.2,1.28-.26,1.72c-.51-.39-1.16-.96-1.16-1.58v-.41s-1.35.24-1.55.28c-.18-.11-2.41-1.46-3.18-1.93-.27-.18-.45-.28-.51-.31,0,0-.03-.02-.03-.02h-.02s-.33.58-.33.58c0,0,.38.23.49.29.68.44,1.85,1.41,1.97,2.7-.5.03-2.07.11-2.07.11l.04.36v.06c0,.21-.07,1.1-.72,3.11-.98-.23-4.54-1.47-6.64-7.5l-.66.16s.01.1.01.22c0,.55-.19,1.93-2.08,2.42-.01,0-3.51,1.06-5.45,1.64.36-.52.7-1.23.7-2.27,0-.22-.01-.46-.04-.71-.12-.88-.19-1.6-.19-2.21,0-1.27.31-2.02,1.19-2.56l-.31-.61c-.08.03-8.13,3.23-12.12,1.9.18-.78.86-3.52,2.22-6.44l-.18.17c.26-.11.53-.52.31-1.83l-.07-.45-.41.2s-2.58,1.15-6.27-.2c.08-.3.27-.85,1.04-1.17l.23-.09-.02-.25s0-.18,0-.45c0-1,.16-3.33,1.59-3.89l-.15-.66s-4.36.35-6.98-1.1c.69-.47,2.13-1.35,3.81-1.59l.27-.04.02-.27s0-.09,0-.22c0-.34-.13-1.03-.43-1.73,1,.28,2.19.53,2.61.21l.14-.11-.12-2.62-.68.03s.08,1.74.1,2.17c-.43.02-1.51-.19-2.57-.53l-1.04-.33.67.87c.55.7.61,1.57.62,1.97-2.36.44-4.21,1.9-4.29,1.97l-.35.29.37.26c2.03,1.41,5.2,1.54,6.83,1.5-.96,1.08-1.12,2.89-1.12,3.8,0,.19,0,.24,0,.33-1.15.62-1.33,1.79-1.33,1.84l-.03.25.24.1c3.49,1.39,5.87.72,6.68.42,0,.11.03.26.03.33,0,.32-.06.42-.06.42-1.71,3.59-2.43,7.01-2.44,7.04l-.06.28.26.11c3.24,1.29,9.05-.47,11.63-1.38-.34.58-.53,1.24-.53,2.05,0,.68.08,1.45.2,2.31.03.22.04.42.04.61,0,1.93-1.3,2.66-1.36,2.69l.26.63,6.72-2.02c1.56-.4,2.14-1.32,2.39-2.1,2.65,6.29,6.82,6.86,7,6.88l.27.02.09-.26c.65-1.93.8-2.92.83-3.39.45-.02,2.08-.11,2.08-.11l.02-.31c0-.05,0-.1,0-.15,0-.56-.17-1.05-.41-1.49.42.25,1.16.71,1.16.71,0,0,.77-.14,1.11-.2.29,1.12,1.63,2.01,1.8,2.11l.43.26s.16-1.02.23-1.47c1.66,1.49,4.02,1.04,4.13,1.02l.3-.08-.04-.3c-.34-2.27-1.86-4.98-2.76-6.42,2.95,1.34,8.33,1.24,8.59,1.24h.4s-.08-.41-.08-.41c-.48-2.39-3.46-6.15-4.71-7.64,6.93,1.3,10.66-2.29,10.82-2.46l.24-.26-.27-.24c-2.33-2.03-7.7-4.39-9.86-5.29.12-.03.76-.19.76-.19l-.75-.42c-1.8-1.01-3.72-1.14-5.01-1.2h0c-.82-.95-1.24-1.1-1.34-1.12-4.69-.52-6.41-1.83-7.03-2.85-.05-.08-.03-.14-.06-.22.1-.13.21-.27.21-.27.45-.59.61-1.38.61-2.21,0-2.15-1.09-4.61-1.16-4.75l-.62.28h0Z"/><path class="cls-20" d="M610.28,188.12c-.01.07-.51,2.64-2.7,3.84-1.65.9-3.82.83-6.46-.23l-.3-.12.03.32c0,.07.18,1.58,1.6,2.68,1.18.92,2.88,1.25,5.01,1.01-.71.84-3,3.76-3,6.6,0,.15,0,.3.02.45.29.21,3.87,1.18,5.53-.94.06.91.32,3.82,1.46,4.96.62.62.77,1.53.77,2.25,0,.65-.12,1.16-.12,1.17l-.13.52.43-.31c.14-.1,3.43-2.51,4.48-5.67,0,0,.53-.79,1.54-1.12-.02.14-.04.28-.04.48,0,1.22.53,3.44,4.09,4.79l.29.11-.03-.31s-.02-.25-.02-.61c0-.89.12-2.53.97-3.38.56-.56.73-1.19.73-1.73,0-.43-.09-.78-.19-1.03.72.18,2.41.73,3.1,2.02,1,1.88,4.51.38,4.66.32l-.12-.37s-1.48.33-2.4-.3c-.41-.28-.65-.71-.73-1.28l-.16-1.95c-.04-.88-.16-1.45-.6-1.92.46-.04,1.4-.03,1.79.85.62,1.37,2.75,1.5,2.84,1.51l.73.04-.61-.4s-1.86-1.23-1.54-2.82l.26-1.16c.5-2.1,1.34-5.61.66-7.76l-.37.12c.17.54.24,1.17.24,1.86,0,1.91-.54,4.18-.91,5.7l-.27,1.18c-.03.15-.04.31-.04.46,0,1.03.67,1.81,1.19,2.29-.63-.13-1.49-.43-1.82-1.16-.51-1.12-1.88-1.17-2.54-1.04l-.46.09.39.26c.62.41.64.89.68,1.94l.16,1.99c.1.68.4,1.2.9,1.54.44.3.94.34,1.41.37-1.04.27-2.47.44-2.99-.52-.97-1.8-3.63-2.28-3.74-2.31l-.41-.07.2.36s.3.55.3,1.2c0,.46-.14.99-.62,1.47-.94.95-1.09,2.68-1.09,3.63,0,.19,0,.21.01.33-3.04-1.28-3.58-3.17-3.58-4.24,0-.46.09-.76.1-.8l.09-.3-.31.05c-1.48.24-2.09,1.45-2.12,1.5-.84,2.53-3.14,4.53-3.97,5.2.03-.21.06-.46.06-.76,0-.79-.17-1.8-.89-2.52-1.21-1.21-1.37-5.05-1.37-5.09l-.03-.69-.34.6c-1.34,2.4-5.24,1.24-5.28,1.23-.16-3.03,3.27-6.9,3.3-6.94l.36-.4-.53.08c-2.24.32-3.98.02-5.18-.9-.93-.72-1.27-1.65-1.39-2.11,2.6.97,4.78,1.02,6.46.1,2.35-1.3,2.86-3.95,2.88-4.06,2.46-5.58,4.61-6.47,4.64-6.47l-.13-.36c-.1.03-2.32.91-4.88,6.72h0Z"/><path class="cls-20" d="M615.9,179.84h-.16s-2,2.75-2,2.75l.59.06c10.85,1.06,16.58,7.6,16.64,7.67l.25.29,1.97-2.14-.14-.22c-5.5-8.66-17.02-8.41-17.14-8.41h0ZM616.09,180.52c1.34,0,11.22.31,16.22,7.89-.24.26-.79.86-1.08,1.18-1.17-1.22-6.73-6.41-16.26-7.53.37-.51.98-1.35,1.12-1.54h0Z"/><path class="cls-20" d="M614.34,185.56c-.93,1.26-1.79,3.13-1.79,4.01,0,.17.03.3.1.38,0,0,.04.01.05.02-1.13,1.01-1.8,2.7-1.8,4.61,0,1.05.19,2.15.58,3.19l.22.59c1.06,2.9,1.98,5.4,6.58,3.92,4.43-1.42,4.61-1.7,5.72-3.54l.29-.48c.61-.99,1.27-1.19,1.98-1.4.84-.25,1.72-.51,2.49-2.03l.75-1.12c.81-1.11,1.81-2.49,1.93-4.25l-.39-.03c-.11,1.65-1.08,2.97-1.86,4.04l-.78,1.17c-.69,1.37-1.45,1.59-2.25,1.83-.75.22-1.51.45-2.2,1.57l-.29.48c-1.07,1.77-1.21,2-5.51,3.38-4.25,1.36-5.03-.76-6.1-3.69l-.22-.59c-1.21-3.23-.26-6.48,1.31-7.65l.54-.4s-.67.08-.75.09c0-.03-.02-.06-.02-.11,0-.53.58-2.21,1.72-3.77.98-1.33,3.29-2.66,3.31-2.67l-.19-.34c-.1.06-2.41,1.38-3.43,2.78h0Z"/><path class="cls-20" d="M612.27,197.24c.76.53,1.83.49,3.12,0,0,.46.11,1.44.91,2.15.94.83,2.51,1,4.65.48l-.09-.38c-2.01.48-3.46.34-4.3-.4-.91-.8-.78-2.07-.78-2.08l.04-.33-.31.13c-1.3.56-2.32.59-3.02.11-1.26-.88-1.17-3.17-1.17-3.2l-.39-.02c0,.1-.11,2.54,1.34,3.54h0Z"/><path class="cls-20" d="M614.74,194.15c-.55.13-.7.6-.7.96,0,.09,0,.17.02.24.1,1,1.18,1.66,2.17,1.95.96.28,2.14.3,2.6-.3.19-.24.32-.67-.09-1.36-1.48-2.52-3.87-1.53-4-1.48h0ZM616.33,196.91c-.86-.25-1.81-.81-1.89-1.63-.02-.08-.11-.64.38-.75h.04c.09-.05,2.21-.97,3.54,1.3.24.4.28.71.11.92-.29.37-1.23.45-2.19.17h0ZM614.7,194.16s.04-.02.04-.02l-.04.02Z"/><path class="cls-20" d="M616.07,199.21c-.25,2.13-.1,2.18.06,2.22l.13.04.15-.18,1.23-1.62-1.55-.73-.03.27h0ZM616.43,199.53c.22.1.42.2.62.29-.17.21-.48.63-.71.94,0-.32.04-.77.09-1.23h0Z"/><path class="cls-20" d="M612.87,197.5l-.08,2.01,1.69-2.04-1.6-.18v.21s0,0,0,0ZM613.25,197.73c.15.02.26.03.47.05-.16.2-.27.33-.49.6.02-.31.02-.49.03-.65h0Z"/><path class="cls-20" d="M611.74,196.86s1.25,2.45,1.48,3.34c.14.56.86,1.2,1.71,1.52.85.32,1.65.27,2.25-.15l1.12-.93c.37-.36.5-.46.8-.41l.06-.38c-.51-.09-.76.15-1.13.51l-1.07.89c-.66.46-1.47.26-1.89.1-.8-.3-1.38-.87-1.47-1.25-.23-.93-1.45-3.31-1.5-3.42l-.34.17h0Z"/><path class="cls-20" d="M613.36,189.59c-1.37.63-1.95,2.29-1.97,2.36l.37.13s.55-1.58,1.77-2.14c.59-.27,1.26-.26,1.98.02l.14-.36c-.82-.33-1.59-.33-2.29-.01Z"/><path class="cls-20" d="M622.56,193.95c.11.08,2.7,2.04,1.21,4.43l.33.21c1.68-2.7-1.28-4.93-1.31-4.95l-.23.31h0Z"/><path class="cls-20" d="M614.79,194.33s-.4,1.46,1.65,1.98c0,0-1.93-.02-2.06-.52-.13-.5.01-1.61.4-1.46Z"/><path class="cls-20" d="M621.08,196.08c0,.13-.1.23-.23.23s-.23-.1-.23-.23.11-.23.23-.23.23.1.23.23Z"/><path class="cls-20" d="M621.3,196.99c0,.13-.1.23-.23.23s-.23-.11-.23-.23.1-.23.23-.23.23.11.23.23Z"/><circle class="cls-20" cx="619.76" cy="196.54" r=".23"/><path class="cls-20" d="M620.38,197.92c0,.12-.1.23-.23.23s-.23-.1-.23-.23.1-.23.23-.23.23.1.23.23Z"/><path class="cls-20" d="M614.38,191.73c0,.13-.1.23-.23.23s-.23-.1-.23-.23.11-.23.23-.23c.13,0,.23.11.23.23Z"/><circle class="cls-20" cx="614.38" cy="192.65" r=".23"/><circle class="cls-20" cx="613.06" cy="192.19" r=".23"/><path class="cls-20" d="M613.69,193.56c0,.12-.11.23-.23.23s-.23-.11-.23-.23.1-.23.23-.23c.13,0,.23.1.23.23Z"/><path class="cls-20" d="M617.69,185.49s2.97,1.83.11,5.27c0,0,1.41-1.05,1.55-2.84.15-1.79-1.02-3.23-1.66-2.42Z"/><path class="cls-20" d="M629.11,190.43c-.96.49-2.34-.42-3.03-1.28-.69-.86-2.11-1.08-3,.49-.89,1.58-2.16,2.17-2.16,2.17,0,0,1.25-.74,2.53-2.12,1.28-1.38,2.02-.27,3.27.39s1.45.81,2.34.47l.05-.12h0Z"/><path class="cls-20" d="M628.86,190.65c-.39.29-1.11.54-1.87-.08-.76-.61-1.4-1.45-2.36-.96-.96.49-2.78,1.87-2.78,1.87,0,0,2.95-2.04,3.52-1.6.56.44,1.9,1.53,2.71,1.21.81-.32.79-.44.79-.44h0Z"/><path class="cls-20" d="M626.6,191.91c-.93-.71-1.87.84-2.66.64-.79-.2-1.43-1.5-1.43-1.5,0,0,.74,1.38,1.77,1.06,1.03-.32,1.75-.96,2.39-.47.64.49-.07.27-.07.27Z"/><path class="cls-20" d="M625.13,192.1c-1.85.19-2.03-1.53-2.03-1.55,0,0,.58,1.5,2.21,1.23l-.19.32Z"/><path class="cls-20" d="M625.07,190.92c.12.47.09.68-.4.68s-.83-.17-.83-.65,1.16-.33,1.23-.03Z"/><path class="cls-20" d="M618.45,188.36c0,.32-.26.58-.59.58s-.39-.22-.39-.54.06-.62.39-.62.59.26.59.58Z"/><path class="cls-20" d="M616.41,186.3s3.16.03,1.6,3.99c0,0,1.21-1.97.45-3.39-.76-1.42-1.95-1.06-1.95-1.06,0,0-.29.27-.1.45Z"/><path class="cls-20" d="M616.32,187.88c0,.79.52,1.61,1.57,2.43l.24-.3c-.95-.74-1.43-1.45-1.42-2.12,0-.66.52-1.06.52-1.06l-.23-.31s-.67.51-.68,1.37h0Z"/><path class="cls-20" d="M617.02,188.55c.13.46.49.8,1.05,1.02l.14-.36c-.45-.18-.72-.44-.82-.77-.2-.67.34-1.46.35-1.46l-.31-.23s-.66.95-.41,1.8h0Z"/><path class="cls-20" d="M621.35,190.75s.59,1.28-.27,2.66c-.86,1.38-.84,1.31-.84,1.31,0,0,1.03-1.9.64-2.68-.39-.79.47-1.28.47-1.28h0Z"/><path class="cls-20" d="M633.66,204.1c3.25.61,10.58,6.36,10.65,6.42l.42-.54c-.31-.24-7.54-5.91-10.95-6.55l-.13.67h0Z"/><path class="cls-20" d="M636.54,212.2c.22,2.88,3.35,4.67,3.49,4.75l.33-.59s-2.95-1.69-3.14-4.21l-.68.05Z"/><path class="cls-20" d="M628.75,212.8c0,3.23,3.03,7.14,3.16,7.31l.53-.42s-3.02-3.89-3.02-6.89h-.68,0Z"/><path class="cls-20" d="M618.48,213.17c.53,1.07.48,1.61.34,1.87-.16.3-.49.34-.5.35l.08.68c.25-.03.75-.2,1.01-.69.32-.59.21-1.44-.32-2.51l-.61.3h0Z"/><path class="cls-2" d="M572.29,197.22s.2,2.16,1.87,3.45c0,0-.2-2.37.3-3.35,0,0-.88-.99-2.17-.1h0Z"/><path class="cls-2" d="M575.63,198.6s.4,1.97,1.58,2.85l.69-.2s.29-2.46.69-2.76c.39-.29-1.67.89-2.96.1Z"/><path class="cls-2" d="M578.59,198.5l1.28,1.97,1.48-.79-.29-2.36s-.88-.2-2.46,1.18h0Z"/><path class="cls-2" d="M584.59,198.9l-1.67,1.38s-.88-.69-1.58-.59l.3-2.17s1.18-.89,2.95,1.38h0Z"/><path class="cls-2" d="M572.68,219.27s-.29-3.05.1-3.25c0,0,1.18.39,1.67-.1,0,0,.69,2.46.49,3.45-.2.98-1.38.59-2.26-.1h0Z"/><path class="cls-2" d="M580.26,216.12s-.1-2.56.39-2.86c0,0,2.46.3,3.05-.98l.89,2.46s-2.76-.3-4.33,1.38Z"/><path class="cls-4" d="M577.6,216.61s.49-2.66.99-2.76c0,0,1.28.39,1.67-.1l-.1,3.25s.1-1.38-2.56-.39h0Z"/><path class="cls-4" d="M574.75,217.01s.59-2.36.99-2.36,1.38.59,1.87.2v1.77s-2.17-.49-2.46,2.46l-.39-2.07h0Z"/></g><g id="sugarcanes"><path class="cls-8" d="M613.12,266.01s6.69,6.21,4.94,11.63c0,0,4.3-9.24-.32-11.95-4.62-2.71-4.78-.63-4.62.32h0Z"/><path class="cls-10" d="M604.67,272.06s-1.75,2.4.16,4.15c0,0-2.07,3.02-.47,5.58,0,0-1.28,2.71-.96,5.58,0,0-1.12,4.46,1.27,6.53,0,0,2.55,1.28,3.67.16,0,0,2.23-3.34.79-6.85,0,0,1.59-2.87-.16-6.53,0,0,.48-2.07-.96-4.46,0,0,.96-1.6.16-2.87,0,0-3.18-3.35-3.51-1.28h0Z"/><path class="cls-8" d="M606.59,264.25s-7.97-15.29-13.54-15.93c-5.58-.64-5.89-6.05-5.89-6.05,0,0,.64,2.55,5.1,2.55s13.07,6.21,14.02,10.99c.95,4.78,1.91,4.14,1.91,4.14l-1.6,4.3h0Z"/><path class="cls-8" d="M606.59,263.14s2.87-19.28,15.46-19.6c12.58-.32,8.44.96,11.47-1.12,0,0-8.44,4.46-13.7,5.1-5.26.64-9.56,10.83-9.4,12.75.16,1.91-2.87,5.58-4.3,4.3-1.43-1.28.48-1.43.48-1.43h0Z"/><path class="cls-8" d="M609.45,270.32s2.87-7.65,7.81-5.1c0,0-3.83-7.33-10.68-.96,0,0,3.03,4.14,2.87,6.06h0Z"/><path class="cls-8" d="M599.89,262.66s4.14,17.05-2.23,22.31c0,0,.16-8.76-3.67-14.02-3.82-5.26,3.82-10.99,5.9-8.29h0Z"/><path class="cls-8" d="M600.37,265.69s7.49,7.17,7.97,9.56c.48,2.39,2.23-7.17-1.28-9.88-3.51-2.71-7.33-3.19-7.33-3.19l.64,3.5Z"/><path class="cls-10" d="M586.56,284.49s.68,3.01,2.53,3.59c0,0,.1,2.24,1.75,2.92,0,0-.88,1.85.58,3.01,0,0-.29,3.69,1.07,4.47,0,0,3.31-.19,4.47-1.17,0,0,.68-2.42-1.16-4.86,0,0,.29-2.33-1.56-3.59,0,0,.58-3.11-1.75-4.28,0,0-.39-2.53-1.85-3.79,0,0-2.82,3.98-4.08,3.69h0Z"/><path class="cls-8" d="M590.24,280.79s-9.81-3.59-15.25,1.56c0,0,8.35,1.17,9.42,2.82,1.07,1.65,6.22-2.72,5.83-4.37h0Z"/><path class="cls-8" d="M587.23,286.91s-.78-.68-1.75-1.36c-.97-.68-9.23-2.91-10.4,5.05,0,0-3.01-7.87,1.36-8.94,4.38-1.07,7.87,1.46,10.78,5.25"/><path class="cls-8" d="M580.78,270.63s3.02,6.53,4.14,6.85c1.11.31,1.91-.8,1.91-.8,0,0-3.98-5.9-6.05-6.06Z"/><path class="cls-8" d="M578.54,260.59s-2.55-8.44-5.58-6.21c-3.03,2.23-2.23,8.28-2.23,8.28,0,0-6.06-6.21-2.55-11.15,3.51-4.94,10.36.48,10.36,9.08h0Z"/><path class="cls-10" d="M585.4,277.96s0,1.59,1.12,2.07c1.12.48,3.19,1.27,3.19.32s-1.59-4.62-2.23-4.14c-.64.48-1.75.47-2.07,1.75h0Z"/><path class="cls-8" d="M583.49,268.08s-.32-7.33,4.46-10.04c0,0,.96.16,1.44-1.27,0,0-3.83,9.24-2.71,13.86l-.16.64"/><path class="cls-8" d="M584.44,259.16s8.6-17.85,19.12-11.63c0,0-10.99,2.23-14.98,10.04l-3.99,5.89-.16-4.3h0Z"/><path class="cls-8" d="M579.82,265.69s-2.55-11.95-4.14-13.54c-1.59-1.59-4.3-3.35-7.49-.64,0,0,5.58-4.94,11.47-.8,5.89,4.14,4.62,10.68,4.62,10.68l-.64,8.29-3.98-3.67"/><path class="cls-8" d="M589.06,279.87s-10.52-19.91-17.37-5.73c0,0-1.28,3.66.16,5.09,0,0-3.82-2.87-2.07-9.88,1.75-7.01,13.38-3.82,16.73,1.91,3.34,5.73,4.3,8.61,3.82,8.92-.48.32-1.27-.32-1.27-.32h0Z"/><path class="cls-8" d="M618.7,285.61s7.65-15.78,12.11-8.61c0,0,1.27,3.5-.64,4.94,0,0-3.02-3.67-5.73.8-2.71,4.46-1.59,4.14-1.59,4.14,0,0-2.87.8-4.14-1.28h0Z"/><path class="cls-8" d="M630.16,281.94s4.14,2.23,2.71,6.69c0,0,5.57-10.67-2.07-11.63,0,0,1.44,3.35-.64,4.94h0Z"/><path class="cls-8" d="M630.65,271.11s10.04,2.87,10.36,7.17c0,0,1.76-8.29-3.98-10.84,0,0-6.85,1.12-6.38,3.67h0Z"/><path class="cls-8" d="M635.11,257.88c4.3-8.44,9.72,2.71,9.72,2.71,0,0,1.91-8.76-3.5-10.36-5.42-1.59-8.92,18.64-8.92,18.64l-6.38,1.43s1.75-17.68,11.31-19.28l1.11.16"/><path class="cls-8" d="M627.46,262.98s-6.05-12.43-10.2-13.7c-4.14-1.28,2.23-3.19,4.78-.8,2.55,2.39,7.33,5.42,6.85,11.79l-1.43,2.71h0Z"/><path class="cls-8" d="M621.24,280.03s1.75-8.44,6.53-10.99c4.78-2.55,9.24-1.59,9.24-1.59,0,0-5.74,1.27-6.69,4.14-.96,2.87-2.55,3.02-2.55,3.02l-6.53,5.42h0Z"/><path class="cls-10" d="M618.7,285.61s-2.71,5.1-2.07,5.89c0,0-2.87,4.14-1.75,6.21,0,0,2.87,2.23,4.14,1.27,0,0,3.34-4.62,2.39-7.17,0,0,2.23-3.02,1.44-4.94,0,0-3.34.16-4.14-1.28h0Z"/><path class="cls-20" d="M604.68,276.5c.18.09,1.79.87,2.87.51l.77-.66-.61-.3c-.4.79-2.15.14-2.73-.15l-.3.6Z"/><path class="cls-20" d="M604.42,281.45l-.13.67c.14.03,3.37.65,4.91-.72l-.45-.51c-1.29,1.14-4.3.57-4.33.56h0Z"/><path class="cls-20" d="M603.6,287.08l-.4.55s3.8,2.7,6.2-.22l-.53-.43c-2,2.42-5.14.2-5.27.1Z"/><path class="cls-20" d="M589.01,287.89l.14.36c.13-.06,3.32-1.33,3.52-3.66l-.39-.04c-.18,2.09-3.24,3.32-3.27,3.33Z"/><path class="cls-20" d="M590.81,290.8l.03.39c.12,0,3.06-.23,3.58-2.28l-.38-.1c-.44,1.78-3.2,1.99-3.22,1.99Z"/><path class="cls-20" d="M591.42,293.81l-.02.39c.14,0,3.43.18,4.55-1.65l-.33-.21c-1,1.63-4.16,1.46-4.2,1.46Z"/><path class="cls-20" d="M616.38,291.75c.06.06,1.48,1.46,3.14,1.4.81-.03,1.53-.4,2.14-1.1l-.51-.45c-.48.55-1.03.85-1.65.87-1.36.05-2.62-1.19-2.64-1.21l-.48.48h0Z"/></g><g id="palm"><path class="cls-7" d="M715.33,303.4c-.18.07-.35.17-.51.34l.51-.34Z"/><path class="cls-7" d="M727.05,300.46c-.11-.29-.19-.17-.34-.3-.21-.18-.34-.74-.53-.95-.11-.13-.24,0-.36-.04-.27-.6-.6-1.24-.88-1.82.04-.07.07-.15.08-.27,0-.02-.13-.49-.14-.51-.08-.13-.21-.05-.29-.25-.09-.2-.02-.59-.05-.83-.02-.2-.1-.31-.09-.58.01-.24.14-.52.13-.73,0-.13-.16-.43-.21-.54-.19-.46-.35-.88-.37-1.45-.02-.51.08-.82.12-1.26.05-.53-.23-.79-.23-1.27,0-.37.16-.79.21-1.13.06-.46.07-1.12.03-1.59-.03-.45-.16-.72-.09-1.23.02-.12.08-.22.09-.4,0-.12,0-.24,0-.36v-.73c0-.24.02-.5,0-.73-.02-.19-.13-.39-.13-.54,0-.26.16-.38.13-.73-.02-.25-.06-.31-.12-.53-.11-.42-.04-.84-.1-1.28-.03-.21-.1-.28-.12-.53-.03-.29.06-.39.09-.59.03-.2.06-.47.03-.68-.03-.26-.16-.44-.12-.72l-.09,3.2c-.08-2.79-.19-5.37-.19-5.37l-4.24-1.99s-.36,7.79-.27,8.87c.09,1.09.45,8.52.27,9.42-.18.91-.63,5.43-.63,5.43,0,0-2.07,1.45-2.89,3.08-.81,1.63-.63,2.18-.91,2.18l2.02-.31-1.5,1c.31-.12.64-.09.94.15.03.03.26.22.29.22.08,0,.19-.2.29-.24.31-.11.58.48.87.44.16-.02.38-.19.51-.36.11-.14.15-.4.26-.49.1-.09.36.01.46.01.3,0,.6,0,.89,0,.39-.01.71-.57,1.08-.88.34-.29.59-.39.95-.36.4.03.75.4,1.16.42.31.02.52.05.76-.27.17-.22.29-.55.45-.79l1-.16c.2.08.4.17.57.17.26-.01.52-.04.77,0,.1.01.29.24.37.18.05-.04.15-.35.2-.44-.02-.12-.06-.43-.1-.53h0Z"/><path class="cls-7" d="M718.47,303.25c.26,0,.49-.06.71.13.04.07.07.13.1.2.07.05.14.06.21.03.14.1.17.15.33.19.15.03.31,0,.46,0,.19,0,.28.07.45.14.3.12.5,0,.76-.18.3-.22.41-.05.71.23.22.21.17.19.37.05.03-.07.06-.13.1-.19.1-.04.2-.07.3-.09.16-.08.32-.07.48-.13.16-.06.28-.24.45-.21.15.03.32.15.46.19.13.05.19.07.31.16.2-.42.65-.54.93-.74.3-.21.57.04.9.05.17,0,.24-.1.37-.14.14-.05.3.02.43-.03.14-.05.17-.19.32-.21.29-.04.61.43.9.52.16.05.91.22.8-.33-.11-.52-.58-.16-.68-.53-.05-.21.06-.51,0-.74-.06-.21-.29-.46-.43-.51-.18-.06-.28.13-.43-.02-.12-.11-.17-.54-.28-.71-.15.11-.24.2-.43.16-.22-.05-.2-.13-.36-.33-.35-.44-.56.26-.88.15-.25-.08-.48-.7-.67-.96-.1-.13-.39-.57-.54-.48-.25.16-.02.64-.16.85-.09.15-.43,0-.55.02-.19.04-.23.09-.36.32-.28.46-.44.83-.88.78-.21-.02-.36-.23-.56-.16-.21.08-.33.31-.57.34-.17.01-.37.02-.53-.04-.16-.07-.35-.38-.5-.47-.06-.05-.13-.06-.2-.04-.02,0-.24-.14-.25-.14-.26-.08-.24-.07-.35.28-.06.21-.09.44-.16.64-.08.17-.24.38-.34.5-.18.2-.27.14-.51.22-.19.06-.44.36-.55-.02-.15-.58.42-1.44-.22-1.29-.17.04-.27.07-.37.32-.11.29-.02.47-.07.78-.07.39-.82,1.06-.67,1.41.1.25.44-.13.53-.07.15.11.11.36.22.52.23.35.9-.54.94-.06"/><path class="cls-7" d="M715.74,300.17s-.01-.1-.01-.15c-.18-.03-.38-.22-.55-.23-.16,0-.46.37-.57.55-.33.54-.24,1.28-.79,1.27-.13,0-.45-.09-.57-.01-.21.15-.08.58-.08.88,0,.28.13,0-.02.36-.04.1-.18.13-.22.26-.11.47.28.32.46.32.45,0,.89,0,1.33,0,.27,0,.43-.09.68-.19.16-.06.51-.05.65-.2.05-.06.21-.43.23-.52.04-.18-.03-.4,0-.55.07-.27.31-.17.35-.53.11-.89-.83-.22-.68-1.09"/><path class="cls-9" d="M726.45,275.55c0,1.15-.78,2.07-1.76,2.07s-1.75-.92-1.75-2.07.79-2.07,1.75-2.07c.97,0,1.76.93,1.76,2.07Z"/><path class="cls-9" d="M720.71,273c0,1.14-.79,2.07-1.75,2.07s-1.76-.93-1.76-2.07.79-2.07,1.76-2.07,1.75.93,1.75,2.07Z"/><path class="cls-9" d="M723.74,273.79c0,1.15-.79,2.07-1.75,2.07s-1.75-.92-1.75-2.07.78-2.07,1.75-2.07,1.75.93,1.75,2.07Z"/><path class="cls-9" d="M720.81,275.68c0,1.15-.79,2.07-1.76,2.07s-1.75-.93-1.75-2.07.78-2.07,1.75-2.07,1.76.93,1.76,2.07Z"/><path class="cls-9" d="M723.53,277.27c0,1.14-.79,2.07-1.75,2.07s-1.76-.93-1.76-2.07.79-2.07,1.76-2.07c.96,0,1.75.93,1.75,2.07Z"/><path class="cls-8" d="M724.38,254.67s17.68-24.69,36.65.96c0,0,.16,2.55-1.59,5.26l-.48-2.07-1.11.32-.32-1.27-2.08-.16.64-2.71-2.23,1.75.32-1.91-2.55,2.55.32-5.42-2.71,4.62.32-3.18-.95,1.43-.58-1.86-.86,1.86-1.28-.95v1.27l-2.23-1.91-.8,2.55-1.11-2.71-.32,1.91-1.12-2.23-.16,2.39-3.67-1.59.8,2.23-1.75-1.27.32,1.27-2.39-.48.16,1.43-2.55-.48.48,1.27-3.51-.47,1.27,1.43-.35.58s19.16-6.32,20.43,17.58l-3.51,1.75.96-1.91-.96-.64-2.87-2.23.8-3.03-.95.32-.16-1.75-.48.32-1.12-1.75-.32.64-.8-2.07-.8,1.44-.48-3.51-1.27,2.23-.16-1.28-.48.8-1.59-1.91-.47,1.28-.64-.96-.48,1.11-1.75-1.6v1.28l-1.11-.96-.48.64-2.7-1.43-.17,1.27-1.43-1.27-.48,1.27s17.37,9.88,11.95,25.98l-.96,2.07-.31-5.41-1.59,2.87,1.11-6.21-1.11,1.11-.16-2.39-1.43,2.39-.49-2.71-.63.8-.96-4.14-.8,1.76-1.27-4.62-.95,1.91-.64-3.98-.64,2.39-1.91-3.51-.32,1.43-1.11-2.87-.64.96s-3.19-.16-4.14-.96c-.96-.79-3.67,4.78-3.67,4.78l.32-3.35-1.11,2.23v-2.23l-2.07,6.69-.48-4.78-1.11,4.14-.48-1.27-.32,1.75-.64-.64-.56,1.88-1.04-.76v2.55l-.95-1.28-.8,3.82-.48-1.59v1.75l-.8-.95-.8,3.82-1.11-1.59-.16,2.7.47,2.07-1.27-.64.48,3.34s-4.94-9.24.96-18.16c5.89-8.92,13.86-11.31,13.86-11.31l-.8-.79-.16-.8-4.78,2.39.16-1.44-1.28,1.12-.32-1.59-.8,1.43-.16-.64-1.12,1.76-.64-2.55-.79,3.03-.75-2.12-1.64,4.51v-3.34l-1.28,3.51-.48-3.82-.95,4.46v-3.98l-1.44,3.98-.95-3.82-.64,3.66-.95-2.87-.96,4.3-1.43-3.82-.8,5.74-.95-2.23-.16,4.14-1.11-2.55,1.11,5.41-1.43-2.07.48,3.34-2.07-3.67.16,4.31-1.12-1.44-.48,1.59s-.47-16.57,10.83-19.76c11.32-3.19,18.65.96,18.65.96l-4.3-3.5.48-1.12h-1.59l.64-1.28-3.34.16.95-1.28-2.55.32v-.8l-1.59,1.27.64-1.43-2.23,1.43-.14-2.12-1.14,1.8-.63-1.91-5.1,5.1,1.43-5.26-.95,1.12-.16-1.12-1.43,2.23-.32-1.59-.64,1.91-.48-2.23-1.11,2.23-1.12-2.07-.48,2.71-.8-1.44-.96,2.07-1.27-1.28-.16,1.28-2.55-1.12.64,1.91-1.91-1.59-.48,2.55-1.11-1.28-.8,3.19-.8-3.03-.8,2.39s9.96-25.6,35.17-8.9c0,0,2.75,2.68,3.38,4.6.64,1.91.16.32.16.32l-.48-17.69.96,7.65.64-2.71-.16,3.98,2.55-5.58s-3.02,9.24-1.91,12.59c0,0,1.12-10.67,4.94-11.95l-3.51,7.65,1.11-.16-.8,1.6h.96l-1.16,2.53-.6,1.3.64,1.27.96-.96h0Z"/><path class="cls-20" d="M721.75,265.06l.5.45c.07-.07,1.64-1.75,4.29.48l.44-.52c-3.16-2.68-5.22-.44-5.23-.42Z"/><path class="cls-20" d="M720.99,256.38l-.1.61s.91-.39,1.23-.52c-.2.35-.84,1.48-.84,1.48,0,0,1.34-.44,1.83-.61-.8,1.05-2.27,2.97-2.27,2.97l.54.42,3.62-4.74s-1.66.56-2.25.75c.23-.41.96-1.7.96-1.7,0,0-1.48.63-1.94.83.13-.79.4-2.43.4-2.43l-.67-.11-.5,3.04h0Z"/><path class="cls-20" d="M717.61,256.58s.45.99.78,1.72c-.15-.06-1.25-.5-1.25-.5l3.68,6.5s.44-.57.47-.6c-.37.95-.74,1.91-.74,1.91l.64.25,1.58-4.08-.58-.33s-.87,1.11-1.28,1.63c-.34-.61-1.62-2.86-2.22-3.93.08.03,1.02.41,1.02.41,0,0-.69-1.53-1.02-2.24.43.27,1.38.86,1.38.86v-2.42h-.68v1.2c-.53-.33-2.25-1.41-2.25-1.41l.47,1.03h0Z"/><path class="cls-20" d="M715.3,264.75l.27.62c1-.43,1.82-.5,2.44-.2.73.35.95,1.1.95,1.11l.66-.18s-.3-1.06-1.3-1.54c-.8-.39-1.82-.33-3.01.19Z"/><rect class="cls-20" x="717.87" y="268" width=".68" height="3.61" transform="translate(-33.12 114.51) rotate(-8.91)"/><rect class="cls-20" x="722.57" y="268.15" width=".68" height="2.87" transform="translate(-48.15 242.49) rotate(-18.44)"/><rect class="cls-20" x="724.49" y="270.22" width=".68" height="2.8" transform="translate(-44.29 184.43) rotate(-14.08)"/></g><g id="dove"><path class="cls-8" d="M588.81,354.81s-2.99-1.36-4.35-.36c-1.36,1-1.17,2.45-2.35,2.35,0,0,4.53,1,5.52-.18,1-1.17,1.18-1.54,1.18-1.54"/><path class="cls-8" d="M589.36,356.07s-1.97,2.63-1.29,4.17c.68,1.54,2.13,1.67,1.79,2.8,0,0,1.95-4.21,1.01-5.43-.93-1.22-1.25-1.48-1.25-1.48"/><path class="cls-8" d="M586.05,348.79s-3.14.97-3.49,2.62c-.36,1.65.74,2.61-.2,3.32,0,0,4.04-2.27,4.01-3.81-.04-1.54-.14-1.93-.14-1.93"/><path class="cls-8" d="M587.89,349.87s1.49-2.93.55-4.33c-.93-1.41-2.39-1.29-2.25-2.46,0,0-1.2,4.48-.06,5.53,1.14,1.04,1.49,1.24,1.49,1.24"/><path class="cls-8" d="M584.82,348.8s.07-3.28-1.38-4.13c-1.45-.86-2.71-.12-3.09-1.24,0,0,.87,4.56,2.34,5.01,1.48.44,1.88.47,1.88.47"/><path class="cls-8" d="M590.18,354.27s3.44-1.18,3.71,2.53c.27,3.71-.18,2.45-.18,2.45,0,0-1.81-3.98-3.8-4.62l.27-.36Z"/><path class="cls-20" d="M589.31,356.12c0,.08.36,2.89.36,2.89l.48-.06-.36-2.81s1.18-6.17,1.18-6.17l-.48-.09-1.18,6.24h0Z"/><path class="cls-20" d="M586.18,355.21l-.16.46c1.64.58,3.94-1.23,4.04-1.31l-.3-.38s-2.18,1.72-3.57,1.23h0Z"/><rect class="cls-20" x="586.45" y="345.03" width=".68" height="8.62" transform="translate(10.19 715.25) rotate(-63.17)"/><rect class="cls-20" x="584.35" y="349.37" width="2.18" height=".68" transform="translate(-75.9 516.02) rotate(-44.97)"/><rect class="cls-20" x="586.76" y="346.11" width=".68" height="3.89" transform="translate(-91.8 277.86) rotate(-24.76)"/><path class="cls-20" d="M589.88,354.29l.04.68c2.09-.14,2.6,1.21,2.61,1.23l.67-.14c-.08-.39-.92-1.93-3.32-1.77h0Z"/><path class="cls-5" d="M625.18,355.85c2.57-1.44,3.08-6.47,3.08-6.47-.61,1.85-5.34,3.7-5.34,3.7,3.49-2.16,7.69-11.91,7.69-11.91-1.13,3.49-10.26,6.36-16.11,9.65-5.85,3.28-2.77,12.73-2.77,12.73-1.64-1.13-4.82-6.16-5.44-10.58-.62-4.41-2.36-6.15-6.37-6.67-4.01-.51-6.36,4-6.36,4l-5.95,3.08,6.05.2s4.32,1.44,4.32,4.83-3.8,16.94,2.46,24.54c4.36,5.28,20.43,8.31,20.43,8.31"/><path class="cls-5" d="M613.38,366.32s1.23-6.06,5.23-5.85c4,.2,5.13-4.51,7.49-5.23,2.36-.72,14.58-4,15.91-9.85,0,0-1.13,9.65-12.32,14.48,0,0,9.03-2.98,10.06-4.93,0,0-4.01,8.62-13.76,9.96,0,0,9.14-.72,10.47-3.18,0,0-4.11,5.44-10.88,6.16,0,0,6.26,2.57,7.9.41,0,0-3.39,4-7.6,4.31l1.13.31s-4,4.72-8.42,1.54c-4.41-3.18-4.52.82-4.52.82"/><path class="cls-5" d="M622.5,375.45s5.16,8.62,5.67,13.24c0,0,9.86,10.88,13.55,11.49,0,0-1.75.72-4.93-1.95,0,0,2.67,2.77,3.18,2.88.51.11-2.16-.21-2.57-.93,0,0,1.13,1.65,1.85,1.85.72.21-.72-.2-.72-.2,0,0-1.34-.21-1.95-.72-.62-.51-.21,1.33-.21,1.33,0,0-1.54-.41-2.05-.92-.51-.51.21,1.13.21,1.13l-1.33-.31-.92.61s-.1.62-.72.1c-.61-.51-1.74,0-1.74,0,0,0-.82.72-1.23.21-.41-.51-1.96,1.97-1.96,1.97l-6.46-15.6"/><rect class="cls-20" x="624.49" y="386.97" width=".97" height="17.56" transform="translate(-112.35 336.07) rotate(-27.72)"/><rect class="cls-20" x="628.65" y="384.07" width=".97" height="20.98" transform="translate(-102.92 519.37) rotate(-41.77)"/><rect class="cls-20" x="630.83" y="382.64" width=".97" height="21.8" transform="translate(-87 587.08) rotate(-47.02)"/><path class="cls-20" d="M598.99,351.26s-1.04-1.86-1.95-1.16c-.9.7-1.42.83-1.58.78,0,0,.91.05,1.43-.44.52-.5,1.4-.18,2.1.83h0Z"/><path class="cls-20" d="M593.35,350.41s.57,1.18.58,1.2c-.06,0-.65,1.91-.65,1.91l.47.14.63-2.07c-.01-.18-.59-1.39-.59-1.39l-.44.21h0Z"/><path class="cls-20" d="M598.75,350.98s-.78.91-1.84.65l-1.06-.26s.9.05,1.5.08c.59.02,1.37-.29,1.4-.47Z"/><path class="cls-20" d="M598.49,351.16s-.96-1.01-1.61-.73c0,0,1.14-.36,1.79.62l-.18.11Z"/><path class="cls-20" d="M598.33,350.98s-1.09.75-2.28-.08l-.07-.06.16-.05s1.5.62,2.2.18Z"/><circle class="cls-20" cx="597.41" cy="350.79" r=".32"/><path class="cls-20" d="M598.28,379.47s-.84,1.55-.4,2.48c.45.93,2.44,1.42,2.71,2.66.27,1.25.93,1.24,1.87,1.07.93-.18,1.11-.22,1.11-.22,0,0-3.91-2.09-4.93-5.46l-.35-.53Z"/></g><g id="bananas"><path class="cls-14" d="M724.65,347.89s7.12-9.38,13.43-6.92c6.31,2.47,10.41,3.65,10.41,3.65,0,0,.12,6.32-3.24,6.32s-6.56-6.31-9.61-4.44c-3.06,1.87-5.57,4.44-5.76,5.32-.2.89-8.08,1.08-5.23-3.94h0Z"/><path class="cls-10" d="M697.64,393.14s-1.97,2.07-1.08,2.56c.89.49,2.66-.1,2.66-.79,0-.69-1.18-1.97-1.58-1.77h0Z"/><path class="cls-10" d="M696.07,395.11s-3.65-2.08-6.5,2.85c-2.86,4.93-5.23,12.92-6.9,14-1.67,1.08,16.27-7.89,16.46-11.63,0,0,1.18-4.83-.69-4.74-1.87.1-1.97.3-2.37-.49h0Z"/><path class="cls-14" d="M696.56,395.7s-3.74.88-4.53,6.2c-.79,5.33-6.01,8.09-6.31,8.28"/><path class="cls-14" d="M748.5,344.63s-5.7,1.98-4.71,5.93"/><path class="cls-11" d="M704.75,356.17s.2-13.51,11.23-12.92c2.09.19,1.09,2.66,1.09,2.66,0,0,2.39-1.67,3.48.99,0,0,3.48-1.58,3.88,1.88,0,0,3.78-.49,3.28,2.56,0,0,2.58-.59,2.49,1.58,0,0,2.98-1.18,2.68,1.87,0,0,3.28-2.17,2.79,1.77,0,0,3.38-2.36,4.57,1.58,1.19,3.94-3.38,12.32-7.85,14.49"/><path class="cls-20" d="M735.41,356.99c.02.11,1.49,10.57-4.44,14.39l.21.33c6.15-3.97,4.63-14.67,4.62-14.78l-.39.06h0Z"/><path class="cls-20" d="M728.26,368.44l.27.28c3.76-3.66,4.57-13.51,4.59-13.92l-.38-.03c0,.1-.83,10.12-4.48,13.68h0Z"/><path class="cls-20" d="M724.76,366.1l.39.03c.48-6.08,5.24-13.04,5.29-13.11l-.32-.22c-.05.07-4.86,7.11-5.36,13.3h0Z"/><path class="cls-20" d="M722,364.33l.39.04c.68-7.34,5.52-12.85,5.57-12.9l-.29-.26c-.05.05-4.98,5.65-5.67,13.12h0Z"/><path class="cls-20" d="M718.15,361.87h.39c.39-8.65,6.07-12.9,6.13-12.94l-.23-.31c-.05.04-5.89,4.4-6.28,13.26h0Z"/><path class="cls-20" d="M714.6,359.72h.39c-.28-7.9,5.78-12.62,5.84-12.67l-.24-.31c-.06.05-6.28,4.89-6,12.98h0Z"/><path class="cls-20" d="M708.2,356.84l.38.05c1.06-8.54,8.65-10.76,8.73-10.78l-.11-.37c-.08.02-7.92,2.31-9.01,11.1h0Z"/><path class="cls-13" d="M698.24,372.53s-1.87-12.52,5.62-16.46c0,0,1.38-.3,2.17,1.48,0,0,3.95-1.67,4.04,1.67,0,0,1.97-1.58,2.46.59,0,0,4.24-.88,3.45,2.27,0,0,3.55-.99,3.25,2.07,0,0,3.55-1.28,2.96,1.38,0,0,3.74-.88,2.86,2.17,0,0,4.64-.49,3.25,2.76,0,0,3.45-.89,2.66,1.78,0,0,4.54.79,2.46,3.65-2.07,2.86-7.3,7.19-12.42,9.07"/><path class="cls-13" d="M694.19,385.15s-3.06-10.44,2.76-13.11c0,0,1.08-.3,1.28.79,0,0,1.28-1.68,2.27-.2,0,0,2.95-1.38,3.65.79,0,0,1.97-1.68,2.96.78,0,0,1.87-.78,1.87,1.18,0,0,2.56-1.08,2.56,1.28,0,0,2.46-.99,1.97,1.67,0,0,3.75.59,2.66,2.36,0,0,3.36.88,2.07,2.27,0,0,3.65-.39,1.67,2.07,0,0,2.76-.88,1.18,2.17-1.58,3.05-6.5,6.4-9.96,6.8"/><path class="cls-13" d="M697.84,393.42s-6.5-6.31-3.45-8.18c0,0,1.37.39,1.87,1.77,0,0,1.58-2.27,2.47.1,0,0,2.37-.79,2.37.79l1.87,1.38s2.17-.2,1.78,1.18c0,0,2.37-.3,2.27.99,0,0,2.07.1,1.88,1.48,0,0,3.54.59,1.97,2.37,0,0-6.21,1.28-10.55-.49,0,0-2.27-.79-2.47-1.38h0Z"/><path class="cls-20" d="M720.15,383l.14.36c3.85-1.48,10.55-10.62,10.83-11.01l-.31-.23c-.07.1-6.91,9.44-10.66,10.88h0Z"/><path class="cls-20" d="M717.96,381.33l.19.34c3.35-1.87,10.03-10.72,10.31-11.09l-.31-.23c-.07.09-6.91,9.16-10.19,10.99h0Z"/><path class="cls-20" d="M716.06,380.56l.25.3c3.54-2.94,8.7-12.65,8.92-13.06l-.34-.18c-.05.1-5.34,10.06-8.83,12.95h0Z"/><path class="cls-20" d="M714.32,378.32l.39.05c.67-4.91,7.57-12.64,7.64-12.71l-.29-.26c-.29.32-7.05,7.89-7.73,12.92h0Z"/><path class="cls-20" d="M700.51,372.35l.39-.03c-.58-6.93,5.23-14.57,5.28-14.65l-.31-.23c-.06.08-5.96,7.83-5.36,14.92Z"/><path class="cls-20" d="M704.16,372.96l.39-.07c-.96-5.56,5.61-13.47,5.67-13.54l-.3-.25c-.28.33-6.75,8.12-5.76,13.86h0Z"/><path class="cls-20" d="M709.78,375h.39c-.19-6.36,5.9-12.72,5.96-12.78l-.28-.27c-.06.06-6.27,6.55-6.07,13.06h0Z"/><path class="cls-20" d="M696.38,386.5l.36-.14c-2.21-5.86,1.63-13.37,1.67-13.45l-.35-.18c-.04.08-3.95,7.73-1.68,13.76h0Z"/><path class="cls-20" d="M698.94,386.88l.37-.12c-1.93-5.97,1.34-13.98,1.37-14.06l-.36-.15c-.03.08-3.35,8.22-1.38,14.33h0Z"/><path class="cls-20" d="M709.5,392.85l.13.37c6.29-2.26,10.4-8,10.44-8.05l-.32-.23c-.04.06-4.08,5.7-10.26,7.91h0Z"/><path class="cls-20" d="M708.21,391.48l.16.36c5.02-2.26,9.69-8.58,9.74-8.64l-.31-.23c-.05.06-4.66,6.29-9.59,8.51h0Z"/><path class="cls-20" d="M706.99,391.01l.23.32c3.92-2.84,8.96-10.13,9.02-10.2l-.32-.22c-.05.07-5.05,7.3-8.93,10.11h0Z"/><path class="cls-20" d="M700.7,387.35l.39-.06c-.87-6.27,3.19-13.7,3.23-13.78l-.34-.19c-.04.08-4.16,7.62-3.28,14.02h0Z"/><path class="cls-20" d="M703.43,389.04l.26.29c4.05-3.65,5.43-13.5,5.48-13.92l-.39-.05c-.01.1-1.41,10.13-5.36,13.69h0Z"/><path class="cls-20" d="M706.21,390.21l.23.31c5.71-4.13,7.26-12.07,7.27-12.14l-.38-.07c-.02.08-1.53,7.86-7.12,11.9h0Z"/><path class="cls-20" d="M706.87,373.11c0,.37.02.74.05,1.11,0-.03-4.33,14.02-4.33,14.02l.37.11,4.34-14.1c-.67-6.81,5.32-14.25,5.38-14.33l-.3-.24c-.06.07-5.52,6.84-5.52,13.42h0Z"/><path class="cls-20" d="M711.4,376.54c-.06.2-1.38,9.82-6.57,13.37l.22.32c5.34-3.65,6.63-13.14,6.69-13.54,2.3-2.74,7.61-12.35,7.67-12.45l-.34-.19c-.05.1-5.34,9.68-7.67,12.49h0Z"/><path class="cls-20" d="M696.07,387.06c.04.2.91,4.98,1.9,6.67l.33-.2c-.96-1.63-1.84-6.49-1.85-6.54l-.39.07h0Z"/><path class="cls-20" d="M698.53,387.12c.04,2.38.05,6.29-.08,6.63l.36.14c.2-.5.12-5.73.11-6.78h-.39s0,0,0,0Z"/><path class="cls-20" d="M698.75,393.94l.35.16c1.67-3.63,2.18-6.13,2.19-6.15l-.38-.08s-.51,2.49-2.16,6.07Z"/><path class="cls-20" d="M699.12,394.05l.2.33c3.09-1.8,3.81-4.92,3.83-5.05l-.38-.09s-.71,3.1-3.65,4.8h0Z"/><path class="cls-20" d="M699.7,394.32l.04.38c3.03-.3,5.09-3.98,5.18-4.14l-.34-.19s-2.05,3.66-4.88,3.94h0Z"/><path class="cls-20" d="M700,394.51l.02.39c4.86-.3,7.05-3.21,7.14-3.33l-.31-.23s-2.18,2.89-6.85,3.17h0Z"/><path class="cls-20" d="M700.35,394.62l-.08.38c.26.06,6.46,1.37,8.58-1.86l-.33-.21c-1.97,3.01-8.12,1.7-8.18,1.69h0Z"/></g><path class="cls-3" d="M561.25,167.9v173.38c0,56.71,102.46,90.38,102.46,90.38,0,0,102.46-33.67,102.46-90.38v-173.38h-204.93Z"/></g><rect class="cls-19" y=".19" width="450" height="300"/><g class="cls-16"><line class="cls-18" x1="-10.29" y1="-4.55" x2="456.86" y2="306.84"/><line class="cls-18" x1="-9.6" y1="306.84" x2="457.55" y2="-4.55"/><polyline class="cls-24" points="224.13 128.27 241.46 139.82 458.05 -4.55 448.83 -21.51"/><polyline class="cls-24" points="-9.25 307.48 -.38 323.8 223.63 174.48 206.3 162.93"/><polygon class="cls-21" points="-21.48 12.89 -11.08 -6.23 209.01 139.82 188.97 153.18 -21.48 12.89"/><polygon class="cls-21" points="238.26 162.93 258.29 149.57 468.06 289.4 457.4 309 238.26 162.93"/><polygon class="cls-21" points="221.43 128.27 449.36 -23.67 460.02 -4.06 241.46 141.62 221.43 128.27"/><polygon class="cls-21" points="-11.23 306.99 206.3 161.12 226.34 174.48 -.91 325.96 -11.23 306.99"/><polygon class="cls-24" points="223.63 151.37 240.96 162.93 258.29 151.37 240.96 139.82 223.63 151.37"/><polygon class="cls-24" points="223.63 151.37 206.3 139.82 188.97 151.37 206.3 162.93 223.63 151.37"/><polygon class="cls-24" points="223.63 151.37 240.96 139.82 223.63 128.27 206.3 139.82 223.63 151.37"/><polygon class="cls-24" points="223.63 151.37 206.3 162.93 223.63 174.48 240.96 162.93 223.63 151.37"/><rect class="cls-15" x="-4.71" y="110.19" width="457.98" height="80"/><rect class="cls-15" x="184.31" y=".76" width="80" height="299.24"/><rect class="cls-21" x="200.02" y=".76" width="48" height="299.24"/><rect class="cls-21" x="200.66" y="-79.77" width="48" height="460.29" transform="translate(74.28 375.04) rotate(-90)"/></g><rect class="cls-17" width="450" height="300"/><rect class="cls-17" width="450" height="300"/></svg>