<?xml version="1.0" encoding="UTF-8"?><svg id="_色修正" xmlns="http://www.w3.org/2000/svg" viewBox="0 0 900 600"><defs><style>.cls-1{stroke-width:.3px;}.cls-1,.cls-2,.cls-3,.cls-4,.cls-5,.cls-6,.cls-7,.cls-8,.cls-9,.cls-10,.cls-11,.cls-12,.cls-13,.cls-14,.cls-15,.cls-16,.cls-17{stroke:#040000;}.cls-1,.cls-2,.cls-3,.cls-4,.cls-5,.cls-8,.cls-13,.cls-14,.cls-18{fill:#fff;}.cls-1,.cls-3,.cls-4,.cls-5,.cls-6,.cls-7,.cls-8,.cls-9,.cls-10,.cls-11,.cls-12,.cls-13,.cls-15,.cls-16,.cls-17{stroke-linejoin:round;}.cls-1,.cls-3,.cls-4,.cls-5,.cls-6,.cls-7,.cls-9,.cls-10,.cls-11,.cls-12,.cls-13,.cls-15,.cls-16,.cls-17{stroke-linecap:round;}.cls-2{stroke-width:1.04px;}.cls-2,.cls-14,.cls-19{stroke-miterlimit:10;}.cls-3{stroke-width:.15px;}.cls-4,.cls-9{stroke-width:.11px;}.cls-5,.cls-10{stroke-width:.24px;}.cls-6{stroke-width:.26px;}.cls-6,.cls-7,.cls-9,.cls-10,.cls-11,.cls-12,.cls-15,.cls-16,.cls-19,.cls-17{fill:none;}.cls-7{stroke-width:.13px;}.cls-8,.cls-14,.cls-17{stroke-width:.52px;}.cls-11{stroke-width:.09px;}.cls-12{stroke-width:.17px;}.cls-13,.cls-15{stroke-width:.39px;}.cls-16{stroke-width:.2px;}.cls-20{fill:#211815;}.cls-20,.cls-21,.cls-18{stroke-width:0px;}.cls-21{fill:#e50012;}.cls-19{stroke:#b12f33;stroke-width:5.56px;}</style></defs><path class="cls-18" d="M0,0h900v600H0V0Z"/><path class="cls-21" d="M450,0h450v600h-450V0Z"/><path class="cls-19" d="M90.28,34.72h44.44v42.22c6.06-.43,11.95,4.22,13.15,10.38.19.99.26,1.98.19,2.96h42.22v44.44h-42.22c.43,6.06-4.22,11.95-10.38,13.15-.99.19-1.98.26-2.96.19v42.22h-44.44v-42.22c-6.06.43-11.95-4.22-13.15-10.38-.19-.99-.26-1.98-.19-2.96h-42.22v-44.44h42.22c-.43-6.06,4.22-11.95,10.38-13.15.99-.19,1.98-.26,2.96-.19v-42.22Z"/><path class="cls-18" d="M134.46,76.96c6.03-.58,12.01,3.94,13.36,10.09.25,1.16.33,2.34.22,3.48v43.92c.58,6.03-3.94,12.01-10.09,13.36-1.16.25-2.34.33-3.48.22h-43.92c-6.03.58-12.01-3.94-13.36-10.09-.25-1.16-.33-2.34-.22-3.48v-43.92c-.58-6.03,3.94-12.01,10.09-13.36,1.16-.25,2.34-.33,3.48-.22h43.92Z"/><path class="cls-14" d="M90.54,34.98h43.92v155.03h-43.92V34.98ZM34.98,90.54h155.03v43.92H34.98v-43.92Z"/><path class="cls-2" d="M93.06,37.5h38.89v150h-38.89V37.5ZM37.5,93.06h150v38.89H37.5v-38.89Z"/><circle class="cls-2" cx="112.5" cy="112.5" r="34.72"/><circle class="cls-2" cx="112.5" cy="112.5" r="25.69"/><g id="a"><path class="cls-8" d="M145.96,84.67c-1.2.92-3.49,3.28-4.88,5l-1.29-.8c1.77-1.53,4.22-3.8,5.58-5.41l.6,1.22ZM144.87,82.66c-2.18.64-6.35,1.87-8.13,2.99l-.39-.56c.75-1.07,1.6-5.49,1.56-6.75l1.36.3c-.44,1.09-.88,3.41-1,4.92,1.4-.25,4.72-1.33,5.66-2.02l.93,1.12Z"/><path class="cls-8" d="M147.66,87.63h-1.72c.38-2.23-1.65-5.54-4.53-7.4-2.88-1.86-5.52-1.56-5.89.67s1.65,5.54,4.53,7.4c1.13.73,2.27,1.15,3.26,1.21l1.22-1.45,1.5,1.5-1.68,1.68c-6.03-.9-10.83-6.46-10.71-12.43.01-.5.06-1,.14-1.49,5.78-.96,11.87,3.09,13.59,9.05.12.42.22.84.29,1.27Z"/></g><g id="a-2"><path class="cls-8" d="M140.33,145.96c-.92-1.2-3.28-3.49-5-4.88l.8-1.29c1.53,1.77,3.8,4.22,5.41,5.58l-1.22.6ZM142.34,144.87c-.64-2.18-1.87-6.35-2.99-8.13l.56-.39c1.07.75,5.49,1.6,6.75,1.56l-.3,1.36c-1.09-.44-3.41-.88-4.92-1,.25,1.4,1.33,4.72,2.02,5.66l-1.12.93Z"/><path class="cls-8" d="M137.37,147.66v-1.72c2.23.38,5.54-1.65,7.4-4.53,1.86-2.88,1.56-5.52-.67-5.89s-5.54,1.65-7.4,4.53c-.73,1.13-1.15,2.27-1.21,3.26l1.45,1.22-1.5,1.5-1.68-1.68c.9-6.03,6.46-10.83,12.43-10.71.5.01,1,.06,1.49.14.96,5.78-3.09,11.87-9.05,13.59-.42.12-.84.22-1.27.29Z"/></g><g id="a-3"><path class="cls-8" d="M79.04,140.33c1.2-.92,3.49-3.28,4.88-5l1.29.8c-1.77,1.53-4.22,3.8-5.58,5.41l-.6-1.22ZM80.13,142.34c2.18-.64,6.35-1.87,8.13-2.99l.39.56c-.75,1.07-1.6,5.49-1.56,6.75l-1.36-.3c.44-1.09.88-3.41,1-4.92-1.4.25-4.72,1.33-5.66,2.02l-.93-1.12Z"/><path class="cls-8" d="M77.34,137.37h1.72c-.38,2.23,1.65,5.54,4.53,7.4,2.88,1.86,5.52,1.56,5.89-.67s-1.65-5.54-4.53-7.4c-1.13-.73-2.27-1.15-3.26-1.21l-1.22,1.45-1.5-1.5,1.68-1.68c6.03.9,10.83,6.46,10.71,12.43-.01.5-.06,1-.14,1.49-5.78.96-11.87-3.09-13.59-9.05-.12-.42-.22-.84-.29-1.27Z"/></g><g id="a-4"><path class="cls-8" d="M84.67,79.04c.92,1.2,3.28,3.49,5,4.88l-.8,1.29c-1.53-1.77-3.8-4.22-5.41-5.58l1.22-.6ZM82.66,80.13c.64,2.18,1.87,6.35,2.99,8.13l-.56.39c-1.07-.75-5.49-1.6-6.75-1.56l.3-1.36c1.09.44,3.41.88,4.92,1-.25-1.4-1.33-4.72-2.02-5.66l1.12-.93Z"/><path class="cls-8" d="M87.63,77.34v1.72c-2.23-.38-5.54,1.65-7.4,4.53-1.86,2.88-1.56,5.52.67,5.89s5.54-1.65,7.4-4.53c.73-1.13,1.15-2.27,1.21-3.26l-1.45-1.22,1.5-1.5,1.68,1.68c-.9,6.03-6.46,10.83-12.43,10.71-.5-.01-1-.06-1.49-.14-.96-5.78,3.09-11.87,9.05-13.59.42-.12.84-.22,1.27-.29Z"/></g><path class="cls-20" d="M84.93,131.92c-.78-1.37-1.81-3.11-2.38-3.57.35-.24.81-.59,1.05-.65-.01.87,1.3,2.67,1.3,2.67l1.93-1.27c-.54-.84-1.02-1.48-1.41-1.73.48-.35.99-.64,1.13-.67.01.42.26,1.13,1,2,0,0,1.8-.95,2.39-1.69l.76,1.24c-.85.16-4.64,2.53-5.77,3.68ZM82.25,115.46c-2.03.37-3.06,2.09-2.71,4.04.35,1.96,2.11,3.31,4.04,2.98,1.93-.34,3.03-2.12,2.66-4.18s-1.95-3.21-3.98-2.84ZM82.54,116.63c1.63-.29,2.99.5,3.22,1.76s-.78,2.51-2.42,2.8c-1.64.29-2.94-.75-3.12-1.8-.2-1.07.68-2.46,2.32-2.76ZM86.51,104.7c-.67,1.06-2.16,2.04-3.47,2.94-.18-.93-.88-1.53-1.68-1.58-.86-.04-1.74.64-1.89,1.1-.22.63-.49,3.33-.49,3.33,1.69-.13,5.39.16,6.66.63l.15-1.43c-.84.22-2.72-.17-2.72-.17l.04-.63,1.95-1.54c.25-.2,1.71-1.56,1.76-2.54.01-.3-.25-.23-.31-.1ZM82.6,109.48c-.77.02-2.38-.07-2.82-.26.17-1.55.65-2.11,1.48-2.03.76.08,1.56.51,1.35,2.29ZM90,90.26c-1.48.12-3.32,1.51-3.28,2.7.01.63.23,1.5,1.06,2.13.82.63,1.68.81,2.37.68.66-.12,1.76-1.04,1.75-1.55,0-.5-1.17-1.89-1.91-1.89l1.23-1.31c.31.76,1.57,1.87,2.04,2.01-.53,1.27-1.19,2.59-2.58,3.23-1.39.65-2.83.62-4.14-.62-1.24-1.17-.76-3.43.02-4.31.86-.97,2.45-1.38,2.48-2.13l.97,1.05ZM96.92,82.95l.26,4.93s.1,1.75-.3,2.83l1.53-1.07c-.6-.48-.48-1.94-.48-1.94l2.47-1.32s1.17.75,1.05,1.66l2.11-.86c-1.23-.47-2.75-1.54-2.75-1.54l-3.9-2.68ZM97.71,84.48l2.26,1.5-2.2,1.18-.05-2.68ZM108.76,79.34c-.28,1.2.02,3.58.47,5.56,1.53-.14,2.7-.29,3.22-.94l.14,1.63c-1.51,0-3.17.17-4.69.41.02-2.22-.21-5.14-.84-6.4l1.69-.25ZM120.25,80.07c-.71,1.02-1.29,3.34-1.6,5.34,1.48.43,2.63.72,3.35.29l-.47,1.57c-1.4-.54-3.02-1-4.51-1.33.82-2.05,1.68-4.86,1.56-6.25l1.66.38ZM131.87,85.33l-4.3,2.44s-1.52.88-2.67,1.01l1.64.87c.16-.74,1.53-1.29,1.53-1.29l2.3,1.62s-.15,1.4-1.02,1.69l1.7,1.5c-.12-1.3.15-3.16.15-3.16l.66-4.68ZM130.85,86.72l-.34,2.7-2.05-1.44,2.39-1.26ZM134.15,96.83l-.67-1.27c1.11-.09,4.44-2.04,5.97-3.04l.24.43-1.43,6.54c1.28-.51,3.31-1.57,3.86-2.16l.76,1.44c-1.42-.21-4.06,1.1-6.05,2.31l-.2-.35,1.23-6.37s-3.31,1.5-3.7,2.45ZM144.24,106.29c-.13-.97-.15-1.63-.62-1.84l-.05-.4,1.18-.2c.49,1.27,1.04,4.81.97,5.72l-1.22.2-.05-.34c.4-.46,0-2.13,0-2.13-1.8.18-4.94.69-5.38,1.31l-.28-1.67c.64.22,3.8-.12,5.46-.65ZM138.41,120.66c.67-1.06,2.18-2.03,3.49-2.92.18.93.87,1.54,1.68,1.58.86.05,1.74-.61,1.89-1.07.23-.63.51-3.32.51-3.32-1.69.11-5.38-.21-6.65-.68l-.16,1.43c.84-.21,2.72.18,2.72.18l-.04.63-1.96,1.53c-.26.2-1.74,1.55-1.79,2.53-.01.3.25.22.31.11ZM142.37,115.9c.77-.01,2.38.09,2.82.28-.18,1.55-.67,2.11-1.5,2.02-.76-.09-1.55-.52-1.32-2.3ZM136.23,124.97l-1.01,1.74c.78-.12,1.87.5,2.75,1.07.29.78,1.44,2.78,1.36,4.73l1.3-2.24c-.58-.26-1.25-.54-1.68-2.64,1.71-.64,2.99-.85,3.54-.54l1.15-1.95c-1.33.8-4.47,1.63-4.99,1.45-.54-.31-2.08-.79-2.41-1.63Z"/><circle class="cls-20" cx="128.5" cy="138.12" r="1.36"/><circle class="cls-20" cx="96.5" cy="138.12" r="1.36"/><path class="cls-20" d="M114.62,145.62c-.14.1-.52-.1-.61-.4,0,.1-.02.4-.21.58-.44.42-.92.22-1.3.22s-.86.21-1.3-.22c-.18-.17-.21-.48-.21-.58-.09.3-.47.5-.61.4-.13-.1-.07-.52.2-.69-.09.02-.39.1-.61-.02-.54-.29-.49-.81-.61-1.17s-.47-.75-.2-1.3c.11-.23.39-.35.48-.38-.31.01-.61-.29-.56-.44.05-.16.48-.23.73-.03-.07-.08-.22-.34-.17-.59.11-.61.62-.72.92-.94.31-.23.58-.67,1.18-.59.25.03.44.26.51.34-.11-.29.09-.67.25-.67s.36.38.25.67c.07-.08.26-.3.51-.34.61-.09.87.36,1.18.59.3.23.81.34.92.94.04.25-.11.51-.17.59.25-.2.67-.13.73.03.04.15-.25.46-.56.44.09.03.37.15.48.38.27.55-.08.94-.2,1.3s-.07.88-.61,1.17c-.22.12-.52.04-.61.02.26.17.33.6.2.69ZM111.49,144.1c.17.13-.29.52-.11,1.01.21.58.78.4,1.12.4s.91.17,1.12-.4c.18-.49-.28-.88-.11-1.01s.41.43.92.42c.62-.03.63-.62.73-.94.11-.33.46-.81-.03-1.19-.4-.33-.93,0-1-.21s.54-.25.69-.75c.16-.6-.4-.78-.67-.99-.28-.2-.64-.67-1.15-.34-.42.29-.28.89-.5.89s-.08-.6-.5-.89c-.51-.34-.87.14-1.15.34-.27.21-.84.39-.67.99.15.5.76.54.69.75s-.6-.12-1,.21c-.49.38-.14.87-.03,1.19.1.33.11.91.73.94.51.01.75-.55.92-.42Z"/><path class="cls-20" d="M112.5,144.87c-.1,0-.22-.23-.15-.41-.03.05-.15.18-.3.21-.37.05-.52-.22-.71-.35-.18-.14-.49-.21-.55-.56-.03-.15.07-.31.1-.36-.15.12-.4.08-.43-.02-.03-.09.15-.27.34-.27-.05-.01-.22-.09-.28-.22-.16-.34.04-.56.12-.78.07-.22.03-.53.36-.71.13-.08.31-.03.37-.01-.16-.11-.2-.36-.12-.42.09-.05.31.07.37.24,0-.05.01-.24.12-.34.27-.26.55-.13.78-.13s.51-.13.78.13c.11.1.12.28.12.34.05-.17.28-.29.37-.24.08.07.04.31-.12.42.05-.02.24-.07.37.01.33.17.29.49.36.71.08.22.28.44.12.78-.07.13-.23.21-.28.22.18,0,.37.18.34.27-.03.1-.28.14-.43.02.03.04.13.21.1.36-.07.36-.37.42-.55.56-.18.13-.34.4-.71.35-.15-.02-.27-.15-.3-.21.07.18-.05.41-.15.41ZM112.5,143.63c.12,0,.04.33.27.48.27.18.47-.07.62-.17s.46-.22.36-.53c-.08-.27-.4-.29-.37-.41.03-.11.31.07.54-.11.26-.21.08-.47.02-.64-.07-.17-.07-.5-.4-.51-.28-.01-.4.29-.5.23s.16-.28.07-.54c-.12-.31-.42-.22-.61-.22s-.49-.1-.61.22c-.1.26.16.48.07.54s-.22-.24-.5-.23c-.34.01-.34.34-.4.51-.05.17-.24.43.02.64.23.17.51,0,.54.11.03.12-.29.14-.37.41-.1.31.21.42.36.53s.35.36.62.17c.23-.15.15-.48.27-.48Z"/><circle class="cls-20" cx="112.5" cy="142.71" r=".52"/><path class="cls-17" d="M94.81,131.14c11.79-.48,23.59-.48,35.37,0"/><path class="cls-6" d="M111.18,99.76c.8.89.89,1.12.89,1.12M113.55,115.02c-.05.92-.01,1.88.14,2.37M111.33,115.17c.35.38.81,1.69.75,2.18"/><path class="cls-13" d="M118.65,131c-.42.13-1.16.55-1.15.93.01.37.88.42,1.14.5-.47.2-1.95.48-2.62.14-.48.28-3.88-.5-4.58-.52-.43-.01-1.05-.38-.98-1.22.01-.18.13-.61.54-.75-.24-.41.81-1.11,1.86-1.74-1.56.21-3.53-.4-4.03-1-1.19-.41-1.71-.01-2.21,1.03.04,1.79-.95,2.64-2.15,2.5-.81-.1-.99.28-1.2.37l2.43.75c1.58,1.53.65,2.65.3,2.93-.34.27-1.24.14-1.77.14s-.54.16-.77.28c-.38.2-.76.3-.92.13.1-.25.25-1.23.9-1.38.39-.03,1.1-.22,1.12-.59.01-.36-1.3-.3-2.33-.69-.87-.33-1.16-.77-.85-2.13.25-1.51,2.02-1.68,2.88-1.69-.12-.64-.04-1.75.76-2.47,1.17-1.07,2.98-.68,4.52-.59.88-.49,2.51-1.22,4.1-1.28,1.43-.05,7.78-1.69,10.67-1.38-.65-.97-.5-3.24.68-3.92,1.51-.85,3.14,1.44,3.53,1.04.39-.41-.49-1.01-1.6-2.16-.27-.51-.22-.44-.23-.61-.02-.37.07-.81.21-.91.13-.09,1.03.25,1.25.58.29.44.66.65.95.41.38-.29-.11-.18-.33-.82-.11-.31-.36-.56-.35-.88.22-.25,1.06-.94,1.73-1.16.27.26.44.61.66.95.53.8,1.02.59,1.38,1.13.13.22.13.79.39,1.28.47.9,1.39,1.92,2.6,2.65.18.12.44.35.47.53.03.28-.2.56-.3.69-.15.2-.69.21-1.22-.04-.79-.38-1.07-.58-1.54-.51-1.02.15-1.69,1.78-3.14,1.8-1.37-.2-2.29-2.16-3.09-1.58-.79.58,1.87,2.26,1.54,2.96.23.17.6.76.51,1.25,1.36-.29,2.44-1.22,2.84-1.96.69-.97,1.25-1.51,1.66-1.68.4-.17.92.08.92.39.15-.03.38.15.66.2.41.2.25.6.13.74-.01-.07-.23-.14-.43-.24-.22-.09-.55.18-.87.44-.31.25-.54.86-.86,1.25-.31.38-1.13,1.16-1.48,1.58.2.29.1.84.13,1.1.08,0,.34.07.49.17.14.11.12.23.05.52-.1.36-1.44,1.96-1.83,1.95-.6,0-.98-.71-.92-1-.65.3-.94-.41-.97-.67-.25.34-1.24.88-1.6,1.01-.35.13-.49.17-.6-.29-.11.31-.99.64-1.19.68-1.14.23-2.3.73-3.43.72l-2.77-.05.27.18Z"/><path class="cls-5" d="M122.56,120.49c.01.43-.62,1.55.3,2.34.56.48,1.55.88,1.88,1.5.27.52-.11.99-.23.95-.61-.13-1.41.92-1.7,1.64-.34-1.01-1-.76-1.84-.62.23-1.05-.62-1.71-1.92-1.89.22-.22-.14-.55-.46-.84-.33-.28-1.35-.05-1.44-.28s.49-.66.2-1.13c-.28-.48-1.51-.2-1.9-.36.09-.59.15-.91-.14-1.43-.3-.53-1.68-.37-2.35-.52.55-.39.8-.97.5-1.6-.31-.65-1.77.12-1.76-.75.04-.3,1.7-.55,2.38-.6.62-.03,2.79.47,4.81.95.48.4,3.65,1.38,3.69,2.62Z"/><path class="cls-15" d="M127.96,128.75c1.01-.5,2-1.15,3.05-2.07M112.09,125.91c.91.04,2.88.34,3.44,1.09.56.76.92,1.96-2.99,2.98,1.17.01,2.93-.28,3.55-.13.55-.1,1.81-.51,2.34-.34-.21.1-.87.28-.89.67s.28.46.85.63M122.16,128.19c1.36.26,3.33-.14,3.61,1.28"/><path class="cls-6" d="M126.76,117.11c.42.41,1.44,1.13,2,1.52.73.51,1.06-.13.5-1.05"/><path class="cls-10" d="M117.14,123.3c1.38-.28,3.34-.56,4.5-.51M115.44,121.81c2.16-.59,4.52-.34,6.01-.31M121.06,126.22c.4-.51,1.3-1.24,1.99-1.86M119.05,124.4c.66-.27,1.91-.74,2.95-.92M118.87,117.87c1.16-1.14,2.53-.98,3.83-1.67.78-.4,1.45-1.52,2.25-2.29.36-.3.62-.54,1.52-.47.94.08,1.06.37-.15.51-.87.11-.9.53-1.25,1.19-.29.56-.01,1.23.16,1.68-.22.46-.49,1.11-.56,1.61-.04.25.07.44.37.81M112.94,119.86c3.05-.66,7.42.48,8.25.53"/><path class="cls-12" d="M131.54,124.69c.99-.53,1-1.54,2.31-1.97M128.93,129.43c1.26-.6,1.53-1.11,2.21-1.65M131.76,117.66c-.1.1-.41-.03-.56-.22-.14-.2-.22-.46-.1-.58.11-.11.28-.09.54.13s.22.55.12.66ZM132.04,119.95c-.6.09-.69-.4-1.28-.5-.63-.12-1.05.29-1.05.67s.39.73.78.75.72-.26,1.53-.17M129.18,115.43c.48.04.97.13,1.32-.2"/><path class="cls-4" d="M113.16,105.21c-.06.03-.15-.05-.2-.18-.04-.13-.03-.27.03-.31-.07.02-.16-.07-.2-.21-.04-.14-.01-.28.05-.3h0c-.07.03-.16-.06-.19-.2-.04-.14-.01-.28.05-.31-.07.03-.16-.06-.19-.21-.04-.14,0-.28.06-.31-.07.03-.16-.07-.19-.22-.03-.15,0-.29.07-.31-.07.02-.15-.08-.18-.23-.03-.15,0-.28.08-.31-.07.02-.15-.08-.18-.23-.02-.15.02-.29.09-.31h0c-.08.02-.15-.08-.17-.24-.02-.15.02-.29.1-.32h0c-.07.02-.15-.09-.16-.24-.01-.15.03-.28.11-.3-.08.01-.15-.1-.15-.25,0-.15.05-.28.12-.3-.08.02-.14-.09-.15-.25s.05-.29.13-.31c-.08.01-.14-.11-.14-.26s.07-.29.15-.3c-.08,0-.13-.11-.12-.27,0-.15.08-.28.16-.29-.08,0-.13-.11-.12-.27.01-.15.09-.28.17-.29h0c-.08,0-.13-.13-.1-.28.02-.15.11-.28.19-.28-.08,0-.12-.14-.08-.29.03-.15.12-.27.2-.27-.08,0-.11-.14-.07-.29.04-.15.14-.26.22-.26-.08-.01-.11-.14-.05-.29.05-.15.16-.26.24-.25-.08-.02-.1-.15-.04-.3.06-.15.18-.26.26-.24-.08-.02-.09-.16-.01-.31.07-.15.2-.25.28-.22-.08-.03-.07-.17.01-.31.09-.14.22-.23.3-.2-.08-.03-.07-.17.03-.31.1-.14.24-.22.33-.19h0c-.08-.05-.04-.19.07-.32.11-.13.27-.2.34-.15h0c-.08-.05-.04-.19.09-.32.13-.13.29-.19.37-.14"/><path class="cls-9" d="M113.78,105.02l-.62.18M113.67,104.54l-.67.18M113.57,104.04l-.72.17M113.48,103.53l-.76.17M113.4,103.02l-.81.16M113.32,102.5l-.86.15M113.27,101.97l-.9.14M113.23,101.45l-.94.12M113.21,100.93l-1,.09M113.19,100.42l-1.04.05M113.21,99.9l-1.09.02M113.23,99.39l-1.13-.02M113.27,98.88l-1.16-.08M113.35,98.38l-1.2-.13M113.43,97.89l-1.24-.2M113.55,97.42l-1.27-.28M113.69,96.94l-1.29-.36M113.87,96.48l-1.31-.44M114.06,96.05l-1.32-.55M114.28,95.62l-1.31-.66M114.54,95.21l-1.3-.79M114.82,94.82l-1.27-.91M115.15,94.44l-1.24-1.03M115.49,94.1l-1.17-1.15M115.89,93.77l-1.11-1.28"/><path class="cls-13" d="M120.67,97.87c-.64.14-.97.16-1.79.2-.16.38-.17,1.41-.16,1.78,1.75,1.66,3.44,3.8,3.55,5.82.54.43.89.88,1.19,1.68,1.25-.62,2.51-1.68,3.57-1.95.69-.17,1.92-.23,2.53.13.34.2,3.31,2.01,4.18,2.54.86.54,1.45,1.25,1.88,1.87s.47,1.74.33,2.02l-2.5-.72c-.17-.41-.03-.89.16-1.3.18-.39.18-.41-.17-.69-.24-.2-.58-.14-.81-.09-.24.04-.62-.05-.84-.4-.24-.36-2.85-1.51-3.3-1.57-.43-.07-1.1-.08-1.64.43-.26.42-1.14,1.79-1.83,2.41-.18.18-.22.39-.11.61,0,0,1.66-.07,2.67.08,1.02.15,2.29,1.2,2.84,1.87,2.54,2.33,3.5,3.6,4.33,4.41.37.36.77.76.68,1.31l-2.47-.04c.03-.89-.14-1.53-.29-2.02-.29-.4-.81-.21-1.02-.2-.21.02-.52-.42-.77-.82-.31-.71-1.66-1.65-2.26-2.02s-.8-.21-1.43-.26c-.38-.12-1.25-.27-1.88-.02s-2.47.84-4.18,1.03c-.63.28-2.48.63-4.45,1.05-1.48.31-4.79.85-5.49.86-.22,1.6-1.89,3.83-2.37,4.08-.49.65-.47,1.23-.13,1.52.35.3,2.88.3,3.5.33.64.01,1.9.05,2.08.09.43.07.98.59,1.63.94.47.25.56.51.86.98.18.3.47.6.56.86l-2.98-.07c.03-.63-.34-1.16-.76-1.16-.41.29-.92.64-1.49.41-2.31-.14-3.79-.04-5.94-.18-.61-.03-1.15-.91-.92-1.71.23-.81.13-1.37-.02-1.95-.22.24-1.06,1.07-1.54,1.63-.74.84-.31,1.74-.04,2.19.44.38,2.9,2.75,3.22,3.46.25.38,1.23,1.15,2.2,1.96.31.73.9,1.09,1.37,1.56h-3.79c.12-.23.17-.46.23-.99.02-.2-.23-.63-.72-.58-.5.07-.93-.51-1.09-.98-.15-.48-1.82-2.62-2.32-3.09-.5-.47-2.01-2.01-2.27-2.11-.27-.1-.34-.65-.02-.98.33-.33,1.26-1.81,1.55-2.78.2-.66-.04-.72-.2-.92-1.65-1.23-3.09-2.85-3.95-4.41-.31.2-2.12.18-3.02-.26-.68-.33-1.6-.42-2.08.35-.28.46-.27,1.31.23,1.69.72.54,1.57,1.43,2.4,2.45s.11,1.69-.93,2.58c.15.39-.02.33.17.98.35.5.35,1.76-.1,2.02-.43.28-1,.56-1.52,1.17-.52.63-.75.02-.52-1.02.13-.65-.4-1.19-.86-1.69-.44-.5-.22-1.95.08-2.39.28-.41.58-1.26-.05-1.89s-1.88-1.95-1.68-3.71c.24-2.32,2.48-3.06,3.82-2.45,2.17.98,3.46.76,4.11.62.65-1.05,1.46-2.05,2.8-2.81,1.25-.72,3.71-1.7,6.13-2.08l6.01-2.15c.81-.24.78-.95.71-1.37-.78-4.06-.54-8.34,2.76-10.53.35-.31.24-1.2.76-1.9.1.3.77,1.13.92,1.66,1.42.47,3.99,1.37,5,1.88.49.24,1,.27,1.3.39.27.11.52.38.69.72.27.49-.03.97-.29,1.11-.2.1-1.39-.3-1.68-.03.05.27.36.56,1,.82.29.13-.15.67-.5.71-.2.02-.47-.07-.64-.2-.71-.21-1.46-.5-2.2-.75Z"/><path class="cls-15" d="M116.55,95.23c-.03,2.5.81,3.75,2.17,4.62M123.46,107.35c.24,1.05.21,2.09.01,3.01M105.22,119.97c1.89-.89,3.53-3.03,3.47-4.31-.03-.75-.62-1.9-2.3-1.95M108.69,115.66c.52.21,1.67.08,2.5.18M120.51,109.77c1.46.07,3.43.9,4.39.86M119.82,112.68c1.24.27,1.26.87,3.83.74M119.21,104.41c1.44.04,2.27.75,3.06,1.26"/><path class="cls-10" d="M108.42,116.83c1.01-.01,1.77-.14,2.18-1.03M116.55,95.23c-.05,2.04.77,2.55,2.33,2.84"/><path class="cls-12" d="M124.41,95.57c-.1.52-.11.93.74.86M120.65,94.15c-.65,1.67,2.64,1.89,2.77,2.94M104.98,107.94c1.61.71,1.42,3.9,1.41,5.76"/><path class="cls-3" d="M122.65,97.09c-.52,1.02-1.66,2.6-2.83,3.45-1.74,1.24-3.61,2.16-5.97,2.71-.31.08-.72.17-1.17.08-.44-.09-.93-.38-1.25-1.02-.17-.34-.09-1.94.51-2.17.63-.23,1.2-.3,1.8-.27.33.02.78.12.75.56-.02.38-.38.61-.76.5-.46-.13-1.15-.39-1.54-.13-.27.17-.43.9-.25,1.23.28.52.56.68.86.74.29.07.61,0,.92-.08,2.26-.53,4.05-1.41,5.75-2.63,1.12-.8,2.28-2.47,2.67-3.24l.51.27ZM113.8,100.27c-.67-.14-1.76.02-1.86.3.5-.31,1.12-.22,1.82,0,.22.07.35-.25.03-.3ZM118.2,94.77l.26-.5c.05-.11-.2-1.3,1.04-.66s.24,1.19.18,1.31c-.05.11-.26.49-.26.49"/><path class="cls-6" d="M116.11,93.67l6.99,3.66"/><path class="cls-5" d="M107.25,93.95c-1.24.12-3.52-.13-4.75-.35-.6-.11-2.28,2.33-3.17,2.51s-1.74-1.79-3.05-1.32c-.61.47.03,2.88-.34,3.18-.38.3-1.54-1.22-2.26-.71s.61,3.71.26,4.08c-.33.35-1.95-1.4-2.44-1.07s.53,5.31.05,5.57c-.49.26-2.75-1.31-3.04-.64s3.18,2.26,4.16,2.3l.98-.37c.33.17,3.1.4,3.37.42l1.6-1.62c2.44-3.18,5.12-6.16,8.63-5.98v-6Z"/><path class="cls-10" d="M96.52,94.73l4.65-.17M93.73,97.22l2.28-.78M91.57,100.2l2.07-.91M88.54,105.13l2.9-2.63M93.67,107.05c1.23-2.16,3.73-4.55,5.78-5.81M91.58,105.82c1.75-2.11,6.75-5.63,8.34-5.83M95.93,97.96c2.07-.95,5.03-1.06,7.39-1.26M99.27,96.12c.29-.03,3.85-.48,5.37-.4M93.91,101.38c2.77-1.62,5.47-2.93,8.52-3.88"/><path class="cls-1" d="M117.22,135.15c.22.07.44.53.44.53,0,0-.47.23-.66.18l-21.7-6.49c-.64-.2-.37-1.18.3-.98l21.61,6.75ZM96.48,104.82c-.13-.44-.52-.85-.81-.9-.18-.02-.66.47-.64.62.05.31.68.72.93.8l.52-.52ZM98.54,105.62l-1.82,1.82c-.23.24.2.62.41.4l1.82-1.82c.23-.23-.21-.61-.41-.4ZM97.63,107.34l5.65,5.86,1.17.17-.17-1.17-5.86-5.65-.79.79Z"/><path class="cls-11" d="M103.63,112.54l-5.6-5.61"/><path class="cls-13" d="M111.13,96.27c-.04-.3.12-.49.35-.65.39-.27.28-.14.5-.03.21.11.42.28.54.38.15.11.24.05.29-.03.1-.15.13-.46.23-.55.08.01.2-.04.18-.18.12-.02.15-.1.14-.22-.02-.09.05-.33.2-.28.15.04.47.18.48-.02.02-.15.12-.72.17-1.15.44.08.29-.43.46-.5.48.17.65-.59.38-.86.04-.61.49-.72,1.23-.71-.05-.41-.62-.53-1.01-1.05-.36-.53-1.54-1.22-2.81-1.19-1.27.03-2.31,1.22-2.78,1.74s-1.43.75-1.73.69c-.28-.07-.41-.27-.74-.3,0,0-.82.02-1.26.03-.43,0-.6.3-1.09.24-.29-.02-1.49-.01-1.83.11s-.01.9.36.93c.17.02,1.09.08,1.42.27.38.21,1.5.26,2,.08.93-.34,1.55.29,2.58.54l.33.12c-.02.54.01.82-.26.82-.25,0-.66-.02-.89-.04-.13,0-.66-.36-.97-.42-.47-.1-.75.1-.93.17-1.2.5-5.66,3.97-6.1,4.76-.49.88-1.22,1.4-1.91,2.71-.39.73-1.13,1.62-1.57,2.84-.75.34-1.52,1.04-1.64,1.2-.13.17.12.46.26.44-.05.11.21.4.41.38-.12.13.21.37.36.33-.09.13.14.49.33.48l1.8-1.8c0-.77.46-1.63.69-2.05.97-1.17,2.22-3.11,2.57-3.63.18-.29,2.3-1.13,2.85-1.67-.14,1.52-.1,2.56.1,3.46.3,1.48.79,2.42,1.09,3.67.3,1.24,0,2,.05,2.58.02.46.18.5.62.75.44.27,2.16.04,2.7.21,1.01.31,1.93.34,2.3.4,1.26-.17,2.2.17,2.6.49.41.33,1.22,2.19,1.52,2.89.29.68,1.92,1.64,2.26,2.03.35.38.6,1.49.53,1.97-.05.48.01.69.51.64.39-.05,1.83.22,2.11.36.26.13.89.63,1.11.65s1.25.13,1.73.09.46-.82.25-.86c-.2-.02-1.02-.2-1.51-.31-.48-.11-1.55-1.06-1.97-1.58-.43-.53-.65-1.27-.92-1.8-.28-.53-1.9-2.8-2.32-3.31-.13-.25-.99-2.3-1.18-2.81-.18-.51-.61-.56-.93-.66-1.35-.39-1.87-.56-3.24-.82-1-.18-1.23-.24-1.31-.98-.07-.55-.49-1.61-.27-2.33.08-.24.22-1.01.28-1.36.08-.35.29-.92.35-1.27.07-.47.15-1.89.15-2.26,0-.67-.1-1.19-.17-1.75ZM112.17,102.38c-.13.03-.76.12-1.09-.01-.11-.05-.09-.27.02-.27-.07-.04-.17-.27-.02-.3-.09-.02-.2-.35-.04-.36-.15-.1-.15-.28,0-.35.11-.09.78-.11,1.06-.07.17.35.13.99.07,1.36Z"/><path class="cls-15" d="M109.73,93.73c.31.2.27-.02.84-.18.55-.16.92.33.75.78-.16.46-.18.84.41.87s.74-.48.87-.73c.14-.24.4-.23.55-.52.12-.61.74-.47,1.12-.4M115.04,92.19c-.3.16-.95-.36-1.06-.86-.18-.59-.61-1.01-1.36-1.02-.75,0-2.17.42-2.47,1.3-.1.66-.15,1.1-.16,1.22-.27.1-.53.01-.55.13.02.26.08.49-.08.6M104.73,98.19l1.51-.65"/><path class="cls-16" d="M106.24,97.54c.42.95.72,1.93,1.3,2.27M108.37,100.17c.63.31,1.05.21,1.8.09M106.4,107.27c1.56.08,2.2.78,3.49,1.18,1.28.39,3.1.17,4.76.95M105.94,102.27c.39.29.95.49,1.42.49M108.04,102.79c.82.13,1.58.46,1.7.93M107.7,104.59c.75.73,2.12,1.28,3.09,1.33"/><path class="cls-12" d="M108.85,94.46c.71,2.28.8,3.21,2.45,3.56M108.26,94.31c.71,2.29,1.48,3.52,3.05,3.7M107.61,94.02c.71,2.29,1.78,3.9,3.7,3.99M119.84,116.28c-.35-.26-.43-.42-.68-.92l-.59-1.16-.37.2c-.16.08-.34-.22-.15-.3l.31-.15-.42-.85c-.24-.04-.01-.18.15-.26.17-.09.42-.2.31.02l.42.85.3-.15c.18-.1.33.22.15.29l-.37.18.59,1.16c.25.5.34.66.34,1.1Z"/><path class="cls-7" d="M119.79,113.81l-1.78.9M116.37,113.4l2.34-1.18M116,113.03l2.44-1.24"/><path class="cls-11" d="M96.48,106.87l.79-.72M96.13,106.54l.76-.68M95.71,106.16l.82-.69M111.11,102.09l.77-.03M111.05,101.43l.73-.02M111.09,101.79l.72-.07M112.74,95c.16.1.31.17.47.2"/></svg>