<?xml version="1.0" encoding="UTF-8"?><svg id="_色修正" xmlns="http://www.w3.org/2000/svg" viewBox="0 0 900 600"><defs><style>.cls-1{fill:#e50012;}.cls-1,.cls-2,.cls-3{stroke-width:0px;}.cls-2{fill:#fff;}.cls-3{fill:#008c3c;}</style></defs><rect class="cls-1" width="900" height="600"/><rect class="cls-2" y="150" width="900" height="300"/><path class="cls-3" d="M445.91,150c-6.44,13.56-18.57,23.04-30.16,32.01-1.91,1.67-6.65,4.89-3.21,7.35,2.95-3.29,11.03,1.07,6.33,4.61-4.21,3.94-10.01,5.38-14.68,8.64-4.14,2.25-8.34,4.6-11.62,8.04-.22,5.38,6.67,2.4,9.47,4.64,3.65,3.9-1.55,10.47-6.33,8.96-6.12.19-10.34,5.57-12.65,10.7-4.78,7.4-13.85,9.59-21.07,13.8-4.13,2.41-8.14,5.07-11.98,7.88-4.96,3.39-.64,10.1,4.63,8.45,5.69-.57,10.82-5.04,16.71-3.75,5.35,1.88,6.85,8.86,5.02,13.74-1.35,3.91-4.62,6.66-7.24,9.71-4.25,4.31-9.81,7.11-15.68,8.44-5.67,1.9-10.76,5.38-14.48,10.06-4.32,4.34-8.61,8.76-13.57,12.38-1.57,4,2.85,7.4,6.54,7.3,7.77-.49,13.15-6.85,19.76-10.11,5.49-2.47,11.95,3.45,10.61,9.17-.42,5.56-5.63,8.39-10.27,10.1-13.62,6.84-25.44,16.77-35.93,27.72-2.17,4.43-8.14,3.12-11.35,6.21-2.09,3.91,3.16,5.97,6.3,5.56,13.47-1.62,26.04-7.31,37.95-13.58,4.43-2.12,8.59-4.9,13.19-6.59,4.32-1.07,10.35.81,11.13,5.73,0,5.2-5.15,8.07-9.23,10.1-12.57,6.6-26.37,10.26-39.8,14.62-5.03-1.41-8.82,7.54-3.3,9.15,5.83,2,12.04.4,18.01.13,18.45-2.83,34.59-12.81,51.84-19.27,7.17-2.34,15.64.92,19.18,7.64,3.56,5.99,3.23,13.87-.52,19.69-5.93,12.68-14.94,24.34-27.04,31.63-7.59,3.76-16.46,5.2-22.97,10.95-6.02,1.98,3.02,10.12,4.32,3.66,3.62-4.93,10-6.41,15.78-6.61,8.7-.95,17.93-2.55,24.69-8.57,6.06-4.7,12.03-11.19,20.25-11.3,4.55.54,9.04,4.19,13.66,1.96,4.04-1.85,10.38-.77,11.43,4.2,1.93,5.81,7.92,8.45,12.67,11.56,1.72,2.41,7.43,8.64,8.75,3.15-1.06-3.92.46-9.91,5.59-8.6,4.49.2,8.76,1.85,13.24,2.13,5.96,1.24,10.94,5.32,14.32,10.25,2.33,3.22,7.43,8.74,11.22,4.48,2.35-4.41-2.14-8.09-5.79-9.66-5.33-3.3-9.89-7.7-14.55-11.87-6.87-6.42-12.8-14.58-13.89-24.16-1.48-9.56-.7-19.3.55-28.83,1.57-6.14,9.42-9.49,14.9-6.23,7.72,3.52,15.39,8.56,24.24,8.02,12.79.28,25.93-2.17,38.43,1.53,12.16,3.83,20.86,14.09,32.7,18.53,2.65,1.61,6.04.08,7.02-2.75,1.17-2.55.35-5.8-2.11-7.25-13.73-13.86-32.49-20.59-48.38-31.42-5-1.27-5.91-9.32-1.29-11.64,6.08-4.42,14.68-2.36,20.07,2.19,4.55,2.67,9.68,4.67,15.03,4.67,5.47-1.71,2.82-9.63-2.08-10.23-8.88-5.01-15.24-13.24-22.93-19.76-4.43-3.75-9.28-7.55-15.23-8.27-3.25-.59-6.58-.72-9.88-.5-3.09-3.36,1.03-8.5,5.03-8.08,4.1.28,8.18.58,12.28.01,4.58-.34,9.15-.81,13.75-.84,3.71,2.53,11.12-1.84,7.77-6.19-3.66-3.2-8.94-2.93-13.31-4.57-7.68-2.52-15.49-4.55-23.4-6.15-5.53-.33-4.85-7.61.01-8.42,3.18-1.19,5.95,1.26,9,1.64,5.22,1.12,10.61,1.11,15.82,2.24,4.42-2.18,1-8.64-3-9.02-9.44-3.38-17.6-9.47-25.57-15.39-8.8-6.62-16.79-14.28-25.7-20.75-3.23-2-8.53-2.58-9.38-7.02-.3-4.09,4.51-5.95,7.92-4.99,4.84,1.43,9.34,3.92,14.27,5.14,3.87.66,7.85,1.8,11.58,1.31,4.73-2.97-2.03-4.87-4.48-5.9-6.31-3.4-11.91-7.94-17.59-12.26-4.8-4.1,4.07-5.9,7.12-4.33,5.1,2.13,5.68-5.3,1.87-7.17-4.49-1.91-8.35-5.08-12.43-7.85-7.36-5.24-15.69-9.39-24.74-10.54-10.14-1.02-19.61-6.85-24.99-15.53-3.34-4.94-5.79-10.41-8.15-15.86ZM412.6,206.9c5.23.16,4.42,9.58-.72,8.95-5-.32-4.69-9.96.72-8.95ZM461.91,211.97c5.09-.91,6.16,8.37,1.08,8.81-5.3.95-7.26-9.4-1.08-8.81ZM447.46,213.18c5.16,1.01,4.24,10-.96,10.08-3.81.85-7.91,3.45-11.76,1.5-3.13-3.31,1.4-8.21,4.89-9.29,2.68-.54,5.15-1.76,7.84-2.29ZM480.7,213.22c4.97,1.81,3.22,10.59-2.03,10.47-4.96.66-7.27-7.61-2.64-9.57,1.5-.53,3.06-.98,4.67-.91ZM424.63,223.18c3.65,3.48,1.5,10.19-3.01,11.79-3.25,1.81-7.68,6.08-11.21,2.56-1.92-4.29,2.9-7.53,5.73-9.91,2.53-1.97,5.32-3.75,8.49-4.44ZM466.37,242.57c5.23,2.47,2.58,11.9-3.17,11.31-4.72-1.2-4.1-9.28.65-9.93.9-.34,1.72-.85,2.52-1.38ZM449.77,243.51c4.89,2.29,1.16,10.46-3.77,9.28-5.11-.6-5.02-9.58.62-8.77,1.06-.05,2.16-.08,3.15-.51ZM485.55,248.19c5.36-1.66,11.82,3.86,10.08,9.46-2.39,4.34-8.3,4.89-12.53,3.27-4.86-.24-8.13-7.55-3.8-10.64,1.79-1.35,4.05-1.91,6.26-2.09ZM406.33,249.6c4.43-2.41,9.14,4.84,5.37,8.04-2.5,3.67-8.91,5.17-11.74,1.09-2.35-3.99,1.45-10.69,6.37-9.13ZM385.87,253.03c5.03.69,8.31,5.26,10.17,9.61.45,5.3-7.37,8.21-10.78,4.35-3.84-2.41-7.2-7.36-5.18-11.95,1.24-1.82,3.71-2.58,5.8-2.01ZM508.28,272.19c5.46-1.44,9.42,7.29,4.74,10.44-4.29,3.89-12.62-1.26-10.38-6.82,1.11-2.06,3.33-3.43,5.65-3.62ZM438.79,282.15c4.58.58,3.09,8.52-1.14,8.25-4.54-.84-3.5-8.7,1.14-8.25ZM415.57,286.36c3.73-2.64,8.55,3.81,5.44,6.81-3.72,2.62-8.55-3.72-5.44-6.81ZM452.49,287.14c4.33,2.63,6.9,7.53,7.43,12.48-2.07,4.62-10.08,3.51-10.99-1.41-1.58-3.89-.12-8.9,3.55-11.07ZM465.38,294.79c5.58-1.4,3.58,10.26-1.08,6.21-1.55-1.84-.72-4.86,1.08-6.21ZM384.46,302.91c3.69-1.08,9.08.06,10.1,4.29.43,3.98-3.95,6.06-7.16,7.04-5.14,1.59-10.18,4.19-15.71,3.84-4.15-2.37-5.63-7.22-7.11-11.45,4-3.75,9.89-2.65,14.85-3.59,1.68-.09,3.35-.13,5.03-.14ZM509.98,321.17c4.71-2.31,9.78,5.17,5.83,8.66-4.93,5.68-14.43,6.73-20.33,1.96-.71-5.02,4.31-8.67,8.77-9.4,1.88-.53,3.74-1.32,5.73-1.23ZM536.45,326.91c5.35-.92,9.57,6.71,5.75,10.67-3.62,5.45-12.24,6.89-17.18,2.41-1.92-4.52,1.98-9.23,6.13-10.68,1.78-.76,3.47-1.73,5.3-2.4ZM403.32,335.03c4.96-.49,9.5,4.43,8.85,9.32,3.59,3.53-2.77,10.11-6.34,6.45-3.15-3.82-3.13-9-4.35-13.56-.05-1.01.7-2.33,1.85-2.2ZM441.38,337.88c5.12-2.22,11.75,3.91,8.96,9.1-1.99,4.23-9.76,2.81-9.5-2.09-.01-2.34-.2-4.74.54-7.02ZM422.86,341.19c5.14-1.18,9.85,5.48,7,9.93-5.12.46-7.78-5.62-7-9.93Z"/></svg>