<?xml version="1.0" encoding="UTF-8"?><svg id="_色修正" xmlns="http://www.w3.org/2000/svg" viewBox="0 0 900 600"><defs><style>.cls-1{fill-rule:evenodd;}.cls-1,.cls-2{fill:#fff;}.cls-1,.cls-2,.cls-3,.cls-4{stroke-width:0px;}.cls-3{fill:#006937;}.cls-4{fill:#008c3c;}</style></defs><rect class="cls-3" width="900" height="600"/><path class="cls-1" d="M387.94,141.71c-.47-.01-1.16.25-2.14.82-2.19,1.47-6.54,6-6.68,11.21-.13,2.94-.69,2.93,1.24,4.8,1.39,2.01,2.78,1.81,5.59.34,1.61-1.19,2.16-1.95,2.7-3.94.67-3.34-3.52,1.58-4.05-2.14-.93-3.45,1.74-4.87,4.27-8.21.06-1.57.09-2.86-.94-2.89h0ZM428.81,141.93c-.78.11-1.74,1.11-3.08,3.53-.95,2.53-5.07,6.36-2.1,14.25,2.43,5,3.43,13.14,2.33,22.2-1.68,2.58-2.07,3.46-4.27,6.04-3.1,3.33-6.46,2.48-9.04,1.24-2.41-1.62-4.3-2.46-5.4-7.61.2-8.22.68-21.67-.83-24.53-2.21-4.42-5.86-2.84-7.42-1.5-7.5,6.85-11.2,18.43-13.46,27.64-2.08,6.71-4.29,4.77-5.85,2.06-3.79-3.55-4.05-31.3-8.62-26.74-7.32,20.93,4.2,43.85,12.19,41.63,5.76,2.39,9.42-8.58,11.77-20.59,1.61-3.37,2.85-3.76,3.67-2.02-.21,15.97,1.14,19.53,5.25,24.37,9.16,7.06,16.73.9,17.33.3.59-.59,7.12-7.12,7.12-7.12,1.59-1.67,3.68-1.77,5.93-.3,2.18,1.98,1.9,5.39,6.56,7.76,3.92,1.57,12.31.38,14.25-3,2.62-4.48,3.25-6.02,4.46-7.73,1.87-2.49,5.06-1.39,5.06-.6-.3,1.39-2.17,2.75-.9,5.25,2.22,1.67,2.74.6,4.05.22,4.65-2.22,8.14-12.3,8.14-12.3.21-3.76-1.93-3.47-3.3-2.7-1.78,1.09-1.89,1.46-3.68,2.55-2.27.34-6.67,1.84-8.85-1.54-2.22-4.06-2.24-9.71-3.94-13.8,0-.3-2.97-6.43-.22-6.82,1.39.26,4.37,1.03,4.84-1.46,1.45-2.43-3.14-9.31-6.26-12.79-2.71-2.98-6.46-3.34-10.09-.3-2.54,2.34-2.16,4.95-2.66,7.42-.65,2.84-.52,6.37,2.36,10.12,2.54,5,7.14,11.42,5.62,20.47,0,0-2.68,4.31-7.39,3.75-1.96-.43-5.16-1.28-6.86-13.84-1.29-9.51.32-22.83-3.71-29.06-.91-2.35-1.69-4.64-3-4.46h0ZM415.87,142.94c-1.22.11-2.57,1.53-3.68,4.28-.95,2.09-2.1,13.01-1.91,13.01-.75,3.25,3.4,4.63,5.29.45,2.83-7.66,2.85-10.93,3.04-14.17-.44-2.48-1.52-3.67-2.74-3.56h0ZM463.65,143.8c-1.25.11-2.25.85-2.62,2.7-.5,4.36-.24,6.72.49,10.35.56,2.42,4.08,6.47,5.81,8.81,8.28,11.12,16.24,22.3,23.93,33.86,1.21,8.59,2.09,16.98,2.66,25.35,1.25,18.34,1.62,41.17.49,60.49,3.44.14,8.94-5.55,10.88-13.87,1.26-11.52-.45-35.02-.56-41.81-.08-2.82-.25-6.19-.45-9.71,8.94,14.61,17.62,30.1,26.14,47.1,3.1-1.48,2.42-18.96.6-21.41-6.82-14.67-16.23-29.16-19.24-34.73-1.08-2.01-4.78-7.63-9.15-14.1-.81-9.24-1.68-17.06-2.25-19.43-1.41-9.77,4.01,1.1,3.26-4.57-1.76-9.75-7.14-16.38-13.5-25.31-2.05-2.91-2.01-3.5-5.17.71-1.89,4.29-1.87,7.86-1.31,11.21-.83-1.21-1.86-2.64-3.34-4.42-5.49-4.71-5.83-4.97-10.39-8.81-1.44-1.02-4.17-2.59-6.26-2.4h0ZM605.25,145.27c-.61-.09-1.28.21-2.03,1.31-1.43,1.26-2.97,3.53-2.92,6.45.35,5.15,1.26,10.42,1.61,15.56.12.69.25,1.37.38,2.06-.55-.71-1.04-1.26-1.31-1.54-10.03-10.54,4.61-1.72-1.91-9.86-5.52-6.06-7.13-7.98-11.85-11.62-2.37-1.53-3.8-4.45-4.57.52-.31,4.37-.63,9.44-.34,13.13-.02,2.05,2.11,5.91,3.94,8.17,6.69,8.22,13.53,16.97,20.4,26.1,1.45,18.62,1.83,35.69,3.3,54.34-.21,7.98-2.66,18.57-4.99,19.57,0,0-3.55,2.04-5.93-.23-1.73-.69-8.62-11.51-8.62-11.51-3.53-3.24-5.89-2.31-8.4,0-6.93,6.69-10.07,19.23-14.77,27.86-1.21,1.93-4.63,3.57-8.44-.15-9.66-13.2-4.01-31.98-5.21-27.15-8.6,9.69-4.79,25.76-2.85,29.21,2.84,5.67,5.13,9.31,10.65,12.11,5.03,3.7,8.94,1.39,11.1-1.2,5.06-5.24,5.13-18.65,7.5-21.3,1.67-4.87,5.84-4.03,7.88-1.88,1.97,2.84,4.3,4.68,7.2,6.23,4.72,4.16,10.35,4.92,15.9,1.12,3.79-2.13,6.25-4.89,8.48-10.35,2.38-6.37,1.2-39.77.67-58.35,3.56,5.02,7.08,10.15,10.58,15.34,1.53,16.31,2.23,32.37,1.73,47.77-.36,3.06,10.69-9.14,10.61-14.93-.05-5.06,0-9.64,0-13.91,5.36,8.56,10.55,17.26,15.45,26.06,3.04-1.61,2-18.81.08-21.19-5.13-8.61-11.71-17.92-16.8-25.13-1.01-9.09-2.38-19.81-3-23.1-.97-5.12-1.94-12.82-3.41-18.9-.4-2.37-1.62-9.96-1.24-10.69.6-1.7,2.86.05,3.98-1.91,1.67-1.82-5.78-21.12-9.56-26.63-1.36-2.47-3.82-1.61-6.86,2.4-2.82,2.64-1.79,8.67-.71,14.4,2.8,14.61,5.3,29.49,7.28,44.33-3.66-5.44-8.13-12.03-12.53-18.37-.12-.61-.56-2.86-.56-2.89,0-.26-.61-11.95-1.12-14.74-.09-1.13-.36-1.46.83-1.31,1.26,1.06,1.43,1.11,2.21,1.46,1.27.23,2.38-1.91,1.61-3.9-3.92-7.24-7.85-14.51-11.77-21.75-.47-.47-1-.96-1.61-1.05h0ZM239.81,145.64c-2.17-.06-4.57,1.29-3.64,3.9-.55,1.42,4.26,6.24,5.1,8.89.76,1.88-.75,7.95.82,8.51,1.45.63,3.44-4.2,4.2-8.66.42-2.44.1-10.81-5.59-12.53-.29-.07-.59-.1-.9-.11h0ZM656.1,145.69c-.5.05-1.1.85-2.02,2.81-2.23,3.65-2.99,10.17-2.1,15.94,5.36,36.24,9.34,71.34,10.16,103.46-.46,3.05-.6,4.67-2.02,8.51-3.16,4.05-6.65,9.14-9.94,11.59-3.29,2.45-10.28,4.78-12.56,6.6-7.25,4.19-7.29,9.01-1.42,9.19,10.11-1.17,22.06-2,30.3-14.44,2.2-3.48,4.8-12.93,4.91-18.71.77-33.9-.43-67.04-5.51-91.54-.33-2.39-1.38-7.87-.98-8.59.65-1.68,3.96.17,5.14-1.76,1.73-1.76-8.55-14.92-12.15-20.55-.72-1.41-1.16-2.58-1.8-2.51h0ZM550.13,146.25c-.42.07-1.03.71-2.18,2.21-2.82,9.23-3.82,16.77-2.74,22.5,7.25,37.84,14.68,72.32,13.5,108.34,3.44.02,7.41-7.87,9.11-15.67.93-10.76-.62-17.3-.9-23.63-.28-6.32-7.16-57.62-8.55-62.4-1.68-9.04,6.69-1.19,5.78-6.45-2.89-6.63-10.11-16.29-12.37-22.05-.85-1.54-.95-2.97-1.65-2.85h0ZM292.09,146.96c-.89.15-1.75.89-2.06,2.1-.2.79.34,2.11-.38,2.51-.41.42-1.98.14-1.91-2.06,0-.7-.51-1.43-.83-1.88-.31-.2-.52-.26-1.09-.26-.69.03-.67.21-1.05.79-.17.59-.38,1.16-.38,1.84-.09.78-.4,1.05-.98,1.16-.64,0-.49.07-1.01-.26-.31-.34-.68-.47-.68-1.05s-.16-1.55-.34-1.95c-.27-.36-.71-.55-1.2-.68-2.7,0-2.89,3.11-2.74,4.28-.2.22-.3,5.71,3.38,7.24,4.94,2.35,14.19,1.36,13.8-6.6,0-.7-.15-3.07-.22-3.71-.5-1.17-1.43-1.62-2.33-1.46h0ZM358.32,147.04c-1.71.09-3.21.58-4.5,1.24-3.27,3.13-4.04,8.15-1.46,11.29,2.51,1.18,5.01,3.71,3.34,5.1-7.09,7.57-25.54,20.23-26.47,22.54,0,.02-.03.06-.04.07,0,.02,0,.06,0,.08,0,0,0,.03,0,.04,0,.02.03.06.04.07,0,0,.03.03.04.04,0,0,.03,0,.04,0,0,0,.03.03.04.04,0,0,.03,0,.04,0,0,0,.03.03.04.04.94.63,12.48.61,13.76.04,0,0,.03-.03.04-.04,0,0,.03,0,.04,0,0,0,0-.03,0-.04,3.97-1.46,22.8-22.99,22.8-22.99-.98-.84-1.88-1.45-2.85-2.29-1.05-.9-.94-1.79,0-2.7,4.66-2.71,3.19-8.69.75-11.4-2.02-.91-3.92-1.21-5.62-1.12h0ZM531.42,147.11c-.5.05-1.1.81-2.03,2.78-2.23,3.65-3.74,9.99-3.56,15.94,4.82,33.38,6.3,62.58,9.45,95.96.26,3.23-.22,7.92-2.36,9.79-7.94,8.29-19.38,18.51-31.84,23.21-1.34,1.5,3.33,7.92,9.38,7.91,10.11-1.17,18.99-6.85,27.23-21.79,2.2-3.48,6.07-10.94,6.19-16.73.77-33.9-1.71-60.25-6.79-84.75-.33-2.39-.1-5.21.3-5.92.65-.78,2.87.02,4.05-1.91,1.73-1.76-4.61-16.39-8.21-22.01-.72-1.41-1.16-2.54-1.8-2.48h0ZM263.26,148.13c-1.39.16-2.71,1.3-3.34,2.81-.23,5.35-.26,10.7.34,15.64,2.43,8.65,3.21,16.26,4.39,25.13.33,11.87-6.85,5.13-6.52-.75,1.66-7.64,1.21-19.68-.26-22.73-1.17-3.05-2.52-3.8-5.36-3.3-2.26-.14-8.08,6.21-9.71,16.73,0,0-1.36,5.4-1.95,10.2-.8,5.43-4.39,9.27-6.9-.75-2.17-7.29-3.5-25.24-7.12-21.04-1.04,14.02-2.27,38.68,9.64,41.21,14.41,1.38,6.45-24.35,11.66-29.03.99-2.31,2.81-2.35,2.96.56v21.86c-.13,7.11,4.55,9.22,8.17,10.69,3.78-.29,6.28-.19,7.76,3.49.59,12.6,1.21,25.24,1.8,37.84,0,0,8.73,2.51,9.15-21.26.42-13.96-2.78-25.67-.9-28.39.07-2.67,3.49-2.8,5.85-1.5,3.77,2.66,5.44,5.92,11.29,4.61,8.9-2.45,14.27-6.78,14.4-13.61-.52-6.5-1.27-13-4.09-19.5.39-1.18-1.7-4.26-1.31-5.44,1.6,2.51,4.02,2.3,4.57,0-1.52-4.99-3.88-9.78-7.69-11.85-3.15-2.78-7.76-2.19-9.45,3.6-.78,6.67,2.42,14.58,7.27,21.04,1.03,2.52,2.47,6.72,1.84,10.5-2.58,1.47-5.15.86-7.31-1.42,0,0-7.09-5.31-7.09-6.49,1.88-12.04.41-13.42-.64-16.76-.73-4.61-2.91-6.07-4.69-9.23-1.77-1.88-4.18-1.88-5.32,0-3.13,5.43-1.66,17.09.6,22.31,1.64,4.8,4.14,7.8,2.96,7.8-.97,2.71-3,2.08-4.46-1.05-2.09-6.47-2.51-16.12-2.51-20.47-.63-5.39-1.33-16.91-4.88-19.84-.95-1.29-2.07-1.74-3.15-1.61h0ZM313.84,148.21c-.71.09-1.51.5-2.44.71-3.06.97-5.93,3.62-5.02,8.77,3.62,22,5.98,38.79,9.6,60.79.56,2.58-1.6,5.97-4.39,5.62-4.73-3.2-5.91-9.69-13.99-9.41-5.85.07-12.52,6.43-13.35,12.56-.97,4.87-1.32,10.15,0,14.4,4.11,4.94,9.03,4.42,13.35,3.3,3.55-1.46,6.47-4.96,7.73-4.12,0,0,.03,0,.04,0,0,0,0,.03,0,.04.77,1.35-.07,12.8-16.73,21.64-10.23,4.6-18.38,5.69-22.76-2.66-2.72-5.22.2-25.11-6.49-20.51-19.77,50.96,46.32,58.07,53.7,2.1.48-1.58,1.93-3.16,2.96-2.77.45.19.86.8,1.01,1.95-1.53,50.68-51.13,54.16-59.55,38.21-2.09-3.76-2.72-12.12-2.93-17.14-.38-3.03-1.14-4.78-2.02-5.47-2.01-1.51-4.71,2.43-5.29,9.26-.84,5.5-.6,7.01-.6,12.3,2.65,40.03,66.47,22.83,76.84-10.24,5.13-17.1-.1-29.99,1.61-31.57.01-.01.06-.03.08-.04.02,0,.06-.03.07-.04.02,0,.06-.03.08-.04.06-.02.16-.04.23-.04,6.34,6.82,15.23.87,17.17-1.5.84-1.18,2.93-1.94,4.39-.41,4.94,3.55,13.6,1.88,15.41-4.39,1.05-6.13,1.93-12.43,2.14-18.97-3.22,1-5.82,1.75-6.86,2.85-.25.27-.43.57-.49.9-.28,1.81-.55,3.63-.83,5.44-.03.15-.08.29-.15.41-.14.22-.36.43-.6.56-1.14.62-3.12.27-3.23-1.39-1.53-6.96-7.83-7.87-11.66,2.92-2.58,2.09-7.27,2.5-7.76-.64.63-7.24-2.29-8.21-8.14-4.8-1.88-14.34-3.74-28.03-5.62-42.37,2.44-.07,4.67,1.7,6.9-1.09-2.41-7.5-7.51-22.76-10.39-24.19-.02-.01-.05-.03-.08-.04-.13-.16-.28-.3-.41-.41-.05-.04-.13-.11-.19-.15-.05-.04-.14-.08-.19-.11-.12-.06-.26-.11-.38-.15-.26-.07-.52-.11-.79-.08h0ZM511.05,148.32c-2.53-.07-5.33,1.52-4.24,4.69-.64,1.73,5.43,7.59,6.41,10.8,1.76,4.93-1.34,9.63.49,10.31,1.69.76,4.03-5.09,4.91-10.5,1.02-4.37-2.1-13.34-6.52-15.19-.34-.08-.69-.1-1.05-.11h0ZM357.42,153.72c1.15-.12,2.54.94,3.22,2.44.73,1.6.36,3.12-.82,3.41-1.19.29-2.72-.77-3.45-2.36-.73-1.6-.36-3.16.83-3.45.07-.02.15-.03.23-.04ZM642.42,161.11c-2.31-.08-4.82,1.67-3.83,5.1-.58,1.87,4.92,8.23,5.81,11.7.8,2.47-1.22,10.44.45,11.17,1.54.82,3.7-5.5,4.5-11.36.45-3.21-1.93-14.46-5.96-16.46-.31-.09-.65-.14-.97-.15h0ZM484.84,165.01c.21.94.42,1.89.56,2.85.47,2.08.88,4.14,1.31,6.19-1.82-2.51-3.33-4.53-3.98-5.25-4.12-4.89.09-3.21,2.1-3.79h0ZM521.14,182.86c-.89.15-1.75.93-2.06,2.14-.2.79.38,2.08-.34,2.47-.41.42-2.02.17-1.95-2.02,0-.7-.51-1.47-.83-1.91-.31-.2-.52-.26-1.09-.26-.69.03-.67.21-1.05.79-.16.59-.38,1.17-.38,1.84-.09.78-.36,1.05-.94,1.16-.64,0-.53.07-1.05-.26-.31-.34-.67-.47-.67-1.05s-.16-1.55-.34-1.95c-.27-.36-.71-.51-1.2-.64-2.7,0-2.85,3.07-2.7,4.24-.2.22-.34,5.75,3.34,7.27,4.94,2.35,14.23,1.32,13.84-6.64,0-.7-.19-3.07-.26-3.71-.5-1.17-1.43-1.62-2.33-1.46h0ZM355.4,184.51c-.61-.06-1.41.16-2.33.71-4.37,2.36-6.06,9.36-3.34,13.46,2.54,3.61,6.55,2.29,7.09,2.29,4.28.53,6.83-8.02,6.83-8.02,0,0,.13-2.41-4.95,2.14-2.14.4-2.43-.37-2.96-1.57-.45-2.23-.35-4.48.68-6.71.47-1.34,0-2.18-1.01-2.29h0ZM589.7,185.6c-2.42-.12-5,1.45-5.66,4.76,0,1.95.88,3.03.71,4.8-.25,1.01-1.3,1.68-3.79.49.39-.36-1.61-3.19-1.61-3.19-1.94-1.18-4.54.06-6.23,1.16-.93,1.69-1.62,4.58-.56,7.54,2.79,5.15,12.35,13.94,16.91,14.03.08-4.64.54-10.82.79-14.66.11-1.45.45-3.05,1.84-3.41,1.39-.36,3.8,1.4,3.83-.11-.25-2.95-.84-7.32-2.51-9.38-.85-1.27-2.26-1.95-3.71-2.02h0ZM395.76,201.76c-.06.02-.13.08-.19.11-.03.02-.08.05-.11.08-.48.36-1.05,1.2-2.32,2.1-2.15,2.44-2.53,4.14-2.4,9.04.12.52,4.08,11.51,7.43,19.24,2.26,8.03,4.35,17.23,2.81,25.91-5.29,11.48-15.92,21.78-26.17,27.37-5.23,1.67-9.74,1.1-10.95-.04,0,0-.03-.03-.04-.04-3-2.02-3.07-5.61-2.89-6.22,0,0,0-.03,0-.04,0,0,.03-.03.04-.04,8.66-6.03,18.54-10.91,26.29-27.19,2.29-6.22,2.98-9.96.71-19.57-.89-3.58-1.98-6.53-4.43-9.08,0,0,.03-.03.04-.04,1.47-.71,5.3,2.11,5.89.34-.9-4.59-4.02-10.76-7.54-13.91-3.08-2.8-6.44-3.13-9.26-.56-3.18,1.77-3.86,8.12-2.32,13.69,1.7,4.19,6.29,4.92,9.56,13.35,0,0,0,.03,0,.04.07.53,1.12,6.29-.52,8.62-1.34,4.17-18.51,17.71-19.73,18.53-.01.01-.1.06-.11.07,0,0-.03.03-.04.04,0,0-.03.03-.04.04,0,0-.03.03-.04.04,0,0-.03,0-.04,0,0,0-.03,0-.04,0,0,0-.03-.03-.04-.04,0,0,0-.03,0-.04,0-.01-.03-.06-.04-.08-.05-.34.04-1.2,0-2.59-.11-2.54.94-8.28.86-9.26,0,0,0-.03,0-.04,0,0-.03-.03-.04-.04,0,0,0-.03,0-.04,0,0-.04,0-.04,0-5.68,3.66-7.55,14.9-8.59,18.23-14.37,9.93-30.69,17.32-40.09,27.37-4.89,7.64,33.72-8.78,38.21-10.76.04.03.08.08.11.11.85.94.93,4.21,3.49,7.16,4.01,5.44,12.55,8.79,20.85,6.71,13.92-5.03,21.95-14.52,30.11-25.05,1.17-1.7,3-3.04,4.69-1.73,5.61,12.56,21.79,21.5,42.71,22.43,4.84-5.89,2.53-8.78.56-10.01-.6-.4-10.4-4.22-11.92-8.03-.96-3.54,1.37-6.68,6.04-9.04,13.43-1.62,26.64-3.43,39.41-7.54.13-4.29,2.66-10.71,4.35-13.5,1.17-1.93,1.93-2.13,2.21-2.4,0,0,.03-.03.04-.04,0,0,.03-.03.04-.04,0,0,.03-.03.04-.04,0-.01,0-.06,0-.07,0-.08,0-.23-.04-.38l-2.17-1.28-42.86-.19c-.53-.2-.92-.41-1.16-.6-.02-.02-.06-.06-.08-.08,0,0-.03-.03-.04-.04,0,0-.03-.03-.04-.04,0-.01-.03-.06-.04-.08,0,0-.03-.03-.04-.04,0,0,0-.03,0-.04,0,0-.03-.03-.04-.04,0,0,0-.03,0-.04,0,0,0-.03,0-.04,0,0,0-.03,0-.04,0,0,0-.03,0-.04,0,0,0-.03,0-.04,0,0,0-.03,0-.04,0,0,0-.03,0-.04,0,0,0-.03,0-.04,0,0,.03-.03.04-.04,0-.02.02-.06.04-.07.21-.28.72-.55,1.35-.79,10.24-1.39,28.42-4.38,29.63-21.86-.19-9.11-3.9-15.07-15.07-16.73-8.21.64-14.07,8.58-13.13,17.33-.39,2.35.8,6.98-1.61,7.5-15.75,1.44-32.95,11.31-33.53,18.37,0,0-.03,0-.04,0,0,0-.03.03-.04.04-.01,0-.06.03-.07.04-.01,0-.06,0-.08,0-.03,0-.09.03-.11.04,0,0-.03,0-.04,0-.02,0-.06,0-.08,0,0,0-.03,0-.04,0-.02,0-.06,0-.08,0-.04,0-.11-.03-.15-.04-1.02-.28-2.34-1.98-2.14-4.35-.6-12.21-4.57-26.03-10.8-36.67-2.22-2.22-3.19-3.12-3.82-3.23-.02,0-.06,0-.08,0-.03,0-.08,0-.11,0,0,0-.03,0-.04,0,0,0-.03,0-.04,0,0,0-.03,0-.04,0h0ZM436.78,208.21c-.89.15-1.75.89-2.06,2.1-.2.79.38,2.11-.34,2.51-.41.42-2.02.17-1.95-2.02,0-.7-.51-1.47-.82-1.91-.31-.2-.49-.26-1.05-.26-.69.03-.71.21-1.09.79-.16.59-.38,1.17-.38,1.84-.09.78-.36,1.05-.94,1.16-.64,0-.49.07-1.01-.26-.31-.34-.71-.47-.71-1.05s-.12-1.55-.3-1.95c-.27-.36-.74-.51-1.24-.64-2.7,0-2.85,3.07-2.7,4.24-.2.22-.34,5.75,3.34,7.27,4.94,2.35,16.7.97,13.84-6.64,0-.7-.19-3.07-.26-3.71-.5-1.17-1.43-1.62-2.32-1.46h0ZM602.34,215c-.12-.02-.27-.01-.41.04,0,0-22.87,16.27-23.44,16.84-2.27,2.02-1.13,9.11,0,8.29,1.64.63,24.66-14.97,24.23-16.8,1,.06,1.49-8.03-.38-8.36h0ZM458.39,217.41c.93-.1,2.16.22,3.34.9,1.71.99,2.76,2.48,2.62,3.56,0,.03,0,.08,0,.11,0,.03-.07.08-.08.11,0,.03-.03.09-.04.11,0,.02-.03.06-.04.08,0,.02-.03.06-.04.07-.06.09-.15.19-.23.26-.82.77-2.72.66-4.5-.38-1.69-.98-2.74-2.48-2.62-3.56,0-.03.03-.08.04-.11.03-.13.08-.26.15-.38.02-.04.05-.11.07-.15,0,0,.03-.03.04-.04.05-.06.13-.14.19-.19.27-.21.66-.37,1.09-.41h0ZM258.1,221.53c-11.85.22-29.21,15.53-29.66,24.04,12.51-6.01,24.79-11.79,37.5-18-2.05-3.06-.12-5.82-7.84-6.04h0ZM296.5,226.86c1.16.01,2.39.59,3.04,2.21.59,1.49.03,3.05-.68,3.83,0,0,0,.03,0,.04-.01.02-.03.06-.04.08-.5.64-2.24.38-3.49.38-1.5-.07-2.25-.31-3.15-1.54-.43-1.36.88-2.7,1.46-3.71,0,0,.03-.03.04-.04.06-.09.17-.21.26-.3.45-.41,1.23-.8,2.06-.9.16-.02.32-.04.49-.04h0ZM597.89,231.57c-2.11.26-4.11,2.25-3.19,5.44-.58,1.87,2.86,8.41,3.75,11.89.8,2.47-1.03,9.46.64,10.2,1.54.82,5.58-4.15,5.44-10.39.45-3.21-1.14-15.02-5.18-17.03-.46-.13-.98-.17-1.46-.11h0ZM341.92,243.12c-1.86.13-3.52,1.13-2.78,3.75-.11,1.9,5.26,4.22,5.59,8.62.77,1.82-1.15,7.63.45,8.17,1.47.6,3.51-4.02,4.27-8.32.43-2.36-1.84-10.6-5.7-12.07-.59-.13-1.22-.19-1.84-.15h0ZM418.53,253.59c.14,0,.27,0,.41,0,.02,0,.05,0,.07,0,4.78,1.3,11.81,1.43,17.93,2.06,4.98.32,7.44,4.21,2.77,5.85-4.6,1.57-9.02,2.8-9.04,9.45.6,3.29.48,5.02-.04,5.81-.04.06-.11.14-.15.19,0,0-.03.03-.04.04,0,0-.03.03-.04.04,0,0-.03.03-.04.04l-.04.04s-.06.03-.07.04c-.07.04-.15.09-.23.11-.06.02-.16.03-.23.04-1.09.16-2.68-.88-3.86-1.5-2.84-2.04-10.79-6.97-11.92-17.55-.16-2.39,1.63-4.45,4.5-4.65h0ZM231.41,261.72c-.3,0-.9.9-1.69,1.91-7.05,11.23-7.68,28-3.79,33,2.07,2.36,5.48,3.4,7.99,2.66,4.43-1.92,6.38-10.89,5.32-14.17-1.48-2.31-2.65-2.68-4.12-.71-3.12,6.33-4.41,2-4.69-1.54-.48-6.71.17-12.88.9-17.77.39-2.51.37-3.38.08-3.38h0ZM471.6,276.47c-.52-.03-1.08.05-1.65.34-.11,0-5.05,3.34-6.64,5.66-.97.74-.86,1.38-.56,2.66.76,1.74,2.09,1.19,3.6.38,2.01-.27,2.98,1.04,2.81,3.45-.93,3,.41,4.12.41,4.31s1.93,1.85,4.2.52c4.79-1.83,7.77-3.61,14.47-5.06,1.76-.04,1.66-4.74-1.12-4.91-3.63.18-6.98.37-10.61,3.23-2.23.52-2.62-.84-3.11-2.06-.57-3.02,1.28-5.16.9-7.42.1.1-1.13-1-2.7-1.09h0ZM625.39,282.21c-.89.03-1.83.15-3.19.26-1.47.31-1.98.96-2.25,2.74.11,2.7,1.76,2.57,3.45,3.64.98,1.25,1.62,2.38-.07,4.43-1.6,1.47-2.75,2.28-4.35,3.75-.76,1.29-1.23,3.28,1.09,3.9,4.28,1.2,14.17-5.23,14.17-5.36,1.6-1.2,1.07-3.49.94-3.49-.93-1.07-3.04-.43-4.46-.6-.67,0-2.89-.33-1.84-2.29.88-1.22,1.2-1.95,1.8-3.45.67-1.47.08-2.46-2.32-3.26-1.23-.22-2.07-.29-2.96-.26h0ZM561.14,412.29s-.03.03-.04.04c-7.11,1.83-6.89,9.21-2.33,12.45-75.11,0-190.38-1.28-215.1-1.28-13.83,0-57.58-1.65-58.43-1.65,9.38,13.72,22.98,16.52,40.76,16.8,33.36,0,187.94-.41,231.94-.41-3.13,5.55.28,14.49,2.74,16.13.05.03.14.09.19.11.09.05.21.09.3.11.03,0,.08,0,.11,0,2.91.69,4.19-1.42,5.18-2.96,4.72.42,31.32.8,33.75-.04,0,0,.03-.03.04-.04,1.65,2.42,3.28,4.71,6.41,4.31,5.48-1.18,9.8-1.77,9.94-12.9,0,0-.56-18.96-13.01-17.77-2.95.45-11.21,1.27-11.21,1.27-9.57-1.14-16.58-1.25-27.34-1.65.99-1.26,2.75-6.36.6-8.21-.56-.47-1.39-.72-2.55-.64,0,0-.03,0-.04,0-.02,0-.06,0-.08,0,0,0-.03-.04-.04-.04-.03-.01-.08-.02-.11-.04-.06-.04-.13-.12-.19-.19-.01-.02-.06-.06-.08-.08-.54-.79-.84-2.73-1.2-3.23,0,0-.03-.03-.04-.04,0,0-.03-.03-.04-.04-.01,0-.06-.03-.08-.04,0,0-.03,0-.04,0,0,0-.03,0-.04,0h0ZM566.24,439.4s.02,0,.04,0c10.96.53,21.25.1,32.21.64,1.74,1.48.87,4.86-.26,5.48-.05.03-.14.06-.19.08-.04,0-.11,0-.15,0-.04,0-.11,0-.15,0-3.56-.09-5.62-.17-9.19-.26,0-.18-.03-.37-.08-.52-.84-2.5-6.96-2.34-8.4-.38-.02.03-.06.08-.08.11-.02.04-.06.11-.07.15-.02.05-.06.13-.08.19-.02.07-.03.18-.04.26,0,.09-.05.21-.04.3-4.81.58-9.14-.16-13.95-.34-1.41-1.76-1.25-4.94.41-5.7h0Z"/><path class="cls-4" d="M0,600h900V0H0v600Z"/><path class="cls-2" d="M675,238.32c-.06-10.54-4.15-38.93-5.19-48.46-1.04-9.52-2.08-18.16-1.83-20.19.25-1.95,3.25,2.71,4.84,3.09.82-.16.46-3.11-1.04-5.63-1.01-1.71-4.46-8.1-6.55-11.85-.98-1.77-1.2-2.8-1.68-3.02-.47-.22-4.28,7.46-3.86,8.31,1.04,1.56,1.75,2.3,1.91,5.06.16,2.76,1.59,22.43,3.41,37.34,1.37,11.25,4.37,35.48,4.47,50.55.03,4.92-.52,9.6-1.17,11.56-1.68,3.07-4.3,5.85-14.08,11.57-10.99,6.43-25.64,11.78-31.94,15.36-3.92,2.23-2.62,2.53.79,1.55,3.4-.98,20.99-4.11,29.54-7.72,8.02-3.4,13.23-9.08,17.18-17.38,4.88-10.25,5.25-18.96,5.18-30.15M640.99,158.26c.85-.33,7.88-.69,9.77-.3-1.24,1.78-9.67,5.71-9.71,6.43.23.49,5.82-.9,7.59-1.67,1.15-.69,1.92-1.77,2.78-2.66,2.02-2.32,4.41-6.62,3.8-7.16-.98-.87-10.56-.33-11.83-.15-.85.12-2.99,3.97-3.39,4.96-.39.99.13.88.98.55"/><path class="cls-2" d="M655.35,220.73c1.67-5.66,1.62-11.7-.17-17.32-2.05-6.53-7.14-10.5-10.81-12.54l-.66,6.28s5.15,2.56,8.67,9c2.23,4.09,3.16,9.86,1.4,16.3-.29,1.6.85.72,1.57-1.71M600.9,252.24c1.51-5.1,1.46-10.53-.15-15.6-1.85-5.88-6.43-9.46-9.73-11.29l-.59,5.66s4.63,2.3,7.8,8.1c2.01,3.68,2.84,8.88,1.26,14.68-.26,1.43.76.64,1.41-1.54M411.86,166.69c2.12,3.88,3,9.37,1.33,15.48-.28,1.52.8.68,1.49-1.62,1.59-5.38,1.53-11.11-.16-16.46-1.95-6.2-6.78-9.98-10.27-11.91l-.61,5.97s4.89,2.43,8.23,8.54M284.25,168.7c1.78,4.17,1.9,9.81-.98,15.74-.56,1.49.8.79,1.95-1.45,2.33-4.56,3.64-10.27,2.46-16.57-1.21-6.48-6.08-10.9-9.73-13.29l-1.65,5.92s5.15,3.07,7.95,9.65"/><path class="cls-2" d="M319.53,261.98c2.26-4.2,3.2-7.02,4.21-12,.88-4.38.94-9.43.62-14.58,6.77-2.76,14.84-7.34,17.55-7.68-1.85,6.37,2.57,13.24,11.51,12.34.68,7.2,1.27,13.52,1.63,17.27.73,7.69.62,17.38.6,19.06-.03,1.69,1.19,1.37,2.45-2.4,1.68-5.05,2.19-18.22,1.59-26.93-.14-2.18-.39-5.12-.69-8.47,5.8-2.68,6.76-7.86,8.93-10.06,1.96,6.85,12.72,7.78,16.04,6.31,4.12-1.82,5.47-5.1,6.53-12.7,1.06-7.6-2.03-10.66-3.14-11.48-.11.92-2.8,9.85-2.8,9.85,0,0,2.56,2.7,2.68,4.03-2.08,1.88-6.47,2-10.16.8-3.69-1.2-4.82-3.41-4.6-4.89.21-1.49,1.6-2.84,1.65-4.65.04-1.81-.83-1.29-2.3.32-1.48,1.61-2.43,3.05-4.47,6.5-1.67,2.82-4.38,6.26-9.17,7.24-.79-8.28-1.69-17.08-2.29-22.61-.32-2.92-3.46-28.15-3.69-30.98-.2-2.46-.56-5.36-.5-6.72.06-1.08.74-.65,1.79.48,1.05,1.13,2.9,3.11,3.21,2.95,1.07-.53-.02-3.81-1.43-6.74-1.4-2.95-6.19-14.56-7.2-15.04-.52-.24-3.75,6.91-3.94,8.32.5.88,1.81,2.27,1.86,6.21.02,1.1.72,11.46,1.7,21.26.86,8.65,1.99,16.86,2.1,17.82.78,6.6,1.73,15.91,2.63,25.07-5.19-.99-6.57-4.41-6.46-6.36.13-2.2,1.13-4.69.65-5.25-1-.6-6.95,2.73-15.25,6.3-2.55,1.1-5.13,2.14-7.74,3.1-.72-6.24-1.68-12.17-2.06-16.7l-.05-.5c5.46-.35,9.92-3.11,11.96-5.73,2.54-3.28,4.31-10.03,4.49-15.2.17-5.18-4-14.64-5-17.65-1-3.01-1.52-5.1-1.61-6.14-.09-1.04,2.26,1.21,3.73,1.65,1,.2.65-1.97-.57-3.45-1.21-1.48-7.78-11.44-8.24-10.74-.28.41-2.91,7.74-3.08,8.86,1.04.68,2.25,2.57,2.33,4.37.09,1.81,1.53,9.74,3.14,14.16,1.61,4.41,5.03,12.87,5.25,15.2-2.45,1.72-8.02,4.64-13.52,4.47-.94-7.72-2.14-16.68-2.77-23.03-.25-2.45-.26-5.07-.22-6.44.03-1.08.81-.93,1.88.18,1.08,1.11,2.73,2.74,3.07,2.62.74-.24.1-2.7-1.37-5.62s-7.29-15.27-8.31-15.73c-.52-.24-3.13,6.7-3.29,8.12.52.88,1.85,2.23,1.98,6.17.11,3.14,1.63,18.51,2.94,32.06-5.45-2.82-7.31-6.85-7.98-13.61-.47-4.72-.52-13.4-2.2-20.67-.95-4.11-2.94-8.28-5.31-10.5-.57,1.37-3.08,9.74-3.08,9.74.82,2.41,3.38,10.51,3.29,17.53-.08,7.02-.64,13.88-8.51,18.61-7.86,4.73-19.65,2.85-22.57-4.53-2.91-7.38,3.56-25.9,3.48-30.27-.09-4.37-.87-4.97-2.7-4.25-1.82.72-5.56,4.93-8.77,11.79-3.22,6.86-4.65,15.36-6.47,21.13-1.82,5.78-4.74,11.63-9.25,11.31-4.51-.32-6.94-4.45-8.33-10.42-1.39-5.98-.54-13.85-.16-15.87.94-5.06-1.24-4.02-2.58,3.92-.83,4.9-1.65,12.71,1.26,20.9,2.91,8.18,7.86,11.23,12.2,10.19,4.34-1.04,8.16-11.23,9.51-15.81,1.35-4.57,7.36-24.86,10.77-25.86.48,2.29-2.65,9.66-3.65,18.28-1,8.62,1.33,20.21,12.27,22.21,10.95,2.01,18.37-5.09,21.06-10.02,2.7-4.93,3.95-10.11,4.26-12.71.35,6.62,4.86,16.94,13.63,19.89l.9.26c.54,5.41,1.42,12.48,2.23,19.9-1.7.53-3.41,1-5.14,1.41-.22-.71-.46-1.41-.75-2.05-2.68-5.76-7.11-11.06-13.24-10.7-6.27.37-13.11,8.74-12.81,14.85.2,4.11,2.46,7.48,10.69,8.35,3.76.4,7.75-.02,11.87-.92.58,1.7.95,3.39.99,4.93-2.61,3.05-24.18,19.32-40.34,20.89-16.15,1.56-21.08-6.91-21.24-15.41-.12-6.47,3.77-12.92,6.5-17.39,3.91-2.86,7.12-6.44,9.15-9.2.55.34,1.07.65,1.57.94,1.93,1.12,2.7,2.8,2.7,2.8.36-.55,2.02-3.54,1.37-5-.3-.36-1.76-1.26-3.51-2.32,1.84-4.59,1.82-9.18-.57-10.2-2.67-1.14-6.16,2.02-7.66,3.95-.69.88-1.07,1.97-1.08,3.1-.01,1.23.57,2.34,2,3.32,1.42.97,2.75,1.85,3.99,2.65-3.53,3.71-11.87,9.14-16.98,12.33-.19-.47-.94.03-1.94,1.21l-1.38.85c-4.07,2.49-13.84,7.96-15.76,9.3-1.92,1.34-.72,1.1,0,.8,1.35-.73,3.13-1.62,5.13-2.6,2.83-1.38,6.13-2.95,9.35-4.53-1.06,1.79-2,3.65-2.81,5.57-3.84,9.07-10.06,27.88,3.38,39.19,12.86,10.83,34.96,6.71,53.28-4.55,18.33-11.26,22.29-15.22,25.15-19.31M259.77,217.25c-.64-.47-.72-1.09-.21-1.53.66-.56,1.5-1.09,2.46-1.27,2.03-.38,2.84,1.96,2.03,5.59-1.55-.95-3.13-1.94-4.28-2.79M301.81,232.59c-9.33.04-9.76-1.65-9.59-2.74.17-1.08,3.08-4.04,6.77-2.09,1.56.83,3.31,2.56,4.94,4.74-.72.05-1.42.08-2.12.09M273.23,281.66c-17.63,4.81-34.83-2.64-35.87-17.4-.8-11.27,3.31-19.76,5.96-24.55,2.53-1.25,4.92-2.47,6.89-3.55-4.62,7.43-7.32,17.39-5.51,25.82,2.04,9.55,10.35,15.34,24.42,13.48,13.93-1.85,32.77-15.1,38.11-20.09,1.63-1.8,2.7-3.43,4.16-6.74.6-1.36,1.45-3.15,1.76-5.18.21-1.32.32-2.74.34-4.17,1.66-.5,3.3-1.04,4.93-1.62.56,6.05.98,12.01,1,17.17-8.68,10.18-28.58,22.05-46.21,26.87M581.62,242.96c-.6-9.88-2.04-27.75-2.84-36.82-.71-8.07-2.11-19.13-3.14-28.87-.21-2.05-.29-4.11-.26-6.16.03-1.08,1.11-.66,2.19.45s2.77,2.5,3.08,2.33c1.05-.55-.21-3.25-1.69-6.16-1.48-2.91-7.36-14.97-8.38-15.43-.52-.23-3.27,6.99-3.43,8.4.53.87,1.87,2.22,2.02,6.16.15,3.94,2.14,22.07,3.58,36.73,1,10.19,2.28,26.82,3.22,39.36-.05.02.89,11.92.99,13.26.58,7.7.28,17.39.22,19.07-.06,1.69,1.17,1.39,2.5-2.35,1.35-3.83,2.12-12.37,2.22-20.08l-.28-9.87ZM531.56,208.38c-1.81.55-4.65-1.36-4.43-5.37.2-3.62,1.75-7.01,2.34-9.15.82-2.95.83-5.8.13-4.19-1.57,3.61-4.48,10.58-5.09,15.31-.6,4.73.93,7.78,3.01,8.82,2.6,1.3,4.47-.76,5.73-3.81,1.22-2.92.99-6.33.14-5.53-.71.84-.97,3.65-1.85,3.92M505.58,222.95c.96-2.55,1.18-5.04.45-3.67-1.66,3.07-4.78,9-5.69,13.12-.91,4.12.2,6.91,1.95,7.96,2.19,1.32,3.98-.37,5.35-2.97,1.3-2.48,1.37-5.5.57-4.85-.69.69-1.15,3.14-1.94,3.32-1.64.36-3.98-1.51-3.47-5.03.46-3.16,2.1-6.04,2.79-7.89M429.9,276.7c1.6-2.6,2.4-5.3,1.29-3.93-2.48,3.04-7.18,8.95-9.07,13.29-1.89,4.33-1.29,7.59.4,9.07,2.1,1.85,4.44.33,6.49-2.25,1.96-2.47,2.7-5.76,1.67-5.2-.9.63-1.93,3.22-2.84,3.27-1.86.09-4.02-2.39-2.7-6.14,1.19-3.38,3.61-6.22,4.77-8.1M562.58,200.8c-1.84.46-4.55-1.6-4.1-5.59.41-3.6,2.17-6.91,2.89-9.01,1-2.91,1.17-5.75.38-4.18-1.78,3.52-5.11,10.33-6,15.03-.89,4.69.46,7.82,2.48,8.96,2.52,1.43,4.5-.54,5.96-3.52,1.39-2.85,1.37-6.27.47-5.51-.75.8-1.18,3.59-2.08,3.82M562.01,249.79c2.51,1.43,4.51-.54,5.95-3.52,1.39-2.85,1.37-6.26.48-5.51-.76.8-1.19,3.59-2.09,3.82-1.84.46-4.56-1.6-4.1-5.59.41-3.6,2.17-6.91,2.89-9.01,1-2.91,1.17-5.75.38-4.18-1.78,3.53-5.1,10.33-6,15.02-.89,4.7.46,7.82,2.48,8.97M594.15,187.21c1.21-3.52,1.42-6.96.46-5.05-2.15,4.26-6.18,12.5-7.26,18.18-1.07,5.68.56,9.46,3,10.85,3.04,1.73,5.45-.65,7.21-4.26,1.67-3.45,1.65-7.59.57-6.66-.91.97-1.43,4.34-2.52,4.61-2.22.56-5.51-1.93-4.96-6.76.5-4.36,2.62-8.36,3.5-10.91"/><path class="cls-2" d="M337.32,248.09c1.98-4.29,2.7-8.59,1.24-6.3-3.26,5.12-9.4,15.03-11.5,22.05-2.1,7.02-.55,11.95,2.34,13.98,3.61,2.51,6.94-.21,9.62-4.55,2.56-4.16,3.07-9.36,1.59-8.32-1.27,1.11-2.38,5.3-3.77,5.52-2.87.45-6.68-3.05-5.35-9.06,1.2-5.43,4.4-10.22,5.83-13.32M614.62,290.62c1.52-1.24,14.71-8.35,17.14-9.8,0,0,2.48-4.05,1.74-4.48-.75-.43-5.57,3.95-8.56,4.07-3,.12-7.1-2.08-7.24-3.89.39-1.36,4-3.41,5.3-3.49,1.3-.08,1.09,2.89,1.53,3.25.43.36,2.17-2.05,2.39-3.05.21-1,.04-5.19-2.35-4.59-3.78.96-9.47,7.96-10.12,10.16-.65,2.21,2.87,4.13,5.43,5.18-.22.08-2.14,1-3.35,2.2,0,0-1.3,1.46-1.91,4.43M569.62,299.43c1.52-1.24,14.71-8.35,17.14-9.8,0,0,2.49-4.05,1.74-4.48-.75-.43-5.57,3.95-8.56,4.07-3,.12-7.1-2.08-7.24-3.89.39-1.36,4-3.41,5.3-3.49,1.3-.08,1.09,2.88,1.53,3.24.43.36,2.17-2.04,2.39-3.05.21-1,.03-5.19-2.35-4.59-3.78.96-9.47,7.96-10.12,10.17-.65,2.2,2.87,4.13,5.43,5.17-.21.08-2.13,1-3.34,2.2,0,0-1.3,1.46-1.91,4.43M468.26,172.02c1.18,1.38,8.93,11.22,15.01,17.41,6.07,6.2,16.48,16.23,24.12,23.1,1.56,1.41,3.11,2.83,4.65,4.28,1.93,14.8,4.16,33.64,5.09,41.43.92,7.67,1.06,17.36,1.08,19.04.02,1.69,1.23,1.35,2.39-2.45,1.55-5.09,1.73-18.26.91-26.96-.51-5.37-1.71-15.44-2.88-24.72,4.51,4.46,8.78,8.88,11.65,12.2,5.28,6.08,9.73,10.67,12.44,17.2,1.92,4.62,1.72,8.3,2.51,9.03.68.63,1.43-4.9.59-10.27-1.36-8.71-3.22-12.41-14.41-24.85-4.27-4.76-9.29-9.73-14.2-14.38-.19-1.43-.36-2.76-.52-3.94-.39-2.91-4.18-28.07-4.48-30.88-.26-2.45-.7-5.34-.67-6.71.03-1.09.72-.66,1.8.45,1.08,1.11,2.97,3.04,3.29,2.87,1.06-.55-.12-3.8-1.6-6.71-1.48-2.91-6.56-14.42-7.58-14.88-.52-.23-3.57,6.99-3.72,8.4.53.87,1.87,2.23,2.02,6.16.04,1.1,1.02,11.45,2.24,21.22,1.08,8.63,2.43,16.82,2.57,17.77v.07c-5.06-4.62-9.52-8.54-12.23-11.01-6.33-5.75-20.3-19.4-20.86-21.44-.13-.65.96-.25,2.95.07,2,.32,3.78,1,3.46.02-.14-.46-.91-1.61-2.82-2.79-1.91-1.18-6.81-4.25-10.45-6.41-3.65-2.16-5.46-3.98-6.21-3.46-.37.26-.04,7.67.18,8.6.91.08,2.52,1.15,3.69,2.53"/><path class="cls-2" d="M478.24,158.68c1.5-.33,8.6-.15,11.18.39-1.08.75-8.34,4.42-9.78,5.29-1.43.88-1.79,1.38-1.07,1.3,2.08-.58,6.77-1.3,9.02-2.47,2.12-.99,5.73-5.84,7.14-7.64,1.4-1.81,1.4-2.71,1.04-3.19-1.43-.78-10.69-1.56-15.15-.46-1.23.84-3.65,5.3-4.01,6.23-.36.93.13.87,1.63.54M517.72,158.1c1.21-.27,6.93-.12,9.01.31-.87.6-6.72,3.56-7.88,4.27-1.16.7-1.45,1.11-.87,1.04,1.68-.46,5.46-1.04,7.27-1.99,1.71-.8,4.62-4.7,5.75-6.15,1.12-1.46,1.12-2.18.84-2.57-1.15-.64-8.61-1.26-12.21-.37-1,.67-2.94,4.27-3.23,5.02-.29.75.1.7,1.31.44M549.83,157.69c1.21-.27,6.93-.12,9,.31-.86.6-6.72,3.56-7.87,4.27-1.15.71-1.44,1.12-.86,1.05,1.68-.46,5.76-1.05,7.57-1.99,1.71-.8,3.73-4.7,4.86-6.16,1.13-1.45,1.13-2.18.84-2.57-1.15-.64-8.02-1.26-11.61-.38-1,.68-2.94,4.28-3.23,5.03s.1.7,1.32.43M529.8,173.32c-1.9,2.99.48,5.41,1.35,7.83-1.17,1.07-2.97.09-3.58-.85-1.28-1.93-.85-5.85-2.36-6.46-.39,1.06-.64,2.24-.64,2.24,0,0,1.15,2.69.86,4.46-.18,1.07-1.13,2.33-2.38,2.35-3.34.08-1.69-4.86-2.98-7.66-.26.68-.45,1.42-.76,2.06.24.73.36,1.75.4,2.34.08,1.17-.02,2.44.18,3.44.28,1.42,1.06,2.35,2.26,2.45,2.49.2,3.63-1.82,4-3.48.43,1.69,3.72,3.55,5.35,1.48,2.15-2.74.43-5.08-.67-7.65-.79-1.9-.56-3.15-1.04-2.56M436.16,165.38c.17,1.23.81,2.07,1.84,2.2,2.13.27,3.21-1.42,3.61-2.83.28,1.47,3.04,3.2,4.54,1.49,1.98-2.27.61-4.36-.22-6.62-.59-1.68-.34-2.74-.77-2.25-1.78,2.5.16,4.68.79,6.8-1.06.87-2.57-.04-3.04-.87-1.01-1.71-.46-5.08-1.73-5.66-.38.9-.65,1.9-.65,1.9,0,0,.86,2.36.52,3.88-.2.92-1.08,1.96-2.16,1.93-2.87-.06-1.22-4.25-2.2-6.71-.26.57-.45,1.21-.75,1.74.17.64.23,1.52.23,2.04.02,1.01-.12,2.09,0,2.97M504.15,281.36c.32-.51,1.03-1.91.85-2.86s-1.35-4.94-3.62-5.94c-2.26-1-3.96,1.09-5.05,4l-.75-.02c-.18.43-.4,1.07-.58,2.24-.25,1.68-.73,2.76-3.61,5.37-2.42,2.19-10.27,7.44-15.35,9.91-5.09,2.47-8.75,4.61-10.1,5.26-1.35.64-.95.88.39.47,1.34-.4,8.1-2.58,10.79-3.68,2.69-1.12,5.97-2.95,9.93-5.52,4.4-2.86,7.04-5.71,7.92-8.25.63-1.8.79-2.53.79-2.53,0,0,1.65.98,4.46,1.62,2.8.64,3.59.44,3.92-.08M500.35,275.7c1.25.47,2.01,1.83,2.23,2.65-1.43.03-4.06-.69-5.18-1.2.67-1.3,1.85-1.87,2.95-1.45"/><path class="cls-2" d="M474.34,284.16c-3.91-.54-13.75-2.04-16.16-7.75,2.02-2.95,11.33-6.68,22.99-10.17,11.66-3.48,23.85-8.01,27.12-10.19.72-.24,2.11-.17,2.11-.17.59-1.69,3.51-7.62,3.7-8.86-3.26.18-23.35,1.66-32.27,2.14-8.93.48-26.13.36-31.86.3,3.51-2.53,11.86-7.46,23.77-11.67,1.55-.55,2.98-1.04,4.31-1.49.99,1.77,1.73,3.51,1.88,5.04.76-.78,1.33-3.37,1.14-6.02,6.95-2.22,10.53-2.95,12.07-3.37.98-1.26,2.7-6.38,2.96-10.09-1.04-1.89-4.29-4.25-7.18-6.27-3.98-2.78-8.28-5.21-12.57-4.15-5.86,1.44-7.04,12.21-5.67,14.5.44.72,1.47,2,2.69,3.58-4.28,1.68-8.77,3.66-12.71,5.75-8.8,4.63-18.62,9.7-21.49,14.58l-.82.4c-.23.46-2.04,8-2.31,8.82,1.83-.06,15.49-.04,25.01-.33,9.51-.3,17.83-.61,21.08-.61-4.82,1.14-17.46,5.84-21.1,8.6-3.63,2.77-5.92,6.98-5.98,14.2-3.39-1.33-9.68-4.36-15.05-11.62-5.98-8.09-4.74-16.41-7.14-27.32-3.48-15.84-10.91-29.22-15.53-33.31-1.56,5.59-1.76,9.81-1.76,9.81,0,0,5.8,12.81,8.73,20.99,2.93,8.18,5.44,16.24,5.32,18.05-2.42,5.3-16.72,16.39-28.63,22.89-11.3,6.16-21.26,6.82-24.79,2.44-.69-.86-1.16-1.87-1.43-3.02,1.53-.72,3.07-1.44,4.65-2.16,10.16-4.63,28.21-14.37,32.44-19.49,4.56-6.2,4.5-14.92,1.82-19.92-2.67-4.99-6.85-10.77-7.17-12.81-.26-.96,2.71.39,4.47.48.85-.06.42-1.21-1.4-3.01-1.46-1.44-7.09-6.1-9.24-7.93-.54-.46-.94-.28-1.05.21-.42,1.86-1.28,5.85-1.61,7.82l.23.99c.62.37,1.33.78,1.68,1.81.49,1.46,2.19,5.54,4.99,10.68,2.8,5.14,6.85,10.82,7.25,13.69-3.29,4.2-19.89,13.14-36.07,20.51,1-3.1,2.58-6.6,4.67-10.5.59-.66,1.14-1.47,1.64-2.39,1.61-2.95,1.77-6.55.79-5.79-.84.81-1.44,3.73-2.4,3.93-1.96.4-4.72-1.89-4.03-6.08.63-3.78,2.65-7.19,3.52-9.38,1.21-3.02,1.54-6.01.62-4.39-2.06,3.63-5.93,10.67-7.12,15.58-1.18,4.91.07,8.26,2.15,9.56.77.49,1.52.65,2.22.55-1.42,2.7-3.17,6.01-4.45,9.96-6.5,2.91-12.83,5.51-18.07,7.38-18.83,6.74-32.24,10.71-41.62,13.66l-.37.16c.69-2.23.6-4.14-.14-3.56-.84.81-1.44,3.74-2.4,3.93-1.96.4-4.72-1.89-4.03-6.08.63-3.78,2.65-7.19,3.53-9.38,1.2-3.02,1.54-6.02.62-4.39-2.07,3.63-5.93,10.67-7.12,15.58-1.19,4.91.07,8.27,2.14,9.57,2.58,1.62,4.78-.37,6.47-3.44l.59-1.26c.59,0,1.58-.14,3.05-.47,4.3-.97,15.05-2.53,29.83-4.45,10.95-1.42,18.5-4.43,25.81-7.77-.04.83-.04,1.65,0,2.48.4,10.03,6.97,12.86,15.96,10.98,8.67-1.82,20.77-9.77,28.01-15.14,7.56-5.59,11.92-10.59,13.03-12.33,2.02-4.27,2.57-8.99,2.71-11.22.66,6.13,1.19,14.62,6.99,21.9,5.34,6.7,16.29,16.05,36.87,16.31.07-2.45-.91-10.09-.91-10.09M472.98,222.01c2.95-3.31,9.23-1.14,13.95,3.05-2.42.57-5.7,1.58-9.33,2.87-2.15-2.6-4.55-5.1-4.63-5.92M357.24,176.66c1.34-.61,5.43-2.45,9.83-5.02,4.4-2.55,8.53-5.64,10.55-7.69.77-.79,1.47-1.4,1.91-2.13,1.32.55,2.23,1.12,2.8,1.34.85.33,1.99.8,2.73-1.62.74-2.42-.24-3.99-1.68-5.86-1.22-1.57-3.15-3.92-4.72-4.51-1.33-.5-1.96,2.47-1.76,2.4h.89l.17.08c-1.83.93-3.25,3.8-3.39,4.81-.14,1.1.06,1.91,2.69,2.59l1.06.31c-2.19,2.6-6.28,5.29-9.07,7.19-3.95,2.71-9.56,6.1-11.16,7.07-1.6.97-1.46,1.28-.84,1.04M380.99,157.57l.14-1.3c1.85,2.11,3.22,4.61,3.08,4.97-.85.07-1.91-.72-3.76-1.51.23-.71.4-1.43.53-2.16M375.68,157.58c-.01-.4.7-1.49,2.21-2.1,1.5-.6,2.17,1.08,2.3,3.14l-.45.82-1.36-.47c-1.43-.42-2.4-.66-2.71-1.4"/><path class="cls-2" d="M455.81,216.33c2.17-1.43,8.13-5.74,11.52-8.56,2.35-1.96,5.12-4.85,6.99-7.29,1.08.7,2.17,1.37,3.28,2.03,1.93,1.13,2.7,2.8,2.7,2.8.36-.55,2.02-3.54,1.37-5-.39-.48-2.76-1.86-5.18-3.35,1.23-2.76,2.92-7.53.5-9.21-2.07-1.42-5.57.93-7.19,3.98-1.34,2.52-1.51,4.66,1.04,6.41.72.49,1.41.96,2.08,1.4-2.57,2.81-7.31,6.98-10.68,9.81-4.19,3.51-8.15,6.94-8.84,7.76l-.2.32c-.91-2.55-.67-4.12-1.34-3.27-2.93,4.6.74,8.33,2.08,12.05-1.81,1.64-4.58.13-5.51-1.3-1.98-2.97-1.32-9.01-3.63-9.95-.6,1.63-.99,3.45-.99,3.45,0,0,1.76,4.13,1.32,6.87-.28,1.65-1.74,3.58-3.66,3.62-5.14.13-2.61-7.47-4.59-11.78-.4,1.06-.69,2.18-1.17,3.16.36,1.13.56,2.7.62,3.61.13,1.81-.02,3.74.29,5.29.42,2.18,1.64,3.63,3.48,3.76,3.83.31,5.58-2.8,6.16-5.34.66,2.6,5.74,5.46,8.23,2.27,3.31-4.21.66-7.82-1.03-11.78l-.2-.51c.24.08,1.12-.3,2.57-1.26M470.8,192.61c1.27-2.36,3.95-2.56,4.75-1.32.64.98.69,2.9-.27,4.92-2.36-1.48-4.47-2.93-4.48-3.6"/><path class="cls-2" d="M372.16,201.33c-4.51-.32-6.94-4.46-8.33-10.43-1.39-5.97-.54-13.85-.16-15.87.38-2.02-1.75-.98-2.58,3.92-.82,4.89-1.65,12.71,1.26,20.9,2.91,8.18,7.86,11.23,12.2,10.18,4.34-1.04,8.16-11.23,9.51-15.8,1.35-4.57,7.36-23.22,10.77-24.23.48,2.29-2.65,8.02-3.65,16.65-.99,8.62.74,19.93,11.68,21.94,10.95,2.01,18.37-5.09,21.06-10.03,2.7-4.93,3.95-10.11,4.26-12.71.35,6.62,4.86,16.95,13.63,19.89,8.47,2.85,14.95.24,17.8-3.45,2.54-3.28,4.61-10.03,4.79-15.2.17-5.17-4.3-14.63-5.3-17.65-1-3.01-1.52-5.09-1.61-6.13-.08-1.04,2.26,1.21,3.74,1.65,1,.2.65-1.96-.57-3.45-1.21-1.48-7.78-11.44-8.24-10.75-.28.41-2.91,7.74-3.08,8.86,1.04.68,2.25,2.57,2.34,4.37.08,1.8,1.82,9.74,3.43,14.16s4.73,12.88,4.95,15.2c-3.12,2.2-10.17,5.01-16.85,2.16-6.69-2.85-8.82-6.98-9.56-14.36-.47-4.71-.52-13.4-2.2-20.66-.95-4.11-2.94-8.28-5.32-10.49-.56,1.36-3.08,9.74-3.08,9.74.82,2.41,3.38,10.51,3.3,17.53-.09,7.01-.64,13.88-8.51,18.61-7.86,4.73-19.06,2.85-21.97-4.54-2.91-7.38,3.56-23.98,3.48-28.35-.09-4.37-.87-4.98-2.7-4.25-1.83.72-5.56,4.94-8.77,11.79-3.21,6.86-4.64,13.72-6.47,19.49-1.82,5.78-4.74,11.63-9.25,11.31M241.1,175.75c5.55-.4,10.25-4.62,11.46-5.73,1.22-1.13,1.87-2.81,1-2.17-6.43,5.74-15.02,5.9-15.51,4.93.22-.96,2.48-2.53,5.78-4.73,2.01-1.34,3.79-2.6,5.13-4.38l.36.06c2.45.54,5.27,1.61,6.13.75,1.41-1.38,1.59-3.65.07-6.1-1.29-2.08-4.29-4.01-6.9-5.4-2.6-1.39-3.11.83-3.44,1.62-.32.74-.19,1.37.36,1.38-.84,1.14-1.43,2.61-1.65,3.83-.14.79-.03,1.43.29,1.96.09.15.57.74,1.49,1.09l1.13.35c-1.95,1.8-4.19,3.21-5.37,3.92-2.12,1.28-4.65,3.53-5.43,5.85-.78,2.33-.48,3.17,5.08,2.77M250.91,159.36l.21-1.18v-.76c1.76,1.28,4.58,3.71,4.4,5.16-1.12-.25-3.24-.7-5.26-1.22.26-.61.47-1.27.64-2M245.69,159.73c-1.3-1.03-.03-2.06,1.12-2.73,1.48-.86,2.35-.15,3.11,2.1-.28.66-.65,1.29-1.08,1.87-1.15-.36-2.78-.93-3.15-1.24M257.76,238.48c-1.6,1.38-2.22,5.89-1.89,6.16.32.27,5.31,1.96,6.09,2.32l.36-1.36c2.38,2.13,5.01,12.79,5.6,12.82.59.03,1.44-1.2,1.99-4.03.51-2.62,1.02-6.55,1.56-9.74.5-2.93,1.27-4.6,3.03-4.93,1.76-.33,3.07,1.93,3.52,3.46,0,0,1.23-2.95,1.5-4.78-.29-.96-3.03-4.6-5.28-3.4-2.25,1.21-3.66,6.31-4.11,9.5-.46,3.18-.81,7.14-1.36,7.77-.58-2.72-2.44-7.59-4.69-10.32-2.53-3.06-5.48-4.19-6.32-3.46M236.47,233.04c2.09-.57,6.78-1.29,9.02-2.46,2.12-.99,5.73-5.83,7.13-7.64,1.4-1.81,1.4-2.71,1.05-3.19-1.43-.79-10.69-1.56-15.15-.46-1.23.83-3.65,5.3-4,6.23-.36.93.13.87,1.63.54,1.5-.33,8.6-.15,11.17.39-1.07.76-8.34,4.42-9.77,5.3-1.43.87-1.79,1.38-1.07,1.29M666.79,258.89c-.21-5.41-2.86-13.72-12.94-26.47-3.48-4.4-8.37-10.13-13.54-16-.14-2-.28-3.83-.41-5.4-.68-8.07-2.97-24.55-3.96-34.29-.24-2.46-.26-5.07-.22-6.43.03-1.08.82-.94,1.89.17,1.07,1.11,2.73,2.74,3.07,2.62.73-.25.1-2.71-1.37-5.63-1.46-2.92-6.99-14.73-8.01-15.19-.52-.23-3.13,6.7-3.29,8.12.52.87,1.85,2.23,1.98,6.17.14,3.94,2.51,27.21,3.88,41.88l.07.82c-7.72-8.62-14.99-16.48-17.98-19.66-.52-.55-1.09-1.18-1.7-1.85-.49-3.92-.94-7.66-1.25-10.75-.21-2.14-.28-4.29-.22-6.43.03-1.08.81-.93,1.89.18,1.08,1.11,2.73,2.73,3.07,2.62.73-.25.1-2.71-1.37-5.63-1.46-2.92-7.23-15-8.25-15.46-.52-.23-3.25,7.25-3.41,8.66.52.88,1.86,2.23,1.99,6.18.05,1.67.49,6.75,1.07,13.15-5.12-6.08-10.13-12.45-10.48-13.74-.13-.64.96-.25,2.96.08,1.99.32,3.86.92,3.54-.07-.15-.46-.91-1.6-2.82-2.79-1.91-1.18-6.81-4.25-10.45-6.41-3.65-2.16-5.46-3.99-6.21-3.47-.37.26-.04,7.68.17,8.6.92.08,2.61.76,3.69,2.21,1.09,1.44,8.07,11.23,13.59,17.85,2.31,2.77,4.64,5.52,6.99,8.26.57,6.1,1.17,12.39,1.66,17.66,1.12,12,5.15,43.66,5.18,53.95-2.97,2.79-9.05,6.68-15.3,6.76-6.25.08-9.68-1.57-12.2-6.22-.78-1.44-1.5-2.89-2.22-4.2-1.7-3.12-5.51-4.87-9.17-4.01l-.56.15-1,.48c-2.48,1.3-5.05,3.48-7.56,6.85-4.34,5.86-7.11,12.22-10.32,17.72-3.34,5.73-5.91,9.58-11.78,8.66-4.13-.65-7.27-4.19-9.2-8.55,5.43-3.76,9.38-8.66,12.26-15.45,3.76-8.83,5.09-18.79,4.76-29.98-.32-10.54-5.12-35.32-6.39-44.82-1.27-9.5-3.08-17.3-2.87-19.33.2-1.96,3.31,2.65,4.91,3,.82-.18.38-3.12-1.17-5.61-1.05-1.69-4.38-9.37-6.56-13.08-1.03-1.75-1.27-2.77-1.75-2.98-.47-.21-4.1,7.54-3.66,8.38,1.07,1.54,1.81,2.27,2.03,5.02.23,2.75,2.72,22.94,4.89,37.81,1.64,11.22,5.26,31.6,5.72,46.66.15,4.91-.55,8.44-1.16,10.41-1.56,3.02-4.11,6.37-13.05,12.74-1.38-8.99.12-16.3-1.19-16.98-1.48.16-1.71,4.35-1.88,9.52-.08,2.39.02,5.7.47,9.25-10.98,7.34-25.49,14.02-32.3,17.59-4,2.1-2.55,2.59.83,1.54,3.38-1.05,21.97-5.93,31.9-11.14l1.07-.59c.5,1.75,1.11,3.44,1.87,5.01,3.34,6.94,8.11,11.06,13.28,10.66,4.35-.33,7.5-4.99,10.25-10.54,2.78-5.62,7.48-16.28,12.08-20.25,1.77-1.53,3.6-2.74,5.38-3.47,0,0,3.15-1.05,6.04.84,1.04.68,1.81,1.66,2.3,2.75,1.14,2.5,2.49,5.68,5.25,8.34,4.86,4.68,12.69,3.72,18.55.99,5.86-2.73,8.85-6.98,10.15-12.04,2.22-8.65,1.87-17.51,1.44-25.38-.49-8.98-1.93-18.16-2.74-27.89-.26-3.13-.78-7.48-1.36-12.19,5.71,6.59,11.65,13.29,15.25,16.95,1.24,1.26,2.55,2.67,3.9,4.15,1.07,14.72,2.11,33.15,2.65,40.88.54,7.7.19,17.39.13,19.07-.07,1.68.87,1.39,2.22-2.34,1.8-5.02,2.93-18.17,2.54-26.9-.24-5.18-.75-14.63-1.31-23.57,3.9,4.64,7.7,9.37,11.38,14.18,4.87,6.38,9.34,13.96,10.91,18.69,1.56,4.73,1.73,6.14,2.04,6.98s1.65-2.61,1.44-8.02M584.55,439.01c-.44-1.26-1.79-2.18-3.4-2.18s-2.96.92-3.4,2.18h-15.25c-.16-1.7,0-3.41.48-5.05l31.49-.02.88,1.48c.8,1.34,1.8,2.55,2.95,3.59h-13.75ZM605.4,424.38h-37.85c2.91-2.1,4.43-5.16,4.03-8.26-.26-1.95-2.2-3.41-4.55-3.61h-1.18c-2.87.28-4.95,2.35-4.65,4.62l.11.87.14,1.34c.16,1.69,0,3.4-.47,5.03h-279.74c4.15,6.04,11.73,9.75,19.91,9.74l255.27-.16c-2.92,2.1-4.45,5.17-4.04,8.27.3,2.27,2.87,3.89,5.74,3.61,2.87-.28,4.95-2.35,4.65-4.62l-.12-.87h15c.26,1.46,1.73,2.59,3.51,2.59s3.24-1.12,3.51-2.59h15.26v-.04c3.19,2.26,7.24,3.56,11.52,3.56,4.03,0,7.29-2.8,7.29-6.26v-1.81c0-6.32-5.97-11.44-13.34-11.44"/></svg>