<?xml version="1.0" encoding="UTF-8"?><svg id="_色修正" xmlns="http://www.w3.org/2000/svg" viewBox="0 0 900 600"><defs><style>.cls-1,.cls-2,.cls-3,.cls-4,.cls-5,.cls-6,.cls-7,.cls-8,.cls-9,.cls-10,.cls-11,.cls-12,.cls-13,.cls-14,.cls-15,.cls-16,.cls-17,.cls-18,.cls-19,.cls-20,.cls-21{fill:none;}.cls-1,.cls-2,.cls-3,.cls-4,.cls-5,.cls-6,.cls-11{stroke-width:.89px;}.cls-1,.cls-2,.cls-3,.cls-8,.cls-13,.cls-14{stroke-linecap:round;}.cls-1,.cls-6,.cls-22{stroke:#beae81;}.cls-2,.cls-4,.cls-7,.cls-8,.cls-9,.cls-10,.cls-11,.cls-12,.cls-13,.cls-14,.cls-15,.cls-16,.cls-17,.cls-18,.cls-19,.cls-23,.cls-20,.cls-21{stroke:#663e2d;}.cls-3,.cls-5,.cls-24{stroke:#ecd64f;}.cls-7{stroke-width:.84px;}.cls-8,.cls-10{stroke-width:1.01px;}.cls-9{stroke-width:.79px;}.cls-11{stroke-linecap:square;}.cls-12{stroke-width:.95px;}.cls-13,.cls-16{stroke-width:.94px;}.cls-14,.cls-15{stroke-width:.93px;}.cls-16{stroke-linejoin:round;}.cls-17{stroke-width:.9px;}.cls-18{stroke-width:1.22px;}.cls-19{stroke-width:1.15px;}.cls-23{stroke-width:.25px;}.cls-23,.cls-25{fill:#663e2d;}.cls-20{stroke-width:1.08px;}.cls-26{fill:#2e5fa9;}.cls-26,.cls-27,.cls-28,.cls-25,.cls-29,.cls-30,.cls-31{stroke-width:0px;}.cls-27{fill:#e50012;}.cls-28,.cls-22{fill:#beae81;}.cls-29{fill:#fff;}.cls-30{fill:#fff000;}.cls-31{fill:#004097;}.cls-22{stroke-width:.46px;}.cls-21{stroke-width:.72px;}.cls-24{fill:#ead04e;stroke-width:.46px;}</style></defs><rect class="cls-27" x=".62" y="0" width="900" height="600"/><rect class="cls-30" x=".62" y="0" width="612" height="600"/><rect class="cls-31" x=".62" y="0" width="288" height="600"/><path class="cls-28" d="M423.28,166.32c10.85,0,15.28,9.3,26.13,9.3,6.7,0,10.6-2.19,16.43-5.48,4.07-2.31,6.67-3.53,11.34-3.53s7.72,1.45,10.17,5.55c1.38,2.32,2.53,6.87,1.92,9.47-1.15,4.94-1.86,7.09-3.84,11.66-.94,2.19-1.82,3.51-1.82,5.91,0,5.76,7.83,7.73,13.16,7.82,1.16.02,10.93.18,16.93-5.9-3.26-.14-6.91-2.67-6.91-5.93,0-3.69,2.59-6.19,6.11-7.25.67-.19,1.81.4,2.41.08.86-.45.46-1.41,1.22-2.02,1.75-1.4,2.89-2.27,5.13-2.27,1.46,0,2.32.21,3.5,1.05.62.45.85,1,1.61,1,1.61,0,2.4-1.02,4.01-1.02,1.3,0,2.1.18,3.24.76.95.49.93,2.11,2.01,2.11.54,0,3.4-1.17,4.9-1.17,3.1,0,4.76,1.12,6.76,3.48.54.64.89,1.92,1.44,1.92,1.11,0,3.66.71,5.25,2.3.68.68.99,1.01,1.51,1.83.37.59.93,2.02,1.57,2.27.76.29,1.39.24,2.39.87,2.27,1.46,4.02,4.2,3.94,6.85-.03.89-.43,2.13-.68,2.98-2.65,9.26-8.95,12.19-15.31,20.14-2.7,3.39-4.84,6.09-4.84,10.43,0,1.05,1.29,2.97,1.86,3.85-.35-2.04.58-4.55,2.74-4.66,2.95-.16,5.24,2.09,5.63,5.01.08.68-.18,1.87-.47,2.56,1.59-1.05,3.69-1.76,5.59-1.98,1.03-.11,1.63-.14,2.68-.12,4.72.12,9.93,2.77,13.09,5.46,9.67,8.22,10.84,20.24,10.32,23.58-1.17,7.42-.44,20.85-19.4,26.21,3.51,1.48,5.89,4.12,5.89,7.36,0,3.53-2.7,6.55-6.23,6.55-2.02,0-3.42-.49-4.83-1.91-3.94,3.94-4.71,7.97-4.71,13.55,0,3.34.64,5.31,2.04,8.33,1.48,3.2,2.54,5.07,5.22,7.38,1.42-2.13,2.91-3.69,5.47-3.69s4.58.8,5.6,3.05c.3.68.03,1.24.38,1.91.45.86,1.19,1.05,1.65,1.91.72,1.32.02,2.45.64,3.82.4.89,1.27,1.02,1.65,1.91.6,1.37.76,2.31.76,3.82,0,4.23-3.85,7.25-8.08,7.25-1.27,0-1.97-.51-3.24-.38,2.42,2.42,4.26,3.47,6.11,6.36,2.67,4.18,3.34,7.16,3.94,12.09.11.92.13,1.48.13,2.42,0,6.33-.99,10.11-3.82,15.78-2.7,5.42-5.01,8.43-9.92,11.96-7.67,5.52-13.25,7.11-22.52,8.91-5.95,1.14-9.35,1.65-15.39,2.04-7.73.49-12.13.51-19.85,1.02-10.11.68-17.13,2.11-24.3,9.29,3.39,2.48,5.72,4.91,5.72,9.1s-2.66,7.36-6.74,8.71c-.95.32-1.65.03-2.54.51-1.07.56-1.02,1.78-2.04,2.42-1.8,1.14-3.2,1.4-5.34,1.4-3.78,0-6.36-.89-9.03-3.56-3.1,2.58-4.15,4.9-7.63,6.87-1.15.64-1.73,1.53-3.05,1.53-2.08,0-3.04-1.32-4.71-2.54-2.66-1.94-4.07-3.23-6.23-5.72-3.16,1.89-5.1,3.43-8.78,3.43-2.26,0-3.69-.32-5.6-1.53-1-.62-1.16-1.54-2.16-2.16-1.05-.65-1.92-.41-3.05-.89-4.25-1.83-7-4.98-7-9.6,0-4.06,2.56-6.63,6.23-8.33-7.05-7.04-13.98-8.27-23.92-8.91-7.68-.49-12.05-.51-19.72-1.02-6.09-.41-9.48-1.03-15.52-2.04-4.56-.75-7.27-.99-11.45-2.93-14.39-6.71-23.57-15.92-25.44-31.68-.16-1.35-.13-2.13-.13-3.5,0-8.21,3.23-13.21,9.03-19.02-1.49-.35-2.5.14-3.94-.38-3.63-1.32-6.23-3.83-6.23-7.7,0-1.43.06-2.39.76-3.63.49-.87,1.43-1.05,1.65-2.04.29-1.3-.1-2.23.51-3.43.4-.81,1.14-.97,1.53-1.78,1.26-2.61,2.83-4.71,5.72-4.71,2.48,0,4.07,1.3,5.34,3.43,2.42-1.11,3.09-2.93,4.45-5.22,2.27-3.8,3.31-6.46,3.31-10.88,0-3.09-.3-4.9-1.27-7.82-.7-2.1-.99-3.53-2.54-5.09-1.42,1.42-2.82,1.91-4.83,1.91-4.04,0-7.12-3.47-7.12-7.51,0-3.01,1.48-5.23,4.2-6.49-2.18-1.88-4.07-2.04-6.49-3.56-3.67-2.32-4.96-4.77-7.38-8.4-1.57-2.37-1.99-4.02-2.8-6.74-.97-3.28-1.53-5.23-1.53-8.65,0-.89.02-1.42.13-2.29.91-6.9,2.15-11.23,6.49-16.67,2.58-3.23,4.33-5.22,8.14-6.87,3.24-1.4,5.18-2.42,8.71-2.42,1.07,0,1.69,0,2.74.13,1.62.21,2.66.35,4.07,1.15.54.3,1.53,1.21,1.53.57,0-.73-.38-1.11-.38-1.84,0-2.93,2.1-5.6,5.03-5.6,2.12,0,2.97,1.86,4.01,3.69.67-1.11,1.02-1.88,1.02-3.18,0-4.83-2.59-7.3-5.6-11.07-6.55-8.19-14.76-12.02-14.76-22.52,0-3.13,1.51-5.26,4.2-6.87.78-.46,1.83,0,2.59-.49.65-.41.58-1.26.99-1.92.65-1.03,1.23-1.48,2.14-2.27,1.49-1.3,2.81-.91,4.46-2.06.83-.57,1.02-1.32,1.66-2.08,1.84-2.23,3.5-3.3,6.41-3.3,1.46,0,2.28,0,3.64.55.46.18,1.32.87,1.43.74.29-.35,1.08-1.19,2.02-1.63,1.22-.59,1.72-.82,3.09-.82,1.56,0,2.58.87,4.14.87.57,0,.7-.57,1.17-.87,1.38-.94,2.18-1.47,3.87-1.47s2.52.54,3.89,1.41c1.29.81,1.47,1.9,2.79,2.66.73.43,1.35.24,2.16.51,3.63,1.21,6.36,3.63,6.36,7.44,0,2.07-.49,3.55-2.04,4.9-1.22,1.08-2.39.89-3.94,1.4,5.06,4.04,9.46,5.04,15.91,5.04,5.92,0,13.15-2.42,13.15-8.33,0-2.75-1.52-4.23-2.6-6.76-1.94-4.5-2.99-7.15-2.99-12.05,0-3.88.42-6.23,2.68-9.38,2.32-3.24,5.16-4,9.15-4h0Z"/><path class="cls-16" d="M383.87,197.81c.39,1.47,1.58,2.84,3.44,3.43,1.12.35,3.71.21,5.39-1.96,1.36-1.76,1.26-3.94.75-5.67-.33-1.12-1.23-2.2-2.43-3.12l-7.14,7.25v.07s0,0,0,0Z"/><path class="cls-14" d="M564.79,306.24c-1.68-4.06-6.02-2.24-6.28,0-.61,5.16,3.91,6.72,7.12,5.88,1.59-.42,2.76-1.42,3.51-2.73.84-1.48,1.1-3.4.55-5.24-.25-.83-.6-1.54-1.19-2.32-.6-.79-1.22-1.33-1.8-1.7-1.24-.79-2.59-.87-4.7-.87-7.84,0-14.69,9.26-17,18.88-.76,3.17-1.8,10.23-.36,16.93,1.54,7.14,4.62,12.08,8.24,15.83,1.96,2.03,4.63,3.84,8.09,5.79,1.07.6,3.89,1.85,5.85,2.41,2.01.57,3.87.49,5.54.13,4.64-1.01,6.8-5.33,4.46-9.75-1.92-3.62-7.56-5.6-10.22-.98-.23.39-.58,1.25-.57,2.17.01,1.23.53,2.72,1.41,3.28,2.02,1.29,5.25.92,5.1-2.65"/><path class="cls-19" d="M540.56,359.45c1.57-1.85,5.18-4.63,9.31-5.13,4.19-.51,7.83.71,11.55,2.7,7.25,3.9,11.3,8.1,13.99,15.88.68,1.98,1.25,4.95,1.17,8.12-.13,5.04-1.41,10.56-2.78,13.22-1.2,2.33-4.34,12.59-21.55,19.68-10.04,4.14-25.47,5.09-36.11,5.51-14.63.58-28.13,1.12-35.97,10.78"/><path class="cls-10" d="M544.22,376c-.42-1.54-.03-3.02,1.19-4.69,1.63-2.24,5.11-3.01,8.26-1.26,1.05.59,2.37,1.36,3.57,2.94.45.6,1.22,1.57,1.61,2.24.95,1.63,1.34,2.96,1.53,3.5,3.46,9.84-2.04,20.49-9.23,24.77-5.59,3.32-12.25,4.8-20.22,5.74-3.58.42-5.63.39-9.24.56-2.9.13-5.41.09-7.77.06-1.94-.02-3.78-.01-5.67-.06-3.07-.07-6.25-.14-10.15.14-4.09.3-7.18.4-10.64.98-2.26.38-4.91.74-7.69,1.36-.83.19-1.68.34-2.53.6-.57.17-1.13.35-1.69.52-5.01,1.53-9.89,3.39-13.73,5.87-1.19.77-2.53,1.53-3.49,2.44-.6.56-1.32,1.13-1.91,1.71-2.69,2.65-5.44,5.51-6.09,9.39-.12.72-.12,1.47-.12,2.26,0,2.52,2.05,5.95,7.58,7.07"/><path class="cls-10" d="M465.58,202.89c1.16,2.09,1.79,3.36,1.12,5.53-.76,2.45-2.5,3.92-4.97,3.92-5.6,0-8.89-6.63-6.37-10.85,4.48-7.49,13.09-3.28,21.06.43-.38-1.92-1.06-2.55-.99-4.92.17-5.91,4.55-8.59,6.3-14.04,1.04-3.25,1.46-6.07-.92-8.38-2.08-2.02-4.48-1.99-7.19-.92-5.42,2.12-11.92,8.22-23.37,8.39-11.45-.17-18.01-6.27-23.43-8.39-2.71-1.06-5.12-1.09-7.19.92-2.38,2.31-1.96,5.13-.92,8.38,1.75,5.46,6.13,8.14,6.3,14.04.07,2.38-.6,3-.99,4.92,7.98-3.71,16.92-8.29,21.06-.43,2.31,4.38-.77,10.85-6.37,10.85-2.47,0-4.2-1.57-4.97-3.92-.68-2.09,0-3.92,1.12-5.53"/><path class="cls-8" d="M443.19,199c2.16,1.65,3.69,3.69,3.43,7-.28,3.59-1.14,4.45-3.94,6.36"/><path class="cls-8" d="M446.06,207.02c-.13,2.16-1.02,3.56-3.18,4.45"/><path class="cls-28" d="M390,189.73l.98.7,1.05,1.12.7,1.4.35,1.19.07,1.54-.07,1.05-.35,1.19-.7.84-.84.91-1.19.63-1.54.35-1.33.21-1.4-.63-1.26-.91-.77-1.12-.56-1.4v-.56l6.86-6.51h0Z"/><path class="cls-13" d="M387.85,195.2c-.43-2.32-3.15-2.8-4.2-1.43-1.62,2.11-.44,5.63,2.86,6.66,1.12.35,3.71.21,5.39-1.96,1.36-1.76,1.26-3.94.75-5.67-.33-1.12-1.23-2.1-2.43-3.01-3.83-2.91-10.01-2.24-12.04,2.66-2.62,6.32,3.08,11.06,8.33,14.62,6.61,4.49,14.13,5.31,19.8,5.25,12.88-.14,22.67-6.3,29.04-9.8,1.48-.82,3.01-.65,3.78.28.87,1.05.85,2.74-.35,3.85"/><path class="cls-12" d="M349.68,369.61l-2.87,1.05-2.94,2.24-1.26,1.75-1.61,2.8-.7,2.1-.56,2.59-.28,1.96"/><path class="cls-12" d="M366.2,369.89l-.21,2.52-.42,1.75-1.26,3.01-1.96,2.59-2.1,1.68-1.54.77-2.17.49"/><path class="cls-20" d="M450.48,437c-.52,2.33-2.7,4.99-7.45,5.96,0,0-.56.12-.92.19"/><path class="cls-18" d="M569.27,362.6c3.01,2.8,5.12,6.21,6.74,10.9.68,1.98,1.25,4.96,1.17,8.12-.13,5.04-1.41,10.56-2.78,13.22-1.2,2.33-4.34,12.59-21.55,19.68-10.04,4.14-25.47,5.09-36.11,5.51-14.42.57-27.74,1.1-35.62,10.36"/><path class="cls-7" d="M545.75,371.95c1.07-1.46,4.97-3.31,8.11-1.56,1.04.58,2.26,1.3,3.34,2.92"/><path class="cls-18" d="M565.6,359.2c.7.27,1.4.51,2.02.69,2.01.57,3.9.62,5.54.13,3.98-1.19,6.54-4.91,4.46-9.75-.48-1.12-1.4-2.2-2.44-3"/><path class="cls-13" d="M338.74,255.11c-2.67,1.65-4.66,2.05-6.74,4.45-2.07,4.1-2.88,6.3-3.69,9.58"/><path class="cls-13" d="M393.14,196.46c0,2.42-1.78,3.94-4.2,4.45"/><path class="cls-17" d="M559.28,244.22c6.65-.14,25.97,5.08,26.11,27.79.14,22.43-13.84,26.1-19.45,27.59"/><path class="cls-15" d="M561.03,244.22c11.47-.5,23.3,7.94,23.82,29.01.41,16.46-11.27,23.93-16.87,25.42"/><path class="cls-9" d="M554.64,323.54l.18-2.25.75-3.58,1.06-2.78,1.19-2.3,1.55-1.85"/><path class="cls-9" d="M570.31,305.99l-.18,2.2-.63,1.5-.98,1.43-1.12.84-1.71.63-1.5.11-1.12-.18"/><path class="cls-9" d="M542.94,238.27l.49-2.38,1.05-2.2,1.36-2.2,2.34-3.01,1.85-2.06,3.01-3.04,2.59-2.62,1.64-1.89,2.17-2.62,1.92-2.9,1.15-2.38.63-3.08.19-3.82-.35-1.11"/><path class="cls-9" d="M545.74,383.19l2.27-.45,1.71-.91.94-.94.66-1.08.45-1.75.03-1.22"/><path class="cls-9" d="M329.29,359.73l1.68.14,2.17-.18,2.17-.77"/><path class="cls-9" d="M342.34,307.53l-.28,1.96-.45.87-.66.84-.91.7-1.01.45-1.33.21-.91.07"/><path class="cls-9" d="M350.7,290.68l-.49,3.04-.59,1.33-1.22,1.68-1.64,1.26-1.68.84-3.25.8"/><path class="cls-9" d="M363.33,243.72l-.63,1.82-.77,1.33-1.05,1.47-1.47,1.33-1.75.84-1.47.35-.91-.07"/><path class="cls-9" d="M355.81,242.08l.04,1.4"/><path class="cls-2" d="M358.43,289.27c-1.01.91-2.03,1.47-2.94,1.83"/><path class="cls-2" d="M567.16,354.14c.12.13.52.2.66.28,1.99,1.19,5.92-.29,4.77-3.37"/><path class="cls-4" d="M560.23,311.13c1.42,1.85,4.08,2.33,6.19,1.78,1.59-.42,2.76-1.42,3.51-2.73.84-1.48,1.1-3.4.55-5.24-.25-.83-.6-1.54-1.19-2.32-.6-.79-1.34-1.63-1.92-2.01-.15-.1-.31-.24-.47-.34"/><path class="cls-4" d="M575.93,348.11c.06-.33.09-.67.09-1.01,0-1.63-.68-3.12-1.81-4.13-.38-.34-.76-.88-1.22-1.11"/><path class="cls-4" d="M573.67,342.52c-.07-2.62-2.21-4.5-4.87-4.96"/><path class="cls-4" d="M562.93,341.54c-.61-.5-1.27-.92-1.84-1.52-3.44-3.6-6.03-8.93-6.07-15.01-.03-5.83,2.31-11.76,5.04-14.06"/><path class="cls-4" d="M480.61,429.99l2.52-2.31,1.75-1.33,3.29-2.03,3.08-1.47,2.17-.56,4.34-.98,5.04-.77"/><path class="cls-4" d="M461.29,447.77c-1.82,2.8-6.16,7-10.71,8.68-4.55-1.68-8.89-5.88-10.71-8.68"/><path class="cls-2" d="M443,441.95c-.57,2.11-1.61,4.16-3.12,5.81"/><path class="cls-4" d="M443.45,439.01l-.63,3.08"/><path class="cls-4" d="M439.53,447.97l-1.33,1.33-2.38,1.33-2.73.84"/><path class="cls-4" d="M425.16,201.4c.34-1.06.69-1.86.64-3.61-.17-5.91-4.55-8.59-6.3-14.05-1.04-3.25-1.46-6.07.92-8.38,2.08-2.02,4.48-1.99,7.19-.92,5.42,2.12,11.98,8.22,23.43,8.39-11.45-.17-18.01-6.27-23.43-8.39-2.71-1.06-5.34-1.37-7.42.64-2.38,2.31-1.74,5.41-.7,8.66,1.75,5.46,5.91,8.14,6.08,14.05.05,1.75-.41,2.55-.75,3.61"/><path class="cls-4" d="M451.01,182.42c11.27-.59,20.92-8.16,24.04-8.78,2.78-.55,4.33-.3,6.36,1.55-2.04-1.85-4.36-1.79-6.99-.76-5.42,2.12-11.92,8.22-23.37,8.39"/><path class="cls-4" d="M562.97,341.57c-4.69-3.36-8.7-9.77-8.75-17.35-.03-5.83,2.31-11.75,5.04-14.06"/><path class="cls-4" d="M460.9,447.38c-1.82,2.8-6.16,7-10.71,8.68-4.55-1.68-8.89-5.88-10.71-8.68"/><path class="cls-2" d="M432.1,204.36c1.17-.65,2.26-1.27,3.26-1.82,1.48-.82,3.27-.64,4.03.28.87,1.05,1,2.86-.2,3.97"/><path class="cls-4" d="M415.28,212.23c7.73-1.61,14.03-5.07,18.79-7.74"/><path class="cls-4" d="M479.45,435.38c.64.44,1.05,1.34,1.05,1.34.18.42.41.82.47,1.19.36,2.14-1.04,3.47-2.77,3.68-2.38.28-4.17-1.14-4.93-2.85"/><path class="cls-4" d="M414.88,211.84c7.73-1.61,14.03-5.07,18.79-7.74"/><path class="cls-4" d="M570.89,354.43c-1.47.57-2.27.49-4.1-.32-.75-.33-1.61-.85-2.62-1.42-3.58-2.03-7.84-5.24-11.83-12.73-1.18-2.21-1.91-4.27-2.41-6.29-.38-1.56-.64-3.11-.7-4.69-.1-2.7.19-5.52.87-8.75,1.11-5.33,2.45-8.23,5.74-12.73,1.62-2.22,3.01-3.57,6.02-3.64"/><path class="cls-4" d="M359.79,248.58c2.5,2.13,3.71,4.76,3.71,8.05,0,4.36-3.65,11.47-12.6,13.99-3.43.97-6.83.19-8.88-1.06"/><path class="cls-4" d="M361.26,263.34c1.61,1.12,2.24,2.38,2.24,4.56,0,1.5-.97,3.44-2.62,5.28-2.7,3.01-7.27,5.57-12.34,5.63-2.75.03-5.61-.54-8.48-2.46-3.07-2.05-4.69-4.83-5.39-7.56"/><path class="cls-4" d="M361.11,272.73c1.82,1.68,2.38,3.77,2.38,6.42,0,3.86-1.57,6.84-5.17,10-.81.71-1.71,1.37-2.73,1.96"/><path class="cls-4" d="M537.6,260.06v4.97"/><path class="cls-4" d="M537.21,258.83v7"/><path class="cls-4" d="M537.6,243.69v9.17"/><path class="cls-4" d="M537.21,241.66v12.53"/><path class="cls-4" d="M534.53,369.44c-1.74,3.45-3.13,5.26-5.88,7.98-2.78,2.74-4.7,3.99-8.19,5.74-3.39,1.7-5.53,2.24-9.24,3.08-3.7.84-5.87,1.02-9.66,1.19-3.48.16-5.45.01-8.92-.23-3.71-.26-5.78-.77-9.48-1.1-3.06-.27-4.79-.52-7.87-.51-3.16,0-4.97.03-8.08.58-2.9.51-4.55.92-7.28,2.03-3.78,1.53-8.05,4.2-8.96,5.39-.91-1.19-5.18-3.86-8.96-5.39-2.73-1.11-4.38-1.52-7.28-2.03-3.11-.55-4.92-.57-8.09-.58-3.08,0-4.81.24-7.87.51-3.71.33-5.77.84-9.48,1.1-3.47.24-5.44.39-8.92.23-3.79-.17-5.96-.35-9.66-1.19-3.7-.84-5.84-1.38-9.24-3.08-3.49-1.74-5.41-3-8.19-5.74-.3-.3-.58-.58-.85-.86"/><path class="cls-4" d="M431.76,451.61l2.52-.31"/><path class="cls-4" d="M476.85,447.99l2.54-.24,2.42-.97,1.7-1.03,2.3-2.72.48-1.03.36-2.36.12-1.09"/><path class="cls-4" d="M552.75,246.32c1.09-3.71-.24-7.63-3.84-7.53"/><path class="cls-4" d="M363.35,304.27c-.91,3.09-2.87,5.19-5.06,6.56"/><path class="cls-4" d="M363.42,245.14c-.9,2.6-2.55,4.46-5.15,5.63-2.6,1.17-5.6.08-7.21-1.16"/><path class="cls-2" d="M343.7,258.77c2.15,1.13,4.34-.53,3.89-3.33-.21-1.31-1.62-2.97-3.54-3.09"/><path class="cls-4" d="M352.63,377.27c.46.44.56,1,1.19,1.12.94.18,1.68.52,2.62-.73,1.16-1.55.54-3.97-.67-5.49-1.3-1.63-5.05-3.06-8.2-1.32-1.05.59-2.37,1.36-3.57,2.94-.45.6-1.22,1.57-1.61,2.24-.95,1.63-1.34,2.96-1.53,3.5-2.88,8.19.54,16.8,5.84,22.04"/><path class="cls-2" d="M479.27,435.2c.57.6.91,1.12.91,1.12.18.42.32.82.38,1.19.36,2.14-1.04,3.47-2.77,3.68-2.38.28-3.98-1.13-4.74-2.84"/><path class="cls-4" d="M548.49,191.82c4.71.57,8.81,5.06,8.81,9.89,0,6.23-2.1,8.55-5.38,13-3.51,4.77-14.97,13.5-14.97,23.44,0,6.02,1.68,9.87,6.02,11.83,2.8,1.26,6.07-.1,7.56-1.45,3.64-3.29,2.18-9.06-1.61-9.75-4.62-.84-5.49,6.43-.98,5.95"/><path class="cls-4" d="M573,341.85c-.41-2.49-2.53-4.39-5.08-4.39-2.85,0-5.16,2.37-5.16,5.28,0,1.43.55,2.73,1.45,3.68"/><path class="cls-4" d="M540.65,248.58c-2.5,2.13-3.71,4.76-3.71,8.05,0,4.36,3.65,11.47,12.6,13.99,3.43.97,6.71.87,8.77-.38"/><path class="cls-4" d="M338.89,255.71c-2.14.71-4.81,2.05-6.79,4.86-1.67,2.37-2.64,5.66-3.25,8.54-.26,1.26-.58,5.25.23,9.37.6,3.04,1.85,5.87,3.24,7.93.5.74.95,1.23,1.46,1.74.47.47,1.13.88,1.6,1.24"/><path class="cls-4" d="M425.39,418.81c6.82,3.02,11.82,5.29,16.06,11.98,1.33,2.1,1.68,5.11,1.68,6.86,0,3.78-1.54,8.05-4.69,10.71-2.92,2.47-5.81,3.22-9.38,2.87-2.71-.27-5.25-2.24-5.67-3.64"/><path class="cls-4" d="M358.04,289.37c3.85,3.01,5.46,5.93,5.46,10.57,0,5.32-2.59,8.61-5.6,10.5"/><path class="cls-2" d="M354.53,306.66c5.74,7.14,8.78,11.37,8.96,19.87.16,7.98-2.38,13.43-7.14,19.17"/><path class="cls-4" d="M464.55,212.3c1.04-.68,1.81-1.78,2.25-3.14.68-2.09.69-3.88-.43-5.49,1.38,1.81,1.51,3.33,1.12,5.53-.25,1.4-1.14,2.13-2.25,3.14"/><path class="cls-4" d="M537.6,333.51v22.72h.06s0,2.15-.19,3.5c-.12.88-.24,1.68-.39,2.43"/><path class="cls-4" d="M537.21,331.32v24.5h.06s0,2.15-.19,3.5c-.19,1.41-.39,2.6-.66,3.71"/><path class="cls-4" d="M537.21,302.64v20.43"/><path class="cls-4" d="M537.6,304.25v16.62"/><path class="cls-4" d="M537.6,283.12v12.46"/><path class="cls-4" d="M537.21,281.65v15.36"/><path class="cls-4" d="M537.6,270.38v4.83"/><path class="cls-4" d="M537.21,269.4v7"/><path class="cls-4" d="M534.62,368.08c-.15.32-.31.64-.48.98-1.74,3.45-3.13,5.26-5.88,7.98-2.78,2.74-4.7,3.99-8.19,5.74-3.39,1.7-5.53,2.24-9.24,3.08-3.7.84-5.87,1.02-9.66,1.19-3.48.16-5.45,0-8.92-.23-3.71-.26-5.78-.77-9.48-1.1-3.06-.27-4.79-.52-7.87-.51-3.16,0-4.97.03-8.08.58-2.9.51-4.55.92-7.28,2.03-3.78,1.53-8.05,4.2-8.96,5.39-.91-1.19-5.18-3.86-8.96-5.39-2.73-1.11-4.38-1.52-7.28-2.03-3.11-.55-4.92-.57-8.09-.58-3.08,0-4.81.24-7.87.51-3.71.33-5.77.84-9.48,1.1-3.47.24-5.44.39-8.92.23-3.79-.17-5.96-.35-9.66-1.19-3.7-.84-5.84-1.38-9.24-3.08-3.49-1.74-5.41-3-8.19-5.74-1.45-1.43-2.53-2.61-3.47-3.92"/><path class="cls-4" d="M366.62,368.63c.6,4.45-1.27,8.82-3.17,10.83-1.19,1.26-3.78,3.67-7,3.71-5.32.07-6.91-3.59-7.23-4.48"/><path class="cls-4" d="M360.3,366.32c.99.97,1.86,2.16,2.6,3.57,1.33,2.52.92,6.73-.13,8.68-.12.21-.26.44-.43.67"/><path class="cls-4" d="M333.88,404.57c3.16,3.32,7.94,6.92,15.29,9.95,10.04,4.14,25.47,5.09,36.11,5.51,14.14.56,27.17,1.14,35.11,9.9"/><path class="cls-4" d="M444.8,424.2c2.34,2.3,4.72,4.77,5.73,7.92"/><path class="cls-4" d="M440.21,448.22c-.31.33-.63.64-.97.93-2.92,2.47-5.81,3.22-9.38,2.87-2.71-.27-5.32-2.29-6.02-3.62"/><path class="cls-4" d="M416.31,444.31c.13.18.27.35.41.52,1.7,1.98,4.38,3.22,7.18,3.45"/><path class="cls-4" d="M461.69,448.17c-1.82,2.8-6.16,7-10.71,8.68-4.55-1.68-8.89-5.88-10.71-8.68-.15-.23-.29-.44-.42-.65"/><path class="cls-4" d="M461.76,448.15c.32.35.67.69,1.04,1,2.92,2.47,5.81,3.22,9.38,2.87,2.71-.27,4.86-2.07,5.72-3.64,0,0,.49-.52.62-1.02"/><path class="cls-4" d="M477.62,447.58l-1.04,1.68-1.59,1.32-2.41,1-2.18.09"/><path class="cls-4" d="M483.27,431.59c1.29.99,2.55,2.48,3.24,4.08.44,1.03.65,2.16.71,3.33.12,2.22-.66,4.27-2,5.83-1.8,2.09-4.6,3.36-7.59,3.48-.22,0-.44,0-.66,0"/><path class="cls-4" d="M477.23,447.91h0c-2.85.11-5.4-1.11-7.28-3.04"/><path class="cls-4" d="M559.49,349.43c-2.23-2.05-4.53-4.9-6.76-9.07-1.18-2.21-1.91-4.27-2.41-6.29-.38-1.56-.64-3.11-.7-4.69-.1-2.7.19-5.52.87-8.75,1.11-5.33,3.1-9.46,5.74-12.73.9-1.12,1.94-2.51,2.93-3.14"/><path class="cls-4" d="M557.22,198.14c3.57.28,6.87,4.12,6.83,7.89-.06,5.47-1.9,7.73-6.2,13.09-3.71,4.62-14.83,12.74-14.55,20.5.05,1.38.79,2.8,1.62,3.95"/><path class="cls-4" d="M540.47,248.44c.79.78,1.75,1.43,2.89,1.94,2.04.92,4.32.45,5.99-.4"/><path class="cls-4" d="M519.58,189.2c1.19.81,2.41,2.06,3.07,3.66,2.62,6.32-3.08,11.06-8.33,14.62-3.76,2.56-7.82,3.93-11.67,4.62"/><path class="cls-4" d="M513.56,201.38c-1.27-.01-2.79-.38-4.43-2.11-.38-.4-.82-.92-.99-1.4"/><path class="cls-4" d="M487.25,204.77c-.66-.33-1.38-.82-1.86-1.35-1.25-1.4-2.08-3.28-1.12-6.17.89-2.67,5.17-10.15,5.38-15.32.32-7.91-2.72-12.58-7.48-14.4"/><path class="cls-2" d="M489.26,180.16l-.19,2.97-.81,3.04-1.55,4.15-1.18,2.66-1.24,2.66-.62,1.86-.25,1.36.19,1.3"/><path class="cls-2" d="M537.07,377.75c.24.59.84,1.18.84,1.18.91,1.52,4.45,4.19,7.66,4.23,5.32.07,6.58-3.65,6.72-4.48.67-4.06-.72-5.17-2.8-6.31,0,0-1.23-.63-2.69-.39"/><path class="cls-4" d="M334.05,359.99c-1.88.48-3.64.49-5.18.03-3.98-1.19-7.21-5.01-5.56-9.75"/><path class="cls-4" d="M342.13,305.53c.4.4.53,1,.59,1.5.61,5.16-3.91,6.66-7.12,5.82-1.59-.42-3.49-1.9-4.24-3.2-.54-.94-.86-2.07-.87-3.24"/><path class="cls-4" d="M361.51,273.13c.81.74,1.37,1.56,1.74,2.48"/><path class="cls-4" d="M361.65,263.63c.75.52,1.28,1.18,1.64,1.84"/><path class="cls-2" d="M363.46,270.24c-.43,1.07-1.19,2.23-2.19,3.35-2.7,3.01-7.27,5.57-12.34,5.63-2.75.03-5.61-.54-8.48-2.46-3.07-2.05-5.07-4.98-5.74-7.84"/><path class="cls-4" d="M360.04,248.81c1.56,1.32,2.75,3.01,3.33,4.77"/><path class="cls-2" d="M363.42,260c-1.25,4.12-4.96,9.21-12.13,11.02-3.42.87-7.83-.22-9.34-1.5"/><path class="cls-4" d="M338.4,259.03c.38,3.71,2.86,6.49,7.56,6.58,6.62.12,10.64-9.52,4.76-16.28"/><path class="cls-2" d="M323.51,291.34c.97,1.21,2.1,2.3,3.27,3.27,2.36,1.96,5.14,3.69,8.34,4.64"/><path class="cls-2" d="M342.55,299.95c5.91-.71,9.24-5.12,8.58-10.27-.5-3.93-4.11-6.95-6.56-7.12"/><path class="cls-4" d="M352.19,238.72c2.56-.09,4.02,2.23,4,4.2"/><path class="cls-2" d="M351.59,203.52c1.4,3.67,4.14,6.55,7.07,8.19"/><path class="cls-2" d="M561.42,255.25c2.42,3.31.83,9.84-5.74,9.96-2.57.05-4.89-1.38-6.24-3.53"/><path class="cls-4" d="M537.6,212.02v22.22"/><path class="cls-2" d="M343.63,258.72c2.03,1.47,4.64-1.01,3.63-3.64-.68-1.78-3.21-3.7-6.71-1.32-3.86,2.63-2.8,10.92,4.62,11.06,6.61.12,10.64-9.52,4.76-16.28-5.65-6.51-15.95-4.99-22.67.36-2.86,2.27-8.26,8.23-9.94,16.35-.52,2.53-.86,4.6-.82,7.14.03,1.67.18,3.54.68,5.88,1.01,4.72,2.67,8.17,4.32,10.57.63.92,1.21,1.68,1.83,2.3,1.15,1.15,1.5,1.76,2.66,2.73,3.8,3.16,8.7,5.64,14.69,5.39,6.58-.28,10.36-4.9,9.66-10.36-.68-5.29-6.02-7.92-9.52-5.46-2.38,1.68-3.23,6.88.98,8.12,2.38.7,4.48-2.31,2.8-4.06"/><path class="cls-2" d="M526.8,186.3c3.8-2.06,6.72-1.68,8.89,1.32,2.35,3.26,2.69,7.61,2.17,10.15-.77,3.78-1.86,5.35-4.87,8.09"/><path class="cls-2" d="M535.97,187.99c4.34-2.87,9.04-1.65,11.62,2.17,1.89,2.8,2.37,5.14,2.24,8.61-.23,5.94-3.95,10.65-8.05,12.94"/><path class="cls-4" d="M556.4,197.99c3.57.28,6.44,3.51,6.44,7.28,0,5.39-1.5,7.73-5.81,13.09-3.71,4.62-14.83,12.74-14.55,20.5.11,2.94,2.58,5.7,4.72,5.86"/><path class="cls-2" d="M556.82,258.72c-2.03,1.47-4.62-.9-3.5-3.42.77-1.74,3.08-3.92,6.58-1.54,3.86,2.63,2.8,10.92-4.62,11.06-6.62.12-11.09-9.27-4.76-16.28,5.77-6.4,16.48-5.15,23.2.19,2.86,2.27,8.61,8.52,9.84,16.72,1.49,9.92,1.3,22.12-8.94,29.63-4.12,3.02-9.83,4.39-14.86,4.17-6.58-.29-10.36-4.9-9.66-10.36.68-5.29,5.77-7.53,9.52-5.46,3.89,2.15,3.21,7.62-.98,8.12-2.46.29-4.48-2.31-2.8-4.06"/><path class="cls-4" d="M553.32,255.3c1.09-4.91,5.3-5.37,8.69-5.32,9.27.14,15.67,11.13,15.78,21.76.14,13.43-5.7,21.34-15.52,21.76-2.54.11-6.92-1.1-6.99-4.2"/><path class="cls-11" d="M559.02,253.1c9.77,2.17,13.2,10.98,13.2,19.38,0,6.85-.68,16.22-14.02,19.51"/><path class="cls-4" d="M575.14,347.31c.06-.33.09-.67.09-1.01,0-3.03-2.46-5.49-5.49-5.49s-5.49,2.46-5.49,5.49c0,1.75.81,3.3,2.08,4.31"/><path class="cls-2" d="M555.54,338.99c1.84,2.73,4.06,5.76,8.77,8.31"/><path class="cls-2" d="M562.54,362.14c-4.61-3.02-13.35-6.99-21.26-3.08-2.93,1.45-4.9,3.24-6.01,6.16-2,5.26.24,11.05,2.51,13.45,1.19,1.26,3.78,3.67,7,3.71,5.32.07,6.58-3.65,6.72-4.48.63-3.85-1.61-5.39-2.8-5.81-.91-.32-3.88-.24-4.51,1.86-.21.7-.25,1.92.31,2.83"/><path class="cls-2" d="M479.63,436.04c1.47,3.01-.2,4.52-2.24,4.76-3.01.35-4.62-2.03-4.83-4.2-.34-3.52,2.62-6.7,6.16-6.65,3.18.05,5.77,2.1,6.99,4.93.44,1.03.65,2.16.71,3.33.12,2.22-.66,4.27-2,5.83-1.8,2.09-4.6,3.36-7.59,3.48-5.94.24-10.57-5.32-10.57-10.99,0-10.85,16.08-16.76,22.46-18.28,7.84-1.87,12.61-2.57,25.19-3.27,5.04-.28,8.73-.14,14.27-.71,4.96-.51,7.56-.76,12.66-1.95,6.37-1.48,12.32-4.13,17.63-8.96,4.1-3.72,6.44-6.37,8.33-11.48,1.64-4.41,2.39-13.14-1.76-19.59-3.66-5.71-8.75-8.67-14.55-9.51-5.25-.76-9.85,1.51-12.6,6.71-1.33,2.52-.92,6.73.13,8.68.91,1.68,3.51,4.16,6.72,4.2,5.32.07,6.58-3.65,6.72-4.48.63-3.85-1.61-5.39-2.8-5.81-.91-.32-3.88-.24-4.51,1.86-.21.7-.25,1.92.31,2.83"/><path class="cls-2" d="M475.05,418.81c-6.82,3.02-11.82,5.29-16.06,11.98-1.33,2.1-1.68,5.11-1.68,6.86,0,3.78,1.54,8.05,4.69,10.71,2.92,2.47,5.81,3.22,9.38,2.87,2.71-.27,5.25-2.24,5.67-3.64"/><path class="cls-4" d="M542.4,289.37c-3.19,1.06-5.46,5.93-5.46,10.57,0,5.32,2.59,8.61,5.6,10.5"/><path class="cls-2" d="M545.9,306.66c-5.74,7.14-8.78,11.37-8.96,19.87-.16,7.98,2.38,13.43,7.14,19.17"/><path class="cls-4" d="M515.32,188.01c.15-.22.31-.46.49-.73,2.38-3.5,6.58-4.42,9.66-2.1,3.71,2.8,4.65,7.56,3.64,12.59-.63,3.15-2.77,5.77-5.69,7.67"/><path class="cls-2" d="M373.64,186.3c-3.64-1.68-6.63-1.36-8.89,1.32-2.59,3.08-2.69,7.61-2.17,10.15.77,3.78,1.86,5.35,4.87,8.09"/><path class="cls-4" d="M364.47,187.99c-4.34-2.87-9.04-1.65-11.62,2.17-1.89,2.8-2.37,5.14-2.24,8.61.23,5.94,3.95,10.65,8.05,12.94"/><path class="cls-4" d="M351.95,191.82c-4.71.57-8.46,4.56-8.46,9.39,0,6.23,1.53,8.75,5.03,13.5,3.51,4.77,14.97,13.5,14.97,23.44,0,6.02-1.68,9.87-6.02,11.83-2.8,1.26-6.07-.1-7.56-1.45-3.64-3.29-2.18-9.06,1.61-9.75,4.62-.84,5.49,6.43.98,5.95"/><path class="cls-4" d="M344.04,197.99c-3.57.28-7.08,3.35-7.08,7.12,0,5.39,2.15,7.89,6.45,13.24,3.71,4.62,14.19,12.57,13.91,20.34-.11,2.94-2.08,6.53-4.04,6.11"/><path class="cls-2" d="M335.64,306.24c1.68-4.06,6.02-2.24,6.28,0,.61,5.16-3.91,6.72-7.12,5.88-1.59-.42-2.76-1.42-3.51-2.73-.84-1.48-1.1-3.4-.55-5.24.25-.83.6-1.54,1.19-2.32.6-.79,1.22-1.33,1.8-1.7,1.24-.79,2.59-.87,4.7-.87,7.84,0,14.69,9.26,17,18.88.76,3.17,1.8,10.23.36,16.93-1.54,7.14-4.62,12.08-8.24,15.83-1.96,2.03-4.63,3.84-8.09,5.79-1.07.6-3.89,1.85-5.85,2.41-2.01.57-3.9.62-5.54.13-3.98-1.19-6.54-4.91-4.46-9.75,1.61-3.76,7.56-5.6,10.22-.98.23.39.58,1.25.57,2.17-.01,1.23-.53,2.72-1.41,3.28-2.02,1.29-5.25.92-5.1-2.65"/><path class="cls-4" d="M329.56,354.43c1.47.57,2.27.49,4.1-.32.75-.33,1.61-.85,2.62-1.42,3.58-2.03,7.84-5.24,11.83-12.73,1.18-2.21,1.91-4.27,2.41-6.29.38-1.56.64-3.11.7-4.69.1-2.7-.19-5.52-.87-8.75-1.11-5.33-2.45-8.23-5.74-12.73-1.62-2.22-3.01-3.57-6.02-3.64"/><path class="cls-4" d="M325.3,347.31c-.06-.33-.09-.67-.09-1.01,0-3.03,2.46-5.49,5.49-5.49s5.49,2.46,5.49,5.49c0,1.75-.81,3.3-2.08,4.31"/><path class="cls-4" d="M327.44,341.85c.41-2.49,2.53-4.39,5.08-4.39,2.85,0,5.16,2.37,5.16,5.28,0,1.43-.55,2.73-1.45,3.68"/><path class="cls-4" d="M337.46,341.57c4.69-3.36,8.7-9.77,8.75-17.35.03-5.83-2.31-11.75-5.04-14.06"/><path class="cls-2" d="M344.9,338.99c-1.84,2.73-4.06,5.76-8.77,8.31"/><path class="cls-4" d="M358.87,359.06c-1.3-3.07-3.9-4.49-8.12-4.94-4.2-.45-7.83.71-11.55,2.7-7.25,3.9-11.3,8.1-13.99,15.88-.68,1.98-1.25,4.96-1.17,8.12.13,5.04,1.41,10.56,2.78,13.22,1.2,2.33,4.34,12.59,21.55,19.68,10.04,4.14,25.47,5.09,36.11,5.51,14.63.58,28.13,1.12,35.97,10.78"/><path class="cls-2" d="M337.89,362.14c4.61-3.02,13.35-6.99,21.26-3.08,2.93,1.45,4.9,3.24,6.01,6.16,2,5.26-.24,11.05-2.51,13.45-1.19,1.26-3.78,3.67-7,3.71-5.32.07-6.58-3.65-6.72-4.48-.63-3.85,1.61-5.39,2.8-5.81.91-.32,3.88-.24,4.51,1.86.21.7.25,1.92-.31,2.83"/><path class="cls-4" d="M356.22,376c.42-1.54.2-3.16-1.19-4.69-1.4-1.54-5.11-3.01-8.26-1.26-1.05.59-2.37,1.36-3.57,2.94-.45.6-1.22,1.57-1.61,2.24-.95,1.63-1.34,2.96-1.53,3.5-3.46,9.84,2.17,20.28,9.23,24.77,6.16,3.92,12.46,5.04,20.22,5.74,3.59.32,5.63.39,9.24.56,2.9.13,5.41.09,7.77.06,1.94-.02,3.78-.01,5.67-.06,3.07-.07,6.25-.14,10.15.14,4.09.3,7.18.4,10.64.98,2.26.38,4.91.74,7.69,1.36.83.19,1.68.34,2.53.6.57.17,1.13.35,1.69.52,5.01,1.53,9.89,3.39,13.73,5.87,1.19.77,2.56,1.5,3.49,2.44.72.72,1.32,1.13,1.91,1.71,2.69,2.65,5.44,5.51,6.09,9.39.12.72.12,1.47.12,2.26,0,2.52-2.05,5.95-7.58,7.07"/><path class="cls-4" d="M420.8,436.04c-1.47,3.01.2,4.52,2.24,4.76,3.01.35,4.62-2.03,4.83-4.2.34-3.52-2.62-6.7-6.16-6.65-3.18.05-5.77,2.1-6.99,4.93-.44,1.03-.65,2.16-.71,3.33-.12,2.22.66,4.27,2,5.83,1.8,2.09,4.6,3.36,7.59,3.48,5.94.24,10.57-5.32,10.57-10.99,0-10.85-16.09-16.76-22.46-18.28-7.84-1.87-12.61-2.57-25.19-3.27-5.04-.28-8.73-.14-14.27-.71-4.96-.51-7.56-.76-12.67-1.95-6.37-1.48-12.32-4.13-17.63-8.96-4.09-3.72-6.44-6.37-8.33-11.48-1.64-4.41-2.39-13.14,1.76-19.59,3.66-5.71,8.75-8.67,14.55-9.51,5.25-.76,9.85,1.51,12.6,6.71,1.33,2.52.92,6.73-.13,8.68-.91,1.68-3.51,4.16-6.72,4.2-5.32.07-6.58-3.65-6.72-4.48-.63-3.85,1.61-5.39,2.8-5.81.91-.32,3.88-.24,4.51,1.86.21.7.25,1.92-.31,2.83"/><path class="cls-2" d="M385.12,188.01c-.15-.22-.31-.46-.49-.73-2.38-3.5-6.58-4.42-9.66-2.1-3.71,2.8-4.65,7.56-3.64,12.59.63,3.15,2.77,5.77,5.69,7.67"/><path class="cls-4" d="M516.58,198.62c-5.67,6.16-11.34,8.12-19.8,8.4-2.64.09-7.7-.84-10.64-2.93-1.89-1.34-3.99-3.65-2.66-7.63.89-2.67,5.17-10.15,5.38-15.32.32-7.91-2.72-12.25-7.48-13.92-8.8-3.1-18.24,5.59-23.93,7.49-2.97.99-4.49,1.11-7.21,1.12-2.72,0-4.29-.13-7.26-1.12-5.69-1.9-15.13-10.59-23.93-7.49-4.76,1.68-7.8,6.01-7.48,13.92.21,5.18,4.49,12.66,5.38,15.32,1.33,3.99-.77,6.29-2.66,7.63-2.94,2.09-7.99,3.02-10.64,2.93-8.47-.27-14.13-2.24-19.8-8.4"/><path class="cls-2" d="M418.97,416.33c1.12.44.27-.27,7.38,2.88,6.82,3.02,11.66,5.67,15.9,12.36,1.33,2.1,1.68,5.11,1.68,6.86,0,1.13-.14,2.3-.41,3.46"/><path class="cls-4" d="M419.42,446.75c1.38.69,2.95,1.1,4.57,1.16,5.94.24,10.57-5.32,10.57-10.99,0-3.93-2.14-7.24-5.14-9.9"/><path class="cls-2" d="M420.71,436.03c-1.43,3.2.61,4.93,2.65,5.16,3.01.35,4.7-2.03,4.91-4.2.23-2.36-1.03-4.65-2.95-5.84"/><path class="cls-4" d="M549.42,191.87c4.52,0,8.45,5.03,8.45,10.19,0,5.94-3.16,9.58-5.48,12.33-1.86,2.21-3.88,4.2-6.28,6.61"/><path class="cls-2" d="M544.07,187.11c1.54.71,2.88,1.91,3.91,3.44,1.89,2.8,2.37,5.14,2.24,8.61-.22,5.94-4.5,10.05-8.32,12.56"/><path class="cls-2" d="M535.18,187.11c.31.27.61.57.9.91,2.59,3.08,2.79,7.63,2.17,10.15-.93,3.79-2.18,5.43-5.26,7.69"/><path class="cls-2" d="M525.87,185.56c3.71,2.8,4.81,7.64,3.58,12.62-.88,3.56-3.12,5.7-5.91,7.4"/><path class="cls-2" d="M539.19,263.34c.44,1.3,1.18,1.75,2.1,2.72,2.01,2.1,4.95,3.91,8.66,4.95,3.43.97,6.52.24,8.88-1.23"/><path class="cls-2" d="M329.6,345.77c1.74-.03,3.48,1.15,4.62,3.12.23.39.58,1.25.57,2.17-.01,1.23-.55,2.55-1.43,3.11-2.02,1.29-5.61.73-5.46-2.83"/><path class="cls-4" d="M340.44,299.45c6.93,1.29,13.61,9.66,15.79,18.78.76,3.17,1.8,10.23.36,16.93-1.54,7.14-4.62,12.08-8.24,15.83-.86.89-1.85,1.73-2.99,2.57l-1.48,1"/><path class="cls-4" d="M332.73,337.49c2.85,0,5.34,2.73,5.34,5.65,0,1.43-.55,2.73-1.45,3.68"/><path class="cls-4" d="M330.8,340.81c2.97,0,5.79,2.86,5.79,5.89,0,1.75-.81,3.3-2.08,4.31"/><path class="cls-2" d="M358,310.97c2.72,3.66,4.52,6.81,5.36,10.86"/><path class="cls-2" d="M363.26,333.77c-.45,2.02-1.13,3.89-2.04,5.69-1.15,2.28-3.14,4.81-5,6.53"/><path class="cls-4" d="M358.43,289.66c2.63,2.05,4.21,4.18,4.95,6.72"/><path class="cls-2" d="M363.45,282.82c-.69,2.39-2.26,4.21-4.74,6.47"/><path class="cls-2" d="M345.84,265.13l3.03-.8,1.79-1.36,1.16-1.64,1-2.55.4-2.07"/><path class="cls-4" d="M339.7,254.46c-.96.24-2.17.59-3.44,1.2-1.7.81-3.51,2.08-4.96,4.12-1.67,2.37-2.64,5.66-3.25,8.54-.26,1.26-.58,5.25.23,9.37.6,3.04,1.85,5.87,3.24,7.93.5.74.95,1.37,1.46,1.88,1.82,1.82,3.5,2.94,6.3,2.38"/><path class="cls-2" d="M356.69,241.11c-.49,1.81-1.46,4.04-4.3,3.8"/><path class="cls-4" d="M346.33,253.37c-2.72-2.66-8.49-3.35-14.22.27-.74.47-1.47,1.06-2.2,1.67-.79.66-1.42,1.41-2.03,2.23-.66.89-1.47,2.41-1.96,3.42-.68,1.39-.95,2.3-1.33,3.73-1.05,4.01-1.04,7.74-.92,8.8.16,1.36.29,2.61.51,3.76.76,3.93,1.92,6.7,3.13,8.69,1.27,2.1,4.41,6.92,10.85,7.56,2.53.25,6.85-.91,6.99-4.2"/><path class="cls-2" d="M512.39,195.07c.43-2.32,3.23-2.77,4.28-1.4,1.62,2.11.55,5.74-2.75,6.77-1.12.35-3.71.21-5.39-1.96-1.36-1.76-1.26-3.94-.75-5.67.33-1.12,1.23-2.1,2.43-3.01,3.83-2.91,10.01-2.24,12.03,2.66,2.62,6.32-3.08,11.06-8.33,14.62-6.61,4.49-14.13,5.31-19.8,5.25-12.88-.14-22.67-6.3-29.04-9.8-1.48-.82-3.01-.65-3.78.28-.87,1.05-.85,2.74.35,3.85"/><path class="cls-2" d="M514.98,192.89c1.36.06,1.73.6,2.15,1.14,1.62,2.11.44,5.74-2.86,6.77"/><path class="cls-2" d="M539.35,273.29c-4.91,5.34-.39,14.5,3.27,16.58,1.27.99,1.81.46,2.83,1.06"/><path class="cls-4" d="M539.61,263.08c-1.61,1.12-2.18,2.38-2.24,4.56-.05,1.83.27,3.86,1.98,5.65,2.67,2.78,7.91,5.21,12.98,5.27,2.75.03,5.61-.54,8.48-2.46,3.07-2.05,4.69-4.83,5.39-7.56"/><path class="cls-4" d="M536.87,355.43s0,2.15-.19,3.5c-.53,3.93-1.16,6.19-2.94,9.73-1.74,3.45-3.13,5.26-5.88,7.98-2.78,2.74-4.7,3.99-8.19,5.74-3.39,1.7-5.53,2.24-9.24,3.08-3.7.84-5.87,1.02-9.66,1.19-3.48.16-5.45,0-8.92-.23-3.71-.26-5.78-.77-9.48-1.1-3.06-.27-4.79-.52-7.87-.51-3.16,0-4.97.03-8.09.58-2.9.51-4.55.92-7.28,2.03-3.78,1.53-8.05,4.2-8.96,5.39-.91-1.19-5.18-3.86-8.96-5.39-2.73-1.11-4.38-1.52-7.28-2.03-3.11-.55-4.92-.57-8.09-.58-3.08,0-4.81.24-7.87.51-3.71.33-5.77.84-9.48,1.1-3.47.24-5.44.39-8.92.23-3.79-.17-5.96-.35-9.66-1.19-3.7-.84-5.84-1.38-9.24-3.08-3.49-1.75-5.41-3-8.19-5.74-2.75-2.71-4.14-4.53-5.88-7.98-1.78-3.54-2.41-5.8-2.94-9.73-.18-1.35-.19-3.48-.19-3.5h0v-143.12h173.3v143.12h.06s0,0,0,0Z"/><path class="cls-22" d="M349.51,375.88c0-1.94,1.57-3.52,3.52-3.52s3.52,1.57,3.52,3.52-1.57,3.52-3.52,3.52-3.52-1.57-3.52-3.52Z"/><path class="cls-22" d="M327.92,351.03c0-1.74,1.11-3.15,2.48-3.15s2.48,1.41,2.48,3.15-1.11,3.15-2.48,3.15-2.48-1.41-2.48-3.15Z"/><path class="cls-28" d="M340.19,288.62c0-1.43,1.07-2.59,2.4-2.59s2.4,1.16,2.4,2.59-1.07,2.59-2.4,2.59-2.4-1.16-2.4-2.59Z"/><path class="cls-28" d="M383.26,196.32c-.15-1.43.71-2.7,1.92-2.82,1.21-.13,2.32.93,2.47,2.36.15,1.43-.71,2.7-1.92,2.82-1.21.13-2.32-.93-2.47-2.36Z"/><path class="cls-1" d="M337.37,303.18c-.52.22-.8.41-1.19.82-.37.39-.45.53-.73,1.17-.21.47-.27,1.01-.34,1.67"/><path class="cls-1" d="M341.74,344.45c.49-.59.78-.91,1.25-1.52.39-.51.62-.78.97-1.32.31-.49.45-.78.72-1.29.38-.71.58-1.13.94-1.85"/><path class="cls-1" d="M343.84,358.07c-.83.38-1.33.55-2.13.98-.62.33-.95.53-1.54.9-.7.44-1.09.69-1.75,1.18-.69.51-1.05.84-1.71,1.37"/><path class="cls-1" d="M357.75,309.22c-.45-.46-.69-.74-1.15-1.19-.48-.47-.74-.75-1.26-1.19-.5-.42-.82-.61-1.34-1.01"/><path class="cls-6" d="M358.3,290.51c-.67.3-1.02.53-1.71.76-.8.26-1.34.4-2.11.43"/><path class="cls-1" d="M334.74,267.3c.23.82.28,1.3.59,2.09.39.99.71,1.51,1.3,2.4.61.92,1,1.43,1.79,2.21.7.68,1.14,1.03,1.95,1.56.77.51,1.28.68,2.09,1.12"/><path class="cls-1" d="M341.08,268.45c.68.37,1.03.64,1.75.94.65.27,1.03.38,1.71.54.92.21,1.47.27,2.41.29,1.03.02,1.33,0,2.62-.21"/><path class="cls-1" d="M359.66,212.83c-1.12-.65-1.81-.94-2.88-1.68-1.09-.75-1.69-1.21-2.63-2.13-.68-.67-1.06-1.05-1.63-1.82-.51-.68-.7-1.13-1.15-1.85"/><path class="cls-1" d="M361.92,198.94c.35.94.45,1.52.9,2.41.61,1.22,1.08,1.86,2,2.87,1.27,1.4,2.35,1.79,3.86,2.94"/><path class="cls-1" d="M370.73,198.84c.35.85.46,1.37.9,2.17.39.71.66,1.09,1.17,1.71.65.8,1.08,1.22,1.89,1.85.94.74,1.61.96,2.64,1.57"/><path class="cls-23" d="M469.55,187.41c-.07-2.38-2.42-2.63-3.32-2.63-2.6,0-3.3,1.62-6.54,3.36-4.06,2.18-5.81,2.67-9.42,2.7-3.61-.03-5.4-.52-9.47-2.7-3.24-1.74-3.78-3.31-6.38-3.31-1.41,0-3.23,1.22-3.16,3.45,0,0-.03.72.08,1.21.04.18.27.13.34.29-.03-1.08.19-1.64.72-2.37.68-.93,1.82-1.18,2.29-1.18,2.6,0,3.56,1.67,6.8,3.41,4.06,2.18,5.81,2.67,9.42,2.7,3.61-.03,5.41-.52,9.47-2.7,3.24-1.74,4.17-3.54,6.77-3.54.9,0,1.53.58,1.83,1.5.18.56.08.94.13,1.16.02.11.16.1.19.22.09-.42.3-.57.27-1.56Z"/><path class="cls-25" d="M372.65,387.67c.73-.79,1.28-.49,1.42-.85.1-.27-.12-.29-.41-.41-.4-.15-.82-.23-1.21-.38-.41-.15-.78-.36-1.19-.52-.17-.06-.56-.26-.67.04-.21.55,1.44.5.89,1.98-.09.25-.33.79-1.15,1.69l-3.73,4.06c-.08.09-.22.29-.31.26-.09-.03-.07-.28-.07-.4l.05-5.75c0-1.09.1-1.9.27-2.37.25-.66,1.01-.11,1.17-.53.1-.27.02-.28-.43-.45-.23-.08-.66-.18-1.57-.51-.48-.18-.94-.42-1.41-.6-.21-.08-.6-.37-.75,0-.04.11.11.27.14.3.52.37.65.62.67,1.32l.1,10.47c0,.76.09.97.23,1.02.16.06.26,0,.57-.36l7.38-8.01h0Z"/><path class="cls-25" d="M377,389.29c.48-1.52,1.38-.6,1.55-1.15.06-.19,0-.25-.43-.38-.82-.26-1.36-.36-1.88-.52-.5-.16-1.05-.4-1.61-.58-.13-.04-.47-.2-.56.07-.18.56,1.59.63,1.13,2.08l-2.42,7.69c-.48,1.52-1.39.78-1.56,1.34-.03.08-.03.2.1.24.37.12,1.01.25,1.63.44,1.12.35,1.64.59,2.17.76.33.1.48.08.54-.09.16-.51-1.68-.28-1.06-2.25l2.41-7.64h0Z"/><path class="cls-25" d="M382.2,390.83c.29-.97.74-.83,1.27-.67,1.46.43,1.92,1.87,1.45,3.44-.28.95-.64,1.83-2.84,1.17-.43-.13-.97-.29-.85-.69l.96-3.25h0ZM378.21,397.75c-.6,2.03-1.62,1.15-1.77,1.66-.1.32.22.36.38.41.72.21,1.47.36,2.25.6.61.18.98.36,1.23.43.33.1.48.04.52-.11.17-.58-1.46-.34-.95-2.07l.83-2.79c.17-.56.11-.7.88-.47.72.21.94.44,1.07,1.24l.46,2.9c.17,1.07.34,2.22,1.48,2.56.58.17,1.64.1,1.79-.4.04-.13-.02-.25-.15-.29-.14-.04-.32,0-.46-.03-.12-.03-.39-.12-.45-.41-.44-2.34-.98-5.04-.95-5.13.05-.16.51-.18,1.04-.43.53-.26,1.13-.73,1.44-1.76.22-.74.6-3.1-2.57-4.04-.97-.29-1.98-.52-2.95-.8-.91-.27-1.01-.37-1.68-.57-.17-.05-.34-.01-.39.15-.17.58,1.58.45,1.05,2.25l-2.1,7.08h0Z"/><path class="cls-25" d="M390.06,401.22c-.47,1.94-1.94.76-2.09,1.4-.09.36.17.4.43.47.59.14,1.09.19,2.07.43.98.24,1.45.42,2.04.56.43.1.71.22.8-.17.11-.46-1.88-.44-1.4-2.44l1.77-7.38c.19-.78.35-.83.96-.69l1.25.3c1.71.34.8,2.04,1.39,2.18.38.09.37-.58.39-.79l.2-1.54c.02-.17.08-.4-.14-.45-1.37-.33-2.37-.5-4.51-1.01-2.15-.52-3.11-.82-4.48-1.14-.22-.05-.28.18-.33.34l-.75,2.1c-.08.21-.25.54.05.62.66.16.73-2.09,2.39-1.69l1.23.3c.6.14.73.26.54,1.05l-1.82,7.58h0Z"/><path class="cls-25" d="M407.91,396.67c.58-.9,1.18-.7,1.25-1.08.05-.28-.17-.27-.48-.33-.42-.08-.84-.09-1.26-.17-.43-.08-.83-.22-1.27-.3-.18-.03-.6-.16-.66.15-.11.58,1.51.25,1.22,1.8-.05.26-.19.84-.84,1.86l-2.97,4.64c-.07.11-.17.33-.26.31-.09-.02-.12-.26-.14-.39l-.95-5.67c-.18-1.08-.23-1.89-.14-2.38.13-.69.97-.28,1.06-.73.05-.28-.03-.28-.5-.37-.24-.04-.68-.06-1.63-.23-.51-.09-1-.25-1.49-.34-.22-.04-.66-.26-.73.14-.02.12.15.25.19.28.58.28.75.5.89,1.19l1.92,10.3c.14.74.26.94.41.96.16.03.26-.05.5-.45l5.88-9.17h0Z"/><path class="cls-25" d="M408.75,406.13c0,.41-.03.54.33.7.83.36,1.52.88,2.43,1.04,1.95.33,3.57-.92,3.93-3.09.35-2.1-.51-2.98-1.98-4.03-1.83-1.31-2.62-1.66-2.43-2.77.19-1.11.96-1.63,1.95-1.46,2.56.43,2.27,3.55,2.61,3.6.33.05.41-.14.44-.51l.21-2.25c.03-.39.12-.63-.1-.66-.19-.03-.61.17-.8.14-.45-.07-.97-.83-2.19-1.03-1.74-.29-3.17.9-3.49,2.8-.29,1.74.48,2.53,1.66,3.38,2.2,1.58,3.11,1.95,2.87,3.36-.22,1.32-1.25,1.97-2.41,1.78-1.65-.28-2.33-1.94-2.54-3.61-.02-.23-.03-.38-.27-.42-.37-.06-.3.44-.3.68l.08,2.35Z"/><path class="cls-25" d="M431,399.86c.48-.96,1.1-.82,1.13-1.21.02-.28-.19-.25-.51-.28-.42-.03-.85,0-1.27-.03-.44-.03-.85-.13-1.29-.17-.18-.01-.61-.1-.64.22-.05.59,1.52.09,1.4,1.66-.02.27-.1.85-.64,1.94l-2.46,4.93c-.05.11-.13.34-.22.34-.09,0-.15-.25-.18-.37l-1.53-5.54c-.3-1.05-.43-1.85-.39-2.36.06-.7.94-.38.98-.83.02-.28-.05-.27-.54-.31-.24-.02-.68.01-1.65-.06-.51-.04-1.02-.15-1.52-.19-.23-.02-.68-.19-.71.21-.01.12.18.23.22.25.6.22.8.42,1.01,1.09l2.98,10.04c.22.72.35.9.5.92.17.01.25-.08.45-.5l4.89-9.74h0Z"/><path class="cls-25" d="M433.38,407.99c-.01,1.71-1.46,1.4-1.47,2.07,0,.29.3.2.47.21.41,0,.82-.06,1.3-.06.53,0,1.04.08,1.78.08.2,0,.57.02.58-.21,0-.79-1.94.34-1.91-2.89l.05-5.71c0-.15.03-.27.12-.27.08,0,.17.09.27.22l7.19,8.79c.1.14.18.24.39.24.18,0,.18-.13.19-.5l.08-9.42c.01-1.76,1.3-1.35,1.3-1.85,0-.05,0-.22-.29-.22-.14,0-.67.06-1.62.05-1.04,0-1.48-.08-1.72-.08-.2,0-.24.17-.24.28,0,.55,1.84.27,1.83,1.8l-.05,5.59c0,.42-.04.62-.13.62-.09,0-.27-.2-.46-.44l-6.01-7.46c-.27-.32-.09-.44-.57-.44-.8,0-1.19.06-1.59.05-.29,0-.56-.07-.85-.07-.18,0-.26.13-.26.28,0,.81,1.69-.27,1.67,2.95l-.06,6.38h0Z"/><path class="cls-25" d="M448.02,400.43c.01-1.6,1.14-.98,1.15-1.55,0-.2-.07-.24-.53-.24-.86,0-1.41.05-1.95.05-.53,0-1.12-.08-1.71-.08-.14,0-.51-.05-.52.23,0,.59,1.62.13,1.61,1.66v8.06c0,1.59-1.08,1.15-1.09,1.74,0,.08.03.2.16.2.39,0,1.04-.06,1.69-.05,1.18,0,1.74.08,2.3.09.35,0,.48-.06.49-.25,0-.54-1.69.22-1.68-1.84l.07-8.01h0Z"/><path class="cls-25" d="M454.35,408.23c.02,2-1.7,1.21-1.69,1.86,0,.37.26.35.53.35.6,0,1.1-.08,2.12-.09,1.01,0,1.51.05,2.12.05.44,0,.74.04.74-.36,0-.47-1.93.03-1.95-2.03l-.07-7.59c0-.81.14-.89.76-.9h1.28c1.74-.09,1.27,1.78,1.87,1.77.39,0,.22-.66.19-.86l-.18-1.54c-.02-.17-.02-.4-.25-.4-1.41.01-2.42.09-4.62.11-2.21.02-3.22-.04-4.62-.03-.23,0-.22.24-.24.41l-.22,2.22c-.03.22-.12.59.2.59.68,0,.21-2.2,1.92-2.22h1.27c.62-.02.77.06.78.87l.07,7.79h0Z"/><path class="cls-25" d="M463.16,405.06c-.27.02-.48.05-.49-.11-.02-.23.06-.43.12-.63l.93-3.05c.06-.19.12-.21.15-.21.08,0,.03,0,.13.12l1.47,2.93c.09.19.2.37.21.61.01.17-.2.17-.47.19l-2.05.16h0ZM465.74,405.76c.39-.03.48.13,1.08,1.4.2.44.33.73.36,1.1.08,1.02-1,.92-.97,1.41.02.23.21.19.48.16.44-.03.99-.14,1.65-.2.99-.08,1.41-.04,1.95-.09.41-.03.55,0,.52-.29-.04-.55-.81.16-1.38-.99l-4.87-9.93c-.24-.49-.27-.52-.4-.51-.2.02-.25.34-.33.62l-3.29,10.45c-.3.97-1.08.93-1.05,1.31.02.22.26.17.47.15.44-.03.87-.14,1.32-.17.48-.04.94,0,1.42-.04.32-.03.79.06.77-.3-.04-.45-1.64-.06-1.74-1.26-.03-.4.13-1,.21-1.35.26-1.13.57-1.22.83-1.24l2.97-.23h0Z"/><path class="cls-25" d="M477.42,398.8c-.15-1.15-.09-1.17,1.72-1.41,2.89-.38,1.98,1.72,2.68,1.63.34-.04.2-.58.15-.8l-.28-1.64c-.02-.15-.15-.3-.34-.28-1.32.17-2.34.38-3.41.52-2.29.3-3.38.38-3.99.46-.21.03-.31.18-.29.33.09.67,1.71-.09,1.91,1.41l1.03,7.79c.27,2.03-.99,1.28-.89,2.05.01.1.11.17.31.15.82-.11,1.44-.26,1.91-.32.66-.09,1.22-.09,1.79-.17.37-.05.7-.02.65-.36-.06-.45-1.7.19-1.94-1.66l-.32-2.46c-.13-.97-.21-1.16.48-1.25l1.11-.15c1.56-.21,1.37,1.61,1.85,1.55.36-.05.19-.63.15-.85l-.5-2.95c-.07-.45-.23-.39-.34-.38-.3.04-.14,1.58-1.43,1.75l-.94.12c-.64.08-.66-.03-.75-.75l-.31-2.33h0Z"/><path class="cls-25" d="M482.95,402.62c.62,3.35,3.04,5.21,6.03,4.66,4.74-.88,4.9-5.09,4.47-7.4-.65-3.5-3.26-5.22-6.15-4.65-3.55.69-5.02,3.78-4.35,7.4h0ZM484.6,401.34c-.44-2.39-.12-4.81,2.38-5.33,1.91-.39,4.08,1.19,4.75,4.84.51,2.74.09,5.11-2.46,5.63-2.65.54-4.23-2.73-4.67-5.15h0Z"/><path class="cls-25" d="M496.32,395.49c-.24-.98.22-1.09.76-1.22,1.48-.36,2.6.65,2.98,2.25.23.96.36,1.9-1.87,2.44-.44.11-.98.24-1.08-.17l-.79-3.3h0ZM496.33,403.48c.49,2.06-.83,1.8-.7,2.33.08.33.38.2.54.16.73-.18,1.45-.42,2.25-.61.62-.15,1.03-.18,1.28-.24.34-.08.43-.21.4-.35-.14-.59-1.44.43-1.85-1.32l-.68-2.82c-.14-.57-.25-.66.53-.85.73-.18,1.03-.09,1.55.54l1.85,2.28c.68.84,1.4,1.75,2.56,1.47.59-.14,1.47-.73,1.35-1.24-.03-.13-.14-.21-.28-.18-.15.04-.27.17-.42.2-.12.03-.4.1-.59-.13-1.55-1.8-3.37-3.87-3.39-3.97-.04-.16.35-.41.69-.89.33-.49.61-1.2.36-2.25-.18-.75-1.03-2.98-4.25-2.21-.98.24-1.97.54-2.95.78-.93.22-1.06.19-1.74.35-.18.04-.3.16-.26.32.14.59,1.6-.4,2.04,1.43l1.72,7.18h0Z"/><path class="cls-25" d="M508.45,400.77c.5,1.93-1.35,1.58-1.19,2.22.09.36.34.28.6.21.59-.15,1.05-.34,2.03-.59.98-.25,1.48-.31,2.07-.46.42-.11.73-.14.63-.53-.12-.46-1.87.5-2.39-1.5l-1.9-7.35c-.2-.78-.08-.9.52-1.05l1.24-.32c1.67-.5,1.66,1.43,2.25,1.27.38-.1.06-.69-.02-.88l-.55-1.45c-.06-.16-.12-.39-.33-.33-1.36.35-2.32.67-4.46,1.22-2.14.55-3.13.74-4.49,1.09-.22.06-.16.28-.13.45l.32,2.21c.03.22.03.6.34.52.66-.17-.33-2.19,1.32-2.61l1.23-.32c.6-.16.77-.11.97.67l1.95,7.54h0Z"/><path class="cls-25" d="M516.18,390.46c-.43-1.54.83-1.26.67-1.81-.05-.19-.14-.21-.57-.09-.83.23-1.34.44-1.86.59-.51.14-1.1.23-1.66.39-.13.04-.51.09-.43.36.16.57,1.68-.34,2.09,1.13l2.15,7.77c.43,1.54-.74,1.41-.58,1.97.02.08.08.19.21.15.38-.11.99-.34,1.61-.52,1.14-.32,1.69-.4,2.23-.55.34-.09.45-.19.4-.37-.14-.52-1.57.68-2.12-1.31l-2.14-7.72h0Z"/><path class="cls-25" d="M519.41,394.21c1.08,3.23,3.74,4.73,6.62,3.77,4.57-1.53,4.14-5.72,3.39-7.95-1.13-3.38-3.95-4.72-6.74-3.75-3.41,1.18-4.44,4.44-3.27,7.93h0ZM520.86,392.71c-.77-2.31-.79-4.75,1.61-5.6,1.84-.65,4.2.61,5.38,4.13.88,2.64.8,5.05-1.65,5.92-2.55.91-4.57-2.12-5.34-4.45Z"/><path class="cls-25" d="M531.59,385.1c-.37-.94.07-1.11.59-1.31,1.42-.56,2.66.29,3.27,1.82.36.92.62,1.83-1.51,2.67-.42.17-.94.37-1.1-.02l-1.24-3.16h0ZM532.71,393.01c.78,1.97-.57,1.9-.37,2.4.12.31.4.15.55.09.7-.28,1.38-.62,2.14-.92.59-.23,1-.32,1.23-.41.32-.13.4-.27.34-.41-.22-.56-1.36.63-2.02-1.05l-1.06-2.7c-.22-.55-.34-.62.4-.92.7-.28,1.01-.24,1.61.32l2.15,2c.79.73,1.63,1.54,2.74,1.1.56-.22,1.36-.93,1.16-1.42-.05-.12-.17-.19-.3-.14-.14.06-.24.2-.38.26-.11.04-.38.15-.6-.05-1.79-1.57-3.88-3.36-3.91-3.46-.06-.16.29-.46.56-.98.26-.54.44-1.27.05-2.27-.28-.72-1.43-2.81-4.51-1.6-.94.37-1.87.81-2.82,1.18-.89.35-1.02.33-1.67.59-.17.07-.28.2-.22.36.22.56,1.53-.62,2.22,1.13l2.71,6.87h0Z"/><path class="cls-27" d="M372.24,221.02h73.96v73.82h-73.96v-73.82Z"/><path id="mits" class="cls-29" d="M406.92,279.14s-.04,2.64-.77,4.76q-.84,2.45-1.62,3.64c-1.04,1.6-2.3,2.77-3.43,3.5-1.76,1.13-3.55,1.7-5.35,1.54-4.94-.44-7.23-5.8-8.35-10.15-1.19-4.62-4.57-7.13-6.72-5.46-1.26.98-1.33,2.62-.28,4.2,1.12,1.68,3.69,2.52,3.69,2.52l-2.64,3.36s-5.67-.74-6.78-6.65c-.42-2.24.67-6.42,4.4-7.67,4.77-1.6,7.82,1.8,9.29,4.67,2.02,3.95,2.89,11.19,8.49,10.07,3.05-.61,4.48-5.04,4.48-7.07l2.22-2.38,3.29,1.05.09.07h0Z"/><path id="mits-2" class="cls-29" d="M411.53,279.14s.04,2.64.77,4.76q.84,2.45,1.62,3.64c1.04,1.6,2.3,2.77,3.43,3.5,1.76,1.13,3.55,1.7,5.35,1.54,4.94-.44,7.23-5.8,8.35-10.15,1.19-4.62,4.57-7.13,6.72-5.46,1.26.98,1.33,2.62.28,4.2-1.12,1.68-3.69,2.52-3.69,2.52l2.64,3.36s5.67-.74,6.78-6.65c.42-2.24-.67-6.42-4.4-7.67-4.77-1.6-7.82,1.8-9.29,4.67-2.02,3.95-2.89,11.19-8.49,10.07-3.05-.61-4.48-5.04-4.48-7.07l-2.22-2.38-3.29,1.05-.09.07h0Z"/><path class="cls-30" d="M415.85,247.75l9.68-10.48s1.46-1.18,1.45-3.06l-2,.31-.45-1.03-.1-1.03,2.68-.57c.04-.44,0-.77.08-1.25.07-.44.17-.68.28-1.12l-2.94.2c.15-.51.12-.79.28-1.27.14-.4.18-.56.45-.99.55-.08,1.04-.21,1.72-.27.65-.07,1.03-.04,1.69-.08,1.6-2.99,8.27-5.74,13.01-.81,3.43,3.56,2.69,10.1-1.76,11.83-2.52.98-4.55.4-6.18-1l1.77-3.48c2.45,1.46,4.48-.36,4.34-2.25-.18-2.39-1.73-3.87-3.92-4.06-2.03-.18-3.49.98-4.41,2.8-.56,1.11-.3,1.92-.49,3.15-.2,1.33-.09,2.08-.48,3.43-.29.98-1.04,2.19-2.13,3.23l-9.93,10.74-38.65,41.8-2.9-2.68,38.89-42.06h0Z"/><path class="cls-29" d="M387.4,251.43s2.43,12.03,10.69,30.09c4.2-1.54,6.68-2.52,11.13-2.52s6.93.84,11.13,2.52c8.26-18.05,10.69-30.09,10.69-30.09l-21.81-28.06-21.81,28.06Z"/><path class="cls-30" d="M411.35,232.86l15.14,19.47s-2.02,9.47-8.17,23.72c-2.38-.54-4.42-1.01-6.96-1.19v-42s0,0,0,0Z"/><path class="cls-30" d="M407.09,232.86l-15.14,19.47s2.02,9.47,8.17,23.72c2.38-.54,4.42-1.01,6.96-1.19v-42s0,0,0,0Z"/><path class="cls-30" d="M454.08,221.02h73.96v73.82h-73.96v-73.82Z"/><path class="cls-27" d="M464.44,221.02h11.03v73.82h-11.03v-73.82Z"/><path class="cls-27" d="M485.57,221.02h11.03v73.82h-11.03v-73.82Z"/><path class="cls-27" d="M506.71,221.02h11.03v73.82h-11.03v-73.82Z"/><path class="cls-30" d="M372.52,358.86c.21,1.33.68,3.61,1.95,5.95,1.33,2.1.84,2.04,3.85,5.4,1.48,1.65,3.79,3.07,5.6,4.05,1.82.98,3.17,1.46,6.16,2.25,5.87,1.54,9.98,1.64,14.92,1.44,3.85-.15,6.79-.63,9.22-.96,3.47-.47,6.06-.75,10.01-.91,1.92-.08,3.73-.1,5.53,0,2.17.12,4.3.45,6.58.91,4.9.98,9.87,2.87,9.87,2.87v-77.09s-73.96-.02-73.96-.02v52.69s.15,2.57.29,3.43h0Z"/><path class="cls-27" d="M381.1,372.38l3.47,2.02,4.75,1.71v-73.37h-8.22v69.65Z"/><path class="cls-27" d="M422.2,375.72v-72.99s-8.22,0-8.22,0v74.16s5.63-.72,8.22-.89v-.28Z"/><path class="cls-27" d="M438.61,302.74h-8.2v73.24c2.67.29,5.42.77,8.22,1.51l-.02-74.76h0Z"/><path class="cls-27" d="M405.77,302.74v75c-.08,0-5.49.28-8.26,0v-74.98s8.26-.01,8.26-.01Z"/><path class="cls-30" d="M527.78,358.84c-.21,1.33-.68,3.61-1.95,5.95-1.33,2.1-.84,2.04-3.85,5.4-1.48,1.65-3.79,3.07-5.6,4.05-1.82.98-3.17,1.46-6.16,2.25-5.87,1.54-9.98,1.64-14.92,1.44-3.85-.15-6.79-.63-9.22-.96-3.47-.47-6.06-.75-10.01-.91-1.92-.08-3.73-.1-5.53,0-2.17.12-4.3.45-6.58.91-4.9.98-9.93,2.87-9.93,2.87l.05-77.09,73.97-.02v52.69s-.15,2.57-.29,3.43h0Z"/><g id="cow"><path class="cls-27" d="M473,308.91s-.33.16-.53.25c-.27.29-.4.47-.7.73-.4.35-.69.45-1.13.76-.21.15-.38.19-.53.39-.23.29-.07.57-.23.9-.17.36-.33.54-.59.84-.33.39-.58.55-.96.9-.38.36-.53.65-.98.9-.12.06-.18.13-.31.17-.19.06-.31,0-.51.06-.35.12-.46.51-.7.65.1.2.1.34.2.53.14.29.63,1.09.73,1.29.19.27.24.63.48.7.48.15.77.14,1.18.11.71.16,1.15.14,1.83.42.55.23.78.52,1.32.76.43.19.69.31,1.15.39.35.07.55.12.9.08.22-.02.34-.11.56-.14.04,0,.07,0,.11,0l-.03.34s0,.03,0,.03v.06h.06l1.86.82c-.07.11-.14.23-.17.34-.09.29-.1.62-.06.76.57,1.7,1.04,2.76,1.32,2.87.55.21.73.78,1.04,1.35-.11.12-.2.18-.31.28-.55.53-1.04.91-1.49,1.63-.67,1.07-1.12,1.08-.28,2.5.49.83.73.99,1.38,2.17.33.59.51,1.06.7,1.77.19.68.25,1.07.28,1.77l.87.34.59-.59.56-1.07.03-.82c-.21-.18-.28-.43-.23-.7.06-.33.46-.26.65-.56.25-.42-.3-.66-.59-.98-.55-.6-1.29-.75-1.46-1.66-.05-.25.07-.38.34-.65.77-.76,1.02-.88,1.77-1.63.22.13.55.17.87.11.25-.05.48.11,1.27.34.55.16.79.08,1.1.03l.34-.08c.05.19.1.37.11.62.05.95-.14,2.7.14,3.15.12.19.17.3.25.51.09.22.19.36.2.59.01.63.04,1.03,0,1.69-.04.62-.09.94-.2,1.58-.07.41-.15.64-.39.96-.26.33-.54.38-.87.62l-.08.9,1.01.42,1.15.28.62-.25c0-.23.04-.36.14-.56.11-.22.21-.39.42-.48.33-.13.68.12.82-.08.14-.22.05-.3.03-.67-.04-.6-.17-.89-.25-1.49-.15-1-.19-1.52-.14-2.47.03-.55.03-.86.14-1.41.15-.79.44-1.18.62-1.97.2-.88.24-1.45.34-2.22,2.85.41,5.23.36,8.41-.34.15-.03.68-.22.68-.22.72.62,1.54,1.14,2.45,1.46,0,.09-.01.76,0,.87.03.26-.04.43.11.65.09.14.18.22.34.25.24.05.41.02.59-.14.2-.18.17-.41.23-.67.03-.13,0-.51,0-.62.33.05.44.06.79.06.32,0,.48.01.79-.03,0,.07.02.33.03.42.02.22-.07.39.03.59.1.21.22.32.45.37.19.04.32.02.48-.08.27-.17.24-.45.28-.76.01-.1.01-.62,0-.7.19-.06.74-.26.93-.34,0,.22-.03.47-.08.73-.06.34-.11.52-.23.84-.19.51-.4.77-.67,1.24-.34.57-.52.89-.93,1.41-.19.24-.32.35-.51.59-.23.3-.31.51-.53.82-.29.39-.46.65-.84.96-.62.49-1.03.1-1.88.76l-.2.93,1.29.48,1.15.23.39-.23c-.01-.27.03-.46.2-.68.19-.24.4-.32.7-.37.33-.05.67.03.93-.2.32-.28.31-.82.56-1.32.77-1.55,1.46-2.31,2.7-3.52.55-.54,1.02-.68,1.49-1.29.22-.29.47-.42.48-.79,0-.25-.13-.37-.2-.62-.09-.34-.17-.9-.17-.9,1.37.67.87.58,1.12,1.27.2.55-.03.94.06,1.52.1.68.42,1,.48,1.69.07.81-.13,1.28-.28,2.08-.13.71-.12,1.15-.42,1.8-.29.62-.51.97-1.04,1.41-.19.16-.33.23-.53.37l-.11.93,1.01.34,1.46.39.34-.31c.15-.59-.05-1.45.37-1.52.37-.06.62,0,.7-.28.03-.12.05-.29.08-.56.2-1.7.38-3.28.56-4.05.21-.87.19-1.06.37-1.72.16-.6-.08-.25.37-1.52.66-1.89-.19-2.14-.96-3.29-.42-.62-.56-.85-.62-1.35-.09-.74.15-1.35.11-2.47-.04-1.19-.02-1.94,0-2.59.1-.05.2-.11.31-.17,1.05-.58,1.47-.75,2.14-2.22.2-.45.29-.89.28-1.32,0-.3-.06-.59-.08-.93-.03-.36-.17-.57-.28-.84-.12-.29-.29-.5-.51-.76-.7-.83-1.6-1.02-2.45-1.32-1.34-.48-2.25-.39-3.71-.51-1.5-.12-2.35-.14-3.85-.06-1.81.1-2.82.47-4.61.68-1.72.2-2.68.33-4.42.37-2.03.04-3.98-.41-5.2-.31-2.21.19-2.24.69-5.57.96-1.73.14-3.46.17-3.46.17l-1.94-.62c.77-.28.96-.44,1.32-.93.24-.33.21-.61.51-.96.24-.28.4-.56.7-.87-.28-.22-.58-.34-.84-.39-.33-.07-.52-.04-.84,0-.44.05-.7.11-1.1.31-.32.16-.56.32-.76.53,0,0-1.16-.75-1.97-1.1-1.01-.44-1.44-.64-2.7-.82h0ZM474.77,319.63h.06s-.02.02-.03.03l-.03-.03h0Z"/><path class="cls-3" d="M512.74,320.26l-.69.22c-.78.36-1.42.38-2.34.45-2.38.18-3.84-.95-6.3-.76-1.26.1-1.82,1.07-3.11,1.39-.59.15-.93.2-1.53.25l.46-.93s-1.16.24-1.9.24c-.54,0-.84-.03-1.37-.12l.92-.86s-.73-.12-1.16-.3c-.4-.17-.62-.3-.95-.57.6-.1.93-.17,1.52-.32,1.4-.35,1.84-1.03,3.5-1.19,1.03-.1,2.73-.04,6.88.65,2.73.45,3.94.24,4.98-.23.68-.31.91-.91.99-1.61.08-.7-.36-1.26-.79-1.63-.11-.1-.4-.3-1-.33"/><path class="cls-24" d="M473.16,312.24c-.48-.06-.8,0-1.21.26-.43.27-.49.63-.8,1.03.4.09.63.32,1.03.23.31-.08.47-.21.69-.46.28-.33.39-.61.38-1.04l-.09-.02h0Z"/><path class="cls-3" d="M483.28,324.1s.24.43.37.72c.22.5.34.79.47,1.32.18.72.1,1.16.22,1.89.02.13.04.24.07.34l-.05,1.02"/><path class="cls-3" d="M490.48,323.13s-.2.73-.32,1.2c-.32,1.22-.61,1.88-.85,3.11-.04.21-.07.4-.09.58"/><path class="cls-3" d="M479.45,324.44c.71.16.49,3.02,1.61,3.68"/><path class="cls-5" d="M504.95,329.49l.35-.22c.91-.37,1.73-.92,2.42-1.61"/><path class="cls-3" d="M497.99,327.91s0,0,0,0c3.18-.79,5.3-2.38,6.82-2.58"/><path class="cls-3" d="M501.22,323.94c.27,0,.53-.03.75-.06,1.32-.19,1.53.62,2.45,1.13,1.67.93,1.89,2.08,3.87,3.02.1.05.2.1.29.14l.76.39"/><path class="cls-24" d="M466.77,315.77c.24.06.39.07.64.05.3-.03.44-.21.73-.22.24,0,.42-.03.62.11.13.09.18.17.25.31.08.15.15.25.11.42-.05.26-.29.38-.55.38-.21,0-.39-.06-.49-.24-.06-.12-.07-.22-.03-.35-.26.1-.44.1-.7.01-.27-.09-.43-.21-.57-.46h0Z"/><path class="cls-26" d="M473.46,324.44c-.72-.21-1.77-.74-1.77-.74.29-.23.53-.24.78-.5.35-.37.34-.71.53-1.19.19-.47.17-.86.6-1.21.26-.21.69-.24,1.01-.15.32.1.68.36.76.69.12.5-.14.8-.22,1.31-.08.51-.26.8-.18,1.31.06.34.2.47.32.82,0,0-1.14-.13-1.84-.34h0Z"/><path class="cls-26" d="M472.57,325.3c0-.31.24-.57.56-.58.31,0,.57.24.58.56,0,.31-.24.57-.56.58-.31,0-.57-.24-.58-.56Z"/><path class="cls-26" d="M470.99,310.44s-.08-.05-.13-.09c-.34-.28-.38-.59-.54-1-.15-.39-.23-.62-.28-1.04-.05-.37,0-.58,0-.94,0-.33.04-.52,0-.85-.04-.34-.03-.55-.19-.85-.09-.16-.36-.3-.28-.38.09-.09.23-.02.38,0,.36.04.57.15.85.38.34.28.47.51.6.94.15.49.22.81.37,1.32.07.27.12.42.26.66.14.25.29.35.47.57v.02c-.28.29-.41.49-.71.75-.27.24-.5.36-.76.52h-.03s0,0,0,0Z"/><path class="cls-26" d="M474.23,320.02l2.01.93c1.03-.57,2.23-1.73,3.15-3.53.79-1.55.92-2.39,1.23-3.88l-1.61-.52-.32.07c-.5,1.55-.62,2.43-1.46,3.77-.72,1.16-1.55,2.07-2.38,2.73l-.61.44h0Z"/><path class="cls-26" d="M478.67,336.32c.32-.44.46-.73.83-1.14.41-.45.72-.63,1.18-1.04.14.01.3,0,.43.06-.03.49-.05.85-.16,1.39-.09.43-.17.67-.31,1.09-.12.35-.14.58-.35.88-.14.2-.26.28-.43.47-.46-.67-1.2-1.17-1.19-1.71h0Z"/><path class="cls-26" d="M508.38,337.99c.52.19.83.24,1.32.48.55.27.81.52,1.32.85.02.14.09.29.06.43-.48.11-.83.19-1.38.23-.44.03-.69.02-1.13,0-.37-.02-.59.02-.94-.09-.23-.08-.35-.17-.57-.28.52-.63.79-1.47,1.32-1.62h0Z"/><path class="cls-26" d="M499.6,336.15c.52.19.83.24,1.32.48.55.27.81.52,1.32.85.02.14.09.29.06.43-.48.11-.83.19-1.38.23-.44.03-.69.02-1.13,0-.37-.02-.59.02-.94-.09-.23-.08-.35-.17-.57-.28.52-.63.79-1.47,1.32-1.62h0Z"/><path class="cls-26" d="M483.99,338.07c.52.19.83.24,1.32.48.55.27.81.52,1.32.85.02.14.09.29.06.43-.48.11-.83.19-1.38.23-.44.03-.69.02-1.13,0-.37-.02-.59.02-.94-.09-.23-.08-.35-.17-.57-.28.52-.63.79-1.47,1.32-1.62h0Z"/><path class="cls-26" d="M475.91,311.25c-.55-.25-.94-.94-.59-1.43.14-.2.37-.16.51-.36.17-.25.13-.46.12-.75,0-.34-.13-.52-.19-.85-.06-.37-.13-.57-.12-.94,0-.57-.03-.97.31-1.42.22-.29.59-.53.74-.55.13.12-.05.45-.03.74.03.42.12.65.26,1.04.18.51.43.73.63,1.23.19.46.36.73.38,1.23.01.41-.02.66-.19,1.04-.15.33-.27.52-.55.75-.24.2-.41.29-.72.38-.22.02-.36,0-.57-.1h0Z"/></g><g id="cow-2"><path class="cls-27" d="M473,341.84s-.33.16-.53.25c-.27.29-.4.47-.7.73-.4.35-.69.45-1.13.76-.21.15-.38.19-.53.39-.23.29-.07.57-.23.9-.17.36-.33.54-.59.84-.33.39-.58.55-.96.9-.38.36-.53.65-.98.9-.12.06-.18.13-.31.17-.19.06-.31,0-.51.06-.35.12-.46.51-.7.65.1.2.1.34.2.53.14.29.63,1.09.73,1.29.19.27.24.63.48.7.48.15.77.14,1.18.11.71.16,1.15.14,1.83.42.55.23.78.52,1.32.76.43.19.69.31,1.15.39.35.07.55.12.9.08.22-.02.34-.11.56-.14.04,0,.07,0,.11,0l-.03.34s0,.03,0,.03v.06h.06l1.86.82c-.07.11-.14.23-.17.34-.09.29-.1.62-.06.76.57,1.7,1.04,2.76,1.32,2.87.55.21.73.78,1.04,1.35-.11.12-.2.18-.31.28-.55.53-1.04.91-1.49,1.63-.67,1.07-1.12,1.08-.28,2.5.49.83.73.99,1.38,2.17.33.59.51,1.06.7,1.77.19.68.25,1.07.28,1.77l.87.34.59-.59.56-1.07.03-.82c-.21-.18-.28-.43-.23-.7.06-.33.46-.26.65-.56.25-.42-.3-.66-.59-.98-.55-.6-1.29-.75-1.46-1.66-.05-.25.07-.38.34-.65.77-.76,1.02-.88,1.77-1.63.22.13.55.17.87.11.25-.05.48.11,1.27.34.55.16.79.08,1.1.03l.34-.08c.05.19.1.37.11.62.05.95-.14,2.7.14,3.15.12.19.17.3.25.51.09.22.19.36.2.59.01.63.04,1.03,0,1.69-.04.62-.09.94-.2,1.57-.07.41-.15.64-.39.96-.26.33-.54.38-.87.62l-.08.9,1.01.42,1.15.28.62-.25c0-.23.04-.36.14-.56.11-.22.21-.39.42-.48.33-.13.68.12.82-.08.14-.22.05-.3.03-.67-.04-.6-.17-.89-.25-1.49-.15-1-.19-1.52-.14-2.47.03-.55.03-.86.14-1.41.15-.79.44-1.18.62-1.97.2-.88.24-1.45.34-2.22,2.85.41,5.23.36,8.41-.34.15-.03.68-.23.68-.23.72.62,1.54,1.14,2.45,1.46,0,.09-.01.76,0,.87.03.26-.04.43.11.65.09.14.18.22.34.25.24.05.41.02.59-.14.2-.18.17-.41.23-.68.03-.13,0-.51,0-.62.33.05.44.06.79.06.32,0,.48.01.79-.03,0,.07.02.33.03.42.02.22-.07.39.03.59.1.21.22.32.45.37.19.04.32.02.48-.08.27-.17.24-.45.28-.76.01-.1.01-.62,0-.7.19-.06.74-.26.93-.34,0,.22-.03.47-.08.73-.06.34-.11.52-.23.84-.19.51-.4.77-.67,1.24-.34.57-.52.89-.93,1.41-.19.24-.32.35-.51.59-.23.3-.31.51-.53.82-.29.39-.46.65-.84.96-.62.49-1.03.1-1.88.76l-.2.93,1.29.48,1.15.22.39-.22c-.01-.27.03-.46.2-.68.19-.24.4-.32.7-.37.33-.05.67.03.93-.2.32-.28.31-.82.56-1.32.77-1.55,1.46-2.31,2.7-3.52.55-.54,1.02-.68,1.49-1.29.22-.29.47-.42.48-.79,0-.25-.13-.37-.2-.62-.09-.34-.17-.9-.17-.9,1.37.67.87.58,1.12,1.27.2.55-.03.94.06,1.52.1.68.42,1,.48,1.69.07.81-.13,1.28-.28,2.08-.13.71-.12,1.15-.42,1.8-.29.62-.51.97-1.04,1.41-.19.16-.33.23-.53.37l-.11.93,1.01.34,1.46.39.34-.31c.15-.59-.05-1.45.37-1.52.37-.06.62,0,.7-.28.03-.12.05-.29.08-.56.2-1.7.38-3.28.56-4.05.21-.87.19-1.06.37-1.72.16-.6-.08-.25.37-1.52.66-1.89-.19-2.14-.96-3.29-.42-.62-.56-.85-.62-1.35-.09-.74.15-1.35.11-2.48-.04-1.19-.02-1.94,0-2.59.1-.05.2-.11.31-.17,1.05-.58,1.47-.75,2.14-2.22.2-.45.29-.89.28-1.32,0-.3-.06-.59-.08-.93-.03-.36-.17-.57-.28-.84-.12-.29-.29-.5-.51-.76-.7-.83-1.6-1.02-2.45-1.32-1.34-.48-2.25-.39-3.71-.51-1.5-.12-2.35-.14-3.85-.06-1.81.1-2.82.47-4.61.67-1.72.2-2.68.33-4.42.37-2.03.04-3.98-.41-5.2-.31-2.21.19-2.24.69-5.57.96-1.73.14-3.46.17-3.46.17l-1.94-.62c.77-.28.96-.44,1.32-.93.24-.33.21-.61.51-.96.24-.28.4-.56.7-.87-.28-.22-.58-.34-.84-.39-.33-.07-.52-.04-.84,0-.44.05-.7.11-1.1.31-.32.16-.56.32-.76.53,0,0-1.16-.75-1.97-1.1-1.01-.44-1.44-.64-2.7-.82h0ZM474.77,352.56h.06s-.02.02-.03.03l-.03-.03h0Z"/><path class="cls-3" d="M512.74,353.19l-.69.22c-.78.36-1.42.38-2.34.45-2.38.18-3.84-.95-6.3-.76-1.26.1-1.82,1.07-3.11,1.39-.59.15-.93.2-1.53.25l.46-.93s-1.16.24-1.9.24c-.54,0-.84-.03-1.37-.12l.92-.86s-.73-.12-1.16-.3c-.4-.17-.62-.3-.95-.57.6-.1.93-.17,1.52-.32,1.4-.35,1.84-1.03,3.5-1.19,1.03-.1,2.73-.04,6.88.65,2.73.45,3.94.24,4.98-.23.68-.31.91-.91.99-1.61.08-.7-.36-1.26-.79-1.63-.11-.1-.4-.3-1-.33"/><path class="cls-24" d="M473.16,345.17c-.48-.06-.8,0-1.21.26-.43.27-.49.63-.8,1.03.4.09.63.32,1.03.23.31-.08.47-.21.69-.46.28-.33.39-.61.38-1.04l-.09-.02h0Z"/><path class="cls-3" d="M483.28,357.03s.24.43.37.72c.22.5.34.79.47,1.32.18.72.1,1.16.22,1.89.02.13.04.24.07.34l-.05,1.02"/><path class="cls-3" d="M490.48,356.06s-.2.73-.32,1.2c-.32,1.22-.61,1.88-.85,3.11-.04.21-.07.4-.09.58"/><path class="cls-3" d="M479.45,357.38c.71.16.49,3.02,1.61,3.68"/><path class="cls-5" d="M504.95,362.43l.35-.22c.91-.37,1.73-.92,2.42-1.61"/><path class="cls-3" d="M497.99,360.84s0,0,0,0c3.18-.79,5.3-2.38,6.82-2.58"/><path class="cls-3" d="M501.22,356.87c.27,0,.53-.03.75-.06,1.32-.19,1.53.62,2.45,1.13,1.67.93,1.89,2.08,3.87,3.02.1.05.2.1.29.14l.76.39"/><path class="cls-24" d="M466.77,348.7c.24.06.39.07.64.05.3-.03.44-.21.73-.22.24,0,.42-.03.62.11.13.09.18.17.25.31.08.15.15.25.11.42-.05.26-.29.38-.55.38-.21,0-.39-.06-.49-.24-.06-.12-.07-.22-.03-.35-.26.1-.44.1-.7.01-.27-.09-.43-.21-.57-.46h0Z"/><path class="cls-26" d="M473.46,357.38c-.72-.21-1.77-.74-1.77-.74.29-.23.53-.24.78-.5.35-.37.34-.71.53-1.19.19-.47.17-.86.6-1.21.26-.21.69-.24,1.01-.15.32.1.68.36.76.69.12.5-.14.8-.22,1.31-.08.51-.26.8-.18,1.31.06.34.2.47.32.82,0,0-1.14-.13-1.84-.34h0Z"/><path class="cls-26" d="M472.57,358.23c0-.31.24-.57.56-.58.31,0,.57.24.58.56,0,.31-.24.57-.56.58-.31,0-.57-.24-.58-.56Z"/><path class="cls-26" d="M470.99,343.37s-.08-.05-.13-.09c-.34-.28-.38-.59-.54-1-.15-.39-.23-.62-.28-1.04-.05-.37,0-.58,0-.94,0-.33.04-.52,0-.85-.04-.34-.03-.55-.19-.85-.09-.16-.36-.3-.28-.38.09-.09.23-.02.38,0,.36.04.57.15.85.38.34.28.47.51.6.94.15.49.22.81.37,1.32.07.27.12.42.26.66.14.25.29.35.47.57v.02c-.28.29-.41.49-.71.75-.27.24-.5.36-.76.52h-.03s0,0,0,0Z"/><path class="cls-26" d="M474.23,352.95l2.01.93c1.03-.57,2.23-1.73,3.15-3.53.79-1.55.92-2.39,1.23-3.88l-1.61-.52-.32.07c-.5,1.55-.62,2.43-1.46,3.77-.72,1.16-1.55,2.07-2.38,2.73l-.61.44h0Z"/><path class="cls-26" d="M478.67,369.26c.32-.44.46-.73.83-1.14.41-.45.72-.63,1.18-1.04.14.01.3,0,.43.06-.03.49-.05.85-.16,1.39-.09.43-.17.67-.31,1.09-.12.35-.14.58-.35.88-.14.2-.26.28-.43.47-.46-.67-1.2-1.17-1.19-1.71h0Z"/><path class="cls-26" d="M508.38,370.92c.52.19.83.24,1.32.48.55.27.81.52,1.32.85.02.14.09.29.06.43-.48.11-.83.19-1.38.23-.44.03-.69.02-1.13,0-.37-.02-.59.02-.94-.09-.23-.08-.35-.17-.57-.28.52-.63.79-1.47,1.32-1.62h0Z"/><path class="cls-26" d="M499.6,369.09c.52.19.83.24,1.32.48.55.27.81.52,1.32.85.02.14.09.29.06.43-.48.11-.83.19-1.38.23-.44.03-.69.02-1.13,0-.37-.02-.59.02-.94-.09-.23-.08-.35-.17-.57-.28.52-.63.79-1.47,1.32-1.62h0Z"/><path class="cls-26" d="M483.99,371c.52.19.83.24,1.32.48.55.27.81.52,1.32.85.02.14.09.29.06.43-.48.11-.83.19-1.38.23-.44.03-.69.02-1.13,0-.37-.02-.59.02-.94-.09-.23-.08-.35-.17-.57-.28.52-.63.79-1.47,1.32-1.62h0Z"/><path class="cls-26" d="M475.91,344.18c-.55-.25-.94-.94-.59-1.43.14-.2.37-.16.51-.36.17-.25.13-.46.12-.75,0-.34-.13-.52-.19-.85-.06-.37-.13-.57-.12-.94,0-.57-.03-.97.31-1.42.22-.29.59-.53.74-.55.13.12-.05.45-.03.74.03.42.12.65.26,1.04.18.51.43.73.63,1.23.19.46.36.73.38,1.23.01.41-.02.66-.19,1.04-.15.33-.27.52-.55.75-.24.2-.41.29-.72.38-.22.02-.36,0-.57-.1h0Z"/></g><path class="cls-21" d="M372.24,221.02h73.96v73.82h-73.96v-73.82Z"/><path class="cls-21" d="M454.08,221.02h73.96v73.82h-73.96v-73.82Z"/><path class="cls-21" d="M372.52,358.86c.21,1.33.68,3.61,1.95,5.95,1.33,2.1.84,2.04,3.85,5.4,1.48,1.65,3.79,3.07,5.6,4.05,1.82.98,3.17,1.46,6.16,2.25,5.87,1.54,9.98,1.64,14.92,1.44,3.85-.15,6.79-.63,9.22-.96,3.47-.47,6.06-.75,10.01-.91,1.92-.08,3.73-.1,5.53,0,2.17.12,4.3.45,6.58.91,4.9.98,9.87,2.87,9.87,2.87v-77.09s-73.96-.02-73.96-.02v52.69s.15,2.57.29,3.43h0Z"/><path class="cls-21" d="M527.78,358.84c-.21,1.33-.68,3.61-1.95,5.95-1.33,2.1-.84,2.04-3.85,5.4-1.48,1.65-3.79,3.07-5.6,4.05-1.82.98-3.17,1.46-6.16,2.25-5.87,1.54-9.98,1.64-14.92,1.44-3.85-.15-6.79-.63-9.22-.96-3.47-.47-6.06-.75-10.01-.91-1.92-.08-3.73-.1-5.53,0-2.17.12-4.3.45-6.58.91-4.9.98-9.93,2.87-9.93,2.87l.05-77.09,73.97-.02v52.69s-.15,2.57-.29,3.43h0Z"/></svg>