<?xml version="1.0" encoding="UTF-8"?><svg id="_色修正" xmlns="http://www.w3.org/2000/svg" xmlns:xlink="http://www.w3.org/1999/xlink" viewBox="0 0 900 600"><defs><style>.cls-1{stroke-linecap:round;stroke-linejoin:round;stroke-width:2.5px;}.cls-1,.cls-2{stroke:#040000;}.cls-1,.cls-3{fill:#fff000;}.cls-4{clip-path:url(#clippath);}.cls-5{fill:none;}.cls-5,.cls-6,.cls-7,.cls-8,.cls-3,.cls-9,.cls-10{stroke-width:0px;}.cls-11{clip-path:url(#clippath-1);}.cls-2{stroke-miterlimit:38.1;stroke-width:24.74px;}.cls-2,.cls-6{fill:#231815;}.cls-7{fill:#e50012;}.cls-8{fill:#fff;}.cls-9{fill:#040000;}.cls-10{fill:#008c3c;}</style><clipPath id="clippath"><rect class="cls-5" width="450" height="600"/></clipPath><clipPath id="clippath-1"><path class="cls-5" d="M0,0h900v600H0V0Z"/></clipPath></defs><path class="cls-10" d="M0,0h900v600H0V0Z"/><path class="cls-3" d="M7.14,85.71h892.86v428.57H7.14V85.71Z"/><path class="cls-7" d="M7.14,171.43h892.86v257.14H7.14V171.43Z"/><path class="cls-6" d="M7.14,257.14h892.86v85.71H7.14v-85.71Z"/><g class="cls-4"><path class="cls-2" d="M300,300L0,600V0l300,300Z"/></g><g class="cls-11"><polygon class="cls-8" points="-8.32 -17.48 382.49 300 -8.32 617.48 -8.32 -17.48"/><path class="cls-9" d="M0,0l369.29,300L0,600V0M-16.64-34.96v669.92l27.14-22.04,369.29-300,15.9-12.92-15.9-12.92L10.49-12.92l-27.14-22.04h0Z"/></g><path class="cls-7" d="M147.25,167.47l79.82,245.67L18.09,261.31h258.32l-208.98,151.83,79.82-245.67Z"/><path class="cls-1" d="M103.11,235.88c-.87-2.18-.73-4.61.39-6.69,1.12-2.04,3.15-3.49,5.48-3.88,2.47-.44,4.95-.58,7.47-.53,2.38-3.69,6.35-6.06,10.72-6.4,4.37-.29,8.63,1.46,11.54,4.75,3.44,3.93,5.48,8.88,5.92,14.07l1.79,22.5,68.48,53.59c1.79,1.45,2.07,4.08.62,5.87-1.03,1.27-2.72,1.83-4.3,1.41l-2.86-.82c-11.01,6.84-19.16,18.77-20.76,31.57l-4.12,32.59h-72.41l-9.6-37.3c-3.44-4.17-3.93-10.04-1.21-14.7,3.54-6.06,7.81-11.69,12.71-16.73,3.2-3.2,4.66-7.76,4.03-12.27-.68-4.46-1.02-8.97-1.07-13.48-.05-3.73.78-7.47,2.38-10.82l-.92-33.66c-.15-3.98-2.33-7.61-5.77-9.55l-8.49.49Z"/><path class="cls-1" d="M111.6,235.39l8.1-.49M118.29,278.61l28.13-18.92M157.68,316.29c11.11,3.1,18.04,2.18,21.29-4.9M137.65,283.94c-3.01,8.68,2.43,16.39,9.7,18.48l61.01,17.31M109.42,350.34c-2.28-8.92,1.02-24.88,15.13-31.53,6.55-3.06,8.68-9.75,8.73-15.42,0-2.13.05-4.61,3.1-5.82M101.46,346.61l2.13-5.19c1.02,3.83,3.1,6.64,5.82,8.92,1.5-3.15,2.81-6.35,3.93-9.6,1.26,2.52,2.28,5.97,3.15,9.41-.19-7.81,3.93-13.53,9.36-15.96l21.05-9.36c6.84-3.06,13.39-9.12,14.89-18.33M197.79,328.81h-59.85M102.68,351.31h84.93M122.32,369.79h62.91M115.97,351.31l6.35,18.48v14.11M119.26,359.22l6.21-6.21,6.21,6.21,6.21-6.21,6.21,6.21,6.21-6.21,6.21,6.21,6.21-6.21,6.21,6.21,6.21-6.21,6.21,6.21,6.01-6.01M121.11,366.25l4.37-4.37,6.21,6.21,6.21-6.21,6.21,6.21,6.21-6.21,6.21,6.21,6.21-6.21,6.21,6.21,6.21-6.21,6.21,6.21,4.7-4.7"/><circle class="cls-1" cx="127.8" cy="230.01" r="3.69"/><circle class="cls-1" cx="144.29" cy="340.16" r="7.03"/><circle class="cls-1" cx="172.18" cy="340.16" r="7.03"/></svg>