<?xml version="1.0" encoding="UTF-8"?><svg id="_色修正" xmlns="http://www.w3.org/2000/svg" viewBox="0 0 900 600"><defs><style>.cls-1{fill:#e50012;}.cls-1,.cls-2,.cls-3{stroke-width:0px;}.cls-2{fill:#fff000;}.cls-3{fill:#008c3c;}</style></defs><rect class="cls-3" width="300" height="600"/><rect class="cls-1" x="300" width="300" height="600"/><rect class="cls-2" x="600" width="300" height="600"/><g id="c"><path id="t" class="cls-2" d="M450,220l-24.72,76.08,38.04,12.36-13.32-88.45Z"/><path id="t-2" class="cls-2" d="M450,220l24.72,76.08-38.04,12.36,13.32-88.45Z"/></g><g id="c-2"><path id="t-3" class="cls-2" d="M526.08,275.28h-80v40l80-40Z"/><path id="t-4" class="cls-2" d="M526.08,275.28l-64.72,47.02-23.51-32.36,88.23-14.66Z"/></g><g id="c-3"><path id="t-5" class="cls-2" d="M497.02,364.72l-24.72-76.08-38.04,12.36,62.76,63.72Z"/><path id="t-6" class="cls-2" d="M497.02,364.72l-64.72-47.02,23.51-32.36,41.21,79.38Z"/></g><g id="c-4"><path id="t-7" class="cls-2" d="M402.98,364.72l64.72-47.02-23.51-32.36-41.21,79.38Z"/><path id="t-8" class="cls-2" d="M402.98,364.72l24.72-76.08,38.04,12.36-62.76,63.72Z"/></g><g id="c-5"><path id="t-9" class="cls-2" d="M373.92,275.28l64.72,47.02,23.51-32.36-88.23-14.66Z"/><path id="t-10" class="cls-2" d="M373.92,275.28h80v40l-80-40Z"/></g></svg>