<?xml version="1.0" encoding="UTF-8"?><svg id="_色修正" xmlns="http://www.w3.org/2000/svg" viewBox="0 0 900 600"><defs><style>.cls-1{fill:#e50012;}.cls-1,.cls-2,.cls-3{stroke-width:0px;}.cls-2{fill:#fff;}.cls-3{fill:#004097;}</style></defs><rect class="cls-1" width="900" height="600"/><rect class="cls-3" width="900" height="400"/><rect class="cls-2" width="900" height="200"/><path class="cls-2" d="M316.25,463.5c-53.78-25.9-130.71-77.32-130.71-179.03s4.86-147.97,4.86-147.97h251.7s4.86,46.26,4.86,147.97-76.93,153.13-130.71,179.03Z"/><path class="cls-1" d="M316.25,450c-49.34-23.77-119.92-70.94-119.92-164.25s4.46-135.75,4.46-135.75h230.91s4.46,42.44,4.46,135.75-70.58,140.49-119.92,164.25h0Z"/><path class="cls-2" d="M326.81,261.28c13.36.22,39.43.74,62.64-7.03,0,0-.61,8.31-.61,17.98s.61,17.98.61,17.98c-21.29-7.12-47.58-7.27-62.63-7.08v51.54h-21.1v-51.54c-15.05-.19-41.35-.04-62.64,7.08,0,0,.61-8.3.61-17.98s-.61-17.98-.61-17.98c23.21,7.77,49.28,7.24,62.64,7.03v-32.37c-12.18-.11-29.72.47-49.56,7.11,0,0,.61-8.31.61-17.98s-.61-17.98-.61-17.98c19.81,6.63,37.34,7.22,49.51,7.11-.63-20.5-6.6-46.33-6.6-46.33,0,0,12.29.96,17.2.96s17.2-.96,17.2-.96c0,0-5.97,25.83-6.6,46.33,12.17.11,29.7-.48,49.51-7.11,0,0-.61,8.31-.61,17.98s.61,17.98.61,17.98c-19.84-6.64-37.39-7.22-49.56-7.11v32.37h0Z"/><path class="cls-3" d="M316.25,329.09c-24.85,0-38.16,34.47-38.16,34.47,0,0-7.38-16.34-27.66-16.34-13.72,0-23.82,12.2-30.25,23.5,24.95,39.71,64.77,64.21,96.06,79.28,31.3-15.08,71.14-39.57,96.09-79.28-6.43-11.3-16.53-23.5-30.25-23.5-20.27,0-27.69,16.34-27.69,16.34,0,0-13.31-34.47-38.16-34.47h0Z"/></svg>