<?xml version="1.0" encoding="UTF-8"?><svg id="_色修正" xmlns="http://www.w3.org/2000/svg" viewBox="0 0 900 600"><defs><style>.cls-1{stroke-width:.21px;}.cls-1,.cls-2,.cls-3,.cls-4,.cls-5,.cls-6,.cls-7,.cls-8,.cls-9,.cls-10,.cls-11,.cls-12,.cls-13,.cls-14,.cls-15,.cls-16,.cls-17,.cls-18,.cls-19,.cls-20,.cls-21,.cls-22,.cls-23,.cls-24,.cls-25,.cls-26,.cls-27,.cls-28,.cls-29,.cls-30,.cls-31,.cls-32,.cls-33,.cls-34,.cls-35,.cls-36,.cls-37,.cls-38,.cls-39,.cls-40,.cls-41,.cls-42,.cls-43,.cls-44,.cls-45,.cls-46,.cls-47,.cls-48{stroke:#231815;}.cls-1,.cls-8{fill:#117c3b;}.cls-2{stroke-width:.42px;}.cls-2,.cls-6,.cls-12,.cls-15,.cls-20,.cls-25,.cls-26,.cls-38,.cls-39,.cls-46,.cls-49{fill:#fff;}.cls-3,.cls-4,.cls-23,.cls-24,.cls-36,.cls-37,.cls-43,.cls-44,.cls-48{fill:none;}.cls-3,.cls-6,.cls-7,.cls-8,.cls-9,.cls-10{stroke-width:.33px;}.cls-4{stroke-width:.64px;}.cls-5{stroke-width:.2px;}.cls-5,.cls-18,.cls-19,.cls-27,.cls-33,.cls-34,.cls-35,.cls-40,.cls-45,.cls-50{fill:#e6ae23;}.cls-7,.cls-13,.cls-17,.cls-22,.cls-30,.cls-47,.cls-51{fill:#c31733;}.cls-9,.cls-16,.cls-21,.cls-42{fill:#0f347f;}.cls-10,.cls-52{fill:#152e82;}.cls-11,.cls-12,.cls-24,.cls-28,.cls-36{stroke-linecap:round;}.cls-11,.cls-12,.cls-24,.cls-45,.cls-46,.cls-47{stroke-width:.2px;}.cls-11,.cls-31{fill:#c4181f;}.cls-13,.cls-14,.cls-36,.cls-48{stroke-width:.36px;}.cls-14,.cls-41,.cls-53{fill:#0c6736;}.cls-15,.cls-16,.cls-17,.cls-18,.cls-43{stroke-width:.38px;}.cls-19,.cls-20,.cls-21,.cls-22,.cls-44{stroke-width:.19px;}.cls-23,.cls-39,.cls-40,.cls-41,.cls-42{stroke-width:.41px;}.cls-24{isolation:isolate;opacity:.98;}.cls-25{stroke-width:.39px;}.cls-26{stroke-width:.29px;}.cls-27{stroke-width:.16px;}.cls-28{fill:#e8c620;stroke-width:.16px;}.cls-29,.cls-30,.cls-31,.cls-32,.cls-37{stroke-width:.16px;}.cls-29,.cls-54{fill:#231815;}.cls-32{fill:#e5af24;}.cls-33{stroke-width:.16px;}.cls-33,.cls-34{stroke-miterlimit:3.41;}.cls-34{stroke-width:.32px;}.cls-35{stroke-width:.32px;}.cls-38{stroke-width:.15px;}.cls-53,.cls-52,.cls-54,.cls-55,.cls-51,.cls-49,.cls-50,.cls-56{stroke-width:0px;}.cls-55{fill:#e50012;}.cls-56{fill:#00387d;}</style></defs><rect class="cls-55" width="900" height="600"/><rect class="cls-56" width="900" height="300"/><path class="cls-49" d="M330.24,203.05h237.27v194.12h-237.27v-194.12Z"/><path class="cls-53" d="M448.39,340.57v.11c-5.1.54-59.89,6.54-74.78,17.65-15.61,11.65-43.37,23.86-43.37,23.86v14.98h237.27v-14.98s-27.76-12.21-43.37-23.86c-14.89-11.11-69.68-17.11-74.78-17.65v-.11l-.48.05-.48-.05h0Z"/><path id="A" class="cls-40" d="M420.84,278.54l8.16,16.77,1.86-.91,14.57,26.74.12-4.53-13.82-23.64.65-.49-.93-1.02-.45.25v-.02s-.95-.11-1.06.23l-9.09-13.37Z"/><path id="B" class="cls-20" d="M420.84,278.54l8.16,16.77,1.86-.91-.98-2.57-9.04-13.29ZM437.36,302.6c-.47.17-1.18.44-1.64.72l2.01,3.69c.33-.24.98-.65,1.63-.73.04,0,.09-.02.12-.05l-2.12-3.64Z"/><path id="C" class="cls-3" d="M431.44,291.45l-.42.23.72,1.27.63-.48-.93-1.02Z"/><path id="A-2" class="cls-23" d="M420.84,278.54l8.16,16.77,1.86-.91,14.57,26.74.12-4.53-13.82-23.64.65-.49-.93-1.02-.45.25v-.02s-.95-.11-1.06.23l-9.09-13.37Z"/><path id="A-3" class="cls-40" d="M426.13,272.23l6.4,17.47,1.95-.72,11.76,28.01.58-4.5-11.33-24.86.69-.42-.82-1.1-.48.21v-.03s-.93-.2-1.08.12l-7.68-14.18Z"/><path id="D" class="cls-20" d="M426.13,272.23l6.4,17.47,1.95-.72-.72-2.65-7.64-14.1Z"/><path id="C-2" class="cls-3" d="M435.37,286.1l-.44.19.59,1.33.68-.42-.82-1.1Z"/><path id="A-4" class="cls-23" d="M426.13,272.23l6.4,17.47,1.95-.72,11.76,28.01.58-4.5-11.33-24.86.69-.42-.82-1.1-.48.21v-.03s-.93-.2-1.08.12l-7.68-14.18Z"/><path id="E" class="cls-20" d="M426.16,272.21l6.4,17.47,1.95-.72-.71-2.65-7.63-14.1Z"/><path id="F" class="cls-3" d="M435.38,286.08l-.44.19.59,1.33.68-.42-.82-1.1Z"/><path id="G" class="cls-20" d="M438.35,293.84c-.56.15-1.07.49-1.45.82l1.55,3.69c.46-.28,1.08-.53,1.63-.73l-1.72-3.78Z"/><path id="H" class="cls-23" d="M426.16,272.21l6.4,17.47,1.95-.72,11.75,28.02.58-4.5-11.32-24.86.7-.42-.82-1.11-.48.21v-.03s-.93-.2-1.08.12l-7.67-14.18Z"/><path id="A-5" class="cls-40" d="M433.17,270.07l5.07,17.88,2-.58,9.62,28.77.92-4.44-9.43-25.6.72-.37-.74-1.16-.49.17v-.03s-.91-.27-1.08.05l-6.59-14.69Z"/><path id="D-2" class="cls-20" d="M433.17,270.07l5.07,17.88,2-.58-.51-2.69-6.55-14.61Z"/><path id="C-3" class="cls-3" d="M441.33,284.57l-.46.16.48,1.37.71-.37-.74-1.16Z"/><path id="A-6" class="cls-23" d="M433.17,270.07l5.07,17.88,2-.58,9.62,28.77.92-4.44-9.43-25.6.72-.37-.74-1.16-.49.17v-.03s-.91-.27-1.08.05l-6.59-14.69Z"/><path id="E-2" class="cls-20" d="M433.19,270.05l5.06,17.88,2-.58-.51-2.69-6.55-14.61Z"/><path id="F-2" class="cls-3" d="M441.35,284.55l-.46.16.48,1.37.71-.37-.74-1.16Z"/><path id="G-2" class="cls-20" d="M443.72,292.5c-.57.11-1.1.42-1.51.72l1.27,3.79c.48-.24,1.11-.45,1.68-.61l-1.43-3.89Z"/><path id="H-2" class="cls-23" d="M433.19,270.05l5.06,17.88,2-.58,9.61,28.78.92-4.44-9.42-25.6.73-.37-.74-1.16-.49.17v-.03s-.91-.27-1.08.05l-6.58-14.69Z"/><path class="cls-51" d="M416.7,329.83l1.72,16.57,21.64-1.4-23.36-15.17Z"/><path class="cls-52" d="M374.91,311.5s1.57,26.4,9.84,39.67l33.72-4.85-.92-16.07-42.64-28.19v9.44Z"/><path id="I" class="cls-10" d="M406.47,270.96c2.01.86,3.83.17,3.83.17,0,0,.89,1.12-1.5,1.25,0,0-.95.09-.31,1.12"/><path id="J" class="cls-17" d="M403.64,268.96s3.61-2.86,5.89-2.69c2.28.17,2.39.13,2.59.52s.6,2.17-.42,3.49-1.44.99-1.62.71-1.62-1.1-4.34-.49"/><path id="K" class="cls-21" d="M409.31,266.26c.07,0,.14,0,.22,0,2.28.17,2.39.13,2.59.52.14.27.37,1.2.17,2.18-.34-.32-1.04-.62-2.49-.54-2.88.15-4.56,1.29-4.56,1.29l-.28.2-1.31-.95s3.39-2.68,5.67-2.7h0Z"/><path class="cls-51" d="M445.92,334.72l-25.79-22.88c-5.76,2.46-5.31,6.93-1.33,12.55l-.12,5.63,21.09,14.31,5.78-1.41.24-5.16.12-3.05ZM445.14,319.99l-15.81-19.83-4,8.63,1.25,8.15,18.87,17.27-.31-14.23Z"/><path id="L" class="cls-52" d="M429.05,300.49s-3.19,7.11-2.69,16.28l-19.25-17.44-9.19-8.08.19.12,1.19-5.59.56-3.16,1.5.36v-1.82l.25-1.58,1.31-2.49,1.06-2.67.25-2.25-.5-2.67.69.3,24.63,30.68Z"/><path id="M" class="cls-10" d="M372.05,301.83s-1.88,1.82-2.13,5.95l-.19,6.99s3.06,1.76,5.94,1.03c0,0-.5-1.21-.56-2.92-.06-1.7.06-10.51.06-10.51l-3.13-.55Z"/><path id="N" class="cls-22" d="M373.8,302.38l1.37.09-.06,10.42c.06,1.7.56,2.92.56,2.92-1.05.27-2.13.2-3.07,0l-.3-8.03c.06-2.73,1.5-5.41,1.5-5.41h0Z"/><path id="O" class="cls-50" d="M349.48,377.05c-.58-1.45-2.13-1.79-2.13-1.79,0,0-.11-.11.34-1.17.46-1.06.23-1.85.23-1.85-.17-5.65.4-7.16.4-7.16-.4,0-2.24,2.13-2.24,2.13.06-5.37,8.23-7.89,8.23-7.89-2.99,7.38-1.84,8.22-1.84,8.22-1.9-.78-2.13-2.01-2.13-2.01-.34,2.01-.06,5.93-.06,5.93,0,0-.11,1.85,1.67.95,1.78-.89,8.97-4.25,8.97-4.25l.75,1.45-9.9,4.47s-1.44.61-1.04,1.68.63,1.23.63,1.23l-1.9.05Z"/><path id="P" class="cls-43" d="M350.29,371.46s-.29-3.92.06-5.93c0,0,.23,1.23,2.13,2.01,0,0-1.15-.84,1.84-8.22,0,0-8.17,2.52-8.23,7.89,0,0,1.84-2.13,2.24-2.13,0,0-.58,1.51-.4,7.16"/><path id="Q" class="cls-44" d="M349.48,377.05c-.58-1.45-2.13-1.79-2.13-1.79,0,0-.11-.11.34-1.17.46-1.06.23-1.85.23-1.85-.17-5.65.4-7.16.4-7.16-.4,0-2.24,2.13-2.24,2.13.06-5.37,8.23-7.89,8.23-7.89-2.99,7.38-1.84,8.22-1.84,8.22-1.9-.78-2.13-2.01-2.13-2.01-.34,2.01-.06,5.93-.06,5.93,0,0-.11,1.85,1.67.95,1.78-.89,8.97-4.25,8.97-4.25l.75,1.45-9.9,4.47s-1.44.61-1.04,1.68.63,1.23.63,1.23"/><path id="R" class="cls-19" d="M364.56,366.19c.38,0,.75.12,1.06.34.19.14.35.36.4.64s-.01.61-.2.99c-.39.79-1.16,1.08-1.8,1.16s-1.17-.02-1.17-.02l.1-.46s.47.09,1.01.02,1.12-.28,1.42-.9c.16-.32.19-.55.16-.7s-.1-.26-.22-.34c-.23-.17-.64-.24-.76-.24-.2,0-.37-.03-.7.13s-.79.52-1.41,1.34l-.39-.28c.65-.86,1.16-1.28,1.58-1.48s.77-.18.91-.18h0Z"/><path id="S" class="cls-19" d="M363.81,371.24s-.23-3.69-2.65-4.98c0,0-.58.06-.63.5s2.24,4.36,2.24,4.36l1.03.11Z"/><path id="T" class="cls-27" d="M363.54,370.82s-.19-3.08-2.21-4.15c0,0-.48.05-.53.42s1.87,3.63,1.87,3.63l.86.09Z"/><ellipse class="cls-19" cx="385.67" cy="361.81" rx="2.58" ry="2.51"/><path id="U" class="cls-51" d="M352.46,335.66s-4.36.24-4.31,2.34c.05,2.09.7,4.14-.75,4.53s-4.46.39-5.21,1.17-.75,1.66-.75,1.66c0,0,3.76-1.31,5.41-.39s3.38-.53,3.65-1.02c.6-1.07.25-3.16,1.4-3.55,1.15-.39,4.81-.44,4.81-.44l-4.25-4.28Z"/><path class="cls-52" d="M384.3,306.9c-.68-11.43,1.36-24.85,1.36-24.85l.17-1.99,35.22,32.8s-2.39,3.48-2.03,17.39l-2.73-1.82-31.99-21.53Z"/><path class="cls-3" d="M384.07,306.85c-.68-11.42,1.36-24.83,1.36-24.83l.17-1.99"/><path id="V" class="cls-18" d="M393.5,255.14l4.72,10.69s1.37-1.35,2.48.05l1.11,1.4M393.51,255.13l9.11,7.55s-1.74.87-.69,2.32l1.05,1.44-1.18.84"/><path id="W" class="cls-18" d="M405.42,264.17l-6.48,4.61,1.7,2.26,6.48-4.61-1.7-2.26Z"/><path id="X" class="cls-19" d="M405.28,264.86l-5.61,3.99,1.12,1.49,5.61-3.99-1.12-1.49Z"/><path id="V-2" class="cls-18" d="M372.6,268.36l6.4,9.83s1.13-1.55,2.46-.33l1.32,1.21M372.61,268.35l10.22,6.06s-1.57,1.13-.3,2.4l1.27,1.26-1.03,1.01"/><path id="W-2" class="cls-34" d="M385.84,275.44l-5.65,5.55,2.05,1.97,5.65-5.55-2.05-1.97Z"/><path id="X-2" class="cls-33" d="M385.81,276.14l-4.89,4.8,1.35,1.3,4.89-4.8-1.35-1.3Z"/><path id="V-3" class="cls-18" d="M358.9,290.78l8.04,8.62s.84-1.71,2.36-.74l1.52.97M358.91,290.77l11.14,4.26s-1.35,1.37.13,2.41l1.47,1.03-.83,1.17"/><path id="W-3" class="cls-18" d="M373.2,295.54l-4.58,6.41,2.37,1.6,4.58-6.41-2.37-1.6Z"/><path id="X-3" class="cls-19" d="M373.3,296.24l-3.97,5.55,1.56,1.05,3.97-5.55-1.56-1.05Z"/><path class="cls-18" d="M404.14,268.46l40.93,50.54-.26.78-41.31-50.84.64-.49ZM386.46,280.82l59.19,53.38-.55.58-59.19-53.38.55-.58ZM376.93,302.19l63.01,41.93-.46.65-63.01-41.93.46-.65Z"/><path id="Y" class="cls-9" d="M383.68,281.52s5.94-1.1,7.39-.25-2.53.9-3.31.65l1.5,1.46s3.41-.8,3.98-3.92c.57-3.11-1.7-3.11-2.22-3.06s-3.51.5-7.33,5.12h0Z"/><path id="Z" class="cls-22" d="M392.21,278.25c.65.19,1.14.63.98,1.46,0,0-.26.95-.52,1.46-.02-.03-.05-.06-.08-.09-.2.3-.42.56-.66.79l-.58-.19c.07-.11,0-.25-.29-.42-.2-.11-.41-.18-.63-.21-1.08-.4-2.69.01-3.03-.04l-1.81.1s5.38-3.23,6.62-2.87h0Z"/><path id="AE" class="cls-44" d="M386.06,280.92s6.62-1.92,6.62-.07"/><path id="Y-2" class="cls-43" d="M383.68,281.52s5.94-1.1,7.39-.25-2.53.9-3.31.65l1.5,1.46s3.41-.8,3.98-3.92c.57-3.11-1.7-3.11-2.22-3.06s-3.51.5-7.33,5.12h0Z"/><path id="a" class="cls-21" d="M384.45,281.47c.15.73.33,1.68.24,2.1-1.93,4.8-4.56,4.91-3.53,10.75l-2.04-.06c-.22-2.71.22-5.27.73-6.41.26-.57.82-1.25,1.45-1.91.62-.66,1.3-1.3,1.78-1.8.95-1,.29-2.28.29-2.28l1.08-.39Z"/><path id="b" class="cls-7" d="M385.72,281.01s.36.92.36,2.21c0,.64-.09,1.38-.36,2.14s-.5,1.51-.68,2.35c-.38,1.67-.59,3.66-.64,6.7l-3.24-.09c-1.03-5.84,1.6-5.94,3.53-10.75.09-.43-.08-1.38-.24-2.1l1.26-.46Z"/><path id="c" class="cls-43" d="M383.37,281.87s.66,1.28-.29,2.28l-1.78,1.8c-.62.66-1.19,1.34-1.45,1.91-.51,1.14-.95,3.71-.73,6.41M379.12,294.27l5.28.14c.05-3.04.26-5.04.64-6.7.18-.79.41-1.58.68-2.35.24-.69.36-1.41.36-2.14,0-1.29-.36-2.21-.36-2.21l-2.35.86"/><path class="cls-44" d="M382.71,294.34s-.73-3.21.95-6.06c1.7-2.91,2.21-7.35,1.32-7.06"/><path id="d" class="cls-5" d="M388.61,340.89l4.56,7.76,18.01,1.3,1.7.22s2.63,6.03,5.55,6.83,22.46,6.73,22.46,6.73l.6-4.34-12.66-3.97s-3.72-1.33-4.82-2.74-10.32-9.98-10.32-9.98l-25.09-1.81Z"/><path id="AF" class="cls-18" d="M396.69,321.12l26.18,42.42-.56.32-26.18-42.42.56-.32Z"/><path id="e" class="cls-15" d="M397.21,322.83s-.74.68-1.66-.41-3.6-5.58-4.11-6.4c-.51-.82-1.17-1.5-.3-2.04s2.09.14,3.1,2.18,4.3,5.58,2.98,6.67h0Z"/><path id="f" class="cls-19" d="M374.38,328.83c-.98-.13-2.64,1.73-3.09,4.97s-.01,5.96.97,6.09c.36.04.76-.27,1.14-.9l52.26,6.87,1.09-9.61-51.84-6.02c-.17-1.24-.03-1.32-.52-1.39h0Z"/><path id="g" class="cls-28" d="M424.68,336.05s-.3.48-.42.79M423.55,335.92s-.3.48-.42.79M422.42,335.79s-.3.48-.42.79M421.29,335.66s-.3.48-.42.79M420.16,335.53s-.3.48-.42.79M419.03,335.4s-.3.48-.42.79M417.9,335.27s-.3.48-.42.79M416.77,335.14s-.3.48-.42.79M415.64,335.01s-.3.48-.42.79M414.51,334.88s-.3.48-.42.79M413.38,334.75s-.3.48-.42.79M412.24,334.62s-.3.48-.42.79M411.11,334.49s-.3.48-.42.79M409.98,334.36s-.3.48-.42.79M408.85,334.23s-.3.48-.42.79M407.72,334.1s-.3.48-.42.79M406.59,333.97s-.3.48-.42.79M405.46,333.84s-.3.48-.42.79M404.33,333.71s-.3.48-.42.79M403.2,333.58s-.3.48-.42.79M402.07,333.45s-.3.48-.42.79M400.94,333.33s-.3.48-.42.79M399.81,333.2s-.3.48-.42.79M398.68,333.07s-.3.48-.42.79M397.55,332.94s-.3.48-.42.79M396.42,332.81s-.3.48-.42.79M395.29,332.68s-.3.48-.42.79M394.16,332.55s-.3.48-.42.79M393.03,332.42s-.3.48-.42.79M391.9,332.29s-.3.48-.42.79M390.77,332.16s-.3.48-.42.79M389.64,332.03s-.3.48-.42.79M388.5,331.9s-.3.48-.42.79M387.37,331.77s-.3.48-.42.79M386.24,331.64s-.3.48-.42.79M385.11,331.51s-.3.48-.42.79M383.98,331.38s-.3.48-.42.79M382.85,331.25s-.3.48-.42.79M381.72,331.12s-.3.48-.42.79M380.59,330.99s-.3.48-.42.79M379.46,330.86s-.3.48-.42.79M378.33,330.73s-.3.48-.42.79M377.2,330.6s-.3.48-.42.79M376.07,330.47s-.3.48-.42.79M374.94,330.34s-.3.48-.42.79"/><path id="AG" class="cls-3" d="M373.12,333.38l52.92,6.95M372.96,334.54l52.92,6.95M372.8,335.7l52.92,6.95M372.72,336.28l52.92,6.95M372.64,336.85l52.92,6.95M372.56,337.43l52.92,6.95M372.48,338.01l52.92,6.95M372.41,338.59l52.92,6.95"/><path id="h" class="cls-19" d="M382.25,330.25c-.92-.06-1.83,2.28-2.04,5.23,0,0,0,0,0,0-.21,2.95.37,5.39,1.29,5.44,0,0,0,0,0,0,.17,0,.35-.07.52-.23-.6-.81-.9-2.84-.74-5.08.16-2.32.78-4.35,1.52-5.01-.17-.23-.35-.35-.55-.37h0Z"/><path id="h-2" class="cls-19" d="M419.26,335.12c-.92-.06-1.83,2.28-2.04,5.23,0,0,0,0,0,0-.21,2.95.37,5.39,1.29,5.44,0,0,0,0,0,0,.17,0,.35-.07.52-.23-.6-.81-.9-2.84-.74-5.08.16-2.32.78-4.35,1.52-5.01-.17-.23-.35-.35-.55-.37h0Z"/><path id="i" class="cls-19" d="M427.01,339.42l2.95-.19s1.81.61,1.92,1.36.18,1.87.03,2.16-3.59.9-4.8-.16l-.11-3.18Z"/><path id="j" class="cls-54" d="M431.89,340.59c-1.18.28-3.26.17-4.84.02l.07,1.99c1.21,1.05,4.65.45,4.8.16s.09-1.41-.03-2.16h0Z"/><path id="k" class="cls-19" d="M426.46,335.98c-.12,0-.24.06-.36.21.25,1.04.33,2.77.2,4.62-.15,2.12-.55,4.03-1.02,4.89.14.39.3.6.49.61.31.03.64-.49.92-1.44.28-.95.49-2.25.58-3.62.09-1.37.06-2.69-.09-3.68-.15-.99-.41-1.56-.71-1.58h0Z"/><path id="l" class="cls-19" d="M396.78,335.85v.03c.6.13,1.04.65,1.04,1.27v8.69l-6.32-6.14c-.44-.43-.52-1.1-.19-1.61l-.03-.02-2.74,2.66h.01c.53-.41,1.3-.37,1.78.1l6.43,6.25h-9.15c-.63,0-1.17-.42-1.3-1.01h-.04v3.76h.02c.07-.66.64-1.16,1.33-1.16h9.09l-6.47,6.29c-.44.43-1.13.51-1.66.18l-.02.02,2.74,2.66h.01c-.43-.53-.39-1.27.1-1.74l6.43-6.25v8.9c0,.62-.44,1.14-1.04,1.27v.03h3.87c-.68-.08-1.19-.64-1.19-1.3v-9.04l6.58,6.39c.49.47.52,1.22.1,1.73h.01s2.74-2.65,2.74-2.65l-.03-.02c-.53.32-1.22.25-1.66-.18l-6.47-6.29h9.09c.69,0,1.25.51,1.33,1.16h.02v-3.76h-.04c-.14.59-.68,1.01-1.3,1.01h-9.15l6.43-6.25c.48-.47,1.25-.51,1.78-.09h.01s-2.74-2.67-2.74-2.67l-.02.02c.33.51.26,1.18-.19,1.61l-6.47,6.29v-8.84c0-.67.52-1.22,1.19-1.29h0s-3.87-.01-3.87-.01Z"/><ellipse class="cls-19" cx="398.64" cy="348.06" rx="2.47" ry="2.4"/><path id="m" class="cls-19" d="M398.64,332.08c-9.01,0-16.31,7.1-16.31,15.86s7.3,15.86,16.31,15.86,16.31-7.1,16.31-15.86-7.3-15.86-16.31-15.86ZM398.64,336.12c6.72,0,12.16,5.29,12.16,11.82s-5.44,11.82-12.16,11.82-12.16-5.29-12.16-11.82,5.44-11.82,12.16-11.82Z"/><ellipse class="cls-54" cx="398.64" cy="334.04" rx=".52" ry=".51"/><ellipse class="cls-54" cx="398.64" cy="361.7" rx=".52" ry=".51"/><ellipse class="cls-54" cx="408.7" cy="338.09" rx=".52" ry=".51"/><ellipse class="cls-54" cx="388.59" cy="357.65" rx=".52" ry=".51"/><ellipse class="cls-54" cx="388.59" cy="338.09" rx=".52" ry=".51"/><ellipse class="cls-54" cx="408.71" cy="357.65" rx=".52" ry=".51"/><ellipse class="cls-54" cx="385.46" cy="353.06" rx=".52" ry=".51"/><ellipse class="cls-54" cx="411.83" cy="342.67" rx=".52" ry=".51"/><ellipse class="cls-54" cx="411.7" cy="353.36" rx=".52" ry=".51"/><ellipse class="cls-54" cx="385.59" cy="342.38" rx=".52" ry=".51"/><ellipse class="cls-54" cx="404.2" cy="335.14" rx=".52" ry=".51"/><ellipse class="cls-54" cx="393.09" cy="360.6" rx=".52" ry=".51"/><ellipse class="cls-54" cx="393.09" cy="335.14" rx=".52" ry=".51"/><ellipse class="cls-54" cx="404.24" cy="360.59" rx=".52" ry=".51"/><ellipse class="cls-19" cx="379.62" cy="361.9" rx="2.58" ry="2.51"/><path id="n" class="cls-20" d="M443.3,328.5s-6.36,2.66-6.9-1.92c0,0-3.84,4.69,1.42,7.67,0,0-2.41-3.73,5.48-4.16,0,0,1.1.11.99-.75s-.99-.85-.99-.85h0Z"/><path id="o" class="cls-54" d="M444.29,329.5c-.9.08-2.95.3-6.14.92-1.42.28-2.41.1-3.1-.25,0,1.35.62,2.86,2.77,4.09,0,0-2.41-3.73,5.48-4.16,0,0,.96.09.99-.6h0Z"/><path id="AH" class="cls-20" d="M440.5,328.46l-.53.08,2.19,14.28.53-.08-2.19-14.28Z"/><path id="AI" class="cls-20" d="M440.71,328.43l-.96.14.44,2.88.96-.14-.44-2.88Z"/><ellipse class="cls-20" cx="427.88" cy="366.48" rx="3.86" ry="1.77"/><path id="p" class="cls-19" d="M428.23,345.54c-.36-.02-.7.04-.8.25-.19.42.38.51.38.51v2.35c0,.74-.62,11.86-.9,14.03-.08.67-.25,1.32-.51,1.95,0,0-2.72.32-2.58,1.52.14,1.2,1.61,1.99,4.08,1.94,3.04-.07,3.89-.69,4.03-1.43s-.71-1.43-1.99-1.66l-.66-3.69s.14.55,1.9.18,1.71-2.95,1.71-2.95l-.05-9.18c-.1-1.43-.9-2.12-2.04-2.54-.9-.14-1.52.05-1.61.55s-.33.65-.47.46,0-1.57,0-1.57c0,0,.66-.32.38-.51-.14-.09-.51-.18-.87-.2h0ZM430.52,348.19l.62.32.19,1.66v8.4l-.1.55-.81.65-.9-.18-.47-.55-.33-7.52-.1-2.4,1.14-.74.76-.18Z"/><path id="q" class="cls-44" d="M430.19,365.86s-1.04-2.58-1.28-9.37v-7.66c.33-.32,1.28-.88,1.85-.55s.43.42.52,1.57.1,8.63.1,8.63c0,0-.29,1.25-1,1.2s-1.23-.32-1.33-.83"/><path id="AJ" class="cls-44" d="M425.63,366s1-1.15,1.28-3.32c.29-2.17.9-13.29.9-14.03v-2.35"/><path id="r" class="cls-6" d="M414.15,357.94s3.48.1,4.61,2.19.51,4.09-.82,4.88-4.2,1.4-5.54.6c-1.33-.8-2.25-3.39-.72-3.69s4.1-.8,3.79-1.79-1.64-1-1.64-1l.31-1.2Z"/><path class="cls-20" d="M414.72,357.77l-.64-.1-.51,2.2.64.1.51-2.2Z"/><path id="AK" class="cls-15" d="M365.17,347.04l14.72,7.45-.08.15-1.04.18-13.98-7.08.38-.7Z"/><path id="AL" class="cls-15" d="M364.73,347.4l8.29,14.28-1.34-.71-7.66-13.18.71-.39Z"/><path id="s" class="cls-54" d="M350.55,333.51c.11,0,.21.05.28.12l13.97,13.48c.16.15.16.4,0,.56-.16.15-.41.15-.57,0l-13.73-13.25v-.9s.03,0,.05,0Z"/><path id="t" class="cls-15" d="M362.53,345.1c.1,0,.2.05.28.12l13.87,13.39-1.21-.06-13.22-12.76c-.16-.15-.17-.4-.01-.56.08-.08.19-.12.3-.12h0Z"/><ellipse class="cls-19" cx="415.07" cy="371.87" rx="2.58" ry="2.51"/><ellipse class="cls-19" cx="408.91" cy="366.84" rx="2.58" ry="2.51"/><ellipse class="cls-19" cx="399.42" cy="367.44" rx="2.58" ry="2.51"/><ellipse class="cls-19" cx="392.21" cy="371.28" rx="2.58" ry="2.51"/><ellipse class="cls-19" cx="385.92" cy="371.28" rx="2.58" ry="2.51"/><ellipse class="cls-19" cx="379.63" cy="371.28" rx="2.58" ry="2.51"/><ellipse class="cls-19" cx="373.35" cy="371.28" rx="2.58" ry="2.51"/><ellipse class="cls-19" cx="389" cy="366.61" rx="2.58" ry="2.51"/><ellipse class="cls-19" cx="382.72" cy="366.61" rx="2.58" ry="2.51"/><ellipse class="cls-19" cx="376.43" cy="366.61" rx="2.58" ry="2.51"/><path id="u" class="cls-17" d="M402.33,270.16s.2,1.97-1.52,3.15-3.75,2.47-4.56,5.82-.2,2.96-.2,2.96l5.38.89s-.61-2.37.71-4.24,3.24-7.3,1.42-9.47l-1.22.89Z"/><path id="v" class="cls-21" d="M402.5,270.04c.32.76.88,2.57-.37,3.87-1.62,1.68-3.14,2.47-3.75,4.73-.32,1.22-.57,2.46-.75,3.71l-1.58-.26s-.61.4.2-2.96,2.84-4.63,4.56-5.82c1.72-1.18,1.52-3.15,1.52-3.15l.17-.13Z"/><path id="AM" class="cls-44" d="M403.14,269.17s1.01,2.27-.1,4.54-2.23,3.35-2.84,4.83,0,2.86-.71,3.94"/><path id="w" class="cls-20" d="M361.08,368.8c.12.02.2.12.18.24-.02.11-.13.19-.25.18,0,0,0,0,0,0,0,0-3.67-.56-6.4,2.14-.08.09-.21.1-.3.03-.09-.07-.1-.21-.03-.3,0,0,.01-.02.02-.02,2.89-2.86,6.78-2.27,6.78-2.27h0Z"/><path id="x" class="cls-20" d="M354.67,372.84s0,.56-.46,1.1c-.47.54-1.41,1.06-3.2,1.11v-.42c1.7-.05,2.49-.53,2.87-.96s.36-.82.36-.82h.43Z"/><path id="y" class="cls-50" d="M349.48,377.05c-.58-1.45-2.13-1.79-2.13-1.79,0,0-.11-.11.34-1.17.46-1.06.23-1.85.23-1.85-.17-5.65.4-7.16.4-7.16-.4,0-2.24,2.13-2.24,2.13.06-5.37,8.23-7.89,8.23-7.89-2.99,7.38-1.84,8.22-1.84,8.22-1.9-.78-2.13-2.01-2.13-2.01-.34,2.01-.06,5.93-.06,5.93,0,0-.11,1.85,1.67.95.95-.48,5.58-2.66,5.58-2.66l.44,1.54-6.19,2.8s-1.44.61-1.04,1.68c.4,1.06.63,1.23.63,1.23l-1.9.05Z"/><path id="z" class="cls-54" d="M360.07,368.75l-.22.43-.32.02.22-.43h.33s0-.01,0-.01ZM358.97,368.84l-.15.44-.31.06.15-.45.32-.05ZM357.79,369.07l-.07.46-.3.1.07-.46.3-.09ZM356.61,369.49l.02.46-.28.14-.02-.46.28-.14h0ZM355.52,370.08l.1.44-.25.18-.1-.45s.25-.17.25-.17Z"/><path id="AA" class="cls-54" d="M353.97,373.54l.21.42c-.07.07-.14.14-.22.21l-.19-.4.11-.11s.07-.08.1-.13h0ZM353.38,374.06l.06.46c-.09.05-.18.09-.27.13l-.05-.44c.09-.04.18-.09.27-.14ZM352.7,374.37l-.09.46-.3.07.08-.45.31-.09ZM352.09,374.52l-.2.45-.33.04.2-.45.33-.05h0Z"/><path id="AB" class="cls-16" d="M375.3,297.27s3.25-1.52,4-.24c.75,1.28,1.06,3.83,0,5.35,0,0-4.63.55-7-.24l-.31-.18,3.31-4.68Z"/><path id="AC" class="cls-22" d="M378.53,298.67c.52-.01,1.01.15,1.4.32.16,1.17.02,2.47-.62,3.39,0,0-4.1.48-6.56-.12,1.18-.36,3.23-2.26,4.62-3.22.34-.24.74-.36,1.16-.37h0Z"/><path id="AN" class="cls-44" d="M379.93,301.22s-1.56-1.03-4.06.06-2.5.91-2.5.91"/><path id="AB-2" class="cls-43" d="M375.3,297.27s3.25-1.52,4-.24c.75,1.28,1.06,3.83,0,5.35,0,0-4.63.55-7-.24l-.31-.18,3.31-4.68Z"/><path class="cls-44" d="M374.37,302.44s-.5,2.07-.62,6.38c-.12,4.31.81,7.23,1.19,7.17"/><path id="AD" class="cls-3" d="M372.05,301.83s-1.88,1.82-2.13,5.95l-.19,6.99s3.06,1.76,5.94,1.03c0,0-.5-1.21-.56-2.92-.06-1.7.06-10.51.06-10.51"/><path class="cls-43" d="M399.99,282.63s-1.5,6.02-1.69,8.81"/><path class="cls-44" d="M411.6,270.27s-1.53-2.02-6.04-.26"/><path class="cls-14" d="M445.61,262.31l.82-26.23,3.83-2,1.09,28.22h-5.74Z"/><path class="cls-42" d="M447.18,212.08s-.37,0-.99-.6-.99-.6-.49-1.44,1.11-1.92,3.21-1.8,3.7.24,4.44,2.4c.74,2.16.99,7.92.37,10.32-3.21-.12-8.01-2.64-8.75-4.32s2.22-4.56,2.22-4.56h0Z"/><path id="A-7" class="cls-40" d="M476.69,278.54l-8.15,16.77-1.86-.91-14.55,26.74-.12-4.53,13.8-23.64-.65-.49.93-1.02.45.25v-.02s.94-.11,1.06.23l9.08-13.37Z"/><path id="B-2" class="cls-20" d="M476.69,278.54l-8.15,16.77-1.86-.91.98-2.57,9.03-13.29ZM460.18,302.61c.47.17,1.18.44,1.63.72l-2.01,3.69c-.33-.24-.98-.65-1.63-.73-.04,0-.09-.02-.12-.05l2.12-3.64Z"/><path id="C-4" class="cls-3" d="M466.09,291.46l.42.23-.72,1.27-.63-.48.93-1.02Z"/><path id="A-8" class="cls-23" d="M476.69,278.54l-8.15,16.77-1.86-.91-14.55,26.74-.12-4.53,13.8-23.64-.65-.49.93-1.02.45.25v-.02s.94-.11,1.06.23l9.08-13.37Z"/><path id="A-9" class="cls-40" d="M471.39,272.23l-6.4,17.47-1.95-.72-11.75,28.01-.58-4.5,11.32-24.86-.69-.42.82-1.1.47.21v-.03s.93-.2,1.08.12l7.67-14.18Z"/><path id="D-3" class="cls-20" d="M471.39,272.23l-6.4,17.47-1.95-.72.71-2.65,7.63-14.1Z"/><path id="C-5" class="cls-3" d="M462.17,286.11l.44.19-.59,1.33-.68-.42.82-1.1Z"/><path id="A-10" class="cls-23" d="M471.39,272.23l-6.4,17.47-1.95-.72-11.75,28.01-.58-4.5,11.32-24.86-.69-.42.82-1.1.47.21v-.03s.93-.2,1.08.12l7.67-14.18Z"/><path id="E-3" class="cls-20" d="M471.37,272.21l-6.39,17.47-1.95-.72.71-2.65,7.62-14.1Z"/><path id="F-3" class="cls-3" d="M462.16,286.09l.44.19-.59,1.33-.68-.42.82-1.1Z"/><path id="G-3" class="cls-20" d="M459.19,293.85c.56.15,1.07.49,1.45.82l-1.55,3.69c-.46-.28-1.07-.53-1.62-.73l1.72-3.78Z"/><path id="H-3" class="cls-23" d="M471.37,272.21l-6.39,17.47-1.95-.72-11.74,28.02-.58-4.5,11.31-24.86-.69-.42.82-1.11.48.21v-.03s.93-.2,1.08.12l7.66-14.18Z"/><path id="A-11" class="cls-40" d="M464.37,270.08l-5.06,17.88-1.99-.58-9.61,28.77-.92-4.44,9.42-25.6-.72-.37.74-1.16.49.17v-.03s.91-.27,1.08.05l6.58-14.69Z"/><path id="D-4" class="cls-20" d="M464.37,270.08l-5.06,17.88-1.99-.58.51-2.69,6.55-14.61Z"/><path id="C-6" class="cls-3" d="M456.22,284.58l.45.16-.48,1.37-.71-.37.74-1.16Z"/><path id="A-12" class="cls-23" d="M464.37,270.08l-5.06,17.88-1.99-.58-9.61,28.77-.92-4.44,9.42-25.6-.72-.37.74-1.16.49.17v-.03s.91-.27,1.08.05l6.58-14.69Z"/><path id="E-4" class="cls-20" d="M464.34,270.06l-5.06,17.88-1.99-.58.51-2.69,6.54-14.61Z"/><path id="F-4" class="cls-3" d="M456.2,284.56l.45.16-.48,1.37-.71-.37.74-1.16Z"/><path id="G-4" class="cls-20" d="M453.83,292.51c.57.11,1.1.42,1.51.72l-1.26,3.79c-.48-.24-1.11-.45-1.68-.61l1.43-3.89Z"/><path id="H-4" class="cls-23" d="M464.34,270.06l-5.06,17.88-1.99-.58-9.6,28.78-.92-4.44,9.41-25.6-.72-.37.74-1.16.49.17v-.03s.91-.27,1.08.05l6.57-14.69Z"/><path class="cls-36" d="M451.49,212.97s-2.59.48-2.46,1.68"/><path class="cls-48" d="M450.26,210.28s-2.96.72-3.94,3.24"/><path class="cls-48" d="M448.91,210.64s-1.73,1.44-2.47.96"/><path class="cls-13" d="M446,214.11h-.17s-.34.1-.34.1c-.49.82-.83,1.73-.52,2.43.05.12.13.24.22.37l.27-.13s5.67-.48,8.14,3.72l.15.25c.24-.99.33-2.49.32-4.07-3.93-2.63-7.28-2.7-8.06-2.67h0Z"/><path class="cls-36" d="M452.6,214.29s-1.36.6-1.36,1.2"/><path class="cls-51" d="M479.73,330.32l-.39,16.08-21.64-1.4,22.03-14.68Z"/><path class="cls-52" d="M522.61,311.55s-1.57,26.42-9.84,39.7l-33.7-4.85.92-16.08,42.62-28.21v9.45Z"/><path id="I-2" class="cls-9" d="M491.28,270.96c-2.01.86-3.83.17-3.83.17,0,0-.89,1.12,1.5,1.25,0,0,.95.09.31,1.12"/><path id="J-2" class="cls-17" d="M494.12,268.96s-3.61-2.86-5.89-2.69c-2.28.17-2.39.13-2.59.52-.2.39-.6,2.17.42,3.49,1.02,1.31,1.44.99,1.62.71s1.62-1.1,4.34-.49"/><path id="K-2" class="cls-21" d="M488.45,266.26c-.07,0-.14,0-.22,0-2.28.17-2.39.13-2.59.52-.14.27-.37,1.2-.17,2.18.34-.32,1.04-.62,2.49-.54,2.88.15,4.56,1.29,4.56,1.29l.28.2,1.31-.95s-3.39-2.68-5.67-2.7h0Z"/><path class="cls-51" d="M451.83,334.72l25.79-22.88,3.81,8.6-2.37,9.58-21.09,14.31-5.78-1.41-.24-5.16-.12-3.05ZM452.62,319.99l15.81-19.83,4,8.63-1.25,8.15-18.87,17.27.31-14.23Z"/><path id="L-2" class="cls-52" d="M468.7,300.49s3.19,7.11,2.69,16.28l19.25-17.44,9.19-8.08-.19.12-1.19-5.59-.56-3.16-1.5.36v-1.82l-.25-1.58-1.31-2.49-1.06-2.67-.25-2.25.5-2.67-.69.3-24.63,30.68Z"/><path id="M-2" class="cls-9" d="M525.7,301.83s1.88,1.82,2.13,5.95l.19,6.99s-3.06,1.76-5.94,1.03c0,0,.5-1.21.56-2.92.06-1.7-.06-10.51-.06-10.51l3.13-.55Z"/><path id="N-2" class="cls-22" d="M523.95,302.38l-1.37.09.06,10.42c-.06,1.7-.56,2.92-.56,2.92,1.05.27,2.13.2,3.07,0l.3-8.03c-.06-2.73-1.5-5.41-1.5-5.41h0Z"/><path id="O-2" class="cls-50" d="M548.27,377.05c.58-1.45,2.13-1.79,2.13-1.79,0,0,.11-.11-.34-1.17-.46-1.06-.23-1.85-.23-1.85.17-5.65-.4-7.16-.4-7.16.4,0,2.24,2.13,2.24,2.13-.06-5.37-8.23-7.89-8.23-7.89,2.99,7.38,1.84,8.22,1.84,8.22,1.9-.78,2.13-2.01,2.13-2.01.34,2.01.06,5.93.06,5.93,0,0,.11,1.85-1.67.95s-8.97-4.25-8.97-4.25l-.75,1.45,9.9,4.47s1.44.61,1.04,1.68c-.4,1.06-.63,1.23-.63,1.23l1.9.05Z"/><path id="P-2" class="cls-43" d="M547.47,371.46s.29-3.92-.06-5.93c0,0-.23,1.23-2.13,2.01,0,0,1.15-.84-1.84-8.22,0,0,8.17,2.52,8.23,7.89,0,0-1.84-2.13-2.24-2.13,0,0,.58,1.51.4,7.16"/><path id="Q-2" class="cls-44" d="M548.27,377.05c.58-1.45,2.13-1.79,2.13-1.79,0,0,.11-.11-.34-1.17-.46-1.06-.23-1.85-.23-1.85.17-5.65-.4-7.16-.4-7.16.4,0,2.24,2.13,2.24,2.13-.06-5.37-8.23-7.89-8.23-7.89,2.99,7.38,1.84,8.22,1.84,8.22,1.9-.78,2.13-2.01,2.13-2.01.34,2.01.06,5.93.06,5.93,0,0,.11,1.85-1.67.95s-8.97-4.25-8.97-4.25l-.75,1.45,9.9,4.47s1.44.61,1.04,1.68c-.4,1.06-.63,1.23-.63,1.23"/><path id="R-2" class="cls-19" d="M533.2,366.19c-.38,0-.75.12-1.06.34-.19.14-.35.36-.4.64s.01.61.2.99c.39.79,1.16,1.08,1.8,1.16s1.17-.02,1.17-.02l-.1-.46s-.47.09-1.01.02-1.12-.28-1.42-.9c-.16-.32-.19-.55-.16-.7s.1-.26.22-.34c.23-.17.64-.24.76-.24.2,0,.37-.03.7.13s.79.52,1.41,1.34l.39-.28c-.65-.86-1.16-1.28-1.58-1.48s-.77-.18-.91-.18h0Z"/><path id="S-2" class="cls-19" d="M533.95,371.24s.23-3.69,2.65-4.98c0,0,.58.06.63.5s-2.24,4.36-2.24,4.36l-1.03.11Z"/><path id="T-2" class="cls-27" d="M534.22,370.82s.19-3.08,2.21-4.15c0,0,.48.05.53.42s-1.87,3.63-1.87,3.63l-.86.09Z"/><ellipse class="cls-19" cx="512.08" cy="361.81" rx="2.58" ry="2.51"/><path id="U-2" class="cls-51" d="M545.29,335.66s4.36.24,4.31,2.34-.7,4.14.75,4.53,4.46.39,5.21,1.17.75,1.66.75,1.66c0,0-3.76-1.31-5.41-.39s-3.38-.53-3.65-1.02c-.6-1.07-.25-3.16-1.4-3.55-1.15-.39-4.81-.44-4.81-.44l4.25-4.28Z"/><path class="cls-52" d="M513.46,306.9c.68-11.43-1.36-24.85-1.36-24.85l-.17-1.99-35.22,32.8s2.55-2.65,1.7,10.93l3.06,4.64,31.99-21.53Z"/><path class="cls-3" d="M513.46,306.9c.68-11.43-1.36-24.85-1.36-24.85l-.17-1.99"/><path id="V-4" class="cls-18" d="M504.26,255.14l-4.72,10.69s-1.37-1.35-2.48.05l-1.11,1.4M504.24,255.13l-9.11,7.55s1.74.87.69,2.32l-1.05,1.44,1.18.84"/><path id="W-4" class="cls-18" d="M492.34,264.17l6.48,4.61-1.7,2.26-6.48-4.61,1.7-2.26Z"/><path id="X-4" class="cls-19" d="M492.48,264.86l5.61,3.99-1.12,1.49-5.61-3.99,1.12-1.49Z"/><path id="V-5" class="cls-18" d="M525.16,268.36l-6.4,9.83s-1.13-1.55-2.46-.33l-1.32,1.21M525.14,268.35l-10.22,6.06s1.57,1.13.3,2.4l-1.27,1.26,1.03,1.01"/><path id="W-5" class="cls-34" d="M511.92,275.44l5.65,5.55-2.05,1.97-5.65-5.55,2.05-1.97Z"/><path id="X-5" class="cls-33" d="M511.94,276.14l4.89,4.8-1.35,1.3-4.89-4.8,1.35-1.3Z"/><path id="V-6" class="cls-18" d="M538.85,290.78l-8.04,8.62s-.84-1.71-2.36-.74l-1.52.97M538.84,290.77l-11.14,4.26s1.35,1.37-.13,2.41l-1.47,1.03.83,1.17"/><path id="W-6" class="cls-18" d="M524.56,295.54l4.58,6.41-2.37,1.6-4.58-6.41,2.37-1.6Z"/><path id="X-6" class="cls-19" d="M524.46,296.24l3.97,5.55-1.56,1.05-3.97-5.55,1.56-1.05Z"/><path class="cls-18" d="M493.62,268.46l-40.93,50.54.21.88,41.36-50.93-.64-.49ZM511.29,280.82l-59.19,53.38.55.58,59.19-53.38-.55-.58ZM520.82,302.19l-63.01,41.93.46.65,63.01-41.93-.46-.65Z"/><path id="Y-3" class="cls-9" d="M514.07,281.52s-5.94-1.1-7.39-.25c-1.45.85,2.53.9,3.31.65l-1.5,1.46s-3.41-.8-3.98-3.92c-.57-3.11,1.7-3.11,2.22-3.06s3.51.5,7.33,5.12h0Z"/><path id="Z-2" class="cls-22" d="M505.55,278.25c-.65.19-1.14.63-.98,1.46,0,0,.26.95.52,1.46.02-.03.05-.06.08-.09.2.3.42.56.66.79l.58-.19c-.07-.11,0-.25.29-.42.2-.11.41-.18.63-.21,1.08-.4,2.69.01,3.03-.04l1.81.1s-5.38-3.23-6.62-2.87h0Z"/><path id="AE-2" class="cls-44" d="M511.69,280.92s-6.62-1.92-6.62-.07"/><path id="Y-4" class="cls-43" d="M514.07,281.52s-5.94-1.1-7.39-.25c-1.45.85,2.53.9,3.31.65l-1.5,1.46s-3.41-.8-3.98-3.92c-.57-3.11,1.7-3.11,2.22-3.06s3.51.5,7.33,5.12h0Z"/><path id="a-2" class="cls-21" d="M513.3,281.47c-.15.73-.33,1.68-.24,2.1,1.93,4.8,4.56,4.91,3.53,10.75l2.04-.06c.22-2.71-.22-5.27-.73-6.41-.26-.57-.82-1.25-1.45-1.91s-1.3-1.3-1.78-1.8c-.95-1-.29-2.28-.29-2.28l-1.08-.39Z"/><path id="b-2" class="cls-7" d="M512.04,281.01s-.36.92-.36,2.21c0,.64.09,1.38.36,2.14s.5,1.51.68,2.35c.38,1.67.59,3.66.64,6.7l3.24-.09c1.03-5.84-1.6-5.94-3.53-10.75-.09-.43.08-1.38.24-2.1l-1.26-.46Z"/><path id="c-2" class="cls-43" d="M514.38,281.87s-.66,1.28.29,2.28l1.78,1.8c.62.66,1.19,1.34,1.45,1.91.51,1.14.95,3.71.73,6.41M518.63,294.27l-5.28.14c-.05-3.04-.26-5.04-.64-6.7-.18-.79-.41-1.58-.68-2.35-.24-.69-.36-1.41-.36-2.14,0-1.29.36-2.21.36-2.21l2.35.86"/><path class="cls-44" d="M514.81,294.36s.73-3.21-.95-6.06c-1.7-2.92-2.2-7.35-1.32-7.06"/><path id="d-2" class="cls-5" d="M509.14,340.89l-4.56,7.76-18.01,1.3-1.7.22s-2.63,6.03-5.55,6.83c-2.92.8-22.46,6.73-22.46,6.73l-.6-4.34,12.66-3.97s3.72-1.33,4.82-2.74c1.1-1.41,10.32-9.98,10.32-9.98l25.09-1.81Z"/><path id="AF-2" class="cls-18" d="M501.07,321.12l-26.18,42.42.56.32,26.18-42.42-.56-.32Z"/><path id="e-2" class="cls-15" d="M500.54,322.83s.74.68,1.66-.41,3.6-5.58,4.11-6.4c.51-.82,1.17-1.5.3-2.04-.87-.54-2.09.14-3.1,2.18s-4.3,5.58-2.98,6.67h0Z"/><path id="f-2" class="cls-19" d="M523.37,328.83c.98-.13,2.64,1.73,3.09,4.97.44,3.23.01,5.96-.97,6.09-.36.04-.76-.27-1.14-.9l-52.26,6.87-1.09-9.61,51.84-6.02c.17-1.24.03-1.32.52-1.39h0Z"/><path id="g-2" class="cls-28" d="M473.08,336.05s.3.48.42.79M474.21,335.92s.3.48.42.79M475.34,335.79s.3.48.42.79M476.47,335.66s.3.48.42.79M477.6,335.53s.3.48.42.79M478.73,335.4s.3.48.42.79M479.86,335.27s.3.48.42.79M480.99,335.14s.3.48.42.79M482.12,335.01s.3.48.42.79M483.25,334.88s.3.48.42.79M484.38,334.75s.3.48.42.79M485.51,334.62s.3.48.42.79M486.64,334.49s.3.48.42.79M487.77,334.36s.3.48.42.79M488.9,334.23s.3.48.42.79M490.03,334.1s.3.48.42.79M491.16,333.97s.3.48.42.79M492.29,333.84s.3.48.42.79M493.42,333.71s.3.48.42.79M494.55,333.58s.3.48.42.79M495.69,333.45s.3.48.42.79M496.82,333.33s.3.48.42.79M497.95,333.2s.3.48.42.79M499.08,333.07s.3.48.42.79M500.21,332.94s.3.48.42.79M501.34,332.81s.3.48.42.79M502.47,332.68s.3.48.42.79M503.6,332.55s.3.48.42.79M504.73,332.42s.3.48.42.79M505.86,332.29s.3.48.42.79M506.99,332.16s.3.48.42.79M508.12,332.03s.3.48.42.79M509.25,331.9s.3.48.42.79M510.38,331.77s.3.48.42.79M511.51,331.64s.3.48.42.79M512.64,331.51s.3.48.42.79M513.77,331.38s.3.48.42.79M514.9,331.25s.3.48.42.79M516.03,331.12s.3.48.42.79M517.16,330.99s.3.48.42.79M518.29,330.86s.3.48.42.79M519.43,330.73s.3.48.42.79M520.56,330.6s.3.48.42.79M521.69,330.47s.3.48.42.79M522.82,330.34s.3.48.42.79"/><path id="AG-2" class="cls-3" d="M524.64,333.38l-52.92,6.95M524.79,334.54l-52.92,6.95M524.95,335.7l-52.92,6.95M525.03,336.28l-52.92,6.95M525.11,336.85l-52.92,6.95M525.19,337.43l-52.92,6.95M525.27,338.01l-52.92,6.95M525.35,338.59l-52.92,6.95"/><path id="h-3" class="cls-19" d="M515.51,330.25c.92-.06,1.83,2.28,2.04,5.23,0,0,0,0,0,0,.21,2.95-.37,5.39-1.29,5.44,0,0,0,0,0,0-.17,0-.35-.07-.52-.23.6-.81.9-2.84.74-5.08-.16-2.32-.78-4.35-1.52-5.01.17-.23.35-.35.55-.37h0Z"/><path id="h-4" class="cls-19" d="M478.5,335.12c.92-.06,1.83,2.28,2.04,5.23,0,0,0,0,0,0,.21,2.95-.37,5.39-1.29,5.44,0,0,0,0,0,0-.17,0-.35-.07-.52-.23.6-.81.9-2.84.74-5.08-.16-2.32-.78-4.35-1.52-5.01.17-.23.35-.35.55-.37h0Z"/><path id="i-2" class="cls-19" d="M470.74,339.42l-2.95-.19s-1.81.61-1.92,1.36-.18,1.87-.03,2.16,3.59.9,4.8-.16l.11-3.18Z"/><path id="j-2" class="cls-54" d="M465.87,340.59c1.18.28,3.26.17,4.84.02l-.07,1.99c-1.21,1.05-4.65.45-4.8.16s-.09-1.41.03-2.16h0Z"/><path id="k-2" class="cls-19" d="M471.29,335.98c.12,0,.24.06.36.21-.25,1.04-.33,2.77-.2,4.62.15,2.12.55,4.03,1.02,4.89-.14.39-.3.6-.49.61-.31.03-.64-.49-.92-1.44s-.49-2.25-.58-3.62c-.09-1.37-.06-2.69.09-3.68.15-.99.41-1.56.71-1.58h0Z"/><path id="l-2" class="cls-19" d="M500.97,335.85v.03c-.6.13-1.04.65-1.04,1.27v8.69l6.32-6.14c.44-.43.52-1.1.19-1.61l.03-.02,2.74,2.66h-.01c-.53-.41-1.3-.37-1.78.1l-6.43,6.25h9.15c.63,0,1.17-.42,1.3-1.01h.04v3.76h-.02c-.07-.66-.64-1.16-1.33-1.16h-9.09l6.47,6.29c.44.43,1.13.51,1.66.18l.02.02-2.74,2.66h-.01c.43-.53.39-1.27-.1-1.74l-6.43-6.25v8.9c0,.62.44,1.14,1.04,1.27v.03h-3.87c.68-.08,1.19-.64,1.19-1.3v-9.04l-6.58,6.39c-.49.47-.52,1.22-.1,1.73h-.01s-2.74-2.65-2.74-2.65l.03-.02c.53.32,1.22.25,1.66-.18l6.47-6.29h-9.09c-.69,0-1.25.51-1.33,1.16h-.02v-3.76h.04c.14.59.68,1.01,1.3,1.01h9.15l-6.43-6.25c-.48-.47-1.25-.51-1.78-.09h-.01s2.74-2.67,2.74-2.67l.02.02c-.33.51-.26,1.18.19,1.61l6.47,6.29v-8.84c0-.67-.52-1.22-1.19-1.29h0s3.87-.01,3.87-.01Z"/><ellipse class="cls-19" cx="499.11" cy="348.06" rx="2.47" ry="2.4"/><path id="m-2" class="cls-19" d="M499.11,332.08c9.01,0,16.31,7.1,16.31,15.86s-7.3,15.86-16.31,15.86-16.31-7.1-16.31-15.86,7.3-15.86,16.31-15.86ZM499.11,336.12c-6.72,0-12.16,5.29-12.16,11.82s5.44,11.82,12.16,11.82,12.16-5.29,12.16-11.82-5.44-11.82-12.16-11.82Z"/><ellipse class="cls-54" cx="499.29" cy="334.11" rx=".52" ry=".51"/><ellipse class="cls-54" cx="499.29" cy="361.79" rx=".52" ry=".51"/><ellipse class="cls-54" cx="489.57" cy="337.85" rx=".52" ry=".51"/><ellipse class="cls-54" cx="509.66" cy="357.41" rx=".52" ry=".51"/><ellipse class="cls-54" cx="509.03" cy="337.85" rx=".52" ry=".51"/><ellipse class="cls-54" cx="488.94" cy="357.41" rx=".52" ry=".51"/><ellipse class="cls-54" cx="513.49" cy="347.54" rx=".52" ry=".51"/><ellipse class="cls-54" cx="485.04" cy="347.54" rx=".52" ry=".51"/><ellipse class="cls-54" cx="512.76" cy="353.61" rx=".51" ry=".52" transform="translate(157.93 865.52) rotate(-89.86)"/><ellipse class="cls-54" cx="486.42" cy="343.2" rx=".51" ry=".52" transform="translate(142.05 828.8) rotate(-89.86)"/><ellipse class="cls-54" cx="486.34" cy="353.63" rx=".52" ry=".51" transform="translate(-.67 .93) rotate(-.11)"/><ellipse class="cls-54" cx="512.46" cy="342.63" rx=".52" ry=".51" transform="translate(-.65 .98) rotate(-.11)"/><ellipse class="cls-54" cx="493.52" cy="335.43" rx=".52" ry=".51" transform="translate(-2.43 3.6) rotate(-.42)"/><ellipse class="cls-54" cx="504.68" cy="360.88" rx=".52" ry=".51" transform="translate(-2.61 3.68) rotate(-.42)"/><ellipse class="cls-54" cx="505.09" cy="335.43" rx=".51" ry=".52" transform="translate(165.99 838.06) rotate(-89.58)"/><ellipse class="cls-54" cx="493.92" cy="360.88" rx=".51" ry=".52" transform="translate(129.46 852.16) rotate(-89.58)"/><ellipse class="cls-19" cx="518.14" cy="361.9" rx="2.58" ry="2.51"/><path id="n-2" class="cls-20" d="M454.46,328.5s6.36,2.66,6.9-1.92c0,0,3.84,4.69-1.42,7.67,0,0,2.41-3.73-5.48-4.16,0,0-1.1.11-.99-.75.11-.85.99-.85.99-.85h0Z"/><path id="o-2" class="cls-54" d="M453.47,329.5c.9.08,2.95.3,6.14.92,1.42.28,2.41.1,3.1-.25,0,1.35-.62,2.86-2.77,4.09,0,0,2.41-3.73-5.48-4.16,0,0-.96.09-.99-.6h0Z"/><path id="AH-2" class="cls-20" d="M457.26,328.46l.53.08-2.19,14.28-.53-.08,2.19-14.28Z"/><path id="AI-2" class="cls-20" d="M457.04,328.43l.96.14-.44,2.88-.96-.14.44-2.88Z"/><ellipse class="cls-20" cx="469.46" cy="366.48" rx="3.86" ry="1.77"/><path id="p-2" class="cls-19" d="M469.11,345.54c.36-.02.7.04.8.25.19.42-.38.51-.38.51v2.35c0,.74.62,11.86.9,14.03.08.67.25,1.32.51,1.95,0,0,2.72.32,2.58,1.52-.14,1.2-1.61,1.99-4.08,1.94-3.04-.07-3.89-.69-4.03-1.43s.71-1.43,1.99-1.66l.66-3.69s-.14.55-1.9.18-1.71-2.95-1.71-2.95l.05-9.18c.1-1.43.9-2.12,2.04-2.54.9-.14,1.52.05,1.61.55s.33.65.47.46,0-1.57,0-1.57c0,0-.66-.32-.38-.51.14-.09.51-.18.87-.2h0ZM466.82,348.19l-.62.32-.19,1.66v8.4l.1.55.81.65.9-.18.47-.55.33-7.52.1-2.4-1.14-.74-.76-.18Z"/><path id="q-2" class="cls-44" d="M467.15,365.86s1.04-2.58,1.28-9.37v-7.66c-.33-.32-1.28-.88-1.85-.55s-.43.42-.52,1.57c-.1,1.15-.1,8.63-.1,8.63,0,0,.29,1.25,1,1.2s1.23-.32,1.33-.83"/><path id="AJ-2" class="cls-44" d="M471.71,366s-1-1.15-1.28-3.32c-.29-2.17-.9-13.29-.9-14.03v-2.35"/><path id="r-2" class="cls-6" d="M483.61,357.94s-3.48.1-4.61,2.19c-1.13,2.09-.51,4.09.82,4.88s4.2,1.4,5.54.6,2.25-3.39.72-3.69c-1.54-.3-4.1-.8-3.79-1.79.31-1,1.64-1,1.64-1l-.31-1.2Z"/><path class="cls-20" d="M483.03,357.77l.64-.1.51,2.2-.64.1-.51-2.2Z"/><path id="AK-2" class="cls-15" d="M532.59,347.04l-14.72,7.45.08.15,1.04.18,13.98-7.08-.38-.7Z"/><path id="AL-2" class="cls-15" d="M533.02,347.4l-8.29,14.28,1.34-.71,7.66-13.18-.71-.39Z"/><path id="s-2" class="cls-54" d="M547.2,333.51c-.11,0-.21.05-.28.12l-13.97,13.48c-.16.15-.16.4,0,.56.16.15.41.15.57,0l13.73-13.25v-.9s-.03,0-.05,0Z"/><path id="t-2" class="cls-15" d="M535.22,345.1c-.1,0-.2.05-.28.12l-13.87,13.39,1.21-.06,13.22-12.76c.16-.15.17-.4.01-.56-.08-.08-.19-.12-.3-.12h0Z"/><ellipse class="cls-19" cx="482.68" cy="371.87" rx="2.58" ry="2.51"/><ellipse class="cls-19" cx="488.84" cy="366.84" rx="2.58" ry="2.51"/><ellipse class="cls-19" cx="498.33" cy="367.44" rx="2.58" ry="2.51"/><ellipse class="cls-19" cx="505.54" cy="371.28" rx="2.58" ry="2.51"/><ellipse class="cls-19" cx="511.83" cy="371.28" rx="2.58" ry="2.51"/><ellipse class="cls-19" cx="518.13" cy="371.28" rx="2.58" ry="2.51"/><ellipse class="cls-19" cx="524.41" cy="371.28" rx="2.58" ry="2.51"/><ellipse class="cls-19" cx="508.75" cy="366.61" rx="2.58" ry="2.51"/><ellipse class="cls-19" cx="515.03" cy="366.61" rx="2.58" ry="2.51"/><ellipse class="cls-19" cx="521.33" cy="366.61" rx="2.58" ry="2.51"/><path id="u-2" class="cls-17" d="M495.42,270.16s-.2,1.97,1.52,3.15,3.75,2.47,4.56,5.82c.81,3.35.2,2.96.2,2.96l-5.38.89s.61-2.37-.71-4.24c-1.32-1.87-3.24-7.3-1.42-9.47l1.22.89Z"/><path id="v-2" class="cls-21" d="M495.25,270.04c-.32.76-.88,2.57.37,3.87,1.62,1.68,3.14,2.47,3.75,4.73.32,1.22.57,2.46.75,3.71l1.58-.26s.61.4-.2-2.96c-.81-3.35-2.84-4.63-4.56-5.82s-1.52-3.15-1.52-3.15l-.17-.13Z"/><path id="AM-2" class="cls-44" d="M494.61,269.17s-1.01,2.27.1,4.54c1.12,2.27,2.23,3.35,2.84,4.83.61,1.48,0,2.86.71,3.94"/><path id="w-2" class="cls-20" d="M536.68,368.8c-.12.02-.2.12-.18.24.02.11.13.19.25.18,0,0,0,0,0,0,0,0,3.67-.56,6.4,2.14.08.09.21.1.3.03.09-.07.1-.21.03-.3,0,0-.01-.02-.02-.02-2.89-2.86-6.78-2.27-6.78-2.27h0Z"/><path id="x-2" class="cls-20" d="M543.09,372.84s0,.56.46,1.1,1.41,1.06,3.2,1.11v-.42c-1.7-.05-2.49-.53-2.87-.96s-.36-.82-.36-.82h-.43Z"/><path id="y-2" class="cls-50" d="M548.27,377.05c.58-1.45,2.13-1.79,2.13-1.79,0,0,.11-.11-.34-1.17-.46-1.06-.23-1.85-.23-1.85.17-5.65-.4-7.16-.4-7.16.4,0,2.24,2.13,2.24,2.13-.06-5.37-8.23-7.89-8.23-7.89,2.99,7.38,1.84,8.22,1.84,8.22,1.9-.78,2.13-2.01,2.13-2.01.34,2.01.06,5.93.06,5.93,0,0,.11,1.85-1.67.95-.95-.48-5.58-2.66-5.58-2.66l-.44,1.54,6.19,2.8s1.44.61,1.04,1.68c-.4,1.06-.63,1.23-.63,1.23l1.9.05Z"/><path id="z-2" class="cls-54" d="M537.69,368.75l.22.43.32.02-.22-.43h-.33s0-.01,0-.01ZM538.78,368.84l.15.44.31.06-.15-.45-.32-.05ZM539.96,369.07l.07.46.3.1-.07-.46-.3-.09ZM541.14,369.49l-.02.46.28.14.02-.46-.28-.14h0ZM542.23,370.08l-.1.44.25.18.1-.45s-.25-.17-.25-.17Z"/><path id="AA-2" class="cls-54" d="M543.78,373.54l-.21.42c.07.07.14.14.22.21l.19-.4-.11-.11s-.07-.08-.1-.13h0ZM544.37,374.06l-.06.46c.09.05.18.09.27.13l.05-.44c-.09-.04-.18-.09-.27-.14ZM545.06,374.37l.09.46.3.07-.08-.45-.31-.09ZM545.67,374.52l.2.45.33.04-.2-.45-.33-.05h0Z"/><path id="AB-3" class="cls-16" d="M522.45,297.27s-3.25-1.52-4-.24-1.06,3.83,0,5.35c0,0,4.63.55,7-.24l.31-.18-3.31-4.68Z"/><path id="AC-2" class="cls-22" d="M519.23,298.67c-.52-.01-1.01.15-1.4.32-.16,1.17-.02,2.47.62,3.39,0,0,4.1.48,6.56-.12-1.18-.36-3.23-2.26-4.62-3.22-.34-.24-.74-.36-1.16-.37h0Z"/><path id="AN-2" class="cls-44" d="M517.83,301.22s1.56-1.03,4.06.06c2.5,1.09,2.5.91,2.5.91"/><path id="AB-4" class="cls-43" d="M522.45,297.27s-3.25-1.52-4-.24-1.06,3.83,0,5.35c0,0,4.63.55,7-.24l.31-.18-3.31-4.68Z"/><path class="cls-44" d="M523.15,302.47s.5,2.07.62,6.39c.12,4.32-.81,7.24-1.19,7.18"/><path id="AD-2" class="cls-3" d="M525.7,301.83s1.88,1.82,2.13,5.95l.19,6.99s-3.06,1.76-5.94,1.03c0,0,.5-1.21.56-2.92.06-1.7-.06-10.51-.06-10.51"/><path class="cls-43" d="M497.53,282.65s1.5,6.02,1.69,8.82"/><path class="cls-30" d="M480.88,329.08s1.7-1.79,1.81-2.55.08-2.03-.97-2.05-6.06-.84-7.58.34-1.79,1.79-1.49,2.39,1.54,1.58,2.57,1.53,2.03.39,2.44.16,2.16-2.26,2.62-.45l.05.61.54.03Z"/><path class="cls-32" d="M476.04,335.89s1.03-4.77,2.74-6.87c0,0,2.17-.55,2.96,0s-.11-.67.8.44c.91,1.11.91,5.32.91,5.32l1.14,1c-2.96,1.33-8.55.11-8.55.11h0Z"/><path class="cls-29" d="M484.36,335.65c-2.74,1.44-8.32.33-8.32.33,0,0-.91,2.11,0,1.77s.46.78,1.37,0c.91-.78.91-1,.91-1,0,0,5.24,0,6.27-.33l-.23-.78Z"/><path class="cls-37" d="M479.36,329.7c.27.07.55.11.83.14M479.34,330.3s.36.09.83.13M479.31,330.9c.27.06.55.1.83.12M479.29,331.49s.35.08.83.11M479.27,332.09c.27.05.55.08.82.09M479.24,332.69s.34.07.82.08M479.22,333.29s.33.07.82.07M479.2,333.88c.27.04.54.06.81.06M479.17,334.48s.31.05.81.05M479.15,335.08s.31.05.81.04M479.12,335.68s.3.04.8.03M481.06,329.95c.35-.05.67-.18.85-.44M481.01,330.53c.39-.06.77-.2,1.04-.49M480.96,331.1c.44-.07.88-.23,1.23-.54M480.92,331.68c.51-.07,1-.28,1.42-.59M480.87,332.25c.58-.09,1.13-.31,1.61-.63M480.82,332.83c.64-.1,1.26-.34,1.8-.68M480.77,333.4c.71-.12,1.38-.37,1.99-.73M480.73,333.98c.77-.13,1.51-.4,2.18-.78M480.68,334.55c.83-.15,1.63-.43,2.37-.83M480.63,335.12c.9-.16,1.76-.46,2.56-.88M480.58,335.7c.96-.17,1.89-.49,2.75-.93"/><path class="cls-31" d="M479.01,327.19l-1.81,1.68M477.84,327.15l-1.2,1.66M476.67,327.12l-.58,1.64M475.5,327.08l.04,1.62M474.33,327.04l.66,1.6M473.17,327.01l1.27,1.58M473.84,327.14l.78,1.5"/><path class="cls-44" d="M485.92,270.28s1.53-2.02,6.04-.26"/><path class="cls-35" d="M451.77,262.18s1.84,57.84.33,79.56M451.77,262.18c-2.18-.32-5.83,0-5.83,0,0,0-1.84,57.84-.33,79.56,0,0,3.99-.48,6.5,0"/><path class="cls-54" d="M448.67,264.85h-1.17s-1.65.06-1.65.06v.28s6-.01,6-.01v-.28s-3.18-.05-3.18-.05h0ZM448.64,266.87h-1.17s-1.68.06-1.68.06v.28s6.11,0,6.11,0v-.28s-3.27-.05-3.27-.05h0ZM448.61,268.9h-1.16s-1.7.05-1.7.05v.28s6.22,0,6.22,0v-.28s-3.36-.06-3.36-.06ZM448.58,270.93h-1.16s-1.73.04-1.73.04v.28s6.34.01,6.34.01v-.28s-3.45-.06-3.45-.06ZM447.39,272.96l-1.75.03v.28s6.43.02,6.43.02v-.28s-4.68-.05-4.68-.05ZM447.36,274.98l-1.77.03v.28s6.53.03,6.53.03v-.28s-4.76-.05-4.76-.05ZM447.33,277.01l-1.79.02v.28s6.62.03,6.62.03v-.28s-4.83-.06-4.83-.06h0ZM447.3,279.03l-1.81.02v.28s6.72.04,6.72.04v-.28s-4.91-.06-4.91-.06ZM447.27,281.05h-1.83s0,.29,0,.29l6.82.05v-.28s-4.99-.06-4.99-.06h0ZM447.25,283.08h-1.85s0,.29,0,.29l6.91.05v-.28s-5.05-.06-5.05-.06ZM447.22,285.11c-.62,0-1.24,0-1.86,0v.28s6.98.06,6.98.06v-.28s-5.13-.06-5.13-.06h0ZM447.19,287.13c-.78,0-1.26,0-1.87,0v.28s7.06.06,7.06.06v-.28s-5.19-.06-5.19-.06ZM445.28,289.15v.28s7.14.06,7.14.06v-.28s-7.14-.06-7.14-.06h0ZM445.25,291.17v.28s7.21.07,7.21.07v-.28s-7.21-.07-7.21-.07ZM445.21,293.19v.28s7.28.08,7.28.08v-.28s-7.28-.08-7.28-.08h0ZM445.18,295.2v.28s7.34.08,7.34.08v-.28s-7.34-.08-7.34-.08ZM445.15,297.22v.28s7.39.09,7.39.09v-.28s-7.39-.09-7.39-.09ZM445.12,299.24v.28s7.45.09,7.45.09v-.28s-7.45-.09-7.45-.09ZM445.1,301.26v.28s7.5.09,7.5.09v-.28c-3.04,0-5.68-.04-7.5-.09h0ZM445.08,303.28v.28s7.54.09,7.54.09v-.28c-2.51.02-5.03-.01-7.54-.09h0ZM445.06,305.3v.28s7.58.09,7.58.09v-.28c-2.53.02-5.05,0-7.58-.09h0ZM445.04,307.32v.28l7.62.09v-.28c-3.12.04-5.78-.02-7.61-.09h0ZM445.03,309.34v.28l7.64.1v-.28c-2.54.04-5.09.01-7.63-.09h0ZM445.02,311.36v.28l7.66.1v-.28c-2.55.05-5.11.02-7.66-.1h0ZM445.01,313.38v.28s7.67.09,7.67.09v-.28c-2.56.06-5.12.03-7.67-.1h0ZM445.01,315.4v.28l7.67.09v-.28c-2.56.08-5.12.04-7.67-.09h0ZM445.01,317.42v.28l7.67.09v-.28c-2.56.09-5.12.06-7.67-.09ZM445.01,319.44v.28c2.55.16,5.11.19,7.66.09v-.28c-3.18.12-5.84.03-7.66-.09ZM445.03,321.46v.28c2.54.16,5.09.19,7.64.09v-.28c-3.16.13-5.82.04-7.64-.09h0ZM445.04,323.48v.28c2.53.17,5.07.2,7.6.08v-.28c-2.53.12-5.07.09-7.6-.09h0ZM445.06,325.51v.28c2.52.18,5.04.21,7.57.08v-.28c-3.14.15-5.76.05-7.57-.08h0ZM445.09,327.53v.28c1.81.14,4.4.24,7.51.08v-.28c-2.5.14-5.01.11-7.51-.08h0ZM445.12,329.55v.28c1.81.15,4.36.24,7.44.07v-.28c-2.47.15-4.96.12-7.44-.07h0ZM445.17,331.58v.28c2.45.2,4.9.22,7.35.07v-.28c-2.44.15-4.9.13-7.35-.07ZM445.23,333.61v.28c1.78.15,4.26.25,7.23.06v-.28c-2.99.19-5.47.09-7.23-.06h0ZM445.29,335.64v.28c2.37.2,4.74.21,7.1.05v-.28c-2.36.17-4.73.15-7.1-.05h0ZM445.37,337.67v.28c1.74.15,4.1.24,6.93.04v-.28c-2.84.2-5.21.11-6.93-.04h0ZM445.47,339.7l.02.28c2.23.19,4.48.2,6.71.03l.02-.28c-2.75.2-5.06.12-6.75-.03h0Z"/><path class="cls-4" d="M450.36,338.72l1.36.12M450.37,336.7l1.38.12M450.37,334.69l1.4.11M450.38,332.68l1.43.11M450.38,330.67l1.45.1M450.39,328.66l1.47.1M450.39,326.64l1.5.09M450.4,324.63l1.52.08M450.4,322.62l1.54.08M450.41,320.61l1.56.07M450.41,318.59l1.59.07M450.42,316.58l1.61.06M450.42,314.57l1.63.06M450.43,312.56l1.66.05M450.43,310.54l1.68.05M450.44,308.53l1.7.04M450.44,306.52l1.72.03M450.45,304.51l1.75.03M450.41,302.5l1.77.02M450.36,300.48l1.79.02M450.31,298.47h1.82M450.27,296.46h1.84M450.22,294.45h1.86M450.17,292.44h1.89M450.13,290.42h1.91M450.08,288.41l1.93-.02M450.04,286.4l1.95-.02M449.99,284.39l1.98-.03M449.94,282.37l2-.04M449.9,280.36l2.02-.04M449.85,278.35l2.05-.05M449.81,276.34l2.07-.05M449.76,274.33l2.09-.06M449.71,272.31l2.12-.06M449.67,270.3l2.14-.07M449.62,268.29l2.16-.08M449.58,266.28l2.18-.08M449.53,264.27l2.21-.09M445.92,338.83l1.36.12M445.88,336.81l1.38.12M445.84,334.79l1.4.11M445.79,332.78l1.43.11M445.75,330.76l1.45.1M445.71,328.74l1.47.1M445.67,326.72l1.5.09M445.63,324.7l1.52.08M445.58,322.68l1.54.08M445.54,320.67l1.56.07M445.5,318.65l1.59.07M445.46,316.63l1.61.06M445.42,314.61l1.63.06M445.37,312.59l1.66.05M445.33,310.57l1.68.04M445.29,308.55l1.7.04M445.28,306.54l1.72.03M445.32,304.52l1.75.03M445.35,302.5l1.77.02M445.38,300.48l1.79.02M445.42,298.46h1.82M445.45,296.45h1.84M445.49,294.43h1.86M445.52,292.41h1.89M445.56,290.39h1.91M445.6,288.37l1.93-.02M445.63,286.35l1.96-.02M445.67,284.34l1.98-.03M445.7,282.32l2-.04M445.74,280.3l2.02-.04M445.77,278.28l2.05-.05M445.81,276.26l2.07-.05M445.85,274.24l2.09-.06M445.88,272.23l2.11-.06M445.92,270.21l2.14-.07M445.95,268.19l2.16-.08M445.99,266.17l2.18-.08M446.02,264.15l2.21-.09"/><path class="cls-45" d="M439.29,345.9h19.12v17.38h-19.12v-17.38Z"/><path class="cls-11" d="M448.45,362.56c1.25,0,2.47-.06,3.59-.17M448.45,361.63c1.25,0,2.47-.06,3.59-.17M448.45,360.7c1.25,0,2.47-.06,3.59-.17M448.45,359.77c1.25,0,2.47-.06,3.59-.17M448.45,358.84c1.25,0,2.47-.06,3.59-.17M448.45,357.91c1.25,0,2.47-.06,3.59-.17M448.45,356.98c1.25,0,2.47-.06,3.59-.17M448.45,356.05c1.25,0,2.47-.06,3.59-.17M448.45,355.12c1.25,0,2.47-.06,3.59-.17M448.45,354.19c1.25,0,2.47-.06,3.59-.17M448.45,353.26c1.25,0,2.47-.06,3.59-.17M448.45,352.32c1.25,0,2.47-.06,3.59-.17M448.45,351.39c1.25,0,2.47-.06,3.59-.17M448.45,350.46c1.25,0,2.47-.06,3.59-.17M448.45,349.53c1.25,0,2.47-.06,3.59-.17"/><path class="cls-12" d="M457.99,360.94c-.73.4-1.74.76-2.94,1.03M457.99,360c-.73.4-1.74.76-2.94,1.03M457.99,359.06c-.73.4-1.74.76-2.94,1.03M457.99,358.12c-.73.4-1.74.76-2.94,1.03M457.99,357.18c-.73.4-1.74.76-2.94,1.03M457.99,356.24c-.73.4-1.74.76-2.94,1.03M457.99,355.3c-.73.4-1.74.76-2.94,1.03M457.99,354.36c-.73.4-1.74.76-2.94,1.03M457.99,353.42c-.73.4-1.74.76-2.94,1.03M457.99,352.48c-.73.4-1.74.76-2.94,1.03M457.99,351.54c-.73.4-1.74.76-2.94,1.03M457.99,350.6c-.73.4-1.74.76-2.94,1.03M457.99,349.66c-.73.4-1.74.76-2.94,1.03M457.99,348.72c-.73.4-1.74.76-2.94,1.03M457.99,347.78c-.73.4-1.74.76-2.94,1.03"/><path class="cls-24" d="M444.06,349.27c-1.8-.24-3.34-.62-4.46-1.09M444.06,350.2c-1.8-.24-3.34-.62-4.46-1.09M444.06,351.14c-1.8-.24-3.34-.62-4.46-1.09M444.06,352.08c-1.8-.24-3.34-.62-4.46-1.09M444.06,353.01c-1.8-.24-3.34-.62-4.46-1.09M444.06,353.95c-1.8-.24-3.34-.62-4.46-1.09M444.06,354.89c-1.8-.24-3.34-.62-4.46-1.09M444.06,355.82c-1.8-.24-3.34-.62-4.46-1.09M444.06,356.76c-1.8-.24-3.34-.62-4.46-1.09M444.06,357.7c-1.8-.24-3.34-.62-4.46-1.09M444.06,358.63c-1.8-.24-3.34-.62-4.46-1.09M444.06,359.57c-1.8-.24-3.34-.62-4.46-1.09M444.06,360.51c-1.8-.24-3.34-.62-4.46-1.09M444.06,361.45c-1.8-.24-3.34-.62-4.46-1.09M444.06,362.38c-1.8-.24-3.34-.62-4.46-1.09"/><path class="cls-47" d="M448.74,340.74c-2.6,0-5.09.26-6.93.73-1.84.47-2.87,1.1-2.87,1.76,0,.15.06.3.16.42v2.38c-.09.12-.15.27-.16.42,0,.15.05.29.16.44v.45h.5c1.46.96,5.09,1.59,9.15,1.59s7.68-.63,9.14-1.59h.6v-.63c.04-.08.06-.17.06-.27,0-.08-.03-.16-.06-.24v-2.75c.03-.07.05-.15.06-.23,0-.66-1.03-1.29-2.87-1.76-1.84-.47-4.33-.73-6.93-.73h0ZM448.74,342.42h.61s.5.02.5.02l.44.02.53.03.45.03.48.04.49.05.42.04.49.06.38.05.49.08.34.06.41.08.27.05h-.02c1.33.28,2.35.65,2.94,1.06-1.39.99-5.08,1.65-9.21,1.65-4.13,0-7.81-.66-9.21-1.65,1.16-.82,3.94-1.43,7.31-1.6l.97-.04h.93s0-.01,0-.01Z"/><path class="cls-46" d="M448.45,342.4c-4.13,0-7.81.66-9.21,1.65,1.4.99,5.08,1.64,9.21,1.64s7.81-.66,9.21-1.65c-1.4-.99-5.08-1.64-9.21-1.64Z"/><path class="cls-46" d="M448.24,340.72h-.79v1.69h.79v-1.69ZM453.6,341.09v1.68l.79.14v-1.68l-.79-.14h0ZM442.74,341.19l-.78.16v1.68l.78-.16v-1.68ZM454.65,345.12l-.92.17v3.22l.92-.17v-3.22ZM445.62,345.58v3.22l.92.06v-3.22l-.92-.06Z"/><path class="cls-47" d="M458.19,361.56c-.36.22-.85.42-1.45.6-1.79.72-4.91,1.17-8.28,1.17-3.35,0-6.47-.44-8.26-1.16-.56-.17-1.02-.36-1.38-.56v2.03c-.09.12-.15.27-.16.42,0,.16.06.31.16.44v.46h.5c1.46.96,5.09,1.59,9.14,1.59s7.68-.63,9.13-1.59h.6v-.63c.04-.08.06-.17.06-.27,0-.08-.03-.16-.06-.23v-2.27Z"/><path class="cls-47" d="M439.01,347.54v2.78l3.51,12.49.82.14-4.33-15.41Z"/><path class="cls-47" d="M445.65,348.8l-3.1,14.02.74.13,3.11-14.1-.76-.05h0ZM454.38,348.39l-.82.14-3.79,14.77.79-.03,3.82-14.87Z"/><path class="cls-47" d="M445.64,348.8l3.87,14.51.77-.03-3.85-14.43-.8-.05h0ZM454.59,348.35l-.74.14,3.79,13.06.48-.13v-.93l-3.52-12.14Z"/><path class="cls-46" d="M458.47,361.6c-.27.15-.56.29-.86.39v3.15l.26-.15h.59v-3.39ZM442.71,362.83v3.22l.86.15v-3.22l-.86-.15ZM450.67,363.31l-.86.04v3.22l.86-.03v-3.22Z"/><path class="cls-43" d="M449.94,261.26h1.69M449.9,260.32h1.69M449.86,259.38h1.69M449.81,258.44h1.69M449.77,257.5h1.69M449.73,256.56h1.69M449.69,255.62h1.69M449.65,254.68h1.69M449.6,253.74h1.69M449.56,252.8h1.69M449.52,251.86h1.69M449.48,250.92h1.69M449.44,249.99h1.69M449.39,249.05h1.69M449.35,248.11h1.69M449.31,247.17h1.69M449.27,246.23h1.69M449.23,245.29h1.69M449.18,244.35h1.69M449.14,243.41h1.69M449.1,242.47h1.69M449.06,241.53h1.69M449.01,240.59h1.69M448.97,239.65h1.69"/><path class="cls-41" d="M445.54,231.88c-15.96-2.05-21.01-.54-21.74-.27s-11.01,3.04-15.05,9.65c-4.04,6.61-.92,9.11-.92,9.11-.73-1.52,1.93-7.15,1.93-7.15-1.28,2.32.37,6.25.37,6.25-.55-1.16.64-4.65.64-4.65l.92,2.77c0-1.61.83-5.45.83-5.45.09,5,1.1,5.9,1.1,5.9-.92-1.25.64-8.93.64-8.93-.92,4.56.55,5.54.55,5.54,0-5.36,2.66-8.13,2.66-8.13-2.84,3.13-.83,7.68-.83,7.68.27-5.27,4.4-9.47,4.4-9.47-3.85,4.02-1.56,6.7-1.56,6.7.09-3.39,6.06-8.31,6.06-8.31-2.57,2.41-2.48,5.36-2.48,5.36,1.01-1.88,4.86-5.54,4.86-5.54-.92,1.25-1.74,4.56-1.74,4.56l1.19-.71,3.3-3.93-2.02,3.04,2.02-.89,2.29-2.05-1.01,1.34,1.65-.45,1.65-1.88-1.01,1.34h2.38l1.01-.98-.46,1.07,1.74.09.55-.98-.09.98h.83l.73-1.43-.27,1.43s1.93,0,2.29.45-11.74,3.66-11.74,3.66c0,0,2.66,0,2.84.71s-6.06,1.7-6.06,1.7l3.03,1.25-6.06.8,4.4.54-7.62,1.79h6.97l-7.34,1.43,4.68.63-6.15.89,5.87.54-6.33,2.59,3.39-.54c-6.7,6.25-4.31,10.72-4.31,10.72.46-1.97,3.49-6.52,3.49-6.52-.73,5.81.92,7.86.92,7.86.18-1.61,2.29-9.83,2.29-9.83.37,1.88.55,7.24.55,7.24,1.56-1.25.92-7.5.92-7.5l2.48,2.32c-1.19-1.97-.92-6.52-.92-6.52.73.8,1.65,3.93,1.65,3.93l.83-5.99c0,1.88,1.47,5.54,1.47,5.54l.55-6.25c.09,1.52,1.84,4.56,1.84,4.56v-6.79l1.19,3.04.18-4.73.55,5.54,1.01-1.16-.83-.09.37-.18,1.01-5.45,1.56,2.5.55-1.61-.37-2.59c.55.18,1.38,1.79,1.38,1.79v-3.31l1.47.63,2.2-3.13-1.38,2.5,2.11-1.25-2.48,1.88,1.56.63-3.49.36v.89l3.12.27c-4.4.71-4.5,1.97-4.5,1.97l4.22-.18c-3.3-.09-5.69,2.23-5.69,2.23l5.05-.18c-4.68.36-6.61,2.14-6.61,2.14l5.87.36c-2.94-.27-6.15,2.86-6.15,2.86l3.85.09c-3.58.36-4.4,2.32-4.4,2.32l3.12.09c-3.21,1.79-3.39,4.82-3.39,4.82l3.58-2.77c-3.76,3.22-2.48,5.9-2.48,5.9l2.29-2.59c-3.21,3.04-2.48,5.18-2.48,5.18l2.38-2.5c-1.19,7.59.46,7.77.46,7.77l.55-7.68c2.02.98,3.3,5.45,3.3,5.45l-1.74-7.06c1.93,1.34,2.48,4.11,2.48,4.11.73-3.22-2.29-7.41-2.29-7.41l3.76,4.65-2.84-7.06,3.3,4.82c.09-4.56-2.57-7.41-2.57-7.41l4.04,3.39c-.18-1.43-2.29-5.18-2.29-5.18.83.63,2.38,2.5,2.38,2.5-.55-2.23-2.84-4.82-2.84-4.82,1.1.27,2.94,2.5,2.94,2.5,0-1.25-1.28-5.9-1.28-5.9l1.38,2.86-.55-4.65,1.19,1.79-.27-3.22.83.18.55-3.84-.27,3.93-.92-.36.27,3.13,2.84-3.04-1.65,5.45,2.84-2.59-2.29,4.73,3.3-3.75-2.48,6.16,2.66-2.23-2.48,4.47c1.38,0,4.13-2.95,4.13-2.95-1.38.8-3.39,5.72-3.39,5.72,1.74,0,2.94-3.04,2.94-3.04l-2.84,5.09c1.74-.54,3.67-3.75,3.67-3.75.37,1.79-3.03,7.59-3.03,7.59,1.1,0,2.84-1.43,2.84-1.43,0,0,.27-1.16-.92.98-1.19,2.14-3.95,4.73-3.95,4.73,2.38.09,4.68-3.04,4.68-3.04.37,1.43-2.84,7.06-2.84,7.06,2.29-.18,4.22-6.43,4.22-6.43.73.8,1.19,8.04,1.38,7.15s.09-9.83.09-9.83c.46.63,2.33,4.71,2.33,4.71.14-2-2.05-9.72-2.05-9.72l2.6,4.66-3.14-8.92,3.83,4.53-4.79-9.05,2.46,3.6c-.82-6.12-4.92-6.12-4.92-6.12,4.92-.67,5.33,5.33,5.33,5.33,1.09-.27.96-3.33.96-3.33l.27,1.46.82,5.06.55-4.39v5.46c0,.53,1.64-3.2,1.64-3.2.41.67.41,5.19.41,5.19l1.37-3.6c.82,2.13.27,5.73.27,5.73,1.37,0,1.78-3.2,1.78-3.2l1.64,4.66-.14-3.46c-.14-3.46-4.92-10.25-6.15-10.92-1.23-.67-6.02-2.13-6.02-2.13l-4.51-4.13,4.51,4.13c.55-.67-.55-3.99-.55-3.99l3.56,4.53c.82-1.6-.82-4.26-.82-4.26,1.09,1.2,4.24,5.59,4.24,5.59.41-1.6-.82-5.19-.82-5.19.96.93,4.38,6.39,4.38,6.39-.14-.53-2.05-5.99-2.05-5.99,2.32,2,4.65,8.39,4.65,8.39.68-2.13-.96-7.72-.96-7.72l3.97,9.19c.41-1.86-.27-5.59-.27-5.59,1.23,1.07,3.28,5.86,3.28,5.86-.27-2.8-1.09-6.26-1.09-6.26l3.56,6.39-.68-4.26,2.19,4.66-1.09-4.13,3.01,4.13-2.46-4.39,3.56,3.46s-5.2-6.26-6.29-7.19c-1.09-.93-10.8-4.39-12.99-5.46-2.19-1.06-11.76-.53-11.76-.53l2.87-.13-.55-1.2.55,1.07h1.91l-1.09-1.07.82,1.2h3.28l-2.19-1.86c1.09.53,2.19,1.73,2.19,1.73l1.64.13-1.09-2.26,1.64,2.53,2.73.53c-.41-1.2-2.05-3.06-2.05-3.06,1.09,1.07,2.46,3.2,2.46,3.2l2.32.8c0-1.2-1.91-3.86-1.91-3.86,1.64,1.33,3.01,4.13,3.01,4.13.14-1.07-.82-4.26-.82-4.26,1.09.67,2.87,4.79,2.87,4.79.14-1.2-.14-4.79-.41-4.66.82.93,2.6,5.73,2.6,5.73v-4.66c.55,0,2.05,5.06,2.05,5.06.82-1.86-.14-5.73-.14-5.73.68,1.33,2.19,5.59,2.19,5.59l.27-1.86.41,3.46.41-2.93,1.23,3.2c-.14-1.86-1.64-6.92-1.64-6.92,1.09,1.07,3.97,7.32,3.97,7.32v-2.26l.82,3.6c1.23-3.6-1.37-7.59-1.37-7.59,1.91,2.66,2.6,6.12,2.6,6.12l.82-1.86c.82,1.33.82,4.79.82,4.79,1.09-3.73-1.09-7.06-1.09-7.06,2.32,1.73,3.69,8.79,3.69,8.79l.41-5.46c.68,1.33,1.98,5.48,1.98,5.48.31-2.31-.69-6.2-2-7.9-1.31-1.7-2.37-3.47-10.61-5.17-8.24-1.7-28.16-.24-28.16-.24l3.18-.67c2.06-1.58,6.81-.24,6.81-.24l1.19.06-.25-1.82c-.06-.49,2.25,1.58,2.25,1.58l.81.06v-2.31l3.37,2.49,1.25.18-2.18-2.86c1.25,1.15,5,2.61,5,2.61-.25-1.03-3.06-3.22-3.06-3.22.94,0,4.81,3.4,4.81,3.4l-2.31-2.61,5.56,2.55c-.37-.67-2.25-2.55-2.25-2.55,2.18,1.94,6.68,3.1,6.68,3.1l-5.31-4.13,6.62,5.05c-1.06-3.16-4.31-5.96-4.31-5.96,1.62.24,7.8,6.2,7.8,6.2,0-2.37-2.31-5.17-2.31-5.17,1.62.55,5.74,6.02,5.74,6.02.19-1.46-2.18-5.29-2.18-5.29,1.25.61,4.62,5.35,4.62,5.35.75-2.74-2.43-5.17-2.43-5.17l6.39,3.42c-3.33-4.87-10.06-6.49-10.86-6.79s-6.73-.3-11.85-.12-11.67,3.06-11.97,3.12-5.55,1.62-5.55,1.62l-1.42-.54,1.79.42,2.47-.66-2.47-1.5,3.21,1.2,1.67-.6-2.41-1.38,2.59,1.14,3.83-1.38-4.38-1.62,6.91.06-5.25-1.8,8.52,1.38c-.74-.9-3.15-1.68-3.15-1.68,1.73,0,5.68.9,5.68.9-.74-.84-4.14-2.34-4.14-2.34,1.85.36,6.79,1.8,6.79,1.8l-3.64-2.46,3.52,1.32c-.62-1.08-2.59-1.98-2.59-1.98.8,0,6.73,2.82,6.73,2.82-1.3-2.04-4.14-4.93-4.14-4.93l3.64,2.22-2.1-2.34,5.43,2.46c-1.85-2.52-5.99-3.97-7.22-4.15s-9.94.78-16.79,5.53c-6.85,4.75-7.65,9.13-7.65,9.13,0,0-7.02-14.81-19.32-15.71,0,0,1.93,1.79,5.69,2.59,0,0-4.13.89-5.14,2.32,0,0,4.59-.36,7.52.45,0,0-4.86.98-5.6,2.23,0,0,5.23-.54,7.98-.09,0,0-4.68.63-4.86,1.7,0,0,7.25,0,7.52,1.34,0,0-4.95-.18-6.24.63,0,0,6.51.89,7.8,1.79l-4.04.63s5.23,1.07,5.87,2.5c0,0-11.56-4.91-21.01-5.9s-12.29,1.43-13.95,2.77-5.41,4.82-4.77,7.68c0,0,2.02-3.84,6.88-6.88l-4.4,5.18,4.95-3.93s-3.03,4.02-3.03,5.36c0,0,4.68-7.41,6.7-8.75,0,0-3.39,4.2-3.3,5.81,0,0,6.51-6.25,7.16-6.16,0,0-4.95,4.38-4.86,7.24,0,0,5.69-5.9,7.43-6.43,0,0-4.31,2.41-3.49,4.47l4.68-4.2-2.84,4.47,1.38-.45s2.02-3.75,4.86-3.66l-3.76,3.48,1.93-.18s2.2-2.68,4.86-3.57c0,0-3.85,3.04-4.04,3.57l1.19.09s2.29-2.32,4.04-2.77l-1.65,2.59h.83l2.2-2.05-1.56,1.97,2.02.18,1.47-1.25-1.19,1.43h1.47l.92-.71-.09.89,2.38.09.64-1.25-.09,1.07,4.41.71Z"/><path class="cls-14" d="M435.26,231.97l-1.65,1.88-.18.05v.22s-6.42,2.32-11.19,6.34c-4.77,4.02-7.71,8.49-8.26,10.63-.55,2.14-.64,8.13-.64,8.13,0,0,.92-5,1.47-5.72,0,0,0,3.13.46,3.84l.55-6.25s.18,4.47,1.19,4.91c0,0-.27-5.63.46-7.41,0,0-.27,3.04.28,3.84,0,0,.83-7.06,2.75-8.93,0,0-2.29,3.66-.83,8.84l.44-1.97-.63.1.66-.27.62-2.77.92,2.13.37-.15.23-1.86-2.35-.21,2.81-.41.03-.93-1.38-.18,1.39-.27.04-1.16h-1.06l1.07-.25.03-1,.12.96,1.51-.35.21-.97.21.87.12-.03.25-1.52-.31-.04.32-.04.23-1.39.18,1.33.71-.1.39-1.95.46,1.79s1.19-3.84,2.11-4.29l.07,2.34.43-.08,1.98-3.33-.04,1.09.78-.21.82-1.86.55,1.43.92-1.07.43.75,7.64-2.54c-.37-.45-2.29-.45-2.29-.45l.27-1.43-.73,1.43h-.83l.09-.98-.55.98-1.74-.09.46-1.07-1.01.98h-2.39l1.01-1.34ZM431.83,237.62l-.05,1.5.64-1.45c-.2-.02-.39-.04-.59-.05h0ZM425.74,242.16l.17,1.26.22-.05.23-1.13-.61-.07ZM423.03,244.39l.13,1.09,1.01-.2.19-.89h-1.33ZM423.24,246.06l.1.78.52-.07.13-.61-.74-.1ZM422.4,247.56l.29,1.2.04-1.17-.33-.03ZM423.44,247.65l.08.66.14-.64-.22-.02ZM421.98,250.07h-.07s.05.13.05.13l.02-.13Z"/><path class="cls-40" d="M449.74,217.38l-.8,10.79,1.35,2.42s.15-.82.87-2.13l-.35-10.66c-.34-.16-.7-.31-1.06-.43h0ZM451.25,231.32l-.4.08.41.11v-.19Z"/><path class="cls-26" d="M414.83,329.08s3.82-2.13,6.01-.09l-.73,1.51-3.73.27-1.55-1.68Z"/><path class="cls-1" d="M417.29,324.44l-.08,5.77h.76s.08-5.76.08-5.76h-.76Z"/><path class="cls-8" d="M414.68,330.95s.77.31.62,1.43c-.15,1.12-.46,5.15,2.46,5.15s2.54-3.91,2.54-4.53.23-1.8.23-1.8v-2.23s-2.92,2.11-5.85-.06v2.05Z"/><path class="cls-49" d="M417.47,331.87s-.23,1.39-.23,2.79c0,.7.05,1.4.24,1.95.09.28.22.52.42.71.05.04.1.08.15.12.25,0,.47-.03.67-.09v-.24c-.13.01-.24-.03-.32-.12-.13-.15-.23-.32-.29-.51-.16-.47-.22-1.14-.22-1.81,0-1.35.23-2.72.23-2.72l-.65-.07Z"/><path class="cls-38" d="M420.76,330.69c-2.65.84-4.57.57-5.82.1v.18c.1.26.29.48.54.6,2.45,1.16,4.37.22,5.3-.45l-.03-.43Z"/><path class="cls-39" d="M408.49,374.58c-.66-1.66-6.03-1.53-10.22-.25-4.19,1.28-6.55.89-15.6,1.02-9.04.13-14.15,2.17-14.94,2.42s-14.42,6.76-19.66,8.42c-5.24,1.66-10.22,0-10.22,0,0,0,6.03,5.74,14.55,1.15,0,0-7.08,3.83-11.66,4.34,0,0,6.85,1.4,12.63-1.04.52-.22,1.03-.47,1.52-.75,3.62-1.75,6.85-3.11,9.76-4.17,16.58-6,23.03-2.18,34.4-5.02"/><path class="cls-2" d="M408.46,374.34c-.78,1.47-5.24.64-8.1,1.55.69.59,2.66,1.63,8.19,2.66.92-3.35-.09-4.21-.09-4.21Z"/><path class="cls-23" d="M364.02,385.42c-5.33,1.75-7.9,3.37-10.81,4.42M363.36,384.45c-4.62,1.6-7.28,3.13-10.11,4.2M362.71,383.48c-3.92,1.44-6.65,2.9-9.41,3.97M362.05,382.51c-3.21,1.29-6.03,2.66-8.71,3.74M361.4,381.54l-8.01,3.52"/><path class="cls-48" d="M370.26,382.85s7.46-2.19,13.23-1.51M371.11,381.48s7-1.92,13.16-1.4M371.95,380.11s6.54-1.64,13.09-1.3M372.8,378.74s6.09-1.37,13.02-1.2M373.64,377.37s5.63-1.1,12.95-1.1"/><path class="cls-23" d="M393.49,376.14l6.75-1.28c2.88-.41,5.78-.58,6.62.18M392.85,377.3s3.93-.43,7.1-1.2M392.22,378.47s4.5-.06,7.46-1.12M391.59,379.63s5.06.31,7.81-1.04M390.95,380.68s5.64.61,8.17-.86"/><path class="cls-39" d="M400.55,375.72l-1.79,7.68c11.93,5.39,45.56,5.64,48.69,5.65h0s.3,0,.3,0h.29s0,0,0,0c3.14-.01,37.79-.25,49.73-5.65l-1.79-7.68s-1.49,4.93-48.24,5.8c-46.75-.87-47.2-5.8-47.2-5.8h0Z"/><path class="cls-15" d="M487.41,374.52c.66-1.66,6.03-1.53,10.23-.26,4.2,1.27,6.56.89,15.61,1.02,9.05.13,14.17,2.17,14.96,2.42s14.43,6.76,19.68,8.42c5.25,1.66,10.23,0,10.23,0,0,0-6.03,5.74-14.56,1.15,0,0,7.08,3.83,11.68,4.34,0,0-6.85,1.4-12.64-1.04-.52-.22-1.03-.47-1.53-.75-3.63-1.75-6.86-3.11-9.77-4.16-16.6-6-23.05-2.18-34.44-5.02"/><path class="cls-43" d="M531.93,385.36c5.33,1.75,7.91,3.36,10.82,4.42M532.59,384.39c4.63,1.6,7.28,3.13,10.12,4.19M533.24,383.42c3.92,1.44,6.66,2.9,9.42,3.97M533.9,382.45c3.22,1.29,6.04,2.66,8.72,3.74M534.56,381.48l8.01,3.52"/><path class="cls-3" d="M525.68,382.79s-7.47-2.19-13.24-1.51M524.83,381.42s-7.01-1.92-13.17-1.4M523.99,380.05s-6.55-1.64-13.1-1.3M523.14,378.68s-6.09-1.37-13.03-1.2M522.3,377.31s-5.63-1.1-12.96-1.1"/><path class="cls-43" d="M502.43,376.07l-6.76-1.27c-2.89-.41-5.78-.58-6.63.18M503.07,377.24s-3.94-.43-7.11-1.2M503.7,378.4s-4.5-.06-7.46-1.12M504.34,379.57s-5.07.31-7.82-1.04M504.97,380.62s-5.64.61-8.18-.86"/><path class="cls-25" d="M487.44,374.28c.78,1.47,5.24.64,8.11,1.55-.69.59-2.66,1.63-8.2,2.66-.92-3.35.09-4.21.09-4.21Z"/><path class="cls-54" d="M408.49,379.99l-.69-.13-.99,4.99,3.29.62.12-.6-2.6-.49.87-4.39ZM411.21,382.3l.52.08.3-1.78-.52-.08-.3,1.78ZM416.26,381.2l-.45,3.18c-.04.27-.11.49-.21.65-.11.17-.23.3-.38.39-.3.16-.62.22-.96.17-.15-.02-.3-.06-.45-.13-.15-.07-.28-.16-.39-.28-.11-.12-.19-.28-.24-.47-.06-.19-.07-.42-.03-.69l.44-3.17-.7-.09-.47,3.36c-.07.49.03.92.3,1.32.27.4.75.66,1.43.76.71.09,1.26-.03,1.66-.36.39-.32.62-.74.69-1.26l.46-3.27-.7-.1ZM420.91,385.82h-.01s-2.16-4.34-2.16-4.34l-.83-.08-.54,5.05.68.07.44-4.08h.01s2.2,4.35,2.2,4.35l.79.08.54-5.05-.68-.07-.44,4.08ZM423.86,381.96l-.7-.06-.45,5.06.7.06.45-5.06ZM428.88,384.88c-.05.6-.25,1.08-.59,1.44-.35.36-.8.53-1.37.49-.57-.04-1-.27-1.28-.68-.3-.4-.42-.91-.38-1.51.04-.61.24-1.09.59-1.45.34-.36.8-.52,1.37-.49.57.04,1,.27,1.29.67.29.4.41.9.37,1.52h0ZM429.6,384.93c.02-.28,0-.58-.05-.9-.06-.32-.18-.61-.36-.89-.17-.29-.42-.53-.73-.72-.32-.19-.73-.3-1.21-.34-.24-.02-.46-.01-.67.02-.21.03-.39.08-.56.15-.34.15-.62.35-.83.61-.21.25-.37.53-.47.83-.11.3-.18.6-.2.88-.02.27,0,.57.07.88.06.31.18.61.35.9.18.29.42.52.74.72.31.2.71.31,1.19.35.25.02.47,0,.68-.03.21-.03.39-.08.57-.15.34-.15.61-.35.82-.61.21-.26.38-.54.49-.84.1-.3.16-.59.18-.86h0ZM433.76,386.7h-.01l-2.38-4.23-.83-.04-.27,5.07.68.04.22-4.1h.01l2.43,4.23.79.04.27-5.07-.68-.04-.22,4.09ZM438.37,385.56l2.56.08.02-.61-2.56-.08.05-1.55,2.9.09.02-.61-3.61-.11-.17,5.08.71.02.08-2.31ZM444.38,386.54l.49,1.49.77.02-1.79-5.11-.8-.02-2.06,5.04h.72s.58-1.45.58-1.45l2.09.04ZM442.51,385.89l.88-2.22h.01l.73,2.25-1.62-.03ZM447.17,382.97h-.71s-.04,5.07-.04,5.07h.71s.04-5.07.04-5.07ZM447.66,383.59l1.76-.02.06,4.47h.71s-.06-4.48-.06-4.48l1.77-.02v-.61s-4.25.05-4.25.05v.61ZM455.23,382.84l-.7.02.16,5.08,3.35-.1-.02-.61-2.65.08-.14-4.47ZM461.58,386.21l.58,1.46.77-.03-2.11-4.99-.8.03-1.73,5.16.72-.03.48-1.5,2.09-.09ZM459.68,385.68l.74-2.27h.01s.87,2.2.87,2.2l-1.62.07ZM466.23,385.14l2.55-.16-.04-.61-2.55.16-.1-1.55,2.9-.18-.04-.61-3.61.23.33,5.07.7-.04-.15-2.3ZM473.91,384.35c.05.6-.07,1.11-.36,1.51-.29.41-.71.64-1.28.69-.57.04-1.03-.12-1.38-.48-.36-.36-.56-.83-.61-1.43-.05-.61.07-1.12.36-1.52.28-.41.71-.64,1.28-.69.57-.04,1.03.12,1.38.47.35.35.55.83.61,1.44h0ZM474.63,384.29c-.02-.28-.09-.58-.19-.88-.11-.3-.28-.58-.49-.83-.22-.26-.49-.46-.83-.6-.35-.14-.76-.19-1.25-.15-.24.02-.46.06-.66.12-.2.06-.38.14-.53.23-.31.2-.55.44-.73.73-.17.28-.28.58-.34.89-.06.32-.08.62-.06.9.02.27.09.56.21.86.11.3.27.58.48.83.22.25.5.45.84.6.34.15.75.21,1.23.17.25-.02.47-.06.67-.13.2-.06.38-.14.54-.23.31-.2.55-.44.72-.72.17-.29.29-.59.35-.9.05-.31.06-.6.04-.88h0ZM476.22,384.49l1.7-.18c.21-.02.38-.01.51.03.13.04.23.1.3.18.07.08.13.17.16.28.03.11.04.21.06.32.01.11.04.31.09.58.03.13.05.25.08.37.03.12.06.22.09.3l.86-.09v-.11c-.12-.05-.2-.11-.24-.17-.04-.07-.07-.17-.09-.3l-.14-.91c-.03-.17-.06-.32-.11-.43-.05-.11-.11-.19-.17-.25-.06-.07-.13-.11-.21-.14-.08-.03-.16-.05-.24-.07.08-.06.16-.12.24-.2.08-.07.15-.15.21-.25.06-.1.11-.22.14-.36.02-.13.02-.29,0-.48-.07-.52-.28-.86-.65-1.03-.36-.15-.77-.2-1.21-.15l-2.4.25.57,5.05.7-.08-.24-2.17ZM475.97,382.19l1.75-.19c.19-.03.4,0,.61.06.1.04.19.12.27.22.08.11.13.26.15.46.02.18,0,.33-.04.45-.05.13-.12.22-.21.29-.09.07-.2.12-.33.16-.12.04-.25.07-.38.08l-1.63.17-.19-1.71ZM484.69,382.06c-.11-.43-.37-.79-.77-1.06-.4-.28-.93-.37-1.6-.29-.76.11-1.31.44-1.66.97-.36.54-.48,1.2-.37,1.99.15.95.49,1.61,1.03,1.96.52.35,1.08.48,1.69.39.11-.02.26-.05.47-.11.21-.06.43-.17.65-.33.23-.16.42-.39.58-.7.16-.3.25-.69.26-1.16l-.68.09c-.02.29-.07.54-.15.74-.09.2-.2.36-.33.48-.13.11-.27.2-.4.26-.14.06-.27.1-.39.11-.63.08-1.1-.06-1.42-.42-.32-.35-.51-.83-.6-1.43-.09-.66,0-1.19.28-1.57.26-.37.63-.59,1.11-.66.13-.02.27-.03.42-.03.15,0,.3.04.45.1.15.06.29.15.42.27.13.12.23.29.31.51l.68-.09ZM489.83,384.12l-3.09.57-.33-1.67,2.81-.52-.12-.6-2.81.52-.3-1.53,3.04-.57-.12-.6-3.73.69.98,4.99,3.78-.7-.12-.59Z"/></svg>