<?xml version="1.0" encoding="UTF-8"?><svg id="_色修正" xmlns="http://www.w3.org/2000/svg" viewBox="0 0 900 600"><defs><style>.cls-1{fill:#f3dc24;}.cls-1,.cls-2,.cls-3,.cls-4,.cls-5,.cls-6,.cls-7,.cls-8,.cls-9{stroke-width:0px;}.cls-2{fill:#a37e5f;}.cls-3{fill:#347552;}.cls-4{fill:#1b4399;}.cls-5{fill:#211815;}.cls-6{fill:#e50012;}.cls-7{fill:#ae2a34;}.cls-8{fill:#ecca4b;}.cls-9{fill:#0068b6;}</style></defs><path class="cls-6" d="M0,0h900v600H0V0Z"/><path class="cls-1" d="M0,0h600v600H0V0Z"/><path class="cls-9" d="M0,0h300v600H0V0Z"/><path class="cls-5" d="M423.98,166.24c-1.53-.07-3.04.34-4.32,1.18,1.51.45,2.55,1.84,2.53,3.42v4.17h-4.17c-1.57.02-2.96-1-3.42-2.5-1.57,2.66-1.57,5.97,0,8.63.45-1.51,1.85-2.55,3.42-2.53h4.17v20.05c.01,1.51-.94,2.86-2.36,3.37,1.99.27,3.7,2.94,4.17,4.4.47-1.46,2.18-4.13,4.17-4.4-1.44-.49-2.4-1.85-2.39-3.37v-20.06h4.17c1.57-.02,2.96,1,3.42,2.5,1.57-2.66,1.57-5.97,0-8.63-.45,1.51-1.85,2.55-3.42,2.53h-4.17v-4.17c-.02-1.57,1-2.96,2.5-3.42-1.28-.84-2.79-1.25-4.32-1.18h0Z"/><path class="cls-8" d="M423.98,167.1c-.84,0-1.68.14-2.47.4.98.83,1.55,2.05,1.55,3.34v4.17c0,.06-.01.12-.03.17v.66h-.66c-.06.02-.11.03-.17.03h-4.17c-1.27,0-2.48-.56-3.31-1.52-.28.8-.42,1.63-.43,2.47,0,.84.14,1.68.4,2.47.83-.98,2.05-1.55,3.34-1.55h5.04c0,.09-.03.17-.03.26v.43c.02.06.03.11.03.17v20.05c-.04,1.22-.61,2.36-1.55,3.14.62.39,1.18.87,1.64,1.44.34.47.63.97.86,1.5.24-.53.52-1.03.86-1.5.46-.55,1-1.03,1.61-1.41-.95-.78-1.52-1.93-1.55-3.16v-20.89h.69c.06-.02.11-.02.17-.03h4.17c1.27,0,2.48.56,3.31,1.52.28-.8.42-1.63.43-2.47,0-.84-.14-1.68-.4-2.47-.83.98-2.05,1.55-3.34,1.55h-4.17c-.06,0-.12-.01-.17-.03h-.66v-.66c-.02-.06-.03-.11-.03-.17v-4.17c0-1.27.56-2.48,1.52-3.31-.8-.28-1.63-.42-2.47-.43"/><path class="cls-5" d="M476.2,239.72c-2.44-1.65-4.52-3.78-6.13-6.24-3.58-5.75-5.09-12.8-5.09-19.97,0-3.03,3.39-6.44,3.39-8.89.02-1.98-.09-3.96-.35-5.93,1.2.16,3.31,2.3,3.31,2.3,0,0-.07-6.15-2.01-7.22,0,0,.79-.81,3.63-.89-.8-2.02-4.75-4.49-4.75-4.49.25-.4.61-.71,1.04-.92,1.09-.54,2.25-.91,3.45-1.12-1.31-.28-2.61-.64-3.88-1.07-3.68-1.23-7.27-2.69-10.76-4.37-4.46-2.24-9.39-3.39-14.39-3.37-2.01,0-4.97.06-6.7,1.21-1.59,1.05-1.46,2.42-2.01,2.91-1.31,1.13-3.55,1.09-4.63,1.09-6.99,0-7.25,7.48-7.25,7.48,0,0,1.79-2.71,4.95-2.71,5.26,0,9.24,2.86,9.24,3.94,0,.44-.54.52-.57.52-3.43,0-8.61-1.98-11.37-2.07v1.35c6.14,2.14,12.37,5.16,12.37,18.5,0,8.4-1.01,16.97-5.21,23.71-1.62,2.47-3.71,4.59-6.16,6.24l24.95,4.5,24.95-4.5h0Z"/><path class="cls-5" d="M451.26,234.1l-24.94,5.62c-1.13-.34-6.47-2-10.21-4.09-6.59-3.67-10.01-7.32-17.84-7.68v-5.96c0-3.18,1.15-6.05,1.15-9.09-3.3-.89-12.46-12.09-20.92-17.06-12.44,8.06-22.07,21.28-22.07,27.36v176.2c0,2.62-1.58,6.33-1.58,6.33,4.54-1.92,12.86-13.31,14.62-17.64v2.07c6.86-3.13,11.88-11.34,14.13-15.59l.14,2.16c6.13-5.37,13.93-37.12,13.93-37.12l13,12.77s-4.7,9.54-6.53,11.25c.87.1,1.74.15,2.62.14-.86,1.23-7.39,10.64-9.44,14.18-1.92,3.32-3.27,1.84-6.21,1.84-2.44,0-7.98,3.89-8.89,5.47-.98,1.61-1.56,3.44-1.67,5.32,0,1.82,1.93,4.32,1.93,4.32.07-.44.27-.85.57-1.18l5.81,7.14c.58.64,3.17,1.06,4.09.23,2.29-2.08,4.5-3.53,6.53-6.53,1.05-1.55,1.13-3.32,2.33-4.98l13.87-18.62.34,1.93c2.08-4.19,12.06-12.2,12.06-12.2l10.44,4.81s-19.5,44.81-36.8,51.7c0,0,7.53,3.2,16.77,8l4.14,2.22c1.24-1.49,2.44-3.02,3.6-4.58,5.53-7.4,10.93-15.97,10.93-15.97.38,2.23-2.54,9.1-7.48,17.58l-3.11,5.18,3.74,2.19c9.16,5.51,17.76,11.85,20.95,17.67l2.25-5.63-2.25-5.63v-196.69l1.12-2.81-1.11-4.65Z"/><path class="cls-2" d="M451.25,438.25c-3.23-3.5-9.99-7.79-17.58-11.74,9.18-16.48,13.73-42.52,11.59-47.71,0,0-3.77,13.51-8.37,21.21-4.26,7.13-9.51,15.15-14.59,21.09-3.81-1.65-7.71-3.09-11.68-4.32,15.21-11.71,30.76-50.44,30.76-50.44l-16.08-7.45s-6.02,7.01-7.97,8.32c0,0-.83-3.49-1.32-4.72,0,0-2.3,1.74-3.57,1.79l-.66-3.91c-1.59,1.06-4.23.83-4.23.83,2.32-1.1,5.06-7.83,5.06-7.83l-15.36-20.43s-5.39,25.92-11.54,31.25v-111.61l4.86,4.52,7.37-6.88v-5.24l-6.53,6.1v-15.8c.75-1.13,1.46-2.29,2.13-3.48,1.06,1.84,4.47,7.49,8.49,10.96.66-2.69,5.01-5.24,5.01-5.24,0,0,1.56,4.22,3.94,5.27.84-1.48,5.84-4.75,5.84-4.75,0,0-4.28.65-6.01,2.27-1.49-.33-1.87-6.22-1.87-6.22,0,0-6.3,3.07-7.39,5.27-1.2-.32-3.07-5.05-3.8-6.99,1.56-.17,3.12-.26,4.69-.26,1.8,0,4.09.85,6.5,1.99,2.65,1.25,5.41,2.82,7.88,3.94,3.17,1.43,7.95,1.72,9.35,1.78-1.68,1.16-3.44,2.2-5.26,3.11,0,0,7.54-.07,12.83-2.71,1.92-1.16,3.77-2.45,5.52-3.86-.81,2.35-2.04,4.54-3.63,6.44,7.78-.66,11.65-5.1,12.75-6.59.7,1.9,1.67,3.7,2.88,5.32h2.81v191.09l-2.82,5.6h0ZM393.94,213.48l.14,3.57v10.5c-2.82-.97-6.37-5.61-8.08-8.06v-1.44c.04-1.11.54-2.15,1.38-2.88l-1.7-.6c-.83.88-1.32,2.04-1.35,3.25v.83l-5.06,5.44-4.98-7.54v-1.84c0-1.24.95-2.62,1.76-3.57l-1.67-.6c-.84,1.09-1.73,2.56-1.73,3.94v1.5l-5.73,5.9-2.91-6.24c3.49-4.83,9.14-10.24,14.47-14.12,0,0,11.56,10.61,15.45,11.96h0ZM364.65,223.67v8.66l-4.03,3.74v-12.86c.11-1.54.59-3.02,1.38-4.35l2.65,4.8h0ZM377.19,227v5.35l-4.63,4.35v-16.75l4.63,7.05h0ZM370.92,236.67l-4.63-4.32v-6.27l4.63-4.86v15.45ZM392.07,230.17c-1.08,1.52-3.89,5.24-6.93,6.88v-14.7c.7,1.16,3.9,6.34,6.93,7.83ZM383.49,223.09v13.58l-4.63-4.32v-4.8l4.63-4.46ZM364.65,237.56v13.55l-4.03-3.77v-6.01l4.03-3.77ZM370.92,241.91v4.86l-4.63,4.32v-13.49l4.63,4.32ZM377.19,237.59v13.49l-4.63-4.35v-4.8l4.63-4.34ZM383.49,241.94v4.8l-4.63,4.34v-13.49l4.63,4.34h0ZM389.76,251.12l-4.63-4.35v-4.52c1.6-.98,3.2-2.77,4.63-4.66v13.52h0ZM378.03,257.1l4.89-4.55v111.64l.58,9.15-10.36,10.47v-131.29l4.89,4.58h0ZM370.34,379.64c0,3.59-6.55,11.96-9.72,13.87v-140.93l4.83,4.52,4.89-4.55v127.09Z"/><path class="cls-7" d="M410.97,367.53l3.57-2.45.55,2.79-14.65,19.91c-1.08,1.45-1.99,5.15-1.99,5.15,0,0-1.58-.75-1.58-2.1s.17-2.91.17-2.91c-.85.86-2.01,1.35-3.22,1.35,0-1.63,3.16-3.4,3.28-5.72-2.41,1.78-4.5.87-7.28,1.73-3.03.93-3.88,2.21-4.8,2.16-.55-.03-1.04-.97-.83-1.55.36-1,4.11-3.78,6.73-4.29.63-.12,5.57,1.07,6.56-.46l11.39-17.58c.39-.07.77-.21,1.12-.4,0,0-.04,3.23.98,4.37h0ZM388.03,387.24c.2.21.18.55-.03.75l-1.61,1.41c-.23.18-.56.14-.75-.09-.2-.21-.18-.55.03-.75l1.61-1.41c.1-.09.24-.13.37-.11.15.02.28.09.37.2h0ZM390.47,388.94c.48.5.46,1.3-.05,1.77h-.01s-3.91,3.43-3.91,3.43c-.59.45-1.43.33-1.88-.26-.4-.53-.35-1.28.12-1.75l3.91-3.4c.2-.16.44-.27.69-.29.43-.02.85.16,1.12.49ZM392.71,391.58c.48.5.46,1.29-.04,1.77,0,0,0,0,0,0h-.01s-3.94,3.44-3.94,3.44c-.55.44-1.34.35-1.78-.2h0c-.48-.52-.46-1.33.06-1.82l3.91-3.4c.18-.16.42-.26.66-.29.44-.02.86.16,1.15.49h0ZM394.07,393.68c.43-.04.84.14,1.12.46.48.52.46,1.33-.06,1.81l-3.91,3.4c-.6.43-1.43.29-1.86-.3-.37-.51-.33-1.22.1-1.68l3.94-3.42c.19-.16.42-.25.66-.26h0Z"/><path class="cls-5" d="M451.23,234.1l24.94,5.62c1.13-.34,6.47-2,10.21-4.09,6.59-3.67,10.01-7.32,17.84-7.68v-5.96c0-3.18-1.15-6.05-1.15-9.09,3.3-.89,12.46-12.09,20.92-17.06,12.44,8.06,22.07,21.28,22.07,27.36v176.2c0,2.62,1.58,6.33,1.58,6.33-4.54-1.92-12.86-13.31-14.62-17.64v2.07c-6.86-3.13-11.88-11.34-14.13-15.59l-.14,2.16c-6.13-5.37-13.93-37.12-13.93-37.12l-13,12.77s4.7,9.54,6.53,11.25c-.87.1-1.74.15-2.62.14.86,1.23,7.39,10.64,9.44,14.18,1.92,3.32,3.27,1.84,6.21,1.84,2.44,0,7.98,3.89,8.89,5.47.98,1.61,1.56,3.44,1.67,5.32,0,1.82-1.93,4.32-1.93,4.32-.07-.44-.27-.85-.57-1.18l-5.81,7.14c-.58.64-3.17,1.06-4.09.23-2.29-2.08-4.5-3.53-6.53-6.53-1.05-1.55-1.13-3.32-2.33-4.98l-13.87-18.62-.34,1.93c-2.08-4.19-12.06-12.2-12.06-12.2l-10.44,4.81s19.5,44.81,36.8,51.7c0,0-7.53,3.2-16.77,8l-4.14,2.22c-1.24-1.49-2.44-3.02-3.6-4.58-5.53-7.4-10.93-15.97-10.93-15.97-.38,2.23,2.54,9.1,7.48,17.58l3.11,5.18-3.74,2.19c-9.16,5.51-17.76,11.85-20.95,17.67l-2.25-5.63,2.25-5.63v-196.69l-1.12-2.81,1.11-4.65h0Z"/><path class="cls-2" d="M451.24,438.25c3.23-3.5,9.99-7.79,17.58-11.74-9.18-16.48-13.73-42.52-11.59-47.71,0,0,3.77,13.51,8.37,21.21,4.26,7.13,9.51,15.15,14.59,21.09,3.81-1.65,7.71-3.09,11.68-4.32-15.21-11.71-30.76-50.44-30.76-50.44l16.08-7.45s6.02,7.01,7.97,8.32c0,0,.83-3.49,1.32-4.72,0,0,2.3,1.74,3.57,1.79l.66-3.91c1.59,1.06,4.23.83,4.23.83-2.32-1.1-5.06-7.83-5.06-7.83l15.36-20.43s5.39,25.92,11.54,31.25v-111.61l-4.86,4.52-7.37-6.88v-5.24l6.53,6.1v-15.8c-.75-1.13-1.46-2.29-2.13-3.48-1.06,1.84-4.47,7.49-8.49,10.96-.66-2.69-5.01-5.24-5.01-5.24,0,0-1.56,4.22-3.94,5.27-.84-1.48-5.84-4.75-5.84-4.75,0,0,4.28.65,6.01,2.27,1.49-.33,1.87-6.22,1.87-6.22,0,0,6.3,3.07,7.39,5.27,1.2-.32,3.07-5.05,3.8-6.99-1.56-.17-3.12-.26-4.69-.26-1.8,0-4.09.85-6.5,1.99-2.65,1.25-5.41,2.82-7.88,3.94-3.17,1.43-7.95,1.72-9.35,1.78,1.68,1.16,3.44,2.2,5.26,3.11,0,0-7.54-.07-12.83-2.71-1.92-1.16-3.77-2.45-5.52-3.86.81,2.35,2.04,4.54,3.63,6.44-7.78-.66-11.65-5.1-12.75-6.59-.7,1.9-1.67,3.7-2.88,5.32h-2.81v191.09l2.82,5.6h0ZM508.55,213.48l-.14,3.57v10.5c2.82-.97,6.37-5.61,8.08-8.06v-1.44c-.04-1.11-.54-2.15-1.38-2.88l1.7-.6c.83.88,1.32,2.04,1.35,3.25v.83l5.06,5.44,4.98-7.54v-1.84c0-1.24-.95-2.62-1.76-3.57l1.67-.6c.84,1.09,1.73,2.56,1.73,3.94v1.5l5.73,5.9,2.91-6.24c-3.49-4.83-9.14-10.24-14.47-14.12,0,0-11.56,10.61-15.45,11.96h0ZM537.84,223.67v8.66l4.03,3.74v-12.86c-.11-1.54-.59-3.02-1.38-4.35l-2.65,4.8h0ZM525.29,227v5.35l4.63,4.35v-16.75l-4.63,7.05h0ZM531.57,236.67l4.63-4.32v-6.27l-4.63-4.86v15.45ZM510.42,230.17c1.08,1.52,3.89,5.24,6.93,6.88v-14.7c-.7,1.16-3.9,6.34-6.93,7.83ZM518.99,223.09v13.58l4.63-4.32v-4.8l-4.63-4.46h0ZM537.84,237.56v13.55l4.03-3.77v-6.01l-4.03-3.77ZM531.57,241.91v4.86l4.63,4.32v-13.49l-4.63,4.32ZM525.3,237.59v13.49l4.63-4.35v-4.8l-4.63-4.34ZM519,241.94v4.8l4.63,4.34v-13.49l-4.63,4.34h0ZM512.73,251.12l4.63-4.35v-4.52c-1.6-.98-3.2-2.77-4.63-4.66v13.52h0ZM524.46,257.1l-4.89-4.55v111.64l-.58,9.15,10.36,10.47v-131.29l-4.89,4.58h0ZM532.15,379.64c0,3.59,6.55,11.96,9.72,13.87v-140.93l-4.83,4.52-4.89-4.55v127.09h0Z"/><path class="cls-7" d="M491.52,367.53l-3.57-2.45-.55,2.79,14.65,19.91c1.08,1.45,1.99,5.15,1.99,5.15,0,0,1.58-.75,1.58-2.1s-.17-2.91-.17-2.91c.85.86,2.01,1.35,3.22,1.35,0-1.63-3.16-3.4-3.28-5.72,2.41,1.78,4.5.87,7.28,1.73,3.03.93,3.88,2.21,4.8,2.16.55-.03,1.04-.97.83-1.55-.36-1-4.11-3.78-6.73-4.29-.63-.12-5.57,1.07-6.56-.46l-11.39-17.58c-.39-.07-.77-.21-1.12-.4,0,0,.04,3.23-.98,4.37h0ZM514.46,387.24c-.2.21-.18.55.03.75l1.61,1.41c.23.18.56.14.75-.09.2-.21.18-.55-.03-.75l-1.61-1.41c-.1-.09-.24-.13-.37-.11-.15.02-.28.09-.37.2h0ZM512.02,388.94c-.48.5-.46,1.3.05,1.77h.01s3.91,3.43,3.91,3.43c.59.45,1.43.33,1.88-.26.4-.53.35-1.28-.12-1.75l-3.91-3.4c-.2-.16-.44-.27-.69-.29-.43-.02-.85.16-1.12.49ZM509.77,391.58c-.48.5-.46,1.29.04,1.77,0,0,0,0,0,0h.01s3.94,3.44,3.94,3.44c.55.44,1.34.35,1.78-.2h0c.48-.52.46-1.33-.06-1.82l-3.91-3.4c-.18-.16-.42-.26-.66-.29-.44-.02-.86.16-1.15.49h0ZM508.42,393.68c-.43-.04-.84.14-1.12.46-.48.52-.46,1.33.06,1.81l3.91,3.4c.6.43,1.43.29,1.86-.3.37-.51.33-1.22-.1-1.68l-3.94-3.42c-.19-.16-.42-.25-.66-.26h0Z"/><path class="cls-2" d="M445.47,179.39c6.44,0,10.97,2.94,17.06,5.64,1.6.71,3.06,1.28,4.37,1.73-.71.54-1.27,1.26-1.64,2.07,0,0,2.73.51,3.97,2.79,0,0-2.6.29-3.02,1.81,1.45.11,2.9,1.94,2.91,3.71l-3.68-1.15c.57,2.84.87,5.73.89,8.63,0,2.3-3.31,5-3.31,8.89,0,12.22,3.08,16.91,5.27,20.69.86,1.48,1.55,3.18,2.99,4.46-6.3-3.36-10.99-7.55-10.99-11.45v-14.76h-1.64v14.76c0,2.83.69,4.14.69,4.14.99,3.13,2.99,7.95,4.23,9.9-5.8-3.14-8.75-7.06-8.75-8.52v-20.29h-1.64v20.57l.32,1.41c-.7,1.06-1.62,2.31-2.24,2.73-.63-.42-1.51-1.68-2.22-2.73l.32-1.41v-20.57h-1.64v20.29c0,1.46-2.95,5.38-8.75,8.52,1.24-1.94,3.24-6.77,4.23-9.9,0,0,.69-1.32.69-4.14v-14.76h-1.64v14.76c0,3.89-4.67,8.1-10.96,11.45,1.43-1.28,2.11-2.99,2.96-4.46,2.39-4.13,5.35-9.38,5.35-24.31,0-5.61-.83-9.42-2.27-12.08-.44-.88-1.03-3.22,2.33-3.22,1.74,0,5.73,3.08,5.73,3.08-.16-1.53-.95-2.93-2.19-3.86-.51-.4-.83-.99-.89-1.64.23-.86.79-1.61,1.55-2.07.47-.21-6.85-1.49-6.85-4.8,0-.69.43-1.15,1.96-1.15,1.99,0,5.23,2.39,8.11,2.39,2.13,0,2.97-.52,5.15-.52,2.67,0,8.23,5.05,10.13,4.86-2.13-1.33-5.56-6.39-10.76-6.39-1.8,0-3.44.4-5.12.4-2.16,0-4.28-1.99-6.62-1.99-1.56,0-3.31.09-3.57-.32-.45-.71-.04-1.11.37-1.7.79-1.1,3.02-1.42,5.21-1.5.64-.02,1.29-.03,1.93-.03l1.67.03h0Z"/><path class="cls-7" d="M424.56,187.29c1.02-1.65,2.85-2.63,4.8-2.57,1.44,0,6.18-.1,6.18-.1.63,1.64,3.51,4.39,3.51,7.24,0,0-2.92-5.27-11.09-5.27-1.17-.02-2.33.22-3.4.71h0s0,0,0,0ZM437.83,192.86s-1.74,1.83-2.12,2.81c-1.72-.65-4.72-3.74-4.72-3.74,0,0,2.54,1.48,6.84.94h0Z"/><path class="cls-5" d="M435.08,188.01s-2.01-.64-2.01-1.32c0-.86.97-.86,1.56-.19.28.45.43.97.45,1.51h0s0,0,0,0Z"/><ellipse class="cls-5" cx="444.43" cy="189.11" rx="4.14" ry="3.15"/><circle class="cls-8" cx="444.43" cy="189.11" r="2.88"/><circle class="cls-5" cx="444.43" cy="189.11" r="1.32"/><path class="cls-5" d="M397.94,395.95l9.11,4.97-2.21,10.13-9.11-4.97,2.21-10.13Z"/><path class="cls-5" d="M355.52,298.59l-3.28,1.5,37.06,81.17h3.94l-37.72-82.67ZM399.22,394.32l-2.68,2.76,1.67,3.68,3.25-1.5-2.24-4.95Z"/><path class="cls-5" d="M367.03,362.59s3.12,6.45,5.49,7.33c-1.23-.33-5.21,1.13-5.21,1.13,0,0,7.02,6.28,12.98,6.69,5.05.35,7.51-2.17,7.51-2.17l-1.01-5.35c-2.19-2.45-4.95-4.32-8.04-5.46-5-1.74-11.72-2.16-11.72-2.16h0s0,0,0,0ZM390.57,351.04s-4.31,3.69-5.49,7.96.77,9.13.77,9.13l3.62,6.76s5.02-2.67,7.15-6.67,1.35-9.38,1.35-9.38c0,0-3.98,1.48-4.48,2.14.84-4.43-2.93-9.94-2.93-9.94h0ZM376.71,349.32s-4.9,1.66-9.66,1.37c-4.53-.27-8.31-4.08-8.31-4.08,0,0,3.76-2.54,5.61-2.2-2.04-.75-5-5.86-5-5.86,0,0,4.21-1.27,7.93.13s6.98,5.49,6.98,5.49l2.44,5.15h0ZM378.4,325.37s2.45,5.08,1.87,6.84c.76-1.17,3.64-3,3.64-3,0,0,1.74,8.22.08,13.3s-6.73,7.01-6.73,7.01l-5.59-10.87s-.83-4.03.91-7.21c1.74-3.19,5.82-6.06,5.82-6.06h0ZM346.5,311.93s5.3-.56,10.15,1.45c4.05,1.68,5.29,4.74,5.29,4.74l2,5.35s-5.77,2.16-10.32.51c-4.56-1.65-7.91-7.13-7.91-7.13,0,0,3.18-1.21,4.4-.75-1.77-.78-3.6-4.17-3.6-4.17h0s0,0,0,0h0ZM363.17,302s2.33,2.99,2.39,6.42c.62-1.83,3.52-3.84,3.52-3.84,0,0,2.99,7.22,2.33,12.35s-4.95,8.16-4.95,8.16l-5.36-10.17s-1.75-4.17-1.23-7.4,3.29-5.53,3.29-5.53h0s0,0,0,0ZM344.82,282.56s-.96,5.54.67,8.73c1.46,2.85,2.39,3.47,2.39,3.47-2.78-1.84-6.99-2-6.99-2,0,0,1.5,6.03,5.08,8.77,3.58,2.75,9.1,2.11,9.1,2.11,0,0,3.63-4.83,3.38-10.04s-4.39-10.79-4.39-10.79c0,0-1.63,3.38-1.77,5.91-1.06-2.6-7.47-6.16-7.47-6.16h0ZM388.09,375.33l.15,1.99c3.3.03,3.79-.3,4.64.74.82.92,2.14,1.19,3.25.68,1.35-.63,1.95-2.22,1.34-3.58-.62-1.35-1.87-1.64-3.08-1.4-.74.15-1.23.74-1.86,1.06-1.2.62-4.45.51-4.45.51h0Z"/><path class="cls-5" d="M387.81,373.82l1.61,1.18c-1.72,2.82-2.26,3.06-1.83,4.33.34,1.18-.12,2.44-1.14,3.12-1.25.82-2.92.47-3.75-.76-.82-1.24-.4-2.45.44-3.35.52-.55,1.28-.65,1.88-1.01,1.16-.69,2.79-3.5,2.79-3.5h0s0,0,0,0ZM376.62,350.21l.15,1.99c3.3.03,3.79-.3,4.64.74.82.92,2.14,1.19,3.25.68,1.35-.63,1.95-2.22,1.34-3.58-.62-1.35-1.87-1.64-3.08-1.4-.74.15-1.23.74-1.86,1.06-1.2.62-4.45.51-4.45.51h0s0,0,0,0Z"/><path class="cls-5" d="M377.29,350.91l1.41,1.41c-2.14,2.51-2.71,2.67-2.48,3.99.16,1.22-.5,2.4-1.62,2.91-1.36.61-2.96.01-3.58-1.34-.62-1.35-.02-2.49.96-3.24.6-.46,1.36-.45,2.02-.71,1.25-.5,3.3-3.02,3.3-3.02h0ZM365.5,326.69l.15,1.99c3.3.03,3.79-.3,4.64.74.82.92,2.14,1.19,3.25.68,1.35-.63,1.95-2.22,1.34-3.58-.62-1.35-1.87-1.64-3.08-1.4-.74.15-1.23.74-1.86,1.06-1.2.62-4.44.51-4.44.51h0Z"/><path class="cls-5" d="M366.42,326.27l1.4,1.41c-2.14,2.52-2.71,2.67-2.48,3.99.16,1.22-.5,2.4-1.61,2.91-1.36.61-2.96.01-3.58-1.34-.61-1.35-.02-2.49.96-3.24.6-.46,1.36-.45,2.02-.71,1.25-.5,3.3-3.02,3.3-3.02h0ZM353.66,301.86l.15,1.99c3.3.03,3.79-.3,4.64.74.82.92,2.14,1.19,3.25.68,1.35-.63,1.95-2.22,1.34-3.58-.62-1.35-1.87-1.64-3.08-1.4-.74.15-1.23.74-1.86,1.06-1.2.62-4.45.51-4.45.51h0Z"/><path class="cls-5" d="M354.58,301.44l1.4,1.41c-2.14,2.52-2.71,2.67-2.48,3.99.16,1.22-.5,2.4-1.61,2.91-1.36.61-2.96.01-3.58-1.34-.62-1.35-.02-2.49.95-3.24.6-.46,1.36-.45,2.02-.71,1.25-.5,3.3-3.02,3.3-3.02h0Z"/><path class="cls-8" d="M399.25,398.82l5.65,3.08-1.37,6.29-5.65-3.08,1.37-6.29ZM374.53,344.32c-1.18.49-2.94-4.66-4.23-7.49-1.32-2.9-4.01-7.36-3.25-7.71.84-.38,1.94,1.96,3.29,4.93s5.29,9.81,4.18,10.27h0s0,0,0,0ZM362.37,317.18c-1.18.49-2.48-2.88-3.77-5.71-1.32-2.9-2.61-4.94-1.85-5.29.84-.38,2.07,2.16,3.16,4.53,1.05,2.3,3.57,6.01,2.46,6.47h0s0,0,0,0ZM390.49,378.72c-.93.25-4.98-8.24-8.26-15.42-3.28-7.18-5.72-12.99-4.96-13.34.84-.38,3.49,6.4,6.77,13.59,3.28,7.18,7.15,14.99,6.45,15.18h0Z"/><circle class="cls-8" cx="395.03" cy="376.3" r="1.46"/><circle class="cls-8" cx="384.95" cy="380.2" r="1.46"/><circle class="cls-8" cx="383.55" cy="351.15" r="1.46"/><circle class="cls-8" cx="373.47" cy="356.77" r="1.46"/><circle class="cls-8" cx="372.43" cy="327.64" r="1.46"/><circle class="cls-8" cx="362.6" cy="332.13" r="1.46"/><circle class="cls-8" cx="360.59" cy="302.81" r="1.46"/><circle class="cls-8" cx="350.76" cy="307.3" r="1.46"/><path class="cls-3" d="M346.45,285.92s-.14,4.05,1.2,6.34,4.33,3.21,4.33,3.21c0,0,.14-4.05-1.2-6.34s-4.33-3.21-4.33-3.21ZM343.65,295.08s3.52.21,5.55,1.76c2.03,1.56,2.82,4.8,2.82,4.8-1.56.08-3.1-.38-4.36-1.32-2.03-1.56-4-5.24-4-5.24ZM354.68,286.91c-.72,1.77-1.07,3.66-1.03,5.57.13,2.89,1.82,6.15,1.82,6.15,0,0,1.52-3.47,1.39-6.36s-1.77-4.54-2.18-5.36h0ZM348.76,312.96c1.17,1.54,2.67,2.82,4.38,3.72,2.66,1.31,6.62,1.36,6.62,1.36-1.27-1.59-2.85-2.9-4.63-3.88-2.66-1.31-6.37-1.21-6.37-1.21h0s0,0,0,0ZM349.62,318.56s1.27,2.48,3.59,3.55,7.07.98,7.07.98c-1.13-1.4-2.54-2.55-4.14-3.39-2.32-1.07-6.51-1.14-6.51-1.14h0ZM362.98,305.31c-.85,1.48-1.28,3.16-1.27,4.87.14,2.55,1.81,5.35,1.81,5.35,0,0,1.18-3.2,1.04-5.75-.12-1.6-.67-3.15-1.59-4.46h0ZM368.14,308.59s-2.4,3.22-2.74,6.53,1.36,6.71,1.36,6.71c0,0,2.9-2.91,3.24-6.22s-1.86-7.02-1.86-7.02h0s0,0,0,0ZM361.53,339.16c.26.9.7,1.73,1.29,2.45.82.95,1.73,1.83,2.72,2.6,1.21-.33,2.49-.36,3.72-.09,2.06.45,4.8,2.28,4.8,2.28,0,0-2.95-4.4-6.01-6.11-2.01-1.03-4.28-1.43-6.51-1.14h0s0,0,0,0ZM361.22,346.72s3.82-1.63,6.96-1.21c3.14.42,5.98,2.91,5.98,2.91,0,0-4.25,1.47-7.39,1.05-2.07-.37-4-1.32-5.55-2.75h0ZM377.36,328.98s-3.38,3.58-3.66,6.68,2.74,6,2.74,6c-.08-1.11.05-2.23.37-3.3.43-.97.98-1.88,1.63-2.71.27-.93.37-1.91.29-2.88-.26-1.32-.72-2.6-1.36-3.79h0ZM382.2,333.12s-3.18,3.22-4.02,6.67c-.84,3.45.66,7.12.66,7.12,0,0,2.89-2.28,3.74-5.73s-.37-8.06-.37-8.06h0ZM390.17,353.9c.83,1.76,1.44,3.62,1.81,5.53.37,2.52.03,3.39.03,3.39,0,0-1.49,1.47-2.16,2.33-.86,1.11-.98,3.13-.98,3.13,0,0-2.99-4.45-2.53-7.7s3.84-6.67,3.84-6.67h0s0,0,0,0ZM396.48,360.87s-3.83,2.53-5.35,5.13c-.9,1.59-1.17,3.47-.73,5.25,1.77-.25,3.34-1.3,4.25-2.84,1.52-2.6,1.83-7.55,1.83-7.55h0s0,0,0,0ZM371.3,371.56s5.52-.15,8.9.68,4.6,2.64,4.6,2.64c0,0-3.8,1.78-7.17.95s-6.33-4.27-6.33-4.27h0ZM370.37,365s2.49,3.86,5.71,5.26c4.44,1.93,9.58.99,9.58.99,0,0-2.79-3.42-6.63-4.93-3.84-1.51-8.66-1.33-8.66-1.33h0Z"/><path class="cls-5" d="M559.45,289.16l.72,1.52c-.72.27-1.32.78-1.7,1.44-.53,1.04.35,2.5.35,2.5,0,0-6.07-.53-7.02.09-.86.56.36,4.76-.2,8.32-.79,4.95-2.74,4.54-2.82,5.5-.08.93.75,2.39.75,2.39,0,0-1.14.36-1.38.83-.39.77.27,2.18-.2,3.11l-9.12,17.9c-.36.71-1.33.98-1.81,1.93-.26.69-.29,1.45-.09,2.16,0,0-1.71.1-2.3,1.27-.37.92-.46,1.93-.26,2.91-.69.12-1.29.56-1.61,1.18-.57,1.11.39,1.7.15,2.19l-10.04,19.71c-.92,1.8-4.12,2.16-5.99,5.81-1.07,2.01-.75,4.47.78,6.16,0,0-2.68.24-3.39,1.64-.73,1.42-.15,3.59,1.78,4.57,1.94.99,4.05.19,4.78-1.24.71-1.4-.72-3.71-.72-3.71,2.27.23,4.44-.98,5.44-3.02,1.86-3.65.29-6.43,1.21-8.23l10.04-19.71c.25-.49,1.27-.07,1.84-1.18.31-.63.31-1.36,0-1.99.91-.41,1.68-1.08,2.22-1.93.59-1.16-.32-2.62-.32-2.62.69-.25,1.29-.71,1.7-1.32.48-.95.13-1.88.49-2.59l9.12-17.9c.47-.93,2-1.25,2.39-2.01.24-.48-.14-1.61-.14-1.61,0,0,1.68-.17,2.39-.78.73-.63-.75-1.98,2.79-5.52,2.54-2.54,6.64-4.04,6.59-5.06-.06-1.13-4.06-5.73-4.06-5.73,0,0,1.69-.14,2.22-1.18.31-.71.37-1.5.17-2.24l1.67-.29v-7.91l-6.39,4.66h0ZM504.29,399.36c-.28.55-.28,1.2,0,1.75,0,0-2.01-.63-2.7-.29-.65.32,0,9.81,0,9.81,0,0,8.03-5.07,7.91-5.78-.13-.76-1.81-2.04-1.81-2.04.6-.09,1.13-.47,1.41-1.01.26-.52.3-2.01-1.53-2.94-.54-.3-1.16-.44-1.78-.4-.61.04-1.17.37-1.5.89h0Z"/><path class="cls-8" d="M560.91,289.48l3.8,1.93-.06-4.58-3.74,2.65ZM559.44,292.24c-.67,1.01-.39,2.37.62,3.04,1.01.67,2.37.39,3.04-.62.67-1.01.39-2.37-.62-3.04-.07-.05-.15-.09-.22-.13-.38-.2-.81-.29-1.24-.26-.67.03-1.27.41-1.58,1.01h0ZM552.91,295.72c-.4.26.14,3.68.03,6.59-.11,2.74-.99,3.52-1.47,4.46-.44.87-2.04,1.9-2.04,1.9l1.32,1.32s.86-1.34,2.22-4c1.6-3.14,1.55-8.82,2.01-9.12,1.23-.43,2.47-.8,3.74-1.09,0,0-3.06-.17-4.75-.14-.36-.02-.72,0-1.07.09h0ZM553.26,311.52c.59-1.45,1.25-2.88,1.99-4.26,1.86-3.65,5.83-6.3,5.93-6.96.1-.68-1.38-3.88-1.38-3.88,0,0-3.5.67-4,1.15-.48.46-.27,5.21-2.13,8.86-.69,1.42-1.46,2.8-2.3,4.14l1.9.95h0ZM562.21,300.55c.03.56-4.59,3.86-6.19,6.99-1.35,2.66-1.93,4.14-1.93,4.14l1.84.29s-.13-1.89.32-2.76c.48-.94.61-2.1,2.76-3.8,2.29-1.8,5.38-3.38,5.35-3.86-.02-.44-3.45-4.69-3.45-4.69.5,1.2.93,2.43,1.29,3.68h0ZM548.68,321.07c2.77-5.45,3.62-5.82,3.97-6.5.38-.74.29-1.73-.95-2.36-.37-.2-.79-.29-1.21-.26-.54.06-1.01.4-1.24.89-.35.69-.16,1.6-2.94,7.05l-6.3,12.34c-.36.63-.15,1.43.48,1.79,0,0,0,0,0,0,.03.02.06.04.1.05.61.34,1.37.12,1.71-.48.03-.05.05-.1.07-.15l6.3-12.37h0ZM537.55,335.22c-.34.68.25,1.67,1.32,2.22s2.25.44,2.59-.23-.27-1.67-1.35-2.22c-.48-.26-1.01-.38-1.55-.34-.41,0-.79.22-1.01.57h0ZM535.22,338.73c-.45.87.25,2.13,1.55,2.79,1.31.67,2.72.5,3.16-.37s-.25-2.13-1.55-2.79c-.45-.23-.94-.37-1.44-.4-.68-.1-1.35.2-1.73.78h0ZM533.75,342.65c-.34.67.25,1.67,1.32,2.21,1.08.55,2.25.44,2.59-.23s-.25-1.67-1.32-2.22c-.49-.26-1.03-.38-1.58-.35-.41,0-.79.22-1.01.58h0ZM532.8,346.39l-9.46,18.62c-.79,1.55-4.11,2.51-5.41,5.06-1.31,2.57-.39,4.97,1.32,5.84,1.71.87,4.22.24,5.52-2.33,1.3-2.55.13-5.82.92-7.37l9.47-18.62c.37-.61.18-1.4-.43-1.78-.04-.02-.08-.05-.12-.06-.25-.13-.53-.18-.81-.14-.44.09-.81.38-1.01.78h0ZM515.1,378.35c-.52,1.03.08,2.4,1.35,3.05s2.76.34,3.28-.69-.1-2.4-1.38-3.05c-.44-.23-.94-.35-1.44-.35-.75-.01-1.44.38-1.81,1.04h0ZM505.78,399.39c-.34-.03-.67.12-.86.4-.27.53.29,1.36,1.24,1.84s1.95.44,2.22-.09-.29-1.36-1.24-1.84c-.42-.22-.88-.33-1.35-.32h0s0,0,0,0ZM502.5,401.98v6.79l5.52-3.97c-1.2-1.86-3.31-2.94-5.52-2.82h0ZM506,250.74c0-3.72,4.89-7.39,4.89-7.39h-119.29s4.89,3.67,4.89,7.39v88.79c-.04,1.95.62,3.85,1.87,5.35,1.15,1.6,3.59,3.82,6.13,5.47,7.83,5.09,20.93,10.45,30.84,14.96,8.26,3.76,11.62,5.27,15.91,10.59,4.29-5.32,7.68-6.83,15.94-10.59,9.91-4.51,23.01-9.87,30.84-14.96,2.54-1.65,4.98-3.86,6.13-5.47,1.24-1.5,1.89-3.4,1.84-5.35v-88.79h0Z"/><path class="cls-7" d="M399.31,300.98v-50.24c.03-1.64-.48-3.25-1.44-4.57h106.75c-.96,1.33-1.47,2.93-1.44,4.57l.03,50.24-51.95,15.74-51.95-15.74h0Z"/><path class="cls-4" d="M503.21,300.98l-32.17-.6h-39.56l-32.17.6v38.56c0,1.94,2.01,6.48,13.61,12.26,19.17,9.55,33.91,14.01,38.32,19.45,4.42-5.44,19.15-9.9,38.32-19.45,11.6-5.78,13.61-10.32,13.61-12.26l.03-38.56h0Z"/><path class="cls-5" d="M470.26,298.97s18.56-4.68,18.56-24.51c0-15.49-18.61-23.18-19.13-26.87-1.82,6.4,6.21,15.23,6.21,25.69,0,13.54-9.98,14.19-9.98,14.19-2.34,0-3.28,1.67-4.2,1.67-1.97-.21-2.89-2.71-4.83-2.71-1.82,0-3.23,2.82-5.64,2.82s-3.79-2.82-5.61-2.82c-1.94,0-2.87,2.5-4.83,2.71-.92,0-1.87-1.67-4.2-1.67,0,0-9.98-.65-9.98-14.19,0-10.46,8.03-19.3,6.21-25.69-.53,3.7-19.13,11.38-19.13,26.87,0,19.83,18.56,24.51,18.56,24.51l-5.29,9.64s7.67.38,11.74,3.86c4.91,4.19,4.43,13.06,4.43,19.51,0,5.08-.64,10.45-3.25,12.66-3.5,2.97-5.87,3.19-5.87,6.68,0,2.91,2.24,3.49,5.87,5.41,4.66,2.46,4.44,5.75,11.36,5.75s6.74-3.3,11.39-5.75c3.64-1.92,5.87-2.5,5.87-5.41,0-3.49-2.37-3.71-5.87-6.68-2.61-2.21-3.25-7.58-3.25-12.66,0-6.45-.48-15.32,4.43-19.51,4.07-3.47,11.74-3.86,11.74-3.86l-5.29-9.64h0ZM451.24,248.96l-3.22,9.15-8.78-4.17,4.17,8.78-9.15,3.25,9.15,3.25-4.17,8.75,8.78-4.17,3.22,9.15,3.25-9.15,8.78,4.17-4.17-8.75,9.15-3.25-9.15-3.25,4.17-8.78-8.78,4.17-3.25-9.15ZM431.48,300.38s-11.46-2.8-15.74-8.46c-4.76,4.16-10.37,7.25-16.43,9.06,0,0,9.33,4.21,16.43,9.58,3.27-4.69,15.74-10.19,15.74-10.19h0Z"/><path class="cls-5" d="M471.04,300.38s12.47,5.5,15.74,10.19c7.09-5.37,16.43-9.58,16.43-9.58-6.06-1.81-11.66-4.9-16.43-9.06-4.28,5.66-15.74,8.46-15.74,8.46h0ZM436.17,312.58l-4.46,4.46,4.46,4.46,4.46-4.46-4.46-4.46ZM466.35,312.58l-4.46,4.46,4.46,4.46,4.46-4.46-4.46-4.46ZM435.05,338.61c.05,2.88-.13,5.76-.55,8.6,0,0,6.29-1.85,7.54-8.23.59-2.99,1.24-14-1.78-15.88l-8.2-1.61c1.98,5.49,3,11.28,2.99,17.12h0ZM462.26,323.11c-3.02,1.88-2.37,12.89-1.78,15.88,1.25,6.38,7.54,8.23,7.54,8.23-.42-2.85-.6-5.73-.55-8.6,0-5.84,1.01-11.63,2.99-17.12l-8.2,1.61h0ZM415.71,323.43c-2.8.67-4.53,3.49-3.86,6.3,0,0,0,0,0,0,.11.46.29.91.52,1.33-.42-.14-.85-.23-1.29-.26-.18,0-.36,0-.55,0-2.91.1-5.19,2.55-5.09,5.46s2.55,5.19,5.46,5.09c.24,0,.48-.03.72-.07-.26.35-.47.72-.63,1.12-1.1,2.7.2,5.79,2.9,6.89,2.7,1.1,5.79-.2,6.89-2.9l.02-.05c.16-.4.26-.81.32-1.24.26.35.56.67.89.95,2.21,1.9,5.54,1.66,7.45-.55s1.66-5.54-.55-7.45c-.36-.31-.76-.57-1.2-.78.41-.13.81-.32,1.18-.55,2.47-1.56,3.22-4.83,1.67-7.31-1.03-1.64-2.87-2.58-4.8-2.45-.88.06-1.73.34-2.47.81-.37.23-.71.5-1.01.81-.01-2.94-2.41-5.31-5.35-5.3-.41,0-.82.05-1.21.15h0ZM471.82,338.79c.57,5.39,4.95,9.9,10.36,11.19-.94-1.51-1.53-3.21-1.73-4.98-.68-6.39,4.26-11.57,11.02-11.57,1.05,0,2.09.13,3.11.37-2.52-4.07-6.95-6.57-11.74-6.62-6.75,0-11.7,5.21-11.02,11.59h0Z"/><path class="cls-8" d="M423.91,273.27c0,10.19,5.43,16.2,12.69,16.2,1.38,0,2.9,1.87,4.2,1.87,2.13,0,3.54-2.36,4.83-2.36,1.65,0,2.75,2.59,5.61,2.59s3.99-2.59,5.64-2.59c1.29,0,2.71,2.36,4.83,2.36,1.3,0,2.82-1.87,4.2-1.87,7.26,0,12.69-6.01,12.69-16.2,0-8.31-6.98-18.44-6.21-20.08,0,0,13.61,9.76,13.61,21.26,0,18.53-18.79,23.1-18.79,23.1l4.23,9.52s-5.82.87-9.38,3.74c-4.74,3.82-4.81,14.16-4.81,21.15,0,8.23.31,11.72,3.28,13.95,3.14,2.36,5.5,2.86,5.5,5.27,0,2.09-2.44,2.95-5.61,4.34-3.6,1.59-3.96,4.35-9.18,4.35s-5.55-2.76-9.15-4.35c-3.17-1.4-5.61-2.25-5.61-4.34,0-2.4,2.36-2.91,5.5-5.27,2.97-2.23,3.28-5.72,3.28-13.95,0-6.99-.06-17.32-4.8-21.15-3.56-2.87-9.38-3.74-9.38-3.74l4.23-9.52s-18.79-4.58-18.79-23.1c0-11.5,13.61-21.26,13.61-21.26.76,1.64-6.21,11.77-6.21,20.08h0ZM444.14,349.78c-3.69,0-6.04.78-6.04,1.9s2.35,1.87,6.04,1.87c.98,0,2.1-.57,2.1-1.87-.03-1.08-.92-1.93-2-1.9-.04,0-.07,0-.11,0h0ZM458.38,349.78c-1.07-.08-2.01.72-2.1,1.79,0,0,0,0,0,0,0,.03,0,.07,0,.11,0,1.3,1.12,1.87,2.1,1.87,3.69,0,6.04-.75,6.04-1.87s-2.35-1.9-6.04-1.9h0ZM451.28,255.12l2.07,5.84,5.58-2.68-2.65,5.61,5.81,2.07-5.81,2.07,2.65,5.58-5.58-2.65-2.1,5.81-2.07-5.81-5.58,2.65,2.65-5.58-5.81-2.07,5.81-2.07-2.65-5.61,5.58,2.68,2.1-5.84h0ZM404.77,301.15s7.09,3.53,10.65,6.68l.2.17.11-.14c3.36-3.86,9.61-7.14,9.61-7.14,0,0-6-1.66-9.78-5.98-4,4.07-10.79,6.42-10.79,6.42ZM497.74,301.16s-7.09,3.53-10.65,6.68l-.2.17-.11-.14c-3.36-3.86-9.61-7.14-9.61-7.14,0,0,6-1.66,9.78-5.98,4,4.07,10.79,6.42,10.79,6.42ZM436.17,314.71l2.33,2.33-2.33,2.36-2.36-2.36,2.36-2.33ZM466.35,314.71l2.36,2.33-2.36,2.36-2.33-2.36,2.33-2.33ZM439.34,324.89c1.63,2.25,1.35,5.88,1.35,10.93.1,2.87-1.37,5.57-3.83,7.05,0-12.25-1.26-15.19-1.93-18.9l4.4.92h0ZM467.59,323.97c-.67,3.71-1.93,6.66-1.93,18.9-2.46-1.48-3.93-4.18-3.83-7.05,0-5.05-.28-8.69,1.35-10.93l4.4-.92h0ZM421.24,328.6c.11.44.13.9.09,1.35-.04.36-.12.7-.26,1.04-2.31-.82-4.88-.16-6.5,1.67-.29-.25-.54-.54-.75-.86-.25-.37-.43-.78-.55-1.21-.55-2.2.8-4.43,3-4.98,2.2-.54,4.42.79,4.97,2.99h0ZM427.37,336.28c-.39.24-.81.41-1.26.5-.35.07-.71.1-1.06.07.06-2.45-1.36-4.69-3.6-5.67.15-.35.35-.68.59-.98.28-.35.61-.65.98-.89,1.92-1.2,4.46-.62,5.66,1.31,1.2,1.92.62,4.46-1.31,5.66h0ZM421.97,344.49c-.35-.3-.64-.65-.86-1.04-.18-.31-.31-.64-.4-.99,2.35-.69,4.04-2.74,4.28-5.17.38.03.76.12,1.11.26.42.15.81.38,1.15.66,1.73,1.46,1.95,4.05.49,5.79-1.46,1.73-4.04,1.95-5.77.5ZM412.49,341.88c.17-.42.42-.81.73-1.14.24-.27.51-.5.82-.69,1.38,2.02,3.85,2.99,6.24,2.47.09.37.12.76.1,1.14-.02.44-.11.88-.27,1.3-.85,2.1-3.25,3.12-5.35,2.27-2.1-.85-3.11-3.24-2.27-5.34h0ZM412.04,332.07c.45.04.9.15,1.31.34.33.15.63.34.9.57-1.49,1.94-1.66,4.59-.42,6.7-.33.2-.68.35-1.05.44-.43.12-.87.17-1.32.15-2.26-.16-3.96-2.12-3.81-4.39.16-2.26,2.12-3.96,4.38-3.81h0Z"/><circle class="cls-8" cx="419.02" cy="336.66" r="3.97"/><path class="cls-8" d="M488.73,331.31c-6.59,1.27-11.34,7.1-10.65,13.9-2.1-1.74-3.64-4.08-3.91-6.68-.53-5.05,3.13-8.95,8.66-8.95,2.09.02,4.13.62,5.9,1.73h0Z"/><path class="cls-5" d="M508.56,244.24h-114.63c1.52,1.53,3.45,3.97,3.45,6.5v77.11h0v11.68h0c-.02.91.13,1.83.43,2.69.3.76.71,1.48,1.22,2.12l.02.03c1.12,1.42,2.42,2.7,3.86,3.79.33.26.66.51,1,.75.34.24.68.47,1.02.7h0c6.1,3.97,15.5,8.13,24.04,11.91l6.69,2.99h0s0,0,0,0l.19.09h0c7.82,3.55,11.3,5.14,15.38,9.92,4.09-4.8,7.57-6.38,15.45-9.96h0s.09-.04.09-.04l6.69-2.98c8.54-3.78,17.94-7.95,24.04-11.91h0c1.71-1.12,3.3-2.41,4.73-3.87.22-.23.44-.47.65-.72.19-.22.36-.44.51-.65h.01s0-.02,0-.02h0c.52-.65.93-1.37,1.24-2.14.31-.86.46-1.77.45-2.68h0v-11.68h0v-77.11c0-2.53,1.93-4.97,3.45-6.5ZM506.89,250.74v77.11h0v11.68h0c.02,1.13-.17,2.25-.56,3.31-.36.92-.86,1.79-1.48,2.57h0c-.19.26-.39.52-.6.76-.23.27-.48.54-.73.8-1.52,1.56-3.21,2.94-5.04,4.13h0c-6.23,4.05-15.69,8.24-24.29,12.05l-6.67,2.98-.09.04h0c-8.06,3.67-11.35,5.16-15.49,10.29l-.69.86-.69-.86c-4.12-5.11-7.44-6.61-15.43-10.25h0s-.19-.09-.19-.09h0s0,0,0,0h0s-6.67-2.98-6.67-2.98c-8.59-3.81-18.06-8-24.29-12.05h-.02s0-.02,0-.02h0c-.35-.23-.71-.47-1.07-.73s-.71-.52-1.05-.79c-1.58-1.2-3-2.59-4.22-4.16h0c-.62-.78-1.11-1.64-1.46-2.57-.38-1.06-.56-2.18-.55-3.3h0v-11.68h0v-77.11c0-3.28-4.52-6.67-4.53-6.68v-1.6h120.36v1.6s-4.53,3.4-4.53,6.68h0ZM504.19,245.27h0s.42,0,.42,0h1.85s-1.15,1.45-1.15,1.45c-.84,1.17-1.27,2.58-1.24,4.02v77.11h0v11.68h0c0,1.58-1.11,4.63-6.31,8.43h0c-1.1.8-2.23,1.54-3.39,2.23-1.43.85-2.89,1.64-4.38,2.38h0s-.02,0-.02,0h0c-6.96,3.47-13.38,6.29-18.93,8.72-9.53,4.18-16.43,7.2-19.1,10.49v.02s-.02,0-.02,0l-.69.81-.67-.83c-2.67-3.29-9.58-6.32-19.11-10.5-5.54-2.43-11.96-5.25-18.91-8.71h0s-.01,0-.01,0h0c-4.93-2.45-8.18-4.71-10.28-6.64-.39-.36-.76-.73-1.12-1.11-2.14-2.3-2.69-4.16-2.69-5.29h0s0,0,0,0v-11.68h0v-77.11c.03-1.44-.4-2.85-1.24-4.02l-1.15-1.44h3.83s102.78,0,102.78,0h0s1.56,0,1.56,0h0ZM502.63,247.05h0s-102.78,0-102.78,0h0s-.44,0-.44,0c.52,1.16.79,2.42.79,3.69v77.11h0v11.68h0s0,0,0,0c0,.8.46,2.19,2.22,4.08.33.35.67.69,1.02,1.01,1.99,1.83,5.1,3.98,9.87,6.36h0s.01,0,.01,0h0c6.99,3.48,13.34,6.27,18.83,8.67,9.07,3.98,15.81,6.93,19.09,10.24,3.27-3.31,10.02-6.26,19.08-10.24,5.49-2.41,11.85-5.2,18.84-8.68h0s.02,0,.02,0h0c1.45-.72,2.87-1.49,4.26-2.32,1.12-.66,2.2-1.37,3.25-2.14h0c4.6-3.36,5.58-5.79,5.58-7h0v-11.68h0v-77.11c0-1.27.27-2.53.79-3.69h-.44Z"/></svg>