<?xml version="1.0" encoding="UTF-8"?><svg id="_色修正" xmlns="http://www.w3.org/2000/svg" xmlns:xlink="http://www.w3.org/1999/xlink" viewBox="0 0 900 600"><defs><style>.cls-1{fill:#f1e9a6;}.cls-1,.cls-2,.cls-3,.cls-4,.cls-5,.cls-6,.cls-7,.cls-8,.cls-9,.cls-10,.cls-11,.cls-12,.cls-13{stroke-width:.19px;}.cls-1,.cls-4,.cls-5,.cls-6,.cls-7,.cls-8,.cls-9,.cls-10,.cls-11,.cls-12{stroke:#968f70;}.cls-2{fill:#648b3d;}.cls-2,.cls-3,.cls-14{stroke:#244121;}.cls-3{fill:#3e612f;}.cls-15{clip-path:url(#clippath);}.cls-16,.cls-17,.cls-18,.cls-19,.cls-20,.cls-21,.cls-22,.cls-23,.cls-24,.cls-25,.cls-26,.cls-27,.cls-28,.cls-29{stroke-width:0px;}.cls-16,.cls-30,.cls-14,.cls-13{fill:none;}.cls-31{stroke-width:.22px;}.cls-31,.cls-32{fill:#ad203c;stroke:#4f0e22;}.cls-17{fill:url(#_名称未設定グラデーション_11);}.cls-33{fill:url(#_名称未設定グラデーション_10);stroke:#490609;}.cls-33,.cls-34,.cls-35,.cls-36,.cls-37,.cls-32,.cls-38{stroke-width:.26px;}.cls-4{fill:url(#_名称未設定グラデーション_9);}.cls-5{fill:url(#_名称未設定グラデーション_6);}.cls-6{fill:url(#_名称未設定グラデーション_7);}.cls-39{stroke:#231815;stroke-width:.12px;}.cls-39,.cls-23{fill:#231815;}.cls-30{stroke-width:.19px;}.cls-30,.cls-40,.cls-41,.cls-37,.cls-42,.cls-43,.cls-13{stroke:#465654;}.cls-30,.cls-41,.cls-43{stroke-miterlimit:4;}.cls-14{stroke-width:.52px;}.cls-44{stroke-width:.13px;}.cls-44,.cls-40,.cls-45{stroke-miterlimit:4;}.cls-44,.cls-45,.cls-35,.cls-46{stroke:#6a2f1d;}.cls-44,.cls-45,.cls-35,.cls-46,.cls-28{fill:#eeb028;}.cls-40,.cls-45{stroke-width:.26px;}.cls-40,.cls-41,.cls-37{fill:#b0b3b7;}.cls-41,.cls-47{stroke-width:.26px;}.cls-34{stroke:#33532a;}.cls-34,.cls-19{fill:#457d37;}.cls-36{fill:#e0b91b;stroke:#9a8026;}.cls-46,.cls-42{stroke-width:.13px;}.cls-42,.cls-43,.cls-21{fill:#899299;}.cls-43{stroke-width:.13px;}.cls-7{fill:url(#_名称未設定グラデーション_6-2);}.cls-8{fill:url(#_名称未設定グラデーション_7-3);}.cls-9{fill:url(#_名称未設定グラデーション_7-4);}.cls-10{fill:url(#_名称未設定グラデーション_7-2);}.cls-11{fill:url(#_名称未設定グラデーション_7-5);}.cls-12{fill:url(#_名称未設定グラデーション_9-2);}.cls-47,.cls-38{stroke:#341610;stroke-linejoin:round;}.cls-47,.cls-38,.cls-29{fill:#6a2f1d;}.cls-18{fill:#9a8026;}.cls-20{fill:#465654;}.cls-22{fill:#33532a;}.cls-24{fill:#a87c21;}.cls-25{fill:#009ce1;}.cls-26{fill:#fff;}.cls-27{fill:#fff000;}</style><radialGradient id="_名称未設定グラデーション_7" cx="414.79" cy="3077.19" fx="414.79" fy="3077.19" r="19.65" gradientTransform="translate(0 3400.11) scale(1 -1)" gradientUnits="userSpaceOnUse"><stop offset=".22" stop-color="#f1e9a6"/><stop offset="1" stop-color="#a87c21"/></radialGradient><radialGradient id="_名称未設定グラデーション_7-2" cx="419.71" cy="3071.57" fx="419.71" fy="3071.57" r="12.97" xlink:href="#_名称未設定グラデーション_7"/><radialGradient id="_名称未設定グラデーション_7-3" cx="422.75" cy="3076.74" fx="422.75" fy="3076.74" r="11.62" xlink:href="#_名称未設定グラデーション_7"/><radialGradient id="_名称未設定グラデーション_7-4" cx="427.83" cy="3078.63" fx="427.83" fy="3078.63" r="20.62" xlink:href="#_名称未設定グラデーション_7"/><linearGradient id="_名称未設定グラデーション_6" x1="446.27" y1="3135.54" x2="444.43" y2="3167.87" gradientTransform="translate(0 3400.11) scale(1 -1)" gradientUnits="userSpaceOnUse"><stop offset=".22" stop-color="#a87c21" stop-opacity="0"/><stop offset="1" stop-color="#a87c21"/></linearGradient><linearGradient id="_名称未設定グラデーション_6-2" x1="457.23" y1="3090.99" x2="460.04" y2="3055.42" xlink:href="#_名称未設定グラデーション_6"/><radialGradient id="_名称未設定グラデーション_7-5" cx="413.08" cy="3143.63" fx="413.08" fy="3143.63" r="15.47" xlink:href="#_名称未設定グラデーション_7"/><linearGradient id="_名称未設定グラデーション_9" x1="419.69" y1="3147.01" x2="424.24" y2="3157.64" gradientTransform="translate(0 3400.11) scale(1 -1)" gradientUnits="userSpaceOnUse"><stop offset=".22" stop-color="#f1e9a6"/><stop offset="1" stop-color="#a87c21"/></linearGradient><linearGradient id="_名称未設定グラデーション_9-2" x1="445.57" y1="3161.6" x2="448.68" y2="3122.14" xlink:href="#_名称未設定グラデーション_9"/><radialGradient id="_名称未設定グラデーション_10" cx="450.97" cy="3187.72" fx="450.97" fy="3187.72" r=".41" gradientTransform="translate(0 3400.11) scale(1 -1)" gradientUnits="userSpaceOnUse"><stop offset=".26" stop-color="#9a1e23"/><stop offset="1" stop-color="#490609"/></radialGradient><radialGradient id="_名称未設定グラデーション_11" cx="-355.24" cy="3936.34" fx="-355.24" fy="3936.34" r=".59" gradientTransform="translate(690.4 2991.44) scale(.67 -.71)" gradientUnits="userSpaceOnUse"><stop offset="0" stop-color="#fff"/><stop offset="1" stop-color="#fff" stop-opacity="0"/></radialGradient><clipPath id="clippath"><path class="cls-16" d="M0,700h900v600H0"/></clipPath></defs><rect class="cls-25" width="900" height="600"/><rect class="cls-26" x="300" width="300" height="600"/><path class="cls-14" d="M420.38,405.17c3.17-.48,5-1.35,7.17-2.12"/><path class="cls-14" d="M430.19,398.23c1.6,1.7,2.87,3.51,3.56,5.51"/><path class="cls-14" d="M424.1,397.71c1.67,1.56,2.82,3.22,3.73,4.93"/><path class="cls-14" d="M368.91,240.33c-1.24,1.9-3.67,3.24-5.68,4.07"/><path class="cls-14" d="M362.82,244.16c.04-1.63-.28-3.6.06-5.22"/><path class="cls-14" d="M360.53,244.91c.14.44.52,1.67.8,2.41"/><path class="cls-14" d="M363.74,248.42c-.45.1-1.81.31-2.41.4"/><path class="cls-14" d="M356.63,247.78c-.02,3,.34,6.6.63,9.3"/><path class="cls-14" d="M355.13,255.93c.56.9,1.13,1.79,1.84,2.24"/><path class="cls-14" d="M351.52,265.85c.58,1.12,1.12,2.52,1.55,4.7"/><path class="cls-14" d="M357.49,265.06c-.49.24-1.44,1.11-2.3,1.84"/><path class="cls-14" d="M357.08,272.12c-1.16,1.04-2.61,1.79-4.07,2.52"/><path class="cls-14" d="M348.48,322.66c1.37,2.25,2.88,4.23,4.7,5.57"/><path class="cls-14" d="M353.88,330.23c-1.54-.2-2.57-.65-3.5-1.15"/><path class="cls-14" d="M355.6,339.07l2.01,1.15"/><path class="cls-14" d="M357.08,344.35c1.49.97,2.98,2.71,4.47,4.59"/><path class="cls-14" d="M359.84,352.32c1.65.35,2.96.76,3.84,1.26"/><path class="cls-14" d="M362.42,356.46l2.52.09"/><path class="cls-14" d="M366.38,350.15c-.12,1.82-.3,3.53-.57,5.05"/><path class="cls-14" d="M367.01,357.09l.52-1.95"/><path class="cls-14" d="M373.09,362.26l-.17,3.85"/><path class="cls-14" d="M419.51,399.27l-1.38,1.89"/><path class="cls-14" d="M415.27,396.51l-.8-2.18"/><path class="cls-3" d="M460.78,414.03c-.95-1.49-2.5-2.41-3.9-3.16-9.18-4.82-18.31-6.95-28.66-8.61-2.39-.4-4.79-2.64-7.23-3.79-5.9-2.81-12.47-3.9-18.2-6.77-.39-.17-1.84-1.03-2.5-1.84-2.28-2.64-6.4-3.45-8.96-5.91-9.91-9.35-20.42-17.96-25.87-30.36-6.62-15.09-14.86-30.65-13.75-47.81.72-10.85-.89-21.81,1.78-32.14,3.95-15.32,9.02-30.47,18.31-43.16l-1.56.98c-9.35,12.69-14.41,27.84-18.36,43.16-2.67,10.33-1.06,21.29-1.78,32.14-1.11,17.16,7.12,32.71,13.75,47.86,5.45,12.34,16.03,20.95,25.88,30.36,2.56,2.41,6.68,3.21,8.96,5.91.67.75,2.17,1.67,2.5,1.84,5.73,2.87,12.3,3.96,18.2,6.72,2.45,1.2,4.84,3.38,7.23,3.79,10.35,1.66,19.48,3.84,28.66,8.61,1.45.75,2.95,1.67,3.9,3.16l1.61-.98"/><path class="cls-2" d="M365.97,350.67c-3.32-7.49-1.62-25.68-.24-27.96,7.88,15.46,5.26,28.21.24,27.96Z"/><path class="cls-2" d="M420.48,404.62c-8.43.43-24.49,11.05-25.98,13.54,17.93.14,28.55-8.69,25.98-13.54Z"/><path class="cls-2" d="M429.34,399.52c-8.14-6.48-16.86-28.12-16.68-31.5,17.96,12.88,22.5,28.86,16.68,31.5Z"/><path class="cls-2" d="M423.34,399.59c-8.26-5.03-18.76-23.91-18.94-27.04,18.07,9.74,24,23.92,18.94,27.04Z"/><path class="cls-2" d="M404.85,391.53c1.17-9.3-6.73-28.81-9.01-30.87-3.51,19.57,3.56,32.77,9.01,30.87Z"/><path class="cls-2" d="M372.39,362.68c-2.74-6.71-.73-22.96.56-24.96,6.56,13.9,3.88,25.22-.56,24.96Z"/><path class="cls-2" d="M356.1,271.37c4.27-7.9,21.84-18.67,24.95-18.93-8.05,17.31-21.44,23.57-24.95,18.93Z"/><path class="cls-2" d="M356.94,264.76c2.55-8.65,17.68-22.9,20.63-23.81-4.43,18.63-16.26,27.55-20.63,23.81Z"/><path class="cls-2" d="M389.99,382.59c-5.93-7.34-9.52-28.36-8.66-31.33,13.4,14.87,14.3,29.99,8.66,31.33Z"/><path class="cls-2" d="M355.94,339.26c-8.21,1.29-25.39-5.51-27.24-7.53,17.27-3.74,28.87,2.46,27.24,7.53Z"/><path class="cls-2" d="M353.3,327.76c.98-6.63,10.3-18.79,12.31-19.8-1.32,14.21-8.85,22.11-12.31,19.8Z"/><path class="cls-2" d="M414.31,397.33c-10.07.52-29.27,13.2-31.05,16.18,21.43.17,34.11-10.39,31.05-16.18Z"/><path class="cls-3" d="M366.06,350.49c5.02.25,7.61-12.36-.32-27.78,1.44,14.64,1.44,26.51.32,27.78Z"/><path class="cls-3" d="M379.34,374.25c-5.32-6.5-23.03-13.46-25.8-13.24,10.56,14.36,23.63,17.94,25.8,13.24Z"/><path class="cls-3" d="M350.32,311.29c-1.36-9.56-14.66-26.99-17.52-28.49,1.8,20.41,12.54,31.73,17.52,28.49Z"/><path class="cls-3" d="M360.29,352.04c-5.93-4.37-22.55-6.35-24.89-5.61,12.05,9.87,24.02,10.05,24.89,5.61Z"/><path class="cls-3" d="M349.17,322.53c-3.43-6.76-17.6-16.02-20.08-16.28,6.56,14.72,17.3,20.13,20.08,16.28Z"/><path class="cls-3" d="M352.41,266.03c1.08-9-6.58-27.86-8.73-29.9-3.41,18.93,3.47,31.69,8.73,29.9Z"/><path class="cls-3" d="M357.73,248.3c3.16-7.72.9-26.66-.62-29.02-7.61,16.05-4.55,29.29.62,29.02h0Z"/><path class="cls-3" d="M363.69,239.21c3.73-5.67,4.95-21.02,4.14-23.14-8.6,11.55-8.27,22.51-4.14,23.14Z"/><path class="cls-3" d="M370.76,231.91c5.23-4.13,10.96-18.42,10.8-20.72-11.58,8.26-14.52,18.83-10.8,20.72Z"/><path class="cls-3" d="M351.69,283.25c.13,1.03-1.16-9.72-11.95-21.77.49,17.61,7.43,24.27,11.95,21.77Z"/><path class="cls-3" d="M390.38,385.2c-7.34-5.42-27.79-8-30.62-7.04,14.93,12.31,29.57,12.54,30.62,7.04Z"/><path class="cls-3" d="M404.73,391.42c-5.4,1.89-12.41-11.19-8.96-30.76,3.34,16.58,7.35,29.79,8.96,30.76Z"/><path class="cls-3" d="M420.54,404.68c2.51,4.85-7.96,13.59-25.89,13.45,14.2-5.81,25.24-11.72,25.89-13.45Z"/><path class="cls-3" d="M429.32,399.36c5.78-2.67,1.31-18.46-16.65-31.34,10.21,15.7,17.18,29.25,16.65,31.34Z"/><path class="cls-3" d="M423.29,399.46c5.08-3.17-.82-17.17-18.89-26.91,11.18,13.29,19.13,24.92,18.89,26.91Z"/><path class="cls-3" d="M372.44,362.63c4.44.26,7.08-11.01.57-24.87.85,13.04.5,23.74-.57,24.87Z"/><path class="cls-3" d="M356.09,271.43c3.51,4.63,16.7-1.56,24.76-18.92-12.08,11.1-22.85,19.09-24.76,18.92Z"/><path class="cls-3" d="M357.08,264.76c4.38,3.74,16.09-5.11,20.52-23.74-9.62,13.36-18.59,23.46-20.52,23.74Z"/><path class="cls-3" d="M390.03,382.52c5.63-1.34,4.7-16.38-8.62-31.22,5.96,15.94,9.53,29.42,8.62,31.22Z"/><path class="cls-3" d="M355.72,339.19c1.67-5.04-9.86-11.13-27.1-7.44,14.57,2.61,26.2,5.99,27.1,7.44Z"/><path class="cls-3" d="M353.41,327.77c3.45,2.24,10.91-5.54,12.22-19.75-5.55,10.91-10.89,19.33-12.22,19.75Z"/><path class="cls-3" d="M414.26,397.51c3.06,5.8-9.46,16.24-30.94,16.07,16.97-6.95,30.16-14,30.94-16.07Z"/><path class="cls-3" d="M357.68,344.35c-3.16-7.44-17.59-18.38-20.18-18.83,5.88,16.21,16.93,22.75,20.18,18.83Z"/><path class="cls-2" d="M349.43,282.1c4.84-5.54,20.76-10.86,23.29-10.54-9.56,12.37-21.32,14.87-23.29,10.54Z"/><path class="cls-2" d="M379.22,374.31c-2.15,4.66-15.09,1.09-25.73-13.25,12.94,8.12,24.06,13.68,25.73,13.25Z"/><path class="cls-2" d="M350.24,311.26c-4.99,3.24-15.6-8.01-17.45-28.38,7.87,15.69,15.49,27.79,17.45,28.38Z"/><path class="cls-2" d="M360.25,352.07c-.91,4.43-12.7,4.27-24.8-5.61,12.75,4.05,23.46,6.34,24.8,5.61Z"/><path class="cls-2" d="M349.01,322.42c-2.77,3.85-13.42-1.51-19.97-16.23,9.74,9.47,18.41,16.33,19.97,16.23Z"/><path class="cls-2" d="M352.29,265.91c-5.26,1.85-12.07-10.79-8.67-29.72,3.17,16.03,7.05,28.73,8.67,29.72Z"/><path class="cls-2" d="M357.61,248.25c-5.11.27-8.17-12.85-.56-28.91-.98,15.21-.6,27.61.56,28.91Z"/><path class="cls-2" d="M363.6,239.14c-4.13-.62-4.42-11.48,4.18-23.02-3.26,11.86-4.93,21.83-4.18,23.02Z"/><path class="cls-2" d="M370.7,231.91c-3.73-1.95-.83-12.4,10.74-20.6-6.57,10.27-11.07,19.23-10.74,20.6Z"/><path class="cls-2" d="M351.61,283.26c-4.52,2.5-11.38-4.16-11.87-21.77,6.06,13.89,10.22,21.16,11.87,21.77Z"/><path class="cls-2" d="M390.31,385.23c-1.05,5.5-15.62,5.23-30.52-7.01,15.65,5.08,28.82,7.96,30.52,7.01Z"/><path class="cls-2" d="M380.6,373.97c-4.78-5.16-8.51-20.62-8.02-22.87,10.71,10.39,12.14,21.59,8.02,22.87Z"/><path class="cls-2" d="M360.54,344.27c-4.24-6.88-4.61-24.85-3.47-27.28,9.82,14.03,8.62,26.84,3.47,27.28Z"/><path class="cls-2" d="M357.42,344.37c-3.25,3.93-14.18-2.57-20.05-18.82,9.66,10.83,18.39,18.79,20.05,18.82Z"/><path class="cls-3" d="M349.37,282.19c1.92,4.31,13.61,1.82,23.17-10.55-14.23,8.07-19.86,11.58-23.17,10.55Z"/><path class="cls-3" d="M360.47,344.08c5.15-.44,6.34-13.12-3.49-27.15,3.17,14.09,4.51,25.76,3.49,27.15Z"/><path class="cls-3" d="M380.63,373.92c4.12-1.27,2.67-12.42-7.98-22.79,5.23,11.56,8.56,21.41,7.98,22.79Z"/><path class="cls-3" d="M351.58,303.31c2.45-9.97-2.02-26.86-5.11-30.38-5.61,18.33-.29,31.61,5.11,30.38Z"/><path class="cls-2" d="M351.22,305.69c-7.01,1.59-10.27-14.3-4.85-32.18,1.27,16.1,3.37,31.07,4.85,32.18Z"/><path class="cls-2" d="M349.8,305.63c-.66-8.95,8.24-27.44,10.6-29.36,2.39,18.78-5.3,31.27-10.6,29.36Z"/><path class="cls-3" d="M349.93,305.5c5.25,1.94,12.9-10.41,10.5-29.19-4.17,15.77-8.85,28.24-10.5,29.19Z"/><path class="cls-2" d="M351.46,316.97c0-9.04,10.07-26.42,12.55-28.07.99,19.21-7.52,30.7-12.55,28.07Z"/><path class="cls-3" d="M351.56,317.15c5.03,2.63,13.44-8.75,12.44-27.96-5.24,15.28-10.75,27.21-12.44,27.96Z"/><circle class="cls-31" cx="354.68" cy="255.18" r="1.29"/><circle class="cls-31" cx="364.62" cy="247.81" r="1.29"/><circle class="cls-31" cx="360.3" cy="243.82" r="1.29"/><circle class="cls-32" cx="349.53" cy="328.69" r="1.52"/><circle class="cls-32" cx="352.54" cy="309.68" r="1.52"/><circle class="cls-32" cx="368.2" cy="354.05" r="1.52"/><circle class="cls-32" cx="361.28" cy="356.39" r="1.52"/><circle class="cls-32" cx="413.94" cy="393.47" r="1.52"/><circle class="cls-32" cx="417.4" cy="401.88" r="1.52"/><path class="cls-14" d="M549.96,264.33c.74.74,1.4.96,2.73,2.25"/><path class="cls-14" d="M544.81,244.07c-.04-1.63-.75-4.28-1.09-5.91"/><path class="cls-14" d="M547.82,241.7c.07,2.32-.26,4.53-1.26,6.54"/><path class="cls-14" d="M541.61,247.61c2.08,1.87,4.17,3.66,6.25,4.63"/><path class="cls-14" d="M552.41,253.7c.12,2.35-.17,4.71-.81,7.06"/><path class="cls-14" d="M551.98,262.55l1.56-2.69"/><path class="cls-14" d="M551.32,274.39c1.66.35,3.34,2.31,4.17,4.14"/><path class="cls-14" d="M556.05,276.99l1.95-2.6"/><path class="cls-14" d="M560.04,310.91c-.89,1.55-1.88,2.89-2.92,4.14"/><path class="cls-14" d="M552.41,314.96c.94,1.73,1.85,3.5,3.08,4.79"/><path class="cls-14" d="M558.41,326.73c-1.55,2.11-3.29,3.76-5.27,4.79"/><path class="cls-14" d="M553.3,336.86c-1.3.89-2.88,3.51-4.38,5.6"/><path class="cls-14" d="M558.94,318.48l-2.52,1.03"/><path class="cls-14" d="M554.76,310.61l1.49,1.32"/><path class="cls-14" d="M545.2,356.37c-1-.13-1.73.01-2.52.09"/><path class="cls-14" d="M540.31,354.15l.73,1.95"/><path class="cls-14" d="M531.87,362.19c-.31,2.22-.09,4.44.24,6.65"/><path class="cls-14" d="M537.23,358.12l1.22,2.68"/><path class="cls-14" d="M542.99,360.56l-3,.49"/><path class="cls-14" d="M503.32,391.08l-1.09,2.07"/><path class="cls-14" d="M516.37,388.48c-1.77.22-3.3-.05-4.87-.24"/><path class="cls-14" d="M505.01,395.3c-1.29-.5-2.42-.85-3.49-1.14"/><path class="cls-14" d="M484,397.32c-1.08.92-2.36,2.89-3.65,4.87"/><path class="cls-14" d="M479.7,396.76c-2.89,1.49-3.78,4.41-5.27,6.9"/><path class="cls-14" d="M477.75,407.06c-1.85-.55-4.05-1.46-6.33-2.43"/><path class="cls-14" d="M491.34,403.82c-2.76-1.43-5.64-1.29-8.48-1.75"/><path class="cls-14" d="M495.65,401.67c-4.31-.84-8.33-.72-12.21-.16"/><path class="cls-14" d="M492.67,398.41l-1.66-.69"/><path class="cls-14" d="M484.44,404.26l-2.76-1.54"/><path class="cls-14" d="M550.54,344.25c-1.49.97-2.98,2.71-4.48,4.59"/><path class="cls-14" d="M548.23,254.22l-2.56-.86"/><path class="cls-3" d="M446.85,413.93c.95-1.49,2.5-2.41,3.9-3.16,9.18-4.82,18.31-6.95,28.66-8.61,2.39-.4,4.79-2.64,7.23-3.79,5.9-2.81,12.47-3.9,18.2-6.77.39-.17,1.84-1.03,2.5-1.84,2.28-2.64,6.4-3.45,8.96-5.91,9.91-9.35,20.42-17.96,25.87-30.36,6.62-15.09,14.86-30.65,13.75-47.81-.72-10.85.89-21.81-1.78-32.14-3.95-15.32-9.02-30.48-18.31-43.16l1.56.98c9.35,12.69,14.41,27.84,18.36,43.16,2.67,10.33,1.06,21.29,1.78,32.14,1.11,17.16-7.12,32.71-13.75,47.86-5.45,12.34-16.03,20.95-25.88,30.36-2.56,2.41-6.68,3.21-8.96,5.91-.67.75-2.17,1.67-2.5,1.84-5.73,2.87-12.3,3.96-18.2,6.72-2.45,1.2-4.84,3.38-7.23,3.79-10.35,1.66-19.48,3.84-28.66,8.61-1.45.75-2.95,1.67-3.9,3.16l-1.61-.98"/><path class="cls-3" d="M541.04,354.21c3.26-8.81-.01-29.52-1.77-32.03-7.9,18.27-3.97,32.68,1.77,32.03Z"/><path class="cls-3" d="M532.59,362.58c2.74-6.71.73-22.96-.56-24.96-6.56,13.9-3.88,25.22.56,24.96Z"/><path class="cls-3" d="M552.57,274.46c-3.91-7.25-20.05-17.14-22.89-17.37,7.38,15.89,19.67,21.62,22.89,17.37Z"/><path class="cls-3" d="M550.68,264.93c-2.13-7.21-14.73-19.08-17.19-19.84,3.69,15.52,13.55,22.95,17.19,19.84Z"/><path class="cls-3" d="M556.32,282.71c-4.2-4.81-18.02-9.42-20.22-9.15,8.3,10.74,18.51,12.91,20.22,9.15Z"/><path class="cls-3" d="M552.99,337.77c7.29,1.15,22.53-4.89,24.18-6.69-15.33-3.32-25.62,2.19-24.18,6.69Z"/><path class="cls-3" d="M552.81,331.06c-.05-6.7-7.6-20.03-9.46-21.31-.66,14.26,5.71,23.12,9.46,21.31Z"/><path class="cls-3" d="M553.3,314.81c0-9.04-10.07-26.42-12.55-28.07-.99,19.21,7.53,30.7,12.55,28.07Z"/><path class="cls-3" d="M490.44,404.26c5.32,6.54,23.36,13.23,26.25,12.96-10.46-14.54-23.85-17.89-26.25-12.96Z"/><path class="cls-2" d="M540.94,354.01c-5.73.65-9.61-13.59-1.66-31.83-.58,16.87.28,30.46,1.66,31.83Z"/><path class="cls-2" d="M477.51,405.9c8.43.43,24.49,11.05,25.99,13.54-17.93.14-28.55-8.69-25.99-13.54Z"/><path class="cls-2" d="M477.51,396.46c2.49-9.47,17.83-25.21,20.81-26.33-4.28,20.36-16.33,30.35-20.81,26.33h0Z"/><path class="cls-2" d="M502.79,391.44c-1.17-9.3,6.73-28.81,9.01-30.87,3.51,19.57-3.56,32.77-9.01,30.87Z"/><path class="cls-2" d="M528.29,374.16c5.32-6.5,23.03-13.46,25.8-13.24-10.56,14.36-23.63,17.94-25.8,13.24Z"/><path class="cls-2" d="M558.94,310.86c1.07-7.53,11.54-21.25,13.79-22.43-1.42,16.07-9.87,24.98-13.79,22.43Z"/><path class="cls-2" d="M545.05,356.09c6.91-5.1,26.27-7.4,29-6.54-14.04,11.5-27.99,11.71-29,6.54Z"/><path class="cls-2" d="M557.25,326.95c3.6-7.11,18.5-16.84,21.1-17.11-6.89,15.47-18.18,21.16-21.1,17.11Z"/><path class="cls-2" d="M555.5,272.81c-.12-9.06,9.49-27.01,11.84-28.81,1.39,19.18-6.8,31.14-11.84,28.81h0Z"/><path class="cls-2" d="M547.26,242c-2.76-6.28-1.31-21.88-.11-23.86,6.6,13.03,4.36,23.97.11,23.86Z"/><path class="cls-2" d="M542.23,239.41c-6.27-5.57-12.65-23.48-12.37-26.27,13.97,11.01,17.1,24.2,12.37,26.27Z"/><path class="cls-2" d="M556.05,280.46c-.38.97,3.5-9.14,16.9-18.19-4.77,16.96-13.13,21.72-16.9,18.19Z"/><path class="cls-2" d="M515.53,387.3c8.33-6.15,31.53-9.07,34.74-7.99-16.94,13.96-33.54,14.23-34.74,7.99Z"/><path class="cls-2" d="M532.56,362.53c-4.44.26-7.08-11.01-.57-24.87-.85,13.04-.5,23.74.57,24.87Z"/><path class="cls-2" d="M552.58,274.5c-3.22,4.25-15.33-1.43-22.72-17.36,11.09,10.18,20.97,17.52,22.72,17.36Z"/><path class="cls-2" d="M550.56,264.93c-3.65,3.11-13.41-4.26-17.1-19.78,8.02,11.14,15.49,19.55,17.1,19.78Z"/><path class="cls-2" d="M556.37,282.79c-1.67,3.74-11.81,1.58-20.11-9.16,12.35,7.01,17.24,10.05,20.11,9.16Z"/><path class="cls-2" d="M553.18,337.71c-1.48-4.47,8.75-9.88,24.06-6.6-12.94,2.32-23.25,5.32-24.06,6.6Z"/><path class="cls-2" d="M552.7,331.05c-3.73,1.74-10.04-6.99-9.38-21.25,3.99,11.58,8.12,20.65,9.38,21.25Z"/><path class="cls-2" d="M553.2,314.98c-5.03,2.63-13.44-8.75-12.44-27.96,5.24,15.28,10.75,27.21,12.44,27.96Z"/><path class="cls-2" d="M490.58,404.2c2.4-4.93,15.63-1.64,26.12,12.94-13.07-8.02-24.34-13.44-26.12-12.94Z"/><path class="cls-3" d="M502.89,391.33c5.4,1.89,12.41-11.19,8.96-30.76-3.34,16.58-7.35,29.79-8.96,30.76Z"/><path class="cls-3" d="M515.11,385.1c5.16-7.9,6.6-29.18,5.44-32.05-11.82,16.16-11.18,31.28-5.44,32.05Z"/><path class="cls-3" d="M477.45,405.95c-2.52,4.85,7.96,13.59,25.89,13.45-14.2-5.81-25.24-11.72-25.89-13.45Z"/><path class="cls-3" d="M477.64,396.38c4.5,3.97,16.41-5.88,20.69-26.24-9.66,14.76-18.69,25.91-20.69,26.24Z"/><path class="cls-3" d="M528.4,374.22c2.15,4.66,15.09,1.09,25.73-13.25-12.94,8.12-24.06,13.68-25.73,13.25Z"/><path class="cls-3" d="M559,310.84c3.92,2.55,12.28-6.3,13.74-22.35-6.2,12.35-12.2,21.88-13.74,22.35Z"/><path class="cls-3" d="M545.11,356.13c1.06,5.17,14.8,4.97,28.89-6.53-14.86,4.72-27.34,7.39-28.89,6.53Z"/><path class="cls-3" d="M557.42,326.84c2.91,4.05,14.1-1.59,20.99-17.06-10.23,9.95-19.35,17.17-20.99,17.06Z"/><path class="cls-3" d="M555.63,272.7c5.04,2.4,13.15-9.45,11.76-28.63-4.85,15.6-10.05,27.82-11.76,28.63Z"/><path class="cls-3" d="M547.35,241.95c4.21.11,6.43-10.74-.16-23.76,1.13,12.48,1.09,22.68.16,23.76Z"/><path class="cls-3" d="M542.33,239.29c4.72-2.07,1.58-15.11-12.39-26.11,7.69,13.1,12.9,24.45,12.39,26.11Z"/><path class="cls-3" d="M556.13,280.49c3.77,3.53,12.05-1.26,16.82-18.22-9.27,11.98-15.08,18.03-16.82,18.22Z"/><path class="cls-3" d="M515.61,387.35c1.19,6.24,17.72,5.93,34.62-7.95-17.76,5.76-32.69,9.03-34.62,7.95Z"/><path class="cls-3" d="M523.8,378.16c3.89-5.86,5.08-21.72,4.24-23.86-8.9,11.98-8.51,23.26-4.24,23.86Z"/><path class="cls-3" d="M547.09,344.16c4.24-6.88,4.61-24.85,3.47-27.28-9.82,14.04-8.62,26.84-3.47,27.28Z"/><path class="cls-2" d="M515.06,385.04c-5.74-.76-6.34-15.82,5.41-31.94-4.31,16.47-6.49,30.24-5.41,31.94Z"/><path class="cls-2" d="M556.85,303.84c-1.12-9.23,4.73-23.94,7.88-26.77,3.06,17.1-3.16,28.46-7.88,26.77Z"/><path class="cls-2" d="M523.76,378.1c-4.27-.59-4.64-11.83,4.21-23.78-3.3,12.25-5.01,22.5-4.21,23.78Z"/><path class="cls-2" d="M551.53,254.22c-2.58-6.99.03-23.82,1.47-25.88,6.29,14.57,3.14,26.28-1.47,25.88Z"/><path class="cls-2" d="M482.5,397.01c2.94-9.62,19.24-25.05,22.35-26.04-5.15,20.7-17.9,30.34-22.35,26.04Z"/><path class="cls-2" d="M547.31,347.58c3.16-7.44,17.59-18.38,20.18-18.83-5.88,16.21-16.93,22.75-20.18,18.83Z"/><path class="cls-2" d="M547.16,343.98c-5.15-.44-6.34-13.12,3.49-27.15-3.17,14.09-4.51,25.76-3.49,27.15Z"/><path class="cls-3" d="M556.91,306.01c6.13,2.19,10.79-11.75,7.84-28.42-2.89,14.34-6.39,27.59-7.84,28.42Z"/><path class="cls-3" d="M557.82,305.54c.66-8.95-8.24-27.44-10.6-29.36-2.39,18.78,5.3,31.27,10.6,29.36Z"/><path class="cls-3" d="M551.62,254.17c4.56.4,7.69-11.21,1.41-25.78.39,13.6-.34,24.66-1.41,25.78Z"/><path class="cls-3" d="M482.63,396.92c4.5,4.3,17.08-5.25,22.23-25.95-10.5,14.68-20.17,25.68-22.23,25.95h0Z"/><path class="cls-3" d="M547.57,347.61c3.25,3.93,14.18-2.56,20.05-18.82-9.67,10.83-18.39,18.79-20.05,18.82Z"/><path class="cls-2" d="M557.69,305.4c-5.25,1.94-12.9-10.41-10.5-29.19,4.17,15.77,8.85,28.24,10.5,29.19Z"/><circle class="cls-32" cx="554.09" cy="259.49" r="1.29"/><circle class="cls-32" cx="558.59" cy="273.66" r="1.29"/><circle class="cls-32" cx="560.19" cy="318.2" r="1.52"/><circle class="cls-32" cx="554.11" cy="309.87" r="1.52"/><circle class="cls-32" cx="536.6" cy="357.27" r="1.52"/><circle class="cls-32" cx="544.07" cy="360.51" r="1.52"/><circle class="cls-32" cx="493.68" cy="398.97" r="1.52"/><circle class="cls-32" cx="485.36" cy="404.95" r="1.52"/><circle class="cls-32" cx="545.09" cy="252.78" r="1.29"/><g id="gun"><path class="cls-42" d="M399.14,356.2c-.16,1.27,1,2.78,2.53,2.46.46-.09.74-.69.16-.58-.51.13-1.04-.08-1.43-.44-.71-.67-.78-1.61-.47-2.28-.27.29-.53.57-.78.85h0s0,0,0,0Z"/><path class="cls-21" d="M402.7,358.66c-1.21,1.38-3.05,1.99-4.07.99-.68-.67-.92-1.43-.56-2.27-.53.57-.98,1.07-1.33,1.46.06.11.85,1.56,2.03,2.09,1.45.65,3.53-.33,4.78-1.86.88-1.08,1.86-2.89,1.15-4.29-.43-.87-1.47-1.69-2.34-2.02-.42.45-.83.89-1.22,1.31.6-.28,1.36-.16,2.01.37,1.51,1.23.64,2.97-.45,4.21h0s0,0,0,0Z"/><path class="cls-20" d="M402.7,358.66c-.39.46-.85.85-1.38,1.14-.53.28-1.14.46-1.75.38-.3-.04-.6-.16-.85-.35-.24-.2-.44-.43-.61-.69-.16-.26-.27-.56-.29-.88-.02-.31.05-.63.17-.91l.15.09-1.32,1.47.02-.12c.33.57.74,1.11,1.24,1.54.25.21.52.4.82.52.3.12.62.17.95.16.65-.02,1.29-.24,1.87-.57.58-.32,1.1-.75,1.54-1.24.44-.49.82-1.05,1.11-1.65.28-.59.49-1.25.44-1.9-.02-.32-.11-.64-.27-.92-.16-.28-.36-.54-.59-.78-.47-.47-1.02-.86-1.63-1.11l.11-.03-1.23,1.3-.1-.14c.28-.13.59-.17.9-.14.3.03.59.14.85.29.51.31.95.77,1.1,1.36.15.59,0,1.2-.25,1.72-.25.53-.61,1-1,1.43h0s0,0,0,0ZM402.7,358.66c.37-.45.71-.93.94-1.46.23-.52.36-1.12.2-1.67-.16-.55-.59-.98-1.07-1.26-.48-.28-1.1-.36-1.6-.12l-.1-.14,1.21-1.32.05-.05.06.02c.65.25,1.23.65,1.72,1.14.24.25.46.52.64.83.17.31.27.66.3,1.01.05.71-.16,1.4-.46,2.02-.3.62-.69,1.2-1.14,1.71-.46.51-1.01.95-1.61,1.28-.6.33-1.28.57-1.99.59-.35,0-.71-.05-1.04-.18-.33-.14-.62-.34-.88-.56-.52-.46-.94-1.01-1.28-1.62l-.03-.06.05-.05,1.35-1.45.15.09c-.12.26-.18.55-.17.83.01.28.11.56.26.81.15.25.34.48.56.66.22.18.49.3.78.35.58.1,1.18-.06,1.71-.32.53-.27,1.01-.64,1.41-1.08h0Z"/><path class="cls-38" d="M495.4,252.78l-47.7,46.96c-3.63,3.6-45.12,43.23-48.85,46.81-1.31,1.57-5.03,5.77-5.42,6.36-2.53,2.75-5.28,6.33-8.55,9.54-.58.74-1.36.47-2.06.88-2.16,1.25-4.39,3.41-6,5.19l-14.51,16.05c-.93,1.01-1.18,1.64-.55,2.22l7.87,10.52c1.46,1.44,3.14,2.18,3.8.97,3.74-6.47,13.03-16.35,16.54-24.17,2.1-4.67,4.73-13.14,6.61-15.19,2.3-2.56,8.52-9.19,14.03-15.1.37-.4.74-.79,1.1-1.19.38-.41.76-.81,1.13-1.21,27.94-28.46,60.27-63.04,83.82-87.42-.92-.92-.34-.37-1.24-1.24h0Z"/><path class="cls-42" d="M396.34,346.5c-1.46.05-2.4-.84-3.38-1.66,1.39.41,2.79.95,4.1.4l-.72,1.26h0Z"/><path class="cls-37" d="M545.08,218.14l-37.8,31.16c-.36.44-.74.32-1.1,0l-3.44-2.87s.02-.09.02-.13c0-.19-.04-.38-.1-.55l1.69-1.72c.21-.26.14-.37-.15-.65-.22-.23-.41-.43-.7-.71-.27-.21-.49-.04-.76.21l-1.7,1.75c-.87.04-1.58.75-1.61,1.62-22.86,22.26-42.54,42.11-65.29,64.02l-26.83,25.61c-.96,1.24-5.1,3.46-7.84,5.24-.97.63-1.81,1.21-2.16,1.83l-2.19,6.46c-.69,1.42-2.89,4.76-2.99,4.98,2.81,2.84,2.67,2.63,4.59,4.43,2.16-2.4,7.95-8.45,13.21-14.09.42-.45.45-.5.99-1.15-.41-.58-1.1-1.43-1.66-1.96-.47-.45-.98-.91-1.43-1.3-.29-.25-.56-.47-.75-.65-.19-.19.29-.53.5-.76,31.45-30.4,65.32-63.81,93.03-91.03.15.04.31.06.47.06.27,0,.52-.07.75-.18l3.31,3.81c.78.78,1.44.76,2.06.47l37.86-33.92h0Z"/><path class="cls-20" d="M395.22,349.21c.24.03.48.06.72.04.24-.02.47-.08.68-.19l-.02.02c.27-.95.56-1.89.85-2.83.29-.94.59-1.88.9-2.81v.03c-.22-.27-.51-.5-.86-.59.36.07.66.29.92.55h.01s0,.03,0,.03c-.27.95-.55,1.89-.84,2.83-.29.94-.59,1.88-.9,2.81v.02s-.02,0-.02,0c-.22.11-.47.16-.71.17-.25,0-.49-.03-.72-.08h0Z"/><circle class="cls-13" cx="403.81" cy="346.53" r=".74"/><circle class="cls-13" cx="399.36" cy="350.98" r=".74"/><path class="cls-20" d="M407.13,339.69c-.38-.29-.73-.6-1.08-.92-.34-.32-.68-.66-.99-1.01.38.29.73.6,1.08.92.34.32.68.66.99,1.02h0Z"/><path class="cls-42" d="M479.86,264.44l4.14,4.05.77-.7-4.14-4.05-.77.7h0Z"/></g><g id="gun-2"><path class="cls-43" d="M504.86,358.27c.1,1.27-1.14,2.73-2.65,2.33-.45-.12-.71-.73-.13-.59.5.15,1.05-.03,1.45-.37.74-.63.86-1.57.58-2.25.26.31.51.6.74.88h0s0,0,0,0Z"/><path class="cls-21" d="M501.19,360.56c1.14,1.44,2.95,2.14,4.02,1.19.71-.64.99-1.39.67-2.24.5.6.92,1.11,1.26,1.53-.06.1-.93,1.51-2.13,1.99-1.48.58-3.51-.51-4.68-2.09-.82-1.12-1.71-2.97-.94-4.34.48-.84,1.55-1.62,2.44-1.9.39.47.78.93,1.15,1.37-.59-.31-1.35-.23-2.03.27-1.57,1.15-.78,2.93.24,4.23h0s0,0,0,0Z"/><path class="cls-20" d="M501.19,360.56c.36.47.81.89,1.32,1.2.51.31,1.11.52,1.73.46.31-.03.61-.13.86-.31.25-.18.46-.4.64-.66.18-.25.3-.55.34-.86.04-.31-.01-.63-.12-.92l-.15.09,1.24,1.54v-.12c-.37.55-.8,1.08-1.32,1.48-.26.2-.54.37-.85.48-.3.1-.63.14-.95.11-.65-.05-1.28-.31-1.84-.66-.56-.35-1.06-.8-1.48-1.31-.42-.52-.77-1.09-1.03-1.7-.26-.61-.43-1.27-.35-1.92.04-.32.14-.63.31-.91.17-.27.39-.53.63-.75.49-.44,1.06-.81,1.68-1.03l-.11-.03,1.17,1.36.11-.13c-.27-.14-.58-.2-.89-.18-.3.02-.6.11-.86.25-.52.28-.99.72-1.17,1.3-.18.58-.06,1.2.16,1.73.23.54.56,1.03.92,1.48h0s0,0,0,0ZM501.19,360.55c-.35-.46-.66-.96-.87-1.5-.21-.53-.3-1.14-.12-1.68.18-.54.63-.95,1.13-1.21.5-.26,1.12-.31,1.6-.04l.11-.13-1.14-1.38-.04-.05-.07.02c-.66.22-1.26.59-1.77,1.05-.26.23-.49.49-.68.8-.19.3-.31.65-.35,1-.09.71.1,1.41.36,2.04.27.64.63,1.23,1.06,1.77.44.54.96,1,1.55,1.36.59.36,1.25.63,1.95.68.35.02.71-.01,1.05-.13.34-.12.64-.3.91-.52.55-.43.99-.96,1.35-1.55l.04-.06-.05-.06-1.27-1.52-.15.09c.1.27.16.56.13.84-.03.28-.14.56-.3.8-.16.24-.37.46-.59.63-.23.17-.51.28-.8.31-.58.07-1.17-.12-1.69-.41-.52-.29-.97-.69-1.35-1.15h0Z"/><path class="cls-47" d="M413.86,250.21l45.31,49.27c3.44,3.78,42.92,45.42,46.47,49.17,1.23,1.64,4.74,6.02,5.1,6.62,2.39,2.87,4.95,6.59,8.07,9.96.55.76,1.33.53,2.02.98,2.09,1.35,4.22,3.62,5.74,5.48l13.7,16.75c.88,1.06,1.1,1.7.44,2.25l-8.38,10.11c-1.53,1.37-3.25,2.03-3.84.78-3.41-6.65-12.2-16.98-15.32-24.96-1.86-4.77-4.07-13.36-5.84-15.5-2.17-2.67-8.05-9.6-13.27-15.78-.35-.42-.7-.83-1.04-1.24-.36-.43-.72-.85-1.06-1.27-26.49-29.81-57.07-65.95-79.38-91.47.97-.87.36-.35,1.3-1.17h0Z"/><path class="cls-43" d="M508.14,348.73c1.45.12,2.44-.72,3.46-1.49-1.41.34-2.83.81-4.12.2l.65,1.3h0Z"/><path class="cls-41" d="M365.94,213.15l36.21,33c.34.46.72.35,1.1.05l3.58-2.7s-.01-.09,0-.13c0-.19.06-.38.12-.55l-1.6-1.8c-.2-.27-.12-.37.18-.64.23-.22.43-.41.73-.68.28-.2.5-.02.75.25l1.62,1.84c.87.08,1.54.83,1.52,1.7,21.73,23.37,40.4,44.17,62.04,67.18l25.52,26.91c.9,1.29,4.92,3.7,7.57,5.62.94.68,1.75,1.3,2.07,1.94l1.87,6.56c.62,1.45,2.65,4.89,2.74,5.12-2.95,2.69-2.8,2.49-4.81,4.2-2.04-2.51-7.52-8.84-12.5-14.72-.4-.47-.42-.52-.93-1.2.44-.56,1.17-1.38,1.75-1.88.49-.43,1.03-.86,1.49-1.23.3-.24.58-.44.78-.61.2-.18-.26-.54-.46-.79-29.91-31.92-62.08-66.97-88.4-95.53-.15.04-.31.05-.47.04-.27-.01-.52-.09-.74-.22l-3.5,3.65c-.81.74-1.47.69-2.08.37l-36.13-35.76h0Z"/><path class="cls-20" d="M509.13,351.49c-.24.02-.48.03-.72,0-.24-.03-.47-.11-.67-.23l.02.02c-.22-.96-.47-1.91-.71-2.87-.25-.95-.5-1.9-.76-2.85v.03c.24-.25.53-.47.89-.55-.36.05-.68.26-.94.5h-.01s0,.03,0,.03c.22.96.46,1.91.7,2.87.25.95.49,1.9.76,2.85v.02s.02,0,.02,0c.22.12.46.19.7.2.24.02.49,0,.73-.05h0Z"/><circle class="cls-30" cx="500.68" cy="348.39" r=".74"/><circle class="cls-30" cx="504.9" cy="353.05" r=".74"/><path class="cls-20" d="M497.7,341.39c.39-.27.76-.56,1.12-.87.36-.31.71-.62,1.04-.96-.39.27-.76.56-1.12.87-.36.31-.71.62-1.04.97h0Z"/><path class="cls-43" d="M428.79,262.63l-4.34,3.84-.73-.73,4.34-3.84.73.73h0Z"/></g><path class="cls-2" d="M398.74,390.77c-9.35-3.95-31.96-.8-34.73,1.11,19.35,9.52,35.11,5.44,34.73-1.11Z"/><path class="cls-2" d="M504.53,394.72c9.35-3.95,31.96-.8,34.73,1.11-19.35,9.49-35.11,5.44-34.73-1.11Z"/><path class="cls-3" d="M398.56,390.91c.38,6.54-15.2,10.56-34.55,1.07,18.18,1.11,33.03.45,34.55-1.07Z"/><path class="cls-3" d="M504.71,394.82c-.38,6.54,15.2,10.56,34.55,1.07-18.18,1.11-33.03.48-34.55-1.07Z"/><g id="sword"><path class="cls-37" d="M487.37,384.39c-24.64-35.79-61.79-64.9-90.44-80.8,4.23-.2,13.62,4.61,17.43,7.07,28.45,18.33,52.65,42.55,78.04,71.1-1.49,1.48-2.47,2.35-4.1,3.63l-.93-.99h0Z"/><path class="cls-21" d="M489.82,384.1l-1.72,1.66c-27.35-35.2-65.48-68.86-91.12-82.16,35.75,16.47,65.83,49.64,92.74,80.4l.1.1h0Z"/><path class="cls-20" d="M489.83,384.1l-1.72,1.66h0s0,0,0,0c-6.33-8.11-13.04-15.91-20.04-23.45-6.99-7.54-14.28-14.82-21.83-21.79-7.56-6.97-15.38-13.66-23.54-19.92-4.08-3.13-8.25-6.14-12.53-8.99-4.28-2.84-8.67-5.53-13.23-7.9l.11-.23c9.38,4.33,18.23,9.74,26.59,15.78,8.37,6.05,16.25,12.73,23.8,19.77,7.55,7.04,14.76,14.42,21.78,21.98,7.01,7.57,13.82,15.32,20.61,23.09-6.82-7.74-13.66-15.46-20.7-23-7.03-7.55-14.25-14.92-21.81-21.94-7.56-7.02-15.45-13.69-23.81-19.72-8.36-6.03-17.21-11.41-26.57-15.72l.11-.23c4.57,2.38,8.96,5.07,13.24,7.93,4.28,2.86,8.45,5.88,12.53,9.01,8.16,6.27,15.98,12.98,23.53,19.96,7.55,6.99,14.82,14.28,21.81,21.83,6.97,7.56,13.65,15.4,19.95,23.53h0s1.73-1.65,1.73-1.65h0Z"/><path class="cls-35" d="M498.08,378.54c-2.35.61-4.43,1.49-6.25,2.64-.27,1.66-2.32,3.52-4.26,3.94-.35-.45-.44-.58-.7-.92-.04-.06-.12-.09-.2-.05-.17.09-.39.21-.68.4-.72-.12-1.59.24-1.97,1.16-.45,1.15.46,2.67,1.46,3.67,1.1.87,1.65,1.27,2.92,1.09,1.29-.27,2-1.44,2.29-1.82,4.42,5.35,7.75,8.24,13.35,12.65,2.49.02,3.83-1.55,3-3.33-.28-.6-1-.99-1.58-.77.05-.18.03-.36,0-.54,2.93-2.69,4.18-6.05,1.09-11.73-2.64-4.79-5.6-6.41-8.42-6.39h-.02s0,0,0,0ZM505.5,383.93c.52.88.82,1.64,1.22,2.44,1.76,3.56.23,7.85-2.77,9.16-.15,0-.1-.03-.25.03.49-.82-.98-2.56-1.74-1.95.36-.9-.8-2.4-1.74-2.01.49-.84-.63-2.27-1.69-1.8.54-.91-.38-2.22-1.48-1.98.33-.97-.5-2.08-1.61-1.9.09-.86-.19-1.33-.6-1.72,1.32-1.01,2.79-2.56,4.09-3.25,3.23-1.4,5.23,1.27,6.57,2.99h0s0,0,0,0h0Z"/><path class="cls-46" d="M506.86,387.69c-.61-.3-.9-.9-.7-1.31.2-.41.83-.51,1.45-.21.61.3.95.88.75,1.29-.2.41-.89.53-1.5.23h0s0,0,0,0Z"/><path class="cls-46" d="M506.51,386.48c-.61-.3-.9-.9-.7-1.31.2-.41.83-.51,1.45-.21.61.3.95.88.75,1.29-.2.41-.89.53-1.5.23h0s0,0,0,0Z"/><path class="cls-46" d="M505.77,385.14c-.61-.3-.9-.9-.7-1.31.2-.41.83-.51,1.45-.21.61.3.95.88.75,1.29-.2.41-.89.53-1.5.23h0s0,0,0,0Z"/><path class="cls-46" d="M504.84,383.93c-.61-.3-.9-.9-.7-1.31.2-.41.83-.51,1.45-.21.61.3.95.88.75,1.29-.2.41-.89.53-1.5.23h0Z"/><path class="cls-46" d="M503.62,382.75c-.61-.3-.9-.9-.7-1.31.03-.06,0-.16.07-.14.25.13.77.22.71-.16-.08-.14-.17-.27-.08-.17.18,0,.55.16.76.26.61.3.95.88.75,1.29-.2.41-.89.53-1.5.23h0s0,0,0,0Z"/><path class="cls-28" d="M490.68,388.68c.81-2.11,2.43-4.06,4.17-4.52"/><path class="cls-28" d="M490.95,388.98c1.5.31,3.93-1.48,4.52-3.08"/><path class="cls-28" d="M492.36,390.7c1.97.45,3.91-1.45,4.68-2.86"/><path class="cls-28" d="M494.14,392.58c2.33.08,3.76-1.58,4.44-2.84"/><path class="cls-28" d="M495.93,394.4c1.97.01,3.77-1.62,4.33-2.88"/><path class="cls-28" d="M497.67,396.06c2.15-.09,3.67-1.06,4.3-2.47"/><path class="cls-28" d="M499.61,397.75c1.97.11,3.57-1.06,4.09-2.21"/><path class="cls-28" d="M501.73,399.47c1.97.11,3.2-1.11,3.73-2.25"/><path class="cls-29" d="M490.68,388.68c.17-.5.39-.99.65-1.45.26-.46.57-.9.91-1.31.35-.4.73-.78,1.17-1.09.44-.31.92-.55,1.44-.67-.5.17-.97.43-1.38.75-.42.32-.8.69-1.13,1.09-.69.8-1.22,1.72-1.65,2.68h0Z"/><path class="cls-29" d="M490.95,388.98c.48.07.96-.05,1.4-.23.44-.18.86-.42,1.25-.7.39-.28.75-.6,1.07-.95.32-.35.61-.75.8-1.19-.15.46-.42.88-.73,1.26-.31.37-.68.7-1.07.99-.4.28-.83.53-1.29.69-.46.16-.96.26-1.44.14h0Z"/><path class="cls-29" d="M492.36,390.7c.48.08.97.04,1.43-.1.46-.14.89-.37,1.28-.65.4-.27.75-.6,1.08-.96.33-.35.63-.74.88-1.15-.21.44-.49.85-.81,1.22-.32.37-.68.71-1.08,1-.4.28-.85.51-1.33.64-.48.13-.99.15-1.46,0h0Z"/><path class="cls-29" d="M494.14,392.58c.46-.01.92-.08,1.36-.22.44-.14.85-.34,1.23-.6.38-.25.72-.57,1.03-.91.31-.34.58-.72.83-1.11-.4.84-1.01,1.59-1.78,2.13-.39.26-.82.47-1.27.59-.45.12-.93.16-1.39.12h0Z"/><path class="cls-29" d="M495.93,394.4c.91-.05,1.77-.39,2.51-.91.37-.25.71-.55,1.02-.88.31-.33.58-.69.8-1.09-.16.43-.42.81-.72,1.16-.3.35-.65.65-1.02.92-.38.26-.79.47-1.23.62-.44.14-.9.22-1.35.19h0Z"/><path class="cls-29" d="M497.67,396.06c.43-.05.86-.11,1.28-.22.42-.11.83-.26,1.2-.46.38-.2.73-.45,1.04-.75.31-.3.57-.65.77-1.03-.16.41-.4.78-.7,1.11-.3.32-.67.58-1.06.79-.79.4-1.67.59-2.54.57h0Z"/><path class="cls-29" d="M499.61,397.75c.41,0,.82-.05,1.21-.14.39-.1.78-.23,1.13-.43.36-.18.69-.42.99-.69s.56-.59.76-.95c-.15.38-.39.73-.69,1.02-.29.3-.64.54-1,.74-.37.19-.76.33-1.17.41-.41.08-.82.1-1.23.05Z"/><path class="cls-29" d="M501.73,399.47c.39,0,.77-.04,1.14-.14.37-.1.72-.24,1.05-.45.33-.19.62-.45.88-.73.26-.28.48-.6.66-.94-.27.73-.8,1.36-1.47,1.78-.34.2-.71.35-1.09.43-.38.08-.78.09-1.16.05h0Z"/></g><g id="sword-2"><path class="cls-40" d="M417.98,381.35c26.72-34.27,65.54-61.11,95.09-75.28-4.21-.45-13.87,3.79-17.82,6.02-29.49,16.61-55.08,39.35-82.13,66.33,1.4,1.57,2.33,2.5,3.87,3.86l.99-.93h0Z"/><path class="cls-21" d="M415.56,380.92l1.62,1.76c29.39-33.51,69.45-64.85,95.84-76.6-36.66,14.31-68.66,45.64-97.35,74.74l-.11.1h0Z"/><path class="cls-20" d="M415.54,380.92l1.62,1.76h0s0,0,0,0c6.8-7.72,13.97-15.11,21.4-22.22,7.43-7.11,15.13-13.94,23.09-20.46,7.96-6.51,16.17-12.72,24.69-18.48,4.26-2.88,8.6-5.64,13.04-8.23,4.44-2.58,8.98-5,13.68-7.1l-.1-.24c-9.62,3.77-18.78,8.64-27.48,14.18-8.71,5.54-16.98,11.75-24.94,18.32-7.95,6.57-15.59,13.52-23.05,20.65-7.45,7.14-14.71,14.47-21.95,21.82,7.27-7.32,14.55-14.62,22.03-21.73,7.47-7.11,15.11-14.05,23.07-20.61,7.96-6.55,16.23-12.74,24.94-18.27,8.71-5.52,17.85-10.37,27.46-14.11l-.1-.24c-4.7,2.1-9.25,4.53-13.69,7.13-4.44,2.6-8.78,5.37-13.04,8.25-8.52,5.78-16.72,12-24.67,18.53-7.95,6.53-15.64,13.37-23.07,20.5-7.41,7.14-14.55,14.56-21.32,22.3h0s-1.63-1.75-1.63-1.75h0Z"/><path class="cls-45" d="M407.64,374.88c2.31.75,4.33,1.75,6.08,3.01.17,1.67,2.11,3.65,4.02,4.18.38-.43.47-.55.76-.87.05-.06.13-.08.2-.03.16.1.38.24.66.44.73-.08,1.57.33,1.9,1.28.38,1.18-.62,2.64-1.67,3.57-1.15.8-1.72,1.17-2.98.92-1.27-.34-1.91-1.56-2.18-1.95-4.73,5.08-8.22,7.76-14.07,11.83-2.49-.13-3.73-1.78-2.79-3.5.31-.58,1.06-.93,1.63-.68-.04-.18,0-.36.03-.54-2.76-2.86-3.81-6.28-.39-11.78,2.92-4.62,5.97-6.07,8.79-5.88h.02s0,0,0,0ZM399.91,379.81c-.57.85-.92,1.59-1.36,2.36-1.97,3.45-.7,7.82,2.22,9.31.15,0,.1-.02.25.04-.44-.84,1.13-2.5,1.85-1.84-.3-.92.94-2.35,1.85-1.91-.44-.87.77-2.22,1.79-1.7-.49-.94.52-2.19,1.59-1.89-.27-.99.62-2.05,1.72-1.8-.04-.86.27-1.32.7-1.68-1.26-1.08-2.63-2.72-3.89-3.49-3.15-1.59-5.3.96-6.74,2.6h0s0,0,0,0h0s0,0,0,0Z"/><path class="cls-44" d="M398.33,383.49c.63-.26.95-.85.77-1.27-.18-.42-.8-.56-1.43-.3-.63.26-1,.83-.83,1.25.18.42.85.59,1.49.32h0s0,0,0,0Z"/><path class="cls-44" d="M398.76,382.3c.63-.26.95-.85.77-1.27-.18-.42-.8-.56-1.43-.3-.63.26-1,.83-.83,1.25.18.42.85.59,1.49.32h0s0,0,0,0Z"/><path class="cls-44" d="M399.57,381c.63-.26.95-.85.77-1.27-.18-.42-.8-.56-1.43-.3-.63.26-1,.83-.83,1.25.18.42.85.59,1.49.32h0s0,0,0,0Z"/><path class="cls-44" d="M400.57,379.85c.63-.26.95-.85.77-1.27-.18-.42-.8-.56-1.43-.3-.63.26-1,.83-.83,1.25.18.42.85.59,1.48.32h0s0,0,0,0Z"/><path class="cls-44" d="M401.86,378.75c.63-.26.95-.85.77-1.27-.02-.06,0-.16-.06-.14-.26.11-.78.18-.7-.2.08-.13.19-.26.09-.16-.18,0-.56.13-.77.22-.63.26-1,.83-.83,1.25.18.42.85.59,1.49.32h0s0,0,0,0Z"/><path class="cls-28" d="M414.43,385.44c-.68-2.15-2.19-4.19-3.89-4.76"/><path class="cls-28" d="M414.14,385.72c-1.52.22-3.84-1.71-4.33-3.34"/><path class="cls-28" d="M412.62,387.35c-1.99.34-3.82-1.68-4.5-3.14"/><path class="cls-28" d="M410.75,389.12c-2.33-.06-3.66-1.8-4.27-3.1"/><path class="cls-28" d="M408.85,390.83c-1.97-.1-3.67-1.84-4.15-3.13"/><path class="cls-28" d="M407.01,392.39c-2.14-.21-3.6-1.28-4.15-2.72"/><path class="cls-28" d="M404.97,393.96c-1.98,0-3.5-1.27-3.95-2.45"/><path class="cls-28" d="M402.75,395.55c-1.98,0-3.13-1.29-3.59-2.47"/><path class="cls-29" d="M414.43,385.44c-.14-.51-.33-1.01-.56-1.49-.23-.48-.51-.94-.83-1.37-.33-.42-.69-.82-1.1-1.16-.42-.33-.89-.61-1.4-.75.49.2.94.49,1.34.83.4.34.75.73,1.06,1.16.64.84,1.12,1.79,1.49,2.78h0Z"/><path class="cls-29" d="M414.14,385.72c-.48.04-.96-.11-1.39-.31-.43-.21-.83-.47-1.2-.78-.37-.3-.71-.64-1.01-1.02-.3-.37-.56-.78-.73-1.23.12.47.36.9.65,1.3.29.39.64.74,1.01,1.05.38.3.79.58,1.24.77.45.19.94.32,1.43.22h0Z"/><path class="cls-29" d="M412.62,387.35c-.49.06-.97-.02-1.42-.19-.45-.17-.87-.42-1.24-.73-.38-.3-.72-.65-1.02-1.02-.31-.37-.58-.78-.81-1.2.18.45.44.88.73,1.27.3.39.64.75,1.02,1.06.39.3.82.56,1.29.72.47.16.98.2,1.46.09h0Z"/><path class="cls-29" d="M410.75,389.12c-.46-.04-.92-.13-1.35-.3-.43-.16-.83-.39-1.19-.67-.37-.28-.69-.61-.97-.97-.29-.36-.54-.75-.76-1.16.35.86.91,1.65,1.65,2.23.37.28.79.52,1.24.66.45.15.92.22,1.38.2h0Z"/><path class="cls-29" d="M408.85,390.83c-.91-.1-1.75-.5-2.45-1.06-.36-.27-.68-.59-.97-.94-.29-.35-.54-.72-.73-1.14.14.44.38.84.65,1.2.28.37.61.69.97.98.37.28.76.52,1.19.69.43.17.88.27,1.34.27h0Z"/><path class="cls-29" d="M407.01,392.39c-.43-.07-.85-.16-1.27-.3-.41-.14-.81-.31-1.17-.53-.37-.22-.71-.49-1-.81-.29-.32-.53-.68-.71-1.08.13.42.35.81.64,1.14.28.34.63.62,1.01.85.76.45,1.64.68,2.51.72h0Z"/><path class="cls-29" d="M404.97,393.96c-.41-.03-.81-.1-1.2-.21-.39-.12-.76-.28-1.1-.49-.35-.2-.67-.46-.95-.75s-.52-.62-.7-.99c.12.39.35.75.62,1.06.27.31.6.57.96.79.36.21.74.38,1.15.48.4.1.82.14,1.23.12Z"/><path class="cls-29" d="M402.75,395.55c-.39-.03-.77-.09-1.13-.21-.36-.12-.71-.28-1.02-.51-.31-.21-.59-.48-.83-.78-.24-.3-.44-.63-.61-.98.23.74.72,1.41,1.36,1.86.33.22.68.39,1.06.5.38.1.77.14,1.16.11h0Z"/></g><path class="cls-3" d="M369.42,241.81c8.57-2.81,22.26-18.37,23.15-21.29-18.53,4.94-27.05,17.05-23.15,21.29h0Z"/><path class="cls-3" d="M542.62,247.4c-2.02-8.37-15.78-22.59-18.5-23.66,3.28,18.02,14.16,27.05,18.5,23.66Z"/><path class="cls-2" d="M369.42,241.81c-3.95-4.25,4.51-16.24,22.98-21.18-13.02,9.99-22.82,19.23-22.98,21.18h0Z"/><path class="cls-2" d="M542.62,247.4c-4.34,3.44-15.12-5.53-18.4-23.5,8.51,13.16,16.56,23.19,18.4,23.5Z"/><path class="cls-6" d="M420.49,334.6s-7.32.79-9.37-9.31c-2.19-10.8,6.31-11.95,6.31-11.95,0,0,9.63-.93,15.63-1.08l2.66,21.34-15.23,1h0Z"/><path class="cls-10" d="M421.45,331.35s-4.74.91-5.71-6.6c-.69-5.32,2.6-6.07,2.6-6.07l10.98,1.86.06,9.79-7.92,1.02h0Z"/><path class="cls-8" d="M418.34,318.68s7.02-.51,10.68-.99l1.52,6.79-8.44.53s-.58-6.13-3.77-6.33Z"/><path class="cls-9" d="M416.86,313.52s9-2.21,10.12,7.71c.29,2.59-1.12,8.52-5.53,10.12l16.49-1.73-1.49-17.84-5.55.46s-11.79.41-14.03,1.27h0Z"/><path class="cls-1" d="M420.48,334.6c.06,0,61.68-4.15,68-3.89,18.71-10.27-.09-50.58-15.86-73.13,1.8-5.08-35.48-16.51-52.35-15.48-2.12.13-4.17.27-6.13.42-9.15.97-9.24,12.71-5.51,20.11,3.62,7.18,36.03,65.51,13.24,71.68l-1.4.28h0Z"/><path class="cls-5" d="M486.54,281.41c-4.18-8.68-9.19-17.05-13.93-23.82,1.8-5.08-35.49-16.51-52.35-15.48-2.12.13-4.17.27-6.13.42-9.15.97-9.24,12.71-5.51,20.11,1.14,2.26,5.11,9.55,9.33,18.7"/><path class="cls-7" d="M423.85,295.21c6.6,17.41,10.3,35.79-1.95,39.11l-1.4.28c.06,0,61.68-4.15,68-3.89,10.15-5.57,9.26-19.97,3.81-35.59"/><path class="cls-11" d="M414.77,245.93c-4.4,0-5.53,4.23-5.47,6.91.16,7.02,5.47,7.36,5.47,7.36l7.09-.39,3.4-14.46-10.48.58h0Z"/><path class="cls-4" d="M414.77,245.98l10.48-.58,1.08,10.8-9.15.4s2.96-8.65-2.42-10.62h0Z"/><path class="cls-12" d="M472.67,257.58c7.95-1.28,7.84-11.97,2.41-16.25-18.42-.68-42.66-.17-60.17,1.14,1.99-.06,7.53.45,8.15,7.74.29,3.4-1.39,6.53-3.64,8.3-2.2,1.74-4.64,1.74-4.64,1.74.29.11,2.57,0,4.28-.1.88-.06,3.03-.31,3.63-.39,24.97-3.28,49.9-2.17,49.9-2.17h.09s0,0,0,0h0Z"/><path class="cls-24" d="M427.93,274.37c-.17-.39-.38-.89-.87-.96-.3.02-.77-.06-.67-.47.28-.13.63-.05.94-.08.67.01,1.32-.14,1.99-.18.4.11.31.64-.12.55-.48.11-.21.67-.09.96.53,1.23,1.04,2.47,1.58,3.69.15.36.45.68.86.72.43.04.9.05,1.3-.14.37-.24.29-.74.24-1.11-.15-.43.64-.33.59.05.15.51.33,1.01.53,1.51-.03.24-.33.17-.5.2-1.18.09-2.36.16-3.54.26-.38-.02-.95.33-1.18-.11-.14-.46.61-.2.71-.55,0-.39-.23-.73-.36-1.09-.46-1.09-.93-2.18-1.39-3.27h0Z"/><path class="cls-24" d="M433.67,273.97c-.17-.38-.36-.86-.82-.95-.29-.03-.78-.02-.73-.44.19-.19.54-.07.8-.11.7.02,1.39-.11,2.09-.17.35-.03.47.62.03.53-.43.01-.46.48-.28.77.56,1.36,1.14,2.71,1.71,4.06.12.29.29.65.64.7.3.06.77-.03.84.38-.05.32-.52.14-.75.19-.62-.04-1.24.04-1.85.14-.27.08-.65.03-.66-.32.06-.32.69-.08.72-.48-.05-.39-.26-.73-.39-1.09-.45-1.07-.9-2.14-1.35-3.2h0Z"/><path class="cls-24" d="M438.97,274.81c.11.27.48.08.7.09.31-.03.65-.26.62-.6-.05-.54-.31-1.08-.75-1.41-.41-.28-.93-.25-1.39-.19-.03.18.12.36.17.54.22.53.44,1.05.66,1.58h0ZM439.76,276.71c.19.41.33.89.67,1.21.29.2.68.11,1,.08.36-.02.57-.39.46-.72-.17-.76-.66-1.55-1.47-1.71-.36-.06-.73-.08-1.09,0-.03.17.11.34.16.51.09.21.18.42.27.64h0ZM437.34,273.89c-.19-.41-.37-.91-.82-1.1-.29-.1-.76.04-.83-.38.08-.36.67-.11.95-.19,1.03-.03,2.07-.31,3.08,0,.87.22,1.65.96,1.72,1.89.03.45-.31.81-.69,1-.05-.16.44.07.6.1.69.22,1.33.68,1.64,1.36.24.47.42,1.11.05,1.56-.43.47-1.12.49-1.71.52-.89.02-1.79.03-2.67.21-.32.06-.54-.57-.11-.53.44-.02.48-.49.29-.79-.51-1.21-1.01-2.41-1.52-3.62h0Z"/><path class="cls-24" d="M446.16,271.63c.39-.06.43.38.54.63.12.34.33.64.41.99-.33.33-.6-.17-.74-.43-.17-.29-.45-.57-.82-.54-.48,0-.97.02-1.45.09-.17.19.08.47.13.69.23.53.43,1.07.67,1.59.32-.03.74.02.97-.25.09-.27-.32-.89.25-.76.35.2.31.72.49,1.05.15.46.46.86.58,1.32-.31.34-.62-.15-.74-.43-.22-.41-.74-.36-1.14-.35-.29-.06-.09.2-.05.34.26.59.46,1.2.78,1.75.25.41.77.35,1.18.33.39-.02.87-.03,1.1-.4.26-.3-.33-.89.16-.99.41-.04.4.45.51.72.09.33.22.66.34.98-.03.24-.33.17-.5.19-1.21.08-2.43.13-3.64.23-.36,0-.96.28-1.07-.24.03-.34.77-.16.66-.65-.09-.41-.3-.79-.44-1.18-.45-1.07-.87-2.14-1.33-3.2-.17-.35-.44-.74-.87-.75-.28.06-.71-.15-.55-.48.41-.08.85-.02,1.26-.07,1.1-.06,2.2-.13,3.29-.19h0Z"/><path class="cls-24" d="M448.9,273.2c-.18-.41-.36-.91-.81-1.1-.31-.09-.86.02-.83-.47.29-.23.78-.04,1.15-.11.95-.01,1.93-.28,2.86,0,.98.27,1.8,1.16,1.87,2.19.03.49-.36.89-.81,1.03-.35.02.27.12.37.23.75.36,1.27,1.04,1.67,1.75.09.27.62.83.7.29-.03-.58.76-.09.58.31,0,.42-.42.7-.81.69-.55.04-1.07-.27-1.35-.74-.5-.66-.84-1.46-1.5-1.98-.27-.2-.66-.32-.99-.18-.07.17.08.33.12.49.21.49.36,1,.65,1.45.24.37.7.43,1.11.42.43.11.31.68-.15.51-.7,0-1.4-.05-2.08.09-.32.15-1.03.01-.77-.44.34-.02.8-.2.57-.62-.39-1.04-.83-2.06-1.24-3.09-.1-.25-.2-.5-.3-.75h0ZM450.57,274.26c.16.39.71.17,1.02.13.42-.09.41-.6.28-.92-.19-.56-.44-1.22-1.06-1.42-.31-.04-1-.24-1.05.18.22.64.5,1.25.75,1.88.02.05.04.1.06.15h0Z"/><path class="cls-24" d="M459.15,276.3c.13.31.25.72.64.78.3.07.79-.03.85.39-.06.32-.52.12-.76.17-.64-.06-1.28.01-1.91.1-.27.08-.65-.04-.62-.38.15-.25.77-.04.74-.48-.1-.48-.33-.91-.49-1.37-.46-1.14-.91-2.29-1.36-3.43-.11-.36-.53-.35-.83-.33-.32,0-.81.07-.81.49-.1.27.26.73-.05.87-.36.08-.43-.33-.51-.58-.12-.38-.31-.73-.46-1.1.04-.25.38-.21.59-.23,1.64-.07,3.27-.14,4.91-.21.36-.06.6.23.61.57.13.4.32.78.49,1.16-.13.39-.6.06-.66-.23-.24-.41-.61-.82-1.12-.84-.31.01-.76-.1-.97.17,0,.29.17.54.26.81.49,1.22.97,2.45,1.46,3.67h0Z"/><path class="cls-24" d="M463.58,275.22c-.23,0-.12.29-.14.44.01.34-.02.68.04,1.01.16.37.63.28.93.38.27.16.21.6-.16.46-.5-.03-1.01-.08-1.51.04-.3.16-.85-.15-.59-.47.24-.04.53-.12.59-.4.09-.49.04-1,.06-1.49,0-1.47.02-2.94.03-4.41.14-.33.61-.05.72.2,1.42,1.8,2.82,3.62,4.27,5.39.23.28.55.48.91.5.31,0,.48.63.03.51-.61-.03-1.22-.07-1.82.03-.27,0-.59.13-.83-.03-.29-.21-.08-.52.23-.48.42-.12,0-.57-.14-.78-.23-.3-.45-.61-.7-.89-.2-.1-.44-.03-.66-.04-.42.01-.84.03-1.25.04h0ZM464.98,274.61c.22.01-.07-.18-.1-.28-.5-.66-1.01-1.32-1.51-1.98.1-.02.02.21.05.3,0,.67,0,1.33,0,2,.52-.01,1.05-.03,1.57-.05h0Z"/><path class="cls-24" d="M468.61,272.41c-.18-.47-.42-1.05-.97-1.17-.29.05-.83-.21-.54-.52.65,0,1.31.04,1.96-.02.83-.07,1.68-.05,2.47.24,1.74.59,3.18,2.11,3.46,3.95.13.72-.09,1.55-.74,1.95-.87.56-1.95.45-2.94.4-.56-.03-1.11.05-1.67.1-.36-.05-.4-.61.03-.54.44-.01.43-.5.27-.79-.45-1.2-.9-2.4-1.34-3.6h0ZM470.95,275.38c.18.4.28.9.67,1.16.36.17.78.14,1.17.1.52-.07.85-.59.85-1.08.03-.9-.33-1.75-.75-2.52-.44-.83-1.25-1.47-2.19-1.63-.39-.06-.79-.12-1.18-.06-.08.15.07.32.1.48.44,1.19.89,2.38,1.33,3.56h0Z"/><path class="cls-24" d="M445.86,290.13c.14.42.52.71.96.75.31.05.83-.02.85.42-.16.28-.63.08-.91.15-.62-.01-1.23,0-1.84.11-.33.01-.67.15-1,.06-.29-.14-.23-.56.13-.51.29-.07.72-.16.74-.53-.03-.34-.22-.64-.33-.95-.46-1.09-.9-2.18-1.37-3.27-.1-.39-.53-.4-.85-.34-.29.06-.73.15-.8-.26.04-.35.59-.28.83-.46.37-.14.74-.3,1.12-.42.26-.06.39.18.45.38.68,1.62,1.36,3.25,2.03,4.88h0Z"/><path class="cls-24" d="M446.75,284.77c.81-.03,1.62.09,2.43,0,.36-.03.11-.59.46-.56.44.02.37.57.4.88.05.39-.28.74-.68.69-.63.03-1.27-.06-1.9-.03.14.49.34.96.53,1.44.03-.16.55-.18.76-.22,1.26-.06,2.58.67,3.11,1.83.25.57.39,1.31-.03,1.83-.46.54-1.22.65-1.9.66-.58,0-1.26-.13-1.61-.65-.2-.26-.16-.81.26-.76.36,0,.78.31.72.71.19.26.62.17.92.17.36-.01.69-.29.68-.66,0-.58-.22-1.14-.54-1.62-.35-.5-.93-.84-1.55-.83-.35-.06-.65.17-.98.17-.34-.04-.4-.44-.52-.69-.28-.71-.55-1.43-.77-2.16-.02-.13.09-.23.21-.21h0Z"/><path class="cls-24" d="M454.89,285.99c-.19-.47-.44-1.05-1-1.15-.29.07-.84-.2-.55-.51.66-.03,1.33,0,1.99-.08.84-.1,1.7-.08,2.5.21,1.77.59,3.22,2.16,3.49,4.03.11.69-.14,1.47-.75,1.86-.85.55-1.91.47-2.88.45-.54,0-1.07.08-1.6.15-.36-.04-.42-.6,0-.55.44-.03.41-.52.24-.81-.48-1.2-.96-2.4-1.45-3.59h0ZM457.31,288.91c.19.4.31.9.7,1.15.36.16.78.12,1.16.06.52-.09.82-.62.81-1.12,0-.9-.39-1.76-.83-2.53-.46-.82-1.28-1.44-2.22-1.58-.38-.05-.79-.1-1.17-.02-.08.15.08.32.12.48.48,1.19.96,2.38,1.43,3.56h0Z"/><path class="cls-24" d="M464.96,283.85c.37-.06.42.35.52.6.12.34.29.65.41.99-.22.37-.6-.07-.7-.34-.17-.29-.42-.62-.8-.61-.49-.02-.98,0-1.47.04-.27.12.02.46.06.67.22.54.41,1.08.64,1.61.32-.01.68.01.95-.18.21-.25-.32-.88.25-.81.39.14.33.68.49,1,.15.47.42.89.58,1.36-.21.39-.65-.07-.7-.36-.17-.38-.62-.43-.98-.42-.24-.04-.44.01-.27.26.26.61.45,1.25.78,1.83.24.41.77.36,1.18.35.39-.01.87,0,1.12-.38.25-.29-.23-.78.1-.96.4-.11.49.33.55.62.09.36.22.72.34,1.07-.04.23-.33.16-.51.18-1.22.05-2.45.08-3.67.15-.34-.02-.82.25-1.03-.14-.22-.47.6-.21.63-.62.02-.36-.19-.68-.3-1.02-.46-1.15-.89-2.3-1.36-3.44-.16-.37-.43-.79-.88-.81-.28.05-.72-.16-.54-.49.42-.07.87,0,1.3-.04,1.1-.04,2.2-.08,3.3-.13h0Z"/><path class="cls-24" d="M432.54,300.82c.18.58.79.82,1.32.97.91.31,1.9.62,2.55,1.38.36.44.62,1.02.59,1.6-.05.59-.55,1.03-1.1,1.18-.67.22-1.42.16-2.06-.12-.32-.14-.2.56-.59.32-.28-.22-.19-.67-.35-.97-.12-.39-.29-.77-.46-1.15.01-.39.57-.19.59.12.39.71,1.1,1.33,1.94,1.34.43.01.96-.21,1-.69,0-.64-.5-1.13-1.03-1.41-.76-.39-1.63-.52-2.37-.97-.66-.4-1.12-1.13-1.13-1.91.01-.52.44-.92.91-1.07.6-.2,1.25-.24,1.86-.06.28.15.4-.33.71-.09.14.23.1.55.23.8.1.34.32.64.4.98-.19.29-.55.02-.61-.24-.26-.44-.61-.92-1.17-.96-.41-.03-.93-.03-1.2.34-.11.18-.11.42-.03.61h0Z"/><path class="cls-24" d="M440.49,298.86c.39-.07.4.37.5.63.1.32.25.63.34.95-.17.34-.59.03-.64-.25-.16-.31-.4-.68-.8-.66-.49,0-.97.04-1.46.09-.27.12,0,.46.03.68.19.54.35,1.08.55,1.61.32-.02.68-.01.95-.21.23-.24-.23-.72.17-.83.44-.06.41.52.52.81.11.53.4,1.01.56,1.53-.17.38-.63.01-.65-.29-.13-.39-.57-.47-.94-.44-.21-.01-.5-.02-.33.25.22.6.38,1.22.65,1.8.14.34.54.41.86.38.47-.03,1.01.02,1.37-.33.29-.28.05-.7.11-1.01.3-.24.62.08.59.41.08.41.19.82.32,1.21-.05.24-.35.17-.53.2-1.21.09-2.42.16-3.63.27-.33-.02-.81.28-1.02-.1-.19-.46.54-.25.64-.6.1-.35-.12-.68-.2-1.01-.4-1.16-.78-2.34-1.19-3.49-.14-.37-.39-.78-.83-.79-.28.07-.7-.16-.51-.48.41-.09.85-.03,1.26-.08,1.1-.08,2.2-.16,3.3-.24h0Z"/><path class="cls-24" d="M445.46,303.78c.11.36.32.76.73.83.3.11.79-.09.87.34-.01.39-.59.18-.85.24-.61-.03-1.21,0-1.81.12-.26.04-.65.13-.72-.22-.06-.4.55-.17.68-.47.1-.31-.08-.61-.16-.91-.4-1.19-.79-2.39-1.2-3.58-.14-.35-.32-.8-.75-.84-.28-.01-.75-.04-.66-.44.21-.2.58-.06.85-.1.87.02,1.72-.23,2.59-.17.89.03,1.76.6,2.06,1.46.2.48.26,1.09-.09,1.52-.46.54-1.21.65-1.88.74-.25-.03-.05.23-.03.36.12.38.25.75.38,1.13h0ZM444.78,301.73c.24.03.55-.03.8-.1.37-.08.57-.47.47-.83-.1-.5-.27-1.03-.65-1.4-.36-.3-.89-.31-1.32-.19-.17.14,0,.38.04.56.22.65.43,1.31.65,1.96h0Z"/><path class="cls-24" d="M452.09,303.43c.11.3.2.73.58.77.29.06.78-.04.82.38-.07.31-.52.14-.76.18-.64-.05-1.28.04-1.91.13-.27.09-.65-.03-.59-.37.16-.25.77-.06.77-.49-.07-.46-.26-.9-.39-1.35-.38-1.15-.75-2.3-1.13-3.45-.09-.37-.51-.34-.81-.32-.3.02-.74.06-.82.42-.1.3.05.63-.02.93-.28.19-.55-.11-.54-.39-.1-.41-.25-.8-.41-1.19-.01-.28.36-.26.57-.28,1.64-.1,3.28-.2,4.92-.29.36-.07.58.22.57.56.1.4.27.78.41,1.16-.08.34-.58.16-.6-.14-.21-.42-.53-.87-1.04-.91-.33,0-.74-.07-1.02.15-.06.24.09.48.15.71.41,1.26.83,2.53,1.24,3.79h0Z"/><path class="cls-24" d="M454.58,299.52c-.12-.36-.26-.82-.68-.94-.28-.07-.77.01-.74-.42.11-.25.5-.1.72-.14.71.03,1.42-.07,2.12-.14.32-.14.57.5.18.5-.3,0-.65.22-.53.56.16.63.39,1.24.58,1.86.29.87.56,1.75.85,2.61.08.27.29.51.59.52.29,0,.79.04.7.45-.21.19-.57.07-.84.1-.64-.05-1.27.06-1.91.14-.28.12-.64-.17-.47-.45.25-.12.77-.05.73-.46-.09-.49-.28-.95-.42-1.43-.3-.92-.6-1.85-.89-2.77h0Z"/><path class="cls-24" d="M461.43,297.62c.38-.07.4.36.48.61.09.33.24.64.33.97-.17.34-.59.02-.63-.26-.16-.31-.39-.68-.79-.67-.49-.02-.98.02-1.46.06-.27.11-.02.46.02.68.18.54.33,1.08.53,1.61.32-.01.69,0,.96-.19.24-.23-.21-.72.18-.82.45-.05.4.53.5.82.1.53.38,1.01.53,1.53-.14.34-.63.05-.63-.25-.11-.38-.51-.54-.88-.5-.17.02-.6-.09-.43.2.21.61.36,1.25.63,1.84.14.34.53.42.86.4.47-.03,1.01.04,1.38-.31.3-.27.06-.69.13-1.01.3-.23.63.09.59.42.07.41.18.81.29,1.21-.05.23-.33.16-.51.19-1.22.07-2.45.11-3.68.2-.33-.02-.77.24-1-.08-.26-.46.45-.3.6-.58.16-.32-.05-.65-.13-.96-.38-1.18-.75-2.37-1.14-3.55-.13-.38-.37-.84-.84-.85-.28.06-.7-.17-.5-.49.41-.08.84-.02,1.25-.06,1.11-.06,2.23-.12,3.34-.18h0Z"/><path class="cls-24" d="M463.81,298.76c-.08-.42-.4-.8-.87-.74-.45.11-.59-.68-.04-.51.6,0,1.22-.09,1.82.04.29.31.52.68.79,1.02.86,1.15,1.72,2.3,2.58,3.45-.19.04-.04-.22-.06-.36.14-1.4.28-2.81.42-4.21.33-.27.87-.16,1.28-.24.33-.05,1.1-.16.89.41-.4.07-.92.26-.64.77.43,1.42.88,2.84,1.32,4.25.08.5.58.65,1.02.63.38.02.39.67-.06.51-.71-.02-1.42-.06-2.11.08-.32.11-.98.07-.76-.42.35-.06.94-.17.7-.68-.38-1.26-.78-2.51-1.17-3.77.08.11-.01.3,0,.45-.11,1.18-.27,2.35-.35,3.53-.05.31.06.68-.09.95-.28.14-.46-.13-.6-.33-1.13-1.46-2.26-2.93-3.39-4.39.12-.04.1.25.17.35.36,1.14.7,2.29,1.08,3.42.12.46.59.6,1.01.6.45.23.12.65-.28.48-.59-.09-1.19.03-1.77.1-.37-.01-.39-.61.03-.53.56,0,.39-.62.26-.95l-1.22-3.89s.03,0,.05-.01h0Z"/><path class="cls-24" d="M474.19,299.77c.07.27.43.09.63.12.34-.02.74-.21.76-.59.01-.52-.19-1.07-.59-1.41-.39-.3-.91-.27-1.38-.23-.05.17.07.36.11.54.16.53.32,1.05.48,1.58ZM474.77,301.67c.15.41.23.88.54,1.21.28.21.67.12,1,.1.31-.02.58-.27.55-.59-.04-.71-.38-1.5-1.08-1.78-.4-.15-.85-.15-1.27-.11-.13.11.05.34.06.5.07.22.13.44.2.66h0ZM472.67,298.82c-.14-.41-.27-.91-.7-1.11-.28-.11-.76.02-.79-.4.1-.34.65-.09.92-.16,1.05.01,2.13-.27,3.16.08.82.22,1.53.97,1.52,1.85,0,.49-.4.85-.82,1.03-.03-.16.43.08.59.11.63.22,1.21.66,1.46,1.3.21.49.33,1.13-.05,1.58-.43.48-1.13.51-1.73.53-.94,0-1.88-.02-2.81.14-.34.04-.47-.6-.05-.53.43,0,.55-.45.38-.78-.37-1.21-.74-2.42-1.1-3.62h0Z"/><path class="cls-24" d="M478.61,298.61c-.14-.41-.26-.92-.69-1.11-.28-.11-.82.01-.79-.44.23-.3.78-.05,1.13-.12.81,0,1.61-.15,2.42-.05.94.11,1.84.77,2.07,1.71.17.5.06,1.13-.43,1.41-.1.11-.62.24-.53.23.72.28,1.33.82,1.68,1.51.19.31.29.69.55.95.32.24.35-.19.41-.39.42-.21.63.38.46.69-.17.5-.81.6-1.26.48-.41-.09-.72-.4-.9-.77-.41-.64-.66-1.39-1.22-1.91-.27-.23-.67-.37-1.01-.23-.09.16.05.34.07.51.15.46.25.95.46,1.39.19.39.64.48,1.04.49.38,0,.41.66-.04.51-.72,0-1.45-.09-2.17.04-.26,0-.63.16-.8-.12-.26-.5.5-.27.66-.56.11-.33-.08-.67-.15-.99-.32-1.07-.64-2.16-.96-3.23h0ZM480.17,299.7c.12.39.66.18.96.17.35-.03.55-.39.47-.71-.09-.53-.23-1.12-.65-1.49-.36-.27-.86-.27-1.28-.19-.18.15-.02.41.02.6.16.54.32,1.08.48,1.63h0Z"/><path class="cls-24" d="M488.36,296.68c.37-.06.39.35.46.61.08.34.22.65.31.99-.16.31-.58.04-.61-.24-.15-.31-.35-.7-.74-.72-.51-.04-1.02-.02-1.53,0-.28.1-.04.46,0,.67.16.54.3,1.09.47,1.62.31,0,.64,0,.93-.12.33-.19-.13-.7.22-.83.44-.1.44.47.51.76.08.56.35,1.06.49,1.59-.15.33-.63.03-.62-.27-.1-.35-.44-.54-.79-.52-.17.03-.66-.14-.52.16.19.62.33,1.26.58,1.86.13.34.52.43.85.42.47,0,1.02.07,1.41-.26.31-.25.09-.68.17-.99.31-.22.63.1.58.43.06.41.15.81.25,1.21-.06.23-.35.15-.53.17-1.23.03-2.47.03-3.7.08-.32-.03-.72.19-.97-.07-.31-.45.35-.36.56-.56.23-.26.04-.61-.03-.9-.35-1.22-.69-2.44-1.05-3.65-.12-.37-.32-.81-.76-.86-.28.01-.73-.11-.58-.48.36-.12.78,0,1.16-.04,1.17-.02,2.34-.04,3.51-.06h0Z"/><path class="cls-24" d="M449.36,312.29c-.11-.44-.26-1.01-.77-1.13-.28,0-.77-.07-.59-.47.36-.15.8-.03,1.19-.09.97-.05,1.96-.29,2.93-.03,1.42.32,2.65,1.41,3.07,2.82.27.87.31,1.9-.27,2.66-.62.79-1.68,1.01-2.63,1.02-.73,0-1.47-.01-2.19.13-.28.17-.75-.11-.5-.42.31-.09.8-.18.7-.62-.11-.61-.29-1.21-.43-1.81-.17-.69-.34-1.38-.51-2.07h0ZM451.31,315.18c.12.38.16.84.48,1.12.33.19.73.11,1.09.08.56-.08.97-.57,1.06-1.11.17-.9-.09-1.82-.45-2.65-.31-.72-.95-1.28-1.72-1.44-.45-.09-.93-.14-1.38-.05-.1.14.03.32.04.48.29,1.19.58,2.37.87,3.56h0Z"/><path class="cls-24" d="M459.69,309.92c.38-.07.37.36.43.61.07.33.19.64.26.97-.15.31-.58.07-.6-.22-.13-.3-.32-.69-.7-.7-.51-.02-1.01.02-1.52.07-.28.1-.06.46-.04.68.14.54.25,1.08.4,1.61.33-.02.7,0,.97-.2.25-.22-.15-.73.25-.82.45-.05.36.53.44.82.06.53.3,1.01.41,1.53-.14.34-.63.07-.61-.25-.08-.38-.48-.54-.84-.5-.17.02-.59-.09-.44.21.16.61.26,1.24.49,1.84.11.35.51.42.83.39.49-.03,1.08.03,1.45-.36.29-.27.02-.72.2-.99.35-.2.57.17.53.48.04.39.11.78.19,1.17-.07.24-.36.17-.55.2-1.22.08-2.44.13-3.66.23-.31-.01-.66.18-.93.01-.31-.32.11-.49.39-.52.34-.11.31-.53.22-.8-.31-1.28-.61-2.57-.93-3.85-.1-.36-.28-.8-.71-.83-.28.03-.72-.1-.55-.46.35-.14.77-.04,1.15-.09,1.16-.07,2.32-.14,3.48-.21h0Z"/><path class="cls-24" d="M467.41,314.79c.05.37.34.68.71.74.28.12.72-.05.87.29.11.42-.46.28-.7.3-.68-.01-1.36-.03-2.04.08-.34.02-.68.11-1.02.08-.33-.14-.18-.6.17-.53.32-.07.75-.15.84-.52.04-.32-.09-.63-.15-.94-.26-1.09-.5-2.19-.76-3.28-.04-.39-.46-.4-.75-.35-.27.01-.7.19-.78-.19-.04-.4.55-.32.8-.48.44-.15.87-.32,1.32-.45.25-.06.36.18.38.38.38,1.63.75,3.26,1.13,4.89h0Z"/><path class="cls-24" d="M471.79,310.85c-.09-.43-.33-.93-.82-1-.35-.07-.8.03-.92.41-.13.44.05.96.44,1.22.32.24.7.37,1.06.54.07-.14.29-.42.28-.66.02-.17,0-.34-.04-.5h0ZM472.79,314.29c-.12-.58-.68-.91-1.18-1.13-.22-.04-.53-.33-.66-.21-.37.32-.54.85-.38,1.32.14.57.57,1.14,1.2,1.19.41.05.9-.13,1.03-.56.06-.2.05-.41,0-.6h0ZM473.84,314.04c.16.57-.07,1.21-.56,1.55-.69.48-1.61.51-2.4.28-.7-.2-1.28-.79-1.41-1.52-.14-.58.09-1.24.61-1.56.12-.12.58-.17.21-.26-.59-.29-1.18-.77-1.3-1.45-.14-.58.13-1.23.66-1.51,1.02-.56,2.48-.23,3.07.8.26.44.31,1.02,0,1.45-.17.23-.38.46-.67.53.58.12,1.1.47,1.45.94.17.22.28.48.34.76h0Z"/><path class="cls-24" d="M477.72,314.7c.29.01.6-.16.64-.47.1-.23-.1-.73.3-.7.37.02.33.45.37.72.03.47,0,1.04-.41,1.35-.3.19-.66.11-.99.11-.67-.02-1.33-.16-2-.09-.28.03-.59.34-.85.12-.23-.27-.09-.62,0-.91.23-.73.74-1.33,1.31-1.83.4-.37.84-.77.9-1.35.05-.49-.09-.99-.35-1.41-.34-.54-1.13-.72-1.66-.38-.27.18-.49.59-.27.89.25.19.71.02.83.42.15.28,0,.71-.36.71-.52.08-1-.33-1.13-.81-.21-.61.03-1.34.59-1.67.59-.37,1.35-.36,2.01-.2.67.17,1.24.69,1.44,1.35.18.51.19,1.11-.1,1.59-.45.85-1.37,1.28-1.97,1.99-.17.19-.29.44-.22.7.09-.24.47-.16.69-.2.41-.02.82.09,1.23.08h0Z"/><path class="cls-24" d="M482.41,314.2c.05.37.33.68.69.75.27.12.67-.02.85.27.17.41-.4.34-.64.32-.7-.02-1.41-.06-2.11.03-.34.01-.69.1-1.03.05-.33-.15-.15-.59.19-.52.32-.06.75-.13.86-.5.05-.32-.08-.62-.13-.93-.23-1.1-.45-2.2-.69-3.29-.02-.34-.37-.41-.65-.37-.28-.03-.67.2-.85-.11-.21-.42.41-.41.66-.52.48-.15.96-.33,1.45-.46.25-.05.35.18.37.39.34,1.63.68,3.26,1.02,4.89h0Z"/><path class="cls-33" d="M448.52,217.32l-4.48,5.33c-1.43,6.23,2.12,10.92,9.09,14.99,5.65,3.51,16.1,4.38,19.4,1.56l-16.3-15.53-7.72-6.34h0Z"/><path class="cls-34" d="M481.54,377.59c-.8-.96-1.61-1.92-2.42-2.88-10.17,13.43-22.88,25.47-38.76,33.96,17.92-5.07,29.65-18.13,41.18-31.08h0Z"/><path class="cls-34" d="M463.19,420.03c6.32-12.8,13.94-25.6,21.63-38.41-.84-1.05-1.69-2.09-2.55-3.13-8.74,14.48-18.99,31.71-19.09,41.54h0Z"/><path class="cls-34" d="M512.78,283.95c-1.17-5.05-2.7-10.5-5.12-15.52-3.16-6.45-7.87-12.87-14.06-19.97-11.15-12.09-22.31-23.77-37.94-32.39.03-.06.05-.11.08-.16l.09.05h.19l-.19-.24h.56l-.3-.3h.52l-.42-.48h.55l-.39-.39h.59l-.32-.43.47.04-.44-.46.65-.13-.53-.33.57-.11-.48-.33.7-.22-.61-.36.78-.34-.75-.54.79-.27-.86-.35.73-.38-.86-.15.58-.67-.83.04.38-.71-.79.07s-.03-.05-.05-.07l.43-.53-.8.14.35-.73-.77.39.22-.84-.75.51.11-.85-.69.59.07-.82-.61.63.05-.86-.6.73-.06-.85-.48.67-.24-.8-.4.8-.2-.85-.38.85-.18-.85-.32.85-.25-.8-.26.8-.19-.71-.29.85-.27-.8-.29.91-.35-.82-.15.98-.42-.8-.05.94-.45-.72-.03.94-.49-.68.04.82-.52-.43.25.88-.62-.36.23.77-.51-.29.18.75-.47-.15.24.56s-.02.05-.03.08l-.36-.07.21.43h0c-.46,1.23-.49,2.71-.42,4.18.01.27.71.55.81.72.33.51.27.79.27.79-1.89,3.07-3.58,5.43-3.77,8.95,1.52-1.92,3.09-4.28,5.3-4.28-1.09,1.83-1.61,7.33-.38,8.17l.92-1.61c.03,1.28.21,2.13.46,2.76.38-.77.76-1.51,1.14-2.07.09,1.79.32,3.23.84,3.94.51-.88,1.2-1.42,1.92-1.87-.25,1.02-.62,1.99-.46,3.21.77-1.31,1.53-2.08,2.3-2.99-.44,1.89-.04,3.29.5,5.37.48-2.47.66-2.73,1.8-3.77.13,2.26-.31,4.32.17,5.58,1.04-1.99,1.74-1.71,2.36-2.99-.12,1.88-.5,3.91-.02,5.59.4-1.68,1.48-2.58,2.31-3.17.07,2.61.67,2.18-.95,4.4.69.31,3.02-.45,4.28-.99-.61,1.4-.43,2.5-1.04,3.49,1.28-.64,2.38-1.69,3.45-2.76-.5,1.61-1.81,3.21-1.15,4.82.3-1.5,1.51-2.74,2.66-2.96-.18.84-.3,2.58-1.51,3.43,2.9.3,4.05-1.66,5.51-3.21-.19,1.61-.14,2.9,1.84,5.18-.4-2.89.29-2.29,1.6-4.03.63,2.55,1.36,5.27,4.02,7.15-1.1-2.69-1.31-4.08-.68-5.78.34,1.75,2,3.86,2.4,5.52.25-1.84.52-3.62,1.14-4.82.77,2.09,1.42,4.24,1.61,6.65.58-1.2,1.05-2.42,1.38-3.67,23.46,24.51,28.69,55.67,2.99,88.59,9.23-6.24,11.62-16.13,16.75-24.56-5.01,11.04-7.24,23.46-16.06,32.59,8.54-7.37,10.35-14.12,15.49-21.23-5.47,14.86-13.05,31.14-23.56,46.04,1.87,2.03,3.73,4.09,5.61,6.17,1.63-2.71,3.26-5.42,4.87-8.14,11.13-18.34,29.3-44.57,20.1-84.55h0Z"/><path class="cls-36" d="M445.39,212.42c-1.18.27-1.65.76-2.51,1.71,1.09.24,2.01.29,3,.31.31-.03.41-.41.34-.7l-.15-1.14c-.03-.26-.71-.24-1.04-.1l.36-.1h0Z"/><path class="cls-18" d="M442.87,214.13c.41-.15.83-.25,1.25-.35.42-.09.85-.18,1.28-.23-.41.15-.83.25-1.25.35-.42.09-.85.18-1.28.23h0Z"/><ellipse class="cls-39" cx="450.76" cy="212.57" rx=".92" ry=".96"/><ellipse class="cls-17" cx="450.97" cy="212.39" rx=".4" ry=".42"/><path class="cls-22" d="M463.24,419.69c.55-1.78,1.16-3.53,1.82-5.28.66-1.74,1.37-3.46,2.12-5.17,1.5-3.41,3.16-6.74,4.91-10.02,1.77-3.27,3.62-6.5,5.54-9.69.96-1.59,1.93-3.18,2.92-4.76l2.98-4.72-2.88,4.78c-.96,1.59-1.91,3.19-2.85,4.79-1.88,3.21-3.74,6.43-5.49,9.71-1.77,3.27-3.43,6.6-4.96,9.98-.77,1.69-1.5,3.4-2.18,5.13-.69,1.72-1.34,3.47-1.93,5.23Z"/><path class="cls-22" d="M440.85,408.44c1.97-.87,3.9-1.81,5.8-2.82,1.9-1,3.77-2.07,5.59-3.21,3.64-2.28,7.12-4.83,10.38-7.63,3.27-2.78,6.33-5.82,9.22-9,1.45-1.59,2.85-3.22,4.22-4.87,1.38-1.65,2.72-3.33,4.04-5.03-1.29,1.73-2.6,3.43-3.94,5.11-1.35,1.67-2.74,3.32-4.17,4.93-2.87,3.21-5.93,6.25-9.2,9.06-3.28,2.79-6.77,5.35-10.44,7.6-1.84,1.12-3.72,2.18-5.64,3.16-1.92.97-3.88,1.88-5.86,2.71h0Z"/><path class="cls-22" d="M485.15,373.57c.91-1.28,1.77-2.6,2.62-3.92.85-1.32,1.68-2.65,2.49-4,1.63-2.69,3.2-5.41,4.71-8.16,1.53-2.74,3-5.52,4.46-8.3l4.37-8.35-2.07,4.23-2.12,4.21c-1.43,2.8-2.9,5.58-4.41,8.33-1.53,2.75-3.1,5.47-4.76,8.14-1.67,2.66-3.39,5.3-5.28,7.81h0Z"/><path class="cls-22" d="M492.15,343.73c2.03-2.41,3.9-4.96,5.58-7.63,1.69-2.66,3.2-5.43,4.53-8.29,2.66-5.72,4.56-11.76,5.91-17.91.17-.77.34-1.54.49-2.31.13-.77.24-1.55.35-2.33.21-1.56.37-3.13.48-4.7.21-3.14.21-6.3-.04-9.44-.24-3.14-.74-6.26-1.47-9.32-.72-3.07-1.69-6.08-2.86-9.01,1.21,2.91,2.22,5.91,2.98,8.98.75,3.07,1.26,6.19,1.52,9.34.26,3.15.28,6.31.08,9.47-.1,1.58-.25,3.15-.45,4.72-.1.78-.21,1.56-.34,2.35-.15.77-.31,1.55-.48,2.32-1.38,6.16-3.32,12.21-6.01,17.93-1.34,2.86-2.87,5.63-4.58,8.28-1.72,2.65-3.62,5.18-5.68,7.56h0Z"/><path class="cls-22" d="M490.2,336.95c2.19-2.09,4.13-4.45,5.82-6.95,1.71-2.5,3.19-5.15,4.51-7.87,1.32-2.72,2.49-5.52,3.6-8.34.55-1.41,1.09-2.83,1.62-4.25l.39-1.06c.13-.35.24-.71.35-1.07.22-.72.42-1.45.69-2.17v.02c.6-3,.92-6.05.96-9.12.04-3.06-.2-6.12-.68-9.15-.48-3.03-1.18-6.01-2.06-8.95-.86-2.94-1.89-5.83-3.04-8.68,1.18,2.83,2.25,5.71,3.16,8.64.89,2.94,1.61,5.93,2.11,8.96.49,3.03.75,6.1.73,9.18-.02,3.07-.33,6.15-.93,9.16h0s0,.02,0,.02c-.26.7-.47,1.43-.69,2.16-.11.36-.23.72-.36,1.09l-.4,1.06c-.54,1.42-1.08,2.83-1.64,4.24-1.12,2.82-2.3,5.61-3.64,8.33-1.34,2.72-2.83,5.37-4.56,7.87-1.73,2.49-3.7,4.82-5.92,6.88h0Z"/><path class="cls-22" d="M483.29,371.6c1.43-1.97,2.84-3.95,4.25-5.94l2.11-2.98c.7-1,1.44-1.97,2.06-3.01,1.27-2.07,2.36-4.25,3.44-6.43,1.07-2.19,2.16-4.36,3.22-6.55,2.12-4.38,4.17-8.8,5.9-13.34,1.74-4.54,3.12-9.22,4.1-13.98,1.01-4.76,1.68-9.58,2.24-14.41.51-4.83.56-9.72.04-14.56-.51-4.84-1.62-9.6-3.24-14.19-1.6-4.59-3.7-9.01-6.06-13.26,2.39,4.24,4.53,8.63,6.18,13.22,1.64,4.59,2.76,9.36,3.29,14.21.53,4.85.49,9.75,0,14.6-.54,4.84-1.21,9.67-2.2,14.44-1,4.77-2.39,9.46-4.15,14-1.76,4.55-3.82,8.96-5.95,13.34-1.07,2.19-2.16,4.36-3.24,6.54-1.09,2.18-2.19,4.35-3.47,6.43-.64,1.04-1.38,2.01-2.09,3l-2.14,2.96c-1.43,1.97-2.85,3.95-4.3,5.9h0Z"/><path class="cls-22" d="M486.57,375.19c2.81-4.56,5.6-9.13,8.26-13.77,2.67-4.64,5.33-9.29,7.68-14.09,2.36-4.8,4.4-9.76,5.94-14.88.77-2.56,1.43-5.15,1.96-7.77.27-1.31.51-2.62.7-3.94.2-1.32.39-2.65.56-3.97.69-5.3,1.1-10.64,1.1-15.99,0-5.35-.43-10.7-1.42-15.95-.99-5.25-2.54-10.41-4.73-15.29-2.17-4.89-4.96-9.5-8.27-13.71,3.35,4.18,6.18,8.77,8.38,13.66,2.2,4.89,3.78,10.05,4.78,15.31,1.01,5.26,1.45,10.63,1.47,15.98.02,5.36-.37,10.71-1.06,16.03-.17,1.33-.37,2.65-.57,3.98-.2,1.32-.44,2.65-.72,3.96-.54,2.62-1.21,5.22-1.99,7.78-1.56,5.13-3.62,10.1-5.99,14.9-2.37,4.8-5.04,9.45-7.73,14.08-2.7,4.62-5.53,9.17-8.37,13.7h0Z"/><path class="cls-22" d="M453.51,218.93c.56-.01,1.13.05,1.68.13.56.09,1.11.21,1.66.35,1.09.29,2.16.68,3.19,1.13,2.07.91,4.01,2.11,5.82,3.45,1.81,1.36,3.49,2.87,5.06,4.5.78.81,1.54,1.65,2.26,2.52.72.87,1.42,1.75,2.09,2.66-.71-.87-1.43-1.74-2.19-2.57-.75-.84-1.51-1.66-2.31-2.46-1.59-1.59-3.26-3.09-5.07-4.43-1.79-1.35-3.71-2.53-5.75-3.48-1.02-.47-2.07-.88-3.15-1.19-1.08-.32-2.18-.56-3.31-.61h0Z"/><path class="cls-19" d="M472.98,231.77s3.64,2.14,5.62,5.27c0,0-5.61-1.05-9.59-5.53"/><path class="cls-22" d="M472.98,231.77c.57.31,1.11.67,1.64,1.05.52.38,1.03.79,1.52,1.22.49.43.95.89,1.38,1.38.43.49.84,1.01,1.18,1.56l.16.26-.29-.06c-.93-.2-1.82-.5-2.7-.85-.87-.35-1.73-.76-2.54-1.23-1.63-.94-3.12-2.14-4.33-3.57,1.28,1.37,2.79,2.5,4.42,3.41.82.45,1.66.85,2.53,1.18.87.33,1.76.62,2.66.81l-.13.19c-.34-.54-.73-1.06-1.15-1.54-.42-.49-.87-.94-1.34-1.39-.47-.44-.96-.86-1.46-1.26-.5-.41-1.02-.79-1.56-1.15h0Z"/><path class="cls-19" d="M464.9,230.72s8.59,5.48,9.83,5.92c0,0-1.91-4.13-6-5.91"/><path class="cls-22" d="M464.9,230.72l4.92,2.96c.82.5,1.64.99,2.46,1.48.41.24.83.48,1.24.72.41.23.83.48,1.25.65l-.15.17c-.31-.63-.69-1.24-1.1-1.81-.42-.57-.86-1.13-1.36-1.64-.49-.51-1.03-.98-1.6-1.41-.57-.43-1.19-.79-1.83-1.1.67.26,1.3.61,1.9,1.01.6.4,1.15.87,1.66,1.37.51.51.99,1.05,1.41,1.63.42.58.81,1.19,1.14,1.84l.15.3-.3-.13c-.91-.39-1.71-.9-2.54-1.39-.82-.49-1.64-1-2.45-1.5-1.61-1.03-3.22-2.06-4.81-3.14h0Z"/><path class="cls-19" d="M468.32,227.95s4.47,1.9,5.48,5.2c0,0-8.03-3.38-9.46-5.17"/><path class="cls-22" d="M468.32,227.95c.6.24,1.18.54,1.74.87.56.34,1.09.71,1.59,1.13.5.42.96.89,1.35,1.42.39.53.72,1.11.91,1.75l.08.26-.25-.11c-.83-.36-1.65-.73-2.47-1.11-.82-.38-1.63-.77-2.44-1.19-.8-.42-1.6-.85-2.37-1.32-.38-.24-.76-.49-1.13-.75-.36-.27-.72-.55-1-.91.3.34.67.6,1.04.86.37.25.76.48,1.15.7.78.45,1.59.86,2.39,1.25,1.62.79,3.26,1.54,4.92,2.24l-.17.16c-.19-.6-.49-1.17-.86-1.68-.37-.52-.82-.98-1.3-1.41-.48-.43-.99-.82-1.53-1.17-.53-.36-1.09-.69-1.67-.98h0Z"/><path class="cls-19" d="M461.55,231.39s7.9,5.65,10.24,5.65c0,0-2.31-3.87-6.4-5.65"/><path class="cls-22" d="M461.55,231.39c.82.54,1.64,1.08,2.47,1.6.83.53,1.66,1.05,2.5,1.54.84.5,1.69.99,2.56,1.43.44.22.88.42,1.33.6.45.17.92.34,1.37.36l-.11.19c-.37-.6-.81-1.18-1.27-1.72-.47-.54-.96-1.07-1.48-1.56-.52-.49-1.09-.94-1.68-1.35-.59-.41-1.21-.77-1.87-1.08,1.34.53,2.57,1.34,3.66,2.3.55.48,1.06.99,1.53,1.54.47.55.92,1.12,1.31,1.74l.12.19h-.23c-.53-.02-1-.19-1.47-.37-.46-.18-.91-.4-1.35-.62-.88-.45-1.73-.95-2.57-1.46-.83-.52-1.65-1.06-2.47-1.61-.81-.56-1.61-1.13-2.39-1.72h0Z"/><path class="cls-19" d="M461.55,233.16s4.11,3.47,6.45,3.47c0,0-2.31-3.87-6.4-5.65"/><path class="cls-22" d="M461.55,233.16c.5.37,1,.73,1.51,1.08.51.35,1.03.68,1.56.99.53.31,1.07.6,1.64.84.28.12.57.22.86.3.29.08.59.14.88.14l-.11.19c-.37-.6-.81-1.18-1.27-1.72-.47-.54-.96-1.07-1.48-1.56-.53-.49-1.09-.94-1.68-1.35-.59-.41-1.21-.77-1.87-1.08,1.34.53,2.57,1.34,3.66,2.3.55.48,1.06.99,1.53,1.54.47.55.92,1.12,1.31,1.74l.12.19h-.22c-.65,0-1.26-.21-1.84-.46-.57-.25-1.12-.55-1.65-.88-.53-.33-1.03-.69-1.53-1.06-.49-.38-.98-.77-1.43-1.19h0Z"/><path class="cls-19" d="M459.49,225.36s8.57,6.08,9.58,9.38c0,0-7.75-3.56-9.19-5.35"/><path class="cls-22" d="M459.49,225.36c.93.63,1.84,1.31,2.74,1.99.89.69,1.77,1.41,2.62,2.15.85.74,1.67,1.53,2.44,2.36.38.42.75.85,1.08,1.32.33.47.64.96.82,1.52l.09.28-.26-.12c-.81-.38-1.61-.77-2.4-1.17-.8-.4-1.59-.81-2.36-1.25-.78-.44-1.55-.88-2.3-1.37-.37-.24-.74-.5-1.09-.77-.35-.27-.7-.56-.97-.91.29.33.65.6,1.01.86.36.25.74.49,1.12.72.76.46,1.54.89,2.33,1.3,1.57.82,3.17,1.62,4.78,2.36l-.18.15c-.17-.51-.46-1-.78-1.45-.32-.45-.68-.89-1.06-1.3-.75-.84-1.57-1.61-2.4-2.37-.83-.76-1.69-1.49-2.57-2.2-.87-.72-1.76-1.41-2.66-2.1h0Z"/><path class="cls-3" d="M411.94,396.68c-5.81,4.33-22.05,6.45-24.3,5.71,11.82-9.83,23.44-10.07,24.3-5.71Z"/><path class="cls-3" d="M494.85,401.95c6.24,5.67,25.08,9.57,27.9,8.87-12.53-12.8-26.27-14.1-27.9-8.87Z"/><path class="cls-2" d="M411.9,396.64c-.86-4.36-12.43-4.1-24.22,5.67,12.41-4.09,22.86-6.42,24.22-5.67Z"/><path class="cls-2" d="M494.98,401.88c1.63-5.23,15.21-3.97,27.77,8.87-14.12-5.97-26.08-9.62-27.77-8.87Z"/><g class="cls-15"><path class="cls-23" d="M-450,1600L1350,400v1200L-450,400"/><path class="cls-27" d="M1393.3,1680.91l-943.3-628.87-875.98,583.99-48.04-72.06L371.94,1000-474.02,436.03l48.04-72.06L450,947.96l943.3-628.87v1361.82ZM528.06,1000l778.64,519.09V480.91l-778.64,519.09Z"/></g></svg>