<?xml version="1.0" encoding="UTF-8"?><svg id="_色修正" xmlns="http://www.w3.org/2000/svg" viewBox="0 0 900 600"><defs><style>.cls-1{fill:#231815;}.cls-1,.cls-2,.cls-3,.cls-4{stroke-width:0px;}.cls-2{fill:#e50012;}.cls-3{fill:#fff;}.cls-4{fill:#008c3c;}</style></defs><rect class="cls-1" width="900" height="600"/><rect class="cls-3" width="900" height="400"/><rect class="cls-2" width="900" height="200"/><g id="s"><g id="f"><g id="t"><path id="o" class="cls-4" d="M284.5,238l-20.09,61.82,38.04,12.36"/><path id="o-2" class="cls-4" d="M284.5,238l20.09,61.82-38.04,12.36"/></g><g id="t-2"><path id="o-3" class="cls-4" d="M346.32,282.91h-65v40"/><path id="o-4" class="cls-4" d="M346.32,282.91l-52.59,38.21-23.51-32.36"/></g></g><g id="t-3"><path id="o-5" class="cls-4" d="M222.68,282.91l52.59,38.21,23.51-32.36"/><path id="o-6" class="cls-4" d="M222.68,282.91h65v40"/></g><g id="f-2"><g id="t-4"><path id="o-7" class="cls-4" d="M322.71,355.59l-20.09-61.82-38.04,12.36"/><path id="o-8" class="cls-4" d="M322.71,355.59l-52.59-38.21,23.51-32.36"/></g><g id="t-5"><path id="o-9" class="cls-4" d="M246.29,355.59l52.59-38.21-23.51-32.36"/><path id="o-10" class="cls-4" d="M246.29,355.59l20.09-61.82,38.04,12.36"/></g></g></g><g id="s-2"><g id="f-3"><g id="t-6"><path id="o-11" class="cls-4" d="M615.5,238l-20.09,61.82,38.04,12.36"/><path id="o-12" class="cls-4" d="M615.5,238l20.09,61.82-38.04,12.36"/></g><g id="t-7"><path id="o-13" class="cls-4" d="M677.32,282.91h-65v40"/><path id="o-14" class="cls-4" d="M677.32,282.91l-52.59,38.21-23.51-32.36"/></g></g><g id="t-8"><path id="o-15" class="cls-4" d="M553.68,282.91l52.59,38.21,23.51-32.36"/><path id="o-16" class="cls-4" d="M553.68,282.91h65v40"/></g><g id="f-4"><g id="t-9"><path id="o-17" class="cls-4" d="M653.71,355.59l-20.09-61.82-38.04,12.36"/><path id="o-18" class="cls-4" d="M653.71,355.59l-52.59-38.21,23.51-32.36"/></g><g id="t-10"><path id="o-19" class="cls-4" d="M577.29,355.59l52.59-38.21-23.51-32.36"/><path id="o-20" class="cls-4" d="M577.29,355.59l20.09-61.82,38.04,12.36"/></g></g></g></svg>