<?xml version="1.0" encoding="UTF-8"?><svg id="_色修正" xmlns="http://www.w3.org/2000/svg" viewBox="0 0 900 600"><defs><style>.cls-1{stroke:#50a2bb;stroke-miterlimit:1.2;stroke-width:.24px;}.cls-1,.cls-2{fill:#fff000;}.cls-2,.cls-3{stroke-width:0px;}.cls-3{fill:#0094d7;}</style></defs><rect class="cls-3" width="900" height="600"/><g id="sun"><circle class="cls-2" cx="448.49" cy="256.42" r="85.06"/><g id="r16"><g id="r4"><path id="r" class="cls-2" d="M448.49,159.76c5.06-.06,6.95-3.22,6.95-7.02,0-5.06-6.95-29.14-6.95-29.14,0,0-6.95,24.09-6.95,29.14,0,3.79,1.9,7.02,6.95,7.02Z"/><path id="r-2" class="cls-2" d="M545.14,256.42c.06,5.06,3.22,6.95,7.02,6.95,5.06,0,29.14-6.95,29.14-6.95,0,0-24.09-6.95-29.14-6.95-3.79,0-7.02,1.9-7.02,6.95Z"/><path id="r-3" class="cls-2" d="M448.49,353.07c-5.06.06-6.95,3.22-6.95,7.02,0,5.06,6.95,29.14,6.95,29.14,0,0,6.95-24.09,6.95-29.14,0-3.79-1.9-7.02-6.95-7.02Z"/><path id="r-4" class="cls-2" d="M351.83,256.42c-.06-5.06-3.22-6.95-7.02-6.95-5.06,0-29.14,6.95-29.14,6.95,0,0,24.09,6.95,29.14,6.95,3.79,0,7.02-1.9,7.02-6.95Z"/></g><g id="r4-2"><path id="r-5" class="cls-2" d="M485.48,167.12c4.7,1.88,7.66-.32,9.11-3.82,1.94-4.67,4.73-29.59,4.73-29.59,0,0-15.64,19.59-17.58,24.26-1.45,3.5-.93,7.21,3.74,9.14Z"/><path id="r-6" class="cls-2" d="M537.79,293.41c-1.88,4.7.32,7.66,3.82,9.11,4.67,1.94,29.59,4.73,29.59,4.73,0,0-19.59-15.64-24.26-17.58-3.5-1.45-7.21-.93-9.14,3.74Z"/><path id="r-7" class="cls-2" d="M411.5,345.72c-4.7-1.88-7.66.32-9.11,3.82-1.94,4.67-4.73,29.59-4.73,29.59,0,0,15.64-19.59,17.58-24.26,1.45-3.5.93-7.21-3.74-9.14Z"/><path id="r-8" class="cls-2" d="M359.19,219.43c1.88-4.7-.32-7.66-3.82-9.11-4.67-1.94-29.59-4.73-29.59-4.73,0,0,19.59,15.64,24.26,17.58,3.5,1.45,7.21.93,9.14-3.74Z"/></g><g id="r4-3"><path id="r-9" class="cls-2" d="M516.83,188.07c3.62,3.53,7.2,2.64,9.88-.04,3.58-3.58,15.69-25.52,15.69-25.52,0,0-21.95,12.11-25.52,15.69-2.68,2.68-3.62,6.3-.04,9.88Z"/><path id="r-10" class="cls-2" d="M516.83,324.76c-3.53,3.62-2.64,7.2.04,9.88,3.58,3.58,25.52,15.69,25.52,15.69,0,0-12.11-21.95-15.69-25.52-2.68-2.68-6.3-3.62-9.88-.04Z"/><path id="r-11" class="cls-2" d="M380.14,324.76c-3.62-3.53-7.2-2.64-9.88.04-3.58,3.58-15.69,25.52-15.69,25.52,0,0,21.95-12.11,25.52-15.69,2.68-2.68,3.62-6.3.04-9.88Z"/><path id="r-12" class="cls-2" d="M380.14,188.07c3.53-3.62,2.64-7.2-.04-9.88-3.58-3.58-25.52-15.69-25.52-15.69,0,0,12.11,21.95,15.69,25.52,2.68,2.68,6.3,3.62,9.88.04Z"/></g><g id="r4-4"><path id="r-13" class="cls-2" d="M537.79,219.43c1.99,4.65,5.64,5.19,9.14,3.74,4.67-1.94,24.26-17.58,24.26-17.58,0,0-24.91,2.79-29.59,4.73-3.5,1.45-5.76,4.44-3.82,9.11Z"/><path id="r-14" class="cls-2" d="M485.48,345.72c-4.65,1.99-5.19,5.64-3.74,9.14,1.94,4.67,17.58,24.26,17.58,24.26,0,0-2.79-24.91-4.73-29.59-1.45-3.5-4.44-5.76-9.11-3.82Z"/><path id="r-15" class="cls-2" d="M359.19,293.41c-1.99-4.65-5.64-5.19-9.14-3.74-4.67,1.94-24.26,17.58-24.26,17.58,0,0,24.91-2.79,29.59-4.73,3.5-1.45,5.76-4.44,3.82-9.11Z"/><path id="r-16" class="cls-2" d="M411.5,167.12c4.65-1.99,5.19-5.64,3.74-9.14-1.94-4.67-17.58-24.26-17.58-24.26,0,0,2.79,24.91,4.73,29.59,1.45,3.5,4.44,5.76,9.11,3.82Z"/></g></g><g id="r16-2"><g id="r4-5"><path id="r-17" class="cls-2" d="M467.34,161.62c4.97.92,7.45-1.81,8.19-5.53.99-4.96-1.13-29.94-1.13-29.94,0,0-11.52,22.27-12.51,27.23-.74,3.72.49,7.25,5.45,8.24Z"/><path id="r-18" class="cls-2" d="M543.29,275.27c-.92,4.97,1.81,7.45,5.53,8.19,4.96.99,29.94-1.13,29.94-1.13,0,0-22.27-11.52-27.23-12.51-3.72-.74-7.25.49-8.24,5.45Z"/><path id="r-19" class="cls-2" d="M429.63,351.22c-4.97-.92-7.45,1.81-8.19,5.53-.99,4.96,1.13,29.94,1.13,29.94,0,0,11.52-22.27,12.51-27.23.74-3.72-.49-7.25-5.45-8.24Z"/><path id="r-20" class="cls-2" d="M353.69,237.56c.92-4.97-1.81-7.45-5.53-8.19-4.96-.99-29.94,1.13-29.94,1.13,0,0,22.27,11.52,27.23,12.51,3.72.74,7.25-.49,8.24-5.45Z"/></g><g id="r4-6"><path id="r-21" class="cls-2" d="M502.19,176.05c4.24,2.76,7.57,1.18,9.68-1.97,2.81-4.2,10.41-28.09,10.41-28.09,0,0-19.16,16.16-21.97,20.37-2.11,3.15-2.32,6.89,1.88,9.7Z"/><path id="r-22" class="cls-2" d="M528.86,310.12c-2.76,4.24-1.18,7.57,1.97,9.68,4.2,2.81,28.09,10.41,28.09,10.41,0,0-16.16-19.16-20.37-21.97-3.15-2.11-6.89-2.32-9.7,1.88Z"/><path id="r-23" class="cls-2" d="M394.79,336.78c-4.24-2.76-7.57-1.18-9.68,1.97-2.81,4.2-10.41,28.09-10.41,28.09,0,0,19.16-16.16,21.97-20.37,2.11-3.15,2.32-6.89-1.88-9.7Z"/><path id="r-24" class="cls-2" d="M368.12,202.72c2.76-4.24,1.18-7.57-1.97-9.68-4.2-2.81-28.09-10.41-28.09-10.41,0,0,16.16,19.16,20.37,21.97,3.15,2.11,6.89,2.32,9.7-1.88Z"/></g><g id="r4-7"><path id="r-25" class="cls-2" d="M528.86,202.72c2.86,4.17,6.54,3.99,9.7,1.88,4.2-2.81,20.37-21.97,20.37-21.97,0,0-23.89,7.6-28.09,10.41-3.15,2.11-4.78,5.48-1.97,9.68Z"/><path id="r-26" class="cls-2" d="M502.19,336.78c-4.17,2.86-3.99,6.54-1.88,9.7,2.81,4.2,21.97,20.37,21.97,20.37,0,0-7.6-23.89-10.41-28.09-2.11-3.15-5.48-4.78-9.68-1.97Z"/><path id="r-27" class="cls-2" d="M368.12,310.12c-2.86-4.17-6.54-3.99-9.7-1.88-4.2,2.81-20.37,21.97-20.37,21.97,0,0,23.89-7.6,28.09-10.41,3.15-2.11,4.78-5.48,1.97-9.68Z"/><path id="r-28" class="cls-2" d="M394.79,176.05c4.17-2.86,3.99-6.54,1.88-9.7-2.81-4.2-21.97-20.37-21.97-20.37,0,0,7.6,23.89,10.41,28.09,2.11,3.15,5.48,4.78,9.68,1.97Z"/></g><g id="r4-8"><path id="r-29" class="cls-2" d="M543.29,237.56c1.05,4.95,4.52,6.19,8.24,5.45,4.96-.99,27.23-12.51,27.23-12.51,0,0-24.98-2.12-29.94-1.13-3.72.74-6.51,3.23-5.53,8.19Z"/><path id="r-30" class="cls-2" d="M467.34,351.22c-4.95,1.05-6.19,4.52-5.45,8.24.99,4.96,12.51,27.23,12.51,27.23,0,0,2.12-24.98,1.13-29.94-.74-3.72-3.23-6.51-8.19-5.53Z"/><path id="r-31" class="cls-2" d="M353.69,275.27c-1.05-4.95-4.52-6.19-8.24-5.45-4.96.99-27.23,12.51-27.23,12.51,0,0,24.98,2.12,29.94,1.13,3.72-.74,6.51-3.23,5.53-8.19Z"/><path id="r-32" class="cls-2" d="M429.63,161.62c4.95-1.05,6.19-4.52,5.45-8.24-.99-4.96-12.51-27.23-12.51-27.23,0,0-2.12,24.98-1.13,29.94.74,3.72,3.23,6.51,8.19,5.53Z"/></g></g></g><g id="bird"><path class="cls-2" d="M433.31,440.67c-2.28.13-4.49.42-6.66,1.12-2.97.4-5.82,1.43-8.77,1.92l-1.18.19-1.98.19c.13.55.21,1.1.21,1.64s-.06,1.12-.21,1.58c-.13.44-.53.99-.84,1.33-.42.46-.86.86-1.39,1.12-.51.25-1.07.36-1.64.4-.57.02-1.16,0-1.71-.21-.57-.19-1.1-.55-1.58-.97-.59.15-1.2.25-1.77.32-.59.06-1.14.06-1.66,0-.59-.17-1.2-.36-1.77-.59s-1.12-.53-1.64-.86c-2.15,1.26-4.55,2.47-5.86,4.68-.74,1.01-.89,2.17-1.05,3.37-.11,1.48.27,3.03.91,4.4.23.4.42-1.45,1.14-1.71,1.2-.99,2.7-1.71,4.21-2.11,1.29-.65,1.12.04.59,1.05-.13.53-.84,2.53.13,1.52,4.28-1.9,9.02-2.28,13.63-2.63,6.7-.7,13.42-.84,20.14-.93,6.32.08,12.64.17,18.96.4,3.01.08,6.05.76,9.02.25.72-.19,1.83-.23,2.25-.65-1.35-.78-2.93-.8-4.43-.99h-12.05c-3.35-.34-6.85-.38-10.01-1.64-.84-.34-1.62-1.14-2.42-.27-1.2.42-2.49.72-3.75.8-2.21.17-4.43-.3-6.47-1.12,1.48-2.04,3.25-3.84,4.87-5.73-1.31-.21-2.57-.48-3.88-.8,2.3-1.58,4.43-3.37,6.66-5.06h0Z"/><path class="cls-2" d="M531.76,462.51c-4.58,2.75-8.08-2.13-11.9-3.59-2.73,1.48-2.99,6.45-5.54,8.81-3.06,3.48-6.8-.97-6.52-4.4-3.66,3.08-5.5,10.07-11.41,9.13-2.8-2.29-4.88-7.08-7.02-1.62-1.75,2.67-6.39,6.47-8.8,2.44-.74-3.56-2.53-7.74-4.47-2.09-1.33,4-5.6,6.94-9.72,5.19-2.26-1.85,1.81-8.68-1.06-8.19-4.3,2.84-6.8,9.9-12.8,9.33-2.33-2.61,1.41-7.04-1.14-9.95-3.02,3.87-6.36,9.54-11.58,9.95-2.52-2.04.1-7.9-1.51-8.77-5.35,3.21-11,8.93-17.73,7.14,2.62-10.03,13.59-13.55,22.8-14.34,15.86-1.95,32.55,1.63,47.81-4.09,2.47-1.5,8.44-3.63,6.31-7.11-1.88-2.75,4.9-1.67,5.55-4.88-.4-4.06,3.11-3.51,6.55-3.86,15.41-.66,30.63,2.58,45.99,3.13,1.16,7.49-7.14,12.74-13.83,10.43-3.19.52-7.98-7.34-7.04-1.62-.64,3-.19,6.96-2.94,8.97M400.65,447.18c3.57,3.27,6.07-.61,9.4-2.03,11.18-3.85,20.94-10.57,30.56-17.29,5.83-4.82,10.88-11.08,18.71-12.64,15.27-4.62,31.5-4.06,46.83-8.32,11.67-15.98,31.5-21.68,48.1-30.87,3.73-1.16,5.17-4.23,6.36-7.62,6.34-10.01,14.98-18.87,25.19-24.93,4.83-2.64,10.6-4.16,16.07-2.95-.39,6.52-4.13,12.29-8.64,16.8,3.69-.08,6.87-2.41,10.6-2.28,1.28,6.69-5.94,10.19-9.78,14.35,2.14.5,10.34,1.12,5.87,3.26-5.69,3.95-12.19,6.66-17.45,11.25,4.85.87,5.4,1.9.47,3.66-2.67,1.81-7.8,2.44-8.3,5.97,3.66,2.25-1.69,4.49-3.75,5.22-3.95.92-8.09,2.63-2.85,5.63-1.98,3-6.24,3.63-9.71,3.34,1.05,3.39,2.58,7.19-1.83,8.69-9.88,7.47-21.47,12.9-33.88,14.14,15.51,1.19,31.49-1.69,44.74-10.12,1.75-2.07,10.92-4.29,5.79-6.03-2.42-1.01-7.6-2.12-7.95-3.96,7.18-4.43,16.22-2.85,23.95-5.48.2-2.5-5.87-1.8-8.14-2.37-5.4-.44-5.08-1.82.12-2.33,6.59-1.74,14.05-2.09,19.59-6.38-4.51-2.09-10.19-.25-15-1.96,8.16-3.57,17.79-3.93,25.11-9.3,3.34-3.71-4.27-2.55-6.49-2.46-4.52.79-6.61-1.38-1.47-3.25,8.77-6.47,19.87-10.67,26.03-20.04,1.46-2.1,3.43-8.42-1.22-6.15-6.12,2.03-11.5,8.91-18.48,6.79,13.74-10.65,26.81-22.77,36.2-37.51.49-4.25-6.19-4.71-7.92-1.37-8.83,8.51-16.82,18.54-28.12,23.88,10.82-10.45,19.77-22.82,27.58-35.64,1.67-3.81,6.17-8.4,3.73-12.63-3.94-3.26-8.86-.28-10.9,3.62-6.86,8.96-12.07,19.41-20.9,26.71,7.72-14.74,15.72-30.44,15.92-47.44-.02-3.5-.73-8.66-5.48-8-3.77.68-2.87,6.32-4.43,9.17-3.42,11.62-5.03,24.2-12.04,34.37,1.58-9.44,4.34-19.28,2.22-28.81-.99-4.26-7.87-2.43-6.98,1.79-8.22,41.63-36.16,78.05-72.69,99.11-16.73,9.47-35.42,15.57-54.43,18.33-5.11,1.12-10.64.46-15.53,2.21-11.84,9.08-19.01,24.28-34.01,29.04-6.72,3.34-15.49,4.02-20.29,10.26-.42.8-.51,1.72-.49,2.61"/><path class="cls-2" d="M445.53,404.94c-2.21,4.02-3.51,8.63-6.36,12.23-8.56-7.79-20.97-7.53-31.83-8.05-8.96-.48-18.71-1.31-25.64-7.7-7.29-5.98-13.25-13.73-21.4-18.58-7.44-2.02-14.94-4.55-20.92-9.65-12.78-10.42-20.1-25.88-32.59-36.62-2.38-2.34-5.19-4.16-7.86-6.15-2.53.62-1.39,6.09-4.49,3.3-1.69-1.2-5.91-1.32-6.29.36,3.82,5.03,7.64,10.78,8.17,17.21-2.6.27-7.24-.55-8.53.42,3.46,5.18,7.89,9.78,12.93,13.44-2.42.39-7.18.18-8.1,1.15,5,4.08,10.36,8.24,16.91,9.29,1.34,1.77-1.96,5.18.82,6.69,1.61.66,6.92,1.76,3.26,3.59-2.51,1.69-1.58,5.63,1.63,5.54,2.03,1.04,6.59,1.29,6.94,3.08-1.8,1.83-7.39,4-2.63,5.72,4.45,2.47,9.52,4.07,14.61,4.25-2.55,2.15-5.69,3.36-8.32,5.38,11.73,6.88,24.73,11.4,37.57,15.75,5.11,1.71,10.29,3.3,15.59,4.31-15.41-.89-30.29-5.45-44.32-11.69-7.27-3.19-14.59-6.27-22.05-9.02,3.27-1.7,7.05-2.12,10.44-3.59-7.03-1.41-14.72-1.87-20.9-5.74.95-1.69,4.54-1.77,6.53-2.63,3.74-.9,6.05-1.98.79-2.31-5.31-1.44-11.41-.8-16.09-4,.3-1.92,5.2-1.25,7.2-2.08,2.51-.43,5.31-.79,7.32-2.48-8.21-3.41-18.96-.99-25.39-8.25-1.48-2.76,4.61-.54,6.34-1,4.41,0,9.15,1.4,13.34-.38-11.97-5.25-24.79-10.17-33.92-19.89-1.01-1.56-4.05-5.83-1.6-6.36,7.1.94,12.25,8.69,19.85,7.49,1.01-1.36-4.41-3.59-5.77-5.54-11.08-9.51-21.84-19.83-29.6-32.28-.53-4.16,6-4.78,7.72-1.57,8.47,8.16,16.13,17.69,26.68,23.26,3.75,1.82-2.15-2.15-2.94-3.59-9.75-11.32-19.04-23.28-25.85-36.62-1.22-2.4-3.24-6.76.41-8.03,3.65-1.83,7.27.66,9.12,3.8,7.17,9.04,12.45,19.79,21.38,27.33-7.61-14.77-15.73-30.31-15.93-47.3.18-3.29.39-8.28,4.86-8.14,3.75-.57,3.16,4.23,4.39,6.52,3.69,12.48,5.31,25.99,12.72,37.02-1.64-9.26-4.05-18.8-2.45-28.21.37-3.09,3.85-4.03,6.12-2.16,1.84,4.49,2.22,10.04,3.89,14.85,9.52,32.57,30.9,61.21,58.75,80.44,22.94,15.74,50.17,25.13,77.96,26.77,2.51.22,5.03.29,7.54.45"/><circle class="cls-2" cx="410.26" cy="446.62" r="1.5"/><circle class="cls-1" cx="410.13" cy="446.38" r=".61"/></g><g id="ornament"><g id="oh"><g id="oq"><path class="cls-2" d="M55.87,28.5s-6.18-5.19-8.27-2.59c-3.37,4.19,10.37,25.04,10.37,32.39,0,12.06-8.04,15.33-17.98,17.06-6.67,1.16-17.52-.48-17.52-.48,2.04-2.75,3.37-3.55,6.82-3.77-3.83-1.99-7.74-6.31-7.74-13.04,0-10.37,4.27-14.65,4.27-26.34,0-6.49-5.32-14.74-5.32-14.74,9.4.94,14.06,9.65,11.41,16.6,1.5.22,2.86-.12,4.02-1.23.69,1.93-.4,4.17-1.85,6.09,1.17.63,2.03.25,3.9-.13-.18,1.99-1.37,4.1-4.28,6.08,8.45-2.19,13.65,3.7,13.65,9.86,0,4.66-3.26,8-6.45,8-1.03,0-2.55-.42-3.4-1.06-.6,1.28-.29,3,.33,4.28-2.34-.62-3.82-2.01-2.77-4.9-1.8-.17-3.22-.77-4.2-1.93.98-1.26,2.48-1.99,4.2-1.93-1.31-2.7.15-4.21,2.27-5.43,0,0-1.35,5.43,2.1,5.43,1.55,0,2.96-.5,2.96-2.79,0-1.99-1.74-4.75-5.76-4.57-4.02.18-7.28,2.77-7.28,9.19,0,5.92,4.78,8.87,11.07,9.06,5.68.18,9.96-2.9,9.96-8.76,0-7.79-11.25-25.56-11.25-32.51,0-5.21,4.69-8.12,9.27-8.12,5.95,0,10.96,5.89,10.96,5.89l-3.49,4.38h0Z"/><path id="op" class="cls-2" d="M57.17,169.39c0,13.03-11.7,19.72-20.89,19.72-12.38,0-18.97-7.4-18.97-17.09,0-5.49,1.01-8.94,3.54-14.2,0,0,20.42-42.47,28.38-58.9.99-2.05,1.31-4.38,1.31-7.8,0-5.28-5.12-9.6-10.49-9.73-4.9-.12-10.23,4.56-10.23,9.9,0,6.49,3.36,9.38,6.82,9.38,4.25,0,5.95-1.75,5.95-4.73,0-2.08-1-2.98-2.45-2.98-3.65,0-2.62,4.91-2.62,4.91-1.81-.4-3.3-2.25-2.45-4.56-1.32-.3-2.57-.99-3.54-2.1.98-.95,2.1-1.68,3.54-1.93-.85-2.82.29-4.2,2.75-4.78-.5,1.08-.51,2.08-.35,3.02,3.88-1.1,9.84.65,9.84,7.36s-4.62,12.27-13.29,10.87c2.06.99,3.11,3,3.32,5.26-1.57-.61-3.32-.7-3.32-.7,1.01,1.79,2.42,3.33,2.36,6.84-1.61-.73-3.1-2.08-5.16-1.23,3.23,6.36-.74,15.11-10.84,17.18,3.7-4.33,5.51-9.01,5.51-13.67,0-15.1-4.2-17.64-4.2-28.14,0-4.39,2.26-9.14,6.73-12.36v.18c-2.96-.79-4.85-2.25-5.94-4.23,6.76-1.92,16.58-1.88,21.85.19,6.06.7,10.29,5.35,11.54,7.71,1.25,2.36,3.67,10.9,0,18.58-4.02,8.41-22.95,48.56-28.85,61.18-1.25,2.68-2.01,5.52-2.01,8.59,0,7.73,7.08,10.43,11.1,10.43,4.81,0,9.71-3.66,9.71-8.24,0-2.9-1.57-4.65-3.85-4.65-5.44,0-5.11,4.62-4.02,7.54-3.38-1.52-5.35-4.24-4.81-7.1-1.92-.26-3.74-1.17-5.42-3.07,1.32-1.67,2.94-2.94,5.42-2.98-1.08-4.44,1.89-6.32,4.81-7.36-.92,3.26-1.53,7.01,4.02,7.01,4.05,0,7.24.7,9.09,3.33.11-3.51.44-17.36.44-17.36.23-5.2-6.97-5.06-11.54-3.51,1.73-5.99,5.27-9.24,13.47-8.41-1.99-.83-4.11-2.7-4.11-6.31,0-4.88,3.96-10.29,6.56-11.88l1.3,50.8h0Z"/><path id="op-2" class="cls-2" d="M57.17,208.46c0-13.03-11.7-19.72-20.89-19.72-12.38,0-18.97,7.4-18.97,17.09,0,5.49,1.01,8.94,3.54,14.2,0,0,20.42,42.47,28.38,58.9.99,2.05,1.31,4.38,1.31,7.8,0,5.28-5.12,9.6-10.49,9.73-4.9.12-10.23-4.56-10.23-9.9,0-6.49,3.36-9.38,6.82-9.38,4.25,0,5.95,1.75,5.95,4.73,0,2.08-1,2.98-2.45,2.98-3.65,0-2.62-4.91-2.62-4.91-1.81.4-3.3,2.25-2.45,4.56-1.32.3-2.57.99-3.54,2.1.98.95,2.1,1.68,3.54,1.93-.85,2.82.29,4.2,2.75,4.78-.5-1.08-.51-2.08-.35-3.02,3.88,1.1,9.84-.65,9.84-7.36s-4.62-12.27-13.29-10.87c2.06-.99,3.11-3,3.32-5.26-1.57.61-3.32.7-3.32.7,1.01-1.79,2.42-3.33,2.36-6.84-1.61.73-3.1,2.08-5.16,1.23,3.23-6.36-.74-15.11-10.84-17.18,3.7,4.33,5.51,9.01,5.51,13.67,0,15.1-4.2,17.64-4.2,28.14,0,4.39,2.26,9.14,6.73,12.36v-.18c-2.96.79-4.85,2.25-5.94,4.23,6.76,1.92,16.58,1.88,21.85-.19,6.06-.7,10.29-5.35,11.54-7.71,1.25-2.36,3.67-10.9,0-18.58-4.02-8.41-22.95-48.56-28.85-61.18-1.25-2.68-2.01-5.52-2.01-8.59,0-7.73,7.08-10.43,11.1-10.43,4.81,0,9.71,3.66,9.71,8.24,0,2.9-1.57,4.65-3.85,4.65-5.44,0-5.11-4.62-4.02-7.54-3.38,1.52-5.35,4.24-4.81,7.1-1.92.26-3.74,1.17-5.42,3.07,1.32,1.67,2.94,2.94,5.42,2.98-1.08,4.44,1.89,6.32,4.81,7.36-.92-3.26-1.53-7.01,4.02-7.01,4.05,0,7.24-.7,9.09-3.33.11,3.51.44,17.36.44,17.36.23,5.2-6.97,5.06-11.54,3.51,1.73,5.99,5.27,9.24,13.47,8.41-1.99.83-4.11,2.7-4.11,6.31,0,4.88,3.96,10.29,6.56,11.88l1.3-50.8h0Z"/></g><g id="oq-2"><path class="cls-2" d="M55.87,28.5s6.18-5.19,8.27-2.59c3.37,4.19-10.37,25.04-10.37,32.39,0,12.06,8.04,15.33,17.98,17.06,6.67,1.16,17.52-.48,17.52-.48-2.04-2.75-3.37-3.55-6.82-3.77,3.83-1.99,7.74-6.31,7.74-13.04,0-10.37-4.27-14.65-4.27-26.34,0-6.49,5.32-14.74,5.32-14.74-9.4.94-14.06,9.65-11.41,16.6-1.5.22-2.86-.12-4.02-1.23-.69,1.93.4,4.17,1.85,6.09-1.17.63-2.03.25-3.9-.13.18,1.99,1.37,4.1,4.28,6.08-8.45-2.19-13.65,3.7-13.65,9.86,0,4.66,3.26,8,6.45,8,1.03,0,2.55-.42,3.4-1.06.6,1.28.29,3-.33,4.28,2.34-.62,3.82-2.01,2.77-4.9,1.8-.17,3.22-.77,4.2-1.93-.98-1.26-2.48-1.99-4.2-1.93,1.31-2.7-.15-4.21-2.27-5.43,0,0,1.35,5.43-2.1,5.43-1.55,0-2.96-.5-2.96-2.79,0-1.99,1.74-4.75,5.76-4.57,4.02.18,7.28,2.77,7.28,9.19,0,5.92-4.78,8.87-11.07,9.06-5.68.18-9.96-2.9-9.96-8.76,0-7.79,11.25-25.56,11.25-32.51,0-5.21-4.69-8.12-9.27-8.12-5.95,0-10.96,5.89-10.96,5.89l3.49,4.38h0Z"/><path id="op-3" class="cls-2" d="M54.57,169.39c0,13.03,11.7,19.72,20.89,19.72,12.38,0,18.97-7.4,18.97-17.09,0-5.49-1.01-8.94-3.54-14.2,0,0-20.42-42.47-28.38-58.9-.99-2.05-1.31-4.38-1.31-7.8,0-5.28,5.12-9.6,10.49-9.73,4.9-.12,10.23,4.56,10.23,9.9,0,6.49-3.36,9.38-6.82,9.38-4.25,0-5.95-1.75-5.95-4.73,0-2.08,1-2.98,2.45-2.98,3.65,0,2.62,4.91,2.62,4.91,1.81-.4,3.3-2.25,2.45-4.56,1.32-.3,2.57-.99,3.54-2.1-.98-.95-2.1-1.68-3.54-1.93.85-2.82-.29-4.2-2.75-4.78.5,1.08.51,2.08.35,3.02-3.88-1.1-9.84.65-9.84,7.36s4.62,12.27,13.29,10.87c-2.06.99-3.11,3-3.32,5.26,1.57-.61,3.32-.7,3.32-.7-1.01,1.79-2.42,3.33-2.36,6.84,1.61-.73,3.1-2.08,5.16-1.23-3.23,6.36.74,15.11,10.84,17.18-3.7-4.33-5.51-9.01-5.51-13.67,0-15.1,4.2-17.64,4.2-28.14,0-4.39-2.26-9.14-6.73-12.36v.18c2.96-.79,4.85-2.25,5.94-4.23-6.76-1.92-16.58-1.88-21.85.19-6.06.7-10.29,5.35-11.54,7.71-1.25,2.36-3.67,10.9,0,18.58,4.02,8.41,22.95,48.56,28.85,61.18,1.25,2.68,2.01,5.52,2.01,8.59,0,7.73-7.08,10.43-11.1,10.43-4.81,0-9.71-3.66-9.71-8.24,0-2.9,1.57-4.65,3.85-4.65,5.44,0,5.11,4.62,4.02,7.54,3.38-1.52,5.35-4.24,4.81-7.1,1.92-.26,3.74-1.17,5.42-3.07-1.32-1.67-2.94-2.94-5.42-2.98,1.08-4.44-1.89-6.32-4.81-7.36.92,3.26,1.53,7.01-4.02,7.01-4.05,0-7.24.7-9.09,3.33-.11-3.51-.44-17.36-.44-17.36-.23-5.2,6.97-5.06,11.54-3.51-1.73-5.99-5.27-9.24-13.47-8.41,1.99-.83,4.11-2.7,4.11-6.31,0-4.88-3.96-10.29-6.56-11.88l-1.3,50.8h0Z"/><path id="op-4" class="cls-2" d="M54.57,208.46c0-13.03,11.7-19.72,20.89-19.72,12.38,0,18.97,7.4,18.97,17.09,0,5.49-1.01,8.94-3.54,14.2,0,0-20.42,42.47-28.38,58.9-.99,2.05-1.31,4.38-1.31,7.8,0,5.28,5.12,9.6,10.49,9.73,4.9.12,10.23-4.56,10.23-9.9,0-6.49-3.36-9.38-6.82-9.38-4.25,0-5.95,1.75-5.95,4.73,0,2.08,1,2.98,2.45,2.98,3.65,0,2.62-4.91,2.62-4.91,1.81.4,3.3,2.25,2.45,4.56,1.32.3,2.57.99,3.54,2.1-.98.95-2.1,1.68-3.54,1.93.85,2.82-.29,4.2-2.75,4.78.5-1.08.51-2.08.35-3.02-3.88,1.1-9.84-.65-9.84-7.36s4.62-12.27,13.29-10.87c-2.06-.99-3.11-3-3.32-5.26,1.57.61,3.32.7,3.32.7-1.01-1.79-2.42-3.33-2.36-6.84,1.61.73,3.1,2.08,5.16,1.23-3.23-6.36.74-15.11,10.84-17.18-3.7,4.33-5.51,9.01-5.51,13.67,0,15.1,4.2,17.64,4.2,28.14,0,4.39-2.26,9.14-6.73,12.36v-.18c2.96.79,4.85,2.25,5.94,4.23-6.76,1.92-16.58,1.88-21.85-.19-6.06-.7-10.29-5.35-11.54-7.71-1.25-2.36-3.67-10.9,0-18.58,4.02-8.41,22.95-48.56,28.85-61.18,1.25-2.68,2.01-5.52,2.01-8.59,0-7.73-7.08-10.43-11.1-10.43-4.81,0-9.71,3.66-9.71,8.24,0,2.9,1.57,4.65,3.85,4.65,5.44,0,5.11-4.62,4.02-7.54,3.38,1.52,5.35,4.24,4.81,7.1,1.92.26,3.74,1.17,5.42,3.07-1.32,1.67-2.94,2.94-5.42,2.98,1.08,4.44-1.89,6.32-4.81,7.36.92-3.26,1.53-7.01-4.02-7.01-4.05,0-7.24-.7-9.09-3.33-.11,3.51-.44,17.36-.44,17.36-.23,5.2,6.97,5.06,11.54,3.51-1.73,5.99-5.27,9.24-13.47,8.41,1.99.83,4.11,2.7,4.11,6.31,0,4.88-3.96,10.29-6.56,11.88l-1.3-50.8h0Z"/></g></g><g id="oh-2"><g id="oq-3"><path class="cls-2" d="M55.87,577.44s-6.18,5.19-8.27,2.59c-3.37-4.19,10.37-25.04,10.37-32.39,0-12.06-8.04-15.33-17.98-17.06-6.67-1.16-17.52.48-17.52.48,2.04,2.75,3.37,3.55,6.82,3.77-3.83,1.99-7.74,6.31-7.74,13.04,0,10.37,4.27,14.65,4.27,26.34,0,6.49-5.32,14.74-5.32,14.74,9.4-.94,14.06-9.65,11.41-16.6,1.5-.22,2.86.12,4.02,1.23.69-1.93-.4-4.17-1.85-6.09,1.17-.63,2.03-.25,3.9.13-.18-1.99-1.37-4.1-4.28-6.08,8.45,2.19,13.65-3.7,13.65-9.86,0-4.66-3.26-8-6.45-8-1.03,0-2.55.42-3.4,1.06-.6-1.28-.29-3,.33-4.28-2.34.62-3.82,2.01-2.77,4.9-1.8.17-3.22.77-4.2,1.93.98,1.26,2.48,1.99,4.2,1.93-1.31,2.7.15,4.21,2.27,5.43,0,0-1.35-5.43,2.1-5.43,1.55,0,2.96.5,2.96,2.79,0,1.99-1.74,4.75-5.76,4.57-4.02-.18-7.28-2.77-7.28-9.19,0-5.92,4.78-8.87,11.07-9.06,5.68-.18,9.96,2.9,9.96,8.76,0,7.79-11.25,25.56-11.25,32.51,0,5.21,4.69,8.12,9.27,8.12,5.95,0,10.96-5.89,10.96-5.89l-3.49-4.38h0Z"/><path id="op-5" class="cls-2" d="M57.17,436.55c0-13.03-11.7-19.72-20.89-19.72-12.38,0-18.97,7.4-18.97,17.09,0,5.49,1.01,8.94,3.54,14.2,0,0,20.42,42.47,28.38,58.9.99,2.05,1.31,4.38,1.31,7.8,0,5.28-5.12,9.6-10.49,9.73-4.9.12-10.23-4.56-10.23-9.9,0-6.49,3.36-9.38,6.82-9.38,4.25,0,5.95,1.75,5.95,4.73,0,2.08-1,2.98-2.45,2.98-3.65,0-2.62-4.91-2.62-4.91-1.81.4-3.3,2.25-2.45,4.56-1.32.3-2.57.99-3.54,2.1.98.95,2.1,1.68,3.54,1.93-.85,2.82.29,4.2,2.75,4.78-.5-1.08-.51-2.08-.35-3.02,3.88,1.1,9.84-.65,9.84-7.36s-4.62-12.27-13.29-10.87c2.06-.99,3.11-3,3.32-5.26-1.57.61-3.32.7-3.32.7,1.01-1.79,2.42-3.33,2.36-6.84-1.61.73-3.1,2.08-5.16,1.23,3.23-6.36-.74-15.11-10.84-17.18,3.7,4.33,5.51,9.01,5.51,13.67,0,15.1-4.2,17.64-4.2,28.14,0,4.39,2.26,9.14,6.73,12.36v-.18c-2.96.79-4.85,2.25-5.94,4.23,6.76,1.92,16.58,1.88,21.85-.19,6.06-.7,10.29-5.35,11.54-7.71,1.25-2.36,3.67-10.9,0-18.58-4.02-8.41-22.95-48.56-28.85-61.18-1.25-2.68-2.01-5.52-2.01-8.59,0-7.73,7.08-10.43,11.1-10.43,4.81,0,9.71,3.66,9.71,8.24,0,2.9-1.57,4.65-3.85,4.65-5.44,0-5.11-4.62-4.02-7.54-3.38,1.52-5.35,4.24-4.81,7.1-1.92.26-3.74,1.17-5.42,3.07,1.32,1.67,2.94,2.94,5.42,2.98-1.08,4.44,1.89,6.32,4.81,7.36-.92-3.26-1.53-7.01,4.02-7.01,4.05,0,7.24-.7,9.09-3.33.11,3.51.44,17.36.44,17.36.23,5.2-6.97,5.06-11.54,3.51,1.73,5.99,5.27,9.24,13.47,8.41-1.99.83-4.11,2.7-4.11,6.31,0,4.88,3.96,10.29,6.56,11.88l1.3-50.8h0Z"/><path id="op-6" class="cls-2" d="M57.17,397.48c0,13.03-11.7,19.72-20.89,19.72-12.38,0-18.97-7.4-18.97-17.09,0-5.49,1.01-8.94,3.54-14.2,0,0,20.42-42.47,28.38-58.9.99-2.05,1.31-4.38,1.31-7.8,0-5.28-5.12-9.6-10.49-9.73-4.9-.12-10.23,4.56-10.23,9.9,0,6.49,3.36,9.38,6.82,9.38,4.25,0,5.95-1.75,5.95-4.73,0-2.08-1-2.98-2.45-2.98-3.65,0-2.62,4.91-2.62,4.91-1.81-.4-3.3-2.25-2.45-4.56-1.32-.3-2.57-.99-3.54-2.1.98-.95,2.1-1.68,3.54-1.93-.85-2.82.29-4.2,2.75-4.78-.5,1.08-.51,2.08-.35,3.02,3.88-1.1,9.84.65,9.84,7.36s-4.62,12.27-13.29,10.87c2.06.99,3.11,3,3.32,5.26-1.57-.61-3.32-.7-3.32-.7,1.01,1.79,2.42,3.33,2.36,6.84-1.61-.73-3.1-2.08-5.16-1.23,3.23,6.36-.74,15.11-10.84,17.18,3.7-4.33,5.51-9.01,5.51-13.67,0-15.1-4.2-17.64-4.2-28.14,0-4.39,2.26-9.14,6.73-12.36v.18c-2.96-.79-4.85-2.25-5.94-4.23,6.76-1.92,16.58-1.88,21.85.19,6.06.7,10.29,5.35,11.54,7.71,1.25,2.36,3.67,10.9,0,18.58-4.02,8.41-22.95,48.56-28.85,61.18-1.25,2.68-2.01,5.52-2.01,8.59,0,7.73,7.08,10.43,11.1,10.43,4.81,0,9.71-3.66,9.71-8.24,0-2.9-1.57-4.65-3.85-4.65-5.44,0-5.11,4.62-4.02,7.54-3.38-1.52-5.35-4.24-4.81-7.1-1.92-.26-3.74-1.17-5.42-3.07,1.32-1.67,2.94-2.94,5.42-2.98-1.08-4.44,1.89-6.32,4.81-7.36-.92,3.26-1.53,7.01,4.02,7.01,4.05,0,7.24.7,9.09,3.33.11-3.51.44-17.36.44-17.36.23-5.2-6.97-5.06-11.54-3.51,1.73-5.99,5.27-9.24,13.47-8.41-1.99-.83-4.11-2.7-4.11-6.31,0-4.88,3.96-10.29,6.56-11.88l1.3,50.8h0Z"/></g><g id="oq-4"><path class="cls-2" d="M55.87,577.44s6.18,5.19,8.27,2.59c3.37-4.19-10.37-25.04-10.37-32.39,0-12.06,8.04-15.33,17.98-17.06,6.67-1.16,17.52.48,17.52.48-2.04,2.75-3.37,3.55-6.82,3.77,3.83,1.99,7.74,6.31,7.74,13.04,0,10.37-4.27,14.65-4.27,26.34,0,6.49,5.32,14.74,5.32,14.74-9.4-.94-14.06-9.65-11.41-16.6-1.5-.22-2.86.12-4.02,1.23-.69-1.93.4-4.17,1.85-6.09-1.17-.63-2.03-.25-3.9.13.18-1.99,1.37-4.1,4.28-6.08-8.45,2.19-13.65-3.7-13.65-9.86,0-4.66,3.26-8,6.45-8,1.03,0,2.55.42,3.4,1.06.6-1.28.29-3-.33-4.28,2.34.62,3.82,2.01,2.77,4.9,1.8.17,3.22.77,4.2,1.93-.98,1.26-2.48,1.99-4.2,1.93,1.31,2.7-.15,4.21-2.27,5.43,0,0,1.35-5.43-2.1-5.43-1.55,0-2.96.5-2.96,2.79,0,1.99,1.74,4.75,5.76,4.57,4.02-.18,7.28-2.77,7.28-9.19,0-5.92-4.78-8.87-11.07-9.06-5.68-.18-9.96,2.9-9.96,8.76,0,7.79,11.25,25.56,11.25,32.51,0,5.21-4.69,8.12-9.27,8.12-5.95,0-10.96-5.89-10.96-5.89l3.49-4.38h0Z"/><path id="op-7" class="cls-2" d="M54.57,436.55c0-13.03,11.7-19.72,20.89-19.72,12.38,0,18.97,7.4,18.97,17.09,0,5.49-1.01,8.94-3.54,14.2,0,0-20.42,42.47-28.38,58.9-.99,2.05-1.31,4.38-1.31,7.8,0,5.28,5.12,9.6,10.49,9.73,4.9.12,10.23-4.56,10.23-9.9,0-6.49-3.36-9.38-6.82-9.38-4.25,0-5.95,1.75-5.95,4.73,0,2.08,1,2.98,2.45,2.98,3.65,0,2.62-4.91,2.62-4.91,1.81.4,3.3,2.25,2.45,4.56,1.32.3,2.57.99,3.54,2.1-.98.95-2.1,1.68-3.54,1.93.85,2.82-.29,4.2-2.75,4.78.5-1.08.51-2.08.35-3.02-3.88,1.1-9.84-.65-9.84-7.36s4.62-12.27,13.29-10.87c-2.06-.99-3.11-3-3.32-5.26,1.57.61,3.32.7,3.32.7-1.01-1.79-2.42-3.33-2.36-6.84,1.61.73,3.1,2.08,5.16,1.23-3.23-6.36.74-15.11,10.84-17.18-3.7,4.33-5.51,9.01-5.51,13.67,0,15.1,4.2,17.64,4.2,28.14,0,4.39-2.26,9.14-6.73,12.36v-.18c2.96.79,4.85,2.25,5.94,4.23-6.76,1.92-16.58,1.88-21.85-.19-6.06-.7-10.29-5.35-11.54-7.71-1.25-2.36-3.67-10.9,0-18.58,4.02-8.41,22.95-48.56,28.85-61.18,1.25-2.68,2.01-5.52,2.01-8.59,0-7.73-7.08-10.43-11.1-10.43-4.81,0-9.71,3.66-9.71,8.24,0,2.9,1.57,4.65,3.85,4.65,5.44,0,5.11-4.62,4.02-7.54,3.38,1.52,5.35,4.24,4.81,7.1,1.92.26,3.74,1.17,5.42,3.07-1.32,1.67-2.94,2.94-5.42,2.98,1.08,4.44-1.89,6.32-4.81,7.36.92-3.26,1.53-7.01-4.02-7.01-4.05,0-7.24-.7-9.09-3.33-.11,3.51-.44,17.36-.44,17.36-.23,5.2,6.97,5.06,11.54,3.51-1.73,5.99-5.27,9.24-13.47,8.41,1.99.83,4.11,2.7,4.11,6.31,0,4.88-3.96,10.29-6.56,11.88l-1.3-50.8h0Z"/><path id="op-8" class="cls-2" d="M54.57,397.48c0,13.03,11.7,19.72,20.89,19.72,12.38,0,18.97-7.4,18.97-17.09,0-5.49-1.01-8.94-3.54-14.2,0,0-20.42-42.47-28.38-58.9-.99-2.05-1.31-4.38-1.31-7.8,0-5.28,5.12-9.6,10.49-9.73,4.9-.12,10.23,4.56,10.23,9.9,0,6.49-3.36,9.38-6.82,9.38-4.25,0-5.95-1.75-5.95-4.73,0-2.08,1-2.98,2.45-2.98,3.65,0,2.62,4.91,2.62,4.91,1.81-.4,3.3-2.25,2.45-4.56,1.32-.3,2.57-.99,3.54-2.1-.98-.95-2.1-1.68-3.54-1.93.85-2.82-.29-4.2-2.75-4.78.5,1.08.51,2.08.35,3.02-3.88-1.1-9.84.65-9.84,7.36s4.62,12.27,13.29,10.87c-2.06.99-3.11,3-3.32,5.26,1.57-.61,3.32-.7,3.32-.7-1.01,1.79-2.42,3.33-2.36,6.84,1.61-.73,3.1-2.08,5.16-1.23-3.23,6.36.74,15.11,10.84,17.18-3.7-4.33-5.51-9.01-5.51-13.67,0-15.1,4.2-17.64,4.2-28.14,0-4.39-2.26-9.14-6.73-12.36v.18c2.96-.79,4.85-2.25,5.94-4.23-6.76-1.92-16.58-1.88-21.85.19-6.06.7-10.29,5.35-11.54,7.71-1.25,2.36-3.67,10.9,0,18.58,4.02,8.41,22.95,48.56,28.85,61.18,1.25,2.68,2.01,5.52,2.01,8.59,0,7.73-7.08,10.43-11.1,10.43-4.81,0-9.71-3.66-9.71-8.24,0-2.9,1.57-4.65,3.85-4.65,5.44,0,5.11,4.62,4.02,7.54,3.38-1.52,5.35-4.24,4.81-7.1,1.92-.26,3.74-1.17,5.42-3.07-1.32-1.67-2.94-2.94-5.42-2.98,1.08-4.44-1.89-6.32-4.81-7.36.92,3.26,1.53,7.01-4.02,7.01-4.05,0-7.24.7-9.09,3.33-.11-3.51-.44-17.36-.44-17.36-.23-5.2,6.97-5.06,11.54-3.51-1.73-5.99-5.27-9.24-13.47-8.41,1.99-.83,4.11-2.7,4.11-6.31,0-4.88-3.96-10.29-6.56-11.88l-1.3,50.8h0Z"/></g></g></g></svg>