<?xml version="1.0" encoding="UTF-8"?><svg id="_色修正" xmlns="http://www.w3.org/2000/svg" viewBox="0 0 900 600"><defs><style>.cls-1{fill:#4593d0;}.cls-1,.cls-2{stroke-width:0px;}.cls-2{fill:#fff;}</style></defs><rect class="cls-1" width="900" height="600"/><g id="star"><g id="c"><path id="t" class="cls-2" d="M451.19,91.96l-15.78,48.56,24.28,7.89"/><path id="t-2" class="cls-2" d="M451.19,91.96l15.78,48.56-24.28,7.89"/></g><g id="c-2"><path id="t-3" class="cls-2" d="M499.75,127.24h-51.06v25.53"/><path id="t-4" class="cls-2" d="M499.75,127.24l-41.31,30.01-15.01-20.65"/></g><g id="c-3"><path id="t-5" class="cls-2" d="M481.2,184.33l-15.78-48.56-24.28,7.89"/><path id="t-6" class="cls-2" d="M481.2,184.33l-41.31-30.01,15.01-20.65"/></g><g id="c-4"><path id="t-7" class="cls-2" d="M421.18,184.33l41.31-30.01-15.01-20.65"/><path id="t-8" class="cls-2" d="M421.18,184.33l15.78-48.56,24.28,7.89"/></g><g id="c-5"><path id="t-9" class="cls-2" d="M402.63,127.24l41.31,30.01,15.01-20.65"/><path id="t-10" class="cls-2" d="M402.63,127.24h51.06v25.53"/></g></g><g id="star-2"><g id="c-6"><path id="t-11" class="cls-2" d="M655.43,296.2l-48.56-15.78-7.89,24.28"/><path id="t-12" class="cls-2" d="M655.43,296.2l-48.56,15.78-7.89-24.28"/></g><g id="c-7"><path id="t-13" class="cls-2" d="M620.15,344.76v-51.06h-25.53"/><path id="t-14" class="cls-2" d="M620.15,344.76l-30.01-41.31,20.65-15.01"/></g><g id="c-8"><path id="t-15" class="cls-2" d="M563.06,326.21l48.56-15.78-7.89-24.28"/><path id="t-16" class="cls-2" d="M563.06,326.21l30.01-41.31,20.65,15.01"/></g><g id="c-9"><path id="t-17" class="cls-2" d="M563.06,266.19l30.01,41.31,20.65-15.01"/><path id="t-18" class="cls-2" d="M563.06,266.19l48.56,15.78-7.89,24.28"/></g><g id="c-10"><path id="t-19" class="cls-2" d="M620.15,247.64l-30.01,41.31,20.65,15.01"/><path id="t-20" class="cls-2" d="M620.15,247.64v51.06h-25.53"/></g></g><g id="star-3"><g id="c-11"><path id="t-21" class="cls-2" d="M451.19,500.44l15.78-48.56-24.28-7.89"/><path id="t-22" class="cls-2" d="M451.19,500.44l-15.78-48.56,24.28-7.89"/></g><g id="c-12"><path id="t-23" class="cls-2" d="M402.63,465.16h51.06v-25.53"/><path id="t-24" class="cls-2" d="M402.63,465.16l41.31-30.01,15.01,20.65"/></g><g id="c-13"><path id="t-25" class="cls-2" d="M421.18,408.07l15.78,48.56,24.28-7.89"/><path id="t-26" class="cls-2" d="M421.18,408.07l41.31,30.01-15.01,20.65"/></g><g id="c-14"><path id="t-27" class="cls-2" d="M481.2,408.07l-41.31,30.01,15.01,20.65"/><path id="t-28" class="cls-2" d="M481.2,408.07l-15.78,48.56-24.28-7.89"/></g><g id="c-15"><path id="t-29" class="cls-2" d="M499.75,465.16l-41.31-30.01-15.01,20.65"/><path id="t-30" class="cls-2" d="M499.75,465.16h-51.06v-25.53"/></g></g><g id="star-4"><g id="c-16"><path id="t-31" class="cls-2" d="M246.95,296.2l48.56,15.78,7.89-24.28"/><path id="t-32" class="cls-2" d="M246.95,296.2l48.56-15.78,7.89,24.28"/></g><g id="c-17"><path id="t-33" class="cls-2" d="M282.23,247.64v51.06h25.53"/><path id="t-34" class="cls-2" d="M282.23,247.64l30.01,41.31-20.65,15.01"/></g><g id="c-18"><path id="t-35" class="cls-2" d="M339.32,266.19l-48.56,15.78,7.89,24.28"/><path id="t-36" class="cls-2" d="M339.32,266.19l-30.01,41.31-20.65-15.01"/></g><g id="c-19"><path id="t-37" class="cls-2" d="M339.32,326.21l-30.01-41.31-20.65,15.01"/><path id="t-38" class="cls-2" d="M339.32,326.21l-48.56-15.78,7.89-24.28"/></g><g id="c-20"><path id="t-39" class="cls-2" d="M282.23,344.76l30.01-41.31-20.65-15.01"/><path id="t-40" class="cls-2" d="M282.23,344.76v-51.06h25.53"/></g></g></svg>