<?xml version="1.0" encoding="UTF-8"?><svg id="_色修正" xmlns="http://www.w3.org/2000/svg" xmlns:xlink="http://www.w3.org/1999/xlink" viewBox="0 0 900 600"><defs><style>.cls-1{stroke-width:.8px;}.cls-1,.cls-2,.cls-3,.cls-4,.cls-5,.cls-6,.cls-7,.cls-8,.cls-9,.cls-10,.cls-11,.cls-12,.cls-13,.cls-14,.cls-15,.cls-16,.cls-17,.cls-18,.cls-19,.cls-20,.cls-21,.cls-22,.cls-23,.cls-24,.cls-25,.cls-26,.cls-27,.cls-28,.cls-29,.cls-30,.cls-31,.cls-32,.cls-33,.cls-34,.cls-35,.cls-36,.cls-37,.cls-38,.cls-39,.cls-40,.cls-41,.cls-42,.cls-43,.cls-44,.cls-45,.cls-46,.cls-47,.cls-48,.cls-49,.cls-50,.cls-51,.cls-52,.cls-53,.cls-54,.cls-55,.cls-56,.cls-57,.cls-58,.cls-59,.cls-60,.cls-61,.cls-62,.cls-63,.cls-64,.cls-65,.cls-66,.cls-67,.cls-68,.cls-69,.cls-70,.cls-71,.cls-72,.cls-73,.cls-74,.cls-75,.cls-76,.cls-77,.cls-78,.cls-79,.cls-80,.cls-81,.cls-82,.cls-83,.cls-84,.cls-85,.cls-86,.cls-87,.cls-88,.cls-89,.cls-90{stroke:#20221d;}.cls-1,.cls-4,.cls-6,.cls-7,.cls-10,.cls-11,.cls-12,.cls-13,.cls-14,.cls-15,.cls-16,.cls-17,.cls-18,.cls-23,.cls-30,.cls-33,.cls-35,.cls-36,.cls-39,.cls-91,.cls-48,.cls-55,.cls-56,.cls-58,.cls-59,.cls-60,.cls-61,.cls-62,.cls-63,.cls-64,.cls-65,.cls-66,.cls-67,.cls-68,.cls-87,.cls-88,.cls-89{fill:#fff;}.cls-1,.cls-4,.cls-7,.cls-8,.cls-10,.cls-11,.cls-12,.cls-13,.cls-14,.cls-15,.cls-16,.cls-17,.cls-18,.cls-19,.cls-20,.cls-21,.cls-22,.cls-23,.cls-26,.cls-27,.cls-28,.cls-29,.cls-30,.cls-31,.cls-32,.cls-33,.cls-34,.cls-35,.cls-36,.cls-39,.cls-92,.cls-93,.cls-94,.cls-91,.cls-43,.cls-44,.cls-45,.cls-46,.cls-47,.cls-48,.cls-49,.cls-50,.cls-51,.cls-52,.cls-53,.cls-54,.cls-55,.cls-56,.cls-58,.cls-59,.cls-60,.cls-61,.cls-62,.cls-63,.cls-64,.cls-65,.cls-66,.cls-67,.cls-68,.cls-69,.cls-70,.cls-71,.cls-72,.cls-73,.cls-74,.cls-75,.cls-76,.cls-77,.cls-78,.cls-79,.cls-80,.cls-81,.cls-82,.cls-83,.cls-84,.cls-85,.cls-87,.cls-88,.cls-89{fill-rule:evenodd;}.cls-1,.cls-5,.cls-9,.cls-24,.cls-25,.cls-37,.cls-38,.cls-90{stroke-linecap:round;}.cls-1,.cls-7,.cls-12,.cls-13,.cls-14,.cls-15,.cls-16,.cls-17,.cls-18,.cls-19,.cls-21,.cls-26,.cls-27,.cls-28,.cls-29,.cls-31,.cls-37{stroke-linejoin:round;}.cls-2,.cls-95,.cls-6,.cls-8,.cls-9,.cls-10,.cls-11,.cls-20,.cls-22,.cls-24,.cls-33,.cls-36,.cls-38,.cls-39,.cls-40,.cls-41,.cls-42,.cls-43,.cls-45,.cls-47,.cls-49,.cls-51,.cls-54,.cls-56,.cls-57,.cls-58,.cls-59,.cls-62,.cls-63,.cls-65,.cls-68,.cls-70,.cls-72,.cls-73,.cls-75,.cls-76,.cls-77,.cls-78,.cls-79,.cls-82,.cls-87,.cls-88,.cls-89{stroke-miterlimit:22.93;}.cls-2,.cls-95,.cls-41{stroke-width:1.59px;}.cls-2,.cls-70{fill:#ac403f;}.cls-95{stroke:#fff;}.cls-95,.cls-94{fill:#c91520;}.cls-96{clip-path:url(#clippath);}.cls-97,.cls-3,.cls-5,.cls-9,.cls-24,.cls-25,.cls-37,.cls-38,.cls-40,.cls-41,.cls-42,.cls-57,.cls-86,.cls-90{fill:none;}.cls-97,.cls-92,.cls-93,.cls-94,.cls-91{stroke-width:0px;}.cls-3{stroke-miterlimit:31.03;stroke-width:.79px;}.cls-4{stroke-miterlimit:23.37;stroke-width:.79px;}.cls-5{stroke-miterlimit:23.68;stroke-width:1.06px;}.cls-6,.cls-82{stroke-width:.79px;}.cls-7{stroke-width:.8px;}.cls-8{stroke-width:.76px;}.cls-8,.cls-19,.cls-20,.cls-21,.cls-22,.cls-26,.cls-27,.cls-28,.cls-29,.cls-31,.cls-32,.cls-34,.cls-43,.cls-44,.cls-45,.cls-46,.cls-47,.cls-49,.cls-54,.cls-69,.cls-71,.cls-72,.cls-73,.cls-75,.cls-76,.cls-77,.cls-78,.cls-79,.cls-80,.cls-81,.cls-82,.cls-83,.cls-84,.cls-85{fill:#dab34d;}.cls-9{stroke-width:.8px;}.cls-10{stroke-width:.72px;}.cls-11{stroke-width:.7px;}.cls-12{stroke-width:.79px;}.cls-13{stroke-width:.79px;}.cls-14,.cls-24,.cls-51,.cls-68{stroke-width:.79px;}.cls-15,.cls-25,.cls-27,.cls-37,.cls-52,.cls-67,.cls-85{stroke-width:.79px;}.cls-16{stroke-width:.79px;}.cls-17{stroke-width:.79px;}.cls-18{stroke-width:.8px;}.cls-19,.cls-75{stroke-width:.8px;}.cls-98{clip-path:url(#clippath-1);}.cls-20{stroke-width:.8px;}.cls-21,.cls-77{stroke-width:.79px;}.cls-22{stroke-width:.81px;}.cls-23{stroke-miterlimit:24.06;stroke-width:.79px;}.cls-25,.cls-52,.cls-61,.cls-67,.cls-80,.cls-84,.cls-85{stroke-miterlimit:22.93;}.cls-26{stroke-width:.79px;}.cls-28{stroke-width:.79px;}.cls-29{stroke-width:.79px;}.cls-30{stroke-miterlimit:25.36;stroke-width:.79px;}.cls-31{stroke-width:.79px;}.cls-32{stroke-miterlimit:24.83;stroke-width:.79px;}.cls-33{stroke-width:.78px;}.cls-34{stroke-miterlimit:24.04;stroke-width:.79px;}.cls-35{stroke-miterlimit:23.93;stroke-width:.79px;}.cls-36{stroke-width:.77px;}.cls-38{stroke-width:.8px;}.cls-39{stroke-width:.76px;}.cls-40{stroke-width:.8px;}.cls-92{fill:#005bab;}.cls-93{fill:#20221d;}.cls-42{stroke-width:.8px;}.cls-43{stroke-width:.73px;}.cls-44{stroke-miterlimit:23.18;stroke-width:.79px;}.cls-45{stroke-width:.78px;}.cls-46{stroke-miterlimit:23.11;stroke-width:.79px;}.cls-47{stroke-width:.79px;}.cls-48{stroke-miterlimit:24.73;stroke-width:.79px;}.cls-49{stroke-width:.79px;}.cls-50{stroke-width:.79px;}.cls-50,.cls-51,.cls-52,.cls-53,.cls-74{fill:#1c3e6e;}.cls-50,.cls-53,.cls-55,.cls-64,.cls-66,.cls-81,.cls-83{stroke-miterlimit:22.93;}.cls-53{stroke-width:.79px;}.cls-54{stroke-width:.79px;}.cls-55{stroke-width:.79px;}.cls-56{stroke-width:.79px;}.cls-57{stroke-width:.81px;}.cls-58{stroke-width:.79px;}.cls-59{stroke-width:.79px;}.cls-60{stroke-miterlimit:22.98;stroke-width:.79px;}.cls-61{stroke-width:.79px;}.cls-62{stroke-width:.79px;}.cls-63{stroke-width:.79px;}.cls-64{stroke-width:.79px;}.cls-65{stroke-width:.79px;}.cls-66{stroke-width:.79px;}.cls-69{stroke-miterlimit:22.96;stroke-width:.79px;}.cls-70{stroke-width:.79px;}.cls-71{stroke-miterlimit:22.97;stroke-width:.79px;}.cls-72{stroke-width:.79px;}.cls-73{stroke-width:.77px;}.cls-74{stroke-miterlimit:23.19;stroke-width:.79px;}.cls-76{stroke-width:.79px;}.cls-78{stroke-width:.79px;}.cls-79{stroke-width:.79px;}.cls-80{stroke-width:.79px;}.cls-81{stroke-width:.79px;}.cls-83{stroke-width:.79px;}.cls-84{stroke-width:.79px;}.cls-86{stroke-miterlimit:29.6;stroke-width:1.06px;}.cls-87{stroke-width:.78px;}.cls-88{stroke-width:.79px;}.cls-89{stroke-width:.79px;}.cls-90{stroke-miterlimit:24.13;stroke-width:.79px;}</style><clipPath id="clippath"><rect class="cls-97" y="199.8" width="900" height="400.2"/></clipPath><clipPath id="clippath-1"><rect class="cls-97" y="399.35" width="900" height="200.66"/></clipPath></defs><path class="cls-94" d="M0,0h900v599.93H0V0Z"/><g class="cls-96"><path class="cls-92" d="M0,199.49h900v400.44H0V199.49Z"/></g><g class="cls-98"><path class="cls-91" d="M0,398.45h900v201.48H0v-201.48Z"/></g><path class="cls-46" d="M399.99,142.78c1.25-2.72.24-6.5-.16-7.35-.21-.43.4-1.39.67-1.76,8.51-11.97,8.66-13.03,2.79-17.52-5.29-4.04-17.25-7.98-25.81-10.63-1.78-1.35-2.92-3.18-4.53-4.7,16.45,1.18,34.27,7.81,43.25,15.55,4.75,4.1-1.03,12.37-8.1,24.95-4.37,3.13-6.42,4.59-8.1,1.46Z"/><path class="cls-85" d="M402.57,143.73c.35-1.01.62-2.04.82-3.09.36-1.78.2-3.61-.39-5.34,1.96-2.76,4.17-5.75,5.75-8.73,1.14-2.12,2.01-4.49,1.34-6.91-.71-2.59-2.96-4.34-5-5.9-2.44-1.86-5.69-3.5-8.98-4.89-7.37-3.04-13.23-4.52-17.52-4.65l2.72,2.51c7.99,2.57,17.42,5.95,21.96,9.42,5.87,4.48,5.72,5.55-2.79,17.51-.26.37-.88,1.33-.67,1.76.41.86,1.16,4.8-.09,7.52.73,1.37,1.8.65,2.84.79h0Z"/><path class="cls-85" d="M330.65,90.44c-.07-1.52.03-1.26.26,1.08.25-.47.57-.68.96-.67.69.01,1.11,1.06,1.18,3.42-.04.61-.08,1.21-.13,1.81,21.81-.48,34.74,2.8,38.08,9.11,2.74,5.19-1.92,13.79-8.96,23.61-.85,1.19-.83,1.09,0,2.07,1.19,1.41,2.47,3.81,1.51,5.91,4.26,2.33,9.34,2.91,13.77.98.74-1.94,2.33-2.86,3.62-3.74.26-.18,1.21-.64,1.31-.94,2.32-7.43,4.66-14.3,6.66-20.7,6.3-20.09-49.63-21.93-58.24-21.92h0Z"/><path class="cls-27" d="M388.24,176.88c2.16-4.32,4.42-8.56,7.45-12.23-7.75,5.72-11.82,4.86-12.39-2.59-.46-.16-1.08-.16-1.7-.16-5.91,9.16-11.66,7.89-17.25-3.8-7.62,12.01-14.15,11.8-19.28-.73-8.78,10.95-16.18,10.99-22.2.23v-1.36c.34.15.11.2-.68.08l-.13-.25c-.23.05-.45.09-.65.12-.22-.04-.43-.08-.65-.12l-.13.25c-.79.11-1.02.07-.68-.08v1.37c-6.01,10.75-13.41,10.72-22.19-.24-5.13,12.53-11.67,12.74-19.28.73-5.59,11.69-11.34,12.96-17.25,3.8-.62,0-1.24,0-1.7.16-.57,7.45-4.64,8.31-12.39,2.59,3.02,3.67,5.29,7.91,7.45,12.23,22.33-.92,44.58-2.08,66.83-3.25,22.25,1.16,44.5,2.32,66.83,3.25h0Z"/><path class="cls-27" d="M397.4,158.89l-2.43-.4c-4.66,11.38-8.85,11.66-9.64.83,1.05-.38.63-2.19,1.81-1.47.62.38,1.41-.7.89-1.29-1.32-.97-2.5-.82-3.65.26-.55-1.73-1.88-2.54-3.54-1.81-.72.32-.47,1.61.25,1.54,1.17-.12.7,1.09,1.06,1.9-8.28,10.79-12.51,9.5-11.48-4.67-1.97-.4-4.27-.81-6.32-1.54-7.62,15.28-13.04,15.94-17.43,2.23.94-.7.67-2.46,2.05-1.89.78.32,1.43-1.05.73-1.63-1.6-1.35-3.34-.89-4.51.84-.94-1.87-2.6-2.54-4.37-1.4-.76.49-.29,1.93.52,1.71,1.55-.41.86,1.62,2.03,2.32-3.37,12.89-20.36,13.76-17.58-5.33l-4.37.16-4.38-.16c2.78,19.09-14.21,18.22-17.58,5.33,1.18-.7.48-2.73,2.03-2.32.8.22,1.28-1.22.52-1.71-1.76-1.14-3.43-.47-4.37,1.4-1.17-1.74-2.91-2.19-4.51-.84-.69.59-.04,1.95.73,1.63,1.38-.57,1.11,1.19,2.05,1.89-4.39,13.72-9.81,13.06-17.43-2.23-2.06.73-4.35,1.13-6.32,1.54,1.03,14.17-3.2,15.45-11.48,4.67.36-.81-.1-2.02,1.06-1.9.73.07.97-1.22.25-1.54-1.67-.73-3,.08-3.54,1.81-1.16-1.08-2.33-1.23-3.65-.26-.52.6.27,1.67.89,1.29,1.18-.72.77,1.09,1.81,1.46-.79,10.83-4.97,10.55-9.63-.83l-2.43.4c-.07,2.67.86,5.52,2.51,7.61,7,8.88,12.2,6.86,12.4-3.08,9.16,10.74,16.09,9.37,17.33-1.94,7.71,14.28,20.08,7.45,20.33-1.21,3.39,12.59,22.21,12.5,23.41-1.97,1.2,14.47,20.01,14.56,23.41,1.97.26,8.66,12.62,15.49,20.33,1.21,1.25,11.32,8.17,12.68,17.33,1.94.19,9.94,5.39,11.95,12.4,3.08,1.65-2.09,2.59-4.94,2.51-7.61h0Z"/><path class="cls-78" d="M337.08,144.37c-1.03-.65-1.24-.47-1.57-.9-.43-.55-.43-1.44-.3-2.3.54-3.46-1.54-2.97-3.88-1.45-1.17.76-2.35,2.54-3.35,3.47-1,.93-1.84,1.01-2.09,1.37-.03,1.33-.04,2.47-.03,2.99h0c0,.52,0,1.67.03,2.99.25.37,1.09.45,2.09,1.37,1,.93,2.18,2.7,3.35,3.46,2.34,1.53,4.42,2.01,3.88-1.45-.14-.85-.13-1.75.3-2.3.33-.42.53-.25,1.57-.9.67-.42,1.17-.92,1.51-1.47.33-.54.15-1.13.15-1.72s.18-1.18-.15-1.72c-.33-.55-.84-1.05-1.51-1.47Z"/><path class="cls-93" d="M325.79,148.09l.09.58c2.47.31,4.51,1.3,6.3,2.85-1.18-1.75-3.71-3.05-6.39-3.43M325.79,147.04l.09-.58c2.47-.31,4.51-1.3,6.3-2.86-1.18,1.75-3.71,3.05-6.39,3.44"/><path class="cls-82" d="M335.25,139.6c-.75.31-1.57.64-2.26,1.31-1.06,1.02-.37,2.7.99,4.34.43.51.64,1.42.63,2.33,0,.91-.21,1.81-.63,2.31-1.36,1.63-2.05,3.32-.99,4.34.69.67,1.51,1,2.26,1.31.07-.4.07-.91-.04-1.58-.13-.86-.13-1.75.3-2.29.33-.43.53-.26,1.57-.9.67-.42,1.17-.92,1.51-1.47.33-.54.15-1.13.15-1.73s.18-1.18-.15-1.72c-.33-.54-.84-1.05-1.51-1.47-1.03-.64-1.24-.47-1.57-.89-.43-.55-.43-1.44-.3-2.3.1-.66.11-1.18.04-1.57h0Z"/><path class="cls-46" d="M242.85,142.78c-1.25-2.72-.24-6.5.17-7.36.2-.43-.4-1.39-.67-1.76-8.51-11.97-8.66-13.03-2.79-17.52,5.3-4.04,17.25-7.98,25.81-10.63,1.78-1.35,2.92-3.18,4.53-4.7-16.44,1.18-34.26,7.81-43.25,15.55-4.75,4.1,1.03,12.37,8.1,24.95,4.37,3.13,6.43,4.59,8.1,1.46h0Z"/><path class="cls-85" d="M240.26,143.73c-.35-1.01-.62-2.04-.82-3.09-.36-1.78-.2-3.61.39-5.34-1.96-2.76-4.16-5.75-5.75-8.73-1.13-2.12-2.01-4.49-1.34-6.91.72-2.59,2.97-4.34,5-5.9,2.44-1.86,5.69-3.5,8.98-4.89,7.37-3.04,13.23-4.52,17.52-4.65l-2.73,2.51c-7.99,2.57-17.42,5.95-21.95,9.42-5.87,4.48-5.72,5.55,2.79,17.51.26.37.88,1.33.67,1.76-.4.86-1.16,4.8.09,7.52-.73,1.37-1.8.65-2.85.79h0Z"/><path class="cls-85" d="M312.19,90.44c.07-1.52-.03-1.26-.26,1.08-.25-.47-.57-.68-.96-.67-.69.01-1.11,1.06-1.18,3.42l.13,1.81c-21.81-.48-34.74,2.8-38.07,9.11-2.74,5.19,1.92,13.79,8.96,23.61.85,1.19.82,1.09,0,2.07-1.19,1.41-2.47,3.81-1.51,5.91-4.27,2.33-9.34,2.91-13.77.98-.74-1.94-2.33-2.86-3.62-3.74-.26-.18-1.21-.64-1.31-.94-2.33-7.43-4.66-14.3-6.67-20.7-6.29-20.09,49.63-21.93,58.25-21.92h0Z"/><path class="cls-32" d="M315.98,173.58l-.78,21.77c21.6.6,47.19,1.58,68.78,2.19l4.31-20.33c-51.93-3.28-75.86-4.31-72.31-3.63h0Z"/><path class="cls-85" d="M315.97,173.59v.12c-11.54.51-31.98,1.65-61.43,3.51l4.31,20.33c19.56-.55,42.38-1.4,62.56-2.01,20.17.61,43,1.46,62.56,2.01l4.31-20.33c-29.45-1.86-49.88-3-61.42-3.51v-.12c1.16-.23-.65-.27-5.44-.1-4.8-.17-6.61-.12-5.45.1h0Z"/><path class="cls-85" d="M321.42,175.99c-.8,0-1.59,0-2.38,0h-.79s-.4,0-.4,0h-.73s-.44,0-.44,0h-.79s-.79.01-.79.01h-.7s-.15,0-.15,0h-.58c-.58.01-1.15.02-1.73.03h-.3s-.73.01-.73.01h-.23s-.31,0-.31,0h-.76s-.03.01-.03.01h-.79s-.25.02-.25.02h-.53s-.17.01-.17.01h-.61s-.79.03-.79.03h-.04l-.75.02h-.32s-.02,0-.02,0c-.93.02-1.86.05-2.79.07h-.38s-1.07.04-1.07.04h-.12s-.94.04-.94.04l-.62.02h-.44s-.13.02-.13.02l-.94.03h-.06s-.78.03-.78.03h-.04s-.74.03-.74.03l-.5.02-1.05.04h0c-1.38.06-2.76.11-4.14.18h-.2c-2.02.11-4.04.21-6.06.32h-.12s-.3.02-.3.02c-4.03.23-8.05.49-12.04.8h-.15s-.05.02-.05.02c-5.84.44-11.63.96-17.37,1.55-3.26.31-3.89-3.54,0-3.9,5.73-.6,11.52-1.11,17.37-1.55h.05c8.02-.61,16.13-1.07,24.34-1.39l.67-.03h.33s.78-.04.78-.04h.06c3.35-.12,6.72-.22,10.11-.28h.53s.03-.01.03-.01h.9s.11-.01.11-.01h.03s.76-.01.76-.01h.31s.47-.01.47-.01h.6s.19-.01.19-.01h.28s2.09-.03,2.09-.03h.66s.13,0,.13,0h.79c.77-.01,1.54-.02,2.31-.02h.86c.8,0,1.59,0,2.38,0s1.59,0,2.38,0h.8s.07,0,.07,0c.77,0,1.54,0,2.31.02h.79s.13,0,.13,0h.66s2.09.03,2.09.03h.28s.19,0,.19,0h.6s.48.01.48.01h.31s.76.02.76.02h.03s.12,0,.12,0h.9s.03.02.03.02h.53c3.39.07,6.76.17,10.12.29h.05s.78.03.78.03h.22s.1,0,.1,0l.68.03c8.12.31,16.24.77,24.34,1.38h.05c5.84.45,11.63.96,17.37,1.56,3.89.36,3.26,4.2,0,3.9-5.73-.59-11.52-1.11-17.37-1.55h-.05s-.15-.02-.15-.02c-3.99-.3-8-.56-12.04-.8h-.3s-.11-.02-.11-.02c-2.02-.11-4.04-.21-6.07-.31h-.2c-1.38-.07-2.76-.13-4.14-.19h0l-1.05-.04-.51-.02-.74-.03h-.03s-.78-.03-.78-.03h-.05s-.94-.03-.94-.03h-.12s-.44-.02-.44-.02l-.62-.02-.94-.03h-.12s-1.06-.04-1.06-.04h-.38c-.93-.03-1.86-.06-2.79-.08h-.02s-.32,0-.32,0l-.75-.02h-.04l-.79-.02h-.61s-.17-.01-.17-.01h-.53s-.26-.02-.26-.02h-.79s-.03-.01-.03-.01h-.76s-.31-.02-.31-.02h-.23s-.73-.01-.73-.01h-.11s-.19,0-.19,0c-.58,0-1.15-.01-1.73-.02h-.58s-.15,0-.15,0h-.7s-.79-.01-.79-.01h-.5s-.29,0-.29,0h-.44s-.74,0-.74,0h-1.2c-.79,0-1.59,0-2.38,0h0Z"/><path class="cls-64" d="M270.53,128.4c2.32,0,4.2,1.88,4.2,4.2-.06,2.32-1.98,4.16-4.3,4.1-2.24-.05-4.05-1.86-4.1-4.1,0-2.32,1.88-4.2,4.2-4.2Z"/><path class="cls-61" d="M234.75,137.19c2.15,0,3.9,1.75,3.9,3.9,0,2.15-1.75,3.9-3.9,3.9-2.15,0-3.9-1.75-3.9-3.9,0-2.15,1.75-3.9,3.9-3.9Z"/><path class="cls-61" d="M231.02,130.06c2.15-.04,3.93,1.68,3.97,3.83.04,2.15-1.68,3.93-3.83,3.97-.05,0-.09,0-.14,0-2.15-.04-3.87-1.81-3.83-3.97.04-2.1,1.73-3.8,3.83-3.83ZM227.51,122.86c2.15,0,3.9,1.75,3.9,3.9,0,2.15-1.75,3.9-3.9,3.9h0c-2.15,0-3.9-1.75-3.9-3.9,0-2.15,1.75-3.9,3.9-3.9Z"/><path class="cls-81" d="M321.43,142.46c2.81,0,5.1,2.28,5.1,5.1,0,2.82-2.28,5.1-5.1,5.11-2.82,0-5.1-2.29-5.1-5.11,0-2.82,2.29-5.1,5.1-5.1Z"/><path class="cls-69" d="M296.44,136.25c2.25-.15,1.7,3.86,1.25,4.75-.58,1.17-1.12,1.2-1.85.12-.56-.83-1.65-4.72.6-4.88Z"/><path class="cls-60" d="M296.58,138.41c5.3-.36,3.98,9.07,2.94,11.16-1.36,2.74-2.63,2.83-4.35.3-1.32-1.94-3.89-11.1,1.41-11.46h0Z"/><path class="cls-34" d="M253.88,141.91c2.15-.68,2.57,3.34,2.35,4.32-.29,1.27-.8,1.44-1.77.57-.74-.67-2.73-4.2-.58-4.88Z"/><path class="cls-23" d="M254.53,143.98c5.06-1.61,6.04,7.85,5.52,10.14-.68,2.99-1.88,3.37-4.16,1.32-1.74-1.57-6.42-9.85-1.36-11.46h0Z"/><path class="cls-27" d="M309.58,94.09c-11.36-1.03-22.99.13-34.49,4.7-9.7,3.85-8.75,15.09,3.08,30.7-1.07,1.98-1.68,4.43-1.78,7.27,1.25-.07,2.13-.04,3.23-.07-.86-1.89.1-4.2,1.19-5.83.71-1.07.85-.88,0-2.07-7.04-9.81-11.7-18.41-8.96-23.61,3.33-6.31,16.26-9.6,38.07-9.11-.04-.58-.08-1.16-.12-1.74-.07-.08-.14-.16-.22-.24Z"/><path class="cls-67" d="M254.42,97.29c2.24,0,4.05,1.81,4.05,4.05,0,2.24-1.81,4.05-4.05,4.05s-4.05-1.81-4.05-4.05c0-2.24,1.81-4.05,4.05-4.05Z"/><path class="cls-67" d="M262.38,94.7c2.24,0,4.05,1.81,4.05,4.05s-1.81,4.05-4.05,4.05h0c-2.24,0-4.05-1.81-4.05-4.05s1.81-4.05,4.05-4.05Z"/><path class="cls-85" d="M263.42,98.15c.4.54.8,1.07,1.21,1.61-6.4,3.51-9.05,7.21-8.42,10.93.11.64,2.05,7.45,6.4,20.66,2.97,2.05,5.18,3.89,6.64,5.51-.16.18.47.76.28.92.44,2.02-1.83,1.61-3.36,1.11-.74-1.94-2.98-3.99-4.27-4.87-.27-.18-1.21-.64-1.31-.94-2.33-7.43-4.66-14.3-6.67-20.7-2.01-6.43,2.35-10.98,9.49-14.21Z"/><path class="cls-28" d="M238.18,145.87l-.24,1.3c-1.86.43-3.46.54-4.78.33,2.21-2.16,3.86-2.62,5.02-1.62Z"/><path class="cls-76" d="M237.97,142.92c1.17.26,1.28.46,1.78.54.66.11,1.56.07,2.18-.48,2.53-1.52,2.59,1.22,1.6,3.26-.71,1.48-.34,3.16.33,4.43.8,1.5.64,2.18.07,2.59-.4.26-.77.5-1.11.72-.68.8-1.2.67-1.29-.39-2.53-1.04-3.37-3.46-4.12-5.6-1.11-3.12-5.13-3.86.56-5.08h0Z"/><path class="cls-72" d="M238.96,143.02c2.2.78,2.45-.44,3.93-.38-.58,3.37-1.18,5.11-4.69,3.31-1.93-1-4.42.46-4.89,1.54-.17.4-1.3-.43-1.71-1.33-1.73-3.77,4.41-4.19,7.36-3.14Z"/><path class="cls-55" d="M306.05,85.39c2.23,0,4.03,1.8,4.03,4.03s-1.8,4.03-4.03,4.03-4.03-1.8-4.03-4.03,1.8-4.03,4.03-4.03Z"/><path class="cls-55" d="M297.79,85.39c2.23-.04,4.06,1.74,4.1,3.96.04,2.23-1.74,4.06-3.96,4.1-.05,0-.09,0-.14,0-2.23,0-4.03-1.8-4.03-4.03s1.8-4.03,4.03-4.03h0Z"/><path class="cls-55" d="M289.53,86.05c2.22,0,4.03,1.8,4.03,4.02h0c0,2.24-1.8,4.04-4.03,4.04s-4.03-1.8-4.03-4.03h0c0-2.22,1.8-4.03,4.02-4.03h0Z"/><path class="cls-55" d="M281.91,87.5c2.23,0,4.03,1.81,4.03,4.04s-1.81,4.04-4.03,4.04-4.03-1.81-4.03-4.04,1.81-4.04,4.03-4.04h0Z"/><path class="cls-67" d="M231.81,108.28c2.24,0,4.05,1.81,4.05,4.05s-1.81,4.05-4.05,4.05-4.05-1.81-4.05-4.05,1.81-4.05,4.05-4.05Z"/><path class="cls-67" d="M238.75,103.9c2.23,0,4.05,1.81,4.05,4.04h0c0,2.24-1.81,4.05-4.05,4.05s-4.05-1.81-4.05-4.05,1.81-4.05,4.05-4.05h0ZM246.64,100.2c2.24,0,4.05,1.81,4.05,4.05s-1.81,4.05-4.05,4.05-4.05-1.81-4.05-4.05h0c0-2.24,1.81-4.05,4.05-4.05ZM226.44,114.86c2.24,0,4.05,1.81,4.05,4.05s-1.81,4.05-4.05,4.05-4.05-1.81-4.05-4.05,1.81-4.05,4.05-4.05Z"/><path class="cls-84" d="M306.41,184.71l15-7.5,15,7.5-15,7.5-15-7.5Z"/><path class="cls-51" d="M321.42,180.11c3.73,0,6.75,2.02,6.75,4.5s-3.02,4.5-6.75,4.5-6.75-2.01-6.75-4.5,3.02-4.5,6.75-4.5h0Z"/><path class="cls-71" d="M273.07,186.6l14.52-8.4,15.43,6.57-14.52,8.4-15.43-6.57Z"/><path class="cls-70" d="M287.76,181.09c3.73-.23,6.86,1.6,7.01,4.08.15,2.48-2.74,4.68-6.46,4.9-3.72.23-6.86-1.6-7.01-4.08-.15-2.48,2.74-4.68,6.46-4.9Z"/><path class="cls-85" d="M255.62,180.57l15.68,5.94-12.95,8.66c-3.36-1.12-6.02-12.52-2.73-14.6Z"/><path class="cls-52" d="M255.91,183.46c3.71-.38,6.92,1.32,7.17,3.79.25,2.47-2.55,4.78-6.26,5.16-2.41.25-3.91-1.86-4.17-4.1-.27-2.23.72-4.59,3.25-4.85h0Z"/><path class="cls-67" d="M305.14,187.48c1.16,0,2.11.94,2.11,2.11s-.94,2.1-2.11,2.1-2.11-.94-2.11-2.1.94-2.11,2.11-2.11ZM272.98,189.27c1.16-.03,2.13.89,2.15,2.05s-.89,2.13-2.05,2.15c-.03,0-.07,0-.1,0-1.16,0-2.1-.94-2.1-2.1s.94-2.1,2.1-2.1ZM271.85,179.54c1.16.03,2.08.99,2.06,2.16-.03,1.12-.93,2.03-2.06,2.06-1.16-.03-2.08-.99-2.06-2.16.03-1.12.93-2.03,2.06-2.06ZM305.06,178.17c1.16.03,2.08.99,2.06,2.16-.03,1.12-.93,2.03-2.06,2.06-1.16-.03-2.08-.99-2.06-2.16.03-1.12.93-2.03,2.06-2.06Z"/><path class="cls-77" d="M248.07,159.31c1.59-.48,4.09,3.04,4.68,2.98.78-2.02-.81-6.83-3.65-10.65-1.93-.63-2.1-1.87-2.5-4.73-.12-.86-1.77-.27-1.79,1.2-.03,1.56-.15,2.43.2,3.77.13.53.06,1.03-.53,1.51,3,1.19,3.73,2.64,3.59,5.93Z"/><path class="cls-21" d="M246.64,146.95c-.27.67-.36,1.2-.42,2.21-.05.76.23,1.48.72,2.11.49.64,1.19,1.2,1.98,1.65.49.28,1.06,1.07,1.5,1.95.44.88.76,1.88.79,2.59.06,2.34.52,4.39,1.59,4.79.7.27.98.22,1.53.1-.15-.42-.1-1.01-.47-1.6-.49-.76-.92-1.63-.95-2.39-.03-.6-.31-.99-.08-2.15.15-.76.64-1.04.55-1.74-.17-1.35-1.24-3.94-2.8-3.94-1.54,0-2.27-.17-3.07-2.21-.27-.69-.62-1.03-.86-1.38Z"/><path class="cls-49" d="M240.82,152.57c.42-.33.93-.56,1.41-.74.8-.32,1.69-.36,2.51-.12,3.7,1.12,5.32,7.64,1.26,9.21-.79.1-1.53-.62-2.25-2.2-.85-2.08-1.74-3.53-2.71-4.41-.59-.74-.61-1.37-.22-1.74h0Z"/><path class="cls-47" d="M242.68,153c3.56-1.38,6.17,5.39,2.85,6.67-1.79.69-1.96-1.53-2.3-2.76-.47-1.66-3.97-2.59-.55-3.92h0Z"/><path class="cls-74" d="M243.06,154c1.73-.67,4.11,3.36,1.94,4.28-1.46.62-2.62-.2-3.09-1.41-.47-1.22-.07-2.4,1.15-2.87Z"/><path class="cls-71" d="M369.77,186.6l-14.52-8.4-15.43,6.57,14.51,8.4,15.43-6.57Z"/><path class="cls-70" d="M355.07,181.09c-3.72-.23-6.86,1.6-7.01,4.08-.15,2.48,2.74,4.68,6.46,4.9s6.86-1.6,7.01-4.08c.15-2.48-2.74-4.67-6.46-4.9h0Z"/><path class="cls-85" d="M387.22,180.57l-15.68,5.94,12.95,8.66c3.36-1.12,6.02-12.52,2.73-14.6Z"/><path class="cls-52" d="M386.92,183.46c-3.71-.38-6.92,1.32-7.17,3.79-.25,2.47,2.55,4.78,6.26,5.16,2.41.25,3.91-1.86,4.17-4.1.26-2.23-.72-4.59-3.26-4.85Z"/><path class="cls-67" d="M337.71,187.48c-1.16,0-2.11.94-2.11,2.11,0,1.16.95,2.1,2.11,2.1h0c1.16,0,2.11-.94,2.11-2.1s-.94-2.11-2.11-2.11ZM369.85,189.27c-1.17,0-2.11.94-2.11,2.11s.94,2.1,2.11,2.1,2.1-.94,2.1-2.1-.94-2.11-2.1-2.11ZM371,179.54c-1.16.03-2.08.99-2.06,2.16.03,1.12.93,2.03,2.06,2.06,1.16-.03,2.08-.99,2.06-2.16-.03-1.12-.93-2.03-2.06-2.06ZM337.78,178.17c-1.16.03-2.08.99-2.06,2.16.03,1.12.93,2.03,2.06,2.06,1.16-.03,2.08-.99,2.06-2.16-.03-1.12-.93-2.03-2.06-2.06Z"/><path class="cls-64" d="M267.29,121.52c2.32,0,4.2,1.88,4.2,4.2,0,2.32-1.88,4.2-4.2,4.2-2.32,0-4.2-1.88-4.2-4.2,0-2.32,1.88-4.2,4.2-4.2Z"/><path class="cls-64" d="M264.22,114.54c2.32.06,4.16,1.98,4.1,4.3-.05,2.24-1.86,4.05-4.1,4.1-2.32-.06-4.16-1.98-4.1-4.3.05-2.24,1.86-4.05,4.1-4.1Z"/><path class="cls-67" d="M274.28,89.96c2.24,0,4.05,1.81,4.05,4.05,0,2.24-1.81,4.05-4.05,4.05s-4.05-1.81-4.05-4.05c0-2.24,1.81-4.05,4.05-4.05h0Z"/><path class="cls-64" d="M267.47,93.05c2.32,0,4.2,1.88,4.2,4.2-.06,2.32-1.98,4.16-4.3,4.1-2.24-.05-4.05-1.86-4.1-4.1,0-2.32,1.88-4.2,4.2-4.2h0Z"/><path class="cls-64" d="M262.46,98.99c2.32,0,4.2,1.88,4.2,4.2s-1.88,4.2-4.2,4.2c-2.32.06-4.25-1.78-4.3-4.1s1.78-4.25,4.1-4.3c.07,0,.13,0,.2,0Z"/><path class="cls-64" d="M261.65,106.46c2.32-.05,4.24,1.78,4.3,4.1.05,2.32-1.78,4.24-4.1,4.3-.07,0-.13,0-.2,0-2.32-.06-4.15-1.98-4.1-4.3.05-2.24,1.86-4.05,4.1-4.1Z"/><path class="cls-85" d="M323.47,59.47c1.11-.03,1.99-.93,1.99-2.05s-.89-2.02-2-2.05c-.05-1.13-1-2.01-2.14-1.96-1.07.04-1.92.9-1.96,1.96-1.11.03-2,.94-2,2.05,0,1.12.89,2.02,2,2.05v4.21h-3.62c.01-1.13-.9-2.06-2.03-2.07-1.13-.01-2.06.9-2.07,2.03-1.13,0-2.04.92-2.04,2.05,0,1.13.92,2.05,2.04,2.05-.01,1.13.89,2.06,2.03,2.07s2.06-.89,2.07-2.03h3.62v14h4.11v-14h3.62c.06,1.09.95,1.96,2.05,1.96s2.02-.9,2.05-2c1.13,0,2.04-.92,2.04-2.05s-.91-2.05-2.04-2.05c-.03-1.11-.94-2-2.05-2-1.13,0-2.04.91-2.05,2.04h-3.62v-4.21Z"/><path class="cls-53" d="M321.43,72.68c6.25,0,11.32,5.07,11.32,11.33,0,6.25-5.07,11.32-11.32,11.32h0c-6.25,0-11.33-5.07-11.33-11.32s5.07-11.33,11.33-11.33Z"/><path class="cls-80" d="M321.42,72.68c.7,0,1.39.07,2.06.19v8.92h-4.11v-8.92c.68-.12,1.37-.19,2.06-.19h0Z"/><path class="cls-85" d="M332.5,81.71c.26,1.28.3,2.6.12,3.9-3.73-.12-7.45-.21-11.21-.21s-7.49.09-11.21.21c-.08-.53-.11-1.07-.12-1.6,0-.79.08-1.56.23-2.3,3.69-.13,7.38-.21,11.09-.21s7.41.08,11.09.21Z"/><path class="cls-27" d="M312.63,91.08c-2.4-1.47-2.82.81-2.76,3.11.23,8.66,1.89,16.91-.44,27.52-.94,4.25-2.44,6.63-.98,7.45,3.74,2.08,5.46,3.99,4.86,5.02,1.11,2.11,3.86,1.7,8.1,1.02,4.24.67,6.99,1.08,8.1-1.02-.6-1.03,1.12-2.94,4.86-5.02,1.47-.82-.04-3.21-.97-7.45-2.33-10.61-.67-18.85-.44-27.52.06-2.3-.36-4.59-2.76-3.11-4.72,2.91-12.8,2.94-17.58,0h0Z"/><path class="cls-66" d="M321.43,123.69c2.49,0,4.5,2.02,4.5,4.5,0,2.49-2.02,4.5-4.5,4.5s-4.5-2.02-4.5-4.5c0-2.49,2.02-4.5,4.5-4.5Z"/><path class="cls-66" d="M321.43,115.89c2.49,0,4.5,2.01,4.5,4.5s-2.01,4.5-4.5,4.5-4.5-2.01-4.5-4.5h0c0-2.49,2.02-4.5,4.5-4.5Z"/><path class="cls-66" d="M321.43,108.4c2.49,0,4.5,2.02,4.5,4.5,0,2.49-2.01,4.5-4.5,4.5s-4.5-2.01-4.5-4.5h0c0-2.49,2.02-4.5,4.5-4.5ZM321.43,87.1c2.48,0,4.5,2.01,4.5,4.5-.06,2.49-2.12,4.45-4.6,4.4-2.41-.06-4.34-1.99-4.4-4.4,0-2.48,2.02-4.5,4.5-4.5Z"/><path class="cls-66" d="M321.43,93.69c2.49.06,4.45,2.12,4.4,4.6-.06,2.4-1.99,4.34-4.4,4.4-2.49-.06-4.45-2.12-4.4-4.6.06-2.4,1.99-4.34,4.4-4.4Z"/><path class="cls-66" d="M321.43,100.9c2.49,0,4.5,2.02,4.5,4.5,0,2.49-2.01,4.5-4.5,4.5s-4.5-2.01-4.5-4.5c0-2.49,2.02-4.5,4.5-4.5Z"/><path class="cls-26" d="M316.32,133.55c-1.78-3.3-3.67-5.4-5.67-6.32,2.76-8.61,3.4-19.74,1.79-33.45-.16-2.05-.67-2.93-1.46-2.92-.69.01-1.11,1.06-1.17,3.42.5,7.55,1.12,14.15.77,19.75-.31,5-1.49,9.16-2.8,13.85-.18.65.28,1.16,2.55,2.43,1.67.94,2.72,2.11,3.08,3.32.48-.19.8-.13.97-.08,1.68.48,2.39.35,1.94,0h0Z"/><path class="cls-26" d="M326.52,133.55c1.78-3.29,3.67-5.4,5.67-6.32-2.76-8.61-3.4-19.74-1.79-33.45.16-2.05.67-2.93,1.46-2.92.69.01,1.11,1.06,1.18,3.42-.5,7.55-1.12,14.14-.77,19.75.31,5,1.49,9.16,2.8,13.85.18.65-.28,1.16-2.55,2.43-1.67.94-2.72,2.11-3.08,3.32-.48-.19-.8-.13-.97-.08-1.68.48-2.39.35-1.94,0h0Z"/><path class="cls-79" d="M324.62,131.9c.65,1.03.47,1.24.9,1.57.55.43,1.44.43,2.3.3,3.46-.54,2.98,1.54,1.45,3.88-.77,1.17-2.54,2.35-3.47,3.35-.93,1-1,1.84-1.37,2.09-1,.03-2,.04-2.99.03-.52,0-1.67,0-2.99-.03-.37-.25-.45-1.09-1.37-2.09-.93-1-2.71-2.18-3.47-3.35-1.53-2.34-2.01-4.42,1.45-3.88.86.14,1.75.13,2.3-.3.42-.33.25-.53.9-1.57.42-.67.92-1.17,1.47-1.51.55-.33,1.13-.15,1.73-.15s1.18-.18,1.72.15c.55.33,1.05.84,1.47,1.51h0Z"/><path class="cls-93" d="M320.9,143.19l-.58-.08c-.31-2.47-1.3-4.52-2.86-6.3,1.75,1.18,3.05,3.71,3.44,6.39M321.94,143.19l.59-.08c.31-2.47,1.3-4.52,2.85-6.3-1.74,1.18-3.05,3.71-3.44,6.39"/><path class="cls-85" d="M329.37,133.72c-.31.75-.64,1.58-1.31,2.27-1.02,1.05-2.7.37-4.33-1-.52-.43-1.43-.64-2.33-.63-.91,0-1.81.22-2.31.63-1.63,1.36-3.32,2.05-4.34,1-.67-.69-1-1.52-1.3-2.27.4-.07.91-.07,1.57.04.86.13,1.75.13,2.3-.3.42-.33.25-.53.9-1.56.42-.67.92-1.18,1.47-1.51.55-.33,1.13-.15,1.73-.15s1.18-.18,1.72.15c.55.33,1.05.84,1.47,1.51.64,1.03.47,1.23.9,1.56.54.43,1.44.43,2.3.3.66-.1,1.18-.11,1.57-.04h0Z"/><path class="cls-78" d="M305.76,144.37c1.03-.65,1.24-.47,1.57-.9.43-.55.43-1.44.3-2.3-.54-3.46,1.54-2.97,3.88-1.45,1.17.76,2.35,2.54,3.36,3.47,1,.93,1.84,1.01,2.09,1.37.03,1.33.04,2.47.03,2.99h0c0,.52,0,1.67-.03,2.99-.25.37-1.08.45-2.09,1.37-1.01.93-2.18,2.7-3.36,3.46-2.34,1.53-4.42,2.01-3.88-1.45.14-.85.13-1.75-.3-2.3-.33-.42-.53-.25-1.57-.9-.67-.42-1.18-.92-1.51-1.47-.34-.54-.15-1.13-.15-1.72s-.19-1.18.15-1.72c.33-.55.84-1.05,1.51-1.47Z"/><path class="cls-93" d="M317.05,148.09l-.09.58c-2.47.31-4.52,1.3-6.3,2.85,1.18-1.75,3.71-3.05,6.39-3.43M317.05,147.04l-.09-.58c-2.47-.31-4.52-1.3-6.3-2.86,1.18,1.75,3.71,3.05,6.39,3.44"/><path class="cls-82" d="M307.58,139.6c.75.31,1.58.64,2.27,1.31,1.06,1.02.37,2.7-.99,4.34-.43.51-.64,1.42-.63,2.33,0,.91.21,1.81.63,2.31,1.36,1.63,2.05,3.32.99,4.34-.69.67-1.52,1-2.27,1.31-.07-.4-.06-.91.04-1.58.13-.86.13-1.75-.3-2.29-.33-.43-.53-.26-1.57-.9-.67-.42-1.17-.92-1.51-1.47-.34-.54-.15-1.13-.15-1.73s-.19-1.18.15-1.72c.33-.54.84-1.05,1.51-1.47,1.03-.64,1.24-.47,1.57-.89.43-.55.43-1.44.3-2.3-.1-.66-.11-1.18-.04-1.57Z"/><path class="cls-78" d="M337.08,150.76c-1.03.65-1.24.47-1.57.9-.43.55-.43,1.44-.3,2.3.54,3.46-1.54,2.97-3.88,1.45-1.17-.76-2.35-2.54-3.35-3.47-1-.93-1.84-1.01-2.09-1.37-.03-1.33-.04-2.47-.03-2.99h0c0-.52,0-1.67.03-2.99.25-.37,1.09-.45,2.09-1.37,1-.93,2.18-2.71,3.35-3.47,2.34-1.53,4.42-2.01,3.88,1.45-.14.85-.13,1.75.3,2.3.33.42.53.25,1.57.9.67.42,1.17.92,1.51,1.47.33.54.15,1.13.15,1.72s.18,1.18-.15,1.72c-.33.55-.84,1.05-1.51,1.47h0Z"/><path class="cls-93" d="M325.79,147.04l.09-.58c2.47-.31,4.51-1.3,6.3-2.86-1.18,1.75-3.71,3.05-6.39,3.44M325.79,148.09l.09.58c2.47.31,4.51,1.3,6.3,2.85-1.18-1.75-3.71-3.05-6.39-3.43"/><path class="cls-82" d="M335.25,155.52c-.75-.31-1.57-.64-2.26-1.31-1.06-1.02-.37-2.71.99-4.34.43-.51.64-1.42.63-2.33,0-.91-.21-1.81-.63-2.31-1.36-1.64-2.05-3.32-.99-4.34.69-.67,1.51-1,2.26-1.31.07.4.07.91-.04,1.57-.13.86-.13,1.75.3,2.3.33.42.53.25,1.57.89.67.42,1.17.92,1.51,1.47.33.55.15,1.14.15,1.73s.18,1.18-.15,1.72c-.33.55-.84,1.05-1.51,1.47-1.03.65-1.24.47-1.57.9-.43.54-.43,1.44-.3,2.29.1.66.11,1.18.04,1.58h0Z"/><path class="cls-81" d="M321.43,142.46c2.81,0,5.1,2.28,5.1,5.1,0,2.82-2.28,5.1-5.1,5.11-2.82,0-5.1-2.29-5.1-5.11,0-2.82,2.29-5.1,5.1-5.1Z"/><path class="cls-83" d="M321.41,143.81c2.07,0,3.75,1.68,3.75,3.75s-1.68,3.75-3.75,3.75-3.75-1.68-3.75-3.75,1.68-3.75,3.75-3.75Z"/><path class="cls-50" d="M321.43,145.2c1.3,0,2.36,1.05,2.36,2.36-.04,1.3-1.13,2.33-2.44,2.29-1.25-.04-2.25-1.04-2.29-2.29,0-1.3,1.05-2.36,2.36-2.36h0Z"/><path class="cls-93" d="M241.51,152.02l.45-.19c-1.01-1.41-1.23-2.75-.85-4.1-.87,1.07-.66,2.75.4,4.29"/><path class="cls-85" d="M274.31,134.78c.88,1.1.77,1.37,1.25,1.68.62.41,1.46.27,2.25-.03,3.2-1.22,3.21,1.31,2.27,4.21-.45,1.4-1.82,2.93-2.43,4.12-.6,1.17-.47,2.05-.74,2.34-.87.14-1.74.27-2.61.39h0c-.86.12-1.72.23-2.58.32-.37-.21-.66-1.04-1.72-1.96-1.07-.91-2.91-1.91-3.9-3.03-2.01-2.28-3.08-4.46.08-4.38.79.02,1.58-.12,1.92-.68.28-.44.07-.64.34-1.92.18-.84.49-1.51.89-1.99.4-.49,1-.38,1.54-.48.55-.1,1.05-.42,1.66-.12.6.3,1.22.81,1.79,1.53h0Z"/><path class="cls-93" d="M273.86,147.56c-.17,0-.35-.01-.52-.02-.9-2.51-2.31-4.54-4.16-6.24,1.86,1.03,3.67,3.55,4.68,6.27M274.77,147.43l.49-.15c-.33-2.61.05-4.93,1.01-7.13-1.29,1.56-1.82,4.46-1.5,7.28"/><path class="cls-85" d="M279.3,136.12c-.12.93-.24,1.93-.71,2.83-.7,1.34-2.43.83-4.28-.46-.58-.4-1.47-.5-2.29-.35-.82.14-1.57.52-1.9,1.06-1.05,1.73-2.32,2.7-3.5,1.71-.79-.66-1.32-1.5-1.81-2.28.32-.13.77-.2,1.38-.19.79.02,1.58-.12,1.92-.68.28-.44.07-.63.34-1.92.18-.84.49-1.51.89-1.99.4-.49,1-.38,1.54-.48.55-.1,1.05-.43,1.65-.13.6.31,1.22.81,1.79,1.54.88,1.1.77,1.37,1.25,1.69.62.4,1.46.26,2.25-.03.6-.23,1.1-.33,1.49-.31Z"/><path class="cls-20" d="M261.8,148.7c.51-.61.72-.48.81-.87.12-.5-.18-1.29-.56-2.03-1.54-2.99.1-2.74,2.32-1.56.56.3,1.22.83,1.87,1.38.65.55,1.3,1.13,1.84,1.52,1.1.79,1.78.81,2.1,1.13.49,1.21.89,2.27,1.06,2.74h0c.19.48.59,1.53,1.02,2.74-.07.34-.7.43-1.17,1.3-.47.85-.83,2.39-1.4,3.13-.83,1.09-1.6,1.74-2.19,1.64-.6-.11-1.01-.97-1.18-2.87-.06-.74-.48-1.53-.97-1.99-.39-.36-.47-.21-1.42-.73-.58-.32-1.1-.74-1.55-1.23-.41-.45-.47-.96-.67-1.47-.19-.51-.51-1-.46-1.48.05-.49.23-.95.56-1.34Z"/><path class="cls-93" d="M271.52,151.94c.05.21.1.42.15.62-.95.22-1.74.61-2.4,1.15-.66.54-1.19,1.22-1.6,2.05.14-.92.6-1.73,1.27-2.39.67-.65,1.56-1.15,2.58-1.43M271.14,150.84c-.09-.2-.19-.4-.29-.61-1.07-.09-2.11-.36-3.09-.79-1-.43-1.97-1.02-2.93-1.75.76.85,1.76,1.57,2.84,2.11,1.1.55,2.31.91,3.46,1.04"/><path class="cls-27" d="M261.54,143.87c.65.24,1.09.54,1.84,1.16.58.47.89,1.15,1,1.93.11.78.02,1.67-.19,2.54-.14.54.03,1.47.35,2.39.32.91.8,1.81,1.29,2.29,1.61,1.6,2.74,3.3,2.29,4.35-.29.69-.52.87-.98,1.18-.19-.39-.65-.74-.81-1.4-.2-.86-.52-1.75-1.03-2.29-.4-.41-.48-.88-1.46-1.49-.64-.39-1.18-.22-1.6-.75-.84-1.02-1.93-3.52-.87-4.66,1.06-1.12,1.44-1.76.54-3.7-.3-.66-.29-1.14-.38-1.54h0Z"/><path class="cls-8" d="M289.71,152c-.84.72-1.06.58-1.29,1.01-.3.56-.16,1.39.1,2.18,1.01,3.11-.9,2.84-3.19,1.65-1.14-.59-2.48-2.11-3.51-2.86-1.04-.76-1.78-.75-2.06-1.07-.29-1.23-.52-2.31-.62-2.8h0c-.11-.5-.34-1.59-.59-2.89.14-.39.86-.56,1.57-1.61.71-1.06,1.43-3.03,2.35-4,1.9-1.97,3.8-2.82,3.91.97.02.92.19,1.85.68,2.35.39.39.55.19,1.63.72.65.31,1.22.75,1.67,1.31.4.52.32,1.13.41,1.72.09.59.35,1.15.12,1.73-.26.62-.66,1.16-1.18,1.59h0Z"/><path class="cls-93" d="M279.04,149.63c-.01-.19-.03-.38-.05-.57,2.12-.58,3.76-1.79,5.1-3.56-.75,1.89-2.78,3.45-5.05,4.12M279.25,150.62c.07.18.12.36.19.54,2.21.04,4.2.77,6.06,2.06-1.36-1.53-3.84-2.51-6.25-2.6"/><path class="cls-22" d="M288.8,156.63c-.71-.22-1.5-.45-2.22-1-1.1-.85-.78-2.48.16-4.16.3-.54.34-1.44.18-2.33-.16-.89-.51-1.77-.98-2.22-1.55-1.48-2.49-3.11-1.71-4.31.53-.81,1.24-1.26,1.9-1.71.14.41.23.96.25,1.67.03.92.19,1.85.68,2.35.39.4.55.19,1.63.72.7.34,1.27.79,1.67,1.31.4.52.32,1.13.41,1.72.09.59.35,1.16.12,1.73-.26.62-.66,1.16-1.18,1.59-.84.72-1.06.58-1.29,1.01-.3.56-.15,1.4.1,2.19.2.6.28,1.07.27,1.44h0Z"/><path class="cls-85" d="M274.19,145.61c2.66-.12,5.22,2.18,5.6,5,.38,2.82-1.48,5.01-4.03,5.04-2.55.02-4.91-2.04-5.4-4.76-.48-2.72,1.17-5.15,3.83-5.28Z"/><path class="cls-85" d="M274.42,146.99c1.94-.08,3.8,1.59,4.09,3.65.29,2.07-1.05,3.7-2.94,3.73-1.87.03-3.64-1.53-3.98-3.52-.35-2.03.89-3.78,2.84-3.86Z"/><path class="cls-52" d="M274.64,148.4c1.21-.05,2.38.99,2.57,2.28.19,1.29-.65,2.33-1.84,2.36-1.19.03-2.31-.95-2.52-2.23-.21-1.27.58-2.37,1.79-2.41Z"/><path class="cls-64" d="M372.31,128.4c-2.32,0-4.2,1.88-4.2,4.2h0c.04,2.32,1.95,4.17,4.27,4.13,2.26-.04,4.09-1.87,4.13-4.13,0-2.32-1.88-4.2-4.2-4.2h0Z"/><path class="cls-61" d="M408.08,137.19c-2.15,0-3.9,1.75-3.9,3.9-.05,2.15,1.65,3.94,3.8,3.99,2.15.05,3.94-1.65,3.99-3.8,0-.06,0-.13,0-.19,0-2.15-1.75-3.9-3.9-3.9h0Z"/><path class="cls-61" d="M411.81,130.06c-2.15-.04-3.93,1.68-3.97,3.83s1.68,3.93,3.83,3.97c.05,0,.09,0,.14,0,2.15-.04,3.87-1.81,3.83-3.97-.04-2.1-1.73-3.8-3.83-3.83ZM415.32,122.86c-2.15,0-3.9,1.75-3.9,3.9s1.75,3.9,3.9,3.9h0c2.15,0,3.9-1.75,3.9-3.9s-1.75-3.9-3.9-3.9Z"/><path class="cls-69" d="M346.41,136.24c-2.26-.15-1.7,3.86-1.25,4.76.58,1.17,1.12,1.2,1.85.12.56-.83,1.65-4.73-.6-4.88h0Z"/><path class="cls-60" d="M346.25,138.41c-5.3-.35-3.98,9.07-2.94,11.17,1.37,2.74,2.63,2.83,4.36.29,1.32-1.94,3.88-11.1-1.41-11.46h0Z"/><path class="cls-34" d="M388.96,141.91c-2.15-.69-2.57,3.34-2.35,4.32.28,1.27.8,1.43,1.77.56.74-.67,2.73-4.19.58-4.88h0Z"/><path class="cls-23" d="M388.3,143.98c-5.06-1.61-6.03,7.85-5.52,10.14.67,2.99,1.88,3.38,4.16,1.32,1.74-1.57,6.42-9.86,1.36-11.46h0Z"/><path class="cls-27" d="M333.25,94.09c11.37-1.03,22.99.13,34.5,4.7,9.7,3.85,8.75,15.09-3.08,30.7,1.07,1.98,1.68,4.43,1.77,7.27-1.25-.07-2.12-.04-3.23-.07.86-1.89-.1-4.2-1.19-5.83-.71-1.07-.85-.88,0-2.07,7.04-9.81,11.7-18.41,8.96-23.61-3.33-6.31-16.26-9.6-38.08-9.11.04-.58.08-1.16.12-1.74.07-.08.14-.16.21-.24Z"/><path class="cls-67" d="M388.4,97.29c-2.24,0-4.05,1.81-4.05,4.05s1.81,4.05,4.05,4.05h0c2.24,0,4.05-1.81,4.05-4.05s-1.81-4.05-4.05-4.05Z"/><path class="cls-67" d="M380.47,94.7c-2.24,0-4.05,1.81-4.05,4.05s1.81,4.05,4.05,4.05,4.05-1.81,4.05-4.05-1.81-4.05-4.05-4.05Z"/><path class="cls-85" d="M379.41,98.15c-.4.54-.8,1.07-1.21,1.61,6.4,3.51,9.05,7.21,8.43,10.93-.11.64-2.06,7.45-6.4,20.66-2.97,2.05-5.18,3.89-6.65,5.51.17.18-.47.76-.28.92-.44,2.02,1.83,1.61,3.36,1.11.74-1.94,2.98-3.99,4.27-4.87.27-.18,1.21-.64,1.31-.94,2.33-7.43,4.66-14.3,6.67-20.7,2.01-6.43-2.35-10.98-9.49-14.21Z"/><path class="cls-28" d="M404.66,145.88l.25,1.3c1.86.43,3.45.54,4.78.32-2.22-2.16-3.86-2.62-5.03-1.62Z"/><path class="cls-76" d="M404.86,142.92c-1.17.26-1.28.46-1.78.54-.66.11-1.56.07-2.18-.48-2.53-1.52-2.59,1.22-1.6,3.26.72,1.48.35,3.16-.34,4.43-.8,1.5-.63,2.18-.06,2.59.4.26.77.5,1.11.72.68.8,1.2.67,1.3-.39,2.52-1.04,3.36-3.46,4.12-5.6,1.11-3.12,5.12-3.86-.56-5.08h0Z"/><path class="cls-72" d="M403.87,143.02c-2.2.78-2.45-.44-3.93-.38.58,3.37,1.18,5.11,4.69,3.31,1.93-1,4.42.46,4.89,1.54.17.4,1.3-.43,1.72-1.33,1.73-3.77-4.41-4.19-7.37-3.14Z"/><path class="cls-55" d="M336.79,85.39c-2.23,0-4.03,1.8-4.03,4.03s1.8,4.03,4.03,4.03,4.03-1.8,4.03-4.03-1.8-4.03-4.03-4.03Z"/><path class="cls-55" d="M345.05,85.39c-2.23,0-4.03,1.8-4.03,4.03s1.8,4.03,4.03,4.03h0c2.23,0,4.03-1.8,4.03-4.03s-1.8-4.03-4.03-4.03Z"/><path class="cls-55" d="M353.31,86.05c-2.22,0-4.03,1.8-4.03,4.02h0c.07,2.24,1.93,3.99,4.15,3.92,2.13-.06,3.85-1.78,3.91-3.91,0-2.23-1.8-4.03-4.03-4.03h0Z"/><path class="cls-55" d="M360.93,87.5c-2.23,0-4.03,1.81-4.03,4.04s1.81,4.04,4.03,4.04,4.03-1.81,4.03-4.04-1.81-4.04-4.03-4.04Z"/><path class="cls-67" d="M411.02,108.28c-2.24,0-4.05,1.81-4.05,4.05s1.81,4.05,4.05,4.05,4.05-1.81,4.05-4.05-1.81-4.05-4.05-4.05Z"/><path class="cls-67" d="M404.09,103.9c-2.24,0-4.05,1.81-4.05,4.05s1.81,4.05,4.05,4.05,4.05-1.81,4.05-4.05h0c0-2.24-1.81-4.05-4.05-4.05Z"/><path class="cls-67" d="M396.19,100.2c-2.24,0-4.05,1.81-4.05,4.05,0,2.24,1.81,4.05,4.05,4.05s4.05-1.81,4.05-4.05h0c0-2.24-1.81-4.05-4.05-4.05ZM416.4,114.86c-2.24,0-4.05,1.81-4.05,4.05,0,2.24,1.81,4.05,4.05,4.05s4.05-1.81,4.05-4.05c0-2.24-1.81-4.05-4.05-4.05h0Z"/><path class="cls-77" d="M394.77,159.31c-1.59-.48-4.09,3.04-4.68,2.98-.79-2.02.81-6.83,3.65-10.65,1.92-.63,2.1-1.87,2.49-4.73.12-.86,1.77-.27,1.8,1.2.03,1.56.15,2.43-.2,3.77-.14.53-.07,1.03.53,1.51-3,1.19-3.74,2.64-3.59,5.93Z"/><path class="cls-21" d="M396.2,146.95c.28.67.36,1.2.43,2.21.05.76-.23,1.48-.72,2.11-.49.64-1.19,1.2-1.99,1.65-.49.28-1.05,1.07-1.49,1.95-.44.88-.77,1.88-.79,2.59-.06,2.34-.52,4.39-1.59,4.79-.7.27-.98.22-1.53.1.15-.42.09-1.01.47-1.6.49-.76.92-1.63.95-2.39.03-.6.31-.99.08-2.15-.15-.76-.65-1.04-.56-1.74.17-1.35,1.24-3.94,2.8-3.94,1.54,0,2.27-.17,3.06-2.21.27-.69.63-1.03.86-1.38Z"/><path class="cls-49" d="M402.02,152.57c-.42-.33-.93-.56-1.41-.74-.8-.32-1.69-.36-2.51-.12-3.7,1.11-5.32,7.64-1.27,9.21.8.1,1.54-.62,2.25-2.2.85-2.08,1.74-3.53,2.71-4.41.59-.74.61-1.37.22-1.74Z"/><path class="cls-47" d="M400.15,153c-3.56-1.38-6.18,5.38-2.85,6.67,1.79.69,1.95-1.52,2.3-2.75.47-1.66,3.97-2.59.55-3.91Z"/><path class="cls-74" d="M399.78,154c-1.73-.67-4.11,3.36-1.94,4.28,1.46.62,2.63-.2,3.09-1.41.47-1.22.07-2.4-1.15-2.87Z"/><path class="cls-64" d="M375.55,121.52c-2.32-.05-4.24,1.78-4.3,4.1-.05,2.32,1.78,4.24,4.1,4.3.07,0,.13,0,.2,0,2.32-.06,4.15-1.98,4.1-4.3-.05-2.24-1.86-4.05-4.1-4.1Z"/><path class="cls-64" d="M378.62,114.54c-2.32,0-4.2,1.88-4.19,4.2,0,2.32,1.88,4.2,4.19,4.2h0c2.32.06,4.25-1.78,4.3-4.1s-1.78-4.25-4.1-4.3c-.07,0-.13,0-.2,0Z"/><path class="cls-67" d="M368.56,89.96c-2.24,0-4.05,1.81-4.05,4.05s1.81,4.05,4.05,4.05h0c2.24,0,4.05-1.81,4.05-4.05s-1.81-4.05-4.05-4.05Z"/><path class="cls-64" d="M375.37,93.05c-2.32,0-4.2,1.88-4.2,4.2s1.88,4.2,4.2,4.2c2.32-.04,4.17-1.95,4.13-4.27-.04-2.26-1.86-4.09-4.13-4.13Z"/><path class="cls-64" d="M380.38,98.99c-2.32-.05-4.24,1.78-4.3,4.1-.05,2.32,1.78,4.24,4.1,4.3.07,0,.13,0,.2,0,2.32-.06,4.15-1.98,4.1-4.3-.05-2.24-1.86-4.05-4.1-4.1Z"/><path class="cls-64" d="M381.19,106.46c-2.32-.05-4.24,1.78-4.3,4.1-.05,2.32,1.78,4.24,4.1,4.3.07,0,.13,0,.2,0,2.32-.06,4.15-1.98,4.1-4.3-.05-2.24-1.86-4.05-4.1-4.1Z"/><path class="cls-93" d="M401.34,152.02l-.45-.19c1.02-1.41,1.24-2.75.85-4.1.86,1.07.65,2.75-.4,4.29"/><path class="cls-85" d="M368.51,134.78c-.87,1.1-.77,1.37-1.24,1.68-.62.41-1.46.27-2.25-.03-3.2-1.22-3.21,1.31-2.28,4.21.46,1.4,1.82,2.93,2.43,4.12.6,1.17.47,2.05.73,2.34,1.17.19,2.16.33,2.62.39h0c.86.12,1.72.23,2.58.32.38-.21.66-1.04,1.72-1.96,1.07-.91,2.91-1.91,3.9-3.03,2.01-2.28,3.08-4.46-.08-4.38-.79.02-1.57-.12-1.93-.68-.27-.44-.07-.64-.33-1.92-.18-.84-.49-1.51-.89-1.99-.4-.49-1-.38-1.54-.48-.55-.1-1.05-.42-1.66-.12-.6.3-1.22.81-1.79,1.53h0Z"/><path class="cls-93" d="M368.97,147.56c.18,0,.35-.01.52-.02.9-2.51,2.31-4.54,4.16-6.24-1.86,1.03-3.67,3.55-4.68,6.27M368.07,147.43l-.49-.15c.33-2.61-.05-4.93-1.01-7.13,1.29,1.56,1.82,4.46,1.5,7.28"/><path class="cls-85" d="M363.53,136.12c.12.93.24,1.93.71,2.83.7,1.34,2.43.83,4.27-.46.59-.4,1.47-.5,2.3-.35.82.14,1.57.52,1.9,1.06,1.06,1.73,2.32,2.7,3.5,1.71.79-.66,1.32-1.5,1.82-2.28-.32-.13-.77-.2-1.38-.19-.79.02-1.57-.12-1.92-.68-.27-.44-.07-.63-.34-1.92-.18-.84-.48-1.51-.88-1.99-.4-.49-1-.38-1.54-.48-.55-.1-1.05-.43-1.65-.13-.6.31-1.22.81-1.79,1.54-.87,1.1-.77,1.37-1.25,1.69-.62.4-1.46.26-2.24-.03-.6-.23-1.1-.33-1.49-.31h0Z"/><path class="cls-20" d="M381.03,148.7c-.51-.61-.71-.48-.8-.87-.12-.5.18-1.29.56-2.03,1.54-2.99-.1-2.74-2.32-1.56-.56.3-1.22.83-1.87,1.38-.65.55-1.3,1.13-1.84,1.52-1.1.79-1.78.81-2.1,1.13-.49,1.21-.89,2.27-1.06,2.74h0c-.19.48-.58,1.53-1.02,2.74.07.34.7.43,1.18,1.3.46.85.83,2.39,1.4,3.13.84,1.09,1.59,1.74,2.19,1.64.59-.11,1.01-.97,1.17-2.87.07-.74.49-1.53.98-1.99.38-.36.46-.21,1.41-.73.58-.32,1.1-.74,1.55-1.23.41-.45.47-.96.67-1.47.2-.51.52-1,.46-1.48-.05-.49-.23-.95-.56-1.34h0Z"/><path class="cls-93" d="M371.31,151.94c-.05.21-.1.42-.14.62.95.22,1.74.61,2.4,1.15.66.54,1.19,1.22,1.6,2.05-.14-.92-.6-1.73-1.27-2.39-.67-.65-1.56-1.15-2.58-1.43M371.7,150.84c.09-.2.19-.4.28-.61,1.07-.09,2.11-.36,3.09-.79,1-.43,1.97-1.02,2.93-1.75-.76.85-1.76,1.57-2.85,2.11-1.08.54-2.25.9-3.46,1.04"/><path class="cls-27" d="M381.3,143.87c-.65.24-1.09.54-1.84,1.16-.58.47-.89,1.15-1,1.93-.11.78-.03,1.67.19,2.54.14.54-.03,1.47-.35,2.39-.33.91-.8,1.81-1.29,2.29-1.61,1.6-2.74,3.3-2.3,4.35.3.69.52.87.98,1.18.19-.39.65-.74.81-1.4.2-.86.52-1.75,1.03-2.29.4-.41.48-.88,1.47-1.49.63-.39,1.17-.22,1.6-.75.84-1.02,1.93-3.52.87-4.66-1.06-1.12-1.44-1.76-.54-3.7.3-.66.29-1.14.38-1.54h0Z"/><path class="cls-8" d="M353.13,152.01c.84.72,1.06.58,1.29,1.01.3.55.16,1.39-.1,2.18-1.01,3.11.9,2.84,3.19,1.65,1.14-.59,2.48-2.11,3.51-2.87,1.04-.76,1.77-.75,2.06-1.07.29-1.23.52-2.31.62-2.8.11-.49.34-1.59.59-2.89-.14-.39-.86-.57-1.56-1.61-.72-1.06-1.43-3.04-2.36-4-1.9-1.98-3.8-2.82-3.91.97-.02.92-.19,1.85-.68,2.35-.39.39-.55.19-1.63.72-.71.34-1.27.79-1.67,1.31-.4.52-.32,1.13-.41,1.73-.09.59-.35,1.15-.12,1.73.26.61.67,1.16,1.18,1.59h0Z"/><path class="cls-93" d="M363.79,149.63c.01-.19.03-.38.04-.57-2.12-.58-3.75-1.79-5.09-3.56.75,1.89,2.78,3.45,5.05,4.12M363.58,150.62c-.07.18-.12.36-.19.54-2.22.04-4.2.77-6.06,2.06,1.36-1.53,3.84-2.51,6.25-2.6"/><path class="cls-22" d="M354.05,156.63c.72-.22,1.5-.45,2.22-1,1.1-.85.78-2.48-.16-4.16-.3-.54-.34-1.44-.18-2.33.16-.89.51-1.77.99-2.22,1.55-1.48,2.49-3.11,1.71-4.31-.52-.8-1.24-1.26-1.9-1.7-.14.41-.23.96-.25,1.67-.03.92-.19,1.85-.68,2.35-.39.4-.55.19-1.63.72-.7.34-1.27.79-1.67,1.31-.4.52-.32,1.13-.41,1.72-.09.59-.35,1.16-.12,1.73.26.62.66,1.16,1.18,1.59.85.72,1.06.58,1.29,1.01.3.56.16,1.4-.1,2.19-.2.6-.28,1.07-.28,1.44h0Z"/><path class="cls-85" d="M368.64,145.61c-2.66-.12-5.23,2.18-5.6,5-.38,2.82,1.48,5.01,4.02,5.04,2.55.02,4.91-2.04,5.4-4.76.48-2.72-1.17-5.15-3.83-5.28Z"/><path class="cls-85" d="M368.43,146.99c-1.94-.08-3.8,1.59-4.09,3.65-.28,2.07,1.05,3.7,2.94,3.73,1.87.03,3.64-1.53,3.98-3.52.35-2.03-.89-3.78-2.84-3.86Z"/><path class="cls-52" d="M368.2,148.4c-1.21-.05-2.37.99-2.56,2.28-.19,1.29.65,2.33,1.84,2.36,1.19.03,2.31-.95,2.52-2.23.21-1.27-.58-2.37-1.8-2.41Z"/><path class="cls-85" d="M383.95,196.1c1.32.2,2.02,1.03,1.97,1.87.05.85-.65,1.68-1.98,1.87-.33.09-.67.15-1.01.18-40.1,3.43-82.93,3.43-123.03,0-.34-.03-.68-.09-1.01-.18-1.32-.2-2.02-1.02-1.97-1.87-.05-.85.65-1.67,1.97-1.87.3-.08.64-.14,1.01-.17,40.1-3.43,82.93-3.43,123.03,0,.34.03.68.09,1.01.17Z"/><path class="cls-38" d="M275.26,198.75c5.12-.32,10.25-.59,15.37-.79,5.13-.21,10.26-.37,15.39-.47,10.26-.21,20.53-.2,30.79.02,5.13.11,10.26.27,15.39.48,5.13.21,10.26.47,15.38.79"/><path class="cls-38" d="M275.26,198.88c5.12.32,10.25.59,15.37.79M352.19,199.63c5.13-.21,10.26-.48,15.38-.79"/><path class="cls-95" d="M208.92,200.61v181.83c0,32.54,12.63,62.08,33.01,83.49,20.38,21.41,48.5,34.68,79.48,34.68h0c30.98,0,59.1-13.27,79.48-34.68,20.38-21.41,33.01-50.95,33.01-83.5v-181.83h-224.99Z"/><path class="cls-62" d="M322.44,491.22c.97-.16,2.63.04,3.87-.93,1.66-1.3,1-6.56.86-9.88-.77-16.99-1.46-45.6-2.33-85.77-1.41-.19-2.45-.09-3.42.06-.97-.15-2-.25-3.42-.06-.87,40.17-1.56,68.78-2.32,85.77-.15,3.32-.8,8.58.85,9.88,1.25.98,2.9.77,3.87.93h2.05Z"/><path class="cls-67" d="M333.1,490.74c-.99-.07-2.61.29-3.94-.58-1.77-1.14-1.92-6.52-2.06-9.85-.78-16.99-2.36-45.46-5.13-85.54,1.39-.32,2.43-.32,3.41-.26.15-.04.31-.07.46-.11,6.4,39.66,8.81,67.79,13.19,84.75.6,2.34,1.91,8.22-.12,10.12-1.15,1.08-2.81,1.03-3.78,1.28l-2.03.18Z"/><path class="cls-67" d="M345.62,488.95c-.99.02-2.58.52-3.98-.22-1.86-.98-1.79-6.35-2.62-9.57-4.38-16.97-6.79-45.11-13.19-84.77,1.36-.45,2.39-.53,3.37-.57l.14-.05c10.17,38.56,13.22,65.74,21.11,82.53.73,2.33,2.72,8.5.82,10.66-1.05,1.19-2.71,1.28-3.64,1.62l-2.01.37Z"/><path class="cls-39" d="M358.23,485.39c-.98.12-2.65,1.04-4.11.44-1.95-.79-2.26-6.53-3.66-9.53-7.93-16.87-10.97-44.22-21.25-83.06,1.31-.58,2.33-.77,3.3-.89.89-.41.72-.62,2.14-.83,11.94,38.36,15.83,65.05,27.1,81.6,1.82,2.67,3.15,8.03,1.91,9.74-.92,1.28-2.57,1.54-3.46,1.97l-1.96.56Z"/><path class="cls-67" d="M309.74,490.74c.99-.07,2.61.29,3.94-.58,1.77-1.14,1.92-6.52,2.07-9.85.78-16.99,2.36-45.46,5.13-85.54-1.39-.32-2.43-.32-3.41-.26-.15-.04-.31-.07-.46-.11-6.4,39.66-8.81,67.79-13.19,84.75-.61,2.34-1.91,8.22.12,10.12,1.15,1.08,2.81,1.03,3.77,1.28l2.04.18Z"/><path class="cls-67" d="M297.21,488.95c.99.02,2.58.52,3.98-.22,1.87-.98,1.79-6.35,2.63-9.57,4.38-16.97,6.79-45.11,13.19-84.77-1.36-.45-2.39-.53-3.37-.57l-.14-.05c-10.17,38.56-13.22,65.74-21.11,82.53-.73,2.33-2.72,8.5-.82,10.66,1.05,1.19,2.71,1.28,3.64,1.62l2.01.37Z"/><path class="cls-39" d="M284.59,485.39c.98.12,2.65,1.03,4.11.44,1.95-.8,2.26-6.53,3.66-9.53,7.93-16.87,10.97-44.22,21.26-83.06-1.31-.58-2.33-.77-3.3-.89-.89-.41-.73-.62-2.14-.83-11.95,38.36-15.83,65.05-27.1,81.6-1.82,2.67-3.15,8.03-1.92,9.74.92,1.28,2.57,1.54,3.46,1.97l1.96.57Z"/><path class="cls-10" d="M351.57,456.41c-.9.06-2.25.6-3.67-.07-1.88-.89-3.1-6.08-4.11-9.3-8-15.77-15.3-43.79-27.28-82.73,1.16-.48,2.09-.61,2.98-.67.93-.43,1.92-.7,2.94-.78,12.9,38.53,18.69,66.4,31.3,81.74,2.08,2.53,3.63,8.06,2.64,9.66-.74,1.2-2.24,1.36-3.03,1.72l-1.77.44Z"/><path class="cls-35" d="M341.36,458.41c-.91-.02-2.32.42-3.65-.36-1.77-1.04-2.4-6.29-3.02-9.58-3.22-16.79-9.17-44.97-17.62-84.53,1.21-.39,2.14-.44,3.04-.44.83-.28,1.72-.53,3.02-.54,9.98,39.31,12.29,68.75,21.73,83.86,1.72,2.75,2.68,8.31,1.52,9.82-.88,1.14-2.39,1.18-3.22,1.47l-1.8.29Z"/><path class="cls-87" d="M330.97,459.58c-.9-.09-2.35.24-3.58-.65-1.64-1.18-1.65-6.46-1.9-9.78-1.27-16.97-3.95-45.49-7.8-85.54,1.25-.29,2.19-.27,3.07-.19.86-.22,1.77-.39,3.06-.3,5.41,39.92,8.55,68.83,11.97,85.21.68,3.26,1.71,8.49.38,9.9-1,1.06-2.51.98-3.37,1.21l-1.83.14Z"/><path class="cls-10" d="M291.27,456.41c.9.06,2.25.6,3.67-.07,1.88-.89,3.11-6.07,4.11-9.29,8-15.78,15.3-43.79,27.28-82.74-1.16-.49-2.09-.61-2.98-.68-.79-.34-1.64-.66-2.93-.78-12.9,38.53-18.7,66.4-31.3,81.74-2.08,2.53-3.63,8.06-2.64,9.66.75,1.2,2.24,1.36,3.03,1.72l1.76.43Z"/><path class="cls-35" d="M301.47,458.41c.9-.01,2.32.42,3.64-.36,1.77-1.04,2.4-6.3,3.02-9.58,3.22-16.79,9.17-44.97,17.62-84.53-1.21-.4-2.14-.44-3.04-.44-.82-.28-1.71-.53-3.01-.54-9.98,39.31-12.29,68.75-21.74,83.86-1.72,2.75-2.69,8.31-1.52,9.82.88,1.14,2.39,1.17,3.22,1.47l1.8.29Z"/><path class="cls-87" d="M311.87,459.58c.89-.09,2.35.24,3.58-.65,1.64-1.18,1.65-6.46,1.9-9.78,1.27-16.97,3.94-45.49,7.8-85.54-1.25-.3-2.19-.27-3.08-.2-.86-.22-1.77-.39-3.06-.3-5.41,39.92-8.55,68.83-11.97,85.21-.68,3.26-1.71,8.49-.38,9.9,1.01,1.06,2.51.98,3.37,1.21l1.84.14Z"/><path class="cls-63" d="M322.34,459.94c.88-.16,2.37.05,3.49-.93,1.5-1.3.9-6.56.77-9.89-.69-16.99-1.32-45.59-2.1-85.77-1.28-.19-2.21-.09-3.09.06-.87-.15-1.81-.25-3.09-.06-.78,40.18-1.41,68.78-2.1,85.77-.13,3.33-.73,8.59.77,9.89,1.13.98,2.61.77,3.49.93h1.84Z"/><path class="cls-36" d="M344.51,433.05c-.69.05-1.72.6-2.81-.07-1.44-.89-2.38-6.07-3.15-9.29-6.12-15.78-11.72-43.79-20.89-82.74.89-.48,1.59-.61,2.28-.67.6-.35,1.26-.67,2.25-.78,9.88,38.54,14.32,66.4,23.98,81.74,1.59,2.53,2.78,8.06,2.02,9.66-.57,1.2-1.72,1.36-2.33,1.72l-1.35.44Z"/><path class="cls-33" d="M336.69,435.06c-.69-.02-1.77.42-2.79-.36-1.35-1.04-1.83-6.3-2.32-9.58-2.47-16.79-7.02-44.97-13.5-84.53.93-.39,1.65-.45,2.33-.44.63-.28,1.32-.52,2.31-.54,7.65,39.31,9.42,68.75,16.65,83.86,1.31,2.75,2.05,8.31,1.16,9.83-.67,1.14-1.83,1.17-2.46,1.47l-1.39.29Z"/><path class="cls-89" d="M328.74,436.23c-.69-.09-1.8.23-2.74-.65-1.26-1.18-1.27-6.46-1.46-9.78-.98-16.97-3.02-45.49-5.97-85.54.95-.3,1.67-.27,2.35-.2.66-.21,1.35-.39,2.35-.3,4.14,39.93,6.55,68.83,9.17,85.21.52,3.26,1.31,8.49.28,9.9-.77,1.06-1.92.98-2.58,1.21l-1.4.14Z"/><path class="cls-36" d="M298.33,433.04c.69.06,1.73.6,2.81-.07,1.44-.9,2.38-6.08,3.15-9.3,6.13-15.78,11.72-43.79,20.89-82.73-.89-.49-1.6-.61-2.28-.67-.6-.35-1.27-.67-2.25-.78-9.88,38.54-14.32,66.4-23.97,81.74-1.59,2.53-2.78,8.06-2.02,9.66.57,1.21,1.72,1.36,2.32,1.72l1.35.44Z"/><path class="cls-33" d="M306.14,435.04c.69-.01,1.78.42,2.79-.36,1.35-1.04,1.83-6.3,2.31-9.58,2.47-16.79,7.03-44.97,13.5-84.53-.93-.4-1.65-.44-2.33-.44-.63-.28-1.32-.53-2.31-.54-7.64,39.31-9.42,68.75-16.65,83.86-1.31,2.75-2.05,8.31-1.16,9.82.68,1.14,1.83,1.17,2.46,1.47l1.39.29Z"/><path class="cls-89" d="M314.1,436.23c.68-.09,1.8.23,2.74-.65,1.26-1.18,1.27-6.46,1.46-9.78.97-16.98,3.02-45.5,5.97-85.55-.96-.29-1.67-.27-2.35-.19-.66-.22-1.36-.39-2.35-.3-4.14,39.92-6.55,68.83-9.17,85.21-.52,3.26-1.31,8.49-.28,9.9.77,1.06,1.92.98,2.58,1.21l1.4.15Z"/><path class="cls-56" d="M322.13,436.57c.67-.16,1.81.04,2.68-.93,1.14-1.3.69-6.56.59-9.89-.53-16.99-1.01-45.59-1.61-85.77-.98-.2-1.69-.1-2.36.05-.67-.15-1.38-.25-2.36-.05-.6,40.17-1.08,68.77-1.6,85.77-.11,3.33-.56,8.59.59,9.89.86.98,2,.77,2.68.93h1.41Z"/><path class="cls-31" d="M274.41,390.52c-2.15.09-4.78,1.32-12.49,8-3.37,6.86-6.76,13.77-11.43,19.72-1.6,1.05-2.85,1.79-4.11,2.2-1.32.44-11.03.12-11.27-.29-3.02-2.74-7.64-.79-6.1,2.11-1.2,1.13,1.44,5.29,3.56,3.57,1.94-1.59,8.72-.09,10.97-.91-.86,2.03-6.97,3.35-11.25,3.66-3.9.17-3.64,4.06-2.04,7.05,1.83,1.17.33-.31,1,.54,1.75,2.59,5.49,2.25,5.62-.28.13-2.62,9.26-6.04,10.62-8.05-1.67,3.98-5.53,7.7-7.45,11.6-2.06,2.06-3.3,2.48-.65,6.65,2.95-.33,3.13-1.12,4.94.6,4.04-.44,4.69-1.64,4.04-4.83-.69-3.38,2.13-9.48,3.07-11.2.86-1.59,1.08-3.24,1.92-4.24,1.47-1.74,8.44-5.2,10.22-4.25,3.29,1.75,5.8.69,6.21-2.49-1.06-.82-.26-5.34-2.54-5.53-1.86-.15-2.96.42-4.67,1.81-2.69,2.2-4.07,3.37-4.96,3.12-2.1-.58,3.8-3.47,9.17-10.51,7.44-9.75,7.95-14.71,7.6-18.04h0Z"/><path class="cls-44" d="M229.47,424.04c-2.7-1.58-4.24-1.52-5.29-.34-.58.65-1.31.31-.88-.7,1.79-4.23,4.64-4.76,7.21-2.78.72.67,1.29,1.24,1.87,1.81-.43.64-2.57,1.53-2.92,2.01h0Z"/><path class="cls-73" d="M268.03,420.26c2.86-1.94,5.54-2.32,7.01-1.23.8.6,1.6.17.89-.83-2.97-4.17-6.44-4.38-9.06-2.03-.71.77-1.28,1.43-1.85,2.09.9.98,2.88,2.09,3,2h0Z"/><path class="cls-45" d="M245.52,444.15c-1.75,3.47-2.68,5.84-1.92,7.7.44,1.09-.06,2.09-1.16,1.14-4.47-3.83-4.48-8.23-1.62-11.21.95-1,1.97-1.64,2.88-2.36,1.16,1.09,1.91,4.56,1.82,4.73h0Z"/><path class="cls-43" d="M234.36,435.03c-2.66,1.1-3.57,2.5-3.48,4.33.06,1.01-.61,1.39-.98.21-3.25-7.54.12-8.95,4.99-8.67.27,1.31-.41,4.08-.53,4.13Z"/><path class="cls-3" d="M257.23,418.25c-1.75-1.02-1.85-2.15-1.39-2.91.97-1.61,1.95-.83,3.78.65"/><path class="cls-3" d="M259.5,415.79c-1.75-1.02-1.85-2.15-1.39-2.91.97-1.6,1.95-.83,3.78.65"/><path class="cls-40" d="M262.04,413.45c-1.93-1.32-2.05-2.79-1.54-3.78,1.07-2.09,2.15-1.08,4.17.85"/><path class="cls-57" d="M264.78,410.51c-2.05-1.5-2.17-3.15-1.63-4.27,1.13-2.36,2.28-1.22,4.43.96"/><path class="cls-42" d="M267.66,407.4c-1.91-1.59-2.5-3.16-1.63-4.54,1.36-2.16,2.28-1.3,4.43,1.02"/><path class="cls-29" d="M293.51,237.9c-1.37,1.19-5.88,1.21-12.05,1.6-9.95.35-15.71-2.65-16.99-9.01,3.74,4.44,8.19,6.64,13.25,5.39,6.82-1.69,10.73-2.9,12.28-2.6,1.05.37,2.58,2.27,3.51,4.62h0Z"/><path class="cls-67" d="M316.54,373.5c-.06,3.11-.09,6.22-.11,9.33h-.03s-7.11,1.48-7.11,1.48c-.02,3.24,8,37.15,12.13,37.15s12.14-33.93,12.13-37.17l-7.11-1.45h-.03c-.02-3.29-.06-6.49-.11-9.34-1.49,1.24-3.14,3.4-4.88,5.35-1.74-1.95-3.38-4.11-4.88-5.35h0Z"/><path class="cls-13" d="M308.31,387.9l-6.37-3.6c-2.68,1.92-4.66,9.06-.08,14.89,5.71,7.27,8.02,12.54,9.41,18.42,4.16-5.31,5.59-10.9,2.95-16.36-3.56-7.36-5.88-11.5-5.91-13.34h0Z"/><path class="cls-13" d="M313.51,382.81l-6.37-3.6c-2.68,1.92-8.28,8.83-3.7,14.67,5.71,7.26,11.64,12.76,13.03,18.64,4.16-5.31,5.93-10.9,3.29-16.36-3.56-7.35-6.22-11.5-6.25-13.34h0Z"/><path class="cls-13" d="M334.53,387.89l6.37-3.6c2.68,1.92,4.66,9.06.08,14.89-5.7,7.27-8.02,12.53-9.41,18.42-4.16-5.31-5.58-10.91-2.94-16.36,3.56-7.36,5.87-11.5,5.91-13.35h0Z"/><path class="cls-13" d="M329.32,382.8l6.37-3.6c2.68,1.92,8.28,8.83,3.7,14.66-5.71,7.27-11.64,12.76-13.04,18.64-4.15-5.31-5.92-10.9-3.28-16.36,3.56-7.35,6.22-11.5,6.24-13.35h0Z"/><path class="cls-13" d="M299.45,380.23l-6.37-3.6c-2.68,1.93-4.66,9.06-.08,14.89,5.71,7.27,8.02,12.54,9.42,18.42,4.15-5.31,5.58-10.91,2.94-16.36-3.56-7.36-5.88-11.5-5.91-13.35h0Z"/><path class="cls-13" d="M343.38,380.22l6.38-3.6c2.68,1.93,4.66,9.06.08,14.89-5.71,7.27-8.02,12.53-9.42,18.41-4.15-5.31-5.58-10.9-2.94-16.36,3.56-7.36,5.88-11.5,5.91-13.34h0Z"/><path class="cls-68" d="M269.95,313.09c.12,5.82-.91,44.61-1.24,50.09-.32,5.46-2.74,9.18-5.33,11.31-2.37-3.25-3.78-7.63-4.11-12.84-.18-2.65.32-39.36.52-46.9,4.35-11.5,7.58-11.93,10.16-1.65h0Z"/><path class="cls-68" d="M244.7,303.61l-1.65,53.33c-.52,4.73,5.65,32.89,9.02,38.44,8.35-3.57,10.11-22.67,8.54-41.28-1.57-18.62.27-34.69,1.54-38.03.11-4.21-.6-8.61-.64-12.99-5.32.32-11.5.2-16.82.53h0Z"/><path class="cls-68" d="M234.8,312.32l1.13,53.35c-.27,4.75,7.36,32.53,11.02,37.89,8.47-6.56,6.77-33.38,5.47-41.49-2.59-16.17-2.15-34.9-1.26-37.94-.11-4.21-.22-9.25-.49-13.63l-15.87,1.83Z"/><path class="cls-68" d="M227.46,324.96l14.04-.36c-1.2,5.82-.24,23.9,2.18,37.67,2.27,12.92,5.44,46.43-8.03,54.47-8.35-17.68-1.99-34.86-6.2-50.21-3.29-16.31-3.93-29.94-1.99-41.58h0ZM281.14,303.3c-.06,5.82-2.26,44.56-2.75,50.03-.49,5.45-3.03,9.08-5.67,11.13-2.27-3.32-3.55-7.75-3.73-12.96-.09-2.66,1.52-39.33,1.95-46.87,4.7-11.35,7.94-11.69,10.21-1.33h0ZM256.19,271.7c-.38,12.49-.59,39.61-.51,41.92.18,5.21,2.24,11.84,4.51,15.17,2.64-2.05,5.17-5.69,5.67-11.14.4-4.47.54-26.46.61-37.48-2.83-1.82-5.75-4.09-8.11-6.51,0,0-2.08-1.85-2.16-1.95h0Z"/><path class="cls-68" d="M266.22,279.75c-.25,13.47-.1,34.68-.04,36.4.18,5.21,1.45,9.64,3.72,12.97,2.64-2.05,5.44-5.82,5.93-11.27.3-3.35,1.24-17.72,1.32-28.76-3.56-1.13-8.05-6.95-10.93-9.34h0ZM257.59,270.57l-9.56-13.76c-1.93,6.79-4.29,55.47-1.52,59.46.18,5.21,2.06,9.63,4.33,12.95,2.65-2.05,6.6-5.74,5.45-11.25-1.14-5.51.14-41.72,1.3-47.41h0Z"/><path class="cls-68" d="M237.99,301.19c-.43,7.53-.74,12.63-.65,15.29.18,5.21,1.46,9.64,3.72,12.97,2.65-2.05,6.02-5.68,5.67-11.14-1.33-21.08.98-40.94,3.66-60.03-2.27-1.66-6.09-3.46-8.36-5.12-4.53,25.71-6.05,41.66-4.05,48.03h0Z"/><path class="cls-14" d="M228.43,314.99l2.59,9.81c.18,5.21,3.4,9.52,5.67,12.84,2.65-2.06,5.05-5.42,4.38-10.84-3.88-31.14-2.49-51.74,4.05-77.12-14.8,10.08-21.65,31.36-16.69,65.32h0Z"/><path class="cls-68" d="M229.19,324.63l-13.58-4.5c-1.73,13.55.93,30.57,4.59,53.02,3.14,19.27,1.49,34.53-.91,44.31,14.48-1.98,20.61-20.63,13.34-55.69-1.9-9.18-3.81-20.91-3.44-37.15Z"/><path class="cls-25" d="M228.78,390.22c.32-8.98-1.19-18.78-2.9-27.04-2.35-11.32-3.55-22.17-3.63-33.57"/><path class="cls-14" d="M228.65,244.9l8.91,1.5c-.44,1.91-2.7,13.61-3.11,15.61-3.33,16.27-5.53,35.44-3.01,56.46.93,7.8,2.59,14.18,5.02,19.11-9.77-1.11-16.04-10.64-15.23-27.25-1.7-19.41-.95-34.85,2.19-46.45.92-3.4,3.89-16.23,5.22-18.97h0Z"/><path class="cls-68" d="M223.25,247.01l4.38,4.98c-1.24.89.86,4.71-.27,12.13-.73,4.21-3.24,9.18-3.76,14.56-1.73,17.82-1.73,40.14,3.64,54.41-9.77-1.11-13.13-9.95-13.45-26.59-.26-13.76-.31-29.98,3.15-48.7.7-4.38,2.81-7.87,6.31-10.8h0Z"/><path class="cls-11" d="M247.66,260.14l-9.02-1.05c-1.66,8.51-2.92,14.53-3.23,17.56-.61,5.95,1.2,11.4,3.27,15.47,3.33-2,4.87-6.38,6.27-12.51,1.4-6.16,1.75-12.87,2.72-19.48h0Z"/><path class="cls-58" d="M271.07,279.31l-8.01.08c-.27,7.35-.47,12.32-.34,14.91.26,5.08,1.53,9.38,3.7,12.6,2.43-2.02,4.73-5.6,5.1-10.91.36-5.33-.4-11.01-.45-16.68h0Z"/><path class="cls-88" d="M279.69,283.1l-8,.37c-.01,7.35-.04,12.33.18,14.91.43,5.06,1.85,9.32,4.13,12.46,2.36-2.11,4.53-5.76,4.71-11.08.18-5.35-.78-10.99-1.03-16.66h0Z"/><path class="cls-65" d="M262.91,275.18l-7.98-.56c-.87,7.3-1.47,12.24-1.55,14.83-.15,5.08.76,9.47,2.66,12.86,2.59-1.82,5.17-5.19,5.96-10.46.8-5.29.5-11.01.91-16.66Z"/><path class="cls-59" d="M255.43,266.58l-8.76-3.63c-1.49,5.91-3.51,25.38.08,33.6,2.91-1.98,5.86-5.69,6.84-11.54.99-5.88,1.28-12.13,1.84-18.42h0Z"/><path class="cls-1" d="M243.85,256.92l-14,1.24c-3.22,8.02-5.33,15.13-6.36,21.57,6.49-1.15,11.2-4.33,12.88-10.14,2.28-7.84,6.29-11.28,7.48-12.67h0Z"/><path class="cls-54" d="M258.04,468.7c5.35,4.28,10.24-5.5,5.5-18.44-3.51-9.57-20.65-5.85-11.1,7.02.45.61,1.09.32,1-.37-.54-2.64,1.14-4.17,3.74-3.69,7.11,1.33,7.33,14.79-.4,11.73-1.41-.09-.15,2.62,1.26,3.75h0Z"/><path class="cls-54" d="M275.58,468.7c-5.35,4.28-10.24-5.5-5.5-18.44,3.51-9.57,20.65-5.85,11.1,7.02-.46.61-1.09.32-1-.37.54-2.64-1.14-4.17-3.74-3.69-7.1,1.33-7.32,14.79.4,11.73,1.41-.09.15,2.62-1.26,3.75h0Z"/><path class="cls-54" d="M266.3,427.14v.09c-.7,2.25-3.3,5.05-5.32,7.16-3.13,3.26-2.39,8.21-.22,10.83,2.36,2.86,3.42,6.09,3.89,8.6.36,1.54.99,5.01.53,10.39-.23,2.65-1.83,4.02-3.34,5.2-.76.6.32,2.05,2.85,3.94.28.2,1.04.73,1.4,2.04.14.32,1.31.32,1.45,0,.36-1.31,1.12-1.83,1.4-2.04,2.52-1.9,3.61-3.34,2.85-3.94-1.51-1.19-3.11-2.55-3.34-5.2-.46-5.38.18-8.85.52-10.39.48-2.51,1.54-5.74,3.9-8.6,2.17-2.63,2.91-7.57-.22-10.83-2.02-2.11-4.62-4.91-5.32-7.16v-.09c-.04-.44-.28-.66-.52-.66s-.48.22-.52.66h0Z"/><path class="cls-78" d="M262.95,458.18h7.73c1.33,0,2.42,1.07,2.42,2.37s-1.09,2.37-2.42,2.37h-7.73c-1.33,0-2.42-1.06-2.42-2.37s1.09-2.37,2.42-2.37h0Z"/><path class="cls-54" d="M367.25,468.7c5.34,4.28,10.23-5.5,5.5-18.44-3.51-9.57-20.66-5.85-11.11,7.02.46.61,1.09.32,1-.37-.54-2.64,1.14-4.17,3.74-3.69,7.11,1.33,7.33,14.79-.39,11.73-1.41-.09-.15,2.62,1.26,3.75h0Z"/><path class="cls-54" d="M384.79,468.7c-5.35,4.28-10.24-5.5-5.5-18.44,3.51-9.57,20.65-5.85,11.1,7.02-.45.61-1.09.32-1-.37.54-2.64-1.14-4.17-3.74-3.69-7.1,1.33-7.32,14.79.4,11.73,1.41-.09.15,2.62-1.26,3.75h0Z"/><path class="cls-54" d="M375.49,427.14v.09c-.7,2.25-3.3,5.05-5.32,7.16-3.13,3.26-2.39,8.21-.22,10.83,2.36,2.86,3.42,6.09,3.89,8.6.36,1.54.99,5.01.53,10.39-.23,2.65-1.83,4.02-3.34,5.2-.76.6.32,2.05,2.85,3.94.28.2,1.04.73,1.4,2.04.14.32,1.31.32,1.45,0,.36-1.31,1.12-1.83,1.4-2.04,2.52-1.9,3.61-3.34,2.85-3.94-1.5-1.19-3.11-2.55-3.34-5.2-.46-5.38.18-8.85.53-10.39.47-2.51,1.53-5.74,3.9-8.6,2.17-2.63,2.91-7.57-.22-10.83-2.02-2.11-4.62-4.91-5.32-7.16v-.09c-.04-.44-.28-.66-.52-.66s-.48.22-.52.66Z"/><path class="cls-78" d="M372.16,458.18h7.73c1.33,0,2.41,1.07,2.41,2.37s-1.08,2.37-2.41,2.37h-7.73c-1.33,0-2.42-1.06-2.42-2.37s1.09-2.37,2.42-2.37Z"/><path class="cls-68" d="M372.89,313.09c-.12,5.82.91,44.61,1.23,50.09.33,5.46,2.75,9.18,5.33,11.31,2.37-3.25,3.78-7.63,4.12-12.84.17-2.65-.32-39.36-.52-46.9-4.35-11.5-7.58-11.93-10.16-1.65h0Z"/><path class="cls-68" d="M398.15,303.61l1.65,53.33c.52,4.73-5.65,32.89-9.02,38.44-8.35-3.57-10.11-22.67-8.54-41.28,1.57-18.62-.26-34.69-1.54-38.03-.11-4.21.6-8.61.64-12.99,5.32.32,11.5.2,16.81.53h0Z"/><path class="cls-68" d="M408.04,312.32l-1.13,53.35c.27,4.75-7.36,32.53-11.01,37.89-8.47-6.56-6.77-33.38-5.47-41.49,2.59-16.17,2.15-34.9,1.26-37.94.11-4.21.21-9.25.48-13.63l15.88,1.83Z"/><path class="cls-68" d="M415.38,324.96l-14.04-.36c1.2,5.82.24,23.9-2.19,37.67-2.27,12.92-5.44,46.43,8.03,54.47,8.36-17.68,1.99-34.86,6.21-50.21,3.28-16.31,3.93-29.94,1.99-41.58h0ZM361.7,303.3c.05,5.82,2.26,44.56,2.75,50.03.49,5.45,3.03,9.08,5.67,11.13,2.27-3.32,3.55-7.75,3.72-12.96.09-2.66-1.51-39.33-1.94-46.87-4.7-11.35-7.94-11.69-10.21-1.33h0ZM386.65,271.7c.38,12.49.59,39.61.51,41.92-.18,5.21-2.24,11.84-4.51,15.17-2.64-2.05-5.18-5.69-5.67-11.14-.4-4.47-.54-26.46-.61-37.48,2.83-1.82,5.75-4.09,8.11-6.51,0,0,2.08-1.85,2.17-1.95h0Z"/><path class="cls-68" d="M376.61,279.75c.25,13.47.1,34.68.04,36.4-.18,5.21-1.45,9.64-3.72,12.97-2.64-2.05-5.44-5.82-5.93-11.27-.3-3.35-1.24-17.72-1.33-28.76,3.56-1.13,8.05-6.95,10.94-9.34h0ZM385.24,270.57l9.55-13.76c1.93,6.79,4.29,55.47,1.53,59.46-.18,5.21-2.07,9.63-4.33,12.95-2.65-2.05-6.59-5.74-5.45-11.25,1.14-5.51-.14-41.72-1.3-47.41h0Z"/><path class="cls-68" d="M404.85,301.19c.43,7.53.74,12.63.65,15.29-.18,5.21-1.46,9.64-3.72,12.97-2.65-2.05-6.02-5.68-5.67-11.14,1.34-21.08-.97-40.94-3.66-60.03,2.27-1.66,6.09-3.46,8.36-5.12,4.53,25.71,6.05,41.66,4.05,48.03h0Z"/><path class="cls-14" d="M414.4,314.99l-2.59,9.81c-.18,5.21-3.4,9.52-5.67,12.84-2.65-2.06-5.05-5.42-4.38-10.84,3.88-31.14,2.49-51.74-4.05-77.12,14.8,10.08,21.66,31.36,16.69,65.32h0Z"/><path class="cls-68" d="M413.64,324.63l13.58-4.5c1.73,13.55-.93,30.57-4.58,53.02-3.14,19.27-1.49,34.53.91,44.31-14.48-1.98-20.61-20.63-13.34-55.69,1.9-9.18,3.81-20.91,3.44-37.15h0Z"/><path class="cls-25" d="M414.06,390.22c-.32-8.98,1.19-18.78,2.9-27.04,2.34-11.32,3.55-22.17,3.63-33.57"/><path class="cls-14" d="M414.19,244.9l-8.91,1.5c.44,1.91,2.7,13.61,3.11,15.61,3.33,16.27,5.53,35.44,3.01,56.46-.93,7.8-2.59,14.18-5.02,19.11,9.77-1.11,16.04-10.64,15.23-27.25,1.7-19.41.95-34.85-2.19-46.45-.92-3.4-3.89-16.23-5.22-18.97h0Z"/><path class="cls-68" d="M419.59,247.01l-4.38,4.98c1.25.89-.86,4.71.27,12.13.73,4.21,3.24,9.18,3.77,14.56,1.73,17.82,1.73,40.14-3.64,54.41,9.77-1.11,13.13-9.95,13.45-26.59.26-13.76.31-29.98-3.15-48.7-.7-4.38-2.81-7.87-6.31-10.8Z"/><path class="cls-11" d="M395.18,260.13l9.02-1.05c1.66,8.51,2.92,14.53,3.23,17.57.6,5.95-1.2,11.4-3.26,15.47-3.33-2-4.87-6.38-6.27-12.51-1.4-6.16-1.75-12.87-2.71-19.48h0Z"/><path class="cls-58" d="M371.77,279.3l8.01.08c.27,7.35.47,12.32.34,14.9-.26,5.08-1.52,9.38-3.7,12.6-2.43-2.02-4.73-5.6-5.09-10.91-.36-5.33.4-11.01.44-16.68h0Z"/><path class="cls-88" d="M363.15,283.1l8,.36c.01,7.35.04,12.33-.18,14.91-.43,5.06-1.85,9.32-4.13,12.46-2.36-2.11-4.53-5.76-4.71-11.08-.18-5.34.78-10.99,1.03-16.65h0Z"/><path class="cls-65" d="M379.93,275.18l7.99-.57c.86,7.3,1.47,12.24,1.55,14.83.16,5.08-.76,9.47-2.66,12.86-2.59-1.82-5.17-5.19-5.96-10.46-.8-5.29-.5-11.01-.91-16.66h0Z"/><path class="cls-59" d="M387.41,266.57l8.76-3.63c1.49,5.91,3.51,25.38-.07,33.6-2.92-1.98-5.86-5.69-6.84-11.54-.98-5.88-1.28-12.13-1.84-18.42h0Z"/><path class="cls-1" d="M398.99,256.91l14,1.25c3.23,8.02,5.34,15.13,6.36,21.57-6.49-1.14-11.2-4.33-12.89-10.14-2.28-7.84-6.28-11.29-7.47-12.68h0Z"/><path class="cls-15" d="M357.82,276.83c1.07-.22,2.16-.53,3.26-.92-5.12-3.21-9.37-7.09-14.42-14.83-5.17-7.93,2.27-22.09,5.32-29.59,6.38-4.71,12.39-11.65,14.3-20.78.75-4.92-12.82-3.14-22.16,1.26-11.41,5.38-12.96,3.89-17.03,4.8-1.45,6.99,1.58,7.57,4.49,7.23-6.29,10.07-8.91,20.1-10.16,34.51-1.25-14.42-3.88-24.44-10.16-34.51,2.91.34,5.94-.25,4.49-7.23-4.07-.91-5.62.59-17.04-4.8-9.33-4.4-22.91-6.18-22.15-1.27,1.91,9.14,7.92,16.07,14.29,20.78,3.05,7.51,10.49,21.67,5.32,29.59-5.05,7.74-9.3,11.62-14.43,14.83,1.07.38,2.15.68,3.26.92-.77,1.06-7.42,3.12-8.2,2.58-5.08-3.59-10.04-12.03-14.36-16.93-12.25-13.88-18.36-24.6-16.2-33.24,3.08-9.31,14.05-19.76-.49-17.95-14.53,1.8-26.59,21.73-30.45,45.7-1.44,8.89-2.27,16.34-3.24,22.43,7.94-2.83,11.45-5.65,13.56-9.13-.94,3.31-1.65,6.45-2.13,9.44,6.49-1.15,11.2-4.33,12.89-10.15.58-2.06,1.39-4.04,2.39-5.93,2,.71,4.58.67,7.73-.1,1.19,2.84,10.14,12.8,14.94,20.11,5.43,8.26,13.58,14.57,16.26,14.92,1.35.17,1.76-2.81,1.46-6.92,14.18.1,28.35.18,42.25-.29,13.9.47,28.07.39,42.25.29-.3,4.11.12,7.09,1.46,6.92,2.69-.35,10.84-6.66,16.26-14.91,4.81-7.31,13.75-17.27,14.94-20.11,3.15.77,5.73.81,7.73.1.87,1.62,1.71,3.58,2.39,5.93,1.69,5.81,6.4,9,12.89,10.15-.48-2.99-1.19-6.13-2.14-9.44,2.11,3.48,5.63,6.3,13.56,9.13-.97-6.1-1.8-13.54-3.24-22.43-3.87-23.97-15.92-43.9-30.46-45.7-14.53-1.81-3.56,8.64-.48,17.95,2.16,8.64-3.95,19.36-16.2,33.24-4.33,4.9-9.28,13.34-14.37,16.93-.78.55-7.42-1.52-8.2-2.58h0Z"/><path class="cls-29" d="M349.33,237.88c1.37,1.19,5.88,1.21,12.05,1.61,9.95.34,15.71-2.66,16.99-9.02-3.73,4.44-8.18,6.64-13.25,5.39-6.82-1.69-10.73-2.9-12.28-2.6-1.05.37-2.58,2.27-3.51,4.61h0Z"/><path class="cls-75" d="M372.6,211.75c11.15,1.2,10.62,8.5.19,18.79-1.99,1.97-2.68,1.91-3.11-.14-.74-3.58-4.71-5.7-6.8-2.97-1.42,1.86-1.1,2.92-5.83,2.26-5.96,5-10.82,8.51-3.01,8.23,3.43-.13,6.08,1.87,10.55,1.69-1.32,2.57-1.56,2.86-2.28,3.08-4.34.86-8.91-1.85-13.28-1.05-9.59,1.77,15.36-25.89,15.05-26.99-.79-2.78,6-7.77,8.5-2.91h0Z"/><path class="cls-9" d="M372.34,211.51c-.92,2.63-2.69,5.04-5.29,7.23"/><path class="cls-93" d="M374.72,216.86c-.08-.51-.54-.86-1.06-.81-.48.04-.85.46-.81.95,0,.02,0,.04,0,.06.08.51.54.86,1.06.81.48-.04.85-.46.81-.95,0-.02,0-.04,0-.06"/><path class="cls-5" d="M279.41,214.54c2.99-.16,6.06,1.15,10.05,2.59,1.12.41,5.02,1.94,6.21,1.76"/><path class="cls-90" d="M311.42,224.05c-3.25-.53-5.04-.95-6.57-1.38"/><path class="cls-86" d="M281.79,214.76c1.26,2.3,2.75,5.43,5.4,6.91,1.99,1.12,4.21-.65,5.83-3.67"/><path class="cls-93" d="M286.13,220.56l-1.47-1.47c-.72-.91-.3-2.11,1.25-3.62,1.13.49,2.03.87,2.94,1.24-.6,2.04-1.51,3.32-2.72,3.84"/><path class="cls-86" d="M361.05,214.76c-1.26,2.3-2.75,5.43-5.4,6.91-1.99,1.12-4.21-.65-5.83-3.67"/><path class="cls-93" d="M356.7,220.56l1.47-1.47c.72-.91.31-2.11-1.24-3.62-1.13.49-2.04.87-2.94,1.24.6,2.04,1.51,3.32,2.71,3.84"/><path class="cls-5" d="M363.44,214.54c-2.99-.16-6.06,1.15-10.04,2.59-1.13.4-5.02,1.94-6.21,1.76"/><path class="cls-90" d="M331.41,224.05c3.26-.53,5.05-.95,6.58-1.38"/><path class="cls-37" d="M281.75,275.92c6.37,2.23,12.12,1.79,16.44-2.46.68-.67,1.33-1.31,1.94-1.92"/><path class="cls-37" d="M300.9,267.66c-.59,4.29-1.69,7.71-3.2,11.11,4.49-1.17,8.03-3.22,10.2-6.32M321.34,280.82c-3.5-4.25-5.65-9.17-5.9-14.67"/><path class="cls-37" d="M307.01,267.03c.4,4.3,1.62,7.97,3.62,10.81,2.16-1.63,4.25-4.3,5.21-8.12"/><path class="cls-37" d="M361.08,275.92c-6.37,2.23-12.12,1.79-16.44-2.46-.68-.67-1.33-1.31-1.94-1.92"/><path class="cls-37" d="M341.93,267.66c.59,4.29,1.69,7.71,3.21,11.11-4.49-1.17-8.03-3.22-10.2-6.32"/><path class="cls-37" d="M335.81,267.03c-.39,4.3-1.62,7.97-3.61,10.81-2.16-1.63-4.25-4.3-5.21-8.12"/><path class="cls-37" d="M321.49,280.82c3.5-4.25,5.65-9.17,5.9-14.67"/><path class="cls-24" d="M238.58,242.08c-5.04,3.6-14.34,29.69-15.06,37.34-1.65,17.7-1.59,39.61,3.71,53.68"/><path class="cls-24" d="M404.25,242.08c5.05,3.6,14.35,29.69,15.06,37.34,1.65,17.7,1.59,39.61-3.71,53.68"/><path class="cls-19" d="M270.24,211.75c-11.16,1.2-10.62,8.5-.2,18.79,1.99,1.97,2.68,1.91,3.11-.14.74-3.58,4.71-5.7,6.8-2.97,1.42,1.86,1.1,2.92,5.83,2.26,5.97,5,10.83,8.51,3.02,8.23-3.44-.13-6.09,1.87-10.56,1.69,1.32,2.57,1.56,2.86,2.28,3.08,4.34.86,8.91-1.85,13.29-1.05,9.59,1.77-15.37-25.89-15.06-26.99.79-2.78-6-7.77-8.5-2.91h0Z"/><path class="cls-9" d="M270.5,211.51c.92,2.63,2.69,5.04,5.29,7.23"/><path class="cls-93" d="M268.12,216.86c.08-.51.55-.86,1.06-.81.48.04.85.46.81.95,0,.02,0,.04,0,.06-.08.51-.54.86-1.05.81-.49-.04-.85-.47-.81-.96,0-.02,0-.04,0-.05"/><path class="cls-16" d="M277.77,386.95l.25-7.31c-2.94-1.49-10.19.04-13.25,6.79-3.82,8.42-7.42,12.9-12,16.85,6.64,1.24,12.25-.07,15.87-4.93,4.89-6.55,7.49-10.52,9.12-11.4h0Z"/><path class="cls-30" d="M283.15,387.91l-7.91-3.33c-3.24,6.61-5.45,11.07-6.37,13.49-1.8,4.75-2.29,9.23-1.46,13.1,3.21-.82,6.92-3.11,9.43-7.81,2.51-4.72,4.07-10.24,6.31-15.45h0Z"/><path class="cls-4" d="M285.44,387.91l-8.49-1.3c-1.53,7.2-2.59,12.07-2.89,14.64-.59,5.05.02,9.51,1.78,13.06,2.92-1.58,5.96-4.71,7.24-9.88,1.29-5.2,1.45-10.93,2.35-16.52h0Z"/><path class="cls-12" d="M286.69,376.37l5.06-.04c2.96,1.47,6.06,8.19,2.47,14.68-4.47,8.09-5.91,13.66-6.34,19.69-4.95-4.58-7.26-9.86-5.53-15.67,2.33-7.83,4.6-16.83,4.34-18.66h0Z"/><path class="cls-48" d="M288.96,372.85l-8.09-2.87c-2.86,6.78-4.81,11.36-5.59,13.83-1.53,4.85-1.77,9.34-.71,13.15,3.16-.99,7.17-3.06,9.4-7.9,2.25-4.86,3.05-10.88,4.99-16.21h0Z"/><path class="cls-17" d="M283.46,367.21l-1.77-10.99c-1.86-.51-4.33,3.84-6.75,6.37-.55.59-1.2,1.13-1.68,1.85-1.01,1.51-1.84,3.3-2.29,5.33-2.02,9.02-4.97,13.71-8.64,18.51,6.75-.14,11.98-2.57,14.53-8.06,3.45-7.41,5.2-11.82,6.61-13.02h0Z"/><path class="cls-31" d="M368.42,390.52c2.15.09,4.79,1.32,12.49,8,3.37,6.86,6.76,13.76,11.43,19.71,1.6,1.05,2.85,1.79,4.11,2.2,1.32.44,11.03.11,11.27-.29,3.02-2.74,7.64-.79,6.1,2.11,1.19,1.14-1.44,5.29-3.56,3.56-1.95-1.58-8.72-.09-10.98-.91.85,2.03,6.97,3.35,11.25,3.66,3.91.17,3.65,4.07,2.04,7.05-1.83,1.17-.33-.3-.99.55-1.75,2.59-5.5,2.26-5.62-.28-.13-2.62-9.26-6.04-10.62-8.05,1.67,3.98,5.53,7.7,7.45,11.6,2.06,2.06,3.3,2.48.65,6.65-2.95-.34-3.13-1.12-4.94.59-4.04-.44-4.69-1.64-4.04-4.83.69-3.38-2.13-9.48-3.07-11.2-.87-1.59-1.08-3.24-1.92-4.24-1.46-1.73-8.44-5.19-10.22-4.24-3.29,1.75-5.8.69-6.21-2.49,1.06-.82.26-5.34,2.54-5.53,1.86-.15,2.97.42,4.67,1.81,2.69,2.19,4.07,3.37,4.96,3.12,2.1-.58-3.8-3.47-9.17-10.51-7.44-9.76-7.95-14.71-7.6-18.04h0Z"/><path class="cls-44" d="M413.38,424.05c2.69-1.58,4.24-1.52,5.29-.34.58.65,1.31.31.88-.7-1.79-4.23-4.65-4.76-7.21-2.78-.72.67-1.29,1.24-1.87,1.8.43.64,2.57,1.53,2.91,2.02h0Z"/><path class="cls-73" d="M374.8,420.25c-2.86-1.94-5.54-2.32-7.01-1.23-.81.6-1.6.17-.89-.83,2.96-4.17,6.44-4.38,9.06-2.03.71.77,1.28,1.43,1.84,2.08-.9.99-2.88,2.09-3,2Z"/><path class="cls-45" d="M397.33,444.15c1.75,3.46,2.68,5.84,1.92,7.7-.45,1.09.06,2.09,1.16,1.14,4.47-3.83,4.48-8.23,1.62-11.21-.96-.99-1.98-1.64-2.88-2.36-1.17,1.09-1.91,4.56-1.82,4.73Z"/><path class="cls-43" d="M408.48,435.02c2.65,1.1,3.57,2.5,3.47,4.33-.05,1.01.62,1.39.99.21,3.25-7.53-.12-8.95-4.99-8.67-.28,1.31.41,4.08.53,4.13h0Z"/><path class="cls-3" d="M385.61,418.24c1.75-1.01,1.85-2.14,1.39-2.9-.97-1.61-1.95-.83-3.78.65"/><path class="cls-3" d="M383.34,415.79c1.75-1.02,1.86-2.15,1.4-2.91-.98-1.6-1.95-.83-3.79.65"/><path class="cls-40" d="M380.8,413.45c1.93-1.32,2.05-2.79,1.54-3.78-1.07-2.09-2.15-1.08-4.17.85"/><path class="cls-57" d="M378.06,410.51c2.05-1.5,2.17-3.15,1.64-4.27-1.14-2.36-2.28-1.22-4.43.96"/><path class="cls-42" d="M375.17,407.4c1.91-1.59,2.5-3.16,1.64-4.54-1.36-2.16-2.28-1.3-4.43,1.02"/><path class="cls-16" d="M365.07,386.95l-.26-7.31c2.94-1.49,10.19.04,13.25,6.79,3.81,8.42,7.42,12.9,12,16.85-6.64,1.24-12.25-.07-15.87-4.93-4.89-6.55-7.5-10.52-9.12-11.4h0Z"/><path class="cls-30" d="M359.68,387.91l7.91-3.33c3.24,6.61,5.45,11.07,6.37,13.49,1.81,4.75,2.3,9.23,1.46,13.1-3.21-.82-6.92-3.11-9.43-7.81-2.52-4.72-4.07-10.24-6.32-15.45h0Z"/><path class="cls-4" d="M357.4,387.91l8.49-1.3c1.53,7.2,2.59,12.07,2.89,14.64.59,5.05-.02,9.51-1.78,13.06-2.92-1.58-5.96-4.71-7.24-9.88-1.29-5.2-1.45-10.92-2.35-16.52h0Z"/><path class="cls-12" d="M356.13,376.37l-5.06-.04c-2.95,1.46-6.06,8.19-2.47,14.68,4.47,8.09,5.91,13.66,6.34,19.7,4.95-4.58,7.26-9.87,5.53-15.68-2.33-7.83-4.6-16.83-4.34-18.66h0Z"/><path class="cls-48" d="M353.89,372.85l8.09-2.87c2.86,6.77,4.81,11.36,5.59,13.83,1.53,4.85,1.76,9.34.71,13.15-3.16-1-7.16-3.06-9.4-7.9-2.25-4.86-3.05-10.89-4.99-16.21Z"/><path class="cls-17" d="M359.39,367.21l1.77-11c1.86-.5,4.33,3.84,6.75,6.37.56.59,1.2,1.13,1.69,1.85,1.01,1.5,1.84,3.3,2.29,5.33,2.02,9.01,4.97,13.71,8.64,18.5-6.75-.14-11.98-2.57-14.53-8.06-3.45-7.41-5.2-11.82-6.61-13.01h0Z"/><path class="cls-2" d="M366.42,281.62v72.76c0,13.01-5.06,24.82-13.2,33.38-8.15,8.56-19.4,13.86-31.79,13.86h0c-12.39,0-23.64-5.31-31.79-13.86-8.15-8.56-13.2-20.37-13.2-33.38v-72.76h90Z"/><path class="cls-6" d="M366.41,326.24v18.75h-35.62v55.59c-3.08.69-6.22,1.04-9.37,1.04h0c-3.21,0-6.35-.36-9.37-1.04v-55.59h-35.62v-18.75h35.62v-44.63h18.75v44.63h35.62Z"/><path class="cls-7" d="M305.97,292.26v26.36c-5.75,1.54-19.74,7.12-20.47-5.1-.33-5.65,7.01-9.37,8.99-4.38.93,2.36-.08,4.03-1.46,4.58-1.49.58-2.97-.62-2.58-2.42-5.95,3.11,5.32,9.71,10.4,1.12,1.48-2.51-2.5-5.11-2.5-6.96,0-1.86,3.91-4.63,2.5-6.97-5.15-8.55-16.35-1.99-10.4,1.12-.39-1.79,1.09-3,2.58-2.42,1.38.54,2.4,2.21,1.46,4.58-1.98,4.99-9.33,1.27-8.99-4.38.73-12.21,14.72-6.64,20.47-5.1h0Z"/><path class="cls-18" d="M336.88,292.26v26.36c5.75,1.54,19.74,7.12,20.47-5.1.34-5.65-7.01-9.37-8.99-4.38-.94,2.36.08,4.03,1.46,4.58,1.49.58,2.97-.62,2.58-2.42,5.95,3.11-5.31,9.71-10.4,1.12-1.48-2.51,2.5-5.11,2.51-6.96,0-1.86-3.92-4.63-2.51-6.97,5.15-8.55,16.35-1.99,10.4,1.12.4-1.79-1.09-3-2.58-2.42-1.38.54-2.4,2.21-1.46,4.58,1.98,4.99,9.33,1.27,8.99-4.38-.73-12.21-14.72-6.64-20.47-5.1h0Z"/><path class="cls-18" d="M305.97,379v-26.36c-5.75-1.54-19.74-7.11-20.47,5.11-.33,5.65,7.01,9.37,8.99,4.38.93-2.36-.08-4.04-1.46-4.58-1.49-.58-2.97.62-2.58,2.42-5.95-3.11,5.32-9.71,10.4-1.12,1.48,2.5-2.5,5.11-2.5,6.96,0,1.86,3.91,4.63,2.5,6.97-5.15,8.55-16.35,1.99-10.4-1.12-.39,1.79,1.09,3,2.58,2.42,1.38-.54,2.4-2.21,1.46-4.58-1.98-4.99-9.33-1.26-8.99,4.38.73,12.22,14.72,6.65,20.47,5.11h0Z"/><path class="cls-18" d="M336.88,379v-26.36c5.75-1.54,19.74-7.11,20.47,5.11.34,5.65-7.01,9.37-8.99,4.38-.94-2.36.08-4.04,1.46-4.58,1.49-.58,2.97.62,2.58,2.42,5.95-3.11-5.31-9.71-10.4-1.12-1.48,2.5,2.5,5.11,2.51,6.96,0,1.86-3.92,4.63-2.51,6.97,5.15,8.55,16.35,1.99,10.4-1.12.4,1.79-1.09,3-2.58,2.42-1.38-.54-2.4-2.21-1.46-4.58,1.98-4.99,9.33-1.26,8.99,4.38-.73,12.22-14.72,6.65-20.47,5.11h0Z"/><path class="cls-41" d="M366.42,281.62v72.76c0,13.01-5.06,24.82-13.2,33.38-8.15,8.56-19.4,13.86-31.79,13.86h0c-12.39,0-23.64-5.31-31.79-13.86-8.15-8.56-13.2-20.37-13.2-33.38v-72.76h90Z"/></svg>