<?xml version="1.0" encoding="UTF-8"?>
<svg id="b" data-name="レイヤー 2" xmlns="http://www.w3.org/2000/svg" viewBox="0 0 900 600">
  <g id="c" data-name="レイヤー 4">
    <g>
      <rect width="900" height="600" style="fill: #fff; opacity: 0; stroke-width: 0px;"/>
      <rect x="150" y="0" width="600" height="600" style="fill: #fff; stroke-width: 0px;"/>
      <rect x="150" y="0" width="300" height="600" style="fill: #ffe100; stroke-width: 0px;"/>
      <g id="d" data-name="coa">
        <g id="e" data-name="tiara">
          <g id="f" data-name="band">
            <path d="M577.46,237.67l3.87.92,6.16,1,2.82.31-.5,11.98s-.67,7.96-1.85,11.75c-.87,2.81-3.79,7.96-3.79,7.96l-1.85,2.82-10.88-9.42s1.85-2.63,2.52-4.08c.84-1.82,1.85-5.73,1.85-5.73l1.07-6.22.58-7.87-.02-3.43h.02ZM563.78,274.02l9.91,8.64s-2,1.78-3.2,2.33c-2.36,1.08-4.98,1.8-7.57,1.75-1.85-.04-3.68-.71-5.36-1.48-3.77-1.72-7.93-3.54-10.36-6.9-.86-1.19-1.2-2.78-1.17-4.24.03-1.66,1.51-4.76,1.51-4.76,0,0,.57,2.07,1.23,2.89,1.08,1.34,2.67,2.23,4.22,2.97,1.16.55,2.43.97,3.72,1.04,1.67.1,3.4-.16,4.95-.78.8-.32,2.14-1.46,2.14-1.46h-.02Z" style="fill: #fff; stroke: #040000; stroke-linecap: round; stroke-linejoin: round; stroke-width: .77px;"/>
            <path d="M548.08,210.64s.79,1.58,1.03,2.43c.41,1.45.7,2.96.69,4.46-.01,1.51-.35,3.01-.76,4.46-.6,2.18-1.52,4.27-2.47,6.32-.61,1.3-1.45,2.48-2.06,3.78-.98,2.09-1.68,4.31-2.54,6.45-.72,1.79-1.65,3.51-2.2,5.36-.73,2.46-1.09,5.01-1.44,7.55-.3,2.18-.53,4.39-.55,6.59-.02,2.62.06,5.26.55,7.83.48,2.55,1.19,5.09,2.33,7.42.92,1.88,2.14,3.62,3.57,5.15,1.18,1.26,2.57,2.34,4.05,3.23,1.35.81,2.87,1.27,4.33,1.85,2.01.8,6.1,2.24,6.1,2.24,0,0-5.65-2.78-7.61-5.12-1.63-1.94-2.52-4.47-3.09-6.94-.65-2.86-.57-5.87-.27-8.79.32-3.14,1.24-6.2,2.2-9.2,1.01-3.17,2.42-6.2,3.71-9.27.93-2.21,1.99-4.37,2.88-6.59,1.06-2.63,2.1-5.26,2.95-7.97.52-1.65,1.16-3.29,1.3-5.01.15-1.87-.09-3.78-.52-5.6-.6-2.56-1.34-5.2-2.84-7.36-.9-1.3-2.14-2.44-3.54-3.16-1.38-.7-3.01-1.3-4.53-1-.51.1-1.27.88-1.27.88h0Z" style="fill: #fff; stroke: #040000; stroke-linecap: round; stroke-linejoin: round; stroke-width: .77px;"/>
            <path d="M560.78,226.94s1.07-4.32,1.25-6.52c.15-1.89.05-3.8-.15-5.68-.22-2.1-.35-4.27-1.17-6.22-.84-2.02-2.17-3.87-3.74-5.39-1.55-1.5-3.43-2.71-5.44-3.5-2.11-.82-4.44-1.03-6.7-1.17-1.94-.12-3.9.05-5.83.29-1.11.14-2.24.32-3.3.68-.99.33-2.82,1.36-2.82,1.36l7.19,11.75s2.25-1.32,3.5-1.65c1.32-.35,2.72-.37,4.08-.29,1.38.08,2.81.21,4.08.78,1.61.72,3,1.92,4.21,3.19,1.46,1.54,2.77,3.31,3.59,5.27.76,1.82.86,3.86,1.13,5.81.06.42.11,1.28.11,1.28h.01Z" style="fill: #fff; stroke: #040000; stroke-linecap: round; stroke-linejoin: round; stroke-width: .77px;"/>
            <path d="M562.09,217.6s-1.28-3.97-2.49-5.63c-1.4-1.93-3.21-3.69-5.34-4.76-2.26-1.13-7.44-1.49-7.44-1.49l2.74,5.07-4.79-.12-2.5-4.18-4.62,2.09-2.3-3.75,4.9-2.27-2.26-3.64,4.9-.47,2.13,3.53s3.81,0,5.66.4c1.26.26,2.49.7,3.63,1.3,1.09.57,2.09,1.33,2.99,2.16,1.08,1.01,2.1,2.13,2.85,3.4.73,1.24,1.57,4.01,1.57,4.01l.36,4.36h.01Z" style="fill: #be9839; stroke: #040000; stroke-linecap: round; stroke-linejoin: round; stroke-width: .77px;"/>
            <path d="M529.6,202.82l7.66,11.18M532.94,200.87l-3.61,2.11-3.43,2.61,7.42,11.33,3.3-2.54,3.39-1.96-7.06-11.54h-.01Z" style="fill: #be9839; stroke: #040000; stroke-linecap: round; stroke-linejoin: round; stroke-width: .77px;"/>
            <path d="M546.91,248.61l4.29-8.86,4.59,1.83,1.86-4.57-4.57-2.13,2.37-5.12-3.36-1.51-2.54,4.91-4.61-1.93-2.02,4.79,4.47,1.87-4.12,8.79,3.64,1.92h0Z" style="fill: #be9839; stroke: #040000; stroke-linecap: round; stroke-linejoin: round; stroke-width: .77px;"/>
            <path d="M581.26,245.96l4.37-.1v5.05l4.21.2-.72,5.13-3.93-.25s-.65,3.02-1.23,4.44c-.6,1.47-2.32,4.18-2.32,4.18l-4.66-1.17s1.69-2.65,2.33-4.08c.58-1.28,1.36-3.98,1.36-3.98l-4.79-.6.83-4.85,4.34.3.19-4.27h.02Z" style="fill: #be9839; stroke: #040000; stroke-linecap: round; stroke-linejoin: round; stroke-width: .77px;"/>
          </g>
          <g id="g" data-name="band-2">
            <path d="M614.8,237.67l-3.87.92-6.16,1-2.82.31.5,11.98s.67,7.96,1.85,11.75c.87,2.81,3.79,7.96,3.79,7.96l1.85,2.82,10.88-9.42s-1.85-2.63-2.52-4.08c-.84-1.82-1.85-5.73-1.85-5.73l-1.07-6.22-.58-7.87.02-3.43h-.02ZM628.48,274.02l-9.91,8.64s2,1.78,3.2,2.33c2.36,1.08,4.98,1.8,7.57,1.75,1.85-.04,3.68-.71,5.36-1.48,3.77-1.72,7.93-3.54,10.36-6.9.86-1.19,1.2-2.78,1.17-4.24-.03-1.66-1.51-4.76-1.51-4.76,0,0-.57,2.07-1.23,2.89-1.08,1.34-2.67,2.23-4.22,2.97-1.16.55-2.43.97-3.72,1.04-1.67.1-3.4-.16-4.95-.78-.8-.32-2.14-1.46-2.14-1.46h.02Z" style="fill: #fff; stroke: #040000; stroke-linecap: round; stroke-linejoin: round; stroke-width: .77px;"/>
            <path d="M644.18,210.64s-.79,1.58-1.03,2.43c-.41,1.45-.7,2.96-.69,4.46.01,1.51.35,3.01.76,4.46.6,2.18,1.52,4.27,2.47,6.32.61,1.3,1.45,2.48,2.06,3.78.98,2.09,1.68,4.31,2.54,6.45.72,1.79,1.65,3.51,2.2,5.36.73,2.46,1.09,5.01,1.44,7.55.3,2.18.53,4.39.55,6.59.02,2.62-.06,5.26-.55,7.83-.48,2.55-1.19,5.09-2.33,7.42-.92,1.88-2.14,3.62-3.57,5.15-1.18,1.26-2.57,2.34-4.05,3.23-1.35.81-2.87,1.27-4.33,1.85-2.01.8-6.1,2.24-6.1,2.24,0,0,5.65-2.78,7.61-5.12,1.63-1.94,2.52-4.47,3.09-6.94.65-2.86.57-5.87.27-8.79-.32-3.14-1.24-6.2-2.2-9.2-1.01-3.17-2.42-6.2-3.71-9.27-.93-2.21-1.99-4.37-2.88-6.59-1.06-2.63-2.1-5.26-2.95-7.97-.52-1.65-1.16-3.29-1.3-5.01-.15-1.87.09-3.78.52-5.6.6-2.56,1.34-5.2,2.84-7.36.9-1.3,2.14-2.44,3.54-3.16,1.38-.7,3.01-1.3,4.53-1,.51.1,1.27.88,1.27.88h0Z" style="fill: #fff; stroke: #040000; stroke-linecap: round; stroke-linejoin: round; stroke-width: .77px;"/>
            <path d="M631.48,226.94s-1.07-4.32-1.25-6.52c-.15-1.89-.05-3.8.15-5.68.22-2.1.35-4.27,1.17-6.22.84-2.02,2.17-3.87,3.74-5.39,1.55-1.5,3.43-2.71,5.44-3.5,2.11-.82,4.44-1.03,6.7-1.17,1.94-.12,3.9.05,5.83.29,1.11.14,2.24.32,3.3.68.99.33,2.82,1.36,2.82,1.36l-7.19,11.75s-2.25-1.32-3.5-1.65c-1.32-.35-2.72-.37-4.08-.29-1.38.08-2.81.21-4.08.78-1.61.72-3,1.92-4.21,3.19-1.46,1.54-2.77,3.31-3.59,5.27-.76,1.82-.86,3.86-1.13,5.81-.06.42-.11,1.28-.11,1.28h-.01Z" style="fill: #fff; stroke: #040000; stroke-linecap: round; stroke-linejoin: round; stroke-width: .77px;"/>
            <path d="M630.17,217.6s1.28-3.97,2.49-5.63c1.4-1.93,3.21-3.69,5.34-4.76,2.26-1.13,7.44-1.49,7.44-1.49l-2.74,5.07,4.79-.12,2.5-4.18,4.62,2.09,2.3-3.75-4.9-2.27,2.26-3.64-4.9-.47-2.13,3.53s-3.81,0-5.66.4c-1.26.26-2.49.7-3.63,1.3-1.09.57-2.09,1.33-2.99,2.16-1.08,1.01-2.1,2.13-2.85,3.4-.73,1.24-1.57,4.01-1.57,4.01l-.36,4.36h-.01Z" style="fill: #be9839; stroke: #040000; stroke-linecap: round; stroke-linejoin: round; stroke-width: .77px;"/>
            <path d="M662.66,202.82l-7.66,11.18M659.32,200.87l3.61,2.11,3.43,2.61-7.42,11.33-3.3-2.54-3.39-1.96,7.06-11.54h.01Z" style="fill: #be9839; stroke: #040000; stroke-linecap: round; stroke-linejoin: round; stroke-width: .77px;"/>
            <path d="M645.35,248.61l-4.29-8.86-4.59,1.83-1.86-4.57,4.57-2.13-2.37-5.12,3.36-1.51,2.54,4.91,4.61-1.93,2.02,4.79-4.47,1.87,4.12,8.79-3.64,1.92h0Z" style="fill: #be9839; stroke: #040000; stroke-linecap: round; stroke-linejoin: round; stroke-width: .77px;"/>
            <path d="M611,245.96l-4.37-.1v5.05l-4.21.2.72,5.13,3.93-.25s.65,3.02,1.23,4.44c.6,1.47,2.32,4.18,2.32,4.18l4.66-1.17s-1.69-2.65-2.33-4.08c-.58-1.28-1.36-3.98-1.36-3.98l4.79-.6-.83-4.85-4.34.3-.19-4.27h-.02Z" style="fill: #be9839; stroke: #040000; stroke-linecap: round; stroke-linejoin: round; stroke-width: .77px;"/>
          </g>
          <path d="M571.6,176.54l-6.58,7.07,4.05,12.22,2.32,8.59-6.65,6.2,12.17,17.05-4.17,4.76c-.44.56-.59,1.36-.51,2.06.07.65.38,1.31.86,1.75,1.09,1,2.72,1.23,4.15,1.61,5.06,1.34,10.3,1.94,15.52,2.33,1.12.08,3.37,0,3.37,0,0,0,2.25.08,3.37,0,5.22-.39,10.46-.99,15.52-2.33,1.44-.38,3.06-.61,4.15-1.61.48-.44.79-1.1.86-1.75.07-.71-.08-1.51-.51-2.06l-3.91-8.61,12.44-13.32-4.75-4.28-.1-10.38,4.05-12.22-6.1-6.17-5.51-14.7s-1.15-4.1-2.13-5.97c-.58-1.12-1.4-2.11-2.2-3.09-.96-1.17-1.92-2.37-3.09-3.33-1.06-.87-2.29-1.52-3.5-2.16-1.3-.69-2.61-1.43-4.04-1.79-1.47-.38-4.55-.37-4.55-.37,0,0-3.07,0-4.55.37-1.43.36-2.74,1.11-4.04,1.79-1.21.64-2.44,1.29-3.5,2.16-1.17.96-2.13,2.16-3.09,3.33-.8.98-1.61,1.97-2.2,3.09-.98,1.87-2.13,5.97-2.13,5.97l-5.02,13.81v-.02Z" style="fill: #fff; stroke: #040000; stroke-linecap: round; stroke-linejoin: round; stroke-width: .77px;"/>
          <path d="M621.18,223.95s-.76-.68-1.19-.96c-.9-.58-1.86-1.07-2.86-1.46-1.35-.52-2.77-.79-4.18-1.12-1.61-.38-3.22-.75-4.86-.97-1.91-.25-3.85-.37-5.78-.39-2.07-.02-6.19.29-6.19.29,0,0-4.12-.31-6.19-.29-1.93.02-3.86.13-5.78.39-1.64.22-3.25.6-4.86.97-1.4.33-2.83.6-4.18,1.12-1,.38-1.97.87-2.86,1.46-.43.28-1.19.96-1.19.96M623.56,213.7s-1.24-1.26-2.06-1.42c-.53-.1-1.14.05-1.58.36-.57.4-.95,1.09-1.12,1.77-.15.61-.08,1.29.15,1.87.2.49.5,1.04,1,1.24,1.15.46,3.69-.49,3.69-.49l-.07-3.34h-.01ZM624.8,212.84c1.39.04,1.9.75,2.27,1.55M568.7,213.7l-.07,3.34s2.54.95,3.69.49c.49-.2.8-.75,1-1.24.23-.58.3-1.26.15-1.87-.17-.68-.55-1.37-1.12-1.77-.44-.31-1.05-.47-1.58-.36-.83.16-2.06,1.42-2.06,1.42h-.01ZM567.46,212.84c-1.39.04-1.9.75-2.27,1.55M612.75,214.72l-2.03-.23M579.51,214.72l2.03-.23M599.78,214.69c-.69-.1-1.82-1.01-1.82-1.01M592.48,214.69c.69-.1,1.82-1.01,1.82-1.01M628.13,209.03s-1.01.8-1.75.93l-.29.15s-.47,1.37-.88,1.96c-.41.59-1.55,1.5-1.55,1.5,0,0-1.15-.99-1.86-1.19-.47-.13-1-.13-1.45.05-.47.19-.85.61-1.14,1.03-.34.5-.65,1.1-.62,1.7.03.72.93,1.96.93,1.96l-.62,1.08-.88.57c-1.52-.46-3.03-.94-4.55-1.81-.42-.45-.81-1.03-1.09-2.17,0,0,1.09-.65,1.34-1.19.28-.61.4-1.44.05-2.02-.39-.64-1.27-.97-2.01-.98-.55,0-1.13.27-1.5.67-.4.43-.71,1.07-.62,1.65.1.59,1.14,1.39,1.14,1.39,0,0-.43,1.09-.92,1.3-1.44.62-2.39.97-3.66,1.16-1.25.19-2.66.35-3.91,0-.81-.23-1.64-.66-2.15-1.33-.15-.2-.21-.72-.21-.72,0,0,1.55-.4,2.17-.88.61-.47,1.27-1.1,1.39-1.86.13-.77-.28-1.58-.72-2.22-.44-.63-1.1-1.14-1.81-1.45-.32-.14-1.03-.15-1.03-.15,0,0-.15.14-.23.21-.3.38-.71.69-1.14.91,0,0-.02,0-.03.02-.01,0-.03,0-.04.02-.09.05-.18.1-.27.14-.05.02-.12.02-.18.04-.3.1-.59.19-.59.19,0,0,.93.29,1.19.66.16.23.23.51.26.79.04.17.06.34.05.51-.01.27-.08.54-.17.8-.08.31-.2.6-.4.84-.11.13-.24.24-.38.33,0,0-.01,0-.02.02,0,0-.02,0-.03,0-.25.16-.53.28-.81.36-.33.09-1,.02-1.03.02.02,0,1.32,0,1.84-.38.02,0,.03-.02.05-.03.36-.29.62-.71.78-1.17.05-.18.1-.37.12-.56.02-.24.03-.5,0-.75-.08-.38-.25-.75-.53-1-.58-.52-2.24-.58-2.26-.58-.03,0-1.68.06-2.26.58-.28.25-.45.62-.53,1-.03.25-.02.51,0,.75.02.19.07.37.12.56.16.46.42.88.78,1.17.02,0,.03.02.05.03.52.37,1.81.38,1.84.38-.02,0-.7.08-1.03-.02-.28-.08-.56-.2-.81-.36,0,0-.02,0-.03,0,0,0-.01,0-.02-.02-.14-.1-.27-.2-.38-.33-.2-.24-.32-.53-.4-.84-.09-.26-.16-.53-.17-.8,0-.17.01-.34.05-.51.03-.29.1-.57.26-.79.26-.37,1.19-.66,1.19-.66,0,0-.29-.08-.59-.19-.06-.02-.13-.02-.18-.04-.09-.04-.18-.09-.28-.14-.01,0-.03,0-.04,0,0,0-.01,0-.02,0-.44-.23-.85-.53-1.15-.92-.07-.07-.22-.21-.22-.21,0,0-.71.02-1.03.15-.71.31-1.37.81-1.81,1.45s-.85,1.45-.72,2.22c.13.76.78,1.39,1.4,1.86.62.48,2.17.88,2.17.88,0,0-.05.52-.21.72-.51.67-1.34,1.1-2.15,1.33-1.25.36-2.66.2-3.91,0-1.26-.2-2.22-.55-3.66-1.16-.49-.21-.92-1.3-.92-1.3,0,0,1.04-.8,1.14-1.39.1-.58-.22-1.22-.62-1.65-.37-.4-.95-.68-1.5-.67-.75,0-1.63.34-2.02.98-.35.57-.23,1.41.05,2.02.25.54,1.34,1.19,1.34,1.19-.28,1.14-.67,1.71-1.09,2.17-1.52.86-3.03,1.35-4.55,1.81l-.88-.57-.62-1.08s.9-1.24.93-1.96c.03-.6-.28-1.2-.62-1.7-.29-.43-.66-.84-1.14-1.03-.45-.18-.98-.18-1.45-.05-.71.19-1.86,1.19-1.86,1.19,0,0-1.14-.91-1.55-1.5-.41-.59-.88-1.96-.88-1.96l-.29-.15c-.74-.12-1.75-.93-1.75-.93l-1.07.23s-.98.53-1,1c-.02.65.89.94,1.31,1.44.35.43.68.88.99,1.34.29.43.68.83.83,1.34.16.55-.23,1.19,0,1.72.29.66.91,1.3,1.61,1.44.63.13,1.82-.62,1.82-.62l-.04,4.77,2.47,2.23,2.33,4.88-.93,1.24.27,2.4c1.8-2.3,4.92-3.31,7.73-4.12,3.78-1.08,10.7-1.16,13.92-1.13,1.08,0,1.74.03,1.74.03,0,0,10.63-.35,15.66,1.1,2.8.81,5.93,1.82,7.73,4.12l.27-2.4-.93-1.24,2.33-4.88,2.47-2.23-.04-4.77s1.19.75,1.82.62c.71-.14,1.32-.79,1.61-1.44.23-.52-.16-1.17,0-1.72.14-.5.53-.9.83-1.34.31-.46.64-.91,1-1.34.41-.5,1.32-.79,1.3-1.44-.01-.47-1-1-1-1l-1.07-.23h.08ZM592.53,208.41c.25.24.74.68,1.15.92l.06.03c.12.06.29.12.45.18.7.19,1.9.06,1.93.06h0s1.23.13,1.93-.06c.16-.05.33-.11.45-.17.02,0,.05-.02.07-.03.41-.23.89-.68,1.14-.91.13-.16.23-.33.31-.52.28-.64.26-1.47-.05-2.09-.37-.73-1.24-1.08-1.94-1.51-.6-.37-1.9-.89-1.92-.9-.02,0-1.31.53-1.91.9-.7.43-1.57.78-1.94,1.51-.31.62-.33,1.45-.05,2.09.08.18.19.36.31.52h0v-.02Z" style="fill: #be9839; stroke: #040000; stroke-linecap: round; stroke-linejoin: round; stroke-width: .77px;"/>
          <path d="M625.38,199.15s-2.61-1.21-3.98-1.65c-2.5-.8-5.1-1.25-7.67-1.75-2.99-.58-6.06-.73-9.03-1.43-.93-.22-1.81-.66-2.75-.86-1.3-.27-2.65-.69-3.95-.41-.71.15-1.88,1.1-1.88,1.1,0,0-1.17-.95-1.88-1.1-1.29-.28-2.65.14-3.95.41-.94.19-1.81.64-2.75.86-2.97.69-6.04.85-9.03,1.43-2.58.5-5.17.95-7.67,1.75-1.37.44-3.98,1.65-3.98,1.65M614.26,188.32s1.28-.68,1.75-1.21c.31-.36.6-.79.63-1.26.04-.55-.15-1.16-.53-1.55-.37-.38-.97-.53-1.51-.53-.45,0-.92.15-1.26.44-.39.33-.67.85-.73,1.36-.05.44.12.89.33,1.27.31.59,1.32,1.49,1.32,1.49h0ZM577.99,188.32s1.01-.91,1.32-1.49c.21-.39.38-.84.33-1.27-.06-.51-.34-1.03-.73-1.36-.34-.29-.82-.44-1.26-.44-.53,0-1.13.16-1.5.53-.39.39-.57,1.01-.53,1.55.03.47.32.91.63,1.26.46.54,1.75,1.21,1.75,1.21h0ZM568.14,192.64l-2.86,3.74s-.02.99.19,1.41c.3.58,1.41,1.36,1.41,1.36l.2,5.13-2.71,4.7-.24.05,1.75.93c.08,0,.16.03.24.02,1.05-.08,1.7-1.26,2.61-1.79,1.16-.67,2.4-1.2,3.64-1.72,1.71-.72,3.45-1.38,5.22-1.92,2.23-.69,4.49-1.38,6.8-1.72,1.75-.25,3.53-.37,5.3-.35.59,0,1.18.03,1.77.07,1.58.11,4.65.82,4.67.82s3.1-.72,4.68-.82c2.35-.16,4.74-.06,7.07.28,2.31.33,4.57,1.02,6.8,1.72,1.77.55,3.51,1.21,5.22,1.92,1.24.52,2.48,1.05,3.64,1.72.91.52,1.56,1.7,2.61,1.79.07,0,.16,0,.24-.02l1.75-.93-.24-.05-2.71-4.7.2-5.13s1.11-.78,1.41-1.36c.21-.42.19-1.41.19-1.41l-2.86-3.74s-1.44,1.44-2.38,1.75c-.49.16-1.06.15-1.55,0-.6-.19-1.06-.67-1.55-1.07-1.11-.89-2.21-1.81-3.11-2.91-.51-.63-1.26-2.09-1.26-2.09,0,0-3.1,2.43-4.95,2.91-1.82.47-3.83.39-5.63-.15-.45-.13-1.21-.74-1.21-.74-2.12-1.35-4.24-2.09-6.34-1.88-2.11-.2-4.22.54-6.34,1.88,0,0-.76.6-1.21.74-1.8.53-3.81.62-5.63.15-1.85-.48-4.95-2.91-4.95-2.91,0,0-.75,1.46-1.26,2.09-.89,1.1-2,2.02-3.11,2.91-.49.39-.95.88-1.55,1.07-.49.15-1.06.16-1.55,0-.94-.31-2.38-1.75-2.38-1.75h-.03Z" style="fill: #be9839; stroke: #040000; stroke-linecap: round; stroke-linejoin: round; stroke-width: .77px;"/>
          <path d="M626.61,191.13s.11-1.37-.04-2.03c-.13-.6-.41-1.19-.75-1.7-.36-.54-1.36-1.4-1.36-1.4M624.12,192.64s.81.03,1.16-.15c.62-.31,1.46-1.5,1.46-1.5,0,0,1.6,1.11,2.48.97.43-.07.79-.45,1.02-.83.24-.39.4-.91.29-1.36-.08-.36-.4-.64-.68-.87-.55-.46-1.53-.4-1.89-1.02-.28-.49-.11-1.15.05-1.7.33-1.14,1.14-2.08,1.8-3.06.42-.62,1.27-1.05,1.36-1.8.05-.4-.49-1.12-.49-1.12,0,0-1.25-.03-1.84.15-.98.29-1.99.72-2.69,1.47-.58.62-.75,1.53-1.05,2.32-.23.6-.58,1.84-.58,1.84,0,0-1.45,0-2.09.29-.84.39-1.71,1-2.09,1.84-.3.66-.26,1.51,0,2.19.26.69.84,1.26,1.46,1.65.68.43,2.33.68,2.33.68h0ZM567.79,186s-.99.86-1.36,1.4c-.35.51-.62,1.09-.75,1.7-.15.66-.04,2.03-.04,2.03M561.58,180.21s-.53.71-.49,1.12c.09.75.94,1.17,1.36,1.8.66.98,1.47,1.92,1.8,3.06.16.54.33,1.21.05,1.7-.36.62-1.35.56-1.89,1.02-.28.24-.6.51-.68.87-.1.45.05.96.29,1.36.23.37.59.76,1.02.83.88.14,2.48-.97,2.48-.97,0,0,.83,1.19,1.46,1.5.35.17,1.16.15,1.16.15,0,0,1.65-.25,2.33-.68.62-.39,1.2-.96,1.46-1.65.26-.68.3-1.52,0-2.19-.38-.85-1.24-1.46-2.09-1.84-.64-.29-2.09-.29-2.09-.29,0,0-.35-1.24-.58-1.84-.3-.79-.48-1.7-1.05-2.32-.69-.75-1.71-1.18-2.69-1.47-.59-.18-1.84-.15-1.84-.15h0ZM594.13,183.65l2-.59,2,.59M594.65,188.47s-1.56-1.42-1.85-2.38c-.13-.42-.11-.92.1-1.31.28-.53,1.41-1.12,1.41-1.12,0,0-1.7-.83-2.14-1.6-.25-.44-.28-1.02-.15-1.51.21-.77.79-1.43,1.41-1.94.76-.63,2.69-1.26,2.69-1.26,0,0,1.93.63,2.69,1.26.62.51,1.2,1.17,1.41,1.94.13.49.1,1.07-.15,1.51-.44.78-2.14,1.6-2.14,1.6,0,0,1.13.59,1.41,1.12.21.39.22.89.1,1.31-.29.96-1.85,2.38-1.85,2.38l-1.48.1-1.48-.1h.02ZM600.09,182.01s3.22,1.37,4.32,2.67c.3.36.56.84.53,1.31-.11,1.67-2.48,4.37-2.48,4.37l-4.78-1.99h-3.11l-4.78,1.99s-2.37-2.7-2.48-4.37c-.03-.47.23-.95.53-1.31,1.09-1.29,4.32-2.67,4.32-2.67" style="fill: #be9839; stroke: #040000; stroke-linecap: round; stroke-linejoin: round; stroke-width: .77px;"/>
          <path d="M592.65,160.62l1.93-1.49,1.56.03-1.6-.03s-.86-.59-1.1-1.03c-.23-.43-.34-.96-.24-1.44.13-.64.5-1.31,1.06-1.64.54-.31,1.86-.11,1.86-.11,0,0,1.32-.2,1.86.11.56.33.93,1,1.06,1.64.1.48-.01,1.01-.24,1.44-.24.44-1.1,1.03-1.1,1.03l-1.6.03,1.56-.03,1.93,1.49M612.23,161.84l-.64,1.12M619.42,158.15l-1.8.24M619.66,160.5l-2.76.15M616.54,157.35c.35.22,1,.69,1.1,1.11.19.75-.16,1.7-.75,2.2-.57.48-2.22.36-2.22.36M571.06,169.08s2.71-.68,4.07-1c1.94-.47,3.86-1.01,5.83-1.36,2.22-.4,4.47-.69,6.72-.85,2.81-.2,8.45-.14,8.45-.14,0,0,5.64-.06,8.45.14,2.25.16,4.5.45,6.72.85,1.96.35,3.89.89,5.83,1.36,1.36.33,4.07,1,4.07,1M580.03,161.84l.64,1.12M572.84,158.15l1.8.24M572.6,160.5l2.76.15M573.81,164.5s3.01-.77,4.53-1.08c1.66-.35,3.33-.68,5.01-.89,1.94-.25,3.89-.37,5.84-.46,2.31-.11,6.94-.09,6.94-.09,0,0,4.62-.02,6.94.09,1.95.09,3.9.21,5.84.46,1.68.22,3.35.55,5.01.89,1.52.32,4.53,1.08,4.53,1.08M577.59,161.01s-1.65.12-2.22-.36c-.59-.5-.94-1.44-.75-2.2.15-.59,1.33-1.25,1.33-1.25M591.1,174.97c-2.87.17-5.76.35-8.59.87-2.95.54-5.88,1.3-8.69,2.33-2.67.98-5.49,5.43-7.7,3.65-.48-.38.18-1.22.41-1.79.45-1.09,1.06-2.14,1.85-3.02.58-.64,1.91-.73,2.06-1.58.11-.62-.83-.98-1.03-1.58-.25-.76-.37-1.64-.14-2.4.3-.99,1.57-1.48,1.85-2.47.25-.86-.61-1.88-.21-2.68.51-1.01,2.72-.67,2.88-1.79.08-.55-.92-.72-1.1-1.24-.13-.37.07-.78.07-1.17,0-.53.09-1.1-.14-1.58-.21-.42-.89-.51-1.03-.96-.13-.42-.04-.99.27-1.3.25-.25.87.11,1.03-.21.32-.63-.61-1.28-.89-1.92-.34-.77-.77-1.52-.96-2.33-.15-.65-.71-1.65-.14-1.99.66-.39,1.31.78,1.92,1.24.8.61,1.71,1.16,2.27,1.99.4.6.18,1.56.71,2.06.64.6,1.86.12,2.52.69.57.49,1.07,1.33.89,2.06-.17.7-1.81.68-1.65,1.37.19.83,1.64.76,2.47.62.49-.08.83-.54,1.24-.82.31-.22.57-.54.93-.69.41-.17,1.3-.22,1.3-.22l-.52-.12s-.76-.61-.84-1.05c-.08-.41.1-.9.39-1.2.33-.34.85-.52,1.32-.52.4,0,.83.16,1.1.45.28.29.44.75.39,1.15-.04.35-.27.69-.55.91-.3.24-1.1.34-1.1.34l.55.15,1.48,2.03,6.37-.35s.79-.8.63-1.24c-.17-.47-.6-.64-1.36-.61-2.06.09-2.48-1.64-2.4-2.89.06-1.04,1.32-1.75,2.28-2.14.93-.38,2.59.86,3.01-.05.37-.8-1.4-1.21-1.68-2.04-.12-.36-.12-.8.05-1.14.44-.87,1.37-1.45,2.26-1.85.37-.17,1.21-.19,1.21-.19,0,0,.84.03,1.21.19.89.4,1.82.98,2.26,1.85.17.34.17.78.05,1.14-.28.83-2.04,1.24-1.68,2.04.42.91,2.08-.33,3.01.05.97.39,2.22,1.1,2.28,2.14.08,1.25-.34,2.98-2.4,2.89-.76-.03-1.19.14-1.36.61-.15.44.63,1.24.63,1.24l6.37.35,1.48-2.03.55-.15s-.8-.11-1.1-.34c-.28-.22-.51-.56-.55-.91-.04-.4.12-.86.39-1.15.27-.29.7-.44,1.1-.45.47,0,1,.17,1.32.52.29.31.47.79.39,1.2-.08.44-.84,1.05-.84,1.05l-.52.12s.9.05,1.3.22c.35.15.61.47.93.69.41.28.75.74,1.24.82.84.14,2.28.21,2.47-.62.16-.7-1.48-.68-1.65-1.37-.17-.73.33-1.57.89-2.06.66-.57,1.88-.09,2.52-.69.53-.5.3-1.46.71-2.06.56-.84,1.46-1.39,2.27-1.99.61-.46,1.27-1.62,1.92-1.24.57.34.01,1.34-.14,1.99-.19.82-.62,1.56-.96,2.33-.28.65-1.21,1.29-.89,1.92.16.31.78-.04,1.03.21.32.31.41.88.27,1.3-.14.45-.82.54-1.03.96-.23.48-.13,1.05-.14,1.58,0,.39.2.8.07,1.17-.18.52-1.18.69-1.1,1.24.16,1.12,2.37.78,2.88,1.79.41.8-.46,1.82-.21,2.68.29.99,1.56,1.49,1.85,2.47.23.77.11,1.64-.14,2.4-.2.6-1.14.96-1.03,1.58.15.85,1.48.94,2.06,1.58.79.88,1.41,1.93,1.85,3.02.23.57.89,1.4.41,1.79-2.21,1.78-5.04-2.67-7.7-3.65-2.82-1.04-5.74-1.79-8.69-2.33-2.83-.52-5.72-.7-8.59-.87-1.67-.1-5.03-.1-5.03-.1,0,0-3.35,0-5.02.1h.07Z" style="fill: #be9839; stroke: #040000; stroke-linecap: round; stroke-linejoin: round; stroke-width: .77px;"/>
          <path d="M598.57,142.9l-2.44.03-2.44-.03M597.75,134.77c.63-1.34-.47-2.34-1.62-3.33-1.15.99-2.25,1.98-1.62,3.33M597.89,145.98c.93.07,2.07,1.02,2.78.41.32-.28.16-.88,0-1.27-.38-.91-2.02-1.11-2.09-2.09-.06-.85,1.25-1.25,1.51-2.06.13-.4.16-.88,0-1.27-.66-1.58-3.48-1.67-3.97-3.28-.22-.72,1.42-1.56,1.63-1.65,1.04-.45,2.33.64,3.36.19.7-.3,1.47-.99,1.46-1.75-.01-.83-.89-1.52-1.65-1.85-1.47-.64-3.89,1.42-4.79.1-.83-1.21,2.07-2.66,1.69-4.08-.18-.67-1.67-1.26-1.67-1.26,0,0-1.49.59-1.67,1.26-.39,1.42,2.52,2.86,1.69,4.08-.9,1.32-3.33-.73-4.79-.1-.76.33-1.64,1.02-1.65,1.85-.01.76.76,1.45,1.46,1.75,1.03.45,2.32-.64,3.36-.19.21.09,1.85.93,1.63,1.65-.49,1.62-3.31,1.7-3.97,3.28-.16.39-.13.87,0,1.27.26.81,1.58,1.21,1.51,2.06-.08.98-1.72,1.18-2.09,2.09-.16.39-.32.99,0,1.27.71.61,1.85-.34,2.78-.41.58-.04,1.76,0,1.76,0,0,0,1.17-.04,1.76,0h-.04Z" style="fill: #be9839; stroke: #040000; stroke-linecap: round; stroke-linejoin: round; stroke-width: .77px;"/>
          <path d="M618.9,228.84s-1.72-.72-2.59-1.04c-1.58-.57-3.18-1.11-4.81-1.55-1.58-.43-3.18-.89-4.81-1.07-3.5-.39-10.56-.05-10.56-.05,0,0-7.06-.34-10.56.05-1.63.18-3.22.64-4.81,1.07-1.62.44-3.22.98-4.81,1.55-.88.32-2.59,1.04-2.59,1.04M621.82,175.44s-2.87-1.14-4.33-1.65c-1.22-.43-2.45-.86-3.71-1.17-1.54-.38-3.1-.61-4.67-.82-2.25-.31-4.52-.53-6.79-.67-2.06-.13-6.19-.15-6.19-.15,0,0-4.13.02-6.19.15-2.27.14-4.54.36-6.79.67-1.57.21-3.13.45-4.67.82-1.26.31-2.48.74-3.71,1.17-1.46.51-4.33,1.65-4.33,1.65M567.04,204.34s4.21-1.42,6.34-2.08c2.19-.68,4.36-1.46,6.6-1.94,2.68-.58,5.43-.87,8.16-1.17,2.65-.29,7.99-.58,7.99-.58,0,0,5.33.3,7.99.58,2.73.29,5.47.58,8.16,1.17,2.24.49,4.41,1.26,6.6,1.94,2.12.66,6.34,2.08,6.34,2.08" style="fill: none; stroke: #040000; stroke-linecap: round; stroke-linejoin: round; stroke-width: .77px;"/>
        </g>
        <g id="h" data-name="silverkey">
          <g id="i" data-name="keybase">
            <path d="M517.99,216.97l24.28,20.81s-1.23,2.69-1.75,4.08c-.47,1.28-.92,2.57-1.23,3.9-.47,1.95-.99,5.95-.99,5.95l-28.31-25.93c.4-5.93,3.74-8.04,8-8.81h0Z" style="fill: #cacaca; stroke: #040000; stroke-linejoin: round; stroke-width: .77px;"/>
            <path d="M514.56,229.97l-5.83,6.52,3.64,3.5-5.63,5.49-3.64-3.64-6.12,6.53-.06,8.1,13.94,10.92,4.81-3.57-.27-7.76,3.71,2.06,3.71-2.27.21,7-3.02-2.2-3.3,4.33-.34,7.69,10.51,9.34,12.73-11.3-.96-3.39-.55-3.04-.3-6.03.48-6.59-23.69-21.7h-.03Z" style="fill: #cacaca; stroke: #040000; stroke-linejoin: round; stroke-width: .77px;"/>
            <path d="M508.73,236.49l-.15,7.2,3.75-3.66-3.61-3.54h0Z" style="fill: #cacaca; stroke: #040000; stroke-linejoin: round; stroke-width: .77px;"/>
            <path d="M527.26,273.7l-.44,8.22M522.36,248.4l.15,7.63M518.96,251.87l.2,6.21M515.7,249.36l.13,6.94M510.68,259.96l.07,7.36M516.7,264.99l10.58,8.86,10.81-9.49M497.04,248.31l13.82,11.81,4.53-4.05-3.57-3.02,3.98-3.78,3.09,2.68,3.5-3.57,4.53,4.39-4.12,3.23,3.84,3.5-3.64,3.36" style="fill: none; stroke: #040000; stroke-linejoin: round; stroke-width: .77px;"/>
            <path d="M606.32,295.04l11.66,10.7,2.58,7.54-15.03-1.6-8.56-8.47-9.11-8.44-39.37-34.11s.83-3.14,1.35-4.69c.75-2.23,1.65-4.41,2.54-6.59.22-.55.7-1.63.7-1.63l43.92,38.94,9.32,8.35h0Z" style="fill: #cacaca; stroke: #040000; stroke-linejoin: round; stroke-width: .77px;"/>
            <path d="M616.24,296.65c6.5,9.09,17.45,17.67,20.77,21.8,3.32,4.13,5.46,8.05.62,13.33s-10.34,2.28-14.67-.62c-4.34-2.9-11.9-12.31-22.73-19.53l16.02-14.98h0Z" style="fill: #cacaca; stroke: #040000; stroke-linejoin: round; stroke-width: .77px;"/>
            <path d="M612.41,311.94l-8.44-3.81M613.79,298.94c.58,1.91.14,4.03.87,5.86.72,1.81,3.37,4.79,3.37,4.79,0,0-1.68.23-2.46.54-1.14.44-2.87.65-3.16,1.83-.26,1.03.97,1.93,1.7,2.7.7.75,1.59,1.29,2.48,1.81,1.47.86,2.97,1.84,4.65,2.14,2.1.38,6.03-2.58,6.4-.47.15.88-1.77.31-2.57.71-1.86.91-2.8,2.91-1.16,4.29,1.05.89,2.71.56,4.08.68,1.32.11,2.82-.66,3.97,0,1.35.78,3.04,2.67,2.33,4.05-.74,1.42-3.48,1.38-4.78.46-.97-.68-.71-2.27-.85-3.45-.04-.35,0-.7,0-1.06" style="fill: #cacaca; stroke: #040000; stroke-linejoin: round; stroke-width: .77px;"/>
            <circle cx="667.15" cy="355.26" r="31.12" style="fill: #cacaca; stroke: #040000; stroke-linejoin: round; stroke-width: .77px;"/>
            <path d="M655.47,356.56c-5.37,0-9.71,4.35-9.71,9.71s4.35,9.71,9.71,9.71,9.71-4.35,9.71-9.71l3.37-.15c0,5.37,4.35,9.71,9.71,9.71s9.71-4.35,9.71-9.71-4.35-9.71-9.71-9.71l.15-1.91c5.37,0,9.71-4.35,9.71-9.71s-4.35-9.71-9.71-9.71-9.71,4.35-9.71,9.71l-3.37-.29c0-5.37-4.35-9.71-9.71-9.71s-9.71,4.35-9.71,9.71,4.35,9.71,9.71,9.71l-.15,2.34h0Z" style="fill: #fff; stroke: #040000; stroke-linejoin: round; stroke-width: .77px;"/>
            <circle cx="667.12" cy="347.05" r="3.51" style="fill: #cacaca; stroke: #040000; stroke-linejoin: round; stroke-width: .77px;"/>
            <circle cx="675.45" cy="355.24" r="3.51" style="fill: #cacaca; stroke: #040000; stroke-linejoin: round; stroke-width: .77px;"/>
            <circle cx="667.27" cy="362.69" r="3.51" style="fill: #cacaca; stroke: #040000; stroke-linejoin: round; stroke-width: .77px;"/>
            <circle cx="658.64" cy="355.24" r="3.51" style="fill: #cacaca; stroke: #040000; stroke-linejoin: round; stroke-width: .77px;"/>
            <path d="M666.54,374.02c-1.28,2.63-3.03,3.83-5.26,5.26,3.18,1.38,7.06,1.13,10.52,0-2.23-1.12-3.85-2.88-5.26-5.26ZM648.16,354.77c-2.63-1.28-3.83-3.03-5.26-5.26-1.38,3.18-1.13,7.06,0,10.52,1.12-2.23,2.88-3.85,5.26-5.26h0ZM686.38,355.64c2.63-1.28,3.83-3.03,5.26-5.26,1.38,3.18,1.13,7.06,0,10.52-1.12-2.23-2.88-3.85-5.26-5.26h0ZM667.56,336.24c-1.28-2.63-3.03-3.83-5.26-5.26,3.18-1.38,7.06-1.13,10.52,0-2.23,1.12-3.85,2.88-5.26,5.26Z" style="fill: #fff; stroke: #040000; stroke-linejoin: round; stroke-width: .77px;"/>
          </g>
          <g id="j" data-name="keydeco">
            <path d="M518.04,216.92s.17-1.21,0-1.79c-.27-.93-.86-1.79-1.58-2.44-.61-.55-1.39-.94-2.2-1.1-.87-.17-1.79-.03-2.64.21-.58.16-1.62.8-1.62.8l-3.56,1.47-1.32,4.24s-.76,1.34-.94,2.08c-.19.79-.34,1.65-.14,2.44.24.93.78,1.83,1.51,2.44.68.57,1.59.89,2.47.96.68.05,1.99-.45,1.99-.45.38-4.47,2.37-7.88,8.03-8.86h0Z" style="fill: #be9839; stroke: #040000; stroke-linejoin: round; stroke-width: .77px;"/>
            <path d="M510.06,212.55l-9.3-4.08-.76.72,5.07,9.17s1.42-2.1,2.24-3.06c.84-.98,2.74-2.75,2.74-2.75h.01Z" style="fill: #be9839; stroke: #040000; stroke-linejoin: round; stroke-width: .77px;"/>
            <circle cx="499.75" cy="207.66" r="3.83" style="fill: #be9839; stroke: #040000; stroke-linejoin: round; stroke-width: .77px;"/>
            <path d="M525.89,223.74c.81,6.71,1.76,13.42,3.85,20.13l7.46,6.83c-1.59-7.02-4.43-14.03-4.41-21.05l-6.89-5.91h0Z" style="fill: #be9839; stroke: #040000; stroke-linejoin: round; stroke-width: .77px;"/>
            <path d="M537.13,233.38l-20.52-1.53,6.53,5.98,18.74.81.28-.96-5.02-4.3h-.01Z" style="fill: #be9839; stroke: #040000; stroke-linejoin: round; stroke-width: .77px;"/>
            <path d="M562.41,256.06c-5.39,2.03-7.54,5.35-9.09,8.92-1.52.13-2.95.15-3.46-.99,1.28-8.33,7.25-10.93,8.58-11.46,3.59-.68,2.92,2.12,3.96,3.53h.01Z" style="fill: #be9839; stroke: #040000; stroke-linejoin: round; stroke-width: .77px;"/>
            <path d="M569.01,262.28c-5.39,2.03-7.54,5.35-9.09,8.92-1.52.13-2.95.15-3.46-.99,1.28-8.33,7.25-10.93,8.58-11.46,3.59-.68,2.92,2.12,3.96,3.53h.01Z" style="fill: #be9839; stroke: #040000; stroke-linejoin: round; stroke-width: .77px;"/>
            <path d="M644.08,325.13c-1.76-.05-3.62.36-3.62.36.07,1.92-.71,3.98-2.83,6.3-1.83,2-3.76,2.81-5.68,2.89h0s-.68,4.24.62,5.58c1.53,1.57,6.51.93,6.51.93l.42-.27c1.9-3.66,4.5-6.91,7.66-9.55l.08-.3s.73-3.97-.52-5.16c-.56-.54-1.59-.74-2.64,0v-.77h0Z" style="fill: #be9839; stroke: #040000; stroke-linejoin: round; stroke-width: .77px;"/>
            <circle cx="691.08" cy="330.1" r="4.24" style="fill: #be9839; stroke: #040000; stroke-linejoin: round; stroke-width: .77px;"/>
            <circle cx="692.55" cy="379.2" r="4.24" style="fill: #be9839; stroke: #040000; stroke-linejoin: round; stroke-width: .77px;"/>
            <circle cx="644.93" cy="382" r="4.24" style="fill: #be9839; stroke: #040000; stroke-linejoin: round; stroke-width: .77px;"/>
          </g>
        </g>
        <g id="k" data-name="goldkey">
          <g id="l" data-name="keybase-2">
            <path d="M674.39,216.97l-24.28,20.81s1.23,2.69,1.75,4.08c.47,1.28.92,2.57,1.23,3.9.47,1.95.99,5.95.99,5.95l28.31-25.93c-.4-5.93-3.74-8.04-8-8.81h0Z" style="fill: #be9839; stroke: #040000; stroke-linejoin: round; stroke-width: .77px;"/>
            <path d="M677.82,229.97l5.83,6.52-3.64,3.5,5.63,5.49,3.64-3.64,6.12,6.53.06,8.1-13.94,10.92-4.81-3.57.27-7.76-3.71,2.06-3.71-2.27-.21,7,3.02-2.2,3.3,4.33.34,7.69-10.51,9.34-12.73-11.3.96-3.39.55-3.04.3-6.03-.48-6.59,23.69-21.7h.03Z" style="fill: #be9839; stroke: #040000; stroke-linejoin: round; stroke-width: .77px;"/>
            <path d="M683.65,236.49l.15,7.2-3.75-3.66,3.61-3.54h-.01Z" style="fill: #be9839; stroke: #040000; stroke-linejoin: round; stroke-width: .77px;"/>
            <path d="M665.12,273.7l.44,8.22M670.02,248.4l-.15,7.63M673.42,251.87l-.2,6.21M676.68,249.36l-.13,6.94M681.7,259.96l-.07,7.36M675.69,264.99l-10.58,8.86-10.81-9.49M695.34,248.31l-13.82,11.81-4.53-4.05,3.57-3.02-3.98-3.78-3.09,2.68-3.5-3.57-4.53,4.39,4.12,3.23-3.84,3.5,3.64,3.36" style="fill: none; stroke: #040000; stroke-linejoin: round; stroke-width: .77px;"/>
            <path d="M586.06,295.04l-11.66,10.7-2.58,7.54,15.03-1.6,8.56-8.47,9.11-8.44,39.37-34.11s-.83-3.14-1.35-4.69c-.75-2.23-1.65-4.41-2.54-6.59-.22-.55-.7-1.63-.7-1.63l-43.92,38.94-9.32,8.35h0Z" style="fill: #be9839; stroke: #040000; stroke-linejoin: round; stroke-width: .77px;"/>
            <path d="M576.14,296.65c-6.5,9.09-17.45,17.67-20.77,21.8-3.32,4.13-5.46,8.05-.62,13.33s10.34,2.28,14.67-.62c4.34-2.9,11.9-12.31,22.73-19.53l-16.02-14.98h0Z" style="fill: #be9839; stroke: #040000; stroke-linejoin: round; stroke-width: .77px;"/>
            <path d="M579.97,311.94l8.44-3.81M578.59,298.94c-.58,1.91-.14,4.03-.87,5.86-.72,1.81-3.37,4.79-3.37,4.79,0,0,1.68.23,2.46.54,1.14.44,2.87.65,3.16,1.83.26,1.03-.97,1.93-1.7,2.7-.7.75-1.59,1.29-2.48,1.81-1.47.86-2.97,1.84-4.65,2.14-2.1.38-6.03-2.58-6.4-.47-.15.88,1.77.31,2.57.71,1.86.91,2.8,2.91,1.16,4.29-1.05.89-2.71.56-4.08.68-1.32.11-2.82-.66-3.97,0-1.35.78-3.04,2.67-2.33,4.05.74,1.42,3.48,1.38,4.78.46.97-.68.71-2.27.85-3.45.04-.35,0-.7,0-1.06" style="fill: #be9839; stroke: #040000; stroke-linejoin: round; stroke-width: .77px;"/>
            <circle cx="525.27" cy="355.22" r="31.12" style="fill: #be9839; stroke: #040000; stroke-linejoin: round; stroke-width: .77px;"/>
            <path d="M536.91,356.56c5.37,0,9.71,4.35,9.71,9.71s-4.35,9.71-9.71,9.71-9.71-4.35-9.71-9.71l-3.37-.15c0,5.37-4.35,9.71-9.71,9.71s-9.71-4.35-9.71-9.71,4.35-9.71,9.71-9.71l-.15-1.91c-5.37,0-9.71-4.35-9.71-9.71s4.35-9.71,9.71-9.71,9.71,4.35,9.71,9.71l3.37-.29c0-5.37,4.35-9.71,9.71-9.71s9.71,4.35,9.71,9.71-4.35,9.71-9.71,9.71l.15,2.34h0Z" style="fill: #fff; stroke: #040000; stroke-linejoin: round; stroke-width: .77px;"/>
            <circle cx="525.26" cy="347.05" r="3.51" style="fill: #be9839; stroke: #040000; stroke-linejoin: round; stroke-width: .77px;"/>
            <circle cx="516.93" cy="355.24" r="3.51" style="fill: #be9839; stroke: #040000; stroke-linejoin: round; stroke-width: .77px;"/>
            <circle cx="525.12" cy="362.69" r="3.51" style="fill: #be9839; stroke: #040000; stroke-linejoin: round; stroke-width: .77px;"/>
            <circle cx="533.74" cy="355.24" r="3.51" style="fill: #be9839; stroke: #040000; stroke-linejoin: round; stroke-width: .77px;"/>
            <path d="M525.85,374.02c1.28,2.63,3.03,3.83,5.26,5.26-3.18,1.38-7.06,1.13-10.52,0,2.23-1.12,3.85-2.88,5.26-5.26h0ZM544.23,354.77c2.63-1.28,3.83-3.03,5.26-5.26,1.38,3.18,1.13,7.06,0,10.52-1.12-2.23-2.88-3.85-5.26-5.26h0ZM506.01,355.64c-2.63-1.28-3.83-3.03-5.26-5.26-1.38,3.18-1.13,7.06,0,10.52,1.12-2.23,2.88-3.85,5.26-5.26h0ZM524.82,336.24c1.28-2.63,3.03-3.83,5.26-5.26-3.18-1.38-7.06-1.13-10.52,0,2.23,1.12,3.85,2.88,5.26,5.26h0Z" style="fill: #fff; stroke: #040000; stroke-linejoin: round; stroke-width: .77px;"/>
          </g>
          <g id="m" data-name="keydeco-2">
            <path d="M674.35,216.92s-.17-1.21,0-1.79c.27-.93.86-1.79,1.58-2.44.61-.55,1.39-.94,2.2-1.1.87-.17,1.79-.03,2.64.21.58.16,1.62.8,1.62.8l3.56,1.47,1.32,4.24s.76,1.34.94,2.08c.19.79.34,1.65.14,2.44-.24.93-.78,1.83-1.51,2.44-.68.57-1.59.89-2.47.96-.68.05-1.99-.45-1.99-.45-.38-4.47-2.37-7.88-8.03-8.86h0Z" style="fill: #cacaca; stroke: #040000; stroke-linejoin: round; stroke-width: .77px;"/>
            <path d="M682.32,212.55l9.3-4.08.76.72-5.07,9.17s-1.42-2.1-2.24-3.06c-.84-.98-2.74-2.75-2.74-2.75h-.01Z" style="fill: #cacaca; stroke: #040000; stroke-linejoin: round; stroke-width: .77px;"/>
            <circle cx="692.63" cy="207.66" r="3.83" style="fill: #cacaca; stroke: #040000; stroke-linejoin: round; stroke-width: .77px;"/>
            <path d="M666.5,223.74c-.81,6.71-1.76,13.42-3.85,20.13l-7.46,6.83c1.59-7.02,4.43-14.03,4.41-21.05l6.89-5.91h0Z" style="fill: #cacaca; stroke: #040000; stroke-linejoin: round; stroke-width: .77px;"/>
            <path d="M655.25,233.38l20.52-1.53-6.53,5.98-18.74.81-.28-.96,5.02-4.3h.01Z" style="fill: #cacaca; stroke: #040000; stroke-linejoin: round; stroke-width: .77px;"/>
            <path d="M629.98,256.06c5.39,2.03,7.54,5.35,9.09,8.92,1.52.13,2.95.15,3.46-.99-1.28-8.33-7.25-10.93-8.58-11.46-3.59-.68-2.92,2.12-3.96,3.53h-.01Z" style="fill: #cacaca; stroke: #040000; stroke-linejoin: round; stroke-width: .77px;"/>
            <path d="M623.37,262.28c5.39,2.03,7.54,5.35,9.09,8.92,1.52.13,2.95.15,3.46-.99-1.28-8.33-7.25-10.93-8.58-11.46-3.59-.68-2.92,2.12-3.96,3.53h-.01Z" style="fill: #cacaca; stroke: #040000; stroke-linejoin: round; stroke-width: .77px;"/>
            <path d="M548.3,325.13c1.76-.05,3.62.36,3.62.36-.07,1.92.71,3.98,2.83,6.3,1.83,2,3.76,2.81,5.68,2.89h0s.68,4.24-.62,5.58c-1.53,1.57-6.51.93-6.51.93l-.42-.27c-1.9-3.66-4.5-6.91-7.66-9.55l-.08-.3s-.73-3.97.52-5.16c.56-.54,1.59-.74,2.64,0v-.77h0Z" style="fill: #cacaca; stroke: #040000; stroke-linejoin: round; stroke-width: .77px;"/>
            <circle cx="501.3" cy="330.1" r="4.24" style="fill: #cacaca; stroke: #040000; stroke-linejoin: round; stroke-width: .77px;"/>
            <circle cx="499.84" cy="379.2" r="4.24" style="fill: #cacaca; stroke: #040000; stroke-linejoin: round; stroke-width: .77px;"/>
            <circle cx="547.49" cy="381.96" r="4.24" style="fill: #cacaca; stroke: #040000; stroke-linejoin: round; stroke-width: .77px;"/>
          </g>
        </g>
        <g id="n" data-name="cord">
          <path id="o" data-name="piece1" d="M598.61,282.19c0,1.29-1.08,1.79-3.18,1.79s-3.07-.61-3.07-1.9.97-1.61,3.07-1.61,3.18.43,3.18,1.72h0Z" style="fill: #d43426; stroke: #040000; stroke-linejoin: round; stroke-width: .77px;"/>
          <path id="p" data-name="piece1-2" d="M600.14,285.62c0,1.29-1.08,1.79-3.18,1.79s-3.07-.61-3.07-1.9.97-1.61,3.07-1.61,3.18.43,3.18,1.72h0Z" style="fill: #d43426; stroke: #040000; stroke-linejoin: round; stroke-width: .77px;"/>
          <path d="M600.56,290.09c-.43,1.22-1.61,1.33-3.59.64-1.98-.69-2.7-1.59-2.27-2.8.43-1.22,1.45-1.2,3.43-.51,1.98.69,2.86,1.45,2.44,2.67h-.01Z" style="fill: #d43426; stroke: #040000; stroke-linejoin: round; stroke-width: .77px;"/>
          <path id="q" data-name="piece2" d="M600.6,293.4c-.26,1.27-1.41,1.54-3.47,1.13s-2.89-1.2-2.63-2.47,1.27-1.38,3.33-.97c2.06.42,3.03,1.05,2.78,2.31h0Z" style="fill: #d43426; stroke: #040000; stroke-linejoin: round; stroke-width: .77px;"/>
          <path id="r" data-name="piece2-2" d="M601.55,297.28c-.26,1.27-1.41,1.54-3.47,1.13s-2.89-1.2-2.63-2.47,1.27-1.38,3.33-.97c2.06.42,3.03,1.05,2.78,2.31h0Z" style="fill: #d43426; stroke: #040000; stroke-linejoin: round; stroke-width: .77px;"/>
          <path d="M611.22,291.89c-.62-.17-.55-1.27-.38-1.89.27-.95,2-2.19,2-2.19,0,0,.42,1.34.23,1.96-.28.89-.95,2.36-1.85,2.11h0Z" style="fill: #d43426; stroke: #040000; stroke-linejoin: round; stroke-width: .77px;"/>
          <path d="M608.95,293.86c-.68-.15-.76-1.33-.59-2,.27-1.04,2.31-2.24,2.31-2.24,0,0,.35,1.45.12,2.12-.3.89-.94,2.32-1.85,2.11h.01Z" style="fill: #d43426; stroke: #040000; stroke-linejoin: round; stroke-width: .77px;"/>
          <path d="M606.36,297.6c-1.03-.27-.91-2.1-.64-3.13.23-.85.89-2.19,1.75-1.98,1,.24.99,2,.74,3-.22.91-.95,2.35-1.85,2.11h0Z" style="fill: #d43426; stroke: #040000; stroke-linejoin: round; stroke-width: .77px;"/>
          <path d="M603.3,300.53c-1.01-.22-1.44-1.83-1.24-2.85.21-1.07,1.29-2.5,2.35-2.26,1.07.24,1.44,2,1.18,3.07-.24.99-1.29,2.26-2.29,2.04Z" style="fill: #d43426; stroke: #040000; stroke-linejoin: round; stroke-width: .77px;"/>
          <path d="M602.76,302.3c-.26,1.22-1.8,1.65-2.75,1.34-1-.33-2.3-1.72-2.03-3.01.28-1.29,1.96-1.64,2.96-1.25.93.36,2.07,1.72,1.82,2.92h0Z" style="fill: #d43426; stroke: #040000; stroke-linejoin: round; stroke-width: .77px;"/>
          <path d="M582.35,290.47s1.23.61,1.76,1.15c.56.57,1.23.8.89,1.66-.34.87-1.4.57-1.95-.04-.51-.57-.7-2.77-.7-2.77h0Z" style="fill: #d43426; stroke: #040000; stroke-linejoin: round; stroke-width: .77px;"/>
          <path d="M588.44,292.57c1.25.25,1.23,1.71.59,2.6-.67.94-2.61,2.16-3.92,1.89-1.32-.27-1.16-1.86-.43-2.8.68-.87,2.53-1.95,3.77-1.7h0Z" style="fill: #d43426; stroke: #040000; stroke-linejoin: round; stroke-width: .77px;"/>
          <path id="s" data-name="piece3" d="M592.62,295.33c1.16.52.82,1.94,0,2.67-.86.77-3.02,1.53-4.24.98-1.23-.55-.72-2.07.2-2.82.86-.7,2.9-1.34,4.05-.83h-.01Z" style="fill: #d43426; stroke: #040000; stroke-linejoin: round; stroke-width: .77px;"/>
          <path id="t" data-name="piece3-2" d="M595.98,297.89c1.16.52.82,1.94,0,2.67-.86.77-3.02,1.53-4.24.98-1.23-.55-.72-2.07.2-2.82.86-.7,2.9-1.34,4.05-.83h-.01Z" style="fill: #d43426; stroke: #040000; stroke-linejoin: round; stroke-width: .77px;"/>
          <path d="M597.11,300.16c1.15.18,1.46,1.78,1.1,2.81-.37,1.08-1.79,2.56-3,2.37-1.22-.19-1.44-1.95-1.01-3.03.4-1.01,1.77-2.32,2.91-2.14h0Z" style="fill: #d43426; stroke: #040000; stroke-linejoin: round; stroke-width: .77px;"/>
          <path d="M600.02,303.68c.95.55.73,2.3.1,3.25-.66.99-2.36,2.07-3.36,1.49-1.01-.59-.66-2.47.05-3.45.66-.91,2.27-1.83,3.21-1.28h0Z" style="fill: #d43426; stroke: #040000; stroke-linejoin: round; stroke-width: .77px;"/>
          <path d="M579.36,294.11c1.02-.09,1.72,1.43,1.71,2.54-.01,1.16-.8,2.98-1.87,3.07-1.08.09-1.75-1.61-1.7-2.79.05-1.1.84-2.73,1.85-2.82h.01Z" style="fill: #d43426; stroke: #040000; stroke-linejoin: round; stroke-width: .77px;"/>
          <path d="M582.7,297.04c1,.22,1.21,1.89.86,2.94-.37,1.1-1.66,2.59-2.71,2.36-1.06-.24-1.18-2.07-.77-3.17.39-1.03,1.64-2.35,2.62-2.13h0Z" style="fill: #d43426; stroke: #040000; stroke-linejoin: round; stroke-width: .77px;"/>
          <path d="M585.79,299.1c1.18.28,1.43,2.34,1.01,3.65-.44,1.37-1.97,3.22-3.21,2.93-1.25-.3-1.4-2.57-.91-3.94.46-1.28,1.94-2.92,3.1-2.64h0Z" style="fill: #d43426; stroke: #040000; stroke-linejoin: round; stroke-width: .77px;"/>
          <path d="M588.29,301.63c1.2-.15,2.16,1.69,2.23,3.06.07,1.44-.71,3.71-1.98,3.87-1.27.16-2.21-1.91-2.23-3.37-.02-1.36.79-3.41,1.98-3.56h0Z" style="fill: #d43426; stroke: #040000; stroke-linejoin: round; stroke-width: .77px;"/>
          <path id="u" data-name="piece4" d="M591.26,303.76c1.09-.13,1.96,1.4,2.03,2.54.07,1.19-.65,3.07-1.8,3.21-1.16.13-2.01-1.58-2.03-2.79-.02-1.13.72-2.83,1.8-2.95h0Z" style="fill: #d43426; stroke: #040000; stroke-linejoin: round; stroke-width: .77px;"/>
          <path id="v" data-name="piece4-2" d="M594.33,306.24c1.09-.13,1.96,1.4,2.03,2.54.07,1.19-.65,3.07-1.8,3.21-1.16.13-2.01-1.58-2.03-2.79-.02-1.13.72-2.83,1.8-2.95h0Z" style="fill: #d43426; stroke: #040000; stroke-linejoin: round; stroke-width: .77px;"/>
          <path id="w" data-name="piece5" d="M613.03,300.21c-.78.68-2.33.08-3.03-.69-.73-.8-1.25-2.52-.43-3.23.83-.72,2.47.03,3.17.87.66.78,1.06,2.38.29,3.06h0Z" style="fill: #d43426; stroke: #040000; stroke-linejoin: round; stroke-width: .77px;"/>
          <path id="x" data-name="piece5-2" d="M611.35,303.28c-.78.68-2.33.08-3.03-.69-.73-.8-1.25-2.52-.43-3.23.83-.72,2.47.03,3.17.87.66.78,1.06,2.38.29,3.06h0Z" style="fill: #d43426; stroke: #040000; stroke-linejoin: round; stroke-width: .77px;"/>
          <path id="y" data-name="piece5-3" d="M608.35,305.84c-.78.68-2.33.07-3.03-.69-.73-.8-1.25-2.52-.43-3.23.83-.72,2.47.03,3.17.87.66.78,1.06,2.38.29,3.06h0Z" style="fill: #d43426; stroke: #040000; stroke-linejoin: round; stroke-width: .77px;"/>
          <path d="M607.25,307.48c-.27,1-1.9,1.35-2.91,1.09-1.05-.27-2.43-1.41-2.14-2.46.29-1.06,2.08-1.34,3.13-1.03.98.29,2.19,1.41,1.92,2.39h0Z" style="fill: #d43426; stroke: #040000; stroke-linejoin: round; stroke-width: .77px;"/>
          <path d="M602.92,306.77c.87.61.67,2.53.09,3.57-.61,1.09-2.17,2.28-3.09,1.64-.92-.65-.6-2.72.05-3.8.61-1,2.09-2.01,2.95-1.41h0Z" style="fill: #d43426; stroke: #040000; stroke-linejoin: round; stroke-width: .77px;"/>
          <path d="M598.71,309.01c.95.55.73,2.3.1,3.25-.66.99-2.36,2.07-3.36,1.49-1.01-.59-.66-2.47.05-3.45.66-.91,2.27-1.83,3.21-1.28h0Z" style="fill: #d43426; stroke: #040000; stroke-linejoin: round; stroke-width: .77px;"/>
          <path id="z" data-name="piece6" d="M589.52,315.1c-.81.78-.18,2.71.67,3.67.89,1.01,2.83,1.95,3.68,1.13.86-.82.07-2.89-.86-3.87-.87-.92-2.68-1.69-3.49-.92h0Z" style="fill: #d43426; stroke: #040000; stroke-linejoin: round; stroke-width: .77px;"/>
          <path id="aa" data-name="piece6-2" d="M587.76,318.41c-.81.78-.18,2.71.67,3.67.89,1.01,2.83,1.95,3.68,1.13.86-.82.07-2.89-.86-3.87-.87-.92-2.68-1.69-3.49-.92h0Z" style="fill: #d43426; stroke: #040000; stroke-linejoin: round; stroke-width: .77px;"/>
          <path id="ab" data-name="piece7" d="M587,321.49c-1.04.42-1.17,2.45-.74,3.65.45,1.27,1.91,2.86,3,2.41,1.1-.45,1.13-2.65.63-3.92-.47-1.18-1.87-2.56-2.9-2.15h0Z" style="fill: #d43426; stroke: #040000; stroke-linejoin: round; stroke-width: .77px;"/>
          <path id="ac" data-name="piece7-2" d="M584.47,325.06c-1.04.42-1.17,2.45-.74,3.65.45,1.27,1.91,2.86,3,2.41,1.1-.45,1.13-2.65.63-3.92-.47-1.18-1.87-2.56-2.9-2.15h0Z" style="fill: #d43426; stroke: #040000; stroke-linejoin: round; stroke-width: .77px;"/>
          <path id="ad" data-name="piece8" d="M582.64,329.05c-1.1.25-1.54,2.23-1.31,3.49.25,1.32,1.43,3.12,2.58,2.86,1.16-.27,1.54-2.44,1.25-3.77-.28-1.24-1.44-2.83-2.52-2.58h0Z" style="fill: #d43426; stroke: #040000; stroke-linejoin: round; stroke-width: .77px;"/>
          <path id="ae" data-name="piece8-2" d="M580.21,332.87c-1.1.25-1.54,2.23-1.31,3.49.25,1.32,1.43,3.12,2.58,2.86,1.16-.27,1.54-2.44,1.25-3.77-.28-1.24-1.44-2.83-2.52-2.58h0Z" style="fill: #d43426; stroke: #040000; stroke-linejoin: round; stroke-width: .77px;"/>
          <path id="af" data-name="piece9" d="M578.17,336.79c-1.12.04-1.93,1.9-1.93,3.19s.83,3.33,2.01,3.29c1.19-.05,1.97-2.11,1.92-3.47-.04-1.26-.89-3.05-2-3h0Z" style="fill: #d43426; stroke: #040000; stroke-linejoin: round; stroke-width: .77px;"/>
          <path id="ag" data-name="piece9-2" d="M575.7,341.39c-1.12.04-1.93,1.9-1.93,3.19s.83,3.33,2.01,3.29c1.19-.05,1.97-2.11,1.92-3.47-.04-1.26-.89-3.05-2-3h0Z" style="fill: #d43426; stroke: #040000; stroke-linejoin: round; stroke-width: .77px;"/>
          <path id="ah" data-name="piece9-3" d="M572.8,345.68c-1.12.04-1.93,1.9-1.93,3.19s.83,3.33,2.01,3.29c1.19-.05,1.97-2.11,1.92-3.47-.04-1.26-.89-3.05-2-3h0Z" style="fill: #d43426; stroke: #040000; stroke-linejoin: round; stroke-width: .77px;"/>
          <path id="ai" data-name="piece9-4" d="M569.81,349.35c-1.12.04-1.93,1.9-1.93,3.19s.83,3.33,2.01,3.29c1.19-.05,1.97-2.11,1.92-3.47-.04-1.26-.89-3.05-2-3h0Z" style="fill: #d43426; stroke: #040000; stroke-linejoin: round; stroke-width: .77px;"/>
          <path id="aj" data-name="piece9-5" d="M566.7,352.75c-1.12.04-1.93,1.9-1.93,3.19s.83,3.33,2.01,3.29c1.19-.05,1.97-2.11,1.92-3.47-.04-1.26-.89-3.05-2-3h0Z" style="fill: #d43426; stroke: #040000; stroke-linejoin: round; stroke-width: .77px;"/>
          <path id="ak" data-name="piece9-6" d="M563.3,355.55c-1.12.04-1.93,1.9-1.93,3.19s.83,3.33,2.01,3.29c1.19-.05,1.97-2.11,1.92-3.47-.04-1.26-.89-3.05-2-3h0Z" style="fill: #d43426; stroke: #040000; stroke-linejoin: round; stroke-width: .77px;"/>
          <path id="al" data-name="piece9-7" d="M560.04,358.54c-1.12.04-1.93,1.9-1.93,3.19s.83,3.33,2.01,3.29c1.19-.05,1.97-2.11,1.92-3.47-.04-1.26-.89-3.05-2-3h0Z" style="fill: #d43426; stroke: #040000; stroke-linejoin: round; stroke-width: .77px;"/>
          <path d="M556.27,360.04l-1.26,4.94s.7,1.76,1.44,1.69c1.32-.13,1.67-2.17,1.92-3.47.23-2.02-2.1-3.16-2.1-3.16Z" style="fill: #d43426; stroke: #040000; stroke-linejoin: round; stroke-width: .77px;"/>
          <path d="M634.13,363.18c.39,1.47,3.66,2.72,3.66,2.72l-1.6-6.66c-1.37.04-2.28,2.98-2.07,3.95h.01Z" style="fill: #d43426; stroke: #040000; stroke-linejoin: round; stroke-width: .77px;"/>
          <path d="M633.84,357.83c-1.05-.41-2.53.97-3.05,2.14-.54,1.23-.58,3.39.52,3.82,1.11.44,2.65-1.15,3.15-2.41.47-1.18.41-3.15-.62-3.55h0Z" style="fill: #d43426; stroke: #040000; stroke-linejoin: round; stroke-width: .77px;"/>
          <path id="am" data-name="piece10" d="M630.2,354.88c-1.12-.06-2.09,1.73-2.21,3-.12,1.34.53,3.39,1.71,3.45,1.19.06,2.15-1.93,2.22-3.29.07-1.26-.61-3.11-1.72-3.17h0Z" style="fill: #d43426; stroke: #040000; stroke-linejoin: round; stroke-width: .77px;"/>
          <path id="an" data-name="piece10-2" d="M626.98,351.59c-1.12-.06-2.09,1.73-2.21,3-.12,1.34.53,3.39,1.71,3.45,1.19.06,2.15-1.93,2.22-3.29.07-1.26-.61-3.11-1.72-3.17h0Z" style="fill: #d43426; stroke: #040000; stroke-linejoin: round; stroke-width: .77px;"/>
          <path id="ao" data-name="piece10-3" d="M623.99,347.87c-1.12-.06-2.09,1.73-2.21,3-.12,1.34.53,3.39,1.71,3.45,1.19.06,2.15-1.93,2.22-3.29.07-1.26-.61-3.11-1.72-3.17h0Z" style="fill: #d43426; stroke: #040000; stroke-linejoin: round; stroke-width: .77px;"/>
          <path id="ap" data-name="piece10-4" d="M620.92,344.72c-1.12-.06-2.09,1.73-2.21,3-.12,1.34.53,3.39,1.71,3.45,1.19.06,2.15-1.93,2.22-3.29.07-1.26-.61-3.11-1.72-3.17h0Z" style="fill: #d43426; stroke: #040000; stroke-linejoin: round; stroke-width: .77px;"/>
          <path id="aq" data-name="piece10-5" d="M618.43,340.41c-1.12-.06-2.09,1.73-2.21,3-.12,1.34.53,3.39,1.71,3.45,1.19.06,2.15-1.93,2.22-3.29.07-1.26-.61-3.11-1.72-3.17h0Z" style="fill: #d43426; stroke: #040000; stroke-linejoin: round; stroke-width: .77px;"/>
          <path id="ar" data-name="piece10-6" d="M615.73,336.54c-1.12-.06-2.09,1.73-2.21,3-.12,1.34.53,3.39,1.71,3.45,1.19.06,2.15-1.93,2.22-3.29.07-1.26-.61-3.11-1.72-3.17h0Z" style="fill: #d43426; stroke: #040000; stroke-linejoin: round; stroke-width: .77px;"/>
          <path id="as" data-name="piece10-7" d="M613.25,332.45c-1.12-.06-2.09,1.73-2.21,3-.12,1.34.53,3.39,1.71,3.45,1.19.06,2.15-1.93,2.22-3.29.07-1.26-.61-3.11-1.72-3.17h0Z" style="fill: #d43426; stroke: #040000; stroke-linejoin: round; stroke-width: .77px;"/>
          <path id="at" data-name="piece10-8" d="M611.05,327.7c-1.12-.06-2.09,1.73-2.21,3-.12,1.34.53,3.39,1.71,3.45,1.19.06,2.15-1.93,2.22-3.29.07-1.26-.61-3.11-1.72-3.17h0Z" style="fill: #d43426; stroke: #040000; stroke-linejoin: round; stroke-width: .77px;"/>
          <path id="au" data-name="piece10-9" d="M608.64,323.39c-1.12-.06-2.09,1.73-2.21,3-.12,1.34.53,3.39,1.71,3.45,1.19.06,2.15-1.93,2.22-3.29.07-1.26-.61-3.11-1.72-3.17h0Z" style="fill: #d43426; stroke: #040000; stroke-linejoin: round; stroke-width: .77px;"/>
          <path id="av" data-name="piece10-10" d="M606.67,318.28c-1.12-.06-2.09,1.73-2.21,3-.12,1.34.53,3.39,1.71,3.45,1.19.06,2.15-1.93,2.22-3.29.07-1.26-.61-3.11-1.72-3.17h0Z" style="fill: #d43426; stroke: #040000; stroke-linejoin: round; stroke-width: .77px;"/>
          <path d="M602.12,313.09s-.4,6.4,1.93,6.81c1.45.26,2.59-3.58,2.59-3.58l-4.52-3.24h0Z" style="fill: #d43426; stroke: #040000; stroke-linejoin: round; stroke-width: .77px;"/>
          <path id="aw" data-name="piece11" d="M596.88,386.58c-.69.89.22,2.7,1.2,3.53,1.03.87,3.09,1.51,3.81.57.73-.94-.36-2.86-1.42-3.7-1-.78-2.9-1.28-3.59-.4h0Z" style="fill: #d43426; stroke: #040000; stroke-linejoin: round; stroke-width: .77px;"/>
          <path id="ax" data-name="piece11-2" d="M601.28,386.06c-.69.89.22,2.7,1.2,3.53,1.03.87,3.09,1.51,3.81.57.73-.94-.36-2.86-1.42-3.7-1-.78-2.9-1.28-3.59-.4h0Z" style="fill: #d43426; stroke: #040000; stroke-linejoin: round; stroke-width: .77px;"/>
          <path id="ay" data-name="piece11-3" d="M605.72,385.19c-.69.89.22,2.7,1.2,3.53,1.03.87,3.09,1.51,3.81.57.73-.94-.36-2.86-1.42-3.7-1-.78-2.9-1.28-3.59-.4h0Z" style="fill: #d43426; stroke: #040000; stroke-linejoin: round; stroke-width: .77px;"/>
          <path id="az" data-name="piece12" d="M609.88,384.91c-.55.98.62,2.64,1.72,3.31,1.15.7,3.28,1.03,3.85,0,.58-1.04-.78-2.78-1.96-3.45-1.1-.62-3.06-.83-3.6.14h-.01Z" style="fill: #d43426; stroke: #040000; stroke-linejoin: round; stroke-width: .77px;"/>
          <path id="ba" data-name="piece12-2" d="M614.69,384.14c-.55.98.62,2.64,1.72,3.31,1.15.7,3.28,1.03,3.85,0,.58-1.04-.78-2.78-1.96-3.45-1.1-.62-3.06-.83-3.6.14h-.01Z" style="fill: #d43426; stroke: #040000; stroke-linejoin: round; stroke-width: .77px;"/>
          <path id="bb" data-name="piece13" d="M618.84,382.9c-.46,1.03.86,2.57,2.01,3.14,1.21.59,3.36.72,3.84-.36.48-1.09-1.04-2.69-2.27-3.25-1.15-.52-3.13-.54-3.58.47h0Z" style="fill: #d43426; stroke: #040000; stroke-linejoin: round; stroke-width: .77px;"/>
          <path id="bc" data-name="piece13-2" d="M623.38,381.56c-.46,1.03.86,2.57,2.01,3.14,1.21.59,3.36.72,3.84-.36.48-1.09-1.04-2.69-2.27-3.25-1.15-.52-3.13-.54-3.58.47h0Z" style="fill: #d43426; stroke: #040000; stroke-linejoin: round; stroke-width: .77px;"/>
          <path id="bd" data-name="piece14" d="M627.9,380.13c-.4,1.05,1.01,2.51,2.2,3.01,1.24.52,3.39.52,3.81-.59.42-1.12-1.19-2.63-2.46-3.11-1.18-.45-3.15-.36-3.54.68h-.01Z" style="fill: #d43426; stroke: #040000; stroke-linejoin: round; stroke-width: .77px;"/>
          <path id="be" data-name="piece14-2" d="M632.5,378.64c-.4,1.05,1.01,2.51,2.2,3.01,1.24.52,3.39.52,3.81-.59.42-1.12-1.19-2.63-2.46-3.11-1.18-.45-3.15-.36-3.54.68h-.01Z" style="fill: #d43426; stroke: #040000; stroke-linejoin: round; stroke-width: .77px;"/>
          <path id="bf" data-name="piece14-3" d="M636.94,376.78c-.4,1.05,1.01,2.51,2.2,3.01,1.24.52,3.39.52,3.81-.59.42-1.12-1.19-2.63-2.46-3.11-1.18-.45-3.15-.36-3.54.68h-.01Z" style="fill: #d43426; stroke: #040000; stroke-linejoin: round; stroke-width: .77px;"/>
          <path id="bg" data-name="piece14-4" d="M641.7,374.81c-.4,1.05,1.01,2.51,2.2,3.01,1.24.52,3.39.52,3.81-.59.42-1.12-1.19-2.63-2.46-3.11-1.18-.45-3.15-.36-3.54.68h-.01Z" style="fill: #d43426; stroke: #040000; stroke-linejoin: round; stroke-width: .77px;"/>
          <path id="bh" data-name="piece14-5" d="M646.5,373.26c-.4,1.05,1.01,2.51,2.2,3.01,1.24.52,3.39.52,3.81-.59.42-1.12-1.19-2.63-2.46-3.11-1.18-.45-3.15-.36-3.54.68h-.01Z" style="fill: #d43426; stroke: #040000; stroke-linejoin: round; stroke-width: .77px;"/>
          <path id="bi" data-name="piece14-6" d="M647.07,369.49c-.4,1.05,1.01,2.51,2.2,3.01,1.24.52,3.39.52,3.81-.59.42-1.12-1.19-2.63-2.46-3.11-1.18-.45-3.15-.36-3.54.68h-.01Z" style="fill: #d43426; stroke: #040000; stroke-linejoin: round; stroke-width: .77px;"/>
          <path d="M646.01,368.37s3.25.48,3.55-.69c.39-1.55-3.7-3.06-3.7-3.06l.15,3.75h0Z" style="fill: #d43426; stroke: #040000; stroke-linejoin: round; stroke-width: .77px;"/>
          <path id="bj" data-name="piece15" d="M558.39,378.14c-.96.59-.74,2.61-.11,3.73.66,1.17,2.37,2.49,3.37,1.86,1.01-.63.66-2.81-.04-3.97-.66-1.08-2.28-2.21-3.22-1.62h0Z" style="fill: #d43426; stroke: #040000; stroke-linejoin: round; stroke-width: .77px;"/>
          <path id="bk" data-name="piece15-2" d="M562.93,380c-.96.59-.74,2.61-.11,3.73.66,1.17,2.37,2.49,3.37,1.86,1.01-.63.66-2.81-.04-3.97-.66-1.08-2.28-2.21-3.22-1.62h0Z" style="fill: #d43426; stroke: #040000; stroke-linejoin: round; stroke-width: .77px;"/>
          <path id="bl" data-name="piece15-3" d="M567.28,380.67c-.96.59-.74,2.61-.11,3.73.66,1.17,2.37,2.49,3.37,1.86,1.01-.63.66-2.81-.04-3.97-.66-1.08-2.28-2.21-3.22-1.62h0Z" style="fill: #d43426; stroke: #040000; stroke-linejoin: round; stroke-width: .77px;"/>
          <path id="bm" data-name="piece15-4" d="M572.03,381.86c-.96.59-.74,2.61-.11,3.73.66,1.17,2.37,2.49,3.37,1.86,1.01-.63.66-2.81-.04-3.97-.66-1.08-2.28-2.21-3.22-1.62h0Z" style="fill: #d43426; stroke: #040000; stroke-linejoin: round; stroke-width: .77px;"/>
          <path id="bn" data-name="piece15-5" d="M576.32,382.48c-.96.59-.74,2.61-.11,3.73.66,1.17,2.37,2.49,3.37,1.86,1.01-.63.66-2.81-.04-3.97-.66-1.08-2.28-2.21-3.22-1.62h0Z" style="fill: #d43426; stroke: #040000; stroke-linejoin: round; stroke-width: .77px;"/>
          <path id="bo" data-name="piece15-6" d="M580.55,383.36c-.96.59-.74,2.61-.11,3.73.66,1.17,2.37,2.49,3.37,1.86,1.01-.63.66-2.81-.04-3.97-.66-1.08-2.28-2.21-3.22-1.62h0Z" style="fill: #d43426; stroke: #040000; stroke-linejoin: round; stroke-width: .77px;"/>
          <path id="bp" data-name="piece15-7" d="M584.89,384.55c-.96.59-.74,2.61-.11,3.73.66,1.17,2.37,2.49,3.37,1.86,1.01-.63.66-2.81-.04-3.97-.66-1.08-2.28-2.21-3.22-1.62h0Z" style="fill: #d43426; stroke: #040000; stroke-linejoin: round; stroke-width: .77px;"/>
          <path id="bq" data-name="piece15-8" d="M589.18,385.32c-.96.59-.74,2.61-.11,3.73.66,1.17,2.37,2.49,3.37,1.86,1.01-.63.66-2.81-.04-3.97-.66-1.08-2.28-2.21-3.22-1.62h0Z" style="fill: #d43426; stroke: #040000; stroke-linejoin: round; stroke-width: .77px;"/>
          <path id="br" data-name="piece15-9" d="M593.57,385.99c-.96.59-.74,2.61-.11,3.73.66,1.17,2.37,2.49,3.37,1.86,1.01-.63.66-2.81-.04-3.97-.66-1.08-2.28-2.21-3.22-1.62h0Z" style="fill: #d43426; stroke: #040000; stroke-linejoin: round; stroke-width: .77px;"/>
          <path d="M545.56,364.2c-1-.51-2.62.71-3.25,1.83-.66,1.17-.91,3.31.14,3.85,1.06.54,2.75-.88,3.38-2.08.58-1.12.72-3.09-.27-3.6h0Z" style="fill: #d43426; stroke: #040000; stroke-linejoin: round; stroke-width: .77px;"/>
          <path d="M544.08,368.26c-1.06-.38-2.5,1.06-2.98,2.25-.5,1.25-.46,3.4.65,3.8,1.12.4,2.61-1.24,3.07-2.51.43-1.19.3-3.16-.74-3.53h0Z" style="fill: #d43426; stroke: #040000; stroke-linejoin: round; stroke-width: .77px;"/>
          <path d="M545.46,371.99c-1.09-.28-2.39,1.28-2.76,2.51-.39,1.29-.15,3.43.99,3.72,1.15.29,2.49-1.47,2.83-2.78.32-1.22.01-3.17-1.06-3.45h0Z" style="fill: #d43426; stroke: #040000; stroke-linejoin: round; stroke-width: .77px;"/>
          <path d="M548.97,373.51c-1.08-.32-2.43,1.2-2.84,2.41-.43,1.28-.26,3.42.87,3.75,1.14.33,2.53-1.39,2.92-2.69.36-1.21.12-3.17-.95-3.48h0Z" style="fill: #d43426; stroke: #040000; stroke-linejoin: round; stroke-width: .77px;"/>
          <path id="bs" data-name="piece16" d="M551.26,374.11c-1.09.27-1.5,2.26-1.24,3.52.27,1.32,1.5,3.09,2.64,2.8,1.16-.29,1.49-2.47,1.17-3.79-.3-1.23-1.5-2.8-2.57-2.53h0Z" style="fill: #d43426; stroke: #040000; stroke-linejoin: round; stroke-width: .77px;"/>
          <path id="bt" data-name="piece16-2" d="M555.29,375.61c-1.09.27-1.5,2.26-1.24,3.52.27,1.32,1.5,3.09,2.64,2.8,1.16-.29,1.49-2.47,1.17-3.79-.3-1.23-1.5-2.8-2.57-2.53h0Z" style="fill: #d43426; stroke: #040000; stroke-linejoin: round; stroke-width: .77px;"/>
          <path id="bu" data-name="piece6-3" d="M591.59,312.41c-.81.78-.18,2.71.67,3.67.89,1.01,2.83,1.95,3.68,1.13.86-.82.07-2.89-.86-3.87-.87-.92-2.68-1.69-3.49-.92h0Z" style="fill: #d43426; stroke: #040000; stroke-linejoin: round; stroke-width: .77px;"/>
          <path id="bv" data-name="piece6-4" d="M590.64,316.65c-.81.78-.18,2.71.67,3.67.89,1.01,2.83,1.95,3.68,1.13.86-.82.07-2.89-.86-3.87-.87-.92-2.68-1.69-3.49-.92h0Z" style="fill: #d43426; stroke: #040000; stroke-linejoin: round; stroke-width: .77px;"/>
          <path id="bw" data-name="piece6-5" d="M590.7,321.5c-.81.78-.18,2.71.67,3.67.89,1.01,2.83,1.95,3.68,1.13.86-.82.07-2.89-.86-3.87-.87-.92-2.68-1.69-3.49-.92h0Z" style="fill: #d43426; stroke: #040000; stroke-linejoin: round; stroke-width: .77px;"/>
          <path id="bx" data-name="piece6-6" d="M590.64,326.59c-.81.78-.18,2.71.67,3.67.89,1.01,2.83,1.95,3.68,1.13.86-.82.07-2.89-.86-3.87-.87-.92-2.68-1.69-3.49-.92h0Z" style="fill: #d43426; stroke: #040000; stroke-linejoin: round; stroke-width: .77px;"/>
          <path id="by" data-name="piece6-7" d="M590.86,331.56c-.81.78-.18,2.71.67,3.67.89,1.01,2.83,1.95,3.68,1.13.86-.82.07-2.89-.86-3.87-.87-.92-2.68-1.69-3.49-.92h0Z" style="fill: #d43426; stroke: #040000; stroke-linejoin: round; stroke-width: .77px;"/>
          <path id="bz" data-name="piece6-8" d="M590.05,336.16c-.81.78-.18,2.71.67,3.67.89,1.01,2.83,1.95,3.68,1.13.86-.82.07-2.89-.86-3.87-.87-.92-2.68-1.69-3.49-.92h0Z" style="fill: #d43426; stroke: #040000; stroke-linejoin: round; stroke-width: .77px;"/>
          <path id="ca" data-name="piece6-9" d="M590.64,341.27c-.81.78-.18,2.71.67,3.67.89,1.01,2.83,1.95,3.68,1.13.86-.82.07-2.89-.86-3.87-.87-.92-2.68-1.69-3.49-.92h0Z" style="fill: #d43426; stroke: #040000; stroke-linejoin: round; stroke-width: .77px;"/>
          <path id="cb" data-name="piece6-10" d="M590.05,345.44c-.81.78-.18,2.71.67,3.67.89,1.01,2.83,1.95,3.68,1.13.86-.82.07-2.89-.86-3.87-.87-.92-2.68-1.69-3.49-.92h0Z" style="fill: #d43426; stroke: #040000; stroke-linejoin: round; stroke-width: .77px;"/>
          <path id="cc" data-name="piece6-11" d="M590.64,349.53c-.81.78-.18,2.71.67,3.67.89,1.01,2.83,1.95,3.68,1.13.86-.82.07-2.89-.86-3.87-.87-.92-2.68-1.69-3.49-.92h0Z" style="fill: #d43426; stroke: #040000; stroke-linejoin: round; stroke-width: .77px;"/>
          <path id="cd" data-name="piece6-12" d="M590.64,354.42c-.81.78-.18,2.71.67,3.67.89,1.01,2.83,1.95,3.68,1.13.86-.82.07-2.89-.86-3.87-.87-.92-2.68-1.69-3.49-.92h0Z" style="fill: #d43426; stroke: #040000; stroke-linejoin: round; stroke-width: .77px;"/>
          <path id="ce" data-name="piece6-13" d="M590.35,359.25c-.81.78-.18,2.71.67,3.67.89,1.01,2.83,1.95,3.68,1.13.86-.82.07-2.89-.86-3.87-.87-.92-2.68-1.69-3.49-.92h0Z" style="fill: #d43426; stroke: #040000; stroke-linejoin: round; stroke-width: .77px;"/>
          <path id="cf" data-name="piece6-14" d="M590.42,363.85c-.81.78-.18,2.71.67,3.67.89,1.01,2.83,1.95,3.68,1.13.86-.82.07-2.89-.86-3.87-.87-.92-2.68-1.69-3.49-.92h0Z" style="fill: #d43426; stroke: #040000; stroke-linejoin: round; stroke-width: .77px;"/>
          <path id="cg" data-name="piece6-15" d="M590.57,368.74c-.81.78-.18,2.71.67,3.67.89,1.01,2.83,1.95,3.68,1.13.86-.82.07-2.89-.86-3.87-.87-.92-2.68-1.69-3.49-.92h0Z" style="fill: #d43426; stroke: #040000; stroke-linejoin: round; stroke-width: .77px;"/>
          <path id="ch" data-name="piece6-16" d="M590.57,373.49c-.81.78-.18,2.71.67,3.67.89,1.01,2.83,1.95,3.68,1.13.86-.82.07-2.89-.86-3.87-.87-.92-2.68-1.69-3.49-.92h0Z" style="fill: #d43426; stroke: #040000; stroke-linejoin: round; stroke-width: .77px;"/>
          <path id="ci" data-name="piece6-17" d="M590.42,378.24c-.81.78-.18,2.71.67,3.67.89,1.01,2.83,1.95,3.68,1.13.86-.82.07-2.89-.86-3.87-.87-.92-2.68-1.69-3.49-.92h0Z" style="fill: #d43426; stroke: #040000; stroke-linejoin: round; stroke-width: .77px;"/>
          <path id="cj" data-name="piece6-18" d="M590.13,383.06c-.81.78-.18,2.71.67,3.67.89,1.01,2.83,1.95,3.68,1.13.86-.82.07-2.89-.86-3.87-.87-.92-2.68-1.69-3.49-.92h0Z" style="fill: #d43426; stroke: #040000; stroke-linejoin: round; stroke-width: .77px;"/>
          <path id="ck" data-name="piece6-19" d="M590.13,388.32c-.81.78-.18,2.71.67,3.67.89,1.01,2.83,1.95,3.68,1.13.86-.82.07-2.89-.86-3.87-.87-.92-2.68-1.69-3.49-.92h0Z" style="fill: #d43426; stroke: #040000; stroke-linejoin: round; stroke-width: .77px;"/>
          <path id="cl" data-name="piece6-20" d="M589.98,393.8c-.81.78-.18,2.71.67,3.67.89,1.01,2.83,1.95,3.68,1.13.86-.82.07-2.89-.86-3.87-.87-.92-2.68-1.69-3.49-.92h0Z" style="fill: #d43426; stroke: #040000; stroke-linejoin: round; stroke-width: .77px;"/>
          <path id="cm" data-name="piece6-21" d="M589.98,398.92c-.81.78-.18,2.71.67,3.67.89,1.01,2.83,1.95,3.68,1.13.86-.82.07-2.89-.86-3.87-.87-.92-2.68-1.69-3.49-.92h0Z" style="fill: #d43426; stroke: #040000; stroke-linejoin: round; stroke-width: .77px;"/>
          <path id="cn" data-name="piece6-22" d="M589.98,403.67c-.81.78-.18,2.71.67,3.67.89,1.01,2.83,1.95,3.68,1.13.86-.82.07-2.89-.86-3.87-.87-.92-2.68-1.69-3.49-.92h0Z" style="fill: #d43426; stroke: #040000; stroke-linejoin: round; stroke-width: .77px;"/>
          <path id="co" data-name="piece6-23" d="M589.84,409c-.81.78-.18,2.71.67,3.67.89,1.01,2.83,1.95,3.68,1.13.86-.82.07-2.89-.86-3.87-.87-.92-2.68-1.69-3.49-.92h0Z" style="fill: #d43426; stroke: #040000; stroke-linejoin: round; stroke-width: .77px;"/>
          <path id="cp" data-name="piece17" d="M601.74,312.76c.59.89-.32,2.6-1.24,3.35-.97.79-2.86,1.31-3.47.38-.62-.94.45-2.75,1.45-3.51.94-.71,2.68-1.1,3.26-.22h0Z" style="fill: #d43426; stroke: #040000; stroke-linejoin: round; stroke-width: .77px;"/>
          <path id="cq" data-name="piece17-2" d="M602.4,316.63c.59.89-.32,2.6-1.24,3.35-.97.79-2.86,1.31-3.47.38-.62-.94.45-2.75,1.45-3.51.94-.71,2.68-1.1,3.26-.22h0Z" style="fill: #d43426; stroke: #040000; stroke-linejoin: round; stroke-width: .77px;"/>
          <path id="cr" data-name="piece17-3" d="M602.32,320.95c.59.89-.32,2.6-1.24,3.35-.97.79-2.86,1.31-3.47.38-.62-.94.45-2.75,1.45-3.51.94-.71,2.68-1.1,3.26-.22h0Z" style="fill: #d43426; stroke: #040000; stroke-linejoin: round; stroke-width: .77px;"/>
          <path id="cs" data-name="piece17-4" d="M602.25,325.33c.59.89-.32,2.6-1.24,3.35-.97.79-2.86,1.31-3.47.38-.62-.94.45-2.75,1.45-3.51.94-.71,2.68-1.1,3.26-.22h0Z" style="fill: #d43426; stroke: #040000; stroke-linejoin: round; stroke-width: .77px;"/>
          <path id="ct" data-name="piece17-5" d="M602.17,329.35c.59.89-.32,2.6-1.24,3.35-.97.79-2.86,1.31-3.47.38-.62-.94.45-2.75,1.45-3.51.94-.71,2.68-1.1,3.26-.22h0Z" style="fill: #d43426; stroke: #040000; stroke-linejoin: round; stroke-width: .77px;"/>
          <path id="cu" data-name="piece17-6" d="M602.4,333.66c.59.89-.32,2.6-1.24,3.35-.97.79-2.86,1.31-3.47.38-.62-.94.45-2.75,1.45-3.51.94-.71,2.68-1.1,3.26-.22h0Z" style="fill: #d43426; stroke: #040000; stroke-linejoin: round; stroke-width: .77px;"/>
          <path id="cv" data-name="piece17-7" d="M602.1,337.82c.59.89-.32,2.6-1.24,3.35-.97.79-2.86,1.31-3.47.38-.62-.94.45-2.75,1.45-3.51.94-.71,2.68-1.1,3.26-.22h0Z" style="fill: #d43426; stroke: #040000; stroke-linejoin: round; stroke-width: .77px;"/>
          <path d="M601.98,342.25c.65.92-.35,2.69-1.37,3.47-1.07.82-3.16,1.36-3.83.39-.68-.98.49-2.84,1.6-3.63,1.03-.73,2.96-1.14,3.6-.23h0Z" style="fill: #d43426; stroke: #040000; stroke-linejoin: round; stroke-width: .77px;"/>
          <path id="cw" data-name="piece18" d="M601.7,346.46c.81.78.18,2.71-.67,3.67-.89,1.01-2.83,1.95-3.68,1.13-.86-.82-.07-2.89.86-3.87.87-.92,2.68-1.69,3.49-.92h0Z" style="fill: #d43426; stroke: #040000; stroke-linejoin: round; stroke-width: .77px;"/>
          <path id="cx" data-name="piece18-2" d="M601.85,351.36c.81.78.18,2.71-.67,3.67-.89,1.01-2.83,1.95-3.68,1.13-.86-.82-.07-2.89.86-3.87.87-.92,2.68-1.69,3.49-.92h0Z" style="fill: #d43426; stroke: #040000; stroke-linejoin: round; stroke-width: .77px;"/>
          <path id="cy" data-name="piece18-3" d="M601.92,356.18c.81.78.18,2.71-.67,3.67-.89,1.01-2.83,1.95-3.68,1.13-.86-.82-.07-2.89.86-3.87.87-.92,2.68-1.69,3.49-.92h0Z" style="fill: #d43426; stroke: #040000; stroke-linejoin: round; stroke-width: .77px;"/>
          <path id="cz" data-name="piece18-4" d="M601.78,361.37c.81.78.18,2.71-.67,3.67-.89,1.01-2.83,1.95-3.68,1.13-.86-.82-.07-2.89.86-3.87.87-.92,2.68-1.69,3.49-.92h0Z" style="fill: #d43426; stroke: #040000; stroke-linejoin: round; stroke-width: .77px;"/>
          <path id="da" data-name="piece18-5" d="M601.92,366.19c.81.78.18,2.71-.67,3.67-.89,1.01-2.83,1.95-3.68,1.13-.86-.82-.07-2.89.86-3.87.87-.92,2.68-1.69,3.49-.92h0Z" style="fill: #d43426; stroke: #040000; stroke-linejoin: round; stroke-width: .77px;"/>
          <path id="db" data-name="piece18-6" d="M601.78,371.08c.81.78.18,2.71-.67,3.67-.89,1.01-2.83,1.95-3.68,1.13-.86-.82-.07-2.89.86-3.87.87-.92,2.68-1.69,3.49-.92h0Z" style="fill: #d43426; stroke: #040000; stroke-linejoin: round; stroke-width: .77px;"/>
          <path id="dc" data-name="piece18-7" d="M601.85,375.98c.81.78.18,2.71-.67,3.67-.89,1.01-2.83,1.95-3.68,1.13-.86-.82-.07-2.89.86-3.87.87-.92,2.68-1.69,3.49-.92h0Z" style="fill: #d43426; stroke: #040000; stroke-linejoin: round; stroke-width: .77px;"/>
          <path id="dd" data-name="piece18-8" d="M601.85,380.94c.81.78.18,2.71-.67,3.67-.89,1.01-2.83,1.95-3.68,1.13-.86-.82-.07-2.89.86-3.87.87-.92,2.68-1.69,3.49-.92h0Z" style="fill: #d43426; stroke: #040000; stroke-linejoin: round; stroke-width: .77px;"/>
          <path id="de" data-name="piece18-9" d="M601.63,385.92c.81.78.18,2.71-.67,3.67-.89,1.01-2.83,1.95-3.68,1.13-.86-.82-.07-2.89.86-3.87.87-.92,2.68-1.69,3.49-.92h0Z" style="fill: #d43426; stroke: #040000; stroke-linejoin: round; stroke-width: .77px;"/>
          <path id="df" data-name="piece18-10" d="M601.92,390.44c.81.78.18,2.71-.67,3.67-.89,1.01-2.83,1.95-3.68,1.13-.86-.82-.07-2.89.86-3.87.87-.92,2.68-1.69,3.49-.92h0Z" style="fill: #d43426; stroke: #040000; stroke-linejoin: round; stroke-width: .77px;"/>
          <path id="dg" data-name="piece18-11" d="M601.92,395.19c.81.78.18,2.71-.67,3.67-.89,1.01-2.83,1.95-3.68,1.13-.86-.82-.07-2.89.86-3.87.87-.92,2.68-1.69,3.49-.92h0Z" style="fill: #d43426; stroke: #040000; stroke-linejoin: round; stroke-width: .77px;"/>
          <path id="dh" data-name="piece18-12" d="M601.78,400.31c.81.78.18,2.71-.67,3.67-.89,1.01-2.83,1.95-3.68,1.13-.86-.82-.07-2.89.86-3.87.87-.92,2.68-1.69,3.49-.92h0Z" style="fill: #d43426; stroke: #040000; stroke-linejoin: round; stroke-width: .77px;"/>
          <path id="di" data-name="piece18-13" d="M601.78,405.35c.81.78.18,2.71-.67,3.67-.89,1.01-2.83,1.95-3.68,1.13-.86-.82-.07-2.89.86-3.87.87-.92,2.68-1.69,3.49-.92h0Z" style="fill: #d43426; stroke: #040000; stroke-linejoin: round; stroke-width: .77px;"/>
          <path d="M593.91,443.58c4.78,1.33,7.62,1.26,11.57.1l-4.18-6.72" style="fill: #d43426; stroke: #040000; stroke-linejoin: round; stroke-width: .77px;"/>
          <path d="M603.19,426.28l-7.61-1.95s.09-8.44,4.89-7.71c3.99.61,2.88,9.68,2.72,9.66h0Z" style="fill: #be9839; stroke: #040000; stroke-linejoin: round; stroke-width: .77px;"/>
          <circle cx="599.49" cy="413.51" r="3.1" style="fill: #be9839; stroke: #040000; stroke-linejoin: round; stroke-width: .77px;"/>
          <path d="M602.49,430.05c1.69,4.29,2.73,7.98,1.14,12.81M605.45,443.68c-2.45-1.98-8.78-1.4-11.52-.08-1.07,0-3.95-19.98,6.17-19.48,9.29.45,5.99,19.66,5.34,19.57h0Z" style="fill: #d43426; stroke: #040000; stroke-linejoin: round; stroke-width: .77px;"/>
          <path d="M585.65,447.92c4.63,2.94,8.94,2.67,13.02.1l-9.66-10.07" style="fill: #d43426; stroke: #040000; stroke-linejoin: round; stroke-width: .77px;"/>
          <circle cx="592.41" cy="417.18" r="3.1" style="fill: #be9839; stroke: #040000; stroke-linejoin: round; stroke-width: .77px;"/>
          <path d="M596.24,427.2l-7.85-.15s-1.02-6.39,3.87-6.66c4.06-.23,4.14,6.81,3.98,6.82h0Z" style="fill: #be9839; stroke: #040000; stroke-linejoin: round; stroke-width: .77px;"/>
          <path d="M592.47,446.58c-1.5-3.34-1.66-7.45-1.24-11.88M588.95,446.78c-1.84-3.16-2.19-7.2-.72-12.3M598.65,448.08c-1.18-1.49-9.65-2.12-12.98-.09-1.2,0-4.45-22.52,6.96-21.97,10.48.51,6.75,22.16,6.02,22.06h0Z" style="fill: #d43426; stroke: #040000; stroke-linejoin: round; stroke-width: .77px;"/>
        </g>
      </g>
    </g>
  </g>
</svg>