<?xml version="1.0" encoding="UTF-8"?><svg id="_色修正" xmlns="http://www.w3.org/2000/svg" viewBox="0 0 900 600"><defs><style>.cls-1{fill:#e50012;}.cls-1,.cls-2,.cls-3,.cls-4{stroke-width:0px;}.cls-2{fill:#fff;}.cls-3{fill:#fff000;}.cls-4{fill:#008742;}</style></defs><rect class="cls-4" y="0" width="900" height="600"/><rect class="cls-3" y="120" width="900" height="120"/><rect class="cls-3" y="360" width="900" height="120"/><rect class="cls-1" y="0" width="357.61" height="360.6"/><g id="c"><path id="t" class="cls-2" d="M177.09,69.43l-34.34,105.7,55.63,18.08"/><path id="t-2" class="cls-2" d="M177.09,69.43l34.34,105.7-55.63,18.08"/></g><g id="c-2"><path id="t-3" class="cls-2" d="M282.79,146.23h-111.14v58.49"/><path id="t-4" class="cls-2" d="M282.79,146.23l-89.91,65.33-34.38-47.32"/></g><g id="c-3"><path id="t-5" class="cls-2" d="M242.42,270.48l-34.34-105.7-55.63,18.08"/><path id="t-6" class="cls-2" d="M242.42,270.48l-89.91-65.33,34.38-47.32"/></g><g id="c-4"><path id="t-7" class="cls-2" d="M111.76,270.48l89.91-65.33-34.38-47.32"/><path id="t-8" class="cls-2" d="M111.76,270.48l34.34-105.7,55.63,18.08"/></g><g id="c-5"><path id="t-9" class="cls-2" d="M71.39,146.23l89.91,65.33,34.38-47.32"/><path id="t-10" class="cls-2" d="M71.39,146.23h111.14v58.49"/></g></svg>