<?xml version="1.0" encoding="UTF-8"?><svg id="_色修正" xmlns="http://www.w3.org/2000/svg" xmlns:xlink="http://www.w3.org/1999/xlink" viewBox="0 0 900 600"><defs><style>.cls-1{clip-path:url(#clippath);}.cls-2{fill:none;}.cls-2,.cls-3,.cls-4,.cls-5,.cls-6,.cls-7{stroke-width:0px;}.cls-3{fill:#231815;}.cls-4{fill:#c01a2c;}.cls-5{fill:#fff;}.cls-6{fill:#fff000;}.cls-7{fill:#0062b0;}</style><clipPath id="clippath"><path class="cls-2" d="M1000,700h900v600h-900"/></clipPath></defs><path class="cls-7" d="M0,0h900v600H0V0Z"/><path class="cls-5" d="M0,120h900v120H0v120h900v120H0V120Z"/><path class="cls-4" d="M475.04,300L0,0v600l475.04-300Z"/><path class="cls-5" d="M169.25,207l53.03,162.75-138.75-100.5h171.3l-138.75,100.5,53.17-162.75Z"/><g class="cls-1"><path class="cls-3" d="M550,1600L2350,400v1200L550,400"/><path class="cls-6" d="M2393.3,1680.91l-943.3-628.87-875.98,583.99-48.04-72.06,845.96-563.97L525.98,436.03l48.04-72.06,875.98,583.99,943.3-628.87v1361.82ZM1528.06,1000l778.64,519.09V480.91l-778.64,519.09Z"/></g></svg>