<?xml version="1.0" encoding="UTF-8"?><svg id="_色修正" xmlns="http://www.w3.org/2000/svg" viewBox="0 0 900 600"><defs><style>.cls-1{stroke:#040000;stroke-miterlimit:37.5;stroke-width:3.75px;}.cls-1,.cls-2{fill:#231815;}.cls-2,.cls-3,.cls-4,.cls-5{stroke-width:0px;}.cls-3{fill:#e50012;}.cls-4{fill:#fff;}.cls-5{fill:#008c3c;}</style></defs><rect class="cls-4" width="900" height="600"/><rect class="cls-2" width="900" height="180"/><rect class="cls-5" y="420" width="900" height="180"/><g id="spear"><path id="spearshape" class="cls-1" d="M342.83,478.12l6.5,3.75,175.17-303.41c10.25-2.75,15.87-12.49,21.5-22.23,3.75-6.5,18.75-32.48,25.25-66.24-25.99,22.51-40.99,48.49-44.74,54.99-5.62,9.74-11.25,19.49-8.5,29.73l-175.17,303.41Z"/><path id="spearshape-2" class="cls-4" d="M342.83,478.12l6.5,3.75,175.17-303.41c10.25-2.75,15.87-12.49,21.5-22.23,3.75-6.5,18.75-32.48,25.25-66.24-25.99,22.51-40.99,48.49-44.74,54.99-5.62,9.74-11.25,19.49-8.5,29.73l-175.17,303.41Z"/></g><g id="spear-2"><path id="spearshape-3" class="cls-1" d="M557.17,478.12l-6.5,3.75-175.17-303.41c-10.25-2.75-15.87-12.49-21.5-22.23-3.75-6.5-18.75-32.48-25.25-66.24,25.99,22.51,40.99,48.49,44.74,54.99,5.62,9.74,11.25,19.49,8.5,29.73l175.17,303.41Z"/><path id="spearshape-4" class="cls-4" d="M557.17,478.12l-6.5,3.75-175.17-303.41c-10.25-2.75-15.87-12.49-21.5-22.23-3.75-6.5-18.75-32.48-25.25-66.24,25.99,22.51,40.99,48.49,44.74,54.99,5.62,9.74,11.25,19.49,8.5,29.73l175.17,303.41Z"/></g><path class="cls-3" d="M0,210v180h378.75c11.25,30,48.75,90,71.25,90s60-60,71.25-90h378.75v-180h-378.75c-11.25-30-48.75-90-71.25-90s-60,60-71.25,90H0Z"/><path id="deco_r" class="cls-2" d="M521.25,390c11.25-30,18.75-60,18.75-90s-7.5-60-18.75-90c-11.25,30-18.75,60-18.75,90s7.5,60,18.75,90"/><path id="deco_r-2" class="cls-2" d="M378.75,390c-11.25-30-18.75-60-18.75-90s7.5-60,18.75-90c11.25,30,18.75,60,18.75,90s-7.5,60-18.75,90"/><ellipse class="cls-4" cx="450" cy="300" rx="15" ry="22.5"/><path id="deco_br" class="cls-4" d="M453.75,321.94s15,30,15,78.75-15,78.75-15,78.75v-157.5Z"/><path id="deco_br-2" class="cls-4" d="M446.25,278.06s-15-30-15-78.75,15-78.75,15-78.75v157.5Z"/><path id="deco_br-3" class="cls-4" d="M446.25,321.94s-15,30-15,78.75,15,78.75,15,78.75v-157.5Z"/><path id="deco_br-4" class="cls-4" d="M453.75,278.06s15-30,15-78.75-15-78.75-15-78.75v157.5Z"/></svg>