<?xml version="1.0" encoding="UTF-8"?><svg id="_色修正" xmlns="http://www.w3.org/2000/svg" viewBox="0 0 900 600"><defs><style>.cls-1{fill:#00a0f1;}.cls-1,.cls-2{stroke-width:0px;}.cls-2{fill:#fff;}</style></defs><rect class="cls-1" width="900" height="600"/><g id="t"><polygon id="w" class="cls-2" points="450 155.56 405.36 292.93 474.05 315.25 450 155.56"/><polygon id="w-2" class="cls-2" points="450 155.56 494.64 292.93 425.95 315.25 450 155.56"/></g><g id="t-2"><polygon id="w-3" class="cls-2" points="587.37 255.36 442.93 255.36 442.93 327.59 587.37 255.36"/><polygon id="w-4" class="cls-2" points="587.37 255.36 470.52 340.27 428.07 281.84 587.37 255.36"/></g><g id="t-3"><polygon id="w-5" class="cls-2" points="312.63 255.36 429.48 340.27 471.93 281.84 312.63 255.36"/><polygon id="w-6" class="cls-2" points="312.63 255.36 457.07 255.36 457.07 327.59 312.63 255.36"/></g><g id="t-4"><polygon id="w-7" class="cls-2" points="534.9 416.86 490.27 279.48 421.58 301.8 534.9 416.86"/><polygon id="w-8" class="cls-2" points="534.9 416.86 418.04 331.96 460.5 273.53 534.9 416.86"/></g><g id="t-5"><polygon id="w-9" class="cls-2" points="365.1 416.86 481.96 331.96 439.5 273.53 365.1 416.86"/><polygon id="w-10" class="cls-2" points="365.1 416.86 409.73 279.48 478.42 301.8 365.1 416.86"/></g></svg>