<?xml version="1.0" encoding="UTF-8"?><svg id="_色修正" xmlns="http://www.w3.org/2000/svg" xmlns:xlink="http://www.w3.org/1999/xlink" viewBox="0 0 900 600"><defs><style>.cls-1{clip-path:url(#clippath);}.cls-2{fill:none;}.cls-2,.cls-3,.cls-4,.cls-5,.cls-6,.cls-7{stroke-width:0px;}.cls-8{stroke:#c01927;stroke-miterlimit:10;}.cls-8,.cls-4{fill:#e50012;}.cls-3{fill:#231815;}.cls-5{fill:#c01927;}.cls-6{fill:#fff000;}.cls-7{fill:#009844;}</style><clipPath id="clippath"><path class="cls-2" d="M-1000,700H-100v600h-900"/></clipPath></defs><path class="cls-5" d="M0,0h900v600H0V0Z"/><rect class="cls-8" width="900" height="600"/><rect class="cls-7" x="63.92" y="65" width="772.16" height="470"/><path class="cls-6" d="M63.92,65h772.16L63.92,535h772.16L63.92,65Z"/><path class="cls-5" d="M123.93,304.77c8.06,15.02,23.74,31.35,37.43,37.1.22-15.25-5.19-34.79-12.59-50.36,0,0-24.84,13.26-24.84,13.26Z"/><path class="cls-6" d="M110.26,253.26c11.68,24.36-30.3,82.47,39.65,96.09-8.63-11.78-14.19-31.21-12.09-46.82,14.68,5.58,30.12,21.92,36.36,34.41,18.31-66.49-46.96-62.44-63.92-83.68Z"/><circle class="cls-4" cx="450" cy="301.75" r="57.86"/><g id="s"><g id="c"><path id="t" class="cls-6" d="M450,248.71l-16.39,50.44,25.22,8.2"/><path id="t-2" class="cls-6" d="M450,248.71l16.39,50.44-25.22,8.2"/></g><g id="c-2"><path id="t-3" class="cls-6" d="M500.44,285.36h-53.04v26.52"/><path id="t-4" class="cls-6" d="M500.44,285.36l-42.91,31.18-15.59-21.46"/></g><g id="c-3"><path id="t-5" class="cls-6" d="M481.18,344.66l-16.39-50.44-25.22,8.2"/><path id="t-6" class="cls-6" d="M481.18,344.66l-42.91-31.18,15.59-21.46"/></g><g id="c-4"><path id="t-7" class="cls-6" d="M418.82,344.66l42.91-31.18-15.59-21.46"/><path id="t-8" class="cls-6" d="M418.82,344.66l16.39-50.44,25.22,8.2"/></g><g id="c-5"><path id="t-9" class="cls-6" d="M399.56,285.36l42.91,31.18,15.59-21.46"/><path id="t-10" class="cls-6" d="M399.56,285.36h53.04v26.52"/></g></g><g id="s2"><g id="s-2"><g id="c-6"><path id="t-11" class="cls-6" d="M252.47,10.04l-8.23,25.34,12.67,4.12"/><path id="t-12" class="cls-6" d="M252.47,10.04l8.23,25.34-12.67,4.12"/></g><g id="c-7"><path id="t-13" class="cls-6" d="M277.81,28.45h-26.64v13.32"/><path id="t-14" class="cls-6" d="M277.81,28.45l-21.55,15.66-7.83-10.78"/></g><g id="c-8"><path id="t-15" class="cls-6" d="M268.13,58.23l-8.23-25.34-12.67,4.12"/><path id="t-16" class="cls-6" d="M268.13,58.23l-21.55-15.66,7.83-10.78"/></g><g id="c-9"><path id="t-17" class="cls-6" d="M236.81,58.23l21.55-15.66-7.83-10.78"/><path id="t-18" class="cls-6" d="M236.81,58.23l8.23-25.34,12.67,4.12"/></g><g id="c-10"><path id="t-19" class="cls-6" d="M227.13,28.45l21.55,15.66,7.83-10.78"/><path id="t-20" class="cls-6" d="M227.13,28.45h26.64v13.32"/></g></g></g><g id="s2-2"><g id="s-3"><g id="c-11"><path id="t-21" class="cls-6" d="M450,10.04l-8.23,25.34,12.67,4.12"/><path id="t-22" class="cls-6" d="M450,10.04l8.23,25.34-12.67,4.12"/></g><g id="c-12"><path id="t-23" class="cls-6" d="M475.34,28.45h-26.64v13.32"/><path id="t-24" class="cls-6" d="M475.34,28.45l-21.55,15.66-7.83-10.78"/></g><g id="c-13"><path id="t-25" class="cls-6" d="M465.66,58.23l-8.23-25.34-12.67,4.12"/><path id="t-26" class="cls-6" d="M465.66,58.23l-21.55-15.66,7.83-10.78"/></g><g id="c-14"><path id="t-27" class="cls-6" d="M434.34,58.23l21.55-15.66-7.83-10.78"/><path id="t-28" class="cls-6" d="M434.34,58.23l8.23-25.34,12.67,4.12"/></g><g id="c-15"><path id="t-29" class="cls-6" d="M424.66,28.45l21.55,15.66,7.83-10.78"/><path id="t-30" class="cls-6" d="M424.66,28.45h26.64v13.32"/></g></g></g><g id="s2-3"><g id="s-4"><g id="c-16"><path id="t-31" class="cls-6" d="M647.53,10.04l-8.23,25.34,12.67,4.12"/><path id="t-32" class="cls-6" d="M647.53,10.04l8.23,25.34-12.67,4.12"/></g><g id="c-17"><path id="t-33" class="cls-6" d="M672.87,28.45h-26.64v13.32"/><path id="t-34" class="cls-6" d="M672.87,28.45l-21.55,15.66-7.83-10.78"/></g><g id="c-18"><path id="t-35" class="cls-6" d="M663.19,58.23l-8.23-25.34-12.67,4.12"/><path id="t-36" class="cls-6" d="M663.19,58.23l-21.55-15.66,7.83-10.78"/></g><g id="c-19"><path id="t-37" class="cls-6" d="M631.87,58.23l21.55-15.66-7.83-10.78"/><path id="t-38" class="cls-6" d="M631.87,58.23l8.23-25.34,12.67,4.12"/></g><g id="c-20"><path id="t-39" class="cls-6" d="M622.19,28.45l21.55,15.66,7.83-10.78"/><path id="t-40" class="cls-6" d="M622.19,28.45h26.64v13.32"/></g></g></g><g id="s2-4"><g id="s-5"><g id="c-21"><path id="t-41" class="cls-6" d="M252.47,545.1l-8.23,25.34,12.67,4.12"/><path id="t-42" class="cls-6" d="M252.47,545.1l8.23,25.34-12.67,4.12"/></g><g id="c-22"><path id="t-43" class="cls-6" d="M277.81,563.51h-26.64v13.32"/><path id="t-44" class="cls-6" d="M277.81,563.51l-21.55,15.66-7.83-10.78"/></g><g id="c-23"><path id="t-45" class="cls-6" d="M268.13,593.29l-8.23-25.34-12.67,4.12"/><path id="t-46" class="cls-6" d="M268.13,593.29l-21.55-15.66,7.83-10.78"/></g><g id="c-24"><path id="t-47" class="cls-6" d="M236.81,593.29l21.55-15.66-7.83-10.78"/><path id="t-48" class="cls-6" d="M236.81,593.29l8.23-25.34,12.67,4.12"/></g><g id="c-25"><path id="t-49" class="cls-6" d="M227.13,563.51l21.55,15.66,7.83-10.78"/><path id="t-50" class="cls-6" d="M227.13,563.51h26.64v13.32"/></g></g></g><g id="s2-5"><g id="s-6"><g id="c-26"><path id="t-51" class="cls-6" d="M450,545.1l-8.23,25.34,12.67,4.12"/><path id="t-52" class="cls-6" d="M450,545.1l8.23,25.34-12.67,4.12"/></g><g id="c-27"><path id="t-53" class="cls-6" d="M475.34,563.51h-26.64v13.32"/><path id="t-54" class="cls-6" d="M475.34,563.51l-21.55,15.66-7.83-10.78"/></g><g id="c-28"><path id="t-55" class="cls-6" d="M465.66,593.29l-8.23-25.34-12.67,4.12"/><path id="t-56" class="cls-6" d="M465.66,593.29l-21.55-15.66,7.83-10.78"/></g><g id="c-29"><path id="t-57" class="cls-6" d="M434.34,593.29l21.55-15.66-7.83-10.78"/><path id="t-58" class="cls-6" d="M434.34,593.29l8.23-25.34,12.67,4.12"/></g><g id="c-30"><path id="t-59" class="cls-6" d="M424.66,563.51l21.55,15.66,7.83-10.78"/><path id="t-60" class="cls-6" d="M424.66,563.51h26.64v13.32"/></g></g></g><g id="s2-6"><g id="s-7"><g id="c-31"><path id="t-61" class="cls-6" d="M647.53,545.1l-8.23,25.34,12.67,4.12"/><path id="t-62" class="cls-6" d="M647.53,545.1l8.23,25.34-12.67,4.12"/></g><g id="c-32"><path id="t-63" class="cls-6" d="M672.87,563.51h-26.64v13.32"/><path id="t-64" class="cls-6" d="M672.87,563.51l-21.55,15.66-7.83-10.78"/></g><g id="c-33"><path id="t-65" class="cls-6" d="M663.19,593.29l-8.23-25.34-12.67,4.12"/><path id="t-66" class="cls-6" d="M663.19,593.29l-21.55-15.66,7.83-10.78"/></g><g id="c-34"><path id="t-67" class="cls-6" d="M631.87,593.29l21.55-15.66-7.83-10.78"/><path id="t-68" class="cls-6" d="M631.87,593.29l8.23-25.34,12.67,4.12"/></g><g id="c-35"><path id="t-69" class="cls-6" d="M622.19,563.51l21.55,15.66,7.83-10.78"/><path id="t-70" class="cls-6" d="M622.19,563.51h26.64v13.32"/></g></g></g><g class="cls-1"><path class="cls-3" d="M-1450,1600L350,400v1200L-1450,400"/><path class="cls-6" d="M393.3,1680.91l-943.3-628.87-875.98,583.99-48.04-72.06,845.96-563.97-845.96-563.97,48.04-72.06,875.98,583.99L393.3,319.09v1361.82ZM-471.94,1000l778.64,519.09V480.91L-471.94,1000Z"/></g></svg>