<?xml version="1.0" encoding="UTF-8"?><svg id="_色修正" xmlns="http://www.w3.org/2000/svg" xmlns:xlink="http://www.w3.org/1999/xlink" viewBox="0 0 900 600"><defs><style>.cls-1{fill:none;}.cls-1,.cls-2,.cls-3,.cls-4,.cls-5,.cls-6{stroke-width:0px;}.cls-2{fill:#255894;}.cls-3{fill:#e50012;}.cls-4{fill:#fff;}.cls-5{fill:#eed54f;}.cls-6{fill:#005bba;}</style><clipPath id="clippath"><rect class="cls-1" y="-800" width="900" height="600"/></clipPath></defs><rect class="cls-3" width="900" height="600"/><rect class="cls-6" width="900" height="400"/><rect class="cls-4" width="900" height="200"/><path class="cls-6" d="M259.76,202.61l6.3-92.98c-49.13-23.28-106.11-23.28-155.24,0l6.3,92.98c2.83,41.78,31.23,77.45,71.32,89.55,40.09-12.11,68.49-47.77,71.32-89.55"/><path class="cls-4" d="M130.23,215.21c6.75,30.37,28.79,55.06,58.21,65.18,29.42-10.12,51.47-34.81,58.21-65.18l-29.11-38.81-11.64,15.52-17.46-34.93-17.46,34.93-11.64-15.52-29.11,38.81"/><g id="wave"><path class="cls-2" d="M132.83,224.91c5.36,9.28,17.23,12.46,26.51,7.1h0c6-3.47,13.4-3.47,19.4,0,6,3.47,13.4,3.47,19.4,0,6-3.47,13.4-3.47,19.4,0,9.28,5.36,21.15,2.18,26.51-7.1,0,0,0,0,0,0v5.6c-5.36,9.28-17.23,12.46-26.51,7.1h0c-6-3.47-13.4-3.47-19.4,0-6,3.47-13.4,3.47-19.4,0-6-3.47-13.4-3.47-19.4,0-9.28,5.36-21.15,2.18-26.51-7.1,0,0,0,0,0,0v-5.6Z"/></g><g id="wave-2"><path class="cls-2" d="M132.83,236.12c5.36,9.28,17.23,12.46,26.51,7.1h0c6-3.47,13.4-3.47,19.4,0,6,3.47,13.4,3.47,19.4,0,6-3.47,13.4-3.47,19.4,0,9.28,5.36,21.15,2.18,26.51-7.1,0,0,0,0,0,0v5.6c-5.36,9.28-17.23,12.46-26.51,7.1h0c-6-3.47-13.4-3.47-19.4,0-6,3.47-13.4,3.47-19.4,0-6-3.47-13.4-3.47-19.4,0-9.28,5.36-21.15,2.18-26.51-7.1,0,0,0,0,0,0v-5.6Z"/></g><g id="s"><path class="cls-5" d="M188.44,130.32l1.46,4.76,4.85-1.12-3.39,3.64,3.39,3.64-4.85-1.12-1.46,4.76-1.46-4.76-4.85,1.12,3.39-3.64-3.39-3.64,4.85,1.12,1.46-4.76Z"/></g><g id="s-2"><path class="cls-5" d="M166.61,101.21l1.46,4.76,4.85-1.12-3.39,3.64,3.39,3.64-4.85-1.12-1.46,4.76-1.46-4.76-4.85,1.12,3.39-3.64-3.39-3.64,4.85,1.12,1.46-4.76Z"/></g><g id="s-3"><path class="cls-5" d="M210.27,101.21l1.46,4.76,4.85-1.12-3.39,3.64,3.39,3.64-4.85-1.12-1.46,4.76-1.46-4.76-4.85,1.12,3.39-3.64-3.39-3.64,4.85,1.12,1.46-4.76Z"/></g><path class="cls-3" d="M116.27,107.16l6.44,95.08c2.63,38.83,28.68,72.14,65.73,84.06,37.05-11.92,63.1-45.22,65.73-84.06l6.44-95.08c1.8.85,3.62,1.68,5.45,2.47l-6.3,92.98c-2.83,41.78-31.23,77.45-71.32,89.55-40.09-12.11-68.49-47.77-71.32-89.55l-6.3-92.98c1.83-.79,3.64-1.62,5.45-2.47"/></svg>