<?xml version="1.0" encoding="UTF-8"?><svg id="_色修正" xmlns="http://www.w3.org/2000/svg" xmlns:xlink="http://www.w3.org/1999/xlink" viewBox="0 0 900 600"><defs><style>.cls-1{clip-path:url(#clippath);}.cls-2{fill:none;}.cls-2,.cls-3,.cls-4,.cls-5,.cls-6,.cls-7,.cls-8,.cls-9{stroke-width:0px;}.cls-3{fill:#981e2c;}.cls-4{fill:#57a26a;}.cls-5{fill:#373739;}.cls-6{fill:#af4147;}.cls-7{fill:#fff;}.cls-8{fill:#e4aa49;}.cls-9{fill:#006224;}</style><clipPath id="clippath"><rect class="cls-2" width="900" height="600"/></clipPath></defs><rect class="cls-9" width="900" height="600"/><path id="crescent" class="cls-7" d="M446.82,66.54c26.6,11.42,45.24,37.85,45.24,68.63,0,41.22-33.43,74.66-74.65,74.66-18.46,0-35.35-6.7-48.38-17.8,8.06,3.46,16.87,5.55,26.15,5.95,41.18,1.8,76.04-30.14,77.84-71.33,1.04-23.91-9.29-45.69-26.2-60.1h0Z"/><path id="star" class="cls-7" d="M375.62,121.42l8.46-26.03-22.14,16.09h27.37l-22.14-16.09,8.46,26.03Z"/><path id="star-2" class="cls-7" d="M375.62,83.02l8.46-26.03-22.14,16.09h27.37l-22.14-16.09,8.46,26.03Z"/><path id="star-3" class="cls-7" d="M413.55,102.7l8.46-26.03-22.14,16.09h27.37l-22.14-16.09,8.46,26.03Z"/><path id="star-4" class="cls-7" d="M337.68,140.14l8.46-26.03-22.14,16.09h27.37l-22.14-16.09,8.46,26.03Z"/><path id="star-5" class="cls-7" d="M375.62,159.82l8.46-26.03-22.14,16.09h27.37l-22.14-16.09,8.46,26.03Z"/><g class="cls-1"><g id="carpets"><rect class="cls-3" x="108" width="162" height="600"/><g id="ornm5"><g id="ornm"><path class="cls-5" d="M108-39.62v5.88l9.11,8.53-3.07,2.86,6.51,6.04-2.86,2.6v-3.76h-5.56v4.5l12.55,11.76h6.36l.69-4.13h-3.65l3.97-3.71L142,0l-9.96,9.11-3.97-3.71h3.65l-.69-4.18h-6.36l-12.55,11.76v4.5h5.56v-3.76l2.86,2.6-6.51,6.04,3.07,2.91-9.11,8.47v5.88l15.41-14.35-3.07-2.91,6.46-6.04-5.56-5.19,3.71-3.39,7.1,6.57L147.62,0l-15.57-14.3-7.1,6.62-3.71-3.44,5.56-5.19-6.46-6.04,3.07-2.86-15.41-14.41h0ZM108-11.07V11.07l3.6-3.65V3.12h3.81L118.49,0l-3.07-3.07h-3.81v-4.34l-3.6-3.65h0ZM134.27-3.23l-.53,3.02.53,3.07,3.28-3.07-3.28-3.02Z"/><path class="cls-8" d="M108-38.98v4.66l9.75,9.11-3.07,2.86,6.51,6.04-3.92,3.65v-4.4h-4.71v3.92l12.34,11.49h5.72l.58-3.28h-4.24l5.08-4.77L142.64,0l-10.59,9.69-5.08-4.71h4.24l-.58-3.34h-5.72l-12.34,11.49v3.92h4.71v-4.4l3.92,3.65-6.51,6.04,3.07,2.91-9.75,9.06v4.66l14.78-13.72-3.07-2.91,6.46-6.04-5.56-5.19,4.34-4.03,7.1,6.62L146.93,0l-14.88-13.72-7.1,6.62-4.34-4.03,5.56-5.19-6.46-6.04,3.07-2.86-14.78-13.77h0ZM108-10.43V10.43l3.18-3.18V2.65h4.08L117.9,0l-2.65-2.65h-4.08v-4.61l-3.18-3.18h0ZM134.59-2.38l-.37,2.17.37,2.17,2.33-2.17-2.33-2.17Z"/></g><g id="ornm-2"><path class="cls-5" d="M108,69.59v5.88l9.11,8.53-3.07,2.86,6.51,6.04-2.86,2.6v-3.76h-5.56v4.5l12.55,11.76h6.36l.69-4.13h-3.65l3.97-3.71,9.96,9.06-9.96,9.11-3.97-3.71h3.65l-.69-4.18h-6.36l-12.55,11.76v4.5h5.56v-3.76l2.86,2.6-6.51,6.04,3.07,2.91-9.11,8.47v5.88l15.41-14.35-3.07-2.91,6.46-6.04-5.56-5.19,3.71-3.39,7.1,6.57,15.57-14.3-15.57-14.3-7.1,6.62-3.71-3.44,5.56-5.19-6.46-6.04,3.07-2.86-15.41-14.41h0ZM108,98.14v22.14l3.6-3.65v-4.29h3.81l3.07-3.12-3.07-3.07h-3.81v-4.34l-3.6-3.65h0ZM134.27,105.98l-.53,3.02.53,3.07,3.28-3.07-3.28-3.02Z"/><path class="cls-8" d="M108,70.22v4.66l9.75,9.11-3.07,2.86,6.51,6.04-3.92,3.65v-4.4h-4.71v3.92l12.34,11.49h5.72l.58-3.28h-4.24l5.08-4.77,10.59,9.69-10.59,9.69-5.08-4.71h4.24l-.58-3.34h-5.72l-12.34,11.49v3.92h4.71v-4.4l3.92,3.65-6.51,6.04,3.07,2.91-9.75,9.06v4.66l14.78-13.72-3.07-2.91,6.46-6.04-5.56-5.19,4.34-4.03,7.1,6.62,14.88-13.72-14.88-13.72-7.1,6.62-4.34-4.03,5.56-5.19-6.46-6.04,3.07-2.86-14.78-13.77h0ZM108,98.77v20.87l3.18-3.18v-4.61h4.08l2.65-2.65-2.65-2.65h-4.08v-4.61l-3.18-3.18h0ZM134.59,106.82l-.37,2.17.37,2.17,2.33-2.17-2.33-2.17Z"/></g><g id="ornm-3"><path class="cls-5" d="M108,182.39v5.88l9.11,8.53-3.07,2.86,6.51,6.04-2.86,2.6v-3.76h-5.56v4.5l12.55,11.76h6.36l.69-4.13h-3.65l3.97-3.71,9.96,9.06-9.96,9.11-3.97-3.71h3.65l-.69-4.18h-6.36l-12.55,11.76v4.5h5.56v-3.76l2.86,2.6-6.51,6.04,3.07,2.91-9.11,8.47v5.88l15.41-14.35-3.07-2.91,6.46-6.04-5.56-5.19,3.71-3.39,7.1,6.57,15.57-14.3-15.57-14.3-7.1,6.62-3.71-3.44,5.56-5.19-6.46-6.04,3.07-2.86-15.41-14.41h0ZM108,210.93v22.14l3.6-3.65v-4.29h3.81l3.07-3.12-3.07-3.07h-3.81v-4.34l-3.6-3.65h0ZM134.27,218.77l-.53,3.02.53,3.07,3.28-3.07-3.28-3.02Z"/><path class="cls-8" d="M108,183.02v4.66l9.75,9.11-3.07,2.86,6.51,6.04-3.92,3.65v-4.4h-4.71v3.92l12.34,11.49h5.72l.58-3.28h-4.24l5.08-4.77,10.59,9.69-10.59,9.69-5.08-4.71h4.24l-.58-3.34h-5.72l-12.34,11.49v3.92h4.71v-4.4l3.92,3.65-6.51,6.04,3.07,2.91-9.75,9.06v4.66l14.78-13.72-3.07-2.91,6.46-6.04-5.56-5.19,4.34-4.03,7.1,6.62,14.88-13.72-14.88-13.72-7.1,6.62-4.34-4.03,5.56-5.19-6.46-6.04,3.07-2.86-14.78-13.77h0ZM108,211.57v20.87l3.18-3.18v-4.61h4.08l2.65-2.65-2.65-2.65h-4.08v-4.61l-3.18-3.18h0ZM134.59,219.62l-.37,2.17.37,2.17,2.33-2.17-2.33-2.17Z"/></g><g id="ornm-4"><path class="cls-5" d="M108,295.18v5.88l9.11,8.53-3.07,2.86,6.51,6.04-2.86,2.6v-3.76h-5.56v4.5l12.55,11.76h6.36l.69-4.13h-3.65l3.97-3.71,9.96,9.06-9.96,9.11-3.97-3.71h3.65l-.69-4.18h-6.36l-12.55,11.76v4.5h5.56v-3.76l2.86,2.6-6.51,6.04,3.07,2.91-9.11,8.47v5.88l15.41-14.35-3.07-2.91,6.46-6.04-5.56-5.19,3.71-3.39,7.1,6.57,15.57-14.3-15.57-14.3-7.1,6.62-3.71-3.44,5.56-5.19-6.46-6.04,3.07-2.86-15.41-14.41h0ZM108,323.73v22.14l3.6-3.65v-4.29h3.81l3.07-3.12-3.07-3.07h-3.81v-4.34l-3.6-3.65h0ZM134.27,331.57l-.53,3.02.53,3.07,3.28-3.07-3.28-3.02Z"/><path class="cls-8" d="M108,295.82v4.66l9.75,9.11-3.07,2.86,6.51,6.04-3.92,3.65v-4.4h-4.71v3.92l12.34,11.49h5.72l.58-3.28h-4.24l5.08-4.77,10.59,9.69-10.59,9.69-5.08-4.71h4.24l-.58-3.34h-5.72l-12.34,11.49v3.92h4.71v-4.4l3.92,3.65-6.51,6.04,3.07,2.91-9.75,9.06v4.66l14.78-13.72-3.07-2.91,6.46-6.04-5.56-5.19,4.34-4.03,7.1,6.62,14.88-13.72-14.88-13.72-7.1,6.62-4.34-4.03,5.56-5.19-6.46-6.04,3.07-2.86-14.78-13.77h0ZM108,324.37v20.87l3.18-3.18v-4.61h4.08l2.65-2.65-2.65-2.65h-4.08v-4.61l-3.18-3.18h0ZM134.59,332.42l-.37,2.17.37,2.17,2.33-2.17-2.33-2.17Z"/></g><g id="ornm-5"><path class="cls-5" d="M108,407.98v5.88l9.11,8.53-3.07,2.86,6.51,6.04-2.86,2.6v-3.76h-5.56v4.5l12.55,11.76h6.36l.69-4.13h-3.65l3.97-3.71,9.96,9.06-9.96,9.11-3.97-3.71h3.65l-.69-4.18h-6.36l-12.55,11.76v4.5h5.56v-3.76l2.86,2.6-6.51,6.04,3.07,2.91-9.11,8.47v5.88l15.41-14.35-3.07-2.91,6.46-6.04-5.56-5.19,3.71-3.39,7.1,6.57,15.57-14.3-15.57-14.3-7.1,6.62-3.71-3.44,5.56-5.19-6.46-6.04,3.07-2.86-15.41-14.41h0ZM108,436.53v22.14l3.6-3.65v-4.29h3.81l3.07-3.12-3.07-3.07h-3.81v-4.34l-3.6-3.65h0ZM134.27,444.37l-.53,3.02.53,3.07,3.28-3.07-3.28-3.02Z"/><path class="cls-8" d="M108,408.62v4.66l9.75,9.11-3.07,2.86,6.51,6.04-3.92,3.65v-4.4h-4.71v3.92l12.34,11.49h5.72l.58-3.28h-4.24l5.08-4.77,10.59,9.69-10.59,9.69-5.08-4.71h4.24l-.58-3.34h-5.72l-12.34,11.49v3.92h4.71v-4.4l3.92,3.65-6.51,6.04,3.07,2.91-9.75,9.06v4.66l14.78-13.72-3.07-2.91,6.46-6.04-5.56-5.19,4.34-4.03,7.1,6.62,14.88-13.72-14.88-13.72-7.1,6.62-4.34-4.03,5.56-5.19-6.46-6.04,3.07-2.86-14.78-13.77h0ZM108,437.16v20.87l3.18-3.18v-4.61h4.08l2.65-2.65-2.65-2.65h-4.08v-4.61l-3.18-3.18h0ZM134.59,445.21l-.37,2.17.37,2.17,2.33-2.17-2.33-2.17Z"/></g></g><g id="ornm5-2"><g id="ornm-6"><path class="cls-5" d="M270-39.62v5.88l-9.11,8.53,3.07,2.86-6.51,6.04,2.86,2.6v-3.76h5.56v4.5l-12.55,11.76h-6.36l-.69-4.13h3.65l-3.97-3.71L235.99,0l9.96,9.11,3.97-3.71h-3.65l.69-4.18h6.36l12.55,11.76v4.5h-5.56v-3.76l-2.86,2.6,6.51,6.04-3.07,2.91,9.11,8.47v5.88l-15.41-14.35,3.07-2.91-6.46-6.04,5.56-5.19-3.71-3.39-7.1,6.57L230.38,0l15.57-14.3,7.1,6.62,3.71-3.44-5.56-5.19,6.46-6.04-3.07-2.86,15.41-14.41h0ZM270-11.07V11.07l-3.6-3.65V3.12h-3.81L259.51,0l3.07-3.07h3.81v-4.34l3.6-3.65h0ZM243.73-3.23l.53,3.02-.53,3.07-3.28-3.07,3.28-3.02Z"/><path class="cls-8" d="M270-38.98v4.66l-9.75,9.11,3.07,2.86-6.51,6.04,3.92,3.65v-4.4h4.71v3.92l-12.34,11.49h-5.72l-.58-3.28h4.24l-5.08-4.77L235.36,0l10.59,9.69,5.08-4.71h-4.24l.58-3.34h5.72l12.34,11.49v3.92h-4.71v-4.4l-3.92,3.65,6.51,6.04-3.07,2.91,9.75,9.06v4.66l-14.78-13.72,3.07-2.91-6.46-6.04,5.56-5.19-4.34-4.03-7.1,6.62L231.07,0l14.88-13.72,7.1,6.62,4.34-4.03-5.56-5.19,6.46-6.04-3.07-2.86,14.78-13.77h0ZM270-10.43V10.43l-3.18-3.18V2.65h-4.08L260.09,0l2.65-2.65h4.08v-4.61l3.18-3.18h0ZM243.41-2.38l.37,2.17-.37,2.17-2.33-2.17,2.33-2.17Z"/></g><g id="ornm-7"><path class="cls-5" d="M270,69.59v5.88l-9.11,8.53,3.07,2.86-6.51,6.04,2.86,2.6v-3.76h5.56v4.5l-12.55,11.76h-6.36l-.69-4.13h3.65l-3.97-3.71-9.96,9.06,9.96,9.11,3.97-3.71h-3.65l.69-4.18h6.36l12.55,11.76v4.5h-5.56v-3.76l-2.86,2.6,6.51,6.04-3.07,2.91,9.11,8.47v5.88l-15.41-14.35,3.07-2.91-6.46-6.04,5.56-5.19-3.71-3.39-7.1,6.57-15.57-14.3,15.57-14.3,7.1,6.62,3.71-3.44-5.56-5.19,6.46-6.04-3.07-2.86,15.41-14.41h0ZM270,98.14v22.14l-3.6-3.65v-4.29h-3.81l-3.07-3.12,3.07-3.07h3.81v-4.34l3.6-3.65h0ZM243.73,105.98l.53,3.02-.53,3.07-3.28-3.07,3.28-3.02Z"/><path class="cls-8" d="M270,70.22v4.66l-9.75,9.11,3.07,2.86-6.51,6.04,3.92,3.65v-4.4h4.71v3.92l-12.34,11.49h-5.72l-.58-3.28h4.24l-5.08-4.77-10.59,9.69,10.59,9.69,5.08-4.71h-4.24l.58-3.34h5.72l12.34,11.49v3.92h-4.71v-4.4l-3.92,3.65,6.51,6.04-3.07,2.91,9.75,9.06v4.66l-14.78-13.72,3.07-2.91-6.46-6.04,5.56-5.19-4.34-4.03-7.1,6.62-14.88-13.72,14.88-13.72,7.1,6.62,4.34-4.03-5.56-5.19,6.46-6.04-3.07-2.86,14.78-13.77h0ZM270,98.77v20.87l-3.18-3.18v-4.61h-4.08l-2.65-2.65,2.65-2.65h4.08v-4.61l3.18-3.18h0ZM243.41,106.82l.37,2.17-.37,2.17-2.33-2.17,2.33-2.17Z"/></g><g id="ornm-8"><path class="cls-5" d="M270,182.39v5.88l-9.11,8.53,3.07,2.86-6.51,6.04,2.86,2.6v-3.76h5.56v4.5l-12.55,11.76h-6.36l-.69-4.13h3.65l-3.97-3.71-9.96,9.06,9.96,9.11,3.97-3.71h-3.65l.69-4.18h6.36l12.55,11.76v4.5h-5.56v-3.76l-2.86,2.6,6.51,6.04-3.07,2.91,9.11,8.47v5.88l-15.41-14.35,3.07-2.91-6.46-6.04,5.56-5.19-3.71-3.39-7.1,6.57-15.57-14.3,15.57-14.3,7.1,6.62,3.71-3.44-5.56-5.19,6.46-6.04-3.07-2.86,15.41-14.41h0ZM270,210.93v22.14l-3.6-3.65v-4.29h-3.81l-3.07-3.12,3.07-3.07h3.81v-4.34l3.6-3.65h0ZM243.73,218.77l.53,3.02-.53,3.07-3.28-3.07,3.28-3.02Z"/><path class="cls-8" d="M270,183.02v4.66l-9.75,9.11,3.07,2.86-6.51,6.04,3.92,3.65v-4.4h4.71v3.92l-12.34,11.49h-5.72l-.58-3.28h4.24l-5.08-4.77-10.59,9.69,10.59,9.69,5.08-4.71h-4.24l.58-3.34h5.72l12.34,11.49v3.92h-4.71v-4.4l-3.92,3.65,6.51,6.04-3.07,2.91,9.75,9.06v4.66l-14.78-13.72,3.07-2.91-6.46-6.04,5.56-5.19-4.34-4.03-7.1,6.62-14.88-13.72,14.88-13.72,7.1,6.62,4.34-4.03-5.56-5.19,6.46-6.04-3.07-2.86,14.78-13.77h0ZM270,211.57v20.87l-3.18-3.18v-4.61h-4.08l-2.65-2.65,2.65-2.65h4.08v-4.61l3.18-3.18h0ZM243.41,219.62l.37,2.17-.37,2.17-2.33-2.17,2.33-2.17Z"/></g><g id="ornm-9"><path class="cls-5" d="M270,295.18v5.88l-9.11,8.53,3.07,2.86-6.51,6.04,2.86,2.6v-3.76h5.56v4.5l-12.55,11.76h-6.36l-.69-4.13h3.65l-3.97-3.71-9.96,9.06,9.96,9.11,3.97-3.71h-3.65l.69-4.18h6.36l12.55,11.76v4.5h-5.56v-3.76l-2.86,2.6,6.51,6.04-3.07,2.91,9.11,8.47v5.88l-15.41-14.35,3.07-2.91-6.46-6.04,5.56-5.19-3.71-3.39-7.1,6.57-15.57-14.3,15.57-14.3,7.1,6.62,3.71-3.44-5.56-5.19,6.46-6.04-3.07-2.86,15.41-14.41h0ZM270,323.73v22.14l-3.6-3.65v-4.29h-3.81l-3.07-3.12,3.07-3.07h3.81v-4.34l3.6-3.65h0ZM243.73,331.57l.53,3.02-.53,3.07-3.28-3.07,3.28-3.02Z"/><path class="cls-8" d="M270,295.82v4.66l-9.75,9.11,3.07,2.86-6.51,6.04,3.92,3.65v-4.4h4.71v3.92l-12.34,11.49h-5.72l-.58-3.28h4.24l-5.08-4.77-10.59,9.69,10.59,9.69,5.08-4.71h-4.24l.58-3.34h5.72l12.34,11.49v3.92h-4.71v-4.4l-3.92,3.65,6.51,6.04-3.07,2.91,9.75,9.06v4.66l-14.78-13.72,3.07-2.91-6.46-6.04,5.56-5.19-4.34-4.03-7.1,6.62-14.88-13.72,14.88-13.72,7.1,6.62,4.34-4.03-5.56-5.19,6.46-6.04-3.07-2.86,14.78-13.77h0ZM270,324.37v20.87l-3.18-3.18v-4.61h-4.08l-2.65-2.65,2.65-2.65h4.08v-4.61l3.18-3.18h0ZM243.41,332.42l.37,2.17-.37,2.17-2.33-2.17,2.33-2.17Z"/></g><g id="ornm-10"><path class="cls-5" d="M270,407.98v5.88l-9.11,8.53,3.07,2.86-6.51,6.04,2.86,2.6v-3.76h5.56v4.5l-12.55,11.76h-6.36l-.69-4.13h3.65l-3.97-3.71-9.96,9.06,9.96,9.11,3.97-3.71h-3.65l.69-4.18h6.36l12.55,11.76v4.5h-5.56v-3.76l-2.86,2.6,6.51,6.04-3.07,2.91,9.11,8.47v5.88l-15.41-14.35,3.07-2.91-6.46-6.04,5.56-5.19-3.71-3.39-7.1,6.57-15.57-14.3,15.57-14.3,7.1,6.62,3.71-3.44-5.56-5.19,6.46-6.04-3.07-2.86,15.41-14.41h0ZM270,436.53v22.14l-3.6-3.65v-4.29h-3.81l-3.07-3.12,3.07-3.07h3.81v-4.34l3.6-3.65h0ZM243.73,444.37l.53,3.02-.53,3.07-3.28-3.07,3.28-3.02Z"/><path class="cls-8" d="M270,408.62v4.66l-9.75,9.11,3.07,2.86-6.51,6.04,3.92,3.65v-4.4h4.71v3.92l-12.34,11.49h-5.72l-.58-3.28h4.24l-5.08-4.77-10.59,9.69,10.59,9.69,5.08-4.71h-4.24l.58-3.34h5.72l12.34,11.49v3.92h-4.71v-4.4l-3.92,3.65,6.51,6.04-3.07,2.91,9.75,9.06v4.66l-14.78-13.72,3.07-2.91-6.46-6.04,5.56-5.19-4.34-4.03-7.1,6.62-14.88-13.72,14.88-13.72,7.1,6.62,4.34-4.03-5.56-5.19,6.46-6.04-3.07-2.86,14.78-13.77h0ZM270,437.16v20.87l-3.18-3.18v-4.61h-4.08l-2.65-2.65,2.65-2.65h4.08v-4.61l3.18-3.18h0ZM243.41,445.21l.37,2.17-.37,2.17-2.33-2.17,2.33-2.17Z"/></g></g><path id="branch" class="cls-8" d="M121.14,530.82c.8,3.41,3.51,5.98,4.15,9.51,1.29-3.68,2.48-6.77,1.59-10.8-.64-2.88-3.06-4.94-3.34-7.9-2.64,2.38-3.21,5.75-2.41,9.19h0ZM120.47,545.1c2.24,3.08,5.36,5.43,8.8,7.01-.68-2.69.59-4.72,2.01-6.86,1.7-2.57,2.53-5.1,1.14-8.07-.65,1.54-1.51,2.82-2.53,4.14-1.51,2.06-2.5,3.88-2.73,6.52-1.74-1.29-2.51-3.22-3.44-5.09-1.42-2.67-3.71-4.91-6.34-6.37.7,3,1.24,6.17,3.09,8.72h0ZM133.05,554.27c-.48,1.71-.89,3.4-.8,5.19-1.48-1.6-3.45-2.8-5.21-4.08-2.39-1.93-5.18-3.3-7.13-5.76.29,3.62,1.84,6.58,4.79,8.78,3.11,2.33,6.87,3.58,9.93,6.03-.46-3.3.75-5.94,1.78-8.97.86-2.9.03-5.83-1.94-8.04.03,2.45-.74,4.55-1.43,6.85h0ZM140.03,565.4c.65,2.5,2.44,4.53,3.66,6.76-3.3-1.02-6.21-2.81-9.19-4.5-3.55-1.93-7.41-3.16-10.62-5.72,1.6,5.92,5.57,9.36,11.37,11.11,3.97,1.2,7.31.6,12.12,2.55-.55-3.26-1.52-6.78-3.07-9.71-1.2-2.13-2.52-4.22-3.26-6.56-1.07,1.92-1.58,3.88-1.01,6.07h0ZM152.17,574.46c1.14,1.95,2.64,3.58,4.49,4.88-4.68.3-8.45-2.67-13.02-2.8-2.82-.08-5.5.8-8.37.53,3.41,2.3,6.99,4.31,11.14,4.85,5.4.7,10.38-.66,16.34-.13-2.78-1.96-4.18-4.6-5.91-7.42-2.26-3.53-4.39-6.05-8.79-6.62,1.76,1.98,2.79,4.44,4.12,6.71h0ZM168.8,582.24c-8.25,1.4-16.16,3.22-24.58,3.3,9.43,3.29,18.32,3.88,27.67.49,5.05-1.83,8.93-2.82,12.75-2.54,5.58.4,12.36,2.6,19.86,10.52l2.95-2.36c-10.76-9.58-24.83-11.75-38.65-9.4h0Z"/><path id="branch-2" class="cls-8" d="M256.9,530.82c-.8,3.41-3.51,5.98-4.15,9.51-1.29-3.68-2.48-6.77-1.59-10.8.64-2.88,3.06-4.94,3.34-7.9,2.64,2.38,3.21,5.75,2.41,9.19h0ZM257.57,545.1c-2.24,3.08-5.36,5.43-8.8,7.01.68-2.69-.59-4.72-2.01-6.86-1.7-2.57-2.53-5.1-1.14-8.07.65,1.54,1.51,2.82,2.53,4.14,1.51,2.06,2.5,3.88,2.73,6.52,1.74-1.29,2.51-3.22,3.44-5.09,1.42-2.67,3.71-4.91,6.34-6.37-.7,3-1.24,6.17-3.09,8.72h0ZM244.99,554.27c.48,1.71.89,3.4.8,5.19,1.48-1.6,3.45-2.8,5.21-4.08,2.39-1.93,5.18-3.3,7.13-5.76-.29,3.62-1.84,6.58-4.79,8.78-3.11,2.33-6.87,3.58-9.93,6.03.46-3.3-.75-5.94-1.78-8.97-.86-2.9-.03-5.83,1.94-8.04-.03,2.45.74,4.55,1.43,6.85h0ZM238,565.4c-.65,2.5-2.44,4.53-3.66,6.76,3.3-1.02,6.21-2.81,9.19-4.5,3.55-1.93,7.41-3.16,10.62-5.72-1.6,5.92-5.57,9.36-11.37,11.11-3.97,1.2-7.31.6-12.12,2.55.55-3.26,1.52-6.78,3.07-9.71,1.2-2.13,2.52-4.22,3.26-6.56,1.07,1.92,1.58,3.88,1.01,6.07h0ZM225.86,574.46c-1.14,1.95-2.64,3.58-4.49,4.88,4.68.3,8.45-2.67,13.02-2.8,2.82-.08,5.5.8,8.37.53-3.41,2.3-6.99,4.31-11.14,4.85-5.4.7-10.38-.66-16.34-.13,2.78-1.96,4.18-4.6,5.91-7.42,2.26-3.53,4.39-6.05,8.79-6.62-1.76,1.98-2.79,4.44-4.12,6.71h0ZM209.23,582.24c8.25,1.4,16.16,3.22,24.58,3.3-9.43,3.29-18.32,3.88-27.67.49-5.05-1.83-8.93-2.82-12.75-2.54-5.58.4-12.36,2.6-19.86,10.52l-2.95-2.36c10.76-9.58,24.83-11.75,38.65-9.4h0Z"/><g id="carp1"><path class="cls-5" d="M128.27,70.34l-12.98-7.96v-19.14l12.98-7.96v-10.12l12.27-7.39h9.8l18.65-10.49h40.03l18.65,10.49h9.8l12.27,7.39v10.12l12.98,7.96v19.14s-12.98,7.96-12.98,7.96v10.12l-12.27,7.39h-9.8l-18.65,10.49h-40.03l-18.65-10.49h-9.8l-12.27-7.39v-10.12Z"/><path class="cls-4" d="M169.07,7.73l-18.64,10.49h-9.75l-11.97,7.2v10.12l-12.98,7.94v18.64l12.98,7.94v10.17l11.92,7.2h9.8l18.64,10.49h39.83l18.64-10.49h9.8l11.97-7.2v-10.17l12.98-7.94v-18.64l-12.98-7.94v-10.12l-11.97-7.2h-9.8l-18.64-10.49h-39.83ZM170.18,11.6h37.66l18.64,10.49h9.75l9.06,5.46v10.12l13.03,7.94v14.41l-13.03,7.94v10.12l-9.06,5.46h-9.75l-18.64,10.49h-37.66l-18.64-10.49h-9.75l-9.11-5.46v-10.12l-12.98-7.94v-14.41l12.98-7.94v-10.12l9.11-5.46h9.75l18.64-10.49Z"/><path class="cls-8" d="M188.78,53.03V12.02h-18.51l-18.65,10.49h-9.72l-8.79,5.3v10.1l-12.98,7.96v6.74h69.08s0,41.01,0,41.01h18.51l18.65-10.49h9.72l8.79-5.3v-10.1l12.98-7.96v-6.74h-69.08Z"/><path class="cls-7" d="M120.13,53.03v6.74s12.98,7.96,12.98,7.96v10.1l8.79,5.3h9.72l18.65,10.49h18.51v-41.01h69.08s0-6.73,0-6.73l-12.98-7.96v-10.1l-8.79-5.3h-9.72l-18.65-10.49h-18.51v41.01h-69.08Z"/><g id="carp1h"><g id="carp1q"><path class="cls-5" d="M148.45,26.28l-3.2-2.98-3.17,1.95,3.2,2.98-4.11,2.55h8.97l7.73,7.29,2.47-2.61-7.51-7.09v-4.81l-4.38,2.72Z"/><path class="cls-5" d="M163.57,24.97l-3.2-2.98-3.17,1.95,3.2,2.98-4.11,2.55h8.97l7.73,7.29,2.47-2.61-7.51-7.09v-4.81l-4.38,2.72Z"/><path class="cls-5" d="M147.34,34.84l-3.2-2.98-3.17,1.95,3.2,2.98-4.11,2.55h8.97l7.73,7.29,2.47-2.61-7.51-7.09v-4.81l-4.38,2.72Z"/><path class="cls-5" d="M189,11.59h-8.09l-4.23,4.08h-8.26l-6.1,3.17,1.42,3.47,5.44-2.86h2.38l8.34,9.65,9.1-5.54v-11.96Z"/><path class="cls-6" d="M145.2,23.84l2.87,2.68-2.41,1.49-2.88-2.68,2.41-1.49ZM152.4,24.33v4.23l7.34,6.92-1.88,1.99-7.54-7.11h-7.64l9.72-6.02h0Z"/><path class="cls-6" d="M160.32,22.53l2.87,2.68-2.41,1.49-2.88-2.68,2.41-1.49ZM167.53,23.02v4.23l7.34,6.92-1.88,1.99-7.54-7.11h-7.64l9.72-6.02h0Z"/><path class="cls-6" d="M144.09,32.39l2.87,2.68-2.41,1.49-2.88-2.68,2.41-1.49ZM151.3,32.89v4.23l7.34,6.92-1.88,1.99-7.54-7.11h-7.64l9.72-6.02h0Z"/><path class="cls-6" d="M188.78,12.02h-7.71l-4.23,4.08h-8.32l-5.66,2.94,1.1,2.67,5.12-2.69h2.69l8.23,9.52,8.8-5.36v-11.17Z"/></g><g id="carp1q-2"><path class="cls-5" d="M148.45,79.34l-3.2,2.98-3.17-1.95,3.2-2.98-4.11-2.55h8.97l7.73-7.29,2.47,2.61-7.51,7.09v4.81l-4.38-2.72Z"/><path class="cls-5" d="M163.57,80.65l-3.2,2.98-3.17-1.95,3.2-2.98-4.11-2.55h8.97l7.73-7.29,2.47,2.61-7.51,7.09v4.81l-4.38-2.72Z"/><path class="cls-5" d="M147.34,70.79l-3.2,2.98-3.17-1.95,3.2-2.98-4.11-2.55h8.97l7.73-7.29,2.47,2.61-7.51,7.09v4.81l-4.38-2.72Z"/><path class="cls-5" d="M189,94.03h-8.09l-4.23-4.08h-8.26l-6.1-3.17,1.42-3.47,5.44,2.86h2.38l8.34-9.65,9.1,5.54v11.96Z"/><path class="cls-6" d="M145.2,81.78l2.87-2.68-2.41-1.49-2.88,2.68,2.41,1.49ZM152.4,81.29v-4.23l7.34-6.92-1.88-1.99-7.54,7.11h-7.64l9.72,6.02h0Z"/><path class="cls-6" d="M160.32,83.09l2.87-2.68-2.41-1.49-2.88,2.68,2.41,1.49ZM167.53,82.6v-4.23l7.34-6.92-1.88-1.99-7.54,7.11h-7.64l9.72,6.02h0Z"/><path class="cls-6" d="M144.09,73.23l2.87-2.68-2.41-1.49-2.88,2.68,2.41,1.49ZM151.3,72.73v-4.23l7.34-6.92-1.88-1.99-7.54,7.11h-7.64l9.72,6.02h0Z"/><path class="cls-6" d="M188.78,93.61h-7.71l-4.23-4.08h-8.32l-5.66-2.94,1.1-2.67,5.12,2.69h2.69l8.23-9.52,8.8,5.36v11.17Z"/></g><path class="cls-5" d="M143.05,39.71l-3.86-1.44-.09.06-4.98,3.46v.93l-7.98,10.09,7.98,10.09v.93l5.07,3.52,3.86-1.44-2.35-1.56v-2.97l.94-1.12h4.18v-14.91h-4.18l-.94-1.12v-2.97l2.35-1.56Z"/><path class="cls-6" d="M134.55,42.01l4.71-3.27,2.86,1.07-1.85,1.22v3.35l1.16,1.39h3.95v14.05h-3.95l-1.16,1.39v3.35l1.85,1.22-2.86,1.07-4.71-3.27v-.85s-7.86-9.94-7.86-9.94l7.86-9.94v-.85Z"/></g><g id="carp1h-2"><g id="carp1q-3"><path class="cls-5" d="M229.55,26.28l3.2-2.98,3.17,1.95-3.2,2.98,4.11,2.55h-8.97l-7.73,7.29-2.47-2.61,7.51-7.09v-4.81l4.38,2.72Z"/><path class="cls-5" d="M214.42,24.97l3.2-2.98,3.17,1.95-3.2,2.98,4.11,2.55h-8.97l-7.73,7.29-2.47-2.61,7.51-7.09v-4.81l4.38,2.72Z"/><path class="cls-5" d="M230.65,34.84l3.2-2.98,3.17,1.95-3.2,2.98,4.11,2.55h-8.97l-7.73,7.29-2.47-2.61,7.51-7.09v-4.81l4.38,2.72Z"/><path class="cls-5" d="M189,11.59h8.09l4.23,4.08h8.26l6.1,3.17-1.42,3.47-5.44-2.86h-2.38l-8.34,9.65-9.1-5.54v-11.96Z"/><path class="cls-6" d="M232.79,23.84l-2.87,2.68,2.41,1.49,2.88-2.68-2.41-1.49ZM225.59,24.33v4.23l-7.34,6.92,1.88,1.99,7.54-7.11h7.64l-9.72-6.02h0Z"/><path class="cls-6" d="M217.67,22.53l-2.87,2.68,2.41,1.49,2.88-2.68-2.41-1.49ZM210.46,23.02v4.23l-7.34,6.92,1.88,1.99,7.54-7.11h7.64l-9.72-6.02h0Z"/><path class="cls-6" d="M233.9,32.39l-2.87,2.68,2.41,1.49,2.88-2.68-2.41-1.49ZM226.7,32.89v4.23l-7.34,6.92,1.88,1.99,7.54-7.11h7.64l-9.72-6.02h0Z"/><path class="cls-6" d="M189.21,12.02h7.71l4.23,4.08h8.32l5.66,2.94-1.1,2.67-5.12-2.69h-2.69l-8.23,9.52-8.8-5.36v-11.17Z"/></g><g id="carp1q-4"><path class="cls-5" d="M229.55,79.34l3.2,2.98,3.17-1.95-3.2-2.98,4.11-2.55h-8.97l-7.73-7.29-2.47,2.61,7.51,7.09v4.81l4.38-2.72Z"/><path class="cls-5" d="M214.42,80.65l3.2,2.98,3.17-1.95-3.2-2.98,4.11-2.55h-8.97l-7.73-7.29-2.47,2.61,7.51,7.09v4.81l4.38-2.72Z"/><path class="cls-5" d="M230.65,70.79l3.2,2.98,3.17-1.95-3.2-2.98,4.11-2.55h-8.97l-7.73-7.29-2.47,2.61,7.51,7.09v4.81l4.38-2.72Z"/><path class="cls-5" d="M189,94.03h8.09l4.23-4.08h8.26l6.1-3.17-1.42-3.47-5.44,2.86h-2.38l-8.34-9.65-9.1,5.54v11.96Z"/><path class="cls-6" d="M232.79,81.78l-2.87-2.68,2.41-1.49,2.88,2.68-2.41,1.49ZM225.59,81.29v-4.23l-7.34-6.92,1.88-1.99,7.54,7.11h7.64l-9.72,6.02h0Z"/><path class="cls-6" d="M217.67,83.09l-2.87-2.68,2.41-1.49,2.88,2.68-2.41,1.49ZM210.46,82.6v-4.23l-7.34-6.92,1.88-1.99,7.54,7.11h7.64l-9.72,6.02h0Z"/><path class="cls-6" d="M233.9,73.23l-2.87-2.68,2.41-1.49,2.88,2.68-2.41,1.49ZM226.7,72.73v-4.23l-7.34-6.92,1.88-1.99,7.54,7.11h7.64l-9.72,6.02h0Z"/><path class="cls-6" d="M189.21,93.61h7.71l4.23-4.08h8.32l5.66-2.94-1.1-2.67-5.12,2.69h-2.69l-8.23-9.52-8.8,5.36v11.17Z"/></g><path class="cls-5" d="M234.94,39.71l3.86-1.44.09.06,4.98,3.46v.93l7.98,10.09-7.98,10.09v.93l-5.07,3.52-3.86-1.44,2.35-1.56v-2.97l-.94-1.12h-4.18v-14.91h4.18l.94-1.12v-2.97l-2.35-1.56Z"/><path class="cls-6" d="M243.44,42.01l-4.71-3.27-2.86,1.07,1.85,1.22v3.35l-1.16,1.39h-3.95v14.05h3.95l1.16,1.39v3.35l-1.85,1.22,2.86,1.07,4.71-3.27v-.85s7.86-9.94,7.86-9.94l-7.86-9.94v-.85Z"/></g><path class="cls-5" d="M136.2,61.28l-2.17-1.88v-.91l-4.66-5.69,4.66-5.69v-.91l2.17-1.88,3.9,3.17-2.25-.02,3.33,3.38h7.61l5.98-4.68v-12.33h14.96l17.37-10.66v-2.8l-2.66-1.77h-.84l-2.89,1.94-.45,1.44-2.26-3.09,4.4-3.7h.7l4.96-3.64h1.87l4.96,3.64h.7l4.4,3.7-2.26,3.09-.45-1.44-2.89-1.94h-.84l-2.66,1.77v2.8l17.37,10.66h14.96v12.33l5.98,4.68h7.61l3.33-3.38-2.25.02,3.9-3.17,2.17,1.88v.91l4.66,5.69-4.66,5.69v.91l-2.17,1.88-3.9-3.17,2.25.02-3.33-3.38h-7.61l-5.98,4.68v12.33h-14.96l-17.37,10.66v2.8l2.66,1.77h.84l2.89-1.94.45-1.44,2.26,3.09-4.4,3.7h-.7l-4.96,3.64h-1.87l-4.96-3.64h-.7l-4.4-3.7,2.26-3.09.45,1.44,2.89,1.94h.84l2.66-1.77v-2.8l-17.37-10.66h-14.96v-12.33l-5.98-4.68h-7.6l-3.33,3.38,2.25-.02-3.9,3.17Z"/><path class="cls-8" d="M189.21,87.32l1.9,1.45-1.9,1.45v-2.91h0ZM183.17,89.96h.07l4.96,3.64h.58v-2.84l-2.6-1.99,2.6-1.99v-5.34l-18.59-11.41h-13.74v-11.46l-7.1-5.55h-10.7l-2.69,3.04-2.69-3.04h-3.18s4.36,5.32,4.36,5.32v.86l1.73,1.5,2.77-2.16h-1.63s0-.53,0-.53l3.63-3.7h7.97l6.26,4.9v12.11h14.65l17.68,10.85v3.26l-2.96,1.97h-1.1l-3.13-2.09-.24-.78-1.52,2.08,3.97,3.34h.62ZM135.97,50.2l2.12,2.39h-4.24l2.12-2.39ZM188.78,15.4l-1.9,1.45,1.9,1.45v-2.91ZM239.91,53.03l2.12,2.39,2.12-2.39h-4.24,0ZM194.75,15.66l-4.96-3.64h-.58v2.84l2.61,1.99-2.61,1.99v5.34l18.59,11.41h13.74v11.46l7.1,5.55h10.7l2.69-3.04,2.69,3.04h3.18l-4.36-5.32v-.86l-1.73-1.5-2.77,2.16h1.63s0,.53,0,.53l-3.63,3.7h-7.97l-6.26-4.9v-12.11h-14.65l-17.68-10.85v-3.26l2.96-1.97h1.1l3.13,2.09.24.78,1.52-2.08-3.97-3.34h-.69,0Z"/><path class="cls-7" d="M188.78,90.23l-1.9-1.45,1.9-1.45v2.91ZM138.08,53.03l-2.12,2.39-2.12-2.39h4.24ZM194.83,89.96h-.07l-4.96,3.64h-.58v-2.84l2.61-1.99-2.61-1.99v-5.34l18.59-11.41h13.74v-11.46l7.1-5.55h10.7l2.69,3.04,2.69-3.04h3.18s-4.36,5.32-4.36,5.32v.86l-1.73,1.5-2.77-2.16h1.63s0-.53,0-.53l-3.63-3.7h-7.97l-6.26,4.9v12.11h-14.65l-17.68,10.85v3.26l2.96,1.97h1.1l3.13-2.09.24-.78,1.52,2.08-3.97,3.34h-.62,0ZM242.03,50.2l-2.12,2.39h4.24l-2.12-2.39ZM183.24,15.66l4.96-3.64h.58v2.84l-2.61,1.99,2.61,1.99v5.34s-18.59,11.41-18.59,11.41h-13.74v11.46l-7.1,5.55h-10.7l-2.69-3.04-2.69,3.04h-3.17l4.36-5.32v-.86l1.73-1.5,2.77,2.16h-1.63s0,.53,0,.53l3.63,3.7h7.97l6.26-4.9v-12.11h14.65l17.68-10.85v-3.26l-2.96-1.97h-1.1l-3.13,2.09-.24.78-1.52-2.08,3.97-3.34s.69,0,.69,0ZM189.21,18.3l1.9-1.45-1.9-1.45v2.91Z"/><path class="cls-4" d="M188.78,53.03v-28.34l-18.47,11.33h-13.43v11.24l-6.83,5.34h39.16s0,28.34,0,28.34l18.47-11.33h13.43v-11.24l6.83-5.34h-39.16Z"/><path class="cls-6" d="M150.05,53.03l6.83,5.34v11.24h13.43l18.47,11.33v-28.35h39.16s-6.83-5.34-6.83-5.34v-11.24h-13.43l-18.47-11.33v28.34h-39.16Z"/><path class="cls-5" d="M169.12,39.06l-3.2-2.98-3.17,1.95,3.2,2.98-4.11,2.55h8.97l7.73,7.29,2.47-2.61-7.51-7.09v-4.81l-4.39,2.72Z"/><path class="cls-5" d="M208.87,66.56l3.2,2.98,3.17-1.95-3.2-2.98,4.11-2.55h-8.97l-7.73-7.29-2.47,2.61,7.51,7.09v4.81l4.38-2.72Z"/><path class="cls-5" d="M169.12,66.56l-3.2,2.98-3.17-1.95,3.2-2.98-4.11-2.55h8.97l7.73-7.29,2.47,2.61-7.51,7.09v4.81l-4.38-2.72Z"/><path class="cls-5" d="M208.87,39.06l3.2-2.98,3.17,1.95-3.2,2.98,4.11,2.55h-8.97l-7.73,7.29-2.47-2.61,7.51-7.09v-4.81l4.38,2.72Z"/><path class="cls-6" d="M212.12,69l-2.87-2.68,2.41-1.49,2.88,2.68-2.41,1.49ZM204.92,68.51v-4.23l-7.34-6.92,1.88-1.99,7.54,7.11h7.64l-9.72,6.02h0ZM165.87,36.62l2.87,2.68-2.41,1.49-2.88-2.68,2.41-1.49ZM173.08,37.12v4.23l7.34,6.92-1.88,1.99-7.54-7.11h-7.64l9.72-6.02h0Z"/><path class="cls-4" d="M212.12,36.62l-2.87,2.68,2.41,1.49,2.88-2.68-2.41-1.49ZM204.92,37.12v4.23l-7.34,6.92,1.88,1.99,7.54-7.11h7.64l-9.72-6.02h0ZM165.87,69l2.87-2.68-2.41-1.49-2.88,2.68,2.41,1.49ZM173.08,68.51v-4.23l7.34-6.92-1.88-1.99-7.54,7.11h-7.64l9.72,6.02h0Z"/><path class="cls-5" d="M208.86,52.81l-19.86,13.24-19.86-13.24,19.86-13.24,19.86,13.24Z"/><path class="cls-7" d="M188.78,40.23l-18.55,12.36h37.53l-18.55-12.36v25.16l18.55-12.36h-37.53l18.55,12.36v-25.16Z"/><path class="cls-5" d="M194.31,57.36v3.64h-10.62v-3.64h-6.87v-9.1h6.87v-3.64h10.62v3.64h6.87v9.1h-6.87Z"/><path class="cls-6" d="M184.12,45.05v3.64h-6.87v3.91h11.54v-7.55h-4.67ZM189.21,52.6h11.54v-3.91h-6.87v-3.64h-4.67v7.55h0ZM177.24,53.03v3.91h6.87v3.64h4.67v-7.55h-11.54ZM189.21,60.57h4.67v-3.64h6.87v-3.91h-11.54v7.55h0Z"/></g><g id="carp2"><path class="cls-5" d="M222.88,203.61v-5.83h15.99v-5.83h15.99v-52.68h-15.99v-5.83h-15.99v-5.83h-15.99v-5.83h-35.78v5.83h-15.99v5.83h-15.99v5.83h-15.99v52.68h15.99v5.83h15.99v5.83h15.99v5.83h35.78v-5.83h15.99Z"/><path class="cls-6" d="M171.56,122.19v5.83h-16v5.83h-16v5.83h-16v51.85h16v5.83h16v5.83h16v5.83h34.9v-5.83h16v-5.83h16v-5.83h15.99v-51.85h-15.99v-5.83h-16v-5.83h-16v-5.83h-34.9ZM175.8,126.43h26.43v5.83h16v5.83h16v5.83h15.99v43.38h-15.99v5.83h-16v5.83h-16v5.83h-26.43v-5.83h-16v-5.83h-16v-5.83h-16v-43.38h16v-5.83h16v-5.83h16v-5.83Z"/><path class="cls-6" d="M160.21,198.52v-5.83h-15.99v-5.83h-15.99v-42.5h15.99v-5.83h15.99v-5.83h15.99v-5.83h25.6v5.83h15.99v5.83h15.99v5.83h15.99v42.5h-15.99v5.83h-15.99v5.83h-15.99v5.83h-25.6v-5.83h-15.99Z"/><path class="cls-5" d="M163.92,137.01l-4.14-3.13v6.01l-3.97,2.52v-3.76s-3.81,3.42-3.81,3.42l-3.8-3.42v3.76s-4.4-2.79-4.4-2.79v5.57l-3.55,2.57v-3.42s-4.23,3.06-4.23,3.06l-4.22-3.06v3.42s-3.99-2.88-3.99-2.88v16.88h-4.66v7.68h4.66v16.88l3.98-2.88v3.42s4.23-3.06,4.23-3.06l4.22,3.06v-3.42s3.56,2.57,3.56,2.57v5.57l4.39-2.79v3.76s3.81-3.42,3.81-3.42l3.8,3.42v-3.76s3.98,2.52,3.98,2.52v6.01l4.14-3.13v4.2s4.07-3.63,4.07-3.63l4.06,3.63v-4.2s3.72,2.81,3.72,2.81v6.41l5.55-5.06v5.95l7.68-4.94,7.68,4.94v-5.95l5.55,5.06v-6.41l3.71-2.81v4.2s4.07-3.63,4.07-3.63l4.06,3.63v-4.2s4.15,3.13,4.15,3.13v-6.01l3.97-2.52v3.76s3.81-3.42,3.81-3.42l3.8,3.42v-3.76s4.4,2.79,4.4,2.79v-5.57l3.55-2.57v3.42s4.23-3.06,4.23-3.06l4.22,3.06v-3.42s3.99,2.88,3.99,2.88v-16.88h4.66v-7.68h-4.66v-16.88l-3.98,2.88v-3.42s-4.23,3.06-4.23,3.06l-4.22-3.06v3.42s-3.56-2.57-3.56-2.57v-5.57l-4.4,2.79v-3.76s-3.81,3.42-3.81,3.42l-3.8-3.42v3.76s-3.98-2.52-3.98-2.52v-6.01l-4.14,3.13v-4.2s-4.07,3.63-4.07,3.63l-4.06-3.63v4.2s-3.72-2.81-3.72-2.81v-6.41l-5.55,5.06v-5.95l-7.68,4.94-7.68-4.94v5.95l-5.55-5.06v6.41l-3.71,2.81v-4.2s-4.07,3.63-4.07,3.63l-4.06-3.63v4.2Z"/><path class="cls-4" d="M132.21,148.6v-3.42s3.8,2.75,3.8,2.75l.13-.09,3.66-2.65v3.42s3.99-2.88,3.99-2.88v39.77l-3.98-2.88v3.42s-3.8-2.75-3.8-2.75l-3.79,2.75v-3.42s-3.99,2.88-3.99,2.88v-16.47h-4.66v-6.83h4.66v-16.47l3.98,2.88Z"/><path class="cls-4" d="M164.36,133.77l3.63,3.25,3.63-3.25v4.1s4.15-3.13,4.15-3.13v61.73l-4.14-3.13v4.1s-3.64-3.25-3.64-3.25l-3.63,3.25v-4.1s-4.15,3.13-4.15,3.13v-61.73l4.14,3.13v-4.1Z"/><path class="cls-4" d="M213.64,133.77l-3.63,3.25-3.63-3.25v4.1s-4.15-3.13-4.15-3.13v61.73l4.14-3.13v4.1s3.64-3.25,3.64-3.25l3.63,3.25v-4.1s4.15,3.13,4.15,3.13v-61.73l-4.14,3.13v-4.1Z"/><path class="cls-4" d="M245.79,148.6v-3.42s-3.8,2.75-3.8,2.75l-.13-.09-3.66-2.65v3.42s-3.99-2.88-3.99-2.88v39.77l3.98-2.88v3.42s3.8-2.75,3.8-2.75l3.79,2.75v-3.42s3.99,2.88,3.99,2.88v-16.47h4.66v-6.83h-4.66v-16.47l-3.98,2.88Z"/><path class="cls-8" d="M148.62,139.61l3.38,3.03,3.38-3.03v3.58s4.4-2.79,4.4-2.79v50.41l-4.39-2.79v3.58s-3.39-3.03-3.39-3.03l-3.38,3.03v-3.58s-4.4,2.79-4.4,2.79v-50.41l4.39,2.79v-3.58Z"/><path class="cls-8" d="M181.75,133.83l-5.55-5.06v73.68l5.55-5.06v6.13l7.25-4.66h0l7.25,4.66v-6.13l5.55,5.06v-73.68l-5.55,5.06v-6.13l-7.25,4.66h0l-7.25-4.66v6.13Z"/><path class="cls-8" d="M229.37,139.61l-3.38,3.03-3.38-3.03v3.58s-4.4-2.79-4.4-2.79v50.41l4.39-2.79v3.58s3.39-3.03,3.39-3.03l3.38,3.03v-3.58s4.4,2.79,4.4,2.79v-50.41l-4.39,2.79v-3.58Z"/><g id="carp2h"><g id="carp2q"><path class="cls-5" d="M134.29,158.37c.49.49,1.07.74,1.72.74s1.24-.25,1.72-.74c1.52-1.53,1.57-4.3,1.55-6.29,0,0-1.76,1.86-2.07,2.19-.22-.38-1.21-2.08-1.21-2.08,0,0-.99,1.7-1.21,2.08-.32-.33-2.07-2.19-2.07-2.19-.01,1.99.04,4.76,1.56,6.29h0Z"/><path class="cls-5" d="M150.97,154.08l-1.28-1.28v-2.55l-2.94,2.72,5.25,5.25,5.25-5.25-2.94-2.72v2.55l-1.28,1.28v-4.51l2.26-1.94-3.3-2.83-3.3,2.83,2.27,1.94v4.51Z"/><path class="cls-5" d="M166.95,149.02l-1.28-1.28v-2.55l-2.94,2.72,5.25,5.25,5.25-5.25-2.94-2.72v2.55l-1.28,1.28v-4.51l2.27-1.94-3.3-2.83-3.3,2.83,2.26,1.94v4.51Z"/><path class="cls-7" d="M136.01,153.04c.26.45,1.12,1.94,1.12,1.94,0,0,1.21-1.28,1.71-1.81-.06,2.25-.55,4.03-1.41,4.89-.4.41-.88.61-1.42.61s-1.02-.21-1.42-.61c-.86-.87-1.35-2.64-1.41-4.89.49.52,1.71,1.81,1.71,1.81.37-.65.75-1.29,1.12-1.94h0Z"/><path class="cls-7" d="M168.6,144.31v5.74l2.14-2.14v-1.74l1.89,1.75-4.63,4.63-4.63-4.63,1.89-1.75v1.74l2.14,2.14v-5.74l-2.04-1.75,2.64-2.27,2.64,2.27-2.04,1.75Z"/><path class="cls-6" d="M152.61,149.37v5.74l2.14-2.14v-1.74l1.89,1.75-4.63,4.63-4.63-4.63,1.89-1.75v1.74l2.14,2.14v-5.74l-2.04-1.75,2.64-2.27,2.64,2.27-2.04,1.75Z"/></g><g id="carp2q-2"><path class="cls-5" d="M243.71,158.37c-.49.49-1.07.74-1.72.74s-1.24-.25-1.72-.74c-1.52-1.53-1.57-4.3-1.55-6.29,0,0,1.76,1.86,2.07,2.19.22-.38,1.21-2.08,1.21-2.08,0,0,.99,1.7,1.21,2.08.32-.33,2.07-2.19,2.07-2.19.01,1.99-.04,4.76-1.56,6.29h0Z"/><path class="cls-5" d="M227.03,154.08l1.28-1.28v-2.55l2.94,2.72-5.25,5.25-5.25-5.25,2.94-2.72v2.55l1.28,1.28v-4.51l-2.26-1.94,3.3-2.83,3.3,2.83-2.27,1.94v4.51Z"/><path class="cls-5" d="M211.04,149.02l1.28-1.28v-2.55l2.94,2.72-5.25,5.25-5.25-5.25,2.94-2.72v2.55l1.28,1.28v-4.51l-2.27-1.94,3.3-2.83,3.3,2.83-2.26,1.94v4.51Z"/><path class="cls-7" d="M241.98,153.04c-.26.45-1.12,1.94-1.12,1.94,0,0-1.21-1.28-1.71-1.81.06,2.25.55,4.03,1.41,4.89.4.41.88.61,1.42.61s1.02-.21,1.42-.61c.86-.87,1.35-2.64,1.41-4.89-.49.52-1.71,1.81-1.71,1.81-.37-.65-.75-1.29-1.12-1.94h0Z"/><path class="cls-7" d="M209.4,144.31v5.74l-2.14-2.14v-1.74l-1.89,1.75,4.63,4.63,4.63-4.63-1.89-1.75v1.74l-2.14,2.14v-5.74l2.04-1.75-2.64-2.27-2.64,2.27,2.04,1.75Z"/><path class="cls-6" d="M225.39,149.37v5.74l-2.14-2.14v-1.74l-1.89,1.75,4.63,4.63,4.63-4.63-1.89-1.75v1.74l-2.14,2.14v-5.74l2.04-1.75-2.64-2.27-2.64,2.27,2.04,1.75Z"/></g><path class="cls-5" d="M195.28,150.94l-1.72-2.38,4.41-4.07-4.11-3.38v2.39l-1.72,1.47v-4.34l3.89-2.86-7.03-5.18-7.03,5.18,3.89,2.86v4.34l-1.72-1.47v-2.39l-4.11,3.38,4.41,4.07-1.72,2.38h12.57Z"/><path class="cls-6" d="M183.55,150.51l1.45-2.01-4.33-4,3.03-2.49v1.68l2.58,2.21v-5.49l-3.59-2.65,6.31-4.65,6.31,4.65-3.59,2.65v5.49l2.58-2.21v-1.68l3.03,2.49-4.33,4,1.45,2.01h-10.89Z"/><path class="cls-5" d="M185.79,137.77l3.21,2.37,3.21-2.37-3.21-2.37-.13.09-3.08,2.27Z"/><path class="cls-4" d="M189,135.93c.21.16,2.11,1.56,2.49,1.83-.38.28-2.28,1.68-2.49,1.83-.21-.16-2.11-1.56-2.49-1.83.38-.28,2.28-1.68,2.49-1.83Z"/></g><g id="carp2h-2"><g id="carp2q-3"><path class="cls-5" d="M134.29,172.85c.49-.49,1.07-.74,1.72-.74s1.24.25,1.72.74c1.52,1.53,1.57,4.3,1.55,6.29,0,0-1.76-1.86-2.07-2.19-.22.38-1.21,2.08-1.21,2.08,0,0-.99-1.7-1.21-2.08-.32.33-2.07,2.19-2.07,2.19-.01-1.99.04-4.76,1.56-6.29h0Z"/><path class="cls-5" d="M150.97,177.14l-1.28,1.28v2.55l-2.94-2.72,5.25-5.25,5.25,5.25-2.94,2.72v-2.55l-1.28-1.28v4.51l2.26,1.94-3.3,2.83-3.3-2.83,2.27-1.94v-4.51Z"/><path class="cls-5" d="M166.95,182.2l-1.28,1.28v2.55l-2.94-2.72,5.25-5.25,5.25,5.25-2.94,2.72v-2.55l-1.28-1.28v4.51l2.27,1.94-3.3,2.83-3.3-2.83,2.26-1.94v-4.51Z"/><path class="cls-7" d="M136.01,178.18c.26-.45,1.12-1.94,1.12-1.94,0,0,1.21,1.28,1.71,1.81-.06-2.25-.55-4.03-1.41-4.89-.4-.41-.88-.61-1.42-.61s-1.02.21-1.42.61c-.86.87-1.35,2.64-1.41,4.89.49-.52,1.71-1.81,1.71-1.81.37.65.75,1.29,1.12,1.94h0Z"/><path class="cls-7" d="M168.6,186.9v-5.74l2.14,2.14v1.74l1.89-1.75-4.63-4.63-4.63,4.63,1.89,1.75v-1.74l2.14-2.14v5.74l-2.04,1.75,2.64,2.27,2.64-2.27-2.04-1.75Z"/><path class="cls-6" d="M152.61,181.84v-5.74l2.14,2.14v1.74l1.89-1.75-4.63-4.63-4.63,4.63,1.89,1.75v-1.74l2.14-2.14v5.74l-2.04,1.75,2.64,2.27,2.64-2.27-2.04-1.75Z"/></g><g id="carp2q-4"><path class="cls-5" d="M243.71,172.85c-.49-.49-1.07-.74-1.72-.74s-1.24.25-1.72.74c-1.52,1.53-1.57,4.3-1.55,6.29,0,0,1.76-1.86,2.07-2.19.22.38,1.21,2.08,1.21,2.08,0,0,.99-1.7,1.21-2.08.32.33,2.07,2.19,2.07,2.19.01-1.99-.04-4.76-1.56-6.29h0Z"/><path class="cls-5" d="M227.03,177.14l1.28,1.28v2.55l2.94-2.72-5.25-5.25-5.25,5.25,2.94,2.72v-2.55l1.28-1.28v4.51l-2.26,1.94,3.3,2.83,3.3-2.83-2.27-1.94v-4.51Z"/><path class="cls-5" d="M211.04,182.2l1.28,1.28v2.55l2.94-2.72-5.25-5.25-5.25,5.25,2.94,2.72v-2.55l1.28-1.28v4.51l-2.27,1.94,3.3,2.83,3.3-2.83-2.26-1.94v-4.51Z"/><path class="cls-7" d="M241.98,178.18c-.26-.45-1.12-1.94-1.12-1.94,0,0-1.21,1.28-1.71,1.81.06-2.25.55-4.03,1.41-4.89.4-.41.88-.61,1.42-.61s1.02.21,1.42.61c.86.87,1.35,2.64,1.41,4.89-.49-.52-1.71-1.81-1.71-1.81-.37.65-.75,1.29-1.12,1.94h0Z"/><path class="cls-7" d="M209.4,186.9v-5.74l-2.14,2.14v1.74l-1.89-1.75,4.63-4.63,4.63,4.63-1.89,1.75v-1.74l-2.14-2.14v5.74l2.04,1.75-2.64,2.27-2.64-2.27,2.04-1.75Z"/><path class="cls-6" d="M225.39,181.84v-5.74l-2.14,2.14v1.74l-1.89-1.75,4.63-4.63,4.63,4.63-1.89,1.75v-1.74l-2.14-2.14v5.74l2.04,1.75-2.64,2.27-2.64-2.27,2.04-1.75Z"/></g><path class="cls-5" d="M195.28,180.28l-1.72,2.38,4.41,4.07-4.11,3.38v-2.39l-1.72-1.47v4.34l3.89,2.86-7.03,5.18-7.03-5.18,3.89-2.86v-4.34l-1.72,1.47v2.39l-4.11-3.38,4.41-4.07-1.72-2.38h12.57Z"/><path class="cls-6" d="M183.55,180.71l1.45,2.01-4.33,4,3.03,2.49v-1.68l2.58-2.21v5.49l-3.59,2.65,6.31,4.65,6.31-4.65-3.59-2.65v-5.49l2.58,2.21v1.68l3.03-2.49-4.33-4,1.45-2.01h-10.89Z"/><path class="cls-5" d="M185.79,193.45l3.21-2.37,3.21,2.37-3.21,2.37-.13-.09-3.08-2.27Z"/><path class="cls-4" d="M189,195.28c.21-.16,2.11-1.56,2.49-1.83-.38-.28-2.28-1.68-2.49-1.83-.21.16-2.11,1.56-2.49,1.83.38.28,2.28,1.68,2.49,1.83Z"/></g><path class="cls-5" d="M245.9,163.15h-7.04v-2.8h-21.51l-14.97-9.84h-26.76l-14.97,9.84h-21.51v2.8h-7.04v4.92h7.04v2.8h21.51l14.97,9.84h26.76l14.97-9.84h21.51v-2.8h7.04v-4.92Z"/><path class="cls-6" d="M175.74,150.95l-14.99,9.8h-21.19v2.81h-7.04v4.08h7.04v2.81h21.19l14.99,9.85h26.54l14.94-9.85h21.24v-2.81h7.04v-4.08h-7.04v-2.81h-21.24l-14.94-9.8h-26.54ZM176.06,152.38h25.85l13.72,9v1.38h15.31v5.72h-15.31v1.38l-13.72,8.95h-25.85l-13.67-8.95v-1.38h-15.36v-5.72h15.36v-1.38l13.67-9Z"/><path class="cls-6" d="M201.8,152.83l13.38,8.78v1.56h15.33v4.88h-15.33v1.56l-13.38,8.78h-25.6l-13.38-8.78v-1.56h-15.33v-4.88h15.33v-1.56l13.38-8.78h25.6Z"/><path class="cls-5" d="M169.55,170.6l5.79,4.35,3.81-2.86-2.22-1.66-1.6,1.2-1.36-1.02,21.82-16.38h-4.43l-21.82,16.38ZM182.2,177h4.43l21.82-16.38-5.79-4.35-3.81,2.86,2.22,1.66,1.6-1.2,1.36,1.02-21.82,16.38ZM191.37,177h4.43l-21.81-16.38,1.36-1.02,1.6,1.2,2.22-1.66-3.81-2.86-5.79,4.35,21.82,16.38ZM204.01,170.6l-1.36,1.02-1.6-1.2-2.22,1.66,3.81,2.86,5.79-4.35-21.82-16.38h-4.43l21.82,16.38Z"/><path class="cls-5" d="M165.16,165.61l3.89,2.59,3.89-2.59-3.89-2.59-3.89,2.59Z"/><path class="cls-5" d="M185.1,165.61l3.89,2.59,3.89-2.59-3.89-2.59-3.89,2.59Z"/><path class="cls-5" d="M212.83,165.61l-3.89,2.59-3.89-2.59,3.89-2.59,3.89,2.59Z"/><path class="cls-8" d="M207.73,170.6l-5.08,3.81-3.1-2.33,1.5-1.13,1.6,1.2,2.08-1.56-21.24-15.95h3l21.24,15.95ZM194.51,176.57h-3l-21.24-15.95,5.08-3.81,3.1,2.33-1.5,1.13-1.6-1.2-2.08,1.56,21.24,15.95ZM186.48,176.57h-3l21.24-15.95-2.08-1.56-1.6,1.2-1.5-1.13,3.1-2.33,5.08,3.81-21.24,15.95ZM191.51,154.65h3l-21.24,15.95,2.08,1.56,1.6-1.2,1.5,1.13-3.1,2.33-5.08-3.81,21.24-15.95Z"/><path class="cls-4" d="M169.06,163.54l3.12,2.07-3.12,2.07-3.12-2.07,3.12-2.07Z"/><path class="cls-4" d="M189,163.54l3.12,2.07-3.12,2.07-3.12-2.07,3.12-2.07Z"/><path class="cls-4" d="M208.94,163.54l-3.12,2.07,3.12,2.07,3.12-2.07-3.12-2.07Z"/></g><g id="carp3"><path class="cls-5" d="M120.51,274.15l-1.53,2.16,2.74,2.09-2.74,2.09,1.53,2.16,3.18.37,3.08-2.38,7.68,4.88v-4.05l-4.83-3.07,4.83-3.07v-4.05l-7.68,4.88-3.08-2.38-3.18.37Z"/><path class="cls-5" d="M120.51,260.07l-1.53,2.16,2.74,2.09-2.74,2.09,1.53,2.16,3.18.37,3.08-2.38,7.68,4.88v-4.05l-4.83-3.07,4.83-3.07v-4.05l-7.68,4.88-3.08-2.38-3.18.37Z"/><path class="cls-5" d="M120.51,296.74l-1.53-2.16,2.74-2.09-2.74-2.09,1.53-2.16,3.18-.37,3.08,2.38,7.68-4.88v4.05l-4.83,3.07,4.83,3.07v4.05l-7.68-4.88-3.08,2.38-3.18-.37Z"/><path class="cls-5" d="M257.48,274.15l1.53,2.16-2.74,2.09,2.74,2.09-1.53,2.16-3.18.37-3.08-2.38-7.68,4.88v-4.05l4.84-3.07-4.84-3.07v-4.05l7.68,4.88,3.08-2.38,3.18.37Z"/><path class="cls-5" d="M257.48,260.07l1.53,2.16-2.74,2.09,2.74,2.09-1.53,2.16-3.18.37-3.08-2.38-7.68,4.88v-4.05l4.84-3.07-4.84-3.07v-4.05l7.68,4.88,3.08-2.38,3.18.37Z"/><path class="cls-5" d="M257.48,296.74l1.53-2.16-2.74-2.09,2.74-2.09-1.53-2.16-3.18-.37-3.08,2.38-7.68-4.88v4.05l4.84,3.07-4.84,3.07v4.05l7.68-4.88,3.08,2.38,3.18-.37Z"/><path class="cls-5" d="M226.73,235.73v5.86h4.26v2.59h4.18v-4.71h-3.73v-3.73h-4.71Z"/><path class="cls-5" d="M239.28,244.96v5.86h4.26v2.59h4.19v-4.71h-3.73v-3.73h-4.71,0Z"/><path class="cls-5" d="M151.27,235.73v5.86h-4.26v2.59h-4.18v-4.71h3.73v-3.73h4.71Z"/><path class="cls-5" d="M226.73,321.08v-5.86h4.26v-2.59h4.18v4.71h-3.73v3.73h-4.71Z"/><path class="cls-5" d="M151.27,321.08v-5.86h-4.26v-2.59h-4.18v4.71h3.73v3.73h4.71Z"/><path class="cls-5" d="M239.28,311.85v-5.86h4.26v-2.59h4.19v4.71h-3.73v3.73h-4.71,0Z"/><path class="cls-5" d="M138.71,244.96v5.86h-4.26v2.59h-4.19v-4.71h3.73v-3.73h4.71,0Z"/><path class="cls-5" d="M138.71,311.85v-5.86h-4.26v-2.59h-4.19v4.71h3.73v3.73h4.71,0Z"/><path class="cls-5" d="M204.75,235.59c-.27-.26-3.25-3.16-3.25-3.16l-3.19,2.96s2.5,2.43,2.78,2.7l-3.59,3.49h5.33l1.92-1.86,1.92,1.86h5.33l-3.59-3.49c.28-.27,2.78-2.7,2.78-2.7l-3.19-2.96c-1.08,1.05-2.17,2.1-3.25,3.16h0Z"/><path class="cls-5" d="M189,235.59c-.27-.26-3.25-3.16-3.25-3.16l-3.19,2.96s2.5,2.43,2.78,2.7l-3.59,3.49h5.33l1.92-1.86,1.92,1.86h5.33l-3.59-3.49c.28-.27,2.78-2.7,2.78-2.7l-3.19-2.96c-1.08,1.05-2.17,2.1-3.25,3.16h0Z"/><path class="cls-5" d="M173.24,235.59c.27-.26,3.25-3.16,3.25-3.16l3.19,2.96s-2.5,2.43-2.78,2.7l3.59,3.49h-5.33l-1.92-1.86-1.92,1.86h-5.33l3.59-3.49c-.28-.27-2.78-2.7-2.78-2.7l3.19-2.96c1.08,1.05,2.17,2.1,3.25,3.16h0Z"/><path class="cls-5" d="M204.75,321.22c-.27.26-3.25,3.16-3.25,3.16l-3.19-2.96s2.5-2.43,2.78-2.7l-3.59-3.49h5.33l1.92,1.86,1.92-1.86h5.33l-3.59,3.49c.28.27,2.78,2.7,2.78,2.7l-3.19,2.96c-1.08-1.05-2.17-2.1-3.25-3.16h0Z"/><path class="cls-5" d="M189,321.22c-.27.26-3.25,3.16-3.25,3.16l-3.19-2.96s2.5-2.43,2.78-2.7l-3.59-3.49h5.33l1.92,1.86,1.92-1.86h5.33l-3.59,3.49c.28.27,2.78,2.7,2.78,2.7l-3.19,2.96c-1.08-1.05-2.17-2.1-3.25-3.16h0Z"/><path class="cls-5" d="M173.24,321.22c.27.26,3.25,3.16,3.25,3.16l3.19-2.96s-2.5-2.43-2.78-2.7l3.59-3.49h-5.33l-1.92,1.86-1.92-1.86h-5.33l3.59,3.49c-.28.27-2.78,2.7-2.78,2.7l3.19,2.96c1.08-1.05,2.17-2.1,3.25-3.16h0Z"/><path class="cls-4" d="M134.03,281.71v3.04l-7.28-4.62-3.18,2.46-2.82-.33-1.18-1.67,2.86-2.18-2.86-2.18,1.18-1.67,2.82-.33,3.18,2.46,7.28-4.62v3.04l-5.21,3.31,5.21,3.31Z"/><path class="cls-4" d="M134.03,267.64v3.04l-7.28-4.62-3.18,2.46-2.82-.33-1.18-1.67,2.86-2.18-2.86-2.18,1.18-1.67,2.82-.33,3.18,2.46,7.28-4.62v3.04l-5.21,3.31,5.21,3.31Z"/><path class="cls-4" d="M134.03,289.18v-3.04l-7.28,4.62-3.18-2.46-2.82.33-1.18,1.67,2.86,2.18-2.86,2.18,1.18,1.67,2.82.33,3.18-2.46,7.28,4.62v-3.04l-5.21-3.31,5.21-3.31Z"/><path class="cls-4" d="M243.97,281.71v3.04l7.28-4.62,3.18,2.46,2.82-.33,1.18-1.67-2.86-2.18,2.86-2.18-1.18-1.67-2.82-.33-3.18,2.46-7.28-4.62v3.04l5.21,3.31-5.21,3.31Z"/><path class="cls-4" d="M243.97,267.64v3.04l7.28-4.62,3.18,2.46,2.82-.33,1.18-1.67-2.86-2.18,2.86-2.18-1.18-1.67-2.82-.33-3.18,2.46-7.28-4.62v3.04l5.21,3.31-5.21,3.31Z"/><path class="cls-4" d="M243.97,289.18v-3.04l7.28,4.62,3.18-2.46,2.82.33,1.18,1.67-2.86,2.18,2.86,2.18-1.18,1.67-2.82.33-3.18-2.46-7.28,4.62v-3.04l5.21-3.31-5.21-3.31Z"/><path class="cls-4" d="M231.01,236.16v3.73h3.73v3.85h-3.33v-2.59h-4.26v-5h3.85Z"/><path class="cls-4" d="M243.57,245.39v3.73h3.73v3.86h-3.33v-2.59h-4.26v-5h3.85Z"/><path class="cls-4" d="M146.99,236.16v3.73h-3.73v3.85h3.33v-2.59h4.26v-5h-3.85Z"/><path class="cls-4" d="M231.01,320.65v-3.73h3.73v-3.86h-3.33v2.59h-4.26v5h3.85Z"/><path class="cls-4" d="M146.99,320.65v-3.73h-3.73v-3.86h3.33v2.59h4.26v5h-3.85Z"/><path class="cls-4" d="M243.57,311.42v-3.73h3.73v-3.86h-3.33v2.59h-4.26v5h3.85Z"/><path class="cls-4" d="M134.43,245.39v3.73h-3.73v3.86h3.33v-2.59h4.26v-5h-3.85Z"/><path class="cls-4" d="M134.43,311.42v-3.73h-3.73v-3.86h3.33v2.59h4.26v5h-3.85Z"/><path class="cls-4" d="M201.5,233.03c.27.26,3.26,3.16,3.26,3.16,0,0,2.99-2.9,3.26-3.16.25.23,2.29,2.12,2.56,2.37-.29.28-2.78,2.69-2.78,2.69l3.15,3.06h-4.1l-2.09-2.03-2.09,2.03h-4.1l3.15-3.06s-2.49-2.42-2.78-2.69c.28-.26,2.31-2.14,2.56-2.37h0Z"/><path class="cls-4" d="M185.74,233.03c.27.26,3.26,3.16,3.26,3.16,0,0,2.99-2.9,3.26-3.16.25.23,2.28,2.12,2.56,2.37-.29.28-2.78,2.69-2.78,2.69l3.15,3.06h-4.1l-2.09-2.03-2.09,2.03h-4.1l3.15-3.06s-2.49-2.42-2.78-2.69c.28-.26,2.31-2.14,2.56-2.37Z"/><path class="cls-4" d="M176.5,233.03c-.27.26-3.26,3.16-3.26,3.16,0,0-2.99-2.9-3.26-3.16-.25.23-2.29,2.12-2.56,2.37.29.28,2.78,2.69,2.78,2.69l-3.15,3.06h4.1l2.09-2.03,2.09,2.03h4.1l-3.15-3.06s2.49-2.42,2.78-2.69c-.28-.26-2.31-2.14-2.56-2.37Z"/><path class="cls-4" d="M201.5,323.78c.27-.26,3.26-3.16,3.26-3.16,0,0,2.99,2.9,3.26,3.16.25-.23,2.29-2.12,2.56-2.37-.29-.28-2.78-2.69-2.78-2.69l3.15-3.06h-4.1l-2.09,2.03-2.09-2.03h-4.1l3.15,3.06s-2.49,2.42-2.78,2.69c.28.26,2.31,2.14,2.56,2.37h0Z"/><path class="cls-4" d="M185.74,323.78c.27-.26,3.26-3.16,3.26-3.16,0,0,2.99,2.9,3.26,3.16.25-.23,2.28-2.12,2.56-2.37-.29-.28-2.78-2.69-2.78-2.69l3.15-3.06h-4.1l-2.09,2.03-2.09-2.03h-4.1l3.15,3.06s-2.49,2.42-2.78,2.69c.28.26,2.31,2.14,2.56,2.37Z"/><path class="cls-4" d="M176.5,323.78c-.27-.26-3.26-3.16-3.26-3.16,0,0-2.99,2.9-3.26,3.16-.25-.23-2.29-2.12-2.56-2.37.29-.28,2.78-2.69,2.78-2.69l-3.15-3.06h4.1l2.09,2.03,2.09-2.03h4.1l-3.15,3.06s2.49,2.42,2.78,2.69c-.28.26-2.31,2.14-2.56,2.37Z"/><path class="cls-5" d="M146.58,306.42v9.23h84.84v-9.23h12.55v-56.03h-12.55v-9.23h-84.84v9.23h-12.55v56.03h12.55Z"/><path class="cls-6" d="M147.03,241.58v9.22h-12.55v55.19h12.55v9.22h83.95v-9.22h12.55v-55.19h-12.55v-9.22h-83.95,0ZM152.44,245.13h73.15v8.9l3.02,2.23h11.39v44.33h-11.44l-2.97,2.17v8.95h-73.15v-8.9l-3.02-2.22h-11.44v-44.33h11.39l3.07-2.23v-8.9h0Z"/><path class="cls-6" d="M152.86,245.55v8.16l11.02-8.16h-11.02ZM214.09,245.55l11.02,8.16v-8.16h-11.02ZM138.45,256.67v7.63l10.38-7.63h-10.38ZM229.13,256.67l10.43,7.68v-7.68h-10.43ZM239.57,292.43l-10.43,7.73h10.43v-7.73ZM138.45,292.48v7.68h10.38l-10.38-7.68ZM152.86,303.13v8.1h10.96l-10.96-8.1ZM225.1,303.13l-10.96,8.1h10.96v-8.1Z"/><path class="cls-4" d="M213.38,245.56c.11.08,26.02,19.21,26.19,19.34v27.01c-.17.13-26.07,19.26-26.19,19.34h-48.76c-.11-.08-26.01-19.21-26.19-19.34v-27.01c.17-.13,26.07-19.26,26.19-19.34h48.76,0Z"/><path class="cls-5" d="M144.67,295.02l-3.01-3.49,2.83-3.28-2.83-3.28,2.83-3.28-2.83-3.28,2.83-3.28-2.83-3.28,2.83-3.28-2.83-3.28,3.01-3.49h88.66l3.01,3.49-2.83,3.28,2.83,3.28-2.83,3.28,2.83,3.28-2.83,3.28,2.83,3.28-2.83,3.28,2.83,3.28-3.01,3.49h-88.66ZM205.61,249.78l-3.49-3.01-3.28,2.83-3.28-2.83-3.28,2.83-3.28-2.83-3.28,2.83-3.28-2.83-3.28,2.83-3.28-2.83-3.49,3.01v57.24l3.49,3.01,3.28-2.83,3.28,2.83,3.28-2.83,3.28,2.83,3.28-2.83,3.28,2.83,3.28-2.83,3.28,2.83,3.49-3.01v-57.24Z"/><path class="cls-8" d="M198.62,249.98l-3.07-2.64-3.07,2.64v56.85l3.07,2.64,3.07-2.64v-56.85Z"/><path class="cls-8" d="M185.5,249.98l-3.07-2.64-3.07,2.64v56.85l3.07,2.64,3.07-2.64v-56.85Z"/><path class="cls-8" d="M144.86,294.59l-2.64-3.07,2.64-3.07h88.27l2.64,3.07-2.64,3.07h-88.27Z"/><path class="cls-8" d="M233.13,275.34l2.64,3.07-2.64,3.07h-88.27l-2.64-3.07,2.64-3.07h88.27Z"/><path class="cls-8" d="M233.13,268.35l2.64-3.07-2.64-3.07h-88.27l-2.64,3.07,2.64,3.07h88.27Z"/><path class="cls-6" d="M205.18,249.98l-3.07-2.64-3.07,2.64v56.85l3.07,2.64,3.06-2.64v-56.85Z"/><path class="cls-6" d="M178.94,249.98l-3.07-2.64-3.07,2.64v56.85l3.07,2.64,3.07-2.64v-56.85Z"/><path class="cls-6" d="M144.86,288.03l-2.64-3.07,2.64-3.07h88.27l2.64,3.07-2.64,3.07h-88.27Z"/><path class="cls-6" d="M144.86,274.91l-2.64-3.07,2.64-3.07h88.27l2.64,3.07-2.64,3.07h-88.27Z"/><path class="cls-6" d="M192.06,306.83l-3.07,2.64-3.07-2.64v-56.85l3.07-2.64,3.07,2.64v56.85Z"/><path class="cls-5" d="M218.63,251.09h-59.48v4.72h-7.6v45.18h7.6v4.72h59.69v-4.72h7.6v-45.18h-7.6v-4.72h-.21Z"/><path class="cls-6" d="M159.59,251.54v4.72h-7.63v44.33h7.63v4.71h6.25l-12.45-10.43v-32.89l12.45-10.43h-6.25ZM212.18,251.54l12.39,10.43v32.89l-12.39,10.43h6.25v-4.71h7.57v-44.33h-7.57v-4.72h-6.25Z"/><path class="cls-4" d="M166.52,251.54c-.12.1-12.56,10.52-12.71,10.65v32.47c.15.13,12.59,10.55,12.71,10.65h44.97c.12-.1,12.51-10.52,12.66-10.65v-32.47c-.15-.13-12.54-10.55-12.66-10.65h-44.97ZM167.16,253.34h43.64l11.55,9.69v30.77l-11.55,9.64h-43.64l-11.49-9.64v-30.77l11.49-9.69Z"/><path class="cls-4" d="M178.72,294.29l1.95.84.36,2.28-2.46,2.16,3.57,3.45h-3.44l-2.46-2.37-2.46,2.37h-3.44l3.57-3.45-2.46-2.16.36-2.28,1.95-.84,2.47,1.97.13-.11,2.34-1.87Z"/><path class="cls-4" d="M191.47,294.29l1.95.84.36,2.28-2.46,2.16,3.57,3.45h-3.44l-2.46-2.37-2.46,2.37h-3.44l3.57-3.45-2.46-2.16.36-2.28,1.95-.84,2.47,1.97.13-.11,2.34-1.87Z"/><path class="cls-4" d="M199.28,294.29l-1.95.84-.36,2.28,2.46,2.16-3.57,3.45h3.44l2.46-2.37,2.46,2.37h3.44l-3.57-3.45,2.46-2.16-.36-2.28-1.95-.84-2.47,1.97-.13-.11-2.34-1.87Z"/><path class="cls-4" d="M178.72,262.52l1.95-.84.36-2.28-2.46-2.16,3.57-3.45h-3.44l-2.46,2.37-2.46-2.37h-3.44l3.57,3.45-2.46,2.16.36,2.28,1.95.84,2.47-1.97.13.11,2.34,1.87Z"/><path class="cls-4" d="M191.47,262.52l1.95-.84.36-2.28-2.46-2.16,3.57-3.45h-3.44l-2.46,2.37-2.46-2.37h-3.44l3.57,3.45-2.46,2.16.36,2.28,1.95.84,2.47-1.97.13.11,2.34,1.87Z"/><path class="cls-4" d="M199.28,262.52l-1.95-.84-.36-2.28,2.46-2.16-3.57-3.45h3.44l2.46,2.37,2.46-2.37h3.44l-3.57,3.45,2.46,2.16-.36,2.28-1.95.84-2.47-1.97-.13.11-2.34,1.87Z"/><path class="cls-4" d="M221.9,266.17l-1.95,1.61,1.95,1.61v2.68l-3-2.47s-2.02,1.83-2.15,1.95c-.17-.02-2.12-.27-2.31-.29-.09-.16-.69-1.28-.81-1.5.2-.2,1.99-1.98,1.99-1.98,0,0-1.79-1.78-1.99-1.98.12-.22.73-1.34.81-1.5.19-.02,2.13-.27,2.31-.29.14.12,2.15,1.95,2.15,1.95l3-2.47v2.68Z"/><path class="cls-4" d="M221.9,276.79l-1.95,1.61,1.95,1.61v2.68l-3-2.47s-2.02,1.83-2.15,1.95c-.17-.02-2.12-.27-2.31-.29-.09-.16-.69-1.28-.81-1.5.2-.2,1.99-1.98,1.99-1.98,0,0-1.79-1.78-1.99-1.98.12-.22.73-1.34.81-1.5.19-.02,2.13-.27,2.31-.29.14.12,2.15,1.95,2.15,1.95l3-2.47v2.68h0Z"/><path class="cls-4" d="M221.9,290.65l-1.95-1.61,1.95-1.61v-2.68l-3,2.47s-2.02-1.83-2.15-1.95c-.17.02-2.12.27-2.31.29-.09.16-.69,1.28-.81,1.5.2.2,1.99,1.98,1.99,1.98,0,0-1.79,1.78-1.99,1.98.12.22.73,1.34.81,1.5.19.02,2.13.27,2.31.29.14-.12,2.15-1.95,2.15-1.95l3,2.47v-2.68Z"/><path class="cls-4" d="M156.1,266.17l1.95,1.61-1.95,1.61v2.68l3-2.47s2.02,1.83,2.15,1.95c.17-.02,2.12-.27,2.31-.29.09-.16.69-1.28.81-1.5-.2-.2-1.99-1.98-1.99-1.98,0,0,1.79-1.78,1.99-1.98-.12-.22-.73-1.34-.81-1.5-.19-.02-2.14-.27-2.31-.29-.14.12-2.15,1.95-2.15,1.95l-3-2.47v2.68Z"/><path class="cls-4" d="M156.1,276.79l1.95,1.61-1.95,1.61v2.68l3-2.47s2.02,1.83,2.15,1.95c.17-.02,2.12-.27,2.31-.29.09-.16.69-1.28.81-1.5-.2-.2-1.99-1.98-1.99-1.98,0,0,1.79-1.78,1.99-1.98-.12-.22-.73-1.34-.81-1.5-.19-.02-2.14-.27-2.31-.29-.14.12-2.15,1.95-2.15,1.95l-3-2.47v2.68h0Z"/><path class="cls-4" d="M156.1,290.65l1.95-1.61-1.95-1.61v-2.68l3,2.47s2.02-1.83,2.15-1.95c.17.02,2.12.27,2.31.29.09.16.69,1.28.81,1.5-.2.2-1.99,1.98-1.99,1.98,0,0,1.79,1.78,1.99,1.98-.12.22-.73,1.34-.81,1.5-.19.02-2.14.27-2.31.29-.14-.12-2.15-1.95-2.15-1.95l-3,2.47v-2.68Z"/><path class="cls-6" d="M167.32,253.76c-.12.1-10.6,8.88-11.07,9.27.95.78,1.86,1.6,2.81,2.38.24-.22,2.07-1.85,2.07-1.85l2.7.37,1.06,1.96s-1.65,1.65-1.91,1.91c.26.26,1.91,1.91,1.91,1.91l-1.06,1.96-2.7.32s-1.83-1.58-2.07-1.8l-2.97,2.49v.85c1,.83,1.96,1.66,2.97,2.49.24-.22,2.07-1.8,2.07-1.8l2.7.32,1.06,1.96s-1.65,1.65-1.91,1.91c.26.26,1.91,1.91,1.91,1.91l-1.06,2.01-2.7.32s-1.83-1.64-2.07-1.85l-2.97,2.49v.9l2.97,2.49c.24-.22,2.07-1.85,2.07-1.85l2.7.37,1.06,1.96s-1.65,1.65-1.91,1.91c.26.26,1.91,1.91,1.91,1.91l-1.06,1.96-2.7.37s-1.83-1.64-2.07-1.85c-.94.78-1.87,1.55-2.81,2.33.47.39,10.95,9.17,11.07,9.27h2.44l3.55-3.44-2.28-2.01.42-2.75,2.38-1.01,2.44,1.91,2.38-1.91,2.38,1.01.48,2.75-2.33,2.01,3.44,3.28,3.44-3.28-2.33-2.01.42-2.75,2.44-1.01,2.38,1.91,2.44-1.91,2.38,1.01.42,2.75-2.28,2.01,3.39,3.34,3.44-3.34-2.28-2.01.42-2.75,2.44-1.01,2.38,1.91,2.38-1.91,2.44,1.01.42,2.75-2.28,2.01,3.55,3.44h2.38c.12-.1,10.6-8.88,11.07-9.27-.94-.78-1.86-1.55-2.81-2.33-.24.22-2.01,1.85-2.01,1.85l-2.7-.37-1.11-1.96s1.65-1.65,1.91-1.91c-.26-.26-1.91-1.91-1.91-1.91l1.11-1.96,2.7-.37s1.77,1.64,2.01,1.85l2.97-2.49v-.9l-2.97-2.49c-.24.22-2.01,1.85-2.01,1.85l-2.7-.32-1.11-2.01s1.65-1.65,1.91-1.91c-.26-.26-1.91-1.91-1.91-1.91l1.11-1.96,2.7-.32s1.77,1.58,2.01,1.8c.99-.82,1.97-1.62,2.97-2.44v-.95l-2.97-2.44c-.24.22-2.01,1.8-2.01,1.8l-2.7-.32-1.11-1.96s1.65-1.65,1.91-1.91c-.26-.26-1.91-1.91-1.91-1.91l1.11-1.96,2.7-.37s1.77,1.64,2.01,1.85c.95-.78,1.91-1.55,2.86-2.33-.36-.31-11.01-9.22-11.12-9.32h-2.38l-3.55,3.44,2.28,2.01-.42,2.75-2.44,1.06-2.38-1.91-2.38,1.91-2.44-1.06-.42-2.75,2.28-2.01-3.39-3.28-3.44,3.28,2.28,2.01-.42,2.75-2.38,1.06-2.44-1.91-2.38,1.91-2.44-1.06-.42-2.75,2.33-2.01-3.44-3.28-3.44,3.28,2.33,2.01-.48,2.75-2.38,1.06-2.38-1.91-2.44,1.91-2.38-1.06-.42-2.75,2.28-2.01-3.6-3.44h-2.38ZM156.09,277.33v2.17l1.27-1.11-1.27-1.06Z"/><path class="cls-7" d="M176.27,301.27l-1.85,1.75h3.65l-1.8-1.75Z"/><path class="cls-7" d="M188.98,301.27l-1.8,1.75h3.65l-1.85-1.75Z"/><path class="cls-7" d="M201.75,301.27l-1.85,1.75h3.71l-1.85-1.75h0Z"/><path class="cls-7" d="M174.36,253.76l1.91,1.8,1.85-1.8h-3.76Z"/><path class="cls-7" d="M187.13,253.76l1.85,1.8,1.91-1.8h-3.76Z"/><path class="cls-7" d="M199.9,253.76l1.85,1.8,1.85-1.8h-3.71,0Z"/><path class="cls-7" d="M221.88,266.74l-1.27,1.06,1.27,1.01v-2.07Z"/><path class="cls-7" d="M221.88,277.33l-1.27,1.06,1.27,1.06v-2.12Z"/><path class="cls-7" d="M221.88,287.98l-1.27,1.06,1.27,1.06v-2.12Z"/><path class="cls-7" d="M156.09,266.68v2.17l1.27-1.06-1.27-1.11Z"/><path class="cls-7" d="M156.09,277.33v2.17l1.27-1.11-1.27-1.06Z"/><path class="cls-7" d="M156.09,287.92v2.17l1.27-1.06-1.27-1.11Z"/><path class="cls-5" d="M199.9,274.86v-3.79h-3.84v-4.16h-14.13v4.16h-3.84v3.79h-5.3v7.1h5.3v3.79h3.84v4.16h14.13v-4.16h3.84v-3.79h5.3v-7.1h-5.3Z"/><path class="cls-8" d="M188.78,267.34v4.28l-6.07,3.45v3.12h-9.48v-2.91h5.3v-3.79h3.84v-4.16h6.42Z"/><path class="cls-8" d="M189.21,289.48v-4.28l6.07-3.45v-3.12h9.48v2.91h-5.3v3.79h-3.84v4.16h-6.42Z"/><path class="cls-7" d="M195.29,278.19v-3.12l-6.07-3.45v-4.28h6.42v4.16h3.84v3.79h5.3v2.91h-9.48Z"/><path class="cls-7" d="M173.23,278.62h9.48v3.12l6.07,3.45v4.28h-6.42v-4.16h-3.84v-3.79h-5.3v-2.91Z"/><path class="cls-6" d="M183.14,278.62v2.89l5.65,3.21v-6.1h-5.65Z"/><path class="cls-4" d="M188.78,272.09l-5.65,3.21v2.89h5.65v-6.1Z"/><path class="cls-6" d="M194.86,278.19v-2.89l-5.65-3.21v6.1h5.65Z"/><path class="cls-4" d="M189.21,284.72l5.65-3.21v-2.89h-5.65v6.1Z"/></g><g id="carp4"><path class="cls-5" d="M137.65,353.73v11.72h-11.17v10.63h-11.32v30.26h11.32v10.63h11.17v11.72h40.6l7.14,4.29-3.43,2.06h-14.48l-1.25-1.41h13.12l-3.7-3.72h-18.77l8.5,8.85h17.6l6.01-3.61,6.01,3.61h17.6l8.5-8.85h-18.77l-3.7,3.72h13.12l-1.25,1.41h-14.48l-3.43-2.06,7.14-4.29h40.6v-11.72h11.17v-10.63h11.32v-30.26h-11.32v-10.63h-11.17v-11.72h-40.6l-7.14-4.29,3.43-2.06h14.48l1.25,1.41h-13.12l3.7,3.72h18.77l-8.5-8.85h-17.6l-6.01,3.61-6.01-3.61h-17.6l-8.5,8.85h18.77l3.7-3.72h-13.12l1.25-1.41h14.48l3.43,2.06-7.14,4.29h-40.6Z"/><path class="cls-6" d="M199.63,428.23h40.31v-11.71h11.12v-10.65h11.33v-29.4h-11.33v-10.59h-11.12v-11.71h-40.31l-16.74-10.12h-17.32l-7.68,8h17.58l2.86-2.86h-13.08l2.01-2.28h14.83l18.96,11.44h34.64v11.71h11.18v10.65h11.33v20.97h-11.33v10.65h-11.18v11.71h-34.64l-18.96,11.39h-14.83l-2.01-2.22h13.08l-2.86-2.86h-17.58l7.68,8h17.32l16.74-10.12ZM176.91,424.05h-34.64v-11.71h-11.12v-10.65h-11.33v-20.97h11.33v-10.65h11.12v-11.71h34.64l19.01-11.44h14.78l2.01,2.28h-13.03l2.86,2.86h17.58l-7.68-8h-17.32l-16.74,10.12h-40.31v11.71h-11.18v10.59h-11.33v29.4h11.33v10.65h11.18v11.71h40.31l16.74,10.12h17.32l7.68-8h-17.58l-2.86,2.86h13.03l-2.01,2.22h-14.78l-19.01-11.39Z"/><path class="cls-8" d="M188.98,351.59l-11.97,7.2h-34.32v11.71h-11.12v10.65h-11.33v20.13h11.33v10.65h11.12v11.71h34.32l11.97,7.15,11.97-7.15h34.32v-11.71h11.18v-10.65h11.33v-20.13h-11.33v-10.65h-11.18v-11.71h-34.32l-11.97-7.2ZM188.98,354.56l11.28,6.78h32.52v11.71h11.18v10.59h11.28v15.1h-11.28v10.65h-11.18v11.71h-32.52l-11.28,6.78-11.23-6.78h-32.52v-11.71h-11.18v-10.65h-11.33v-15.1h11.33v-10.59h11.18v-11.71h32.52l11.23-6.78Z"/><path class="cls-4" d="M232.34,408.95v11.72h-32.2l-11.14,6.7-11.14-6.7h-32.2v-11.72h-11.17v-10.63h-11.32v-14.25h11.32v-10.63h11.17v-11.72h32.2l11.14-6.7,11.14,6.7h32.2v11.72h11.17v10.63h11.32v14.25h-11.32v10.63h-11.17Z"/><path class="cls-5" d="M149.87,404.85v11.34h17.7l-17.7-11.74v.4Z"/><path class="cls-5" d="M149.87,377.56v-11.34h17.7l-17.7,11.74v-.4Z"/><path class="cls-5" d="M228.13,404.85v11.34h-17.7l17.7-11.74v.4Z"/><path class="cls-5" d="M228.13,377.56v-11.34h-17.7l17.7,11.74v-.4Z"/><path class="cls-6" d="M150.3,405.25l15.85,10.51h-15.85v-10.51Z"/><path class="cls-6" d="M150.3,377.16c.62-.41,14.77-9.8,15.85-10.51h-15.85v10.51Z"/><path class="cls-6" d="M227.7,405.25c-.62.41-14.77,9.8-15.85,10.51h15.85v-10.51Z"/><path class="cls-6" d="M227.7,377.16c-.62-.41-14.77-9.8-15.85-10.51h15.85v10.51Z"/><g id="carp4y"><path class="cls-5" d="M172.45,388.09v-5.79h-1.98l-9.48-5.92-.11.07-9.36,5.85h-1.98v5.79h-4.46v6.22h4.46v5.79h1.98l9.48,5.92,9.48-5.92h1.98v-5.79h6.78v-6.22h-6.78Z"/><path class="cls-6" d="M160.99,376.88l8.67,5.42h-17.34l8.67-5.42h0ZM169.66,400.1l-8.67,5.42-8.67-5.42h17.33,0Z"/><path class="cls-6" d="M167.56,388.52v5.36h-10.81v-5.36h10.81Z"/><path class="cls-8" d="M172.02,394.31v5.36h-10.81v-5.36h10.81Z"/><path class="cls-8" d="M160.78,394.31v5.36h-10.81v-5.36h10.81Z"/><path class="cls-8" d="M178.8,388.52v5.36h-10.81v-5.36h10.81Z"/><path class="cls-8" d="M156.32,388.52v5.36h-10.81v-5.36h10.81Z"/><path class="cls-8" d="M172.02,382.73v5.36h-10.81v-5.36h10.81Z"/><path class="cls-8" d="M160.78,382.73v5.36h-10.81v-5.36h10.81Z"/><path class="cls-5" d="M153.35,389.71v2.98h-4.86v-2.98h4.86Z"/><path class="cls-5" d="M157.8,383.92v2.98h-4.86v-2.98h4.86Z"/><path class="cls-5" d="M169.04,383.92v2.98h-4.86v-2.98h4.86Z"/><path class="cls-5" d="M164.59,389.71v2.98h-4.86v-2.98h4.86Z"/><path class="cls-5" d="M175.82,389.71v2.98h-4.86v-2.98h4.86Z"/><path class="cls-5" d="M169.04,395.51v2.98h-4.86v-2.98h4.86Z"/><path class="cls-5" d="M157.8,395.51v2.98h-4.86v-2.98h4.86Z"/><path class="cls-7" d="M152.89,390.17h-3.94v2.07h3.94v-2.07Z"/><path class="cls-7" d="M157.35,384.38h-3.94v2.07h3.94v-2.07Z"/><path class="cls-7" d="M168.58,384.38h-3.94v2.07h3.94v-2.07Z"/><path class="cls-7" d="M164.13,390.17h-3.94v2.07h3.94v-2.07Z"/><path class="cls-7" d="M175.37,390.17h-3.94v2.07h3.94v-2.07Z"/><path class="cls-7" d="M168.58,395.96h-3.94v2.07h3.94v-2.07Z"/><path class="cls-7" d="M157.35,395.96h-3.94v2.07h3.94v-2.07Z"/></g><g id="carp4y-2"><path class="cls-5" d="M205.55,388.09v-5.79h1.98l9.48-5.92.11.07,9.36,5.85h1.98v5.79h4.46v6.22h-4.46v5.79h-1.98l-9.48,5.92-9.48-5.92h-1.98v-5.79h-6.78v-6.22h6.78Z"/><path class="cls-6" d="M217,376.88l-8.67,5.42h17.34l-8.67-5.42h0ZM208.33,400.1l8.67,5.42,8.67-5.42h-17.33,0Z"/><path class="cls-6" d="M210.43,388.52v5.36h10.81v-5.36h-10.81Z"/><path class="cls-8" d="M205.98,394.31v5.36h10.81v-5.36h-10.81Z"/><path class="cls-8" d="M217.22,394.31v5.36h10.81v-5.36h-10.81Z"/><path class="cls-8" d="M199.2,388.52v5.36h10.81v-5.36h-10.81Z"/><path class="cls-8" d="M221.67,388.52v5.36h10.81v-5.36h-10.81Z"/><path class="cls-8" d="M205.98,382.73v5.36h10.81v-5.36h-10.81Z"/><path class="cls-8" d="M217.22,382.73v5.36h10.81v-5.36h-10.81Z"/><path class="cls-5" d="M224.65,389.71v2.98h4.86v-2.98h-4.86Z"/><path class="cls-5" d="M220.19,383.92v2.98h4.86v-2.98h-4.86Z"/><path class="cls-5" d="M208.96,383.92v2.98h4.86v-2.98h-4.86Z"/><path class="cls-5" d="M213.41,389.71v2.98h4.86v-2.98h-4.86Z"/><path class="cls-5" d="M202.17,389.71v2.98h4.86v-2.98h-4.86Z"/><path class="cls-5" d="M208.96,395.51v2.98h4.86v-2.98h-4.86Z"/><path class="cls-5" d="M220.19,395.51v2.98h4.86v-2.98h-4.86Z"/><path class="cls-7" d="M225.1,390.17h3.94v2.07h-3.94v-2.07Z"/><path class="cls-7" d="M220.65,384.38h3.94v2.07h-3.94v-2.07Z"/><path class="cls-7" d="M209.41,384.38h3.94v2.07h-3.94v-2.07Z"/><path class="cls-7" d="M213.87,390.17h3.94v2.07h-3.94v-2.07Z"/><path class="cls-7" d="M202.63,390.17h3.94v2.07h-3.94v-2.07Z"/><path class="cls-7" d="M209.41,395.96h3.94v2.07h-3.94v-2.07Z"/><path class="cls-7" d="M220.65,395.96h3.94v2.07h-3.94v-2.07Z"/></g><g id="carp4r"><path class="cls-5" d="M200.45,378.42v5.79h-1.98l-9.48,5.92-.11-.07-9.36-5.85h-1.98v-5.79h-5.62v-6.22h5.62v-5.79h1.98l9.48-5.93,9.48,5.93h1.98v5.79h5.62v6.22h-5.62Z"/><path class="cls-8" d="M189,389.63l8.67-5.42h-17.33l8.67,5.42h0ZM197.67,366.41l-8.67-5.42-8.67,5.42h17.33,0Z"/><path class="cls-6" d="M200.02,372.2v-5.36h-10.81v5.36h10.81Z"/><path class="cls-6" d="M188.78,372.2v-5.36h-10.81v5.36h10.81Z"/><path class="cls-6" d="M205.64,377.99v-5.36h-10.81v5.36h10.81Z"/><path class="cls-6" d="M194.4,377.99v-5.36h-10.81v5.36h10.81Z"/><path class="cls-6" d="M183.16,377.99v-5.36h-10.81v5.36h10.81Z"/><path class="cls-6" d="M200.02,383.78v-5.36h-10.81v5.36h10.81Z"/><path class="cls-6" d="M188.78,383.78v-5.36h-10.81v5.36h10.81Z"/><path class="cls-5" d="M185.81,368.03v2.98h-4.86v-2.98h4.86Z"/><path class="cls-5" d="M197.04,368.03v2.98h-4.86v-2.98h4.86Z"/><path class="cls-5" d="M180.19,373.82v2.98h-4.86v-2.98h4.86Z"/><path class="cls-5" d="M191.43,373.82v2.98h-4.86v-2.98h4.86Z"/><path class="cls-5" d="M202.66,373.82v2.98h-4.86v-2.98h4.86Z"/><path class="cls-5" d="M185.81,379.61v2.98h-4.86v-2.98h4.86Z"/><path class="cls-5" d="M197.04,379.61v2.98h-4.86v-2.98h4.86Z"/><path class="cls-7" d="M185.35,368.49h-3.94v2.07h3.94v-2.07Z"/><path class="cls-7" d="M196.59,368.49h-3.94v2.07h3.94v-2.07Z"/><path class="cls-7" d="M179.73,374.28h-3.94v2.07h3.94v-2.07Z"/><path class="cls-7" d="M190.97,374.28h-3.94v2.07h3.94v-2.07Z"/><path class="cls-7" d="M202.21,374.28h-3.94v2.07h3.94v-2.07Z"/><path class="cls-7" d="M185.35,380.07h-3.94v2.07h3.94v-2.07Z"/><path class="cls-7" d="M196.59,380.07h-3.94v2.07h3.94v-2.07Z"/></g><g id="carp4r-2"><path class="cls-5" d="M200.45,410.21v5.79h-1.98l-9.48,5.92-.11-.07-9.36-5.85h-1.98v-5.79h-5.62v-6.22h5.62v-5.79h1.98l9.48-5.93,9.48,5.93h1.98v5.79h5.62v6.22h-5.62Z"/><path class="cls-8" d="M189,421.42l8.67-5.42h-17.33l8.67,5.42h0ZM197.67,398.2l-8.67-5.42-8.67,5.42h17.33,0Z"/><path class="cls-6" d="M200.02,403.99v-5.36h-10.81v5.36h10.81Z"/><path class="cls-6" d="M188.78,403.99v-5.36h-10.81v5.36h10.81Z"/><path class="cls-6" d="M205.64,409.78v-5.36h-10.81v5.36h10.81Z"/><path class="cls-6" d="M194.4,409.78v-5.36h-10.81v5.36h10.81Z"/><path class="cls-6" d="M183.16,409.78v-5.36h-10.81v5.36h10.81Z"/><path class="cls-6" d="M200.02,415.57v-5.36h-10.81v5.36h10.81Z"/><path class="cls-6" d="M188.78,415.57v-5.36h-10.81v5.36h10.81Z"/><path class="cls-5" d="M185.81,399.82v2.98h-4.86v-2.98h4.86Z"/><path class="cls-5" d="M197.04,399.82v2.98h-4.86v-2.98h4.86Z"/><path class="cls-5" d="M180.19,405.61v2.98h-4.86v-2.98h4.86Z"/><path class="cls-5" d="M191.43,405.61v2.98h-4.86v-2.98h4.86Z"/><path class="cls-5" d="M202.66,405.61v2.98h-4.86v-2.98h4.86Z"/><path class="cls-5" d="M185.81,411.4v2.98h-4.86v-2.98h4.86Z"/><path class="cls-5" d="M197.04,411.4v2.98h-4.86v-2.98h4.86Z"/><path class="cls-7" d="M185.35,400.27h-3.94v2.07h3.94v-2.07Z"/><path class="cls-7" d="M196.59,400.27h-3.94v2.07h3.94v-2.07Z"/><path class="cls-7" d="M179.73,406.07h-3.94v2.07h3.94v-2.07Z"/><path class="cls-7" d="M190.97,406.07h-3.94v2.07h3.94v-2.07Z"/><path class="cls-7" d="M202.21,406.07h-3.94v2.07h3.94v-2.07Z"/><path class="cls-7" d="M185.35,411.86h-3.94v2.07h3.94v-2.07Z"/><path class="cls-7" d="M196.59,411.86h-3.94v2.07h3.94v-2.07Z"/></g></g><g id="carp5"><path class="cls-5" d="M127.68,479.35l42.05-22.63h38.54l42.05,22.63v37.29l-42.05,22.63h-38.54l-42.05-22.63v-37.29Z"/><path class="cls-4" d="M169.86,457.15l-41.74,22.46v36.76l41.74,22.46h38.29l41.74-22.46v-36.76l-41.74-22.46h-38.29ZM170.6,460.17h36.81l39.51,21.24v33.21l-39.51,21.24h-36.83l-39.51-21.24v-33.21l39.53-21.24Z"/><path class="cls-8" d="M189.21,497.78v37.64h18.1l39.18-21.09v-16.12h-57.71v-37.64h-18.09l-39.18,21.09v16.12h57.71Z"/><path class="cls-7" d="M188.78,497.78v37.64h-18.09l-39.18-21.09v-16.12h57.71v-37.64h18.1l39.18,21.09v16.12h-57.71Z"/><path class="cls-5" d="M192.51,533.32v-10.88l-3.52,2.23-3.52-2.23v10.88h-10.94l7.38-5.41v-7.72l-11.26-7.14h-7.87v-30.07h7.87l11.26-7.14v-7.72l-7.38-5.41h10.94v10.88l3.52-2.23,3.52,2.23v-10.88h10.94l-7.38,5.41v7.72l11.26,7.14h7.87v30.07h-7.87l-11.26,7.14v7.72l7.38,5.41h-10.94Z"/><path class="cls-8" d="M192.96,463.14v11.23l-3.76-2.38v3.18l17.21,10.96h5.67v11.65h2.7v-14.41h-7.57l-11.55-7.31v-8.16l6.51-4.77h-9.22ZM163.24,498.2v14.41h7.52l11.6,7.36v8.16l-6.52,4.77h9.22v-11.23l3.71,2.38v-3.28l-17.21-10.86h-5.61v-11.71h-2.7,0Z"/><path class="cls-7" d="M175.85,463.14l6.52,4.77v8.16l-11.6,7.31h-7.52v14.41h2.7v-11.65h5.61l17.21-10.91v-3.23l-3.71,2.38v-11.23h-9.22ZM212.08,498.2v11.71h-5.67l-17.21,10.86v3.28l3.76-2.38v11.23h9.22l-6.51-4.77v-8.16l11.55-7.36h7.57v-14.41h-2.7,0Z"/><path class="cls-6" d="M166.35,509.46h5.34l17.31,10.98,17.31-10.98h5.34v-22.92h-5.34l-17.31-10.98-17.31,10.98h-5.34v22.92Z"/><path class="cls-5" d="M200.98,503.45h3.7v-1.75h-2.78v-3.18h5.94v8.11h-5.7v5.53s-11.72,0-11.72,0v-7.95h5.16v3.18h-2v1.59h5.4v-3.04l-21.96-13.38h-3.7v1.75h2.78v3.18h-5.94v-8.1h5.7v-5.53h11.72v7.95h-5.16v-3.18h2v-1.59h-5.4v3.04l21.96,13.38ZM198.98,490.06v-3.04h-5.4v1.59h2v3.18h-5.16v-7.95h11.72v5.53h5.7v8.1h-5.94v-3.18h2.78v-1.75h-3.7l-21.96,13.38v3.04h5.4v-1.59h-2v-3.18h5.16v7.95h-11.72v-5.53h-5.7v-8.1h5.94v3.18h-2.78v1.75h3.7l21.96-13.38Z"/><path class="cls-7" d="M199.41,505.7v3.71h-6.26v-2.45h2v-2.32h-4.3v7.09h10.87v-5.53h5.7v-7.25h-5.08v2.32h2.78v2.61h-4.24l-22.27-13.57v-3.71h6.26v2.45h-2v2.32h4.3v-7.09h-10.87v5.53h-5.7v7.25h5.08v-2.32h-2.78v-2.61h4.24l22.27,13.57ZM200.86,492.13h4.24v2.61h-2.78v2.32h5.08v-7.25h-5.7v-5.53h-10.87v7.09h4.3v-2.32h-2v-2.45h6.26v3.71l-22.27,13.57h-4.24v-2.61h2.78v-2.32h-5.08v7.25h5.7v5.53h10.87v-7.09h-4.3v2.32h2v2.45h-6.26v-3.71l22.27-13.57Z"/><path class="cls-5" d="M238.04,499.88v11.76h-5.01v-4.15h-5.05v4.15h-5.01v-11.76h5.01v4.15h5.05v-4.15h5.01Z"/><path class="cls-5" d="M220.13,515.5v11.76h-5.01v-4.15h-5.05v4.15h-5.01v-11.76h5.01v4.15h5.05v-4.15h5.01Z"/><path class="cls-5" d="M238.04,496.11v-11.76h-5.01v4.15h-5.05v-4.15h-5.01v11.76h5.01v-4.15h5.05v4.15h5.01Z"/><path class="cls-5" d="M139.95,499.88v11.76h5.01v-4.15h5.05v4.15h5.01v-11.76h-5.01v4.15h-5.05v-4.15h-5.01Z"/><path class="cls-5" d="M139.95,496.11v-11.76h5.01v4.15h5.05v-4.15h5.01v11.76h-5.01v-4.15h-5.05v4.15h-5.01Z"/><path class="cls-5" d="M220.13,480.5v-11.76h-5.01v4.15h-5.05v-4.15h-5.01v11.76h5.01v-4.15h5.05v4.15h5.01Z"/><path class="cls-5" d="M157.86,515.5v11.76h5.01v-4.15h5.05v4.15h5.01v-11.76h-5.01v4.15h-5.05v-4.15h-5.01Z"/><path class="cls-5" d="M157.86,480.5v-11.76h5.01v4.15h5.05v-4.15h5.01v11.76h-5.01v-4.15h-5.05v4.15h-5.01Z"/><path class="cls-5" d="M223.12,472.26v8.93h16.6l-16.6-8.93Z"/><path class="cls-5" d="M154.88,523.74v-8.93h-16.6l16.6,8.93Z"/><path class="cls-5" d="M154.88,472.26v8.93h-16.6l16.6-8.93Z"/><path class="cls-5" d="M223.12,523.74v-8.93h16.6l-16.6,8.93Z"/><path class="cls-6" d="M233.46,507.06v4.15h4.15v-10.9h-4.15v4.15h-5.9v-4.15h-4.15v10.9h4.15v-4.15h5.9Z"/><path class="cls-6" d="M215.55,522.68v4.15h4.15v-10.9h-4.15v4.15h-5.9v-4.15h-4.15v10.9h4.15v-4.15h5.9Z"/><path class="cls-6" d="M233.46,488.93v-4.15h4.15v10.9h-4.15v-4.15h-5.9v4.15h-4.15v-10.9h4.15v4.15h5.9Z"/><path class="cls-6" d="M144.53,507.06v4.15h-4.15v-10.9h4.15v4.15h5.9v-4.15h4.15v10.9h-4.15v-4.15h-5.9Z"/><path class="cls-6" d="M144.53,488.93v-4.15h-4.15v10.9h4.15v-4.15h5.9v4.15h4.15v-10.9h-4.15v4.15h-5.9Z"/><path class="cls-6" d="M215.55,473.32v-4.15h4.15v10.9h-4.15v-4.15h-5.9v4.15h-4.15v-10.9h4.15v4.15h5.9Z"/><path class="cls-6" d="M162.44,522.68v4.15h-4.15v-10.9h4.15v4.15h5.9v-4.15h4.15v10.9h-4.15v-4.15h-5.9Z"/><path class="cls-6" d="M162.44,473.32v-4.15h-4.15v10.9h4.15v-4.15h5.9v4.15h4.15v-10.9h-4.15v4.15h-5.9Z"/><path class="cls-8" d="M223.57,472.99v7.79h14.46l-14.46-7.79ZM139.99,515.25l14.46,7.79v-7.79h-14.46,0Z"/><path class="cls-7" d="M154.45,472.99l-14.46,7.79h14.46v-7.79ZM223.57,515.25v7.79l14.46-7.79h-14.46Z"/></g></g></g></svg>