<?xml version="1.0" encoding="UTF-8"?><svg id="_色修正" xmlns="http://www.w3.org/2000/svg" viewBox="0 0 900 600"><defs><style>.cls-1{stroke-miterlimit:5.6;stroke-width:4.06px;}.cls-1,.cls-2{fill:none;stroke:#fff;}.cls-3{fill:#e50012;}.cls-3,.cls-4,.cls-5,.cls-6{stroke-width:0px;}.cls-4{fill:#ca151d;}.cls-5{fill:#fff;}.cls-6{fill:#008c3c;}.cls-2{stroke-miterlimit:11.2;stroke-width:8.13px;}</style></defs><rect class="cls-3" width="900" height="600"/><rect class="cls-5" y="3" width="900" height="400"/><rect class="cls-6" width="900" height="200"/><path id="tbp1" class="cls-1" d="M4.61,171.93h52.83M6.64,190.22v-10.16h16.25v8.13h16.25v-8.13h-10.16M12.74,188.19h4.06M57.44,188.19h-10.16v-8.13h16.25M63.53,169.9v18.29h16.25v-18.29M71.66,169.9v18.29"/><path id="tbp2" class="cls-2" d="M4.61,198.35h36.57M45.25,198.35h36.57"/><path id="tbp2-2" class="cls-2" d="M4.61,403.51h36.57M45.25,403.51h36.57"/><path id="tbp1-2" class="cls-1" d="M4.61,413.67h52.83M6.64,431.95v-10.16h16.25v8.13h16.25v-8.13h-10.16M12.74,429.92h4.06M57.44,429.92h-10.16v-8.13h16.25M63.53,411.64v18.29h16.25v-18.29M71.66,411.64v18.29"/><g id="tb1"><path id="tbp1-3" class="cls-1" d="M85.88,171.93h52.83M87.91,190.22v-10.16h16.25v8.13h16.25v-8.13h-10.16M94.01,188.19h4.06M138.71,188.19h-10.16v-8.13h16.25M144.81,169.9v18.29h16.25v-18.29M152.93,169.9v18.29"/><path id="tbp2-3" class="cls-2" d="M85.88,198.35h36.57M126.52,198.35h36.57"/><path id="tbp2-4" class="cls-2" d="M85.88,403.51h36.57M126.52,403.51h36.57"/><path id="tbp1-4" class="cls-1" d="M85.88,413.67h52.83M87.91,431.95v-10.16h16.25v8.13h16.25v-8.13h-10.16M94.01,429.92h4.06M138.71,429.92h-10.16v-8.13h16.25M144.81,411.64v18.29h16.25v-18.29M152.93,411.64v18.29"/></g><g id="tb1-2"><path id="tbp1-5" class="cls-1" d="M167.16,171.93h52.83M169.19,190.22v-10.16h16.25v8.13h16.25v-8.13h-10.16M175.28,188.19h4.06M219.99,188.19h-10.16v-8.13h16.25M226.08,169.9v18.29h16.25v-18.29M234.21,169.9v18.29"/><path id="tbp2-5" class="cls-2" d="M167.16,198.35h36.57M207.79,198.35h36.57"/><path id="tbp2-6" class="cls-2" d="M167.16,403.51h36.57M207.79,403.51h36.57"/><path id="tbp1-6" class="cls-1" d="M167.16,413.67h52.83M169.19,431.95v-10.16h16.25v8.13h16.25v-8.13h-10.16M175.28,429.92h4.06M219.99,429.92h-10.16v-8.13h16.25M226.08,411.64v18.29h16.25v-18.29M234.21,411.64v18.29"/></g><g id="tb1-3"><path id="tbp1-7" class="cls-1" d="M248.43,171.93h52.83M250.46,190.22v-10.16h16.25v8.13h16.25v-8.13h-10.16M256.56,188.19h4.06M301.26,188.19h-10.16v-8.13h16.25M307.36,169.9v18.29h16.25v-18.29M315.48,169.9v18.29"/><path id="tbp2-7" class="cls-2" d="M248.43,198.35h36.57M289.07,198.35h36.57"/><path id="tbp2-8" class="cls-2" d="M248.43,403.51h36.57M289.07,403.51h36.57"/><path id="tbp1-8" class="cls-1" d="M248.43,413.67h52.83M250.46,431.95v-10.16h16.25v8.13h16.25v-8.13h-10.16M256.56,429.92h4.06M301.26,429.92h-10.16v-8.13h16.25M307.36,411.64v18.29h16.25v-18.29M315.48,411.64v18.29"/></g><g id="tb1-4"><path id="tbp1-9" class="cls-1" d="M329.71,171.93h52.83M331.74,190.22v-10.16h16.25v8.13h16.25v-8.13h-10.16M337.83,188.19h4.06M382.53,188.19h-10.16v-8.13h16.25M388.63,169.9v18.29h16.25v-18.29M396.76,169.9v18.29"/><path id="tbp2-9" class="cls-2" d="M329.71,198.35h36.57M370.34,198.35h36.57"/><path id="tbp2-10" class="cls-2" d="M329.71,403.51h36.57M370.34,403.51h36.57"/><path id="tbp1-10" class="cls-1" d="M329.71,413.67h52.83M331.74,431.95v-10.16h16.25v8.13h16.25v-8.13h-10.16M337.83,429.92h4.06M382.53,429.92h-10.16v-8.13h16.25M388.63,411.64v18.29h16.25v-18.29M396.76,411.64v18.29"/></g><g id="tb1-5"><path id="tbp1-11" class="cls-1" d="M410.98,171.93h52.83M413.01,190.22v-10.16h16.25v8.13h16.25v-8.13h-10.16M419.11,188.19h4.06M463.81,188.19h-10.16v-8.13h16.25M469.9,169.9v18.29h16.25v-18.29M478.03,169.9v18.29"/><path id="tbp2-11" class="cls-2" d="M410.98,198.35h36.57M451.62,198.35h36.57"/><path id="tbp2-12" class="cls-2" d="M410.98,403.51h36.57M451.62,403.51h36.57"/><path id="tbp1-12" class="cls-1" d="M410.98,413.67h52.83M413.01,431.95v-10.16h16.25v8.13h16.25v-8.13h-10.16M419.11,429.92h4.06M463.81,429.92h-10.16v-8.13h16.25M469.9,411.64v18.29h16.25v-18.29M478.03,411.64v18.29"/></g><g id="tb1-6"><path id="tbp1-13" class="cls-1" d="M492.25,171.93h52.83M494.29,190.22v-10.16h16.25v8.13h16.25v-8.13h-10.16M500.38,188.19h4.06M545.08,188.19h-10.16v-8.13h16.25M551.18,169.9v18.29h16.25v-18.29M559.31,169.9v18.29"/><path id="tbp2-13" class="cls-2" d="M492.25,198.35h36.57M532.89,198.35h36.57"/><path id="tbp2-14" class="cls-2" d="M492.25,403.51h36.57M532.89,403.51h36.57"/><path id="tbp1-14" class="cls-1" d="M492.25,413.67h52.83M494.29,431.95v-10.16h16.25v8.13h16.25v-8.13h-10.16M500.38,429.92h4.06M545.08,429.92h-10.16v-8.13h16.25M551.18,411.64v18.29h16.25v-18.29M559.31,411.64v18.29"/></g><path id="tbp1-15" class="cls-1" d="M573.53,171.93h52.83M575.56,190.22v-10.16h16.25v8.13h16.25v-8.13h-10.16M581.66,188.19h4.06M626.36,188.19h-10.16v-8.13h16.25M632.45,169.9v18.29h16.25v-18.29M640.58,169.9v18.29"/><path id="tbp2-15" class="cls-2" d="M573.53,198.35h36.57M614.17,198.35h36.57"/><path id="tbp2-16" class="cls-2" d="M573.53,403.51h36.57M614.17,403.51h36.57"/><path id="tbp1-16" class="cls-1" d="M573.53,413.67h52.83M575.56,431.95v-10.16h16.25v8.13h16.25v-8.13h-10.16M581.66,429.92h4.06M626.36,429.92h-10.16v-8.13h16.25M632.45,411.64v18.29h16.25v-18.29M640.58,411.64v18.29"/><g id="tb1-7"><path id="tbp1-17" class="cls-1" d="M654.8,171.93h52.83M656.83,190.22v-10.16h16.25v8.13h16.25v-8.13h-10.16M662.93,188.19h4.06M707.63,188.19h-10.16v-8.13h16.25M713.73,169.9v18.29h16.25v-18.29M721.85,169.9v18.29"/><path id="tbp2-17" class="cls-2" d="M654.8,198.35h36.57M695.44,198.35h36.57"/><path id="tbp2-18" class="cls-2" d="M654.8,403.51h36.57M695.44,403.51h36.57"/><path id="tbp1-18" class="cls-1" d="M654.8,413.67h52.83M656.83,431.95v-10.16h16.25v8.13h16.25v-8.13h-10.16M662.93,429.92h4.06M707.63,429.92h-10.16v-8.13h16.25M713.73,411.64v18.29h16.25v-18.29M721.85,411.64v18.29"/></g><g id="tb1-8"><path id="tbp1-19" class="cls-1" d="M736.08,171.93h52.83M738.11,190.22v-10.16h16.25v8.13h16.25v-8.13h-10.16M744.2,188.19h4.06M788.91,188.19h-10.16v-8.13h16.25M795,169.9v18.29h16.25v-18.29M803.13,169.9v18.29"/><path id="tbp2-19" class="cls-2" d="M736.08,198.35h36.57M776.71,198.35h36.57"/><path id="tbp2-20" class="cls-2" d="M736.08,403.51h36.57M776.71,403.51h36.57"/><path id="tbp1-20" class="cls-1" d="M736.08,413.67h52.83M738.11,431.95v-10.16h16.25v8.13h16.25v-8.13h-10.16M744.2,429.92h4.06M788.91,429.92h-10.16v-8.13h16.25M795,411.64v18.29h16.25v-18.29M803.13,411.64v18.29"/></g><g id="tb1-9"><path id="tbp1-21" class="cls-1" d="M817.35,171.93h52.83M819.38,190.22v-10.16h16.25v8.13h16.25v-8.13h-10.16M825.48,188.19h4.06M870.18,188.19h-10.16v-8.13h16.25M876.27,169.9v18.29h16.25v-18.29M884.4,169.9v18.29"/><path id="tbp2-21" class="cls-2" d="M817.35,198.35h36.57M857.99,198.35h36.57"/><path id="tbp2-22" class="cls-2" d="M817.35,403.51h36.57M857.99,403.51h36.57"/><path id="tbp1-22" class="cls-1" d="M817.35,413.67h52.83M819.38,431.95v-10.16h16.25v8.13h16.25v-8.13h-10.16M825.48,429.92h4.06M870.18,429.92h-10.16v-8.13h16.25M876.27,411.64v18.29h16.25v-18.29M884.4,411.64v18.29"/></g><path class="cls-4" d="M408.81,363.97c35.93,11.67,74.52-7.99,86.19-43.92,8.52-26.23.46-55-20.44-72.99,23.19,34.32,14.17,80.94-20.15,104.14-13.42,9.07-29.42,13.55-45.61,12.77"/><path class="cls-4" d="M496.3,350.85c27.4-15.83,36.77-50.88,20.94-78.28-7.76-13.43-20.64-23.14-35.69-26.91,33.11,24.89,39.77,71.91,14.88,105.02-.04.06-.08.11-.13.17"/><path class="cls-4" d="M449.93,376.24l-3.75-75,3.75-59.05c2.28,3.18,5.32,5.74,8.85,7.43v44.08l-3.02,74.5-5.84,8.03Z"/><path class="cls-4" d="M448.43,237.49l1.5,1.41c3.44,4.89,10.19,6.06,15.08,2.63,4.1-2.88,5.68-8.21,3.83-12.86-1.05,5.55-6.4,9.2-11.95,8.16-2.92-.55-5.46-2.35-6.95-4.92"/><g id="emblem_half"><path class="cls-4" d="M491.04,363.97c-35.93,11.67-74.52-7.99-86.19-43.92-8.52-26.23-.46-55,20.44-72.99-23.19,34.32-14.17,80.94,20.15,104.14,13.42,9.07,29.42,13.55,45.61,12.77"/><path class="cls-4" d="M403.55,350.85c-27.4-15.83-36.77-50.88-20.94-78.28,7.76-13.43,20.64-23.14,35.69-26.91-33.11,24.89-39.77,71.91-14.88,105.02.04.06.08.11.13.17"/><path class="cls-4" d="M449.93,376.24l3.75-75-3.75-59.05c-2.28,3.18-5.32,5.74-8.85,7.43v44.08l3.02,74.5,5.84,8.03Z"/><path class="cls-4" d="M451.43,237.49l-1.5,1.41c-3.44,4.89-10.19,6.06-15.08,2.63-4.1-2.88-5.68-8.21-3.83-12.86,1.05,5.55,6.4,9.2,11.95,8.16,2.92-.55,5.46-2.35,6.95-4.92"/></g></svg>