<?xml version="1.0" encoding="UTF-8"?><svg id="_色修正" xmlns="http://www.w3.org/2000/svg" xmlns:xlink="http://www.w3.org/1999/xlink" viewBox="0 0 900 600"><defs><style>.cls-1{clip-path:url(#clippath);}.cls-2,.cls-3{fill:none;}.cls-2,.cls-4,.cls-5,.cls-6,.cls-7{stroke-width:0px;}.cls-3{stroke:#fff;stroke-miterlimit:80;stroke-width:60px;}.cls-4{fill:#e50012;}.cls-5{fill:#fff;}.cls-6{fill:#e62a23;}.cls-7{fill:#002b69;}</style><clipPath id="clippath"><rect class="cls-2" y=".19" width="450" height="300"/></clipPath></defs><rect class="cls-7" width="900" height="600"/><rect class="cls-7" y=".19" width="450" height="300"/><g class="cls-1"><line class="cls-3" x1="-10.29" y1="-4.55" x2="456.86" y2="306.84"/><line class="cls-3" x1="-9.6" y1="306.84" x2="457.55" y2="-4.55"/><polyline class="cls-6" points="224.13 128.27 241.46 139.82 458.05 -4.55 448.83 -21.51"/><polyline class="cls-6" points="-9.25 307.48 -.38 323.8 223.63 174.48 206.3 162.93"/><polygon class="cls-4" points="-21.48 12.89 -11.08 -6.23 209.01 139.82 188.97 153.18 -21.48 12.89"/><polygon class="cls-4" points="238.26 162.93 258.29 149.57 468.06 289.4 457.4 309 238.26 162.93"/><polygon class="cls-4" points="221.43 128.27 449.36 -23.67 460.02 -4.06 241.46 141.62 221.43 128.27"/><polygon class="cls-4" points="-11.23 306.99 206.3 161.12 226.34 174.48 -.91 325.96 -11.23 306.99"/><polygon class="cls-6" points="223.63 151.37 240.96 162.93 258.29 151.37 240.96 139.82 223.63 151.37"/><polygon class="cls-6" points="223.63 151.37 206.3 139.82 188.97 151.37 206.3 162.93 223.63 151.37"/><polygon class="cls-6" points="223.63 151.37 240.96 139.82 223.63 128.27 206.3 139.82 223.63 151.37"/><polygon class="cls-6" points="223.63 151.37 206.3 162.93 223.63 174.48 240.96 162.93 223.63 151.37"/><rect class="cls-5" x="-4.71" y="110.19" width="457.98" height="80"/><rect class="cls-5" x="184.31" y=".76" width="80" height="299.24"/><rect class="cls-4" x="200.02" y=".76" width="48" height="299.24"/><rect class="cls-4" x="200.66" y="-79.77" width="48" height="460.29" transform="translate(74.28 375.04) rotate(-90)"/></g><rect class="cls-2" width="450" height="300"/><rect class="cls-2" width="450" height="300"/><g id="s1"><g id="c"><path id="t" class="cls-5" d="M668.97,91.82l-11.45,35.25,18.8,6.11"/><path id="t-2" class="cls-5" d="M668.97,91.82l11.45,35.25-18.8,6.11"/></g><g id="c-2"><path id="t-3" class="cls-5" d="M704.22,117.43h-37.06v19.77"/><path id="t-4" class="cls-5" d="M704.22,117.43l-29.99,21.79-11.62-15.99"/></g><g id="c-3"><path id="t-5" class="cls-5" d="M690.76,158.87l-11.45-35.25-18.8,6.11"/><path id="t-6" class="cls-5" d="M690.76,158.87l-29.99-21.79,11.62-15.99"/></g><g id="c-4"><path id="t-7" class="cls-5" d="M647.18,158.87l29.99-21.79-11.62-15.99"/><path id="t-8" class="cls-5" d="M647.18,158.87l11.45-35.25,18.8,6.11"/></g><g id="c-5"><path id="t-9" class="cls-5" d="M633.72,117.43l29.99,21.79,11.62-15.99"/><path id="t-10" class="cls-5" d="M633.72,117.43h37.06v19.77"/></g></g><g id="s7"><g id="s1-2"><g id="c-6"><path id="t-11" class="cls-5" d="M752.39,109.55l-24.8,27.54,14.69,13.23"/><path id="t-12" class="cls-5" d="M752.39,109.55l-3.87,36.86-19.66-2.07"/></g><g id="c-7"><path id="t-13" class="cls-5" d="M774.17,147.28l-33.86-15.08-8.04,18.06"/><path id="t-14" class="cls-5" d="M774.17,147.28l-36.25,7.71-4.11-19.34"/></g><g id="c-8"><path id="t-15" class="cls-5" d="M745.02,179.66l3.87-36.86-19.66-2.07"/><path id="t-16" class="cls-5" d="M745.02,179.66l-18.53-32.1,17.12-9.88"/></g><g id="c-9"><path id="t-17" class="cls-5" d="M705.21,161.94l36.25-7.71-4.11-19.34"/><path id="t-18" class="cls-5" d="M705.21,161.94l24.8-27.54,14.69,13.23"/></g><g id="c-10"><path id="t-19" class="cls-5" d="M709.77,118.61l18.53,32.1,17.12-9.88"/><path id="t-20" class="cls-5" d="M709.77,118.61l33.86,15.08-8.04,18.06"/></g></g><g id="s1-3"><g id="c-11"><path id="t-21" class="cls-5" d="M821.38,159.68l-33.86,15.08,8.04,18.06"/><path id="t-22" class="cls-5" d="M821.38,159.68l-18.53,32.1-17.12-9.88"/></g><g id="c-12"><path id="t-23" class="cls-5" d="M825.94,203.01l-24.8-27.54-14.69,13.23"/><path id="t-24" class="cls-5" d="M825.94,203.01l-36.25-7.71,4.11-19.34"/></g><g id="c-13"><path id="t-25" class="cls-5" d="M786.13,220.73l18.53-32.1-17.12-9.88"/><path id="t-26" class="cls-5" d="M786.13,220.73l-3.87-36.86,19.66-2.07"/></g><g id="c-14"><path id="t-27" class="cls-5" d="M756.98,188.35l36.25,7.71,4.11-19.34"/><path id="t-28" class="cls-5" d="M756.98,188.35l33.86-15.08,8.04,18.06"/></g><g id="c-15"><path id="t-29" class="cls-5" d="M778.76,150.62l3.87,36.86,19.66-2.07"/><path id="t-30" class="cls-5" d="M778.76,150.62l24.8,27.54-14.69,13.23"/></g></g><g id="s1-4"><g id="c-16"><path id="t-31" class="cls-5" d="M864.02,233.53h-37.06v19.77"/><path id="t-32" class="cls-5" d="M864.02,233.53l-29.99,21.79-11.62-15.99"/></g><g id="c-17"><path id="t-33" class="cls-5" d="M850.56,274.97l-11.45-35.25-18.8,6.11"/><path id="t-34" class="cls-5" d="M850.56,274.97l-29.99-21.79,11.62-15.99"/></g><g id="c-18"><path id="t-35" class="cls-5" d="M806.99,274.97l29.99-21.79-11.62-15.99"/><path id="t-36" class="cls-5" d="M806.99,274.97l11.45-35.25,18.8,6.11"/></g><g id="c-19"><path id="t-37" class="cls-5" d="M793.52,233.53l29.99,21.79,11.62-15.99"/><path id="t-38" class="cls-5" d="M793.52,233.53h37.06s0,19.77,0,19.77"/></g><g id="c-20"><path id="t-39" class="cls-5" d="M828.77,207.92l-11.45,35.25,18.8,6.11"/><path id="t-40" class="cls-5" d="M828.77,207.92l11.45,35.25-18.8,6.11"/></g></g><g id="s1-5"><g id="c-21"><path id="t-41" class="cls-5" d="M872.94,318.35l-33.86-15.08-8.04,18.06"/><path id="t-42" class="cls-5" d="M872.94,318.35l-36.25,7.71-4.11-19.34"/></g><g id="c-22"><path id="t-43" class="cls-5" d="M843.78,350.73l3.87-36.86-19.66-2.07"/><path id="t-44" class="cls-5" d="M843.78,350.73l-18.53-32.1,17.12-9.88"/></g><g id="c-23"><path id="t-45" class="cls-5" d="M803.98,333l36.25-7.71-4.11-19.34"/><path id="t-46" class="cls-5" d="M803.98,333l24.8-27.54,14.69,13.23"/></g><g id="c-24"><path id="t-47" class="cls-5" d="M808.53,289.67l18.53,32.1,17.12-9.88"/><path id="t-48" class="cls-5" d="M808.53,289.67l33.86,15.08-8.04,18.06"/></g><g id="c-25"><path id="t-49" class="cls-5" d="M851.15,280.61l-24.8,27.54,14.69,13.23"/><path id="t-50" class="cls-5" d="M851.15,280.61l-3.87,36.86-19.66-2.07"/></g></g><g id="s1-6"><g id="c-26"><path id="t-51" class="cls-5" d="M846.58,399.45l-24.8-27.54-14.69,13.23"/><path id="t-52" class="cls-5" d="M846.58,399.45l-36.25-7.71,4.11-19.34"/></g><g id="c-27"><path id="t-53" class="cls-5" d="M806.78,417.17l18.53-32.1-17.12-9.88"/><path id="t-54" class="cls-5" d="M806.78,417.17l-3.87-36.86,19.66-2.07"/></g><g id="c-28"><path id="t-55" class="cls-5" d="M777.62,384.79l36.25,7.71,4.11-19.34"/><path id="t-56" class="cls-5" d="M777.62,384.79l33.86-15.08,8.04,18.06"/></g><g id="c-29"><path id="t-57" class="cls-5" d="M799.41,347.06l3.87,36.86,19.66-2.07"/><path id="t-58" class="cls-5" d="M799.41,347.06l24.8,27.54-14.69,13.23"/></g><g id="c-30"><path id="t-59" class="cls-5" d="M842.03,356.12l-33.86,15.08,8.04,18.06"/><path id="t-60" class="cls-5" d="M842.03,356.12l-18.53,32.1-17.12-9.88"/></g></g><g id="s1-7"><g id="c-31"><path id="t-61" class="cls-5" d="M789.52,462.83l-11.45-35.25-18.8,6.11"/><path id="t-62" class="cls-5" d="M789.52,462.83l-29.99-21.79,11.62-15.99"/></g><g id="c-32"><path id="t-63" class="cls-5" d="M745.95,462.83l29.99-21.79-11.62-15.99"/><path id="t-64" class="cls-5" d="M745.95,462.83l11.45-35.25,18.8,6.11"/></g><g id="c-33"><path id="t-65" class="cls-5" d="M732.48,421.39l29.99,21.79,11.62-15.99"/><path id="t-66" class="cls-5" d="M732.48,421.39h37.06v19.77"/></g><g id="c-34"><path id="t-67" class="cls-5" d="M767.73,395.78l-11.45,35.25,18.8,6.11"/><path id="t-68" class="cls-5" d="M767.73,395.78l11.45,35.25-18.8,6.11"/></g><g id="c-35"><path id="t-69" class="cls-5" d="M802.98,421.39h-37.06s0,19.77,0,19.77"/><path id="t-70" class="cls-5" d="M802.98,421.39l-29.99,21.79-11.62-15.99"/></g></g><g id="s1-8"><g id="c-36"><path id="t-71" class="cls-5" d="M711.61,497.52l3.87-36.86-19.66-2.07"/><path id="t-72" class="cls-5" d="M711.61,497.52l-18.53-32.1,17.12-9.88"/></g><g id="c-37"><path id="t-73" class="cls-5" d="M671.81,479.79l36.25-7.71-4.11-19.34"/><path id="t-74" class="cls-5" d="M671.81,479.79l24.8-27.54,14.69,13.23"/></g><g id="c-38"><path id="t-75" class="cls-5" d="M676.36,436.46l18.53,32.1,17.12-9.88"/><path id="t-76" class="cls-5" d="M676.36,436.46l33.86,15.08-8.04,18.06"/></g><g id="c-39"><path id="t-77" class="cls-5" d="M718.98,427.4l-24.8,27.54,14.69,13.23"/><path id="t-78" class="cls-5" d="M718.98,427.4l-3.87,36.86-19.66-2.07"/></g><g id="c-40"><path id="t-79" class="cls-5" d="M740.77,465.14l-33.86-15.08-8.04,18.06"/><path id="t-80" class="cls-5" d="M740.77,465.14l-36.25,7.71-4.11-19.34"/></g></g></g><g id="s7-2"><g id="s1-9"><g id="c-41"><path id="t-81" class="cls-5" d="M626.33,497.52l18.53-32.1-17.12-9.88"/><path id="t-82" class="cls-5" d="M626.33,497.52l-3.87-36.86,19.66-2.07"/></g><g id="c-42"><path id="t-83" class="cls-5" d="M597.17,465.14l36.25,7.71,4.11-19.34"/><path id="t-84" class="cls-5" d="M597.17,465.14l33.86-15.08,8.04,18.06"/></g><g id="c-43"><path id="t-85" class="cls-5" d="M618.96,427.4l3.87,36.86,19.66-2.07"/><path id="t-86" class="cls-5" d="M618.96,427.4l24.8,27.54-14.69,13.23"/></g><g id="c-44"><path id="t-87" class="cls-5" d="M661.58,436.46l-33.86,15.08,8.04,18.06"/><path id="t-88" class="cls-5" d="M661.58,436.46l-18.53,32.1-17.12-9.88"/></g><g id="c-45"><path id="t-89" class="cls-5" d="M666.14,479.79l-24.8-27.54-14.69,13.23"/><path id="t-90" class="cls-5" d="M666.14,479.79l-36.25-7.71,4.11-19.34"/></g></g><g id="s1-10"><g id="c-46"><path id="t-91" class="cls-5" d="M548.42,462.83l29.99-21.79-11.62-15.99"/><path id="t-92" class="cls-5" d="M548.42,462.83l11.45-35.25,18.8,6.11"/></g><g id="c-47"><path id="t-93" class="cls-5" d="M534.96,421.39l29.99,21.79,11.62-15.99"/><path id="t-94" class="cls-5" d="M534.96,421.39h37.06s0,19.77,0,19.77"/></g><g id="c-48"><path id="t-95" class="cls-5" d="M570.21,395.78l-11.45,35.25,18.8,6.11"/><path id="t-96" class="cls-5" d="M570.21,395.78l11.45,35.25-18.8,6.11"/></g><g id="c-49"><path id="t-97" class="cls-5" d="M605.46,421.39h-37.06v19.77"/><path id="t-98" class="cls-5" d="M605.46,421.39l-29.99,21.79-11.62-15.99"/></g><g id="c-50"><path id="t-99" class="cls-5" d="M591.99,462.83l-11.45-35.25-18.8,6.11"/><path id="t-100" class="cls-5" d="M591.99,462.83l-29.99-21.79,11.62-15.99"/></g></g><g id="s1-11"><g id="c-51"><path id="t-101" class="cls-5" d="M491.36,399.45l36.25-7.71-4.11-19.34"/><path id="t-102" class="cls-5" d="M491.36,399.45l24.8-27.54,14.69,13.23"/></g><g id="c-52"><path id="t-103" class="cls-5" d="M495.91,356.12l18.53,32.1,17.12-9.88"/><path id="t-104" class="cls-5" d="M495.91,356.12l33.86,15.08-8.04,18.06"/></g><g id="c-53"><path id="t-105" class="cls-5" d="M538.53,347.06l-24.8,27.54,14.69,13.23"/><path id="t-106" class="cls-5" d="M538.53,347.06l-3.87,36.86-19.66-2.07"/></g><g id="c-54"><path id="t-107" class="cls-5" d="M560.32,384.79l-33.86-15.08-8.04,18.06"/><path id="t-108" class="cls-5" d="M560.32,384.79l-36.25,7.71-4.11-19.34"/></g><g id="c-55"><path id="t-109" class="cls-5" d="M531.16,417.17l3.87-36.86-19.66-2.07"/><path id="t-110" class="cls-5" d="M531.16,417.17l-18.53-32.1,17.12-9.88"/></g></g><g id="s1-12"><g id="c-56"><path id="t-111" class="cls-5" d="M465,318.35l36.25,7.71,4.11-19.34"/><path id="t-112" class="cls-5" d="M465,318.35l33.86-15.08,8.04,18.06"/></g><g id="c-57"><path id="t-113" class="cls-5" d="M486.79,280.61l3.87,36.86,19.66-2.07"/><path id="t-114" class="cls-5" d="M486.79,280.61l24.8,27.54-14.69,13.23"/></g><g id="c-58"><path id="t-115" class="cls-5" d="M529.41,289.67l-33.86,15.08,8.04,18.06"/><path id="t-116" class="cls-5" d="M529.41,289.67l-18.53,32.1-17.12-9.88"/></g><g id="c-59"><path id="t-117" class="cls-5" d="M533.96,333l-24.8-27.54-14.69,13.23"/><path id="t-118" class="cls-5" d="M533.96,333l-36.25-7.71,4.11-19.34"/></g><g id="c-60"><path id="t-119" class="cls-5" d="M494.16,350.73l18.53-32.1-17.12-9.88"/><path id="t-120" class="cls-5" d="M494.16,350.73l-3.87-36.86,19.66-2.07"/></g></g><g id="s1-13"><g id="c-61"><path id="t-121" class="cls-5" d="M473.92,233.53l29.99,21.79,11.62-15.99"/><path id="t-122" class="cls-5" d="M473.92,233.53h37.06v19.77"/></g><g id="c-62"><path id="t-123" class="cls-5" d="M509.17,207.92l-11.45,35.25,18.8,6.11"/><path id="t-124" class="cls-5" d="M509.17,207.92l11.45,35.25-18.8,6.11"/></g><g id="c-63"><path id="t-125" class="cls-5" d="M544.42,233.53h-37.06s0,19.77,0,19.77"/><path id="t-126" class="cls-5" d="M544.42,233.53l-29.99,21.79-11.62-15.99"/></g><g id="c-64"><path id="t-127" class="cls-5" d="M530.96,274.97l-11.45-35.25-18.8,6.11"/><path id="t-128" class="cls-5" d="M530.96,274.97l-29.99-21.79,11.62-15.99"/></g><g id="c-65"><path id="t-129" class="cls-5" d="M487.38,274.97l29.99-21.79-11.62-15.99"/><path id="t-130" class="cls-5" d="M487.38,274.97l11.45-35.25,18.8,6.11"/></g></g><g id="s1-14"><g id="c-66"><path id="t-131" class="cls-5" d="M516.56,159.68l18.53,32.1,17.12-9.88"/><path id="t-132" class="cls-5" d="M516.56,159.68l33.86,15.08-8.04,18.06"/></g><g id="c-67"><path id="t-133" class="cls-5" d="M559.18,150.62l-24.8,27.54,14.69,13.23"/><path id="t-134" class="cls-5" d="M559.18,150.62l-3.87,36.86-19.66-2.07"/></g><g id="c-68"><path id="t-135" class="cls-5" d="M580.97,188.35l-33.86-15.08-8.04,18.06"/><path id="t-136" class="cls-5" d="M580.97,188.35l-36.25,7.71-4.11-19.34"/></g><g id="c-69"><path id="t-137" class="cls-5" d="M551.81,220.73l3.87-36.86-19.66-2.07"/><path id="t-138" class="cls-5" d="M551.81,220.73l-18.53-32.1,17.12-9.88"/></g><g id="c-70"><path id="t-139" class="cls-5" d="M512,203.01l36.25-7.71-4.11-19.34"/><path id="t-140" class="cls-5" d="M512,203.01l24.8-27.54,14.69,13.23"/></g></g><g id="s1-15"><g id="c-71"><path id="t-141" class="cls-5" d="M585.55,109.55l3.87,36.86,19.66-2.07"/><path id="t-142" class="cls-5" d="M585.55,109.55l24.8,27.54-14.69,13.23"/></g><g id="c-72"><path id="t-143" class="cls-5" d="M628.17,118.61l-33.86,15.08,8.04,18.06"/><path id="t-144" class="cls-5" d="M628.17,118.61l-18.53,32.1-17.12-9.88"/></g><g id="c-73"><path id="t-145" class="cls-5" d="M632.73,161.94l-24.8-27.54-14.69,13.23"/><path id="t-146" class="cls-5" d="M632.73,161.94l-36.25-7.71,4.11-19.34"/></g><g id="c-74"><path id="t-147" class="cls-5" d="M592.92,179.66l18.53-32.1-17.12-9.88"/><path id="t-148" class="cls-5" d="M592.92,179.66l-3.87-36.86,19.66-2.07"/></g><g id="c-75"><path id="t-149" class="cls-5" d="M563.77,147.28l36.25,7.71,4.11-19.34"/><path id="t-150" class="cls-5" d="M563.77,147.28l33.86-15.08,8.04,18.06"/></g></g></g></svg>