<?xml version="1.0" encoding="UTF-8"?><svg id="_色修正" xmlns="http://www.w3.org/2000/svg" viewBox="0 0 900 600"><defs><style>.cls-1{stroke-miterlimit:4;stroke-width:6.77px;}.cls-1,.cls-2,.cls-3,.cls-4{stroke:#ebd44f;}.cls-1,.cls-2,.cls-3,.cls-4,.cls-5{fill:#fff000;}.cls-2{stroke-miterlimit:4;stroke-width:6.77px;}.cls-3{stroke-miterlimit:4;stroke-width:6.77px;}.cls-4{stroke-width:6.77px;}.cls-6{fill:#e50012;}.cls-6,.cls-5,.cls-7,.cls-8{stroke-width:0px;}.cls-7{fill:#005bab;}.cls-8{fill:#008c3c;}</style></defs><rect class="cls-6" width="900" height="600"/><rect class="cls-5" width="900" height="400"/><rect class="cls-8" width="900" height="200"/><circle class="cls-7" cx="448.79" cy="298.04" r="202.98"/><g id="t"><path class="cls-5" d="M448.79,135.65l-7.11,21.89,29.34,90.31h-39.12l-4.4,13.53h125.44l18.62-13.53h-86.32l-36.46-112.2Z"/><path class="cls-3" d="M492.54,237.82l51.7-71.16"/></g><g id="t-2"><path class="cls-5" d="M603.23,247.86h-23.02s-76.82,55.81-76.82,55.81l-12.09-37.21h-14.23s38.76,119.3,38.76,119.3l18.62,13.53-26.67-82.1,95.44-69.34Z"/><path class="cls-1" d="M519.58,321.03l83.65,27.18"/></g><g id="t-3"><path class="cls-5" d="M544.24,429.4l-7.11-21.89-76.82-55.81,31.65-23-4.4-13.53-101.49,73.73-7.11,21.89,69.84-50.74,95.44,69.34Z"/><path class="cls-4" d="M448.79,372.46v87.96"/></g><g id="t-4"><path class="cls-5" d="M353.35,429.4l18.62-13.53,29.34-90.31,31.65,23,11.51-8.36-101.49-73.73h-23.02s69.84,50.74,69.84,50.74l-36.46,112.2Z"/><path class="cls-2" d="M378.01,321.03l-83.65,27.18"/></g><g id="t-5"><path class="cls-5" d="M294.36,247.86l18.62,13.53h94.95s-12.09,37.21-12.09,37.21l11.51,8.36,38.76-119.3-7.11-21.89-26.67,82.1h-117.98Z"/><path class="cls-1" d="M405.05,237.82l-51.7-71.16"/></g></svg>