<?xml version="1.0" encoding="UTF-8"?><svg id="_色修正" xmlns="http://www.w3.org/2000/svg" xmlns:xlink="http://www.w3.org/1999/xlink" viewBox="0 0 900 600"><defs><style>.cls-1{clip-path:url(#clippath);}.cls-2{fill:none;}.cls-2,.cls-3,.cls-4,.cls-5{stroke-width:0px;}.cls-3{fill:#fff;}.cls-4{fill:#ffe100;}.cls-5{fill:#004da0;}</style><clipPath id="clippath"><rect class="cls-2" width="900" height="600"/></clipPath></defs><rect class="cls-5" width="900" height="600"/><path class="cls-4" d="M188.14,0h600v600L188.14,0Z"/><g class="cls-1"><g id="g"><path id="s" class="cls-3" d="M46.64,39.36l33.5-103.11,33.5,103.11L25.93-24.36h108.42L46.64,39.36Z"/><path id="s-2" class="cls-3" d="M121.64,114.36L155.14,11.25l33.5,103.11-87.71-63.73h108.42l-87.71,63.73Z"/><path id="s-3" class="cls-3" d="M196.64,189.36l33.5-103.11,33.5,103.11-87.71-63.73h108.42l-87.71,63.73Z"/></g><g id="g-2"><path id="s-4" class="cls-3" d="M271.64,264.36l33.5-103.11,33.5,103.11-87.71-63.73h108.42l-87.71,63.73Z"/><path id="s-5" class="cls-3" d="M346.64,339.36l33.5-103.11,33.5,103.11-87.71-63.73h108.42l-87.71,63.73Z"/><path id="s-6" class="cls-3" d="M421.64,414.36l33.5-103.11,33.5,103.11-87.71-63.73h108.42l-87.71,63.73Z"/></g><g id="g-3"><path id="s-7" class="cls-3" d="M496.64,489.36l33.5-103.11,33.5,103.11-87.71-63.73h108.42l-87.71,63.73Z"/><path id="s-8" class="cls-3" d="M571.64,564.36l33.5-103.11,33.5,103.11-87.71-63.73h108.42l-87.71,63.73Z"/><path id="s-9" class="cls-3" d="M646.64,639.36l33.5-103.11,33.5,103.11-87.71-63.73h108.42l-87.71,63.73Z"/></g></g></svg>