<?xml version="1.0" encoding="UTF-8"?><svg id="_色修正" xmlns="http://www.w3.org/2000/svg" xmlns:xlink="http://www.w3.org/1999/xlink" viewBox="0 0 900 600"><defs><style>.cls-1{stroke:#f0d300;stroke-width:60px;}.cls-1,.cls-2{fill:none;}.cls-3{clip-path:url(#clippath);}.cls-2,.cls-4,.cls-5,.cls-6{stroke-width:0px;}.cls-4{fill:#247731;}.cls-5{fill:#fff;}.cls-6{fill:#004da0;}</style><clipPath id="clippath"><rect class="cls-2" width="900" height="600"/></clipPath></defs><g class="cls-3"><path class="cls-6" d="M0,600V0h900L0,600Z"/><path class="cls-4" d="M-.54,601.22h900V1.22L-.54,601.22Z"/><path class="cls-1" d="M-.54,601.22L899.46,1.22"/></g><g id="s"><g id="f"><g id="t"><path id="o" class="cls-5" d="M201.81,125.9l-13.57,41.77,20.89,6.79-7.31-48.56Z"/><path id="o-2" class="cls-5" d="M201.81,125.9l13.57,41.77-20.89,6.79,7.31-48.56Z"/></g><g id="t-2"><path id="o-3" class="cls-5" d="M243.58,156.25h-43.92v21.96l43.92-21.96Z"/><path id="o-4" class="cls-5" d="M243.58,156.25l-35.54,25.82-12.91-17.77,48.44-8.05Z"/></g></g><g id="t-3"><path id="o-5" class="cls-5" d="M160.04,156.25l35.54,25.82,12.91-17.77-48.44-8.05Z"/><path id="o-6" class="cls-5" d="M160.04,156.25h43.92v21.96l-43.92-21.96Z"/></g><g id="f-2"><g id="t-4"><path id="o-7" class="cls-5" d="M227.63,205.36l-13.57-41.77-20.89,6.79,34.46,34.99Z"/><path id="o-8" class="cls-5" d="M227.63,205.36l-35.54-25.82,12.91-17.77,22.63,43.59Z"/></g><g id="t-5"><path id="o-9" class="cls-5" d="M175.99,205.36l35.54-25.82-12.91-17.77-22.63,43.59Z"/><path id="o-10" class="cls-5" d="M175.99,205.36l13.57-41.77,20.89,6.79-34.46,34.99Z"/></g></g></g><g id="s2"><g id="s1"><g id="s-2"><g id="f-3"><g id="t-6"><path id="o-11" class="cls-5" d="M115.1,51.58l-13.57,41.77,20.89,6.79-7.31-48.56Z"/><path id="o-12" class="cls-5" d="M115.1,51.58l13.57,41.77-20.89,6.79,7.31-48.56Z"/></g><g id="t-7"><path id="o-13" class="cls-5" d="M156.87,81.93h-43.92v21.96l43.92-21.96Z"/><path id="o-14" class="cls-5" d="M156.87,81.93l-35.54,25.82-12.91-17.77,48.44-8.05Z"/></g></g><g id="t-8"><path id="o-15" class="cls-5" d="M73.33,81.93l35.54,25.82,12.91-17.77-48.44-8.05Z"/><path id="o-16" class="cls-5" d="M73.33,81.93h43.92v21.96l-43.92-21.96Z"/></g><g id="f-4"><g id="t-9"><path id="o-17" class="cls-5" d="M140.92,131.04l-13.57-41.77-20.89,6.79,34.46,34.99Z"/><path id="o-18" class="cls-5" d="M140.92,131.04l-35.54-25.82,12.91-17.77,22.63,43.59Z"/></g><g id="t-10"><path id="o-19" class="cls-5" d="M89.28,131.04l35.54-25.82-12.91-17.77-22.63,43.59Z"/><path id="o-20" class="cls-5" d="M89.28,131.04l13.57-41.77,20.89,6.79-34.46,34.99Z"/></g></g></g></g><g id="s1-2"><g id="s-3"><g id="f-5"><g id="t-11"><path id="o-21" class="cls-5" d="M288.52,200.22l-13.57,41.77,20.89,6.79-7.31-48.56Z"/><path id="o-22" class="cls-5" d="M288.52,200.22l13.57,41.77-20.89,6.79,7.31-48.56Z"/></g><g id="t-12"><path id="o-23" class="cls-5" d="M330.29,230.57h-43.92v21.96l43.92-21.96Z"/><path id="o-24" class="cls-5" d="M330.29,230.57l-35.54,25.82-12.91-17.77,48.44-8.05Z"/></g></g><g id="t-13"><path id="o-25" class="cls-5" d="M246.75,230.57l35.54,25.82,12.91-17.77-48.44-8.05Z"/><path id="o-26" class="cls-5" d="M246.75,230.57h43.92v21.96l-43.92-21.96Z"/></g><g id="f-6"><g id="t-14"><path id="o-27" class="cls-5" d="M314.34,279.67l-13.57-41.77-20.89,6.79,34.46,34.99Z"/><path id="o-28" class="cls-5" d="M314.34,279.67l-35.54-25.82,12.91-17.77,22.63,43.59Z"/></g><g id="t-15"><path id="o-29" class="cls-5" d="M262.7,279.67l35.54-25.82-12.91-17.77-22.63,43.59Z"/><path id="o-30" class="cls-5" d="M262.7,279.67l13.57-41.77,20.89,6.79-34.46,34.99Z"/></g></g></g></g></g><g id="s2-2"><g id="s1-3"><g id="s-4"><g id="f-7"><g id="t-16"><path id="o-31" class="cls-5" d="M288.52,51.58l13.57,41.77-20.89,6.79,7.31-48.56Z"/><path id="o-32" class="cls-5" d="M288.52,51.58l-13.57,41.77,20.89,6.79-7.31-48.56Z"/></g><g id="t-17"><path id="o-33" class="cls-5" d="M246.75,81.93h43.92v21.96l-43.92-21.96Z"/><path id="o-34" class="cls-5" d="M246.75,81.93l35.54,25.82,12.91-17.77-48.44-8.05Z"/></g></g><g id="t-18"><path id="o-35" class="cls-5" d="M330.29,81.93l-35.54,25.82-12.91-17.77,48.44-8.05Z"/><path id="o-36" class="cls-5" d="M330.29,81.93h-43.92v21.96l43.92-21.96Z"/></g><g id="f-8"><g id="t-19"><path id="o-37" class="cls-5" d="M262.7,131.04l13.57-41.77,20.89,6.79-34.46,34.99Z"/><path id="o-38" class="cls-5" d="M262.7,131.04l35.54-25.82-12.91-17.77-22.63,43.59Z"/></g><g id="t-20"><path id="o-39" class="cls-5" d="M314.34,131.04l-35.54-25.82,12.91-17.77,22.63,43.59Z"/><path id="o-40" class="cls-5" d="M314.34,131.04l-13.57-41.77-20.89,6.79,34.46,34.99Z"/></g></g></g></g><g id="s1-4"><g id="s-5"><g id="f-9"><g id="t-21"><path id="o-41" class="cls-5" d="M115.1,200.22l13.57,41.77-20.89,6.79,7.31-48.56Z"/><path id="o-42" class="cls-5" d="M115.1,200.22l-13.57,41.77,20.89,6.79-7.31-48.56Z"/></g><g id="t-22"><path id="o-43" class="cls-5" d="M73.33,230.57h43.92v21.96l-43.92-21.96Z"/><path id="o-44" class="cls-5" d="M73.33,230.57l35.54,25.82,12.91-17.77-48.44-8.05Z"/></g></g><g id="t-23"><path id="o-45" class="cls-5" d="M156.87,230.57l-35.54,25.82-12.91-17.77,48.44-8.05Z"/><path id="o-46" class="cls-5" d="M156.87,230.57h-43.92v21.96l43.92-21.96Z"/></g><g id="f-10"><g id="t-24"><path id="o-47" class="cls-5" d="M89.28,279.67l13.57-41.77,20.89,6.79-34.46,34.99Z"/><path id="o-48" class="cls-5" d="M89.28,279.67l35.54-25.82-12.91-17.77-22.63,43.59Z"/></g><g id="t-25"><path id="o-49" class="cls-5" d="M140.92,279.67l-35.54-25.82,12.91-17.77,22.63,43.59Z"/><path id="o-50" class="cls-5" d="M140.92,279.67l-13.57-41.77-20.89,6.79,34.46,34.99Z"/></g></g></g></g></g></svg>