<?xml version="1.0" encoding="UTF-8"?><svg id="_色修正" xmlns="http://www.w3.org/2000/svg" viewBox="0 0 900 600"><defs><style>.cls-1{fill-rule:evenodd;}.cls-1,.cls-2{fill:#e50012;}.cls-1,.cls-2,.cls-3,.cls-4{stroke-width:0px;}.cls-3{fill:#fff;}.cls-4{fill:#008c3c;}</style></defs><rect class="cls-2" width="900" height="600"/><rect class="cls-4" y="400" width="900" height="200"/><rect class="cls-3" width="133.33" height="600"/><g id="q"><path class="cls-1" d="M23.19,0h17.39v9.84h5.8v9.84h5.8v9.84h5.8v9.84h5.8v9.84h-5.8v9.84h-5.8v9.84h-5.8v9.84h-5.8v9.84h-5.8v9.84h-5.8v-9.84h-5.8v-9.84h-5.8v-9.84h-5.8v-9.84h-5.8v-9.84H0v-9.84h5.8v-9.84h5.8v-9.84h5.8v-9.84h5.8V0ZM28.99,19.67h5.8v9.84h5.8v9.84h5.8v9.84h-5.8v9.84h-5.8v9.84h-5.8v-9.84h-5.8v-9.84h-5.8v-9.84h5.8v-9.84h5.8v-9.84ZM28.99,39.34h5.8v9.84h-5.8v-9.84ZM0,9.84h5.8v9.84H0v-9.84ZM0,68.85h5.8v9.84H0v-9.84ZM63.77,0h3.48v19.67h-3.48V0ZM63.77,68.85h3.48v19.67h-3.48v-19.67ZM11.59,88.52h5.8v9.84h5.8v9.84h5.8v9.84h-5.8v9.84h-5.8v9.84h-5.8v-9.84h-5.8v-9.84H0v-9.84h5.8v-9.84h5.8v-9.84ZM11.59,108.2h5.8v9.84h-5.8v-9.84ZM46.38,88.52h5.8v9.84h5.8v9.84h5.8v9.84h-5.8v9.84h-5.8v9.84h-5.8v-9.84h-5.8v-9.84h-5.8v-9.84h5.8v-9.84h5.8v-9.84ZM46.38,108.2h5.8v9.84h-5.8v-9.84ZM0,147.54h5.8v9.84H0v-9.84ZM63.77,137.7h3.48v19.67h-3.48v-19.67Z"/><path class="cls-1" d="M0,177.05h5.8v-9.84h5.8v-9.84h5.8v-9.84h5.8v-9.84h5.8v-9.84h5.8v9.84h5.8v9.84h5.8v9.84h5.8v9.84h5.8v9.84h5.8v9.84h3.48v39.34h-3.48v9.84h-5.8v9.84h-5.8v9.84h-5.8v9.84h-5.8v9.84h-5.8v25.57h-11.59v-5.9h-5.8v-9.84h-5.8v-9.84h-5.8v-9.84H0v-29.51h5.8v9.84h5.8v9.84h5.8v9.84h5.8v-9.84h5.8v-9.84h5.8v-9.84h5.8v-9.84h5.8v-9.84h5.8v-9.84h-5.8v-9.84h-5.8v-9.84h-17.39v9.84h11.59v9.84h-5.8v9.84h-5.8v9.84h-5.8v-9.84h-5.8v-9.84h-5.8v-9.84H0v-19.67ZM0,216.39h5.8v9.84H0v-9.84ZM63.77,245.9h3.48v9.84h-3.48v-9.84ZM52.17,265.57h5.8v9.84h5.8v9.84h3.48v15.74h-3.48v-5.9h-5.8v-9.84h-5.8v-19.67ZM40.58,295.08h5.8v5.9h-5.8v-5.9Z"/></g><g id="q-2"><path class="cls-1" d="M110.14,0h-17.39v9.84h-5.8v9.84h-5.8v9.84h-5.8v9.84h-5.8v9.84h5.8v9.84h5.8v9.84h5.8v9.84h5.8v9.84h5.8v9.84h5.8v-9.84h5.8v-9.84h5.8v-9.84h5.8v-9.84h5.8v-9.84h5.8v-9.84h-5.8v-9.84h-5.8v-9.84h-5.8v-9.84h-5.8V0ZM104.35,19.67h-5.8v9.84h-5.8v9.84h-5.8v9.84h5.8v9.84h5.8v9.84h5.8v-9.84h5.8v-9.84h5.8v-9.84h-5.8v-9.84h-5.8v-9.84ZM104.35,39.34h-5.8v9.84h5.8v-9.84ZM133.33,9.84h-5.8v9.84h5.8v-9.84ZM133.33,68.85h-5.8v9.84h5.8v-9.84ZM69.57,0h-3.48v19.67h3.48V0ZM69.57,68.85h-3.48v19.67h3.48v-19.67ZM121.74,88.52h-5.8v9.84h-5.8v9.84h-5.8v9.84h5.8v9.84h5.8v9.84h5.8v-9.84h5.8v-9.84h5.8v-9.84h-5.8v-9.84h-5.8v-9.84ZM121.74,108.2h-5.8v9.84h5.8v-9.84ZM86.96,88.52h-5.8v9.84h-5.8v9.84h-5.8v9.84h5.8v9.84h5.8v9.84h5.8v-9.84h5.8v-9.84h5.8v-9.84h-5.8v-9.84h-5.8v-9.84ZM86.96,108.2h-5.8v9.84h5.8v-9.84ZM133.33,147.54h-5.8v9.84h5.8v-9.84ZM69.57,137.7h-3.48v19.67h3.48v-19.67Z"/><path class="cls-1" d="M133.33,177.05h-5.8v-9.84h-5.8v-9.84h-5.8v-9.84h-5.8v-9.84h-5.8v-9.84h-5.8v9.84h-5.8v9.84h-5.8v9.84h-5.8v9.84h-5.8v9.84h-5.8v9.84h-3.48v39.34h3.48v9.84h5.8v9.84h5.8v9.84h5.8v9.84h5.8v9.84h5.8v25.57h11.59v-5.9h5.8v-9.84h5.8v-9.84h5.8v-9.84h5.8v-29.51h-5.8v9.84h-5.8v9.84h-5.8v9.84h-5.8v-9.84h-5.8v-9.84h-5.8v-9.84h-5.8v-9.84h-5.8v-9.84h-5.8v-9.84h5.8v-9.84h5.8v-9.84h17.39v9.84h-11.59v9.84h5.8v9.84h5.8v9.84h5.8v-9.84h5.8v-9.84h5.8v-9.84h5.8v-19.67ZM133.33,216.39h-5.8v9.84h5.8v-9.84ZM69.57,245.9h-3.48v9.84h3.48v-9.84ZM81.16,265.57h-5.8v9.84h-5.8v9.84h-3.48v15.74h3.48v-5.9h5.8v-9.84h5.8v-19.67ZM92.75,295.08h-5.8v5.9h5.8v-5.9Z"/></g><g id="h"><g id="q-3"><path class="cls-1" d="M23.19,600h17.39v-9.84h5.8v-9.84h5.8v-9.84h5.8v-9.84h5.8v-9.84h-5.8v-9.84h-5.8v-9.84h-5.8v-9.84h-5.8v-9.84h-5.8v-9.84h-5.8v9.84h-5.8v9.84h-5.8v9.84h-5.8v9.84h-5.8v9.84H0v9.84h5.8v9.84h5.8v9.84h5.8v9.84h5.8v9.84ZM28.99,580.33h5.8v-9.84h5.8v-9.84h5.8v-9.84h-5.8v-9.84h-5.8v-9.84h-5.8v9.84h-5.8v9.84h-5.8v9.84h5.8v9.84h5.8v9.84ZM28.99,560.66h5.8v-9.84h-5.8v9.84ZM0,590.16h5.8v-9.84H0v9.84ZM0,531.15h5.8v-9.84H0v9.84ZM63.77,600h3.48v-19.67h-3.48v19.67ZM63.77,531.15h3.48v-19.67h-3.48v19.67ZM11.59,511.48h5.8v-9.84h5.8v-9.84h5.8v-9.84h-5.8v-9.84h-5.8v-9.84h-5.8v9.84h-5.8v9.84H0v9.84h5.8v9.84h5.8v9.84ZM11.59,491.8h5.8v-9.84h-5.8v9.84ZM46.38,511.48h5.8v-9.84h5.8v-9.84h5.8v-9.84h-5.8v-9.84h-5.8v-9.84h-5.8v9.84h-5.8v9.84h-5.8v9.84h5.8v9.84h5.8v9.84ZM46.38,491.8h5.8v-9.84h-5.8v9.84ZM0,452.46h5.8v-9.84H0v9.84ZM63.77,462.3h3.48v-19.67h-3.48v19.67Z"/><path class="cls-1" d="M0,422.95h5.8v9.84h5.8v9.84h5.8v9.84h5.8v9.84h5.8v9.84h5.8v-9.84h5.8v-9.84h5.8v-9.84h5.8v-9.84h5.8v-9.84h5.8v-9.84h3.48v-39.34h-3.48v-9.84h-5.8v-9.84h-5.8v-9.84h-5.8v-9.84h-5.8v-9.84h-5.8v-25.57h-11.59v5.9h-5.8v9.84h-5.8v9.84h-5.8v9.84H0v29.51h5.8v-9.84h5.8v-9.84h5.8v-9.84h5.8v9.84h5.8v9.84h5.8v9.84h5.8v9.84h5.8v9.84h5.8v9.84h-5.8v9.84h-5.8v9.84h-17.39v-9.84h11.59v-9.84h-5.8v-9.84h-5.8v-9.84h-5.8v9.84h-5.8v9.84h-5.8v9.84H0v19.67ZM0,383.61h5.8v-9.84H0v9.84ZM63.77,354.1h3.48v-9.84h-3.48v9.84ZM52.17,334.43h5.8v-9.84h5.8v-9.84h3.48v-15.74h-3.48v5.9h-5.8v9.84h-5.8v19.67ZM40.58,304.92h5.8v-5.9h-5.8v5.9Z"/></g><g id="q-4"><path class="cls-1" d="M110.14,600h-17.39v-9.84h-5.8v-9.84h-5.8v-9.84h-5.8v-9.84h-5.8v-9.84h5.8v-9.84h5.8v-9.84h5.8v-9.84h5.8v-9.84h5.8v-9.84h5.8v9.84h5.8v9.84h5.8v9.84h5.8v9.84h5.8v9.84h5.8v9.84h-5.8v9.84h-5.8v9.84h-5.8v9.84h-5.8v9.84ZM104.35,580.33h-5.8v-9.84h-5.8v-9.84h-5.8v-9.84h5.8v-9.84h5.8v-9.84h5.8v9.84h5.8v9.84h5.8v9.84h-5.8v9.84h-5.8v9.84ZM104.35,560.66h-5.8v-9.84h5.8v9.84ZM133.33,590.16h-5.8v-9.84h5.8v9.84ZM133.33,531.15h-5.8v-9.84h5.8v9.84ZM69.57,600h-3.48v-19.67h3.48v19.67ZM69.57,531.15h-3.48v-19.67h3.48v19.67ZM121.74,511.48h-5.8v-9.84h-5.8v-9.84h-5.8v-9.84h5.8v-9.84h5.8v-9.84h5.8v9.84h5.8v9.84h5.8v9.84h-5.8v9.84h-5.8v9.84ZM121.74,491.8h-5.8v-9.84h5.8v9.84ZM86.96,511.48h-5.8v-9.84h-5.8v-9.84h-5.8v-9.84h5.8v-9.84h5.8v-9.84h5.8v9.84h5.8v9.84h5.8v9.84h-5.8v9.84h-5.8v9.84ZM86.96,491.8h-5.8v-9.84h5.8v9.84ZM133.33,452.46h-5.8v-9.84h5.8v9.84ZM69.57,462.3h-3.48v-19.67h3.48v19.67Z"/><path class="cls-1" d="M133.33,422.95h-5.8v9.84h-5.8v9.84h-5.8v9.84h-5.8v9.84h-5.8v9.84h-5.8v-9.84h-5.8v-9.84h-5.8v-9.84h-5.8v-9.84h-5.8v-9.84h-5.8v-9.84h-3.48v-39.34h3.48v-9.84h5.8v-9.84h5.8v-9.84h5.8v-9.84h5.8v-9.84h5.8v-25.57h11.59v5.9h5.8v9.84h5.8v9.84h5.8v9.84h5.8v29.51h-5.8v-9.84h-5.8v-9.84h-5.8v-9.84h-5.8v9.84h-5.8v9.84h-5.8v9.84h-5.8v9.84h-5.8v9.84h-5.8v9.84h5.8v9.84h5.8v9.84h17.39v-9.84h-11.59v-9.84h5.8v-9.84h5.8v-9.84h5.8v9.84h5.8v9.84h5.8v9.84h5.8v19.67ZM133.33,383.61h-5.8v-9.84h5.8v9.84ZM69.57,354.1h-3.48v-9.84h3.48v9.84ZM81.16,334.43h-5.8v-9.84h-5.8v-9.84h-3.48v-15.74h3.48v5.9h5.8v9.84h5.8v19.67ZM92.75,304.92h-5.8v-5.9h5.8v5.9Z"/></g></g></svg>