<?xml version="1.0" encoding="UTF-8"?><svg id="_色修正" xmlns="http://www.w3.org/2000/svg" viewBox="0 0 900 600"><defs><style>.cls-1{fill:#231815;}.cls-1,.cls-2,.cls-3{stroke-width:0px;}.cls-2{fill:#e50012;}.cls-3{fill:#008e3e;}</style></defs><rect class="cls-1" width="900" height="600"/><circle class="cls-2" cx="450" cy="228" r="129"/><rect class="cls-2" y="200" width="900" height="200"/><g id="r16"><g id="r8"><g id="r4"><g id="r2"><path id="r" class="cls-2" d="M450,24c-4.4,0-6,6.6-6,13,0,16,2,24,6,47,4.08-23,6-31.2,6-47,0-6.6-2-13-6-13"/><path id="r-2" class="cls-2" d="M467.78,24.78c-4.38-.38-6.55,6.05-7.11,12.43-1.39,15.94-.1,24.08,1.88,47.34,6.07-22.56,8.7-30.56,10.07-46.3.58-6.57-.86-13.12-4.84-13.47"/></g><g id="r2-2"><path id="r-3" class="cls-2" d="M485.42,27.1c-4.33-.76-7.05,5.46-8.17,11.76-2.78,15.76-2.2,23.98-2.25,47.33,8.01-21.94,11.33-29.68,14.07-45.24,1.15-6.5.29-13.15-3.65-13.84"/><path id="r-4" class="cls-2" d="M502.8,30.95c-4.25-1.14-7.5,4.82-9.16,11-4.14,15.45-4.28,23.7-6.37,46.95,9.89-21.16,13.87-28.58,17.96-43.85,1.71-6.38,1.43-13.07-2.43-14.11"/></g></g><g id="r4-2"><g id="r2-3"><path id="r-5" class="cls-2" d="M519.77,36.3c-4.13-1.5-7.9,4.15-10.08,10.16-5.47,15.04-6.33,23.24-10.44,46.22,11.7-20.22,16.31-27.27,21.71-42.11,2.26-6.2,2.57-12.9-1.19-14.27"/><path id="r-6" class="cls-2" d="M536.21,43.11c-3.99-1.86-8.23,3.45-10.93,9.25-6.76,14.5-8.33,22.6-14.43,45.13,13.42-19.12,18.62-25.74,25.3-40.06,2.79-5.98,3.68-12.63.06-14.32"/></g><g id="r2-4"><path id="r-7" class="cls-2" d="M552,51.33c-3.81-2.2-8.5,2.72-11.7,8.26-8,13.86-10.27,21.78-18.3,43.7,15.03-17.88,20.8-24.02,28.7-37.7,3.3-5.72,4.77-12.26,1.3-14.26"/><path id="r-8" class="cls-2" d="M567.01,60.89c-3.6-2.52-8.7,1.96-12.37,7.21-9.18,13.11-12.13,20.81-22.04,41.94,16.53-16.5,22.81-22.12,31.87-35.06,3.79-5.41,5.82-11.8,2.54-14.09"/></g></g></g><g id="r8-2"><g id="r4-3"><g id="r2-5"><path id="r-9" class="cls-2" d="M581.13,71.73c-3.37-2.83-8.84,1.2-12.95,6.1-10.28,12.26-13.89,19.67-25.61,39.86,17.91-15,24.65-20.04,34.81-32.15,4.24-5.06,6.82-11.24,3.76-13.82"/><path id="r-10" class="cls-2" d="M594.25,83.75c-3.11-3.11-8.91.42-13.44,4.95-11.31,11.31-15.56,18.38-28.99,37.48,19.15-13.38,26.3-17.82,37.48-28.99,4.67-4.67,7.78-10.61,4.95-13.44"/></g><g id="r2-6"><path id="r-11" class="cls-2" d="M606.27,96.87c-2.83-3.37-8.91-.35-13.82,3.76-12.26,10.28-17.1,16.96-32.15,34.81,20.24-11.66,27.76-15.46,39.86-25.61,5.06-4.24,8.67-9.89,6.1-12.95"/><path id="r-12" class="cls-2" d="M617.11,110.99c-2.52-3.6-8.85-1.13-14.09,2.54-13.11,9.18-18.51,15.4-35.06,31.87,21.18-9.85,29-12.98,41.94-22.04,5.41-3.79,9.5-9.09,7.21-12.37"/></g></g><g id="r4-4"><g id="r2-7"><path id="r-13" class="cls-2" d="M626.67,126c-2.2-3.81-8.72-1.9-14.26,1.3-13.86,8-19.78,13.73-37.7,28.7,21.96-7.97,30.02-10.4,43.7-18.3,5.72-3.3,10.26-8.23,8.26-11.7"/><path id="r-14" class="cls-2" d="M634.89,141.79c-1.86-3.99-8.52-2.65-14.32.06-14.5,6.76-20.91,11.96-40.06,25.3,22.57-6.02,30.81-7.75,45.13-14.43,5.98-2.79,10.94-7.31,9.25-10.93"/></g><g id="r2-8"><path id="r-15" class="cls-2" d="M641.7,158.23c-1.5-4.13-8.25-3.38-14.27-1.19-15.04,5.47-21.87,10.09-42.11,21.71,23.01-4.03,31.37-5.03,46.22-10.44,6.2-2.26,11.53-6.33,10.16-10.08"/><path id="r-16" class="cls-2" d="M647.05,175.2c-1.14-4.25-7.93-4.09-14.11-2.43-15.45,4.14-22.66,8.14-43.85,17.96,23.27-2.01,31.69-2.28,46.95-6.37,6.38-1.71,12.04-5.3,11-9.16"/></g></g></g></g><g id="r16-2"><g id="r8-3"><g id="r4-5"><g id="r2-9"><path id="r-17" class="cls-2" d="M249.1,192.58c-.76,4.33,5.46,7.05,11.76,8.17,15.76,2.78,23.98,2.2,47.33,2.25-21.94-8.01-29.68-11.33-45.24-14.07-6.5-1.15-13.15-.29-13.84,3.65"/><path id="r-18" class="cls-2" d="M252.95,175.2c-1.14,4.25,4.82,7.5,11,9.16,15.45,4.14,23.7,4.28,46.95,6.37-21.16-9.89-28.58-13.87-43.85-17.96-6.38-1.71-13.07-1.43-14.11,2.43"/></g><g id="r2-10"><path id="r-19" class="cls-2" d="M258.3,158.23c-1.5,4.13,4.15,7.9,10.16,10.08,15.04,5.47,23.24,6.33,46.22,10.44-20.22-11.7-27.27-16.31-42.11-21.71-6.2-2.26-12.9-2.57-14.27,1.19"/><path id="r-20" class="cls-2" d="M265.11,141.79c-1.86,3.99,3.45,8.23,9.25,10.93,14.5,6.76,22.6,8.33,45.13,14.43-19.12-13.42-25.74-18.62-40.06-25.3-5.98-2.79-12.63-3.68-14.32-.06"/></g></g><g id="r4-6"><g id="r2-11"><path id="r-21" class="cls-2" d="M273.33,126c-2.2,3.81,2.72,8.5,8.26,11.7,13.86,8,21.78,10.27,43.7,18.3-17.88-15.03-24.02-20.8-37.7-28.7-5.72-3.3-12.26-4.77-14.26-1.3"/><path id="r-22" class="cls-2" d="M282.89,110.99c-2.52,3.6,1.96,8.7,7.21,12.37,13.11,9.18,20.81,12.13,41.94,22.04-16.5-16.53-22.12-22.81-35.06-31.87-5.41-3.79-11.8-5.82-14.09-2.54"/></g><g id="r2-12"><path id="r-23" class="cls-2" d="M293.73,96.87c-2.83,3.37,1.2,8.84,6.1,12.95,12.26,10.28,19.67,13.89,39.86,25.61-15-17.91-20.04-24.65-32.15-34.81-5.06-4.24-11.24-6.82-13.82-3.76"/><path id="r-24" class="cls-2" d="M305.75,83.75c-3.11,3.11.42,8.91,4.95,13.44,11.31,11.31,18.38,15.56,37.48,28.99-13.38-19.15-17.82-26.3-28.99-37.48-4.67-4.67-10.61-7.78-13.44-4.95"/></g></g></g><g id="r8-4"><g id="r4-7"><g id="r2-13"><path id="r-25" class="cls-2" d="M318.87,71.73c-3.37,2.83-.35,8.91,3.76,13.82,10.28,12.26,16.96,17.1,34.81,32.15-11.66-20.24-15.46-27.76-25.61-39.86-4.24-5.06-9.89-8.67-12.95-6.1"/><path id="r-26" class="cls-2" d="M332.99,60.89c-3.6,2.52-1.13,8.85,2.54,14.09,9.18,13.11,15.4,18.51,31.87,35.06-9.85-21.18-12.98-29-22.04-41.94-3.79-5.41-9.09-9.5-12.37-7.21"/></g><g id="r2-14"><path id="r-27" class="cls-2" d="M348,51.33c-3.81,2.2-1.9,8.72,1.3,14.26,8,13.86,13.73,19.78,28.7,37.7-7.97-21.96-10.4-30.02-18.3-43.7-3.3-5.72-8.23-10.26-11.7-8.26"/><path id="r-28" class="cls-2" d="M363.79,43.11c-3.99,1.86-2.65,8.52.06,14.32,6.76,14.5,11.96,20.91,25.3,40.06-6.02-22.57-7.75-30.81-14.43-45.13-2.79-5.98-7.31-10.94-10.93-9.25"/></g></g><g id="r4-8"><g id="r2-15"><path id="r-29" class="cls-2" d="M380.23,36.3c-4.13,1.5-3.38,8.25-1.19,14.27,5.47,15.04,10.09,21.87,21.71,42.11-4.03-23.01-5.03-31.37-10.44-46.22-2.26-6.2-6.33-11.53-10.08-10.16"/><path id="r-30" class="cls-2" d="M397.2,30.95c-4.25,1.14-4.09,7.93-2.43,14.11,4.14,15.45,8.14,22.66,17.96,43.85-2.01-23.27-2.28-31.69-6.37-46.95-1.71-6.38-5.3-12.04-9.16-11"/></g><g id="r2-16"><path id="r-31" class="cls-2" d="M414.58,27.1c-4.33.76-4.76,7.54-3.65,13.84,2.78,15.76,6.14,23.29,14.07,45.24.02-23.36.49-31.77-2.25-47.33-1.15-6.5-4.23-12.46-8.17-11.76"/><path id="r-32" class="cls-2" d="M432.22,24.78c-4.38.38-5.4,7.1-4.84,13.47,1.39,15.94,4.08,23.73,10.07,46.3,2.06-23.27,3.26-31.6,1.88-47.34-.58-6.57-3.13-12.78-7.11-12.43"/></g></g></g></g><rect class="cls-1" y="185" width="900" height="15"/><rect class="cls-3" y="400" width="900" height="200"/></svg>