<?xml version="1.0" encoding="UTF-8"?><svg id="_色修正" xmlns="http://www.w3.org/2000/svg" viewBox="0 0 900 600"><defs><style>.cls-1{fill:#231815;}.cls-1,.cls-2,.cls-3,.cls-4{stroke-width:0px;}.cls-2{fill:#e50012;}.cls-3{fill:#fff;}.cls-4{fill:#ffe100;}</style></defs><rect class="cls-1" width="900" height="600"/><path class="cls-2" d="M0,0h900v600L0,0Z"/><path class="cls-4" d="M547.39,153.63c-6.25,8.07-21.04-8.12-38.75-8.49-17.71-.37-30.26,16.98-35.43,22.88-5.17,5.91-21.77,36.9-21.4,40.23.37,3.32,10.33-9.23,14.02-11.44.37,4.43-4.06,9.6-2.95,11.07,1.11,1.48,12.92-8.86,16.98-9.23,1.11,2.95-2.21,5.9-1.11,10.33,1.48,1.48,8.12-7.38,12.55-9.23.74,3.32-4.06,9.6-1.48,13.65,1.85.37,12.92-12.55,16.61-14.02,3.69-1.48-1.85,12.18,0,13.29,3.32-2.21,13.66-14.02,16.98-15.5,3.32-1.48-.37,15.13,1.11,15.13,4.06-2.95,14.39-16.98,15.5-19.19,1.11-2.21-1.11,21.4,10.33,33.95s28.79,26.94,30.63,26.94c2.21-4.06-.74-12.55,1.11-12.18,5.17,5.54,14.76,13.65,16.98,13.65s-1.48-8.86,1.48-8.86c5.91,5.54,22.88,27.31,56.09,37.27-2.21-6.27-7.01-11.81-7.38-14.76,2.21.37,9.97,4.06,11.44,3.69,1.48-.37-16.24-22.14-15.13-25.1,4.06-.37,5.91,2.21,7.38.37-1.85-2.95-17.35-20.3-17.35-24.36s4.8.74,6.27,0c1.48-.74-5.9-16.24-4.43-18.08,1.48-1.84,17.71,9.96,21.77,9.96s1.11-14.39,2.95-15.13c1.85-.74,15.5,7.75,18.45,7.75s2.58-6.27,3.69-5.54,33.21,32.85,22.14,70.49c-11.07,26.94-33.21,41.33-65.69,29.52,1.84,2.95,19.19,17.35,38.01,12.18s41.7-19.93,39.12-56.83c-2.58-36.9-14.76-42.07-16.61-47.61-1.84-5.54,2.95,1.48,7.01,2.95,4.06,1.48-.74-7.75-1.85-11.81-1.11-4.06,12.18,8.49,15.5,9.6s-7.75-30.26-11.07-32.48c-3.32-2.21,3.32.74,5.54,1.48,2.21.74-20.3-34.32-25.1-34.32s4.06-1.85,6.64-1.85-25.83-22.88-30.63-22.88,10.33-5.91,11.81-6.27c2.58.37-32.84-18.82-64.58.37-1.85-1.47,14.95-13.1,15.5-18.08.18-1.29-5.53-4.06-5.9-5.54-.37-1.48,8.86-5.9,9.23-9.23-2.21-2.95-6.27-1.85-8.49-2.58-.55-2.77,7.75-9.6,7.01-12.55-.55-1.66-6.64-2.21-8.12-1.11-1.48,1.11,3.88-7.75,2.95-10.33-.74-1.11-3.69-.37-6.64.37-1.85-.37,9.6-16.24,7.38-18.45s-33.21,16.24-44.65,36.9c-11.44,20.67-2.58,37.27-4.06,44.28-1.48,7.01-3.32,14.02-8.12,14.02s-15.87-7.38-19.56-11.07c-3.69-3.69-4.43-6.27-9.6-7.75-5.17-1.48-16.98,2.95-21.4,3.32s-21.77-3.32-22.88-2.21c-1.11,1.11,16.98,7.75,21.04,9.96,4.06,2.21,4.43,5.17,7.38,7.01,2.95,1.84,30.63,9.96,21.77,21.4ZM655.52,205.66c8.86,8.86,68.64,48.71,68.64,97.43s-43.55,47.24-56.09,45.76c14.02,11.81,67.17,9.59,67.17-45.76,0-48.71-68.64-97.43-77.5-101.86-8.86-4.43-11.07-4.43-2.21,4.43Z"/><path class="cls-3" d="M240.54,421.92l12.69-40.81,12.69,41.26-33.41-25.29h41.44l-33.41,24.84Z"/><path id="sl" class="cls-3" d="M184.77,167.96l-25.37,81.63,66.82-49.69h-82.88l66.82,50.58-25.37-82.52Z"/><path id="sl-2" class="cls-3" d="M114.24,278.6l-25.37,81.63,66.82-49.69h-82.88l66.82,50.58-25.37-82.52Z"/><path id="sl-3" class="cls-3" d="M296.74,276.71l-25.37,81.63,66.82-49.69h-82.88l66.82,50.58-25.37-82.52Z"/><path id="sl-4" class="cls-3" d="M195.74,458.92l-25.37,81.63,66.82-49.69h-82.88l66.82,50.58-25.37-82.52Z"/></svg>