<?xml version="1.0" encoding="UTF-8"?><svg id="_色修正" xmlns="http://www.w3.org/2000/svg" viewBox="0 0 900 600"><defs><style>.cls-1{fill:#e50012;}.cls-1,.cls-2,.cls-3,.cls-4{stroke-width:0px;}.cls-2{fill:#fff;}.cls-3{fill:#fff000;}.cls-4{fill:#003d95;}</style></defs><rect class="cls-4" width="900" height="600"/><rect class="cls-2" y="300" width="900" height="150"/><rect class="cls-1" y="350" width="900" height="50"/><g id="s2"><g id="s"><g id="c"><path id="t" class="cls-3" d="M278.97,208.13l-8.71,26.8,13.4,4.35"/><path id="t-2" class="cls-3" d="M278.97,208.13l8.71,26.8-13.4,4.35"/></g><g id="c-2"><path id="t-3" class="cls-3" d="M305.78,227.6h-28.18v14.09"/><path id="t-4" class="cls-3" d="M305.78,227.6l-22.8,16.57-8.28-11.4"/></g><g id="c-3"><path id="t-5" class="cls-3" d="M295.54,259.11l-8.71-26.8-13.4,4.35"/><path id="t-6" class="cls-3" d="M295.54,259.11l-22.8-16.57,8.28-11.4"/></g><g id="c-4"><path id="t-7" class="cls-3" d="M262.41,259.11l22.8-16.57-8.28-11.4"/><path id="t-8" class="cls-3" d="M262.41,259.11l8.71-26.8,13.4,4.35"/></g><g id="c-5"><path id="t-9" class="cls-3" d="M252.17,227.6l22.8,16.57,8.28-11.4"/><path id="t-10" class="cls-3" d="M252.17,227.6h28.18v14.09"/></g></g><g id="s-2"><g id="c-6"><path id="t-11" class="cls-3" d="M278.97,489.95l-8.71,26.8,13.4,4.35"/><path id="t-12" class="cls-3" d="M278.97,489.95l8.71,26.8-13.4,4.35"/></g><g id="c-7"><path id="t-13" class="cls-3" d="M305.78,509.43h-28.18v14.09"/><path id="t-14" class="cls-3" d="M305.78,509.43l-22.8,16.57-8.28-11.4"/></g><g id="c-8"><path id="t-15" class="cls-3" d="M295.54,540.93l-8.71-26.8-13.4,4.35"/><path id="t-16" class="cls-3" d="M295.54,540.93l-22.8-16.57,8.28-11.4"/></g><g id="c-9"><path id="t-17" class="cls-3" d="M262.41,540.93l22.8-16.57-8.28-11.4"/><path id="t-18" class="cls-3" d="M262.41,540.93l8.71-26.8,13.4,4.35"/></g><g id="c-10"><path id="t-19" class="cls-3" d="M252.17,509.43l22.8,16.57,8.28-11.4"/><path id="t-20" class="cls-3" d="M252.17,509.43h28.18v14.09"/></g></g></g><g id="s2-2"><g id="s-3"><g id="c-11"><path id="t-21" class="cls-3" d="M439.79,324.97h-28.18v14.09"/><path id="t-22" class="cls-3" d="M439.79,324.97l-22.8,16.57-8.28-11.4"/></g><g id="c-12"><path id="t-23" class="cls-3" d="M429.56,356.48l-8.71-26.8-13.4,4.35"/><path id="t-24" class="cls-3" d="M429.56,356.48l-22.8-16.57,8.28-11.4"/></g><g id="c-13"><path id="t-25" class="cls-3" d="M396.42,356.48l22.8-16.57-8.28-11.4"/><path id="t-26" class="cls-3" d="M396.42,356.48l8.71-26.8,13.4,4.35"/></g><g id="c-14"><path id="t-27" class="cls-3" d="M386.19,324.97l22.8,16.57,8.28-11.4"/><path id="t-28" class="cls-3" d="M386.19,324.97h28.18s0,14.09,0,14.09"/></g><g id="c-15"><path id="t-29" class="cls-3" d="M412.99,305.5l-8.71,26.8,13.4,4.35"/><path id="t-30" class="cls-3" d="M412.99,305.5l8.71,26.8-13.4,4.35"/></g></g><g id="s-4"><g id="c-16"><path id="t-31" class="cls-3" d="M171.76,412.06h-28.18v14.09"/><path id="t-32" class="cls-3" d="M171.76,412.06l-22.8,16.57-8.28-11.4"/></g><g id="c-17"><path id="t-33" class="cls-3" d="M161.52,443.57l-8.71-26.8-13.4,4.35"/><path id="t-34" class="cls-3" d="M161.52,443.57l-22.8-16.57,8.28-11.4"/></g><g id="c-18"><path id="t-35" class="cls-3" d="M128.39,443.57l22.8-16.57-8.28-11.4"/><path id="t-36" class="cls-3" d="M128.39,443.57l8.71-26.8,13.4,4.35"/></g><g id="c-19"><path id="t-37" class="cls-3" d="M118.16,412.06l22.8,16.57,8.28-11.4"/><path id="t-38" class="cls-3" d="M118.16,412.06h28.18s0,14.09,0,14.09"/></g><g id="c-20"><path id="t-39" class="cls-3" d="M144.96,392.58l-8.71,26.8,13.4,4.35"/><path id="t-40" class="cls-3" d="M144.96,392.58l8.71,26.8-13.4,4.35"/></g></g></g><g id="s2-3"><g id="s-5"><g id="c-21"><path id="t-41" class="cls-3" d="M378.37,514.02l-8.71-26.8-13.4,4.35"/><path id="t-42" class="cls-3" d="M378.37,514.02l-22.8-16.57,8.28-11.4"/></g><g id="c-22"><path id="t-43" class="cls-3" d="M345.24,514.02l22.8-16.57-8.28-11.4"/><path id="t-44" class="cls-3" d="M345.24,514.02l8.71-26.8,13.4,4.35"/></g><g id="c-23"><path id="t-45" class="cls-3" d="M335,482.51l22.8,16.57,8.28-11.4"/><path id="t-46" class="cls-3" d="M335,482.51h28.18v14.09"/></g><g id="c-24"><path id="t-47" class="cls-3" d="M361.8,463.04l-8.71,26.8,13.4,4.35"/><path id="t-48" class="cls-3" d="M361.8,463.04l8.71,26.8-13.4,4.35"/></g><g id="c-25"><path id="t-49" class="cls-3" d="M388.6,482.51h-28.18s0,14.09,0,14.09"/><path id="t-50" class="cls-3" d="M388.6,482.51l-22.8,16.57-8.28-11.4"/></g></g><g id="s-6"><g id="c-26"><path id="t-51" class="cls-3" d="M212.71,286.02l-8.71-26.8-13.4,4.35"/><path id="t-52" class="cls-3" d="M212.71,286.02l-22.8-16.57,8.28-11.4"/></g><g id="c-27"><path id="t-53" class="cls-3" d="M179.58,286.02l22.8-16.57-8.28-11.4"/><path id="t-54" class="cls-3" d="M179.58,286.02l8.71-26.8,13.4,4.35"/></g><g id="c-28"><path id="t-55" class="cls-3" d="M169.34,254.51l22.8,16.57,8.28-11.4"/><path id="t-56" class="cls-3" d="M169.34,254.51h28.18v14.09"/></g><g id="c-29"><path id="t-57" class="cls-3" d="M196.15,235.04l-8.71,26.8,13.4,4.35"/><path id="t-58" class="cls-3" d="M196.15,235.04l8.71,26.8-13.4,4.35"/></g><g id="c-30"><path id="t-59" class="cls-3" d="M222.95,254.51h-28.18s0,14.09,0,14.09"/><path id="t-60" class="cls-3" d="M222.95,254.51l-22.8,16.57-8.28-11.4"/></g></g></g><g id="s2-4"><g id="s-7"><g id="c-31"><path id="t-61" class="cls-3" d="M179.58,514.02l22.8-16.57-8.28-11.4"/><path id="t-62" class="cls-3" d="M179.58,514.02l8.71-26.8,13.4,4.35"/></g><g id="c-32"><path id="t-63" class="cls-3" d="M169.34,482.51l22.8,16.57,8.28-11.4"/><path id="t-64" class="cls-3" d="M169.34,482.51h28.18s0,14.09,0,14.09"/></g><g id="c-33"><path id="t-65" class="cls-3" d="M196.15,463.04l-8.71,26.8,13.4,4.35"/><path id="t-66" class="cls-3" d="M196.15,463.04l8.71,26.8-13.4,4.35"/></g><g id="c-34"><path id="t-67" class="cls-3" d="M222.95,482.51h-28.18v14.09"/><path id="t-68" class="cls-3" d="M222.95,482.51l-22.8,16.57-8.28-11.4"/></g><g id="c-35"><path id="t-69" class="cls-3" d="M212.71,514.02l-8.71-26.8-13.4,4.35"/><path id="t-70" class="cls-3" d="M212.71,514.02l-22.8-16.57,8.28-11.4"/></g></g><g id="s-8"><g id="c-36"><path id="t-71" class="cls-3" d="M345.24,286.02l22.8-16.57-8.28-11.4"/><path id="t-72" class="cls-3" d="M345.24,286.02l8.71-26.8,13.4,4.35"/></g><g id="c-37"><path id="t-73" class="cls-3" d="M335,254.51l22.8,16.57,8.28-11.4"/><path id="t-74" class="cls-3" d="M335,254.51h28.18s0,14.09,0,14.09"/></g><g id="c-38"><path id="t-75" class="cls-3" d="M361.8,235.04l-8.71,26.8,13.4,4.35"/><path id="t-76" class="cls-3" d="M361.8,235.04l8.71,26.8-13.4,4.35"/></g><g id="c-39"><path id="t-77" class="cls-3" d="M388.6,254.51h-28.18v14.09"/><path id="t-78" class="cls-3" d="M388.6,254.51l-22.8,16.57-8.28-11.4"/></g><g id="c-40"><path id="t-79" class="cls-3" d="M378.37,286.02l-8.71-26.8-13.4,4.35"/><path id="t-80" class="cls-3" d="M378.37,286.02l-22.8-16.57,8.28-11.4"/></g></g></g><g id="s2-5"><g id="s-9"><g id="c-41"><path id="t-81" class="cls-3" d="M118.16,324.97l22.8,16.57,8.28-11.4"/><path id="t-82" class="cls-3" d="M118.16,324.97h28.18v14.09"/></g><g id="c-42"><path id="t-83" class="cls-3" d="M144.96,305.5l-8.71,26.8,13.4,4.35"/><path id="t-84" class="cls-3" d="M144.96,305.5l8.71,26.8-13.4,4.35"/></g><g id="c-43"><path id="t-85" class="cls-3" d="M171.76,324.97h-28.18s0,14.09,0,14.09"/><path id="t-86" class="cls-3" d="M171.76,324.97l-22.8,16.57-8.28-11.4"/></g><g id="c-44"><path id="t-87" class="cls-3" d="M161.52,356.48l-8.71-26.8-13.4,4.35"/><path id="t-88" class="cls-3" d="M161.52,356.48l-22.8-16.57,8.28-11.4"/></g><g id="c-45"><path id="t-89" class="cls-3" d="M128.39,356.48l22.8-16.57-8.28-11.4"/><path id="t-90" class="cls-3" d="M128.39,356.48l8.71-26.8,13.4,4.35"/></g></g><g id="s-10"><g id="c-46"><path id="t-91" class="cls-3" d="M386.19,412.06l22.8,16.57,8.28-11.4"/><path id="t-92" class="cls-3" d="M386.19,412.06h28.18v14.09"/></g><g id="c-47"><path id="t-93" class="cls-3" d="M412.99,392.58l-8.71,26.8,13.4,4.35"/><path id="t-94" class="cls-3" d="M412.99,392.58l8.71,26.8-13.4,4.35"/></g><g id="c-48"><path id="t-95" class="cls-3" d="M439.79,412.06h-28.18s0,14.09,0,14.09"/><path id="t-96" class="cls-3" d="M439.79,412.06l-22.8,16.57-8.28-11.4"/></g><g id="c-49"><path id="t-97" class="cls-3" d="M429.56,443.57l-8.71-26.8-13.4,4.35"/><path id="t-98" class="cls-3" d="M429.56,443.57l-22.8-16.57,8.28-11.4"/></g><g id="c-50"><path id="t-99" class="cls-3" d="M396.42,443.57l22.8-16.57-8.28-11.4"/><path id="t-100" class="cls-3" d="M396.42,443.57l8.71-26.8,13.4,4.35"/></g></g></g></svg>