<?xml version="1.0" encoding="UTF-8"?><svg id="_色修正" xmlns="http://www.w3.org/2000/svg" xmlns:xlink="http://www.w3.org/1999/xlink" viewBox="0 0 900 600"><defs><style>.cls-1{clip-path:url(#clippath);}.cls-2{fill:none;}.cls-2,.cls-3,.cls-4{stroke-width:0px;}.cls-5{clip-path:url(#clippath-1);}.cls-6{clip-path:url(#clippath-4);}.cls-7{clip-path:url(#clippath-3);}.cls-8{clip-path:url(#clippath-2);}.cls-9{clip-path:url(#clippath-7);}.cls-10{clip-path:url(#clippath-8);}.cls-11{clip-path:url(#clippath-6);}.cls-12{clip-path:url(#clippath-5);}.cls-3{fill:#e50012;}.cls-4{fill:#fff;}</style><clipPath id="clippath"><rect class="cls-2" width="900" height="600"/></clipPath><clipPath id="clippath-1"><path class="cls-2" d="M-133.65,430.35c172.31,0,312-139.69,312-312S38.66-193.65-133.65-193.65h654c-172.31,0-312,139.69-312,312s139.69,312,312,312H-133.65Z"/></clipPath><clipPath id="clippath-2"><path class="cls-2" d="M-118.65-208.65C-118.65-36.34,21.04,103.35,193.35,103.35S505.35-36.34,505.35-208.65V445.35c0-172.31-139.69-312-312-312S-118.65,273.04-118.65,445.35V-208.65Z"/></clipPath><clipPath id="clippath-3"><path class="cls-2" d="M379.65,793.65c172.31,0,312-139.69,312-312s-139.69-312-312-312h654c-172.31,0-312,139.69-312,312s139.69,312,312,312H379.65Z"/></clipPath><clipPath id="clippath-4"><path class="cls-2" d="M394.65,154.65c0,172.31,139.69,312,312,312s312-139.69,312-312v654c0-172.31-139.69-312-312-312s-312,139.69-312,312V154.65Z"/></clipPath><clipPath id="clippath-5"><path class="cls-2" d="M379.65,430.35c172.31,0,312-139.69,312-312s-139.69-312-312-312h654c-172.31,0-312,139.69-312,312s139.69,312,312,312H379.65Z"/></clipPath><clipPath id="clippath-6"><path class="cls-2" d="M394.65-208.65c0,172.31,139.69,312,312,312S1018.65-36.34,1018.65-208.65V445.35c0-172.31-139.69-312-312-312s-312,139.69-312,312V-208.65Z"/></clipPath><clipPath id="clippath-7"><path class="cls-2" d="M-133.65,793.65c172.31,0,312-139.69,312-312S38.66,169.65-133.65,169.65h654c-172.31,0-312,139.69-312,312s139.69,312,312,312H-133.65Z"/></clipPath><clipPath id="clippath-8"><path class="cls-2" d="M-118.65,154.65c0,172.31,139.69,312,312,312s312-139.69,312-312v654c0-172.31-139.69-312-312-312S-118.65,636.34-118.65,808.65V154.65Z"/></clipPath></defs><g class="cls-1"><rect class="cls-4" width="900" height="600"/><polygon class="cls-3" points="390 0 390 240 0 240 0 360 390 360 390 600 510 600 510 360 900 360 900 240 510 240 510 0 390 0"/><g class="cls-5"><path class="cls-3" d="M28.35,340.35c0-91.13,73.87-165,165-165s165,73.87,165,165V-103.65c0,91.13-73.87,165-165,165S28.35-12.52,28.35-103.65v444Z"/></g><g class="cls-8"><path class="cls-3" d="M-28.65-46.65c91.13,0,165,73.87,165,165S62.48,283.35-28.65,283.35h444c-91.13,0-165-73.87-165-165S324.22-46.65,415.35-46.65H-28.65Z"/></g><g class="cls-7"><path class="cls-3" d="M541.65,703.65c0-91.13,73.87-165,165-165s165,73.87,165,165v-444c0,91.13-73.87,165-165,165s-165-73.87-165-165v444Z"/></g><g class="cls-6"><path class="cls-3" d="M484.65,316.65c91.13,0,165,73.87,165,165s-73.87,165-165,165h444c-91.13,0-165-73.87-165-165s73.87-165,165-165h-444Z"/></g><g class="cls-12"><path class="cls-3" d="M541.65,340.35c0-91.13,73.87-165,165-165s165,73.87,165,165V-103.65c0,91.13-73.87,165-165,165s-165-73.87-165-165v444Z"/></g><g class="cls-11"><path class="cls-3" d="M484.65-46.65c91.13,0,165,73.87,165,165s-73.87,165-165,165h444c-91.13,0-165-73.87-165-165s73.87-165,165-165h-444Z"/></g><g class="cls-9"><path class="cls-3" d="M28.35,703.65c0-91.13,73.87-165,165-165s165,73.87,165,165v-444c0,91.13-73.87,165-165,165S28.35,350.78,28.35,259.65v444Z"/></g><g class="cls-10"><path class="cls-3" d="M-28.65,316.65c91.13,0,165,73.87,165,165s-73.87,165-165,165h444c-91.13,0-165-73.87-165-165s73.87-165,165-165H-28.65Z"/></g></g></svg>