<?xml version="1.0" encoding="UTF-8"?><svg id="_色修正" xmlns="http://www.w3.org/2000/svg" xmlns:xlink="http://www.w3.org/1999/xlink" viewBox="0 0 900 600"><defs><style>.cls-1{stroke:#fff;stroke-miterlimit:80;stroke-width:120px;}.cls-1,.cls-2{fill:none;}.cls-3{clip-path:url(#clippath);}.cls-2,.cls-4,.cls-5,.cls-6,.cls-7{stroke-width:0px;}.cls-4{fill:#e50012;}.cls-5{fill:#fff;}.cls-6{fill:#e62c23;}.cls-7{fill:#003070;}</style><clipPath id="clippath"><rect class="cls-2" y=".38" width="900" height="600"/></clipPath></defs><rect class="cls-7" y=".38" width="900" height="600"/><g class="cls-3"><line class="cls-1" x1="-20.57" y1="-9.1" x2="913.73" y2="613.68"/><line class="cls-1" x1="-19.2" y1="613.68" x2="915.1" y2="-9.1"/><polyline class="cls-6" points="448.26 256.54 482.92 279.64 916.1 -9.1 897.66 -43.02"/><polyline class="cls-6" points="-18.51 614.95 -.76 647.6 447.26 348.96 412.6 325.85"/><polygon class="cls-4" points="-42.96 25.79 -22.16 -12.46 418.02 279.64 377.94 306.35 -42.96 25.79"/><polygon class="cls-4" points="476.52 325.85 516.59 299.14 936.11 578.79 914.79 618 476.52 325.85"/><polygon class="cls-4" points="442.85 256.54 898.73 -47.33 920.05 -8.13 482.92 283.25 442.85 256.54"/><polygon class="cls-4" points="-22.45 613.98 412.6 322.24 452.67 348.96 -1.82 651.91 -22.45 613.98"/><polygon class="cls-6" points="447.26 302.75 481.93 325.85 516.59 302.75 481.92 279.64 447.26 302.75"/><polygon class="cls-6" points="447.26 302.75 412.6 279.64 377.94 302.75 412.6 325.85 447.26 302.75"/><polygon class="cls-6" points="447.26 302.75 481.92 279.64 447.26 256.54 412.6 279.64 447.26 302.75"/><polygon class="cls-6" points="447.26 302.75 412.6 325.85 447.26 348.96 481.93 325.85 447.26 302.75"/><rect class="cls-5" x="-9.41" y="220.38" width="915.96" height="160"/><rect class="cls-5" x="368.63" y=".38" width="160" height="600"/><rect class="cls-4" x="400.04" y=".38" width="96" height="600"/><rect class="cls-4" x="401.31" y="-159.53" width="96" height="920.58" transform="translate(148.55 750.07) rotate(-90)"/></g><rect class="cls-2" width="900" height="600"/><rect class="cls-2" width="900" height="600"/></svg>