<?xml version="1.0" encoding="UTF-8"?><svg id="_色修正" xmlns="http://www.w3.org/2000/svg" xmlns:xlink="http://www.w3.org/1999/xlink" viewBox="0 0 900 600"><defs><style>.cls-1{clip-path:url(#clippath);}.cls-2,.cls-3{fill:none;}.cls-2,.cls-4,.cls-5,.cls-6,.cls-7{stroke-width:0px;}.cls-3{stroke:#fff;stroke-miterlimit:80;stroke-width:60px;}.cls-4{fill:#e50012;}.cls-5{fill:#fff;}.cls-6{fill:#e62a23;}.cls-7{fill:#002b69;}</style><clipPath id="clippath"><rect class="cls-2" y=".19" width="450" height="300"/></clipPath></defs><rect class="cls-7" width="900" height="600"/><rect class="cls-7" y=".19" width="450" height="300"/><g class="cls-1"><line class="cls-3" x1="-10.29" y1="-4.55" x2="456.86" y2="306.84"/><line class="cls-3" x1="-9.6" y1="306.84" x2="457.55" y2="-4.55"/><polyline class="cls-6" points="224.13 128.27 241.46 139.82 458.05 -4.55 448.83 -21.51"/><polyline class="cls-6" points="-9.25 307.48 -.38 323.8 223.63 174.48 206.3 162.93"/><polygon class="cls-4" points="-21.48 12.89 -11.08 -6.23 209.01 139.82 188.97 153.18 -21.48 12.89"/><polygon class="cls-4" points="238.26 162.93 258.29 149.57 468.06 289.4 457.4 309 238.26 162.93"/><polygon class="cls-4" points="221.43 128.27 449.36 -23.67 460.02 -4.06 241.46 141.62 221.43 128.27"/><polygon class="cls-4" points="-11.23 306.99 206.3 161.12 226.34 174.48 -.91 325.96 -11.23 306.99"/><polygon class="cls-6" points="223.63 151.37 240.96 162.93 258.29 151.37 240.96 139.82 223.63 151.37"/><polygon class="cls-6" points="223.63 151.37 206.3 139.82 188.97 151.37 206.3 162.93 223.63 151.37"/><polygon class="cls-6" points="223.63 151.37 240.96 139.82 223.63 128.27 206.3 139.82 223.63 151.37"/><polygon class="cls-6" points="223.63 151.37 206.3 162.93 223.63 174.48 240.96 162.93 223.63 151.37"/><rect class="cls-5" x="-4.71" y="110.19" width="457.98" height="80"/><rect class="cls-5" x="184.31" y=".76" width="80" height="299.24"/><rect class="cls-4" x="200.02" y=".76" width="48" height="299.24"/><rect class="cls-4" x="200.66" y="-79.77" width="48" height="460.29" transform="translate(74.28 375.04) rotate(-90)"/></g><rect class="cls-2" width="450" height="300"/><rect class="cls-2" width="450" height="300"/><g id="Pentagram"><g id="Arm"><path class="cls-5" d="M680.03,127.34v20.82l41.65-20.82h-41.65Z"/><path class="cls-5" d="M687.98,151.82l-12.24-16.85,45.94-7.63-33.69,24.48Z"/></g><g id="Arm-2"><path class="cls-5" d="M680.03,127.34v20.82l-41.65-20.82h41.65Z"/><path class="cls-5" d="M672.08,151.82l12.24-16.85-45.94-7.63,33.69,24.48Z"/></g><g id="Arm-3"><path class="cls-5" d="M692.9,136.69l-19.81,6.44,32.68,33.18-12.87-39.61Z"/><path class="cls-5" d="M672.08,151.82l12.24-16.85,21.45,41.33-33.69-24.48Z"/></g><g id="Arm-4"><path class="cls-5" d="M667.16,136.69l19.81,6.44-6.94-46.05-12.87,39.61Z"/><path class="cls-5" d="M692.9,136.69l-19.81,6.44,6.94-46.05,12.87,39.61Z"/></g><g id="Arm-5"><path class="cls-5" d="M667.16,136.69l19.81,6.44-32.68,33.18,12.87-39.61Z"/><path class="cls-5" d="M687.98,151.82l-12.24-16.85-21.45,41.33,33.69-24.48Z"/></g></g><g id="Pentagram-2"><g id="Arm-6"><path class="cls-4" d="M680.03,131.93v13.76l27.52-13.76h-27.52Z"/><path class="cls-4" d="M685.29,148.11l-8.09-11.13,30.35-5.04-22.27,16.18Z"/></g><g id="Arm-7"><path class="cls-4" d="M680.03,131.93v13.76l-27.52-13.76h27.52Z"/><path class="cls-4" d="M674.77,148.11l8.09-11.13-30.35-5.04,22.27,16.18Z"/></g><g id="Arm-8"><path class="cls-4" d="M688.53,138.11l-13.09,4.25,21.59,21.92-8.5-26.17Z"/><path class="cls-4" d="M674.77,148.11l8.09-11.13,14.18,27.31-22.27-16.18Z"/></g><g id="Arm-9"><path class="cls-4" d="M671.53,138.11l13.09,4.25-4.58-30.43-8.5,26.17Z"/><path class="cls-4" d="M688.53,138.11l-13.09,4.25,4.58-30.43,8.5,26.17Z"/></g><g id="Arm-10"><path class="cls-4" d="M671.53,138.11l13.09,4.25-21.59,21.92,8.5-26.17Z"/><path class="cls-4" d="M685.29,148.11l-8.09-11.13-14.18,27.31,22.27-16.18Z"/></g></g><g id="Pentagram-3"><g id="Arm-11"><path class="cls-5" d="M789.04,223.6v18.53l37.06-18.53h-37.06Z"/><path class="cls-5" d="M796.12,245.38l-10.89-14.99,40.88-6.79-29.98,21.78Z"/></g><g id="Arm-12"><path class="cls-5" d="M789.04,223.6v18.53l-37.06-18.53h37.06Z"/><path class="cls-5" d="M781.97,245.38l10.89-14.99-40.88-6.79,29.98,21.78Z"/></g><g id="Arm-13"><path class="cls-5" d="M800.5,231.92l-17.62,5.73,29.08,29.52-11.45-35.25Z"/><path class="cls-5" d="M781.97,245.38l10.89-14.99,19.09,36.78-29.98-21.78Z"/></g><g id="Arm-14"><path class="cls-5" d="M777.59,231.92l17.62,5.73-6.17-40.97-11.45,35.25Z"/><path class="cls-5" d="M800.5,231.92l-17.62,5.73,6.17-40.97,11.45,35.25Z"/></g><g id="Arm-15"><path class="cls-5" d="M777.59,231.92l17.62,5.73-29.08,29.52,11.45-35.25Z"/><path class="cls-5" d="M796.12,245.38l-10.89-14.99-19.09,36.78,29.98-21.78Z"/></g></g><g id="Pentagram-4"><g id="Arm-16"><path class="cls-4" d="M789.04,228.19v11.47l22.93-11.47h-22.93Z"/><path class="cls-4" d="M793.42,241.67l-6.74-9.28,25.29-4.2-18.55,13.48Z"/></g><g id="Arm-17"><path class="cls-4" d="M789.04,228.19v11.47l-22.93-11.47h22.93Z"/><path class="cls-4" d="M784.66,241.67l6.74-9.28-25.29-4.2,18.55,13.48Z"/></g><g id="Arm-18"><path class="cls-4" d="M796.13,233.34l-10.91,3.54,17.99,18.27-7.09-21.81Z"/><path class="cls-4" d="M784.66,241.67l6.74-9.28,11.81,22.76-18.55-13.48Z"/></g><g id="Arm-19"><path class="cls-4" d="M781.96,233.34l10.91,3.54-3.82-25.36-7.09,21.81Z"/><path class="cls-4" d="M796.13,233.34l-10.91,3.54,3.82-25.36,7.09,21.81Z"/></g><g id="Arm-20"><path class="cls-4" d="M781.96,233.34l10.91,3.54-17.99,18.27,7.09-21.81Z"/><path class="cls-4" d="M793.42,241.67l-6.74-9.28-11.81,22.76,18.55-13.48Z"/></g></g><g id="Pentagram-5"><g id="Arm-21"><path class="cls-5" d="M552.85,255.3v20.82l41.65-20.82h-41.65Z"/><path class="cls-5" d="M560.8,279.78l-12.24-16.85,45.94-7.63-33.69,24.48Z"/></g><g id="Arm-22"><path class="cls-5" d="M552.85,255.3v20.82l-41.65-20.82h41.65Z"/><path class="cls-5" d="M544.89,279.78l12.24-16.85-45.94-7.63,33.69,24.48Z"/></g><g id="Arm-23"><path class="cls-5" d="M565.72,264.65l-19.81,6.44,32.68,33.18-12.87-39.61Z"/><path class="cls-5" d="M544.89,279.78l12.24-16.85,21.45,41.33-33.69-24.48Z"/></g><g id="Arm-24"><path class="cls-5" d="M539.98,264.65l19.81,6.44-6.94-46.05-12.87,39.61Z"/><path class="cls-5" d="M565.72,264.65l-19.81,6.44,6.94-46.05,12.87,39.61Z"/></g><g id="Arm-25"><path class="cls-5" d="M539.98,264.65l19.81,6.44-32.68,33.18,12.87-39.61Z"/><path class="cls-5" d="M560.8,279.78l-12.24-16.85-21.45,41.33,33.69-24.48Z"/></g></g><g id="Pentagram-6"><g id="Arm-26"><path class="cls-4" d="M552.85,259.89v13.76l27.52-13.76h-27.52Z"/><path class="cls-4" d="M558.1,276.07l-8.09-11.13,30.35-5.04-22.27,16.18Z"/></g><g id="Arm-27"><path class="cls-4" d="M552.85,259.89v13.76l-27.52-13.76h27.52Z"/><path class="cls-4" d="M547.59,276.07l8.09-11.13-30.35-5.04,22.27,16.18Z"/></g><g id="Arm-28"><path class="cls-4" d="M561.35,266.07l-13.09,4.25,21.59,21.92-8.5-26.17Z"/><path class="cls-4" d="M547.59,276.07l8.09-11.13,14.18,27.31-22.27-16.18Z"/></g><g id="Arm-29"><path class="cls-4" d="M544.34,266.07l13.09,4.25-4.58-30.43-8.5,26.17Z"/><path class="cls-4" d="M561.35,266.07l-13.09,4.25,4.58-30.43,8.5,26.17Z"/></g><g id="Arm-30"><path class="cls-4" d="M544.34,266.07l13.09,4.25-21.59,21.92,8.5-26.17Z"/><path class="cls-4" d="M558.1,276.07l-8.09-11.13-14.18,27.31,22.27-16.18Z"/></g></g><g id="Pentagram-7"><g id="Arm-31"><path class="cls-5" d="M680.03,456.11v23.12l46.24-23.12h-46.24Z"/><path class="cls-5" d="M688.86,483.29l-13.59-18.7,50.99-8.47-37.41,27.18Z"/></g><g id="Arm-32"><path class="cls-5" d="M680.03,456.11v23.12l-46.24-23.12h46.24Z"/><path class="cls-5" d="M671.2,483.29l13.59-18.7-50.99-8.47,37.41,27.18Z"/></g><g id="Arm-33"><path class="cls-5" d="M694.32,466.49l-21.99,7.14,36.27,36.83-14.29-43.97Z"/><path class="cls-5" d="M671.2,483.29l13.59-18.7,23.82,45.88-37.41-27.18Z"/></g><g id="Arm-34"><path class="cls-5" d="M665.74,466.49l21.99,7.14-7.7-51.12-14.29,43.97Z"/><path class="cls-5" d="M694.32,466.49l-21.99,7.14,7.7-51.12,14.29,43.97Z"/></g><g id="Arm-35"><path class="cls-5" d="M665.74,466.49l21.99,7.14-36.27,36.83,14.29-43.97Z"/><path class="cls-5" d="M688.86,483.29l-13.59-18.7-23.82,45.88,37.41-27.18Z"/></g></g><g id="Pentagram-8"><g id="Arm-36"><path class="cls-4" d="M680.03,460.7v16.05l32.11-16.05h-32.11Z"/><path class="cls-4" d="M686.16,479.57l-9.44-12.99,35.41-5.88-25.98,18.87Z"/></g><g id="Arm-37"><path class="cls-4" d="M680.03,460.7v16.05l-32.11-16.05h32.11Z"/><path class="cls-4" d="M673.9,479.57l9.44-12.99-35.41-5.88,25.98,18.87Z"/></g><g id="Arm-38"><path class="cls-4" d="M689.95,467.91l-15.27,4.96,25.19,25.58-9.92-30.54Z"/><path class="cls-4" d="M673.9,479.57l9.44-12.99,16.54,31.86-25.98-18.87Z"/></g><g id="Arm-39"><path class="cls-4" d="M670.11,467.91l15.27,4.96-5.35-35.5-9.92,30.54Z"/><path class="cls-4" d="M689.95,467.91l-15.27,4.96,5.35-35.5,9.92,30.54Z"/></g><g id="Arm-40"><path class="cls-4" d="M670.11,467.91l15.27,4.96-25.19,25.58,9.92-30.54Z"/><path class="cls-4" d="M686.16,479.57l-9.44-12.99-16.54,31.86,25.98-18.87Z"/></g></g></svg>