<?xml version="1.0" encoding="UTF-8"?><svg id="_色修正" xmlns="http://www.w3.org/2000/svg" xmlns:xlink="http://www.w3.org/1999/xlink" viewBox="0 0 900 600"><defs><style>.cls-1{stroke-width:1.54px;}.cls-1,.cls-2,.cls-3,.cls-4,.cls-5,.cls-6,.cls-7,.cls-8,.cls-9,.cls-10,.cls-11,.cls-12,.cls-13{stroke:#231815;}.cls-1,.cls-2,.cls-3,.cls-4,.cls-5,.cls-6,.cls-11,.cls-12{fill:#00683e;}.cls-2{stroke-width:1.53px;}.cls-14{clip-path:url(#clippath);}.cls-15,.cls-16{fill:none;}.cls-15,.cls-17,.cls-18,.cls-19,.cls-20,.cls-21{stroke-width:0px;}.cls-16{stroke:#fccf00;stroke-miterlimit:48;stroke-width:252px;}.cls-3{stroke-width:1.45px;}.cls-4{stroke-width:.57px;}.cls-5{stroke-width:2.47px;}.cls-6,.cls-7,.cls-8,.cls-9,.cls-10,.cls-11,.cls-12{stroke-width:1px;}.cls-7{fill:#efc826;}.cls-8,.cls-13{fill:#c52030;}.cls-9{fill:#825fa5;}.cls-10{fill:#934a23;}.cls-11{stroke-miterlimit:4;}.cls-12{stroke-miterlimit:4;}.cls-13{stroke-width:.99px;}.cls-17{fill:#231815;}.cls-18{fill:#e50012;}.cls-19{fill:#fff;}.cls-20{fill:#ffe100;}.cls-21{fill:#008c3c;}</style><clipPath id="clippath"><rect class="cls-15" y="-700" width="900" height="600"/></clipPath></defs><g class="cls-14"><path class="cls-16" d="M0-100l900-600"/></g><rect class="cls-21" width="900" height="600"/><rect class="cls-20" x="385" width="65" height="600"/><rect class="cls-19" x="450" width="65" height="600"/><rect class="cls-17" x="428.33" width="43.33" height="600"/><rect class="cls-20" y="237" width="900" height="65"/><rect class="cls-19" y="302" width="900" height="65"/><rect class="cls-17" y="280.33" width="900" height="43.33"/><circle class="cls-18" cx="451.59" cy="298.13" r="148.36"/><g id="star2"><path id="star" class="cls-6" d="M446.84,181.01l4.76-13.57,4.32,13.35,14.49.22-11.46,8.75,5.19,14.89-12.54-9.19-12.32,8.75,4.76-14.45-11.25-8.54,14.05-.22Z"/><path id="star-2" class="cls-6" d="M456.35,415.24l-4.76,13.57-4.32-13.35-14.49-.22,11.46-8.75-5.19-14.89,12.54,9.19,12.32-8.75-4.76,14.45,11.25,8.54-14.05.22Z"/></g><g id="star2-2"><path id="star-3" class="cls-11" d="M516.58,200.58l11.83-8.18-4.35,13.34,11.59,8.69-14.42.34-4.55,15.09-4.75-14.81-15.12-.16,12.34-8.89-4.08-13.52,11.5,8.09Z"/><path id="star-4" class="cls-11" d="M386.6,395.67l-11.83,8.18,4.35-13.34-11.59-8.69,14.42-.34,4.55-15.09,4.75,14.81,15.12.16-12.34,8.89,4.08,13.52-11.5-8.09Z"/></g><g id="star2-3"><path id="star-5" class="cls-12" d="M561.51,257.41l14.38.33-11.36,8.24,4.27,13.85-11.87-8.2-12.55,9.54,4.86-14.77-12.13-9.02,15.21.06,4.64-13.33,4.55,13.3Z"/><path id="star-6" class="cls-12" d="M341.68,338.84l-14.38-.33,11.36-8.24-4.27-13.85,11.87,8.2,12.55-9.54-4.86,14.77,12.13,9.02-15.21-.06-4.64,13.33-4.55-13.3Z"/></g><g id="star2-4"><path id="star-7" class="cls-12" d="M564.45,329.79l11.44,8.72-14.03-.02-4.68,13.71-4.78-13.61-15.76.34,12.61-9.09-4.52-14.43,12.27,8.99,11.59-8.06-4.14,13.43Z"/><path id="star-8" class="cls-12" d="M338.74,266.46l-11.44-8.72,14.03.02,4.68-13.71,4.78,13.61,15.76-.34-12.61,9.09,4.52,14.43-12.27-8.99-11.59,8.06,4.14-13.43Z"/></g><g id="star2-5"><path id="star-9" class="cls-11" d="M524.28,390.08l4.13,13.77-11.35-8.26-11.85,8.34,4.13-13.82-12.95-8.99,15.55.06,4.83-14.33,4.64,14.49,14.12.3-11.24,8.44Z"/><path id="star-10" class="cls-11" d="M378.9,206.17l-4.13-13.77,11.35,8.26,11.85-8.34-4.13,13.82,12.95,8.99-15.55-.06-4.83,14.33-4.64-14.49-14.12-.3,11.24-8.44Z"/></g><ellipse class="cls-6" cx="471.93" cy="337.37" rx="8.87" ry="43.72" transform="translate(-22.41 33.79) rotate(-4.01)"/><ellipse class="cls-6" cx="480.64" cy="337.27" rx="9.38" ry="43.72" transform="translate(-22.47 34.53) rotate(-4.02)"/><ellipse class="cls-6" cx="476.52" cy="339.61" rx="7.5" ry="48.32" transform="translate(-22.19 33.52) rotate(-3.94)"/><path class="cls-10" d="M407.86,360.01c7.57-.32,4.28-4.37,8.11-6.52,3.82-2.15,9.26-.73,10.9,1.96,1.63,2.69.32,5.34,2.42,5.37,2.1.04,59.27-2.36,61.33-.1,2.06,2.25,2.4,6.7.27,8.43-2.14,1.75-74.41,2.56-76.9.73-2.49-1.8-6.13-9.43-6.13-9.87Z"/><path class="cls-7" d="M448.25,365.58c-.14,5.71,8.31,4.09,8.43,8.87-.25,5.06-14.17.31-14.3-8.94.58-9.24,14.2-13.81,14.37-8.53.13,4.39-8.35,2.9-8.49,8.61Z"/><path class="cls-7" d="M453.24,365.64c-.14,5.71,8.31,4.09,8.43,8.87-.25,5.06-14.17.31-14.3-8.94.58-9.24,14.2-13.81,14.37-8.53.13,4.39-8.35,2.9-8.49,8.61Z"/><path class="cls-7" d="M458.59,365.44c-.14,5.71,8.31,4.09,8.43,8.87-.25,5.06-14.17.31-14.3-8.94.58-9.24,14.2-13.81,14.37-8.53.13,4.39-8.35,2.9-8.49,8.61Z"/><path class="cls-7" d="M463.57,365.51c-.14,5.71,8.31,4.09,8.43,8.87-.25,5.06-14.17.31-14.3-8.94.58-9.24,14.2-13.81,14.37-8.53.13,4.39-8.35,2.9-8.49,8.61Z"/><ellipse class="cls-10" cx="487.35" cy="364.78" rx="4.9" ry="4.82" transform="translate(29.61 766.09) rotate(-78.06)"/><ellipse class="cls-6" cx="458.38" cy="348.39" rx="4.31" ry="9.49" transform="translate(-31.07 45.2) rotate(-5.46)"/><ellipse class="cls-6" cx="451.1" cy="347.82" rx="4.31" ry="9.49" transform="translate(-31.05 44.5) rotate(-5.46)"/><ellipse class="cls-6" cx="445.89" cy="338.5" rx="4.31" ry="9.49" transform="translate(-30.19 43.96) rotate(-5.46)"/><ellipse class="cls-6" cx="453.27" cy="338.1" rx="4.15" ry="10.47" transform="translate(-30.42 45.17) rotate(-5.52)"/><ellipse class="cls-5" cx="463.44" cy="338.19" rx="4.15" ry="9.82" transform="translate(-30.25 45.93) rotate(-5.49)"/><ellipse class="cls-5" cx="457.85" cy="334.82" rx="4.15" ry="9.82" transform="translate(-29.95 45.38) rotate(-5.49)"/><ellipse class="cls-5" cx="450.8" cy="329.96" rx="4.15" ry="9.82" transform="translate(-29.52 44.68) rotate(-5.49)"/><ellipse class="cls-6" cx="444.26" cy="327.01" rx="4.15" ry="9.82" transform="translate(-29.27 44.04) rotate(-5.49)"/><path class="cls-9" d="M437.02,246.02s-14.5,12.58-12.87,46.63c1.83,34.24,32.04,50.34,32.04,50.34,0,0,7.7-9.72,6.81-37.23-2.16-40.22-16.43-58-16.43-58l-9.55-1.74Z"/><ellipse class="cls-6" cx="469.67" cy="349.49" rx="9.49" ry="4.31" transform="translate(82.06 788.22) rotate(-85.19)"/><ellipse class="cls-6" cx="462.61" cy="347.62" rx="9.49" ry="4.31" transform="translate(77.45 779.48) rotate(-85.19)"/><ellipse class="cls-6" cx="459.14" cy="337.53" rx="9.49" ry="4.31" transform="translate(84.33 766.78) rotate(-85.19)"/><ellipse class="cls-6" cx="466.47" cy="338.45" rx="10.47" ry="4.15" transform="translate(90.59 775.32) rotate(-85.25)"/><ellipse class="cls-6" cx="476.47" cy="340.35" rx="9.82" ry="4.15" transform="translate(97.66 786.85) rotate(-85.23)"/><ellipse class="cls-6" cx="471.57" cy="336.04" rx="9.82" ry="4.15" transform="translate(97.46 778.01) rotate(-85.23)"/><ellipse class="cls-6" cx="465.49" cy="330" rx="9.82" ry="4.15" transform="translate(97.91 766.42) rotate(-85.23)"/><ellipse class="cls-6" cx="459.59" cy="325.94" rx="9.82" ry="4.15" transform="translate(96.55 756.81) rotate(-85.23)"/><path class="cls-13" d="M452.96,270c6.3-2.43,18.03,11.04,26.21,30.1,8.17,19.06,9.69,36.48,3.39,38.92-6.3,2.43-19.23-9.62-27.41-28.68-6.21-15.52-8.49-37.91-2.19-40.34Z"/><ellipse class="cls-3" cx="458.35" cy="269.24" rx="4.71" ry="5.33" transform="translate(181 722.72) rotate(-88.98)"/><ellipse class="cls-2" cx="462.36" cy="262.58" rx="4.71" ry="4.78" transform="translate(191.6 720.19) rotate(-88.98)"/><ellipse class="cls-2" cx="455.92" cy="262.46" rx="4.71" ry="4.78" transform="translate(185.38 713.64) rotate(-88.98)"/><ellipse class="cls-1" cx="457.34" cy="257.59" rx="4.42" ry="5" transform="translate(191.65 710.27) rotate(-88.98)"/><ellipse class="cls-6" cx="456.77" cy="252" rx="4.42" ry="5" transform="translate(196.68 704.21) rotate(-88.98)"/><ellipse class="cls-6" cx="449.76" cy="258.7" rx="4.71" ry="4.78" transform="translate(183.09 703.78) rotate(-88.98)"/><ellipse class="cls-6" cx="451.2" cy="252.67" rx="4.61" ry="4.78" transform="translate(190.54 699.3) rotate(-88.98)"/><ellipse class="cls-6" cx="443.31" cy="252.82" rx="4.71" ry="5.33" transform="translate(182.64 691.55) rotate(-88.98)"/><ellipse class="cls-6" cx="453.12" cy="245.01" rx="4.42" ry="5" transform="translate(200.08 693.69) rotate(-88.98)"/><ellipse class="cls-6" cx="446.43" cy="245.85" rx="4.61" ry="4.78" transform="translate(192.67 687.84) rotate(-88.98)"/><ellipse class="cls-6" cx="436.3" cy="253.08" rx="4.71" ry="4.78" transform="translate(175.49 684.8) rotate(-88.98)"/><ellipse class="cls-6" cx="437.96" cy="249.56" rx="4.61" ry="4.78" transform="translate(180.64 683.01) rotate(-88.98)"/><ellipse class="cls-6" cx="439.99" cy="245.68" rx="4.61" ry="4.78" transform="translate(186.51 681.22) rotate(-88.98)"/><ellipse class="cls-6" cx="471.32" cy="298.67" rx="15.47" ry="44.74" transform="translate(-80.41 215.38) rotate(-23.78)"/><ellipse class="cls-6" cx="484.08" cy="305.85" rx="3" ry="9.37" transform="translate(-82.44 222.56) rotate(-23.92)"/><path class="cls-6" d="M482.71,305.84c12.67,15.43,11.07,25.22,9.75,33.51-3.98-9.56-6.15-15.57-18.83-31-12.67-15.43-6.35-26.26-5.48-31.96,1.91,4.94,1.88,14.02,14.56,29.45Z"/><path class="cls-6" d="M483.85,318.3c12.67,15.43,11.07,25.22,9.75,33.51-3.98-9.56-6.15-15.57-18.83-31-12.67-15.43-6.35-26.26-5.48-31.96,1.91,4.94,1.88,14.02,14.56,29.45Z"/><path class="cls-6" d="M484.23,328.34c12.98,15.16,11.57,24.98,10.42,33.3-4.17-9.47-6.46-15.44-19.44-30.6-12.98-15.16-6.87-26.12-6.12-31.84,2,4.9,2.16,13.98,15.14,29.14Z"/><ellipse class="cls-6" cx="475.23" cy="291.3" rx="5.46" ry="16.69" transform="translate(-78.59 228.2) rotate(-25.01)"/><ellipse class="cls-6" cx="470.2" cy="299.87" rx="4.77" ry="13.71" transform="translate(-81.8 220.5) rotate(-24.35)"/><ellipse class="cls-6" cx="464.2" cy="305.69" rx="4.77" ry="13.71" transform="translate(-82.81 207.16) rotate(-23.16)"/><ellipse class="cls-6" cx="469.17" cy="284.61" rx="3.81" ry="10.49" transform="translate(-78.68 253.26) rotate(-27.97)"/><ellipse class="cls-6" cx="464.08" cy="288.51" rx="3.82" ry="10.45" transform="translate(-77.8 217.94) rotate(-24.45)"/><path class="cls-4" d="M460.12,282.53c3.75,9.15,5.26,17.38,3.38,18.37-1.88.99-6.44-5.64-10.19-14.79"/><ellipse class="cls-6" cx="463.46" cy="277.76" rx="3.82" ry="10.45" transform="translate(-73.4 216.72) rotate(-24.45)"/><ellipse class="cls-6" cx="457.19" cy="280.78" rx="3.83" ry="10.44" transform="translate(-73.61 202.59) rotate(-23.18)"/><path class="cls-4" d="M453.6,270.1c3.64,6.19,5.6,11.96,4.37,12.89-1.22.93-5.17-3.33-8.81-9.52"/><path class="cls-4" d="M456.12,266c3.64,6.19,5.6,11.96,4.37,12.89-1.22.93-5.17-3.33-8.81-9.52"/><path class="cls-4" d="M467.43,266.86c5.07,8.45,7.8,16.34,6.09,17.62-1.71,1.27-7.21-4.55-12.28-13"/><path class="cls-4" d="M459.95,262.44c3.65,6.83,5.62,13.2,4.4,14.23-1.22,1.02-5.18-3.69-8.83-10.52"/><path class="cls-9" d="M459.63,252.54c-2.44,2.46-.05,7.05,2.18,8.7,2.5,2.27,16.56,17.1,26.48,4.62-7.95-.14-22.78-18.8-28.66-13.33Z"/><path class="cls-9" d="M457.89,245.22c-2.44,2.46-.05,7.05,2.18,8.7,2.5,2.27,16.56,17.1,26.48,4.62-7.95-.14-22.78-18.8-28.66-13.33Z"/><path class="cls-9" d="M455.67,238.21c-2.44,2.46-.05,7.05,2.18,8.7,2.5,2.27,16.56,17.1,26.48,4.62-7.95-.14-22.78-18.8-28.66-13.33Z"/><path class="cls-9" d="M450.84,230.19c-2.44,2.46-.05,7.05,2.18,8.7,2.5,2.27,16.56,17.1,26.48,4.62-7.95-.14-22.78-18.8-28.66-13.33Z"/><path class="cls-9" d="M433.52,222.51c5.02-3.74,14.25-4.83,21.44-1.17,5.99,2.93,15.97,14.91,23.47,17.74-5.28.94-8.49.15-11.87-1.48-6.67,4.83-9.04,5.55-15.83,6.5-9.45,1.36-17.29-1.1-20.04-6.02-2.81-4.65-1.6-12.11,2.83-15.57Z"/><ellipse class="cls-8" cx="444.18" cy="229.97" rx="2.51" ry="4.33" transform="translate(206.34 669.98) rotate(-88.98)"/><ellipse class="cls-7" cx="430.98" cy="240.13" rx="6.03" ry="3.68" transform="translate(-56.72 165.61) rotate(-20.44)"/><ellipse class="cls-17" cx="443.96" cy="229.8" rx="1.35" ry="1.56" transform="translate(206.29 669.6) rotate(-88.98)"/><path class="cls-7" d="M434.65,233.33c.4,1.93-1.03,4.53-4.13,5.45-3.16,1.31-5.56,4.27-6.94,9.13-4.8-11.06-1.75-15.74,3.35-16.88,4.39-1.4,7.03-1.22,7.72,2.3Z"/><ellipse class="cls-17" cx="430.02" cy="234.17" rx="1.1" ry="1.13" transform="translate(-23.64 49.94) rotate(-6.47)"/></svg>