<?xml version="1.0" encoding="UTF-8"?><svg id="_色修正" xmlns="http://www.w3.org/2000/svg" viewBox="0 0 900 600"><defs><style>.cls-1{stroke-width:1.24px;}.cls-1,.cls-2,.cls-3,.cls-4,.cls-5,.cls-6,.cls-7,.cls-8{stroke-miterlimit:3;}.cls-1,.cls-2,.cls-3,.cls-5,.cls-6,.cls-7,.cls-8{stroke:#040000;}.cls-1,.cls-2,.cls-5{fill:#456eac;}.cls-2{stroke-width:1.28px;}.cls-3,.cls-4{stroke-width:10.39px;}.cls-3,.cls-4,.cls-9{fill:#231815;}.cls-4{stroke:#fff;}.cls-5{stroke-width:1.6px;}.cls-6{stroke-width:1.62px;}.cls-6,.cls-7{fill:#ecd14e;}.cls-7,.cls-8{stroke-width:1.51px;}.cls-8{fill:#fff;}.cls-10{fill:#4673b8;}.cls-10,.cls-9,.cls-11,.cls-12,.cls-13{stroke-width:0px;}.cls-11{fill:#a62126;}.cls-12{fill:#8f2122;}.cls-13{fill:#fbc600;}</style></defs><rect class="cls-10" width="900" height="600"/><rect class="cls-13" y="112.5" width="900" height="375"/><rect class="cls-11" y="150" width="900" height="300"/><g id="e"><path class="cls-8" d="M739.28,231.42l-36.43,12.86,36.43,12.86,36.43-12.86-36.43-12.86Z"/><path class="cls-7" d="M188.93,240h526.38c2.57,0,4.66,1.92,4.66,4.29h0c0,2.37-2.09,4.29-4.66,4.29H188.93c-2.57,0-4.66-1.92-4.66-4.29h0c0-2.37,2.09-4.29,4.66-4.29Z"/><path class="cls-7" d="M707.16,248.57c2.14,0,4.29-2.14,4.29-4.29s-2.15-4.29-4.29-4.29"/><path class="cls-7" d="M702.87,248.57c2.14,0,4.29-2.14,4.29-4.29s-2.15-4.29-4.29-4.29"/><path class="cls-7" d="M698.58,248.57c2.14,0,4.29-2.14,4.29-4.29s-2.15-4.29-4.29-4.29"/></g><g id="e-2"><path class="cls-8" d="M704.37,257.14l-36.43,12.86,36.43,12.86,36.43-12.86-36.43-12.86Z"/><path class="cls-7" d="M154.03,265.72h526.38c2.57,0,4.66,1.92,4.66,4.29h0c0,2.37-2.09,4.29-4.66,4.29H154.03c-2.57,0-4.66-1.92-4.66-4.29h0c0-2.37,2.09-4.29,4.66-4.29Z"/><path class="cls-7" d="M672.26,274.29c2.14,0,4.29-2.14,4.29-4.29s-2.15-4.29-4.29-4.29"/><path class="cls-7" d="M667.96,274.29c2.14,0,4.29-2.14,4.29-4.29s-2.15-4.29-4.29-4.29"/><path class="cls-7" d="M663.68,274.29c2.14,0,4.29-2.14,4.29-4.29s-2.15-4.29-4.29-4.29"/></g><path class="cls-6" d="M96.05,293.58h715.88c3.5,0,6.34,2.88,6.34,6.43h0c0,3.55-2.84,6.43-6.34,6.43H96.05c-3.5,0-6.34-2.88-6.34-6.43h0c0-3.55,2.84-6.43,6.34-6.43Z"/><path class="cls-8" d="M664.28,300c-42.86,42.85-100,128.57-214.29,128.57-100,0-171.42-85.71-214.29-128.57,42.86-42.86,114.28-128.57,214.29-128.57,114.28,0,171.42,85.71,214.29,128.57h0Z"/><path class="cls-9" d="M435.03,216.15c11.4,12.82,1.88,17.99,13.95,18.84,12.73.93,5.51,13.55,16.22,13.99,7.48.33-.75,30.23,6.46,40.09,7.34,10.29,13.49,3.01,13.62,10.44.13,7.69-19.98,6.91-20.33,30.58-.59,13.64-16.96,14.52-17.75,23.3-.97,8.26,32.26,12.89,31.82,20.28-.46,7.37-35.88,6.22-37.43,14.62-.79,7.55,48.67,13.74,52.65,35.57-7.38,2.41-28.38,4.69-44.25,4.7-99.99.07-171.42-85.72-214.28-128.57,42.86-42.86,114.28-128.57,214.29-128.57,0,0-29.68,27.12-14.96,44.72h-.01Z"/><g id="c"><g id="b"><path id="a" class="cls-4" d="M320.9,288.57v-34.29M341.67,254.28v34.29M362.46,254.28v34.29"/><path id="a-2" class="cls-4" d="M320.9,345.72v-34.29M341.67,311.43v34.29M362.46,311.43v34.29"/></g><g id="b-2"><path id="a-3" class="cls-4" d="M383.24,288.57v-34.29M404.01,254.28v34.29M424.8,254.28v34.29"/><path id="a-4" class="cls-4" d="M383.24,345.72v-34.29M404.01,311.43v34.29M424.8,311.43v34.29"/></g></g><g id="c-2"><g id="b-3"><path id="a-5" class="cls-3" d="M478.04,288.57v-34.29M498.81,254.28v34.29M519.6,254.28v34.29"/><path id="a-6" class="cls-3" d="M478.04,345.72v-34.29M498.81,311.43v34.29M519.6,311.43v34.29"/></g><g id="b-4"><path id="a-7" class="cls-3" d="M540.38,288.57v-34.29M561.15,254.28v34.29M581.94,254.28v34.29"/><path id="a-8" class="cls-3" d="M540.38,345.72v-34.29M561.15,311.43v34.29M581.94,311.43v34.29"/></g></g><path class="cls-2" d="M767.03,294.9c-6.49,11.24,4.98-3.74,32.98,15.08,5.19,3.5,9.72,12.73,9.72,19.14-1.32-.88-2.3-2.84-3.75-4.11-2.03,2.04,1.94,11.37,2.52,15.78-4.38-2.45-3.96-3.61-5.41-6.62.29,3.64-.75,13.66.99,17.52-3.45-.99-3.22-3.76-5.02-4.32,1.23,4.37-1.07,9.12-.46,14.03-2.02-2-4.16-3.56-5.1-4.36-.16,2.34-3.88,8.48-3.96,10.7-1.71-1.03-2.18-2.64-2.46-3.73-2.13,2.67-9.68,12.54-10.17,15.55-5.82-5.14-20.73-17.66-22.68-24.31-1.72,3.77-4.2,5.05-9.11,7.8-1.94-10.53-9.2-22.37-5.31-31.4-2.75,1.63-5.01,3.26-7.76,5.27,2.6-15.25,15.88-33.14,34.98-42h0Z"/><path class="cls-12" d="M742.81,350.58c2.7-5.39,5.18-7.1,6.92-10.57,3.08-6.1,3.52-10.95,6.2-10.24,2.68.71,2.68,3.21-.79,9.2-3.47,6-5.12,7.28-12.32,11.6h0Z"/><path class="cls-12" d="M761.04,363.42c-.35-4.1.84-5.82.63-8.46-.37-4.65-2.27-7.84.2-8.07,2.47-.23,3.63,1.36,3.63,6.04s-.72,5.91-4.46,10.48h0Z"/><path class="cls-12" d="M774.87,371.46c-1.08-5.73-.27-8.27-.96-11.96-1.2-6.49-3.58-10.77-1.29-11.36,2.29-.59,3.67,1.51,4.54,8.09.87,6.58.41,8.39-2.28,15.23h0Z"/><path class="cls-12" d="M789.25,331.33c-3.38-2.56-5.35-2.74-7.53-4.38-3.84-2.89-5.78-5.99-7.01-4.45s-.36,3.22,3.66,5.88c4.02,2.67,5.38,2.88,10.88,2.95h0Z"/><path class="cls-12" d="M786.87,350.34c-1.78-3.7-3.65-4.63-4.81-7.01-2.04-4.18-2.04-7.8-4.25-6.87s-2.39,2.82-.02,6.87c2.36,4.05,3.6,4.78,9.08,7.02h0Z"/><path class="cls-5" d="M121.17,305.73c-.36-3.27.34-3.67-1.68-6.13,2.93,1.23,3.04,4.49,6.61,2.17,1.31-.68,1.88-.7.29-4.34,3.72.17,15.89,4.35,17.84,4.44,5.12.24,14.47-5.38,20.95,1.52,6.23,6.29,4.15,12.83,4.15,21.54-2.5-1.2-1.3-1.79-3.95-4.91,1.99,7.62-.11,21.36-.11,29.44-1.02-1.95-.87-1.1-1.87-3.12-2.65,7.38-5.84,8.89-5.84,17.61-.96-3.42-.03-2.7-1.1-4.49-2.58,5.6-19.89,10.38-13.22,16.03-6.02-3.53-8.66-3.16-11.39-6.33-1.18.76-2.11,2.2-3.2,4.17-10.59-4.87-6.8-15.38-15.09-22.39-1.44,2.94-.78,2.52-2.33,7.3-1.68-6.65-2.14-10.88-4.03-15.77-1.63,2.71-1.48,1.67-4.44,5.77-1.22-8.1-3.22-10.01-2.43-15.38-3.14,2.22-1.09,1.32-4.23,4.05,2.98-20.76,15.84-36.1,25.06-31.19h0Z"/><path class="cls-12" d="M108.15,339.62c2.73-6.68,5.19-8.78,6.95-13.09,3.11-7.56,3.62-13.61,6.23-12.69,2.61.92,2.57,4.04-.93,11.47-3.5,7.43-5.13,9.01-12.26,14.3h0Z"/><path class="cls-12" d="M118.48,356.34c1.09-5.99,2.82-8.17,3.53-12.03,1.26-6.79.56-11.84,2.99-11.57,2.43.27,2.98,2.83,1.36,9.58-1.62,6.75-2.73,8.35-7.88,14.03h0Z"/><path class="cls-12" d="M130.83,367.96c.31-5.81,1.67-8.08,1.87-11.82.37-6.58-.9-11.29,1.42-11.32,2.32-.03,3.14,2.34,2.43,8.93-.71,6.59-1.57,8.23-5.73,14.21Z"/><path class="cls-12" d="M157.35,329.97c-5.07-5.05-8.14-6-11.41-9.24-5.76-5.71-8.55-11.06-10.6-9.17s-.82,4.75,5.25,10.18,8.18,6.22,16.76,8.23Z"/><path class="cls-12" d="M154.26,349.5c-3.3-5.07-5.73-6.39-7.86-9.65-3.76-5.74-5.05-10.67-7.19-9.44-2.13,1.22-1.66,3.8,2.42,9.36,4.08,5.56,5.71,6.58,12.63,9.74h0Z"/><path class="cls-1" d="M380.7,194.25c-5.94,11.48,10.4-3.82,36,15.4,4.74,3.57,11.55,17.68,11.55,24.22-5.45-1.16-15.1-6.54-15.1-6.54,0,0,11.33,11.35,11.33,24.43-4-2.5-6-2.13-7.34-5.2,0,4.23,3.56,6.93,3.56,13.47-2.89-2.31-5.34-3.84-7.78-5.19,3.78,6.54-6.88,19.23-1.55,23.46-9.33-1.35-18.87-7.31-22.65-13.85-2,1.35-2.22,3.47-2.3,5.72.29.24-14.2-10.76-12.87-14.98-1.94,2.73-2.22,4.23-2.66,7.3-5.32-5.25-10.2-10.5-11.98-17.29-2.37,3.07-2.51,3.07-4.88,6.15-1.77-10.76-1.77-10.37,1.77-19.59-2.51,1.67-4.58,3.33-7.1,5.38,2.38-15.58,14.52-33.84,31.99-42.89h0Z"/><path class="cls-12" d="M366.06,250.35c.95-7.91,3.02-10.89,3.64-15.99,1.1-8.96-.21-15.51,2.97-15.34,3.18.17,4.09,3.47,2.52,12.41-1.57,8.94-2.89,11.11-9.13,18.92h0Z"/><path class="cls-12" d="M382.63,264.84c-.64-6.67.59-9.52.18-13.82-.71-7.57-3.04-12.69-.27-13.16,2.77-.47,4.17,2.07,4.47,9.71.3,7.64-.44,9.67-4.37,17.27h0Z"/><path class="cls-12" d="M408.51,276.66c-2.81-5.78-5.23-7.5-7.05-11.22-3.21-6.53-3.88-11.87-6.35-10.9-2.47.97-2.34,3.73,1.24,10.12,3.57,6.4,5.19,7.7,12.17,12Z"/><path class="cls-12" d="M417.46,224.92c-7.17-3.77-10.85-3.82-15.47-6.24-8.13-4.25-12.87-9.05-14.55-6.41-1.68,2.64.56,5.27,8.95,9.13,8.38,3.86,10.96,4.05,21.07,3.52h0Z"/><path class="cls-12" d="M420.09,246.54c-5.22-4.34-8.3-4.98-11.67-7.77-5.93-4.9-8.88-9.71-10.86-7.76-1.98,1.95-.66,4.53,5.57,9.15s8.35,5.19,16.96,6.39h0Z"/></svg>